<svg width="44" height="44" viewBox="0 0 44 44" fill="none" xmlns="http://www.w3.org/2000/svg">
<rect width="44" height="44" fill="white"/>
<path d="M19.9785 19.0151C19.9785 17.8991 20.8835 16.9941 21.9995 16.9941C23.1155 16.9941 24.0205 17.8991 24.0205 19.0151V33.0741C24.0205 34.1901 23.1155 35.0951 21.9995 35.0951C20.8835 35.0951 19.9785 34.1901 19.9785 33.0741" fill="#7F8DFF"/>
<path d="M30.689 35.0942C29.573 35.0942 28.668 34.1892 28.668 33.0732V19.0142C28.668 17.8982 29.573 16.9932 30.689 16.9932C31.805 16.9932 32.71 17.8982 32.71 19.0142V33.0732C32.71 34.1892 31.805 35.0942 30.689 35.0942Z" fill="#7F8DFF"/>
<path d="M13.312 35.0942C12.196 35.0942 11.291 34.1892 11.291 33.0732V19.0142C11.291 17.8982 12.196 16.9932 13.312 16.9932C14.428 16.9932 15.333 17.8982 15.333 19.0142V33.0732C15.333 34.1892 14.428 35.0942 13.312 35.0942Z" fill="#7F8DFF"/>
<path d="M24.0215 17.2959H19.9785V23.2559H24.0215V17.2959Z" fill="#6467F9"/>
<path d="M32.709 17.2959H28.666V23.2559H32.709V17.2959Z" fill="#6467F9"/>
<path d="M15.334 17.2959H11.291V23.2559H15.334V17.2959Z" fill="#6467F9"/>
<path fill-rule="evenodd" clip-rule="evenodd" d="M35.8135 16.274L23.2255 6.52299C22.5045 5.96499 21.4965 5.96499 20.7755 6.52299L8.1875 16.274V18.189H35.8135V16.274Z" fill="#6467F9"/>
<path d="M36.989 32.8428H7.011C6.45264 32.8428 6 33.2954 6 33.8538V36.8848C6 37.4431 6.45264 37.8958 7.011 37.8958H36.989C37.5474 37.8958 38 37.4431 38 36.8848V33.8538C38 33.2954 37.5474 32.8428 36.989 32.8428Z" fill="#7F8DFF"/>
<path d="M36.989 16.3721H7.011C6.45264 16.3721 6 16.8247 6 17.3831V20.4141C6 20.9724 6.45264 21.4251 7.011 21.4251H36.989C37.5474 21.4251 38 20.9724 38 20.4141V17.3831C38 16.8247 37.5474 16.3721 36.989 16.3721Z" fill="#7F8DFF"/>
</svg>
