<svg width="44" height="44" viewBox="0 0 44 44" fill="none" xmlns="http://www.w3.org/2000/svg">
<g clip-path="url(#clip0_3371_20037)">
<rect width="44" height="44" fill="white"/>
<path d="M6.75195 27.9802C6.75195 22.1049 11.5148 15.4187 17.3901 15.4187H26.6079C32.4832 15.4187 37.2461 22.1049 37.2461 27.9802C37.2461 33.8555 32.4832 38.6183 26.6079 38.6183H17.3901C11.5148 38.6183 6.75195 33.8555 6.75195 27.9802Z" fill="#60E879"/>
<path d="M25.7905 24.2299C24.5681 27.8622 19.4307 27.8622 18.2083 24.2299L13.6405 10.6567C12.7682 8.06445 14.6965 5.38086 17.4316 5.38086L26.5672 5.38086C29.3023 5.38086 31.2306 8.06445 30.3583 10.6567L25.7905 24.2299Z" fill="#60E879"/>
<path d="M22.7765 33.3408C21.8241 33.3408 21.3699 32.9159 21.282 32.0368L20.3149 33.3408H19.0109C18.0292 33.3408 17.6043 32.8866 17.5017 31.9782L17.0182 27.8023H14.6738L15.553 25.7217H16.7691L16.3442 22H18.9376L19.3186 25.7217H20.8717L20.6226 22H23.0549L23.2161 25.7217H24.7399L25.0623 22H27.6557L27.2308 25.7217H29.3261L28.447 27.8023H26.9817L26.3517 33.3408H22.7765ZM21.0036 27.8023H19.5237L19.8754 31.0991H21.2234L21.0036 27.8023ZM23.3187 27.8023L23.4652 31.0991H24.2711L24.5494 27.8023H23.3187Z" fill="#34A464"/>
<path d="M29.4805 14.2568C30.3089 14.2568 30.9805 14.9284 30.9805 15.7568C30.9805 16.5853 30.3089 17.2568 29.4805 17.2568H23.0381C25.7851 21.0783 28.4761 20.783 29.1045 20.5312C29.8733 20.2228 30.7471 20.5956 31.0557 21.3643C31.3639 22.133 30.9903 23.006 30.2217 23.3145C28.407 24.0424 25.3227 23.8341 22.3838 21.0557C23.3032 22.7909 24.5588 23.3038 25.0068 23.3691C25.8265 23.4885 26.3946 24.2497 26.2754 25.0693C26.156 25.889 25.3949 26.4571 24.5752 26.3379C22.1737 25.9882 18.8045 23.4086 18.3779 17.2568H14.332C13.5036 17.2568 12.832 16.5853 12.832 15.7568C12.832 14.9284 13.5036 14.2568 14.332 14.2568H29.4805Z" fill="#38B369"/>
</g>
<defs>
<clipPath id="clip0_3371_20037">
<rect width="44" height="44" fill="white"/>
</clipPath>
</defs>
</svg>
