<svg width="44" height="44" viewBox="0 0 44 44" fill="none" xmlns="http://www.w3.org/2000/svg">
<rect width="44" height="44" fill="white"/>
<g clip-path="url(#clip0_3371_20121)">
<path d="M5.82031 15.4404V30.3088C5.82031 31.3434 6.19425 32.2809 6.7947 33.0306L17.0841 24.8283L5.82031 15.4404Z" fill="#7F8DFF"/>
<path d="M37.2064 33.0297C37.8068 32.2809 38.1807 31.3425 38.1807 30.3079V15.4404L26.916 24.8274L37.2064 33.0297Z" fill="#7F8DFF"/>
<path d="M19.023 24.5371L5.82031 15.4404L17.085 24.8274L19.023 26.4427C20.8154 27.8323 23.1848 27.8323 24.9781 26.4427L26.9161 24.8274L38.1808 15.4404L24.9781 24.5371C23.1857 25.7721 20.8163 25.7721 19.023 24.5371Z" fill="#7080FF"/>
<path d="M24.9774 26.4424C23.185 27.8321 20.8156 27.8321 19.0223 26.4424L17.0844 24.8271L6.79492 33.0294C7.59672 34.0281 8.8129 34.6806 10.1927 34.6806H33.8062C35.1868 34.6806 36.403 34.0281 37.2039 33.0294L26.9145 24.8271L24.9774 26.4424Z" fill="#AFB8FF"/>
<path d="M33.6855 9.31836H10.3147C7.8329 9.31836 5.82031 11.3309 5.82031 13.8127V15.4406L19.023 24.5372C20.8154 25.7723 23.1848 25.7723 24.9781 24.5372L38.1808 15.4406V13.8127C38.1808 11.3309 36.1673 9.31836 33.6855 9.31836Z" fill="#AFB8FF"/>
</g>
<defs>
<clipPath id="clip0_3371_20121">
<rect width="35.9551" height="35.9551" fill="white" transform="translate(4.02148 4.02246)"/>
</clipPath>
</defs>
</svg>
