<svg width="44" height="44" viewBox="0 0 44 44" fill="none" xmlns="http://www.w3.org/2000/svg">
<rect width="44" height="44" fill="white"/>
<path d="M20.2155 6.71582L27.8355 12.4558C28.1555 12.6958 28.1555 13.1758 27.8355 13.4158L20.2155 19.1558C19.8155 19.4558 19.2555 19.1758 19.2555 18.6758L19.2555 15.1558L17.2555 15.1558C15.3355 15.1558 13.7855 16.7058 13.7855 18.6158L13.7855 22.6158C13.7855 22.9458 13.5155 23.2158 13.1855 23.2158L9.95547 23.2158C9.62547 23.2158 9.35547 22.9458 9.35547 22.6158L9.35547 18.6158C9.35547 14.2558 12.8955 10.7258 17.2555 10.7258L19.2555 10.7258L19.2555 7.19582C19.2555 6.70582 19.8155 6.41582 20.2155 6.71582Z" fill="#5DA5FF"/>
<path d="M23.9271 37.2842L16.3071 31.5442C15.9871 31.3042 15.9871 30.8242 16.3071 30.5842L23.9271 24.8442C24.3271 24.5442 24.8871 24.8242 24.8871 25.3242L24.8871 28.8442L26.8871 28.8442C28.8071 28.8442 30.3571 27.2942 30.3571 25.3842L30.3571 21.3842C30.3571 21.0542 30.6271 20.7842 30.9571 20.7842L34.1871 20.7842C34.5171 20.7842 34.7871 21.0542 34.7871 21.3842L34.7871 25.3842C34.7871 29.7442 31.2471 33.2742 26.8871 33.2742L24.8871 33.2742L24.8871 36.8042C24.8871 37.2942 24.3271 37.5842 23.9271 37.2842Z" fill="#7F8DFF"/>
</svg>
