<svg width="44" height="44" viewBox="0 0 44 44" fill="none" xmlns="http://www.w3.org/2000/svg">
<rect width="44" height="44" fill="white"/>
<path d="M7.75781 27.999C7.75781 19.5869 14.5772 12.7676 22.9893 12.7676V12.7676C31.4014 12.7676 38.2207 19.5869 38.2207 27.999V38.528C38.2207 38.9726 37.8603 39.333 37.4157 39.333H8.56283C8.11823 39.333 7.75781 38.9726 7.75781 38.528V27.999Z" fill="#4B82FA"/>
<path d="M29.0357 27.0622C29.3692 27.0622 29.6298 27.3797 29.5411 27.7014C29.261 28.7198 28.3286 29.4678 27.2215 29.4678C26.1144 29.4678 25.182 28.7198 24.9019 27.7014C24.8132 27.3797 25.0738 27.0622 25.4073 27.0622L29.0357 27.0622Z" fill="#FF8373"/>
<path d="M22.4336 24.7422V22.3125C22.4336 21.4841 23.1052 20.8125 23.9336 20.8125C24.762 20.8125 25.4336 21.4841 25.4336 22.3125V24.7422C25.4336 25.5706 24.762 26.2422 23.9336 26.2422C23.1052 26.2422 22.4336 25.5706 22.4336 24.7422Z" fill="#2D2D2D"/>
<path d="M28.666 24.7422V22.3125C28.666 21.4841 29.3376 20.8125 30.166 20.8125C30.9944 20.8125 31.666 21.4841 31.666 22.3125V24.7422C31.666 25.5706 30.9944 26.2422 30.166 26.2422C29.3376 26.2422 28.666 25.5706 28.666 24.7422Z" fill="#2D2D2D"/>
<rect x="8.33789" y="11.2529" width="12.1289" height="9.30273" rx="4.65137" transform="rotate(-26.0529 8.33789 11.2529)" fill="#FF3C00"/>
<path d="M6.51231 4.89684C8.64681 4.30371 10.5665 4.93923 12.0318 5.88317C13.4854 6.81949 14.5767 8.10777 15.1549 9.03259C15.4475 9.50087 15.3058 10.1178 14.8375 10.4105C14.3692 10.7033 13.7523 10.5605 13.4596 10.0922C13.0091 9.37157 12.1134 8.31501 10.9488 7.56481C9.79601 6.82221 8.46593 6.42941 7.04747 6.8236C6.51547 6.97136 5.96398 6.66022 5.81602 6.12829C5.66815 5.59617 5.98019 5.04472 6.51231 4.89684Z" fill="#2D2D2D"/>
</svg>
