<svg xmlns="http://www.w3.org/2000/svg" xml:space="preserve" width="729.36322" height="203.20465" viewBox="0 0 729.36322 203.20465"><defs><clipPath id="a" clipPathUnits="userSpaceOnUse"><path d="M0 841.89h595.28V0H0Z"/></clipPath></defs><g clip-path="url(#a)" style="stroke-width:.769144" transform="matrix(1.73353 0 0 -1.73353 -151.275 831.686)"><g style="stroke-width:.769144"><path d="M0 0s59.221-7.708 103.992 36.77C103.992 36.77 77.87-17.94 0 0" style="fill:#182051;fill-opacity:1;fill-rule:nonzero;stroke:none;stroke-width:.769144" transform="translate(239.691 442.995)"/></g><g style="stroke-width:.769144"><path d="M0 0h-9.365v49.987s4.466.761 10.019-1.741C6.207 45.738 16.77 32.018 20.8 26.027S31.471 12.09 33.324 12.09v38.005h9.475V0s-9.475-.761-14.593 4.249-8.387 6.536-22.435 26.681c0 0-2.396 3.159-5.663 5.337z" style="fill:#182051;fill-opacity:1;fill-rule:nonzero;stroke:none;stroke-width:.769144" transform="translate(96.629 363.858)"/></g><g style="stroke-width:.769144"><path d="M0 0c-10.839 0-16.37 7.737-16.37 17.281 0 9.545 5.983 17.282 16.37 17.282 10.162 0 16.371-7.737 16.371-17.282S10.162 0 0 0m0 43.62c-16.763 0-26.42-11.791-26.42-26.339S-17.494-9.064 0-9.064c16.4 0 26.421 11.797 26.421 26.345S16.4 43.62 0 43.62" style="fill:#182051;fill-opacity:1;fill-rule:nonzero;stroke:none;stroke-width:.769144" transform="translate(186.166 371.608)"/></g><g style="stroke-width:.769144"><path d="M0 0c-10.84 0-16.371 7.737-16.371 17.281 0 9.545 5.984 17.282 16.371 17.282 10.16 0 16.37-7.737 16.37-17.282S10.16 0 0 0m0 43.62c-16.763 0-26.421-11.791-26.421-26.339S-17.494-9.064 0-9.064c16.401 0 26.421 11.797 26.421 26.345S16.401 43.62 0 43.62" style="fill:#182051;fill-opacity:1;fill-rule:nonzero;stroke:none;stroke-width:.769144" transform="translate(315.346 371.608)"/></g><g style="stroke-width:.769144"><path d="m0 0-15.298-34.327L-30.597 0h-11.63L-17.5-50.582h4.403L11.63 0Z" style="fill:#182051;fill-opacity:1;fill-rule:nonzero;stroke:none;stroke-width:.769144" transform="translate(265.99 413.833)"/></g><g style="stroke-width:.769144"><path d="M0 0h-46.292v-8.919h18.403v-41.327h9.146v41.327H0Z" style="fill:#182051;fill-opacity:1;fill-rule:nonzero;stroke:none;stroke-width:.769144" transform="translate(398.763 413.94)"/></g><g style="stroke-width:.769144"><path d="M0 0v8.919h-36.469v-32.291s-.018-3.193.453-6.785c.698-5.319 5.883-10.309 16.481-11.566C-8.938-42.979-.516-40.616-.516-40.616v8.396s-.201-.351-9.453-.854c-9.253-.503-12.47.503-14.783 1.86s-2.122 7.842-2.122 7.842v3.271H-2.6v8.922h-24.274V0Z" style="fill:#182051;fill-opacity:1;fill-rule:nonzero;stroke:none;stroke-width:.769144" transform="translate(451.378 405.022)"/></g><g style="stroke-width:.769144"><path d="M0 0c-9.252-.503-12.471.503-14.783 1.86-2.314 1.358-2.122 7.842-2.122 7.842v32.291h-9.594V9.702s-.02-3.193.452-6.785c.697-5.318 5.883-10.309 16.481-11.565C1.03-9.905 9.453-7.542 9.453-7.542V.854S9.252.503 0 0" style="fill:#182051;fill-opacity:1;fill-rule:nonzero;stroke:none;stroke-width:.769144" transform="translate(498.55 371.947)"/></g></g></svg>