<svg xmlns="http://www.w3.org/2000/svg" width="226.47539pt" height="75pt" viewBox="0 0 226.47539 74.999996"><path fill="#ffb514" d="M49.323 12.007H25.68c-7.537 0-13.668 6.13-13.668 13.668v23.644c0 7.537 6.13 13.674 13.668 13.674h23.644c7.537 0 13.668-6.137 13.668-13.674V25.675c0-7.538-6.13-13.668-13.668-13.668m4.62 34.911a7.388 7.388 0 0 1-7.388 7.39H28.447a7.388 7.388 0 0 1-7.389-7.39V28.075a7.392 7.392 0 0 1 7.39-7.389h18.107a7.392 7.392 0 0 1 7.389 7.39z" style="stroke-width:6.4531"/><path fill="#ffb514" d="M51.45 0H23.555C10.564 0 0 10.564 0 23.547v27.904c0 12.983 10.564 23.547 23.554 23.547H51.45c12.983 0 23.547-10.564 23.547-23.547V23.547C74.998 10.564 64.434 0 51.451 0m14.5 49.321c0 9.17-7.46 16.623-16.63 16.623H25.677c-9.163 0-16.623-7.453-16.623-16.623V25.677c0-9.17 7.46-16.623 16.623-16.623h23.644c9.17 0 16.63 7.453 16.63 16.623zM88.486 49.322V25.677c0-9.17 7.46-16.623 16.623-16.623h41.384V0h-43.507c-13.01 0-23.554 10.545-23.554 23.548V51.45C79.432 64.454 89.976 75 102.986 75h43.507v-9.054h-41.384c-9.163 0-16.623-7.453-16.623-16.623" style="stroke-width:6.4531"/><path fill="#ffb514" d="M91.441 25.677v23.644c0 7.537 6.13 13.668 13.668 13.668h41.384v-8.68h-38.61a7.388 7.388 0 0 1-7.388-7.388V28.078a7.388 7.388 0 0 1 7.389-7.39h38.609V12.01h-41.384c-7.537 0-13.668 6.13-13.668 13.668M200.798 12.007h-23.644c-7.537 0-13.668 6.13-13.668 13.668v49.32h9.048v-46.92a7.392 7.392 0 0 1 7.389-7.389h18.107a7.392 7.392 0 0 1 7.389 7.39v46.92h9.047V25.675c0-7.538-6.13-13.668-13.668-13.668" style="stroke-width:6.4531"/><path fill="#ffb514" d="M226.475 23.55c0-13.004-10.544-23.548-23.547-23.548h-27.903c-13.003 0-23.548 10.544-23.548 23.547V75h9.054V25.679c0-9.17 7.453-16.63 16.623-16.63h23.644c9.17 0 16.624 7.46 16.624 16.63V75h9.053z" style="stroke-width:6.4531"/></svg>