<svg xmlns="http://www.w3.org/2000/svg" width="284px" height="80px" viewBox="0 0 284 80"><path fill="#ffffff00" d="M0 0h284v80H0z"/><path fill="#294237" fill-rule="evenodd" d="m228.167 59.25-.917.583-.333.5-.417 1.584-.667 1.333-.25 1.417-.75 1.333-.166 1.167-.75 1.166-.25 1.667-.75 1.25-.25 1.583-.667.917-.417 1.917-.666 1.25-.25 1.416-.584 1.584h3.75l.334-1.667.833-1.583.167-1.167.333-.333h7.083l.5.416.667 1.667.167 1.083.583.75.25.834h3.333V78.25l-.75-1.25-.333-1.583-.667-1.25-.333-1.584-.583-1-.5-2-.667-1-.167-1.333-.75-1.25-.333-1.583-.833-1.75-.167-1.084-.5-.666-.25-.75-.5-.75-.583-.25Zm.916 5.667h.334l.25.333.166 1.667.167.5.667.916.166 1.334.917 1.333-.083.583-.25.25h-4.167l-.5-.333V71l.333-.5.334-1.5.666-1.333.417-1.917Zm-50.75-5.5-.416.666.083 19.834h3.5l.25-1.334v-5.166l-.167-.667.334-.5.416-.167h3.167l.333.334.25.583.5.667.25.916.75 1.084.25.916.75 1.084.25.916.75 1.334h3.75l-.25-1.584-.75-1.083-.25-.917-.75-1.083-.25-.917-.75-1.083-.416-1.25.083-.417.333-.333.75-.167.417-.25 1.417-1.333.416-1.167.584-1 .083-2.916-.917-2.334-.75-.666-.333-.5-.667-.334-.75-.666-1.666-.334-1.25-.416h-8.584Zm3.5 3.833.5-.333h5.5l1.584.333.416.583.334 1.334v1.083l-.417 1.333-.25.25-.417.084-.583.5-.417.166-5.25.084L182 68.5l-.333-.417v-4.5Zm-19.5-3.667-.416.5-.417 1.834-.583 1-.25 1.416-.75 1-.167 1.417-.833 1.5-.167 1.333-.75 1.25-.5 2.084-.667 1.333-.25 1.333-.583.834-.25 1.25-.5 1.25-.083 1h3.666l.417-2 .75-1.25.083-1.084.334-.416h7.166l.334.333.75 1.417.25 1.583.583.833.167.584H173V78.25l-.75-1.25-.25-1.583-.833-1.584-.25-1.416-.667-.834-.167-1.333-.333-.833-.5-.75-.25-1.334-.75-1.333-.167-1.083-.583-1.584-.417-.75-.25-1.333-.5-.5-.416-1.167-.5-.333-2.084-.083ZM164 64.917h.417l.25.333.166 1.667.25.666.584.75.25 1.834.75.916v.5l-.25.25h-4.334l-.25-.083-.25-.333v-.25l.584-1.084.083-.833.667-1.083.583-2.417Zm-13.667-5-1.083-.167-.917-.417h-.916l-.667-.166h-7.417l-.75.25-.416.416-.167.417v18.5l.167 1.167h3.333l.25-1.334v-5.416l.417-.584 4.916-.083 2.5-.417 1.917-1.166 1.333-1.584.25-.5.417-1.666V64.75l-.5-2.167-.833-.916-.25-.5-.667-.417Zm-8.5 3.333.5-.333h4.834l1.583.333.833.917.167.416.083 2.167-.25.833-1 1.084-.5.166h-6l-.416-.5v-4.75Zm72.834-4-.417-.167-1.5.084-.5.166-.417.584-.083 11.583.167.917-.084.333-.25.25h-.166l-.334-.333-.166-.584-.667-1-.167-.666-.833-.834-.417-1.166-.583-.584-.333-.75-.667-.666-.333-1-.5-.5L206 64l-.667-.75-.333-1-.833-.833-.334-1-1.083-1-.667-.25h-1.75l-.416.166-.334.334-.166.416v18.75l.166 1.084H203l.167-11-.167-1.834.25-.5h.25l.333.334.25.666.584.75.166.5.75.834.334 1.083.75.75.416 1 .584.583.333.75.667.667.333 1 .5.5.417.917.666.75.417.916.667.667.25.667H215l.167-.917V60.083l-.167-.5Zm-103.5 0-.417.417-.167.666v18.25l.25 1.334H124l.167-2.584-.25-.666-.334-.25-.833-.084-8.167.167-.333-.25-.167-.417V60.167l-.166-.417-.334-.333-.416-.167-1.084-.167Zm-21.917 0-.333.333-.167.5V73.25l.167 1.25.666 1.25.25 1 .75.75.5.833.917.75.917.334.416.5H100l.417-.5 1.25-.667 1.25-1.25.5-1.25.5-.5.166-.417.084-1.083.333-1.083v-1.834l.25-.75v-10.25l-.167-.416-.583-.584-.417-.166h-2l-.5.333-.25.583-.083 13.75-1 1.584-1.417 1.083-.416.167L96 76.75l-1.083-.333-1.084-.667-.5-.5L93 74.167l-.667-1.334V60.25l-.166-.583-.167-.25-.5-.25-1.833-.084Zm-27.5 0-.667-.167-11.5.084-.5.333-.25.583v18.75l.25 1.084H62.75l.333-1.667v-.583l-.25-.834-.416-.333-9.334-.083-.583-.584.083-4.75.417-.333 4.25.083.417-.166.333-.334.167-.5V68l-.084-.417-.333-.5-.5-.166-4.167.083-.5-.333-.166-.5.166-1.084-.166-1.333.166-.5.5-.333h8.5l.5-.417.25-.833-.083-1.75-.25-.5Zm185.583-.167-2.166.834-1.334 1.166-.25.5-.666.75-.25 1.334-.25.583v.917l.25.916.166 1.5 1.084 1.334.833.333.667.667 1.25.25.75.583.416.167 1.834.25 1.333.75 1.167.333.5.5.5 1.083-.167 1.334-.417.666-.5.167-1.083.667-2.75.083-1.667-.833-1.083-.334-.583-.75-.667-.166-.583.166-.75.75-.834.417-.166.583.25.5.75.917.5.25.75.75 1.166.417.334.333v.167h7.5l.416-.5 1.084-.584 1.25-1.333.416-1.167.584-1v-2.75l-.5-.666-.334-.917-.5-.75-1.75-1.417-.916-.166-1.25-.75-1.417-.167-1.333-.75-1.167-.25-.5-.25-1.083-1.083v-1.584l.416-.583 1.5-.5h2.084l1.166.333.917.084.917 1h.916l1.75-1.417.084-.917-.334-.666-1.25-.584-.75-.666-1.25-.334L251.25 59l-3.25-.083Zm-174-.083-1.166.583L70.75 60l-.5.5-.833.5L68 62.417l-.5 1.25-.5.5-.167.416-.083 1.084L66.167 67l-.167.917-.083 3.166.166 1.167.584 1.333.333 1.584.583.75.417.916.917 1.084.416.25.75.833 1 .417.25.5h6.917v-.167l.333-.333L79.5 79l1.5-1.167.333-.666.5-.417.5-1.417.667-.75.167-1.25.416-1 .334-1.583-.084-3.083-.583-1.584-.25-1.5-.25-.416-.333-.25-.584-1.5L80.5 61l-1.25-1-1.5-.417L76.583 59Zm.584 3.75 1.333-.083 2.167.583 1.25 1.25.333 1 .667.833.166.834.084 3.583-.25 2.25-.834 1.583-1 1.084-2.166 1.083-1.917-.083-1.667-1-.75-.75-.75-1.084-.5-1.333-.166-1.583v-2.75l.333-2.334.667-.833.25-.667 1.166-1.083ZM34.083 59 33 59.667 31.75 60l-1.667 1.417-.916 2-.167.666v1.75l.167.667.416.583.167.667.417.75.583.5.833.333.75.667 1.584.417 1.333.666 1.5.25 1.083.667.75.167.417.25.833 1.083-.083 1.75-.417.5-1.333.917-2.833.083-.584-.167-.916-.583-1.167-.333-1-.834-1-.166-.333.083-.75.917-.584.333-.166.5.083.5.25.5 1.583 1.333 1.417.5.25.25.083.334h7.5l.084-.334.25-.25.916-.333.667-.5 1.333-1.75.417-1.667v-1.916l-.417-1.834-1.25-1.5-.5-.25-.75-.666-1-.25-1-.75-1.833-.25-1.25-.75-.833-.084-.667-.25-1.083-1.25-.084-.666.334-1.167.333-.333 1.083-.417h2.334l1 .333.75.084.333.166.75.75.833.167.25-.083.75-.917.75-.5V61.5l-.416-.583-.75-.25L40.5 60l-1.5-.417L37.917 59Zm172.25-50.833-.416.5-.25 1.416-.75 1.834-.25 1.166v.584l.25.416.916.084.417-.167 1-.75 2-.25h4.25l.583.583L214 36.167l-.25 2-.333.583-.417.333v.75l.417.25h9.083l.917-.25.166-.5-.5-.833-.166-.75-.584-1V35l-.166-1V13.417L222.5 13l5.167.083.916.25.667.5.583.25.584.084.416-.167.25-.417v-1.166l.334-1.584L232 9.75l-.083-1.25-.334-.333-.416-.167h-24.25ZM251 8l-.333.5.416 1 .834 1.083.166.75.417.667.25 1v23.167l-.167.75-.583.75-.25.916-.667.667v.417l.334.333 8.166.083.917-.166.25-.417-.083-.333-.334-.25-.5-1.084-.5-.666-.166-1.084v-13.5l-.167-.5v-.666l.25-.25h.25l1.083 1.25.25.5.834.833.416.75 1.667 1.75.25.5.667.583.166.417 1.75 1.75.667 1.083 2.417 2.75.25.5 4.25 4.25.833.25.833.667 1.5.25 1.334.583 1.083.25 1.167-.083.416-.583V13.083l.917-3.5.667-1-.084-.416-.25-.25h-8.25l-.583.333-.083.417.166.583.917 1.333.25 3.25.083 12.084-.25.333h-.25l-.583-.5-1-1.333-.75-.667-.25-.583-1.75-1.75-.333-.584-.667-.666-.417-.75-1.583-1.667-.417-.75-2.5-2.583-.416-.75-1-1.25-.584-.5-.416-.75-.667-.584-.167-.416-.75-.75L260 8.75l-.417-.417L258.75 8Zm-14.917 0-.333.25-.083.5.333 1.083.583.917.167 1.167V36l-.167 1.167-.666 1.166-.417 1.167.167.333.666.25h9.25l.5-.333v-.583l-.75-.917-.25-1.25L245 13.917l.083-3.25.25-.667.584-.833.166-.667-.25-.417-.5-.166Zm-79.916 0-.167.25v.583l.667 1.084.25 2.333v22.667l-.167 2.666-.833 1.5v.584l.5.333h19.833l.583-.25.75-1.667.417-.583.167-1.667.25-.75.5-.666.25-.584v-.5l-.25-.416-.75-.084-.917.75-1.167.334-.583.5-.583.25-3 .333H168l-.75-.167h-1.75l-.25-.166-.167-.334.167-8.583.333-.333h.667l.417.166 3.083-.083 2.667.833.333-.083.417-.583v-4.5l-.417-.667-.5-.167h-5.583l-.917.25-.5-.416-.083-6.75.25-.334.25-.083h5.083l2.167.25 1 .917.5.083.5-.167.25-.416v-4.75l-.25-.667-.667-.333Zm-86.25.083-.167.167-.083.417.416 1.25.5.833.167 1.083v25.084l-.833 1.416-.25.834.083.5.667.333L90 39.917l.583-.167.334-.333.333-1.5.75-1.25.25-1.917.75-1.083v-.417l-.25-.333h-1l-1.083.833-1.084.25-1 .667-2 .25-4.916.083-.834-.167H79.5l-.333-.166-.25-.417v-.5l.166-.417L79 26.167l.167-.417.5-.333 3.166.083 2.667.5.333.167h.834l.333-.25.167-.5-.084-4.167-.416-.667-.5-.166-6.5.083-.584-.417v-5.416l-.166-.584.083-.666.417-.417 6.333.083 1.167.25 1.166.834h.584l.333-.25.167-.584-.084-4.25-.166-.583-.334-.333-.5-.167-17.75-.083ZM34.083 8l-.25.333v.584l.334.75.5.666.166 1.584V37l-.333 1.083-.833 1.167.083.5.583.333h8.334l.666-.333.084-.417-1-1.583-.25-.75-.084-11.5.334-.333h14.166l.334.166.25.417-.25 1L57 35.833l-.25 2.334-.333.583-.417.333v.75l.417.25H64.5l.917-.25.166-.5-.5-.833-.75-2.25V12.083l.167-.416.083-1L65 10l.333-1.167V8.25l-.5-.25h-8.416l-.334.25v.583l.667 1.334.167.833.166 9-.333.5-.417.167h-13.75l-.416-.334-.084-.25.084-8.916.083-.417.833-1.5.167-.583-.083-.417-.584-.333Zm167.417.25-.583-.25-.917-.167-1.917-.083-1.333-.333-2.083-.25h-1.334l-1.416.5-2.167.166-.583.167-1.167.667L187 9l-.5.5-.833.417-1.667 1.5-.917 1.166-.333 1-.667 1-.25 1.084.084 3.583 1 2.5 2.166 2.333.334.167.75.833.583.167.667.667 1 .333 1.166.75 1.084.167 1 .75 1 .25 1 .75 1 .5 1 .916.583 1.5v.417l-.5 1.833-.167.334-.416.333-.75.167-1.667.75-2.5.083-1.75-.417-.833-.416-1.417-.167-1-.75-1.25-.417-.5-.583-1-.333-.667-.917-1.166-.5h-.417v.417l.333.583.5 3 .5.833.167.584.083 1.166.25.667.5.5 1.084.333 1.083.584.583.166h1.167l2.333.417h3.917l1.333-.333 1.75-.084.667-.25.833-.583.834-.167 1-.75.916-.333.667-.667.75-.416.417-.417.25-.5 1-1.167.25-.833.666-1.25.167-1.583.167-.5-.167-2.5-.25-1.334-.25-.583-.417-.333-.333-.75-2.25-2.25-.75-.25-.75-.667-1.083-.5-.5-.417-.917-.416-.833-.167-1-.667-.667-.083-1-.75-.917-.417-.5-.5-.5-.25-1-1.083-.25-.833V14.5l.167-.417.583-.666 1.25-.917 1.667-.333h.917l1.75.416.833.417.917.167L200 14.333l.833.834.5.166.584-.166.25-.417V9.333l-.25-.666ZM95.917 0l.166.75 1.334 1.167.5 1 .75.916.25 1.334.75 1.083.25 1.25.916 1.833.167 1 .667 1 .25 1.167.916 1.833.167 1 .667 1 .25 1.167.916 1.833.167 1 .667 1 .25 1.167.916 1.833.167 1 .667 1 .25 1.167.916 1.833.167 1 .667 1 .25 1.167.75 1.417.25.833.583.667.583 1.083 2.334 2.333 1 .417.833.75h.333l.417-.333 1-1.75.25-1.167.75-1.167.167-.833.25-.5.583-.667.25-1.416L121 31l.333-1.083.584-.75.416-1.834.667-.75.167-.833.25-.5.583-.667.167-1.333.666-.917.5-1.416.5-.584.25-.666.167-1.084.75-1.5.333-.333h.167l.25.25.167 1.333.75 1 .25 1.334.833 1.416.333 1.25.584.917.25 1.083.75 1 .166 1.334.834 1.166.333 1.5.667 1L134 32.5l.667.833.333 1.417.667.583.333.917 1.417 1.667L140 39.75h.75l.917-1.167.333-.666.333-1.667.667-1.083.25-1.25.75-1.25.25-1.584.583-.75.167-.416.333-1.584.584-.833.333-1.583.75-1.334.25-1.333.75-1.333.333-1.584.667-.833.167-1.333.833-1.584.417-1.583.5-.833.333-1.584.75-1 .167-1.333.75-1.417.5-1.833.583-1 .25-1.417.75-1 .25-1.666.667-.834.166-.5V0h-11.166l.166.75.834.833.416 1.917v.917l-.5 1.666-.083 1.584-.833 1.583-.25 1.417L144 11.75l-.417 1.917-.75 1.333-.166 1.167-.75 1.166-.167 1.417-.833 1.5-.334 1.583-.416.834-.334.333h-.25l-.333-.333-.167-1.5-.75-.917-.333-1.667-.75-1-.167-1.333-.833-1.167-.333-1.666-.667-.834-.25-1.416-.833-1.334-.25-1.25-.667-1-.25-1.166-.917-1.834-.166-1-.667-1L131 1.5l-.5-.917-.083-.583h-9.5l.166.75.584.417 1 1.166.75 2.917v1.833l-.5 1.167-.167 1.417-.75 1.083-.417 1.833-.666.75-.334 1.334-.583.916-.25 1.084-.667.916-.333 1.25-.833 1.5-.334 1.25-.583.667-.167 1.417-.333.416h-.167l-.25-.25L115.25 22l-.25-1.417-.75-1-.167-1.333-.75-1-.333-1.667-.75-1-.167-1.333-.75-1.25-.333-1.417-.583-1-.334-1-.166-1-.667-1-.25-1.166-.917-1.834-.166-1-.667-1L106.917 0ZM1.833 0l-.166 1-.75 1.417-.25 1.666L0 4.75V7l.667-.167.666-.583.917-.167 2-.916H6L7.167 5H11.5l.583.583-.166 29.167-.167 2.333-.333.834-.917 1.416.083.417.667.333L22.75 40l.25-.417-.083-.5-.417-.25-.417-.5-.083-.416-.583-.917-.25-1.167-.084-30.25L21.5 5H25l3.25.167.833.25.584.5.916.333.584.583.5.084.25-.167.166-.5.167-2L33 2.667 33.333 0Z"/></svg>