<svg xmlns="http://www.w3.org/2000/svg" width="221.44612" height="102.80249" viewBox="0 0 58.590953 27.199824"><g style="fill:#000"><path d="M47.52 370.62h-1.712v-.253h.493v-4.277h-.453v-.254h3.03c.643 0 1.512.013 1.52.013l.003.005.171 1.488h-.226l-.018-.063c-.273-.924-.465-1.19-1.45-1.19h-1.78v2.09h1.046c.886 0 1.144-.082 1.144-.653v-.092h.225v1.713h-.225v-.09c0-.407-.251-.625-1.144-.625h-1.047v1.935h.422zM53.43 366.836c-1.184 0-1.864.667-1.864 1.832 0 1.167.662 1.81 1.864 1.81 1.206 0 1.87-.643 1.87-1.81 0-1.165-.682-1.832-1.87-1.832m0 3.871c-1.732 0-2.667-1.05-2.667-2.039 0-1.29 1.357-2.062 2.667-2.062 1.733 0 2.667 1.063 2.667 2.062 0 1.325-1.374 2.04-2.667 2.04M58.879 370.707c-.974 0-2.136-.346-2.136-1.998v-1.786h-.4v-.23h1.578v.23h-.437v1.786c0 1.54.874 1.77 1.395 1.77.816 0 1.689-.465 1.689-1.77v-1.786h-.396v-.23h.963v.23h-.363v1.786c0 1.475-1.02 1.998-1.893 1.998M62.636 368.647h1.415c.676 0 .991-.274.991-.86 0-.59-.313-.864-.986-.864h-1.42zm1.456.229h-1.456v1.515h.362v.23h-1.525v-.23h.453v-3.468h-.453v-.23h2.583c.443 0 1.79 0 1.79 1.094 0 .497-.278.839-.806.992 0 0-.298.097-.948.097M73.56 366.288l.105 1.167-.213-.006-.062-.196c-.297-.878-.912-1.253-1.88-1.253-.96 0-1.532.272-1.532.727 0 .496.794.697 1.634.91 1.038.26 2.212.558 2.212 1.542 0 1.029-.79 1.55-2.35 1.55 0 0-1.147-.04-2.036-.376l-.259-1.388h.196l.078.21c.319.79 1.112 1.301 2.022 1.301.672 0 1.799-.122 1.799-.939 0-.584-.84-.788-1.73-1.004-1.04-.252-2.116-.514-2.116-1.447 0-.852.758-1.34 2.081-1.34.403 0 .643.049 1.029.157 0 0 .662.194 1.022.385M78.532 370.653h-.02c-.006 0-.68-.032-1.052-.032h-2.934v-.23h.437v-3.468h-.437v-.23h2.841c.358 0 .728 0 .811-.03l.215-.026.128 1.103-.172.009-.018-.057c-.235-.728-.593-.77-.964-.77h-1.694v1.539h.951c.678 0 .904-.09.904-.576v-.086h.204v1.51h-.204v-.085c0-.365-.22-.534-.904-.534h-.951v1.7h1.787c.652 0 .805-.204 1.027-.722l.018-.054h.213zM80.362 369.099h2.218l-1.107-2.002zm2.53 1.522v-.23h.406l-.592-1.063h-2.475l-.596 1.063h.407v.23h-.995v-.23h.346l1.935-3.469h-.344v-.23h1.053l.023.041 2.021 3.658h.384v.228zM91.87 366.606c-1.31 0-2.666.771-2.666 2.062 0 .989.935 2.04 2.667 2.04 1.293 0 2.667-.715 2.667-2.04 0-1-.935-2.062-2.667-2.062m0 3.873c-1.202 0-1.864-.644-1.864-1.81s.68-1.833 1.864-1.833c1.187 0 1.869.667 1.869 1.832 0 1.167-.664 1.81-1.87 1.81" style="fill:#000;fill-rule:nonzero;stroke:none;stroke-width:.26458332" transform="translate(-45.544 -343.876)"/><path d="M185.425 86.019v.869h1.162l.656.615v12.495h-1.758v.867h4.107v-.867h-1.58V88.22l14.02 13.213.162.152V86.888h1.328v-.868h-3.72v.868h1.62v10.305l-11.791-11.148-.03-.026z" style="fill:#000;fill-rule:nonzero;stroke:none;stroke-width:1" transform="matrix(.26458 0 0 .26458 .265 .057)"/><path d="M66.305 370.486c-.598-.022-.662-.246-.811-.544l-.543-1.178h-.803l1.003 1.949h1.156zM88.419 367.1l.086.954-.174-.005-.051-.16c-.242-.718-.745-1.025-1.537-1.025-.784 0-1.251.223-1.251.595 0 .405.649.569 1.335.742.848.214 1.808.456 1.808 1.261 0 .841-.646 1.267-1.92 1.267 0 0-.938-.033-1.665-.308l-.211-1.133h.16l.064.172c.26.645.909 1.062 1.652 1.062.549 0 1.47-.1 1.47-.767 0-.477-.687-.644-1.414-.82-.85-.207-1.729-.42-1.729-1.183 0-.696.62-1.095 1.7-1.095.33 0 .526.04.841.128 0 0 .542.158.836.315M103.654 367.1l.086.954-.174-.005-.05-.16c-.243-.718-.745-1.025-1.538-1.025-.783 0-1.25.223-1.25.595 0 .405.648.569 1.334.742.848.214 1.808.456 1.808 1.261 0 .841-.646 1.267-1.92 1.267 0 0-.938-.033-1.665-.308l-.21-1.133h.16l.063.172c.26.645.909 1.062 1.652 1.062.549 0 1.47-.1 1.47-.767 0-.477-.687-.644-1.414-.82-.85-.207-1.729-.42-1.729-1.183 0-.696.62-1.095 1.701-1.095.33 0 .526.04.84.128 0 0 .542.158.836.315M81.072 355.327c-.335.138-.547.383-.465.8.403-.135.51-.44.465-.8M79.724 355.572c.065.356.259.616.683.623-.047-.422-.322-.591-.683-.623M80.405 357.284c-.018-.42-.298-.589-.68-.622.043.356.231.614.68.622M79.178 351.693c-.36.032-.636.202-.683.623.424-.006.619-.266.683-.623M77.545 351.382c.065.357.26.616.683.623-.047-.421-.322-.591-.683-.623M77.449 350.083c.424-.007.617-.266.683-.623-.361.031-.637.201-.683.623M77.78 348.518c-.332.143-.54.39-.452.806.4-.14.503-.448.453-.806M76.588 348.82c.013.361.168.644.584.711.015-.421-.233-.628-.584-.71M76.434 347.805c.422-.007.616-.265.681-.62-.36.03-.635.2-.681.62M76.788 346.329c-.313.176-.495.443-.364.845.381-.18.452-.495.364-.845M76.313 347.476c.014-.421-.234-.628-.584-.71.012.36.167.643.584.71M76.082 348.088c-.045-.42-.32-.589-.68-.62.066.355.259.613.68.62" style="fill:#000;fill-rule:nonzero;stroke:none;stroke-width:.26458332" transform="translate(-45.544 -343.876)"/><path d="M74.954 348.916c.122-.077 1.43-.842 1.43-.842q.006-.001.008-.016l-.06-.463h-.02s.017.194.012.272c-.006.09-.018.12-.085.165l-1.45.747.006.34a.36.36 0 0 1 .16-.203M74.633 344.786c-.046-.42-.321-.59-.68-.62.065.354.258.612.68.62M74.623 345.472c-.046-.419-.321-.588-.68-.619.065.355.258.613.68.62M74.612 346.155c-.046-.42-.32-.588-.68-.62.065.355.259.614.68.62M74.602 346.84c-.046-.418-.32-.587-.68-.618.065.355.258.612.68.619M74.592 347.529c-.047-.42-.321-.589-.68-.62.065.355.258.612.68.62M74.582 348.212c-.047-.42-.322-.588-.68-.62.064.355.258.613.68.62M73.67 346.65c-.344.111-.573.338-.524.758.41-.102.541-.398.524-.758M73.16 347.912c.421-.007.614-.265.679-.62-.359.032-.634.2-.68.62M72.994 347.487c.06-.418-.165-.65-.505-.77-.027.36.097.659.505.77M72.906 347.961c-.046-.42-.322-.59-.681-.621.065.356.258.614.68.621M73.911 349.886c-.36.032-.636.201-.683.623.424-.007.619-.266.683-.623M72.727 350.25c.424-.006.618-.265.683-.622-.36.032-.636.201-.683.622M74.413 350.145c-.36.031-.637.201-.683.622.423-.007.618-.265.683-.622M73.516 349.44c.423-.006.617-.266.682-.621-.36.032-.635.2-.682.62M73.037 349.16c.423-.006.617-.265.682-.62-.36.031-.636.2-.682.62M72.55 348.88c.422-.008.616-.266.68-.622-.359.031-.634.2-.68.621M72.907 349.359c-.36.03-.637.2-.683.622.423-.007.618-.266.683-.622M72.098 349.32c.052-.421-.177-.65-.52-.764-.02.36.11.658.52.764M71.967 349.958c-.046-.421-.322-.59-.683-.622.065.356.26.616.683.622M72.327 352.104c-.36.03-.636.2-.683.622.424-.007.618-.266.683-.622M71.158 352.449c.424-.007.618-.266.683-.623-.361.032-.637.201-.683.623M72.827 352.363c-.361.032-.637.201-.683.623.423-.007.618-.266.683-.623M73.328 352.622c-.36.032-.636.2-.683.622.424-.007.618-.265.683-.622M73.829 352.88c-.36.032-.637.201-.683.623.424-.007.618-.267.683-.623M74.332 353.136c-.36.032-.637.202-.683.623.424-.007.618-.266.683-.623M73.614 352.117c.424-.008.619-.266.683-.622-.36.032-.636.2-.683.622M73.128 351.833c.424-.007.618-.266.683-.623-.36.032-.636.202-.683.623M72.648 351.55c.423-.007.618-.266.682-.622-.36.03-.636.2-.682.622M72.168 351.266c.423-.007.617-.266.683-.622-.361.032-.637.2-.683.622M71.685 350.983c.423-.008.618-.266.683-.623-.36.031-.636.2-.683.623M71.826 351.192c-.36.031-.636.201-.683.623.423-.007.618-.266.683-.623M71.06 351.465c.104-.41-.096-.666-.423-.821-.063.356.028.668.423.821M70.946 352.011c-.046-.421-.322-.59-.682-.623.065.357.259.616.682.623M70.853 352.634c-.046-.423-.322-.592-.683-.623.065.356.26.615.683.623M72.032 354.367c.423-.008.618-.266.682-.623-.36.032-.636.202-.682.623M72.032 355.341c.423-.007.618-.265.682-.622-.36.03-.635.2-.682.622M71.553 354.086c.424-.007.619-.266.683-.623-.36.032-.636.202-.683.623M71.077 353.804c.424-.007.618-.267.683-.623-.361.031-.637.2-.683.623M70.597 353.524c.424-.007.618-.267.683-.623-.36.032-.637.2-.683.623" style="fill:#000;fill-rule:nonzero;stroke:none;stroke-width:.26458332" transform="translate(-45.544 -343.876)"/><path d="M80.498 356.18s.064.697.046.978c-.021.318-.064.43-.306.587l-5.241 2.7c-.009-.514-.02-1.102-.03-1.743v-.169c-.006-.351.09-.54.505-.803.36-.229 4.23-2.492 4.23-2.492.008-.005.023-.015.022-.046l-.179-1.371h-.06s.054.577.038.808c-.017.263-.052.355-.252.485l-4.329 2.23-.037-2.075-.003-.194c.007-.222.086-.354.366-.532.269-.17 3.16-1.861 3.16-1.861.006-.004.017-.012.016-.035l-.133-1.024h-.045s.04.431.028.604c-.013.196-.039.265-.188.362l-3.219 1.659-.043-2.409a.56.56 0 0 1 .264-.372 309 309 0 0 1 2.261-1.332c.005-.003.013-.009.012-.025l-.095-.733h-.032s.028.309.02.432c-.01.14-.028.19-.135.26l-2.305 1.188-.039-2.138-.006-.34-.083-4.616a.02.02 0 0 0-.022-.022q-.02.002-.022.022l-.08 4.611-.003.16.003-.16-1.442-.742c-.067-.045-.079-.076-.085-.164-.005-.079.013-.274.013-.274h-.02l-.06.464q.001.014.007.016s1.308.765 1.43.842a.36.36 0 0 1 .15.18h.001l-.037 2.157-2.299-1.184c-.107-.07-.125-.119-.135-.26-.008-.123.02-.431.02-.431h-.032l-.095.732c0 .017.007.023.012.025 0 0 2.069 1.21 2.261 1.332.163.103.23.234.258.343l-.042 2.438-3.22-1.658c-.149-.098-.175-.167-.188-.363-.011-.172.028-.604.028-.604h-.045l-.133 1.024c0 .023.01.031.017.035 0 0 2.89 1.69 3.16 1.861.288.183.363.318.366.553l-.004.207-.035 2.039-4.325-2.228c-.2-.13-.235-.222-.252-.485-.015-.231.037-.808.037-.808h-.06l-.178 1.37c0 .031.014.042.023.047 0 0 3.869 2.263 4.23 2.492.415.263.51.452.505.803v.003l-.033 1.908-5.24-2.699c-.24-.157-.283-.27-.304-.587-.019-.28.045-.979.045-.979h-.072l-.216 1.66c-.002.037.016.05.027.057 0 0 4.686 2.74 5.122 3.017.51.323.612.345.612.936l-.01.736c0 .515-.407.528-.407.528v.102h1.502l.002-.102s-.408-.013-.408-.528l-.008-.736c0-.59.103-.613.612-.936.436-.277 5.123-3.017 5.123-3.017.01-.006.028-.02.027-.057l-.217-1.66z" style="fill:#000;fill-rule:nonzero;stroke:none;stroke-width:.26458332" transform="translate(-45.544 -343.876)"/><path d="M73.019 354.956c.424-.007.618-.266.683-.623-.36.031-.637.201-.683.623M74.18 354.644c-.362.031-.637.201-.684.623.424-.007.618-.266.683-.623M76.73 353.235c.331-.264.328-.588.161-.91-.267.245-.381.548-.162.91M76.043 352.774c-.267.246-.382.548-.162.91.332-.263.329-.588.162-.91M75.142 351.522c.065.357.26.615.684.623-.047-.422-.323-.591-.684-.623M77.577 354.313c-.047-.421-.322-.59-.683-.622.065.357.259.615.683.622M76.721 354.775c-.047-.421-.322-.59-.682-.622.065.356.259.615.682.622M79.12 358.2c-.047-.423-.324-.593-.684-.625.065.358.259.618.684.625M78.138 358.653c-.046-.422-.323-.592-.684-.624.065.357.26.617.684.624M77 356.973c.064.357.258.616.682.622-.046-.42-.322-.59-.683-.622M76.354 359.562c-.047-.422-.324-.592-.684-.624.064.358.259.618.684.624M80.131 358.503c-.068.415.173.638.538.747.03-.356-.1-.647-.538-.747M79.19 359.185c.019.423.301.593.684.626-.042-.358-.23-.618-.683-.626M77.753 360.574c.395-.164.48-.479.41-.836-.326.163-.522.423-.41.836M79.435 354.158c-.047-.42-.323-.59-.683-.622.065.357.259.616.683.622M79.407 354.781c-.046-.422-.322-.591-.683-.623.065.357.259.616.683.623M79.779 355.198c.423-.007.617-.266.683-.623-.361.032-.637.2-.683.623M80.358 353.536c-.36.03-.637.2-.683.622.424-.008.618-.265.683-.622" style="fill:#000;fill-rule:nonzero;stroke:none;stroke-width:.26458332" transform="translate(-45.544 -343.876)"/></g></svg>