<svg xmlns="http://www.w3.org/2000/svg" width="253.56703mm" height="74.177399mm" viewBox="0 0 253.56704 74.177399"><g style="fill:#d71a21;fill-opacity:1"><path d="M130.123 117.013c-2.17 2.814-3.376 6.27-3.376 9.807v30.786c-.161 2.332-1.045 4.502-2.492 6.35-.804.804-5.547 5.065-5.949 5.547l2.653.08c.884-.803 10.048-8.922 10.932-10.047 2.653-2.894 4.18-6.672 4.18-10.61v-29.581c-.08-2.975 1.045-5.949 3.135-8.12 1.125-1.205 4.662-4.179 5.305-4.902l-2.813-.08c-.563.723-10.61 9.806-11.575 10.77zM107.535 228.986l11.173 9.726h7.476c7.154 0 14.067-2.813 19.13-7.877 4.583-4.582 6.27-10.772 6.27-16.56V198.28c-.08-3.617-1.607-7.074-4.34-9.485-.482-.483-3.778-3.617-3.778-3.617v12.298s3.617 3.698 4.26 4.421c3.296 3.537 3.296 9.967-7.234 20.176-1.849 1.768-7.074 6.752-14.308 6.752z" class="st0" style="fill:#d71a21;fill-opacity:1;stroke-width:1" transform="matrix(.55962 0 0 .55962 -34.628 -59.41)"/><path d="M138.643 163.314c-1.206 1.286-2.411 4.501-2.411 7.395v6.028h6.109c2.411 0 5.546-2.17 6.19-3.295v-6.029a14.922 14.922 0 0 0 3.295 3.457c.643-.804 6.27-7.556 10.932-7.637 7.797-.08 6.028 9.807 2.894 12.942-1.045 1.045-5.627 5.225-7.074 6.591-3.698 3.537-10.048 1.849-10.048-7.234 0 0-6.752 6.43-7.797 7.315-1.045.884-4.501 4.581-4.501 4.581v15.996c0 7.637-2.492 10.209-4.582 12.54-.804.884-9.405 8.762-10.61 9.646l-2.814.08s5.064-4.582 6.029-5.627c1.125-1.205 2.492-3.617 2.492-7.636 0-1.045-.161-25.08-.161-25.08H87.359c-13.665 0-16.558-15.11-16.639-19.21v-15.193c0-2.492-1.607-6.671-4.1-7.958h3.86c.481.161 2.893 1.126 2.893 10.45 0 0-.161 10.771-.161 11.414 0 4.743 3.778 10.129 9.164 10.129l44.37-.08c0-1.207 1.206-5.708 3.377-8.12 1.205-1.366 10.77-10.047 11.816-10.931h2.813c-.402.402-5.064 4.501-6.028 5.626zm14.55 9.083a39.226 39.226 0 0 0 3.777 4.42c4.823 3.86 7.074-.32 3.859-4.661-1.286-1.769-6.19-1.286-7.637.24z" class="st0" style="fill:#d71a21;fill-opacity:1;stroke-width:1" transform="matrix(.55962 0 0 .55962 -34.628 -59.41)"/><path d="M105.606 201.013c0 2.17-6.832 7.877-7.234 8.199-.483-2.331-2.251-4.823-7.315-9.968l7.475-7.475c5.065 5.064 7.074 6.19 7.074 9.244zM118.628 115.084c1.527 1.528 4.743 5.547 2.813 7.556-1.688 1.688-4.34 4.421-4.34 4.421-.161-.964-2.653-3.376-2.653-3.376v8.119c-.08 3.295-1.286 4.18-1.286 4.18s6.029 5.948 6.029 13.665v7.877c.08 1.447-.483 2.974-1.528 4.02-.562.642-6.109 6.269-6.993 6.992-1.286 1.126-2.894 1.769-4.582 1.688H85.27c-3.295 0-6.671-2.572-6.671-5.144 0-.643.08-7.717.08-7.717 1.045 1.206 2.17 2.653 4.743 2.653 2.09 0 4.18-1.608 4.742-2.25.563-.644 15.755-16.399 15.755-16.399s-7.074-6.591-11.736-9.726c-2.25-1.527-5.305.402-5.787 2.411-1.447 6.27 0 15.755 0 15.755l-5.707-5.707c-2.331-2.33-2.251-7.556.562-10.289.402-.482 4.662-5.144 9.968-5.144h8.279c5.546 0 11.655 5.546 11.655 5.546.483-.562.804-1.205.885-1.929 0-2.894-.08-10.53-.08-10.53-4.18-4.18-4.743-8.52-2.734-10.53 3.778-3.778 5.145-5.064 5.145-5.064s-.161 4.582 4.26 8.922zm-26.124 41.799c-2.09 2.17-2.412 2.653-4.34 3.858h23.47c6.35 0 5.065-3.938 3.94-5.948-2.332-4.1-9.727-11.655-9.727-11.655s-12.941 13.343-13.343 13.745z" class="st0" style="fill:#d71a21;fill-opacity:1;stroke-width:1" transform="matrix(.55962 0 0 .55962 -34.628 -59.41)"/><path d="M65.736 178.265h-3.858s4.1 2.25 4.1 8.118v18.73c0 12.137 10.047 23.39 22.266 23.39h10.208c6.11 0 8.28-1.446 11.977-4.742 1.366-1.206 3.135-3.215 3.778-3.939 2.09-2.411 4.421-4.34 4.421-10.61v-6.11c0-5.304-3.055-7.475-4.582-9.002-.964-.965-3.537-3.456-3.537-3.456v12.54s2.573 2.732 3.698 3.616c5.305 4.18 1.125 11.415-3.858 11.415H87.922c-8.199.16-19.372-7.154-19.372-19.533v-10.128c.08-10.29-2.814-10.29-2.814-10.29z" class="st0" style="fill:#d71a21;fill-opacity:1;stroke-width:1" transform="matrix(.55962 0 0 .55962 -34.628 -59.41)"/><path d="M90.333 201.093c0 2.17-6.832 7.878-7.234 8.2-.482-2.332-2.25-4.824-7.315-9.968l7.476-7.476c4.984 4.984 7.073 6.11 7.073 9.244z" class="st0" style="fill:#d71a21;fill-opacity:1;stroke-width:1" transform="matrix(.55962 0 0 .55962 -34.628 -59.41)"/><path d="M222.283 201.108h-15c-4.7 0-4.3-3.9-4.8-7.2v-21.4s3.3-.1 7-.1c4.1 0 9.3-.6 14.3 2.2-2.6-5.5-8.2-8.9-14.3-8.7h-6.9v-6.9s0-6-1.5-7.7h9.9c8.5 0 15.1-.1 22 4.4 0 0-1.3-11.3-17.8-11.3h-32.2s5.6 4.8 5.4 14.5l.2 39c0 9.8 3.9 10.1 3.9 10.1h31.7c7.2 0 9.7-5.1 9.7-7.9l.1-3.7s-2.3 4.7-11.7 4.7zM306.683 197.808v-27.3c0-10.6-8.6-13.4-15.1-13.4-8.5 0-11.1 7.1-12.2 9.6-1.9-6.6-8.6-9.6-14-9.6-10.3 0-12.9 9.8-12.9 9.8s-.2-9.5-8.5-9.5h-8.1s4.7 1.9 4.7 10.1v30.3c0 10 4 10.2 4 10.2h13.4c-3.2-2.4-5.1-6.2-5.1-10.3v-26.9c.2-1.2 2.2-5.2 7.9-5.2 3.3 0 6.9 3.4 6.8 7.2v25c0 10.1 4 10.2 4 10.2h13.4c-3.2-2.5-5.1-6.2-5.1-10.3v-26.9c1.3-3.9 5.5-6.1 9.5-4.8 3 1 5.1 3.7 5.2 6.9v24.9c.1 10.2 4 10.1 4 10.1h13.4c-3.3-2.4-5.2-6.1-5.3-10.1zM330.083 197.808c0 4 1.9 7.8 5.1 10.2h-13.4s-4.1.1-4.1-10.1v-30.5c0-8-4.6-10.1-4.6-10.1h8.1c2.9 0 8.8 0 8.8 11.3v29zM371.283 161.208s-1.3-3.6-6.8-3.6c-8.4 0-10.4 10-10.4 10-.7-7.9-2.8-10.2-8.7-10.2h-8.1s4.7 1.9 4.7 10.1v30.3c0 10 4 10.2 4 10.2h13.4c-3.2-2.4-5.1-6.2-5.1-10.2v-24.9c.3-2.1 1.5-4 3.3-5.1 4.5-3 10.4-2.1 13.9 2zM433.583 163.008c2.8 0 5.5.7 7.9 2v-7.6h-11.2v-11.6c-2.4 3.8-5.5 7.2-9 10.1-3.8 3.1-11.8 7-11.8 7l8.5.1v35.2c0 9.8 4.1 9.8 4.1 9.8h13.3c-3.2-2.3-5.1-6-5.2-9.9v-35.1h3.4zM474.183 178.308c-7.5 7.8-13.4 6.6-18.1 12.4 0 0 .8 7.8 6.7 10.5 2 .9 10.3 3.9 15.6-5.3v8.2s-3.4 4-14.3 4c-13.1 0-22.1-10.3-22.1-24.3 0-13.8 7.3-26.5 21.2-26.6 13.5-.2 20.9 10.8 11 21.1zm-8.2-3.2c2.2-4.1 4-14.5-3.6-13.9-8.8.7-7.1 24-7.1 24 2.9-3.2 7.3-3.9 10.7-10.1zM323.883 153.308c3.4-.1 6-2.9 6-6.2-.1-3.4-2.9-6-6.2-6-3.3.1-6 2.8-6 6.1 0 3.4 2.8 6.1 6.2 6.1zM385.183 202.208c-3 0-5.2-3.2-5.2-6.4 0-12.6 10.3-14.4 13.1-17.7v21.3c-1.3 1-2.5 2.8-7.9 2.8zm7.9-29c-3.1 5.4-27.3 6.6-23.6 25.3 1.5 7.4 6.4 9.6 12.6 9.6 6 0 9.7-3.1 11.2-6.1.9 5.6 3.8 6 3.8 6h13.4c-3.2-2.4-5.2-6.1-5.2-10.1v-28.5c0-6.8-7.5-12.1-15.5-12.1-4.5-.1-8.8 1.2-12.5 3.7v8.8s2.8-7 9.7-7c6.8 0 7.3 3.4 7.3 5.1.1 1.8-.2 3.7-1.2 5.3zM503.783 194.208c.1 3.6-3.1 8.3-9.9 8.3-7 0-9.8-7.1-9.8-7.1v9c3.8 2.4 8.2 3.6 12.7 3.6 9.1 0 18.4-6.9 18.2-16.6-.1-3.2-1.2-6.3-3.1-8.8-3.1-4.1-8.7-7-13.1-9.7-2.5-1.5-3.8-4.3-3.8-5.2-.1-1.7.8-5.1 7.5-5.1 6.6 0 9.5 7 9.5 7v-8.5c-3.7-2.6-8.2-4-12.8-4-8 0-15.3 5.3-15.1 12.1.1 6 2.6 9.8 7.5 13.5 2.2 1.6 4.5 3 6.9 4.3 3.8 2.1 5.2 4.7 5.3 7.2z" class="st0" style="fill:#d71a21;fill-opacity:1" transform="matrix(.55962 0 0 .55962 -34.628 -59.41)"/></g></svg>