<svg xmlns="http://www.w3.org/2000/svg" xml:space="preserve" width="1138.818" height="253.21069" viewBox="0 0 1138.818 253.21069"><defs><clipPath id="a" clipPathUnits="userSpaceOnUse"><path d="M0 0h595.276v841.89H0Z"/></clipPath><clipPath id="b" clipPathUnits="userSpaceOnUse"><path d="M0 0h595.276v841.89H0Z"/></clipPath><clipPath id="c" clipPathUnits="userSpaceOnUse"><path d="M0 0h595.276v841.89H0Z"/></clipPath><clipPath id="d" clipPathUnits="userSpaceOnUse"><path d="M0 0h595.276v841.89H0Z"/></clipPath><clipPath id="e" clipPathUnits="userSpaceOnUse"><path d="M0 0h595.276v841.89H0Z"/></clipPath></defs><g style="stroke-width:.199128"><path d="M0 0c-1.912-1.55-8.566-4.989-8.566-12.796 0-7.81 6.654-11.258 8.566-12.806 1.908 1.548 8.502 4.996 8.502 12.806C8.502-4.989 1.908-1.55 0 0" style="fill:#fff;fill-opacity:1;fill-rule:nonzero;stroke:none;stroke-width:.199128" transform="matrix(6.69586 0 0 -6.69586 59.787 42.192)"/></g><g style="stroke-width:.199128"><path d="M0 0c-1.892-1.599-8.927-5.147-8.927-13.203 0-8.057 7.035-11.615 8.927-13.215 1.891 1.6 8.867 5.158 8.867 13.215S1.891-1.599 0 0m-.003-25.071v-.652c-1.791 1.515-8.33 4.885-8.33 12.52 0 7.633 6.539 10.994 8.33 12.508v-.653c1.699-1.433 7.712-4.62 7.712-11.856S1.696-23.635-.003-25.071" style="fill:#9e8959;fill-opacity:1;fill-rule:nonzero;stroke:none;stroke-width:.199128" transform="matrix(6.69586 0 0 -6.69586 59.774 39.468)"/></g><g style="stroke-width:.199128"><path d="M0 0c-1.593-1.346-7.137-4.332-7.137-11.111 0-6.781 5.544-9.775 7.137-11.12 1.59 1.345 7.086 4.339 7.086 11.12C7.086-4.332 1.59-1.346 0 0" style="fill:#9e8959;fill-opacity:1;fill-rule:nonzero;stroke:none;stroke-width:.199128" transform="matrix(6.69586 0 0 -6.69586 59.748 53.48)"/></g><g style="stroke-width:.199128"><path d="M0 0v3.094C.012 4.676 1.03 5.64 2.154 5.639v.246h-6.903v-.246c1.116.001 2.143-.963 2.155-2.545v-7.279c-.012-1.582-1.039-2.56-2.155-2.544v-.247h6.903v.247C1.094-6.745.012-5.767 0-4.185Z" style="fill:#fff;fill-opacity:1;fill-rule:nonzero;stroke:none;stroke-width:.199128" transform="matrix(6.69586 0 0 -6.69586 68.593 124.348)"/></g><g style="fill:#3d3935"><g style="fill:#3d3935;stroke-width:.199128"><path d="M0 0v-3.081c-.85-.354-1.645-.518-2.451-.518-1.137 0-2.055.353-2.804 1.057A3.58 3.58 0 0 0-6.371.088a3.82 3.82 0 0 0 1.182 2.805c.729.685 1.634 1.026 2.749 1.026.817 0 1.547-.153 2.276-.497v-.906c-.917.433-1.469.576-2.199.576-.893 0-1.634-.287-2.196-.861A3.17 3.17 0 0 1-5.432.088c0-.762.308-1.469.894-2.032.596-.575 1.271-.839 2.098-.839.596 0 1.039.089 1.634.331v1.767h-1.28V0Z" style="fill:#3d3935;fill-opacity:1;fill-rule:nonzero;stroke:none;stroke-width:.199128" transform="matrix(6.69586 0 0 -6.69586 207.038 26.241)"/></g><g style="fill:#3d3935;stroke-width:.199128"><path d="M0 0h2.263c1.326 0 2.243-.782 2.243-1.91a1.98 1.98 0 0 0-.487-1.291c-.222-.244-.419-.355-.827-.487.332-.177.507-.374.916-1.037l1.634-2.64H4.715L3.533-5.453c-.022.032-.077.143-.154.286-.552.993-.906 1.281-1.557 1.281H.926v-3.479H0Zm1.767-3.301c.63 0 .971.087 1.269.309.332.253.531.662.531 1.082 0 .431-.222.829-.564 1.05-.253.165-.474.209-.961.209H.926v-2.65z" style="fill:#3d3935;fill-opacity:1;fill-rule:nonzero;stroke:none;stroke-width:.199128" transform="matrix(6.69586 0 0 -6.69586 234.328 .518)"/></g><g style="fill:#3d3935"><g style="fill:#3d3935;stroke-width:.199128"><path d="m0 0-.938-2.321h-1.004l3.179 7.365h.751l3.213-7.365H4.174L3.225 0Zm1.624 3.731L.299.648h2.638z" style="fill:#3d3935;fill-opacity:1;fill-rule:nonzero;stroke:none;stroke-width:.199128" transform="matrix(6.69586 0 0 -6.69586 303.533 34.29)"/></g><g style="fill:#3d3935;stroke-width:.199128"><path d="M0 0h-.785l-4.936 5.797V0h-.927v7.365h.739l4.98-5.885v5.885H0Z" style="fill:#3d3935;fill-opacity:1;fill-rule:nonzero;stroke:none;stroke-width:.199128" transform="matrix(6.69586 0 0 -6.69586 405.868 49.834)"/></g><g clip-path="url(#a)" style="fill:#3d3935;stroke-width:.199128" transform="matrix(6.69586 0 0 -6.69586 -189.808 5447.37)"><g style="fill:#3d3935;stroke-width:.199128"><path d="M0 0h2.539C3.6 0 4.217-.144 4.858-.563c.983-.629 1.623-1.853 1.623-3.113 0-1.368-.761-2.64-1.943-3.259-.552-.285-1.292-.43-2.198-.43H0Zm2.076-6.624c1.048 0 1.668.143 2.207.507.84.564 1.26 1.381 1.26 2.429 0 1.128-.575 2.142-1.491 2.628-.452.243-.883.321-1.8.321H.926v-5.885z" style="fill:#3d3935;fill-opacity:1;fill-rule:nonzero;stroke:none;stroke-width:.199128" transform="translate(93.18 813.466)"/></g><g style="fill:#3d3935;stroke-width:.199128"><path d="M0 0q.333 0 .621-.167.29-.168.457-.456a1.2 1.2 0 0 0 .167-.621q0-.336-.166-.622A1.24 1.24 0 0 0 0-2.487q-.338 0-.627.166a1.2 1.2 0 0 0-.455.454 1.2 1.2 0 0 0-.168.623q0 .335.168.622.168.29.457.455Q-.335.001 0 0m0-.208q-.43 0-.737-.303a1 1 0 0 1-.302-.733q.001-.431.302-.733.305-.303.737-.305.428.002.732.305a1 1 0 0 1 .303.733 1 1 0 0 1-.305.733A1 1 0 0 1 0-.208M-.281-1.91h-.218v1.335h.465q.245 0 .348-.039a.36.36 0 0 0 .222-.323.36.36 0 0 0-.105-.259.43.43 0 0 0-.276-.117.5.5 0 0 0 .142-.104q.066-.073.17-.235l.159-.258H.363l-.117.209a1.4 1.4 0 0 1-.2.291.3.3 0 0 1-.198.067h-.129zm0 1.153v-.402h.265a.5.5 0 0 1 .245.048q.078.047.077.156 0 .11-.075.153-.075.045-.265.045z" style="fill:#3d3935;fill-opacity:1;fill-rule:nonzero;stroke:none;stroke-width:.199128" transform="translate(197.18 789.978)"/></g><g style="fill:#3d3935;stroke-width:.199128"><path d="M0 0c.052 0 .086-.027.11-.101l.862-3.14c.054-.176-.021-.312-.094-.341-.108-.014-.153-.044-.153-.132 0-.106.128-.106.323-.12.866-.029 1.654-.029 2.044-.029.402 0 .498.029.498.149 0 .1-.053.118-.142.118-.126 0-.291.014-.452.057-.228.076-.541.281-.951 1.618C1.352.331-.378 6.37-.639 7.185c-.107.343-.171.473-.269.473-.109 0-.173-.163-.301-.59l-2.715-9.302c-.218-.737-.421-1.243-.917-1.332a2 2 0 0 0-.338-.03c-.086 0-.129-.03-.129-.118 0-.12.064-.149.205-.149.561 0 1.155.043 1.276.043.334 0 .798-.043 1.147-.043.117 0 .182.029.182.149 0 .088-.032.118-.161.118h-.163c-.335 0-.434.192-.434.457 0 .179.055.533.164.905l.584 2.12c.021.087.042.114.097.114Zm-2.195.742c-.042 0-.053.046-.042.102l.994 3.646c.011.06.034.134.066.134.03 0 .043-.074.051-.134L-.15.831c.01-.043 0-.089-.055-.089z" style="fill:#3d3935;fill-opacity:1;fill-rule:nonzero;stroke:none;stroke-width:.199128" transform="translate(184.36 791.505)"/></g><g style="fill:#3d3935;stroke-width:.199128"><path d="M0 0h.031c.197-.278 1.396-2.133 2.576-3.732 1.121-1.524 2.506-3.464 3.188-4.353.119-.162.248-.329.367-.329.097 0 .141.136.141.461l.119 9.345c.011.833.098 1.142.4 1.26a.9.9 0 0 0 .324.045q.195-.001.195.133c0 .12-.106.134-.248.134-.532 0-.942-.045-1.061-.045-.226 0-.745.045-1.308.045-.162 0-.281-.014-.281-.134 0-.09.044-.133.173-.133.15 0 .412 0 .573-.089.258-.15.357-.428.368-1.334l.107-6.649h-.055c-.181.236-1.643 2.371-2.376 3.376A179 179 0 0 0-.12 2.756c-.182.266-.281.461-.401.461-.106 0-.14-.21-.14-.505l-.097-8.769c-.011-1.285-.055-1.718-.334-1.837a1.4 1.4 0 0 0-.487-.073c-.109 0-.174-.03-.174-.118 0-.134.098-.149.239-.149.561 0 1.068.044 1.168.044.205 0 .638-.044 1.34-.044.152 0 .249.029.249.149 0 .088-.065.118-.182.118-.174 0-.381.014-.564.103-.217.106-.359.49-.379 1.644z" style="fill:#3d3935;fill-opacity:1;fill-rule:nonzero;stroke:none;stroke-width:.199128" transform="translate(118.12 795.876)"/></g><g style="fill:#3d3935;stroke-width:.199128"><path d="M0 0c0-1.364 0-2.535-.054-3.157-.031-.429-.096-.754-.312-.815a1.4 1.4 0 0 0-.392-.058c-.129 0-.172-.046-.172-.118 0-.105.075-.149.215-.149.434 0 1.116.044 1.364.044.304 0 .984-.044 1.698-.044.119 0 .205.044.205.149 0 .072-.052.118-.174.118-.161 0-.4.03-.55.058-.324.061-.391.386-.422.801-.055.636-.055 1.807-.055 3.171v6.074l1.363-.046c.962-.03 1.254-.444 1.277-.831l.008-.161c.014-.222.034-.298.121-.298.065 0 .086.088.096.238 0 .384.033 1.406.033 1.717 0 .223-.011.309-.086.309-.085 0-.342-.146-1.039-.146h-4.28c-.356 0-.768.031-1.082.073-.27.03-.376.178-.465.178-.064 0-.098-.088-.128-.28-.023-.119-.228-1.467-.228-1.705 0-.163.021-.236.097-.236.065 0 .097.059.118.177.022.119.077.297.183.521.164.325.423.399 1.051.427L0 6.074Z" style="fill:#3d3935;fill-opacity:1;fill-rule:nonzero;stroke:none;stroke-width:.199128" transform="translate(130.026 791.94)"/></g><g style="fill:#3d3935;stroke-width:.199128"><path d="M0 0c0-1.437 0-2.608-.055-3.23-.029-.428-.097-.681-.311-.742a1.4 1.4 0 0 0-.392-.058c-.128 0-.174-.046-.174-.118 0-.105.079-.149.22-.149.431 0 1.113.044 1.361.044.293 0 .975-.044 1.687-.044.121 0 .207.044.207.149 0 .072-.055.118-.175.118-.161 0-.399.03-.552.058-.326.061-.398.326-.431.727-.043.637-.043 1.808-.043 3.245v2.606c0 2.251 0 2.664.021 3.14.022.516.11.767.4.843.129.03.217.045.325.045.107 0 .174.031.174.148 0 .09-.086.119-.229.119-.409 0-1.048-.045-1.32-.045-.312 0-.994.045-1.403.045-.174 0-.26-.029-.26-.119 0-.117.064-.148.174-.148.129 0 .269-.015.388-.059.236-.072.346-.326.368-.829C0 5.27 0 4.857 0 2.606Z" style="fill:#3d3935;fill-opacity:1;fill-rule:nonzero;stroke:none;stroke-width:.199128" transform="translate(137.497 791.94)"/></g><g style="fill:#3d3935;stroke-width:.199128"><path d="M0 0h.033c.194-.278 1.394-2.133 2.574-3.732 1.121-1.524 2.507-3.464 3.188-4.353.118-.162.249-.329.369-.329.094 0 .14.136.14.461l.12 9.345c.009.833.095 1.142.4 1.26a.9.9 0 0 0 .322.045q.195-.001.195.133c0 .12-.108.134-.249.134-.528 0-.941-.045-1.059-.045-.226 0-.746.045-1.308.045-.163 0-.282-.014-.282-.134 0-.09.044-.133.176-.133.151 0 .408 0 .571-.089.262-.15.356-.428.369-1.334l.106-6.649h-.054c-.183.236-1.643 2.371-2.379 3.376A182 182 0 0 0-.119 2.756c-.182.266-.281.461-.398.461-.11 0-.143-.21-.143-.505l-.097-8.769c-.01-1.285-.053-1.718-.335-1.837a1.4 1.4 0 0 0-.485-.073c-.109 0-.173-.03-.173-.118 0-.134.096-.149.237-.149.563 0 1.071.044 1.165.044.208 0 .642-.044 1.341-.044.156 0 .251.029.251.149 0 .088-.065.118-.186.118-.173 0-.376.014-.561.103-.216.106-.357.49-.378 1.644z" style="fill:#3d3935;fill-opacity:1;fill-rule:nonzero;stroke:none;stroke-width:.199128" transform="translate(143.668 795.876)"/></g><g style="fill:#3d3935;stroke-width:.199128"><path d="M0 0c0-1.364 0-2.535-.054-3.157-.043-.429-.098-.754-.313-.815a1.4 1.4 0 0 0-.388-.058c-.131 0-.174-.046-.174-.118 0-.105.077-.149.217-.149.432 0 1.113.044 1.36.044.639 0 1.962-.088 3.598-.088.409 0 .507 0 .584.384.053.299.139 1.306.139 1.644 0 .149 0 .269-.086.269-.077 0-.098-.061-.119-.225-.078-.606-.206-.917-.486-1.096-.282-.178-1.337-.178-1.617-.178-1.103 0-1.275.223-1.298 1.243-.011.434 0 1.796 0 2.3v1.168c0 .09.012.147.064.147.26 0 1.93-.011 2.135-.044.401-.057.552-.281.606-.575.034-.194.034-.388.041-.535 0-.076.023-.132.101-.132.096 0 .096.159.096.279 0 .102.022.698.043.996.034.754.087.99.087 1.082 0 .086-.032.116-.075.116-.055 0-.098-.073-.174-.192-.098-.15-.258-.194-.518-.225-.25-.027-2.091-.027-2.329-.027-.065 0-.077.058-.077.161v3.749c0 .106.023.149.077.149.216 0 1.95-.032 2.134-.06.54-.089.649-.267.725-.534.054-.179.064-.431.064-.533 0-.133.022-.207.098-.207.075 0 .097.09.106.162.023.177.046.829.056.977.032.682.088.86.088.965 0 .072-.013.132-.068.132-.053 0-.12-.043-.173-.06a3 3 0 0 0-.464-.087c-.205-.016-2.955-.016-3.303-.016-.302 0-.983.045-1.555.045-.162 0-.24-.029-.24-.134 0-.102.066-.133.186-.133.151 0 .334-.015.42-.045.359-.101.442-.34.465-.843C0 5.27 0 4.857 0 2.606Z" style="fill:#3d3935;fill-opacity:1;fill-rule:nonzero;stroke:none;stroke-width:.199128" transform="translate(154.144 791.94)"/></g><g style="fill:#3d3935;stroke-width:.199128"><path d="M0 0h.031c.195-.278 1.397-2.133 2.575-3.732 1.123-1.524 2.506-3.464 3.189-4.353.119-.162.247-.329.367-.329.097 0 .142.136.142.461l.12 9.345c.009.833.098 1.142.4 1.26.129.045.214.045.322.045q.195-.001.194.133c0 .12-.109.134-.247.134-.528 0-.941-.045-1.06-.045-.226 0-.746.045-1.309.045-.161 0-.281-.014-.281-.134 0-.09.044-.133.172-.133.153 0 .413 0 .575-.089.258-.15.358-.428.366-1.334l.11-6.649h-.055c-.184.236-1.644 2.371-2.378 3.376C1.654.15.009 2.566-.122 2.756c-.181.266-.277.461-.397.461-.107 0-.141-.21-.141-.505l-.095-8.769c-.013-1.285-.055-1.718-.337-1.837a1.4 1.4 0 0 0-.487-.073c-.109 0-.172-.03-.172-.118 0-.134.097-.149.236-.149.564 0 1.072.044 1.169.044.206 0 .64-.044 1.34-.044.153 0 .249.029.249.149 0 .088-.066.118-.185.118-.171 0-.377.014-.56.103-.214.106-.357.49-.38 1.644z" style="fill:#3d3935;fill-opacity:1;fill-rule:nonzero;stroke:none;stroke-width:.199128" transform="translate(163.083 795.876)"/></g><g style="fill:#3d3935;stroke-width:.199128"><path d="M0 0c0-1.364 0-2.535-.054-3.157-.032-.429-.096-.754-.313-.815a1.4 1.4 0 0 0-.39-.058c-.13 0-.172-.046-.172-.118 0-.105.076-.149.214-.149.433 0 1.115.044 1.363.044.306 0 .984-.044 1.698-.044.12 0 .206.044.206.149 0 .072-.052.118-.172.118-.164 0-.4.03-.552.058-.324.061-.391.386-.421.801-.055.636-.055 1.807-.055 3.171v6.074l1.362-.046c.962-.03 1.254-.444 1.277-.831l.01-.161c.012-.222.033-.298.12-.298.063 0 .085.088.096.238 0 .384.031 1.406.031 1.717 0 .223-.01.309-.083.309-.088 0-.348-.146-1.041-.146h-4.28c-.357 0-.767.031-1.081.073-.271.03-.379.178-.465.178-.066 0-.098-.088-.131-.28-.021-.119-.229-1.467-.229-1.705 0-.163.025-.236.098-.236.068 0 .1.059.122.177.021.119.074.297.183.521.161.325.422.399 1.046.427L0 6.074Z" style="fill:#3d3935;fill-opacity:1;fill-rule:nonzero;stroke:none;stroke-width:.199128" transform="translate(174.882 791.94)"/></g><g style="fill:#3d3935;stroke-width:.199128"><path d="M0 0c0 2.251 0 2.664.022 3.14.021.516.106.767.401.843.128.03.304.045.42.045.132 0 .196.032.196.134 0 .104-.076.134-.229.134-.421 0-1.21-.046-1.47-.046-.291 0-.972.046-1.482.046-.162 0-.236-.03-.236-.134 0-.102.064-.134.183-.134.141 0 .272-.015.356-.045.356-.101.445-.34.467-.843.021-.476.021-.889.021-3.14v-2.606c0-1.364 0-2.535-.055-3.157-.042-.428-.095-.754-.312-.815a1.4 1.4 0 0 0-.388-.057c-.134 0-.174-.046-.174-.118 0-.106.076-.149.214-.149.434 0 1.115.043 1.363.043.875 0 1.59-.088 3.148-.088.56 0 .615.074.681.4.085.429.162 1.54.162 1.703 0 .178-.012.253-.087.253-.084 0-.109-.09-.12-.224-.021-.28-.15-.695-.279-.888-.271-.399-.693-.415-1.267-.415-.845 0-1.123.107-1.309.327C0-5.522 0-4.503 0-2.606Z" style="fill:#3d3935;fill-opacity:1;fill-rule:nonzero;stroke:none;stroke-width:.199128" transform="translate(191.534 794.545)"/></g><g style="fill:#3d3935;stroke-width:.199128"><path d="M0 0c.757 0 2.509.503 2.509 4.784 0 3.315-1.394 5.373-3.171 5.373-1.241 0-2.656-.947-2.656-4.635C-3.318 2.444-2.074 0 0 0m-.453-.742c-3.104 0-4.359 3.186-4.359 5.808 0 2.531 1.222 5.804 4.467 5.804 2.692 0 4.368-2.149 4.368-5.54 0-3.395-1.729-6.072-4.476-6.072" style="fill:#3d3935;fill-opacity:1;fill-rule:nonzero;stroke:none;stroke-width:.199128" transform="translate(110.283 788.177)"/></g><g style="fill:#3d3935;stroke-width:.199128"><path d="M0 0c0-1.637 0-2.971-.064-3.678-.035-.492-.11-.775-.357-.843a1.5 1.5 0 0 0-.443-.068c-.146 0-.196-.05-.196-.135 0-.119.087-.17.246-.17.493 0 1.267.051 1.552.051.332 0 1.106-.051 1.92-.051.136 0 .234.051.234.17 0 .085-.06.135-.198.135-.182 0-.455.034-.629.068-.368.068-.454.37-.491.827-.048.723-.048 2.057-.048 3.694v2.968c0 2.563 0 3.037.024 3.576.024.589.123.877.455.961.148.032.247.048.369.048s.198.036.198.171c0 .1-.098.136-.259.136-.469 0-1.194-.052-1.501-.052-.359 0-1.133.052-1.602.052-.197 0-.296-.036-.296-.136 0-.135.076-.171.198-.171.148 0 .308-.016.441-.065.273-.085.397-.37.42-.944C0 6.005 0 5.531 0 2.968Z" style="fill:#3d3935;fill-opacity:1;fill-rule:nonzero;stroke:none;stroke-width:.199128" transform="translate(53.047 792.528)"/></g><g style="fill:#3d3935;stroke-width:.199128"><path d="M0 0h.034c.192-.278 1.395-2.133 2.572-3.732 1.125-1.524 2.509-3.464 3.191-4.353.118-.162.249-.329.366-.329.098 0 .141.136.141.461l.119 9.345c.011.833.099 1.142.399 1.26.13.045.218.045.326.045q.192-.001.193.133c0 .12-.107.134-.247.134-.528 0-.941-.045-1.061-.045-.226 0-.745.045-1.308.045-.161 0-.281-.014-.281-.134 0-.09.044-.133.173-.133.152 0 .411 0 .573-.089.26-.15.358-.428.367-1.334l.11-6.649h-.056c-.184.236-1.642 2.371-2.379 3.376A182 182 0 0 0-.117 2.756c-.184.266-.282.461-.402.461-.108 0-.14-.21-.14-.505l-.096-8.769C-.766-7.342-.81-7.775-1.09-7.894a1.4 1.4 0 0 0-.489-.073c-.107 0-.17-.03-.17-.118 0-.134.095-.149.235-.149.563 0 1.072.044 1.17.044.206 0 .637-.044 1.341-.044.148 0 .247.029.247.149 0 .088-.064.118-.183.118-.173 0-.378.014-.562.103-.216.106-.358.49-.379 1.644z" style="fill:#3d3935;fill-opacity:1;fill-rule:nonzero;stroke:none;stroke-width:.199128" transform="translate(59.648 795.876)"/></g><g style="fill:#3d3935;stroke-width:.199128"><path d="M0 0c0-1.364 0-2.535-.057-3.157-.032-.429-.097-.754-.313-.815a1.4 1.4 0 0 0-.39-.058c-.127 0-.171-.046-.171-.118 0-.105.075-.149.216-.149.433 0 1.114.044 1.361.044.303 0 .984-.044 1.699-.044.119 0 .207.044.207.149 0 .072-.055.118-.176.118-.162 0-.398.03-.55.058-.326.061-.39.386-.422.801C1.35-2.535 1.35-1.364 1.35 0v6.074l1.361-.046c.965-.03 1.256-.444 1.277-.831l.014-.161c.008-.222.028-.298.116-.298.065 0 .087.088.097.238 0 .384.034 1.406.034 1.717 0 .223-.013.309-.087.309-.087 0-.348-.146-1.04-.146h-4.281c-.355 0-.766.031-1.08.073-.271.03-.378.178-.467.178-.062 0-.098-.088-.13-.28-.021-.119-.227-1.467-.227-1.705 0-.163.024-.236.097-.236.066 0 .098.059.123.177.021.119.075.297.183.521.161.325.421.399 1.048.427L0 6.074Z" style="fill:#3d3935;fill-opacity:1;fill-rule:nonzero;stroke:none;stroke-width:.199128" transform="translate(71.45 791.94)"/></g><g style="fill:#3d3935;stroke-width:.199128"><path d="M0 0c0-1.364 0-2.535-.054-3.157-.045-.429-.1-.754-.314-.815A1.4 1.4 0 0 0-.76-4.03c-.127 0-.171-.046-.171-.118 0-.105.075-.149.217-.149.43 0 1.113.044 1.361.044.637 0 1.961-.088 3.595-.088.411 0 .509 0 .582.384.055.299.142 1.306.142 1.644 0 .149 0 .269-.087.269-.077 0-.096-.061-.12-.225-.076-.606-.205-.917-.485-1.096-.279-.178-1.336-.178-1.616-.178-1.1 0-1.275.223-1.295 1.243-.014.434 0 1.796 0 2.3v1.168c0 .09.008.147.064.147.259 0 1.93-.011 2.135-.044.399-.057.55-.281.604-.575.031-.194.031-.388.042-.535 0-.076.022-.132.098-.132.098 0 .098.159.098.279 0 .102.022.698.043.996.032.754.085.99.085 1.082 0 .086-.032.116-.074.116-.054 0-.097-.073-.173-.192-.099-.15-.262-.194-.52-.225-.249-.027-2.09-.027-2.327-.027-.067 0-.075.058-.075.161v3.749c0 .106.02.149.075.149.216 0 1.95-.032 2.133-.06.541-.089.65-.267.725-.534.053-.179.065-.431.065-.533 0-.133.02-.207.097-.207.074 0 .096.09.106.162.024.177.043.829.056.977.033.682.087.86.087.965 0 .072-.012.132-.066.132-.053 0-.117-.043-.173-.06a3 3 0 0 0-.466-.087C3.799 6.856 1.046 6.856.7 6.856c-.301 0-.984.045-1.556.045-.162 0-.236-.029-.236-.134 0-.102.063-.133.183-.133.149 0 .336-.015.42-.045.358-.101.443-.34.465-.843C0 5.27 0 4.857 0 2.606Z" style="fill:#3d3935;fill-opacity:1;fill-rule:nonzero;stroke:none;stroke-width:.199128" transform="translate(78.409 791.94)"/></g><g style="fill:#3d3935;stroke-width:.199128"><path d="M0 0c0-1.364 0-2.535-.054-3.157-.043-.429-.098-.754-.316-.815a1.4 1.4 0 0 0-.386-.058c-.131 0-.174-.046-.174-.118 0-.105.075-.149.218-.149.43 0 1.112.044 1.316.044.164 0 .963-.044 1.593-.044.137 0 .215.044.215.149 0 .072-.046.118-.131.118-.131 0-.367.03-.531.058-.322.061-.386.386-.42.815-.053.622-.053 1.793-.053 3.17v.208c0 .087.031.117.087.117l.938-.03c.076 0 .142-.014.196-.103.14-.222.637-1.23 1.069-2.044.606-1.138 1.016-1.836 1.482-2.177.282-.209.551-.281 1.155-.281h1.029c.13 0 .206.029.206.149 0 .072-.044.118-.131.118s-.184.014-.301.043c-.163.046-.605.149-1.213 1.01C5.155-2.061 4.41-.742 3.448.916c1.093 1.214 1.428 2.22 1.428 3.319 0 .991-.431 1.748-.735 2.027-.584.549-1.309.639-1.991.639-.332 0-1.156-.045-1.524-.045-.226 0-.908.045-1.481.045-.162 0-.237-.029-.237-.134 0-.102.064-.133.183-.133.153 0 .337-.015.421-.045.356-.101.444-.34.465-.843C0 5.27 0 4.857 0 2.606Zm1.277 5.936c0 .121.019.181.096.211.109.042.302.059.571.059.64 0 1.656-.608 1.656-2.713 0-1.213-.313-1.895-.638-2.222-.196-.192-.335-.249-.765-.249-.273 0-.598.043-.824.146-.077.046-.096.103-.096.267Z" style="fill:#3d3935;fill-opacity:1;fill-rule:nonzero;stroke:none;stroke-width:.199128" transform="translate(86.671 791.94)"/></g><g style="fill:#3d3935;stroke-width:.199128"><path d="M0 0c.79 0 1.728.119 2.223.382.208.115.259.197.321.477.123.556.272 1.991.272 2.187 0 .135-.024.248-.112.248-.102 0-.123-.066-.16-.329a3.3 3.3 0 0 0-.419-1.087C1.63 1.121.963.957-.138.957c-1.655 0-3.889 1.941-3.889 5.861 0 1.597.238 3.163 1.139 4.266.54.657 1.245 1.02 2.32 1.02 1.137 0 2.097-.445 2.507-1.02.307-.429.469-1.007.481-1.516 0-.232.024-.362.124-.362.11 0 .133.13.147.379.024.328.013 1.235.038 1.779.025.575.063.772.063.904 0 .098-.05.181-.19.198-.368.051-.763.198-1.232.28a9.2 9.2 0 0 1-1.79.164c-1.841 0-3.015-.659-3.903-1.745-1.185-1.447-1.445-3.39-1.445-4.511 0-1.597.321-3.439 1.531-4.859C-3.114.497-1.693 0 0 0" style="fill:#3d3935;fill-opacity:1;fill-rule:nonzero;stroke:none;stroke-width:.199128" transform="translate(100.611 787.482)"/></g><g style="fill:#3d3935;stroke-width:.199128"><path d="M0 0a8 8 0 0 1-.926.4q-.585.222-.759.446a.8.8 0 0 0-.168.492c0 .258.094.469.287.643.408.369 1.015.382 1.895-.134l.202-.117v.777l-.07.039a2.76 2.76 0 0 1-1.331.361c-.467 0-.872-.155-1.204-.461a1.48 1.48 0 0 1-.507-1.127q0-.476.215-.787.21-.304.509-.467c.182-.1.484-.231.923-.398.397-.153.66-.314.781-.479a.9.9 0 0 0 .181-.551.89.89 0 0 0-.294-.677c-.442-.42-1.114-.394-2.028.28l-.213.156v-.835l.06-.04c.501-.332.998-.501 1.477-.501.477 0 .888.159 1.221.472.335.315.505.707.505 1.164 0 .341-.076.626-.223.847A1.5 1.5 0 0 1 0 0" style="fill:#3d3935;fill-opacity:1;fill-rule:nonzero;stroke:none;stroke-width:.199128" transform="translate(55.257 778.707)"/></g></g><g style="fill:#3d3935;stroke-width:.199128"><path d="M0 0h2.498v.623H0v1.922h2.566v.624H-.691v-5.746h3.32v.623H0Z" style="fill:#3d3935;fill-opacity:1;fill-rule:nonzero;stroke:none;stroke-width:.199128" transform="matrix(6.69586 0 0 -6.69586 209.519 235.463)"/></g><g clip-path="url(#b)" style="fill:#3d3935;stroke-width:.199128" transform="matrix(6.69586 0 0 -6.69586 -189.808 5447.37)"><g style="fill:#3d3935;stroke-width:.199128"><path d="M0 0c-.84 0-1.561-.288-2.145-.856a2.82 2.82 0 0 1-.881-2.09c0-.814.296-1.516.881-2.086.583-.567 1.304-.855 2.145-.855.843 0 1.567.288 2.152.855.588.57.886 1.272.886 2.086 0 .818-.298 1.522-.886 2.09C1.566-.288.842 0 0 0m.016-5.227c-.654 0-1.192.216-1.644.66-.451.447-.67.976-.67 1.621a2.2 2.2 0 0 0 .67 1.624c.447.44 1 .662 1.644.662.641 0 1.19-.222 1.631-.661.44-.439.663-.985.663-1.625 0-.645-.217-1.175-.663-1.621-.447-.444-.981-.66-1.631-.66" style="fill:#3d3935;fill-opacity:1;fill-rule:nonzero;stroke:none;stroke-width:.199128" transform="translate(67.904 781.614)"/></g><g style="fill:#3d3935;stroke-width:.199128"><path d="M0 0c0-.647-.163-1.15-.484-1.496-.322-.347-.731-.516-1.252-.516-.515 0-.922.167-1.245.511-.321.341-.483.826-.483 1.442v3.206h-.697V-.074c0-.797.228-1.435.677-1.898.45-.464 1.038-.7 1.747-.7.712 0 1.302.239 1.752.708.448.468.676 1.137.676 1.988v3.123H0Z" style="fill:#3d3935;fill-opacity:1;fill-rule:nonzero;stroke:none;stroke-width:.199128" transform="translate(77.983 778.399)"/></g></g><g style="fill:#3d3935;stroke-width:.199128"><path d="M0 0h-.691v-5.746h3.399v.624H0Z" style="fill:#3d3935;fill-opacity:1;fill-rule:nonzero;stroke:none;stroke-width:.199128" transform="matrix(6.69586 0 0 -6.69586 362.436 214.246)"/></g><g clip-path="url(#c)" style="fill:#3d3935;stroke-width:.199128" transform="matrix(6.69586 0 0 -6.69586 -189.808 5447.37)"><g style="fill:#3d3935;stroke-width:.199128"><path d="M0 0h-1.644v-5.746h.691v2.556h.914c.628 0 1.116.144 1.45.429.339.29.511.687.511 1.178 0 .487-.171.878-.508 1.162C1.083-.142.608 0 0 0m-.953-.623h.937c.399 0 .707-.09.914-.266.203-.174.302-.403.302-.702 0-.313-.101-.547-.307-.715q-.322-.26-.96-.26h-.886z" style="fill:#3d3935;fill-opacity:1;fill-rule:nonzero;stroke:none;stroke-width:.199128" transform="translate(93.876 781.546)"/></g></g><g style="fill:#3d3935;stroke-width:.199128"><path d="m0 0-2.653-5.782h.74l.861 1.892h2.506l.867-1.892h.739L.407 0Zm1.169-3.267H-.768l.967 2.121z" style="fill:#3d3935;fill-opacity:1;fill-rule:nonzero;stroke:none;stroke-width:.199128" transform="matrix(6.69586 0 0 -6.69586 480.15 214.001)"/></g><g clip-path="url(#d)" style="fill:#3d3935;stroke-width:.199128" transform="matrix(6.69586 0 0 -6.69586 -189.808 5447.37)"><g style="fill:#3d3935;stroke-width:.199128"><path d="M0 0c.603.288.908.747.908 1.367 0 .474-.174.857-.516 1.137-.335.274-.818.413-1.434.413H-2.58v-5.745h.692v2.624h.607q.47 0 .703-.163c.112-.078.326-.298.709-.901l.996-1.56h.82L.572-.731Q.243-.225 0 0m.18 1.358c0-.301-.102-.526-.314-.687C-.352.503-.682.419-1.113.419h-.775v1.875h.759q.653 0 .99-.255c.215-.163.319-.386.319-.681" style="fill:#3d3935;fill-opacity:1;fill-rule:nonzero;stroke:none;stroke-width:.199128" transform="translate(108.25 778.629)"/></g></g><g style="fill:#3d3935;stroke-width:.199128"><path d="m0 0-3.917 4.517-.04.046h-.554v-5.745h.691v4.563L.144-1.182h.547v5.745H0Z" style="fill:#3d3935;fill-opacity:1;fill-rule:nonzero;stroke:none;stroke-width:.199128" transform="matrix(6.69586 0 0 -6.69586 593.626 244.801)"/></g><g style="fill:#3d3935;stroke-width:.199128"><path d="m0 0-2.653-5.782h.74l.861 1.892h2.506l.867-1.892h.739L.407 0Zm1.169-3.267H-.768l.967 2.121z" style="fill:#3d3935;fill-opacity:1;fill-rule:nonzero;stroke:none;stroke-width:.199128" transform="matrix(6.69586 0 0 -6.69586 629.848 214.001)"/></g><g clip-path="url(#e)" style="fill:#3d3935;stroke-width:.199128" transform="matrix(6.69586 0 0 -6.69586 -189.808 5447.37)"><g style="fill:#3d3935;stroke-width:.199128"><path d="M0 0a1.5 1.5 0 0 1-.533.498 8 8 0 0 1-.926.399q-.587.223-.759.447a.8.8 0 0 0-.168.492c0 .258.094.468.287.643.407.37 1.014.382 1.895-.134l.202-.118v.778l-.07.038c-.436.24-.884.362-1.331.362a1.73 1.73 0 0 1-1.205-.462 1.48 1.48 0 0 1-.506-1.127q0-.475.214-.787a1.5 1.5 0 0 1 .51-.467c.184-.101.486-.231.923-.398q.598-.23.781-.479a.9.9 0 0 0 .181-.55.89.89 0 0 0-.294-.678c-.443-.419-1.113-.393-2.028.28l-.213.157v-.836l.06-.039c.5-.333.998-.501 1.477-.501.477 0 .888.159 1.221.472.335.315.505.706.505 1.163Q.223-.332 0 0" style="fill:#3d3935;fill-opacity:1;fill-rule:nonzero;stroke:none;stroke-width:.199128" transform="translate(130.873 778.21)"/></g></g></g></g></svg>