<svg xmlns="http://www.w3.org/2000/svg" width="81px" height="29px" viewBox="0 0 81 29"><g fill="none" fill-rule="evenodd"><path fill="#FF9F00" d="M.375 27.589v1.241h55.272l.873-1.241H.375M63.949 26.373s3.833-5.726 4.179-6.29c.421-.693.44-1.794.06-2.385-.193-.31-5.908-9.348-5.908-9.348-.514-.977-.386-1.644-.043-2.12.564-.832 1.557-2.306 1.557-2.306s6.94 10.886 7.228 11.37c.745 1.242.537 2.46-.075 3.5-.515.88-5.01 7.579-5.01 7.579H63.95"/><path fill="#FF9F00" d="M62.714 26.992s4.436-6.495 4.766-7.033c.387-.656.345-1.582 0-2.141-.184-.295-6.344-9.991-6.344-9.991s-1.093 1.65-1.438 2.159c-.345.507-.548 1.138.042 2.154l4.597 7.258c.36.567.343 1.611-.058 2.268-.33.53-4.879 7.164-4.879 7.164h13.128c1.335 0 2.067-.517 2.71-1.445.56-.788 2.718-3.927 3.05-4.42.327-.491.985-.82 1.278-.82h1.026L78.591 19.1h-3.193c-.61 0-1.348.541-1.736 1.115-.302.452-2.486 3.724-2.88 4.25-.224.297-.414.363-.592.364h-.415c.13-.263 3.799-5.6 4.52-6.775.87-1.446 1.07-3.357.033-5.19C73.947 12.2 66.324.17 66.324.17s-1.015 1.461-1.438 2.088c-.343.51-.449 1.178.045 2.155 0 0 6.4 10.18 6.706 10.646.743 1.16.65 2.71 0 3.769-.532.869-4.953 7.545-4.953 7.545h3.503c1.267 0 1.58-.47 1.93-.861.35-.391 2.255-3.28 2.472-3.586.22-.3.775-1.153 1.506-1.153h2.3v.066a2.19 2.19 0 0 0-1.323.876c-.35.474-2.663 3.898-2.94 4.297-.35.503-.752.98-1.758.98h-9.66"/><path fill="#00266B" d="M33.267 24.627h1.241v-5.655h-1.24zM32.391 24.627v-1.034H29.5v-4.621h-1.247v5.655h4.14M13.292 22.986l2.636.001.731 1.64h1.356l-2.768-5.655h-1.282l-2.768 5.655h1.364l.73-1.641Zm1.314-3.038.897 2.043-1.788.004.891-2.047ZM23.04 20.006h1.948c.456 0 .745.439.745.833 0 .394-.289.82-.745.82h-1.525l2.47 2.968h1.471l-1.752-2.109h.003a1.784 1.784 0 0 0 1.237-1.714c0-.975-.753-1.832-1.85-1.832h-3.224v5.655h1.221v-4.621M18.848 24.627h1.242v-5.655h-1.242zM50.392 22.334h1.589c.365 0 .61.21.61.616 0 .405-.245.617-.61.617h-3.42v1.061h3.3c1.281 0 1.912-.845 1.912-1.702 0-.858-.63-1.696-1.911-1.696-.55 0-1.6.003-1.6.003-.354 0-.593-.205-.593-.598 0-.395.24-.6.593-.6h3.427v-1.062h-3.297c-1.268 0-1.892.748-1.892 1.685 0 .936.624 1.676 1.892 1.676M47.306 24.627v-1.034h-3.312v-1.448h2.886v-1.028h-2.886v-1.111l3.312.001v-1.035h-4.558v5.655h4.558M37.27 20.006h2.057c.504 0 .826.46.826.886v3.735h1.239v-3.893c0-.963-.686-1.762-1.785-1.762H37.98l-.71.942v-.942h-1.24v5.655h1.24v-4.621M2.267 15.26h1.59c.364 0 .61.21.61.615s-.246.616-.61.616H.436v1.062h3.3c1.28 0 1.911-.845 1.911-1.703 0-.858-.63-1.695-1.91-1.695l-1.6.002c-.355 0-.594-.204-.594-.598s.24-.599.595-.599h3.425v-1.063H2.267c-1.268 0-1.892.748-1.892 1.685 0 .936.624 1.677 1.892 1.677M19.254 17.55h2.525v-3.689h-1.241v2.598h-1.453c-1.05 0-1.753-.606-1.753-1.765 0-1.165.703-1.764 1.753-1.764h2.694v-1.033h-2.525c-2.128 0-3.178 1.527-3.178 2.833 0 1.306 1.05 2.82 3.178 2.82M6.918 17.552h1.24v-5.655h-1.24zM10.934 12.93h2.056c.505 0 .826.458.826.886v3.735h1.239v-3.893c0-.963-.686-1.761-1.785-1.761h-1.628l-.708.942v-.942h-1.24v5.654h1.24V12.93M43.897 12.93h1.948c.456 0 .745.439.745.834 0 .394-.289.82-.745.82h-1.524l2.47 2.967h1.47l-1.751-2.108h.002a1.785 1.785 0 0 0 1.237-1.715c0-.975-.752-1.831-1.85-1.831h-3.224v5.654h1.222v-4.62M53.687 17.55v-1.033h-3.311V15.07h2.885V14.04h-2.885V12.93l3.311.001v-1.034H49.13v5.654h4.558M24.53 15.91l2.635.001.732 1.64h1.355l-2.768-5.654h-1.28l-2.77 5.654H23.8l.73-1.64Zm1.314-3.038.897 2.044-1.788.003.891-2.047ZM31.131 14.806v-.003l.709.942h1.268c1.066 0 1.818-.889 1.818-1.913 0-1.03-.752-1.935-1.818-1.935h-3.224v5.654h1.247v-2.745Zm0-1.876h1.924c.455 0 .746.475.746.902 0 .426-.291.887-.746.887H31.13v-1.79ZM38.674 17.787a3.074 3.074 0 0 0 0-6.148 3.07 3.07 0 0 0-3.069 3.077 3.07 3.07 0 0 0 3.07 3.071Zm0-5.006a1.931 1.931 0 1 1-.004 3.864 1.931 1.931 0 0 1 .004-3.864Z"/></g></svg>