<svg xmlns="http://www.w3.org/2000/svg" width="670" height="152.364" viewBox="0 0 177.27083 40.312976"><path fill="#707070" d="M52.149 6.72v13.376c-.028.214-.03.432-.008.647.15 1.403 1.344 2.41 2.664 2.25h5.169v6.45H48.146v4.15h28.451v-4.14H64.77V23h7.828V6.721Zm45.789 0 .003 31.353h4.104c.377-2.175.57-4.377.577-6.584V19.793h4.617V15.91h-4.617V6.72Zm31.926 0v16.672h4.645V6.721Zm-12.273.557c-5.988 0-8.165 3.454-8.165 7.64 0 4.22 2.177 7.64 8.165 7.64 6.056 0 8.296-3.42 8.296-7.64 0-4.186-2.24-7.64-8.296-7.64zm-38.776.917v17.492a2.163 2.163 0 0 0-.005.67 2.16 2.16 0 0 0 2.454 1.834H94.23V8.194h-4.582v6.342h-6.274V8.194Zm-21.906 2.52h10.896v8.282H57.498c-.449 0-.587-.147-.587-.623zm60.952.297c2.07.078 3.685 1.887 3.611 4.046-.076 2.157-1.813 3.844-3.88 3.766-2.444 0-3.615-1.29-3.615-3.906v-.142c.077-2.157 1.815-3.842 3.884-3.764zm30.519.187-5.217 1.098.003 4.056-3.101.424v3.93h3.136v9.97c0 4.522 1.098 7.397 5.908 7.397 2.213.02 4.387-.58 6.276-1.732l-.802-3.973a7.049 7.049 0 0 1-3.792 1.06c-2.266 0-2.41-1.904-2.41-4.019v-8.704h6.303V16.27h-6.304zm7.005 4.48 6.972 22.395h7.751l7.163-22.394h-6.01l-4.64 18.086h-.457l-4.442-18.086Zm-72.01 2.729h6.28v5.905l-5.737-.005c-.375 0-.544-.136-.544-.549zm32.675 6.766v3.591h13.814v2.34h-13.817v6.94c0 1.57.571 2.269 2.11 2.269h17.531v-3.594h-14.554c-.401 0-.467-.071-.467-.559v-1.64h13.047a9.419 9.419 0 0 0 .803-4.57v-4.777z"/><path fill="#ea008b" d="m35.812 0-.002 6.832h-7.358v4.326h7.36v6.758h4.973v-6.758h7.36V6.832h-7.36V0ZM0 6.72l.003 18.194c0 9.357 3.809 13.159 11.637 13.159 7.954 0 12.433-3.847 12.433-12.816V6.72h-6.07v18.155c0 6.15-1.718 8.414-6.406 8.414-3.977 0-5.524-2.865-5.524-7.61V6.72Z"/></svg>