<svg xmlns="http://www.w3.org/2000/svg" version="1.0" viewBox="0 0 108.417 26.8833"><path fill="#816bff" d="M8.1 26.8h4c1.4 0 2.6-1.2 2.6-2.6v-.5c0-1.4-1.2-2.6-2.6-2.6h-4c-1.3 0-2.4-1.1-2.4-2.4V2.6C5.7 1.2 4.5 0 3.1 0h-.5C1.2 0 0 1.2 0 2.6v16.1c0 4.5 3.7 8.1 8.1 8.1zM58.3 5.7H61v18.4c0 1.4 1.2 2.6 2.6 2.6h.5c1.4 0 2.6-1.2 2.6-2.6V5.7h2.7c1.4 0 2.6-1.2 2.6-2.6v-.5C72 1.2 70.8 0 69.4 0H58.2c-1.4 0-2.6 1.2-2.6 2.6v.5c.1 1.4 1.3 2.6 2.7 2.6zm18.5 21.1h11c1.4 0 2.6-1.2 2.6-2.6v-.5c0-1.4-1.2-2.6-2.6-2.6H80.4v-4.8H86.1c1.4 0 2.6-1.2 2.6-2.6v-.5c0-1.4-1.2-2.6-2.6-2.6h-5.7V5.7H87.8c1.4 0 2.6-1.2 2.6-2.6v-.5c0-1.4-1.2-2.6-2.6-2.6H77.3c-1.4 0-2.6 1.2-2.6 2.6v21.5c0 1.4.9 2.4 2.1 2.7zm-56.1 0h.5c1.4 0 2.6-1.2 2.6-2.6v-4.5h4.8v4.5c0 1.4 1.2 2.6 2.6 2.6h.5c1.4 0 2.6-1.2 2.6-2.6V8.1c0-4.7-4-8.5-8.8-8.1C21.3.3 18 4 18 8.2v15.9c.1 1.5 1.2 2.7 2.7 2.7zm3.1-18.6c0-1.2.8-2.3 2-2.4 1.5-.2 2.8.9 2.8 2.4V14h-4.8V8.2zm22.6-2.5h4c1.4 0 2.6-1.2 2.6-2.6v-.5C53 1.2 51.8 0 50.4 0h-4c-4.5 0-8.1 3.7-8.1 8.1v16.1c0 1.4 1.2 2.6 2.6 2.6h.5c1.4 0 2.6-1.2 2.6-2.6V17h6.5c1.4 0 2.6-1.2 2.6-2.6v-.5c0-1.4-1.2-2.6-2.6-2.6H44V8.1c0-1.3 1.1-2.4 2.4-2.4zm55.4 21.1h4c1.4 0 2.6-1.2 2.6-2.6v-.5c0-1.4-1.2-2.6-2.6-2.6h-4c-1.3 0-2.4-1.1-2.4-2.4V2.6c0-1.4-1.2-2.6-2.6-2.6h-.5c-1.4 0-2.6 1.2-2.6 2.6v16.1c0 4.5 3.6 8.1 8.1 8.1z"/></svg>