<svg width="16" height="16" viewBox="0 0 16 16" fill="none" xmlns="http://www.w3.org/2000/svg">
<rect width="16" height="16" fill="white"/>
<path d="M7.64696 10.8332C7.62831 10.8719 7.63781 10.9137 7.63781 10.9537C7.63781 11.6777 7.63781 12.4018 7.63781 13.1258C7.63867 13.3076 7.59352 13.4867 7.50656 13.6464C7.40067 13.8395 7.23644 13.9941 7.03739 14.088C6.83834 14.182 6.61468 14.2105 6.39844 14.1695C6.18221 14.1284 5.9845 14.02 5.83363 13.8596C5.68275 13.6993 5.58646 13.4953 5.55854 13.2768C5.55222 13.2245 5.54893 13.172 5.54871 13.1193C5.54871 11.4187 5.54362 9.71803 5.5504 8.01739C5.55312 7.25242 5.84037 6.60046 6.39316 6.07035C6.70721 5.76932 7.07517 5.55177 7.4757 5.38615C7.87752 5.22393 8.29749 5.111 8.72644 5.04982C9.1364 4.99068 9.5501 4.9613 9.9643 4.96192C10.2343 4.96411 10.4929 5.07092 10.6858 5.25992C10.8788 5.44891 10.991 5.70538 10.9989 5.97543C11.0069 6.24549 10.9099 6.50812 10.7284 6.70815C10.547 6.90817 10.2951 7.03003 10.0257 7.04811C9.91309 7.05422 9.80016 7.05422 9.68655 7.05829C9.30239 7.06703 8.92069 7.12218 8.54975 7.22255C8.39347 7.26536 8.24216 7.32463 8.09836 7.39937C8.02167 7.43973 7.94909 7.48747 7.88165 7.54191C7.72327 7.66986 7.63272 7.83242 7.63408 8.03979C7.63319 8.09647 7.63591 8.15314 7.64221 8.20948C7.66295 8.36046 7.74061 8.49779 7.85926 8.59332C7.99973 8.70789 8.16093 8.7943 8.33406 8.84786C8.59516 8.93492 8.86872 8.97871 9.14392 8.9775C9.19649 8.9775 9.24906 8.96969 9.30162 8.9663C9.7537 8.93508 10.1088 9.10545 10.3313 9.50219C10.4098 9.6426 10.4548 9.79933 10.4626 9.96008C10.4705 10.1208 10.4409 10.2812 10.3763 10.4286C10.3118 10.576 10.2139 10.7064 10.0904 10.8095C9.96697 10.9126 9.82129 10.9857 9.66484 11.023C9.56575 11.0456 9.46463 11.0583 9.36301 11.0606C9.11415 11.0731 8.86471 11.0663 8.6169 11.0403C8.31776 11.0064 8.02251 10.9441 7.73514 10.8543C7.70744 10.8415 7.67746 10.8343 7.64696 10.8332Z" fill="#0B58FF"/>
<path d="M6.40774 4.85992C5.6718 4.87315 4.99963 4.26057 5.00065 3.45182C4.99493 3.26318 5.02714 3.07531 5.09537 2.89936C5.16359 2.72342 5.26644 2.56298 5.39781 2.42757C5.52917 2.29216 5.68638 2.18454 5.86011 2.11109C6.03383 2.03764 6.22053 1.99986 6.40913 2C6.59772 2.00014 6.78436 2.03818 6.95798 2.11188C7.1316 2.18558 7.28865 2.29343 7.41983 2.42903C7.551 2.56463 7.65361 2.72522 7.72158 2.90126C7.78955 3.07731 7.82149 3.26522 7.81551 3.45386C7.81517 4.26159 7.14876 4.87383 6.40774 4.85992Z" fill="#00C1FF"/>
</svg>
