<svg width="29" height="18" viewBox="0 0 29 18" fill="none" xmlns="http://www.w3.org/2000/svg">
<path d="M6.29243 14.2979C7.78371 14.1753 9.06346 14.9288 9.09223 15.2676C9.11811 15.6069 7.9792 16.5589 6.48872 16.6816C4.99852 16.8037 3.7187 16.0508 3.68891 15.7119C3.6623 15.3729 4.80192 14.421 6.29243 14.2979ZM22.7075 14.2979C24.198 14.4209 25.3366 15.3729 25.31 15.7119C25.28 16.0509 24.0013 16.8038 22.5112 16.6816C21.0207 16.5589 19.8818 15.6069 19.9077 15.2676C19.9365 14.9288 21.2162 14.1752 22.7075 14.2979ZM23.059 1.30469C23.0163 2.11249 22.9369 2.90716 22.8266 3.68359H26.8706C26.5049 7.60951 23.5312 10.9935 20.103 11.9004C18.5407 14.5531 16.5354 16.2109 14.4995 16.2109C12.4637 16.2107 10.4589 14.5529 8.89692 11.9004C5.46876 10.9934 2.49502 7.60948 2.12934 3.68359H6.17329C6.06296 2.90717 5.98355 2.11249 5.94087 1.30469H23.059ZM1.01606 10.9092C1.15566 10.5989 2.61076 10.3097 3.97797 10.915C5.34626 11.5214 6.10934 12.7955 5.97212 13.1064C5.83232 13.4168 4.3766 13.7074 3.00922 13.1016C1.64179 12.4951 0.87918 11.2203 1.01606 10.9092ZM25.0219 10.915C26.3892 10.3097 27.8444 10.5989 27.9838 10.9092C28.1209 11.2202 27.3582 12.4951 25.9907 13.1016C24.6232 13.7074 23.1673 13.4168 23.0278 13.1064C22.8905 12.7956 23.6537 11.5214 25.0219 10.915ZM4.10102 5.2832C4.76753 7.22692 6.18023 8.83655 7.81879 9.74316C7.24847 8.39488 6.78154 6.89048 6.45161 5.2832H4.10102ZM22.5483 5.2832C22.2183 6.8906 21.7506 8.39481 21.1801 9.74316C22.819 8.83665 24.2323 7.22723 24.8989 5.2832H22.5483ZM0.321724 7.4082C0.456492 7.22467 1.45143 7.24356 2.2602 7.83691C3.06898 8.43093 3.38524 9.37501 3.25044 9.55859C3.1142 9.74166 2.11918 9.72231 1.31098 9.12891C0.503619 8.5354 0.187928 7.59295 0.321724 7.4082ZM26.7397 7.83691C27.5485 7.24356 28.5434 7.22467 28.6782 7.4082C28.812 7.59283 28.4963 8.53535 27.6889 9.12891C26.8807 9.72225 25.8855 9.7417 25.7495 9.55859C25.6147 9.37502 25.931 8.43093 26.7397 7.83691ZM0.316842 7.41406C0.318245 7.41206 0.31937 7.40926 0.320748 7.40723C0.322187 7.40527 0.325005 7.40326 0.326607 7.40137L0.316842 7.41406ZM28.6791 7.40723C28.6805 7.40928 28.6816 7.41205 28.6831 7.41406L28.6733 7.40137C28.6749 7.4033 28.6777 7.40523 28.6791 7.40723Z" fill="#DD9D65"/>
<path d="M14.4951 11.4619C12.9814 11.4619 11.9072 10.6416 11.8779 9.4502H13.1572C13.1963 10.0166 13.7627 10.3877 14.4951 10.3877C15.2764 10.3877 15.833 9.95801 15.833 9.33301C15.833 8.69824 15.2861 8.23926 14.3682 8.23926H13.7334V7.2627H14.3682C15.1201 7.2627 15.6475 6.84277 15.6377 6.22754C15.6475 5.63184 15.1982 5.23145 14.5049 5.23145C13.8408 5.23145 13.2646 5.60254 13.2451 6.19824H12.0244C12.0537 5.00684 13.1279 4.19629 14.5146 4.19629C15.9502 4.19629 16.8779 5.0752 16.8682 6.15918C16.8779 6.9502 16.3506 7.52637 15.5791 7.68262V7.74121C16.5752 7.87793 17.1416 8.5127 17.1318 9.40137C17.1416 10.5928 16.0283 11.4619 14.4951 11.4619Z" fill="white"/>
</svg>
