<svg width="29" height="18" viewBox="0 0 29 18" fill="none" xmlns="http://www.w3.org/2000/svg">
<path d="M6.29164 14.2979C7.78326 14.1751 9.06405 14.9289 9.09243 15.2676C9.11908 15.6066 7.9791 16.559 6.48793 16.6816C4.99678 16.8036 3.71699 16.0494 3.68911 15.7109C3.66333 15.3717 4.80198 14.4211 6.29164 14.2979ZM22.7077 14.2979C24.1976 14.421 25.336 15.3717 25.3102 15.7109C25.2822 16.0495 24.0027 16.8038 22.5114 16.6816C21.0204 16.5589 19.8813 15.6067 19.9079 15.2676C19.9364 14.9289 21.2163 14.1753 22.7077 14.2979ZM23.0592 1.30469C23.0165 2.11249 22.9371 2.90716 22.8268 3.68359H26.8707C26.5051 7.60951 23.5314 10.9935 20.1032 11.9004C18.5409 14.5531 16.5355 16.2109 14.4997 16.2109C12.464 16.2106 10.4591 14.5528 8.89711 11.9004C5.46899 10.9934 2.49521 7.60945 2.12953 3.68359H6.17348C6.06316 2.90717 5.98375 2.11248 5.94106 1.30469H23.0592ZM1.01625 10.9092C1.15587 10.5989 2.61105 10.3089 3.97817 10.9141C5.34647 11.5204 6.10952 12.7955 5.97231 13.1064C5.83301 13.4168 4.37709 13.7066 3.00942 13.1006C1.64187 12.494 0.878989 11.22 1.01625 10.9092ZM25.0211 10.9141C26.3881 10.3088 27.843 10.599 27.9831 10.9092C28.1206 11.2197 27.3585 12.4938 25.9909 13.1006C24.6231 13.7065 23.1671 13.4168 23.028 13.1064C22.8905 12.7957 23.6529 11.5205 25.0211 10.9141ZM4.10121 5.2832C4.76771 7.22689 6.18045 8.83655 7.81899 9.74316C7.24867 8.39489 6.78173 6.89047 6.4518 5.2832H4.10121ZM22.5485 5.2832C22.2185 6.8906 21.7508 8.39481 21.1803 9.74316C22.8192 8.83665 24.2324 7.22722 24.8991 5.2832H22.5485ZM0.321918 7.40723C0.458207 7.22428 1.45244 7.24427 2.26039 7.83691C3.06902 8.43093 3.38541 9.375 3.25063 9.55859C3.11487 9.74184 2.11962 9.72251 1.31118 9.12891C0.503388 8.5351 0.187595 7.5913 0.321918 7.40723ZM26.7399 7.83691C27.5443 7.24682 28.5323 7.2249 28.6754 7.40527L28.6735 7.40137C28.675 7.40327 28.6769 7.40529 28.6784 7.40723C28.6798 7.40923 28.6809 7.412 28.6823 7.41406L28.6793 7.41016C28.8099 7.59913 28.4931 8.5373 27.6881 9.12891C26.8795 9.72246 25.8839 9.74201 25.7487 9.55859C25.6143 9.37448 25.9314 8.43069 26.7399 7.83691ZM0.317035 7.41406C0.318442 7.41203 0.319527 7.40927 0.320941 7.40723C0.322377 7.4053 0.324303 7.40324 0.325824 7.40137L0.317035 7.41406Z" fill="#FFC70F"/>
<path d="M15.6621 4.29395V11.3643H14.3828V5.53418H14.3438L12.6934 6.58887V5.42676L14.4414 4.29395H15.6621Z" fill="white"/>
</svg>
