<svg width="44" height="44" viewBox="0 0 44 44" fill="none" xmlns="http://www.w3.org/2000/svg">
<rect width="44" height="44" fill="white"/>
<path d="M22.0012 21.4488C25.5001 21.4488 28.3365 18.6124 28.3365 15.1135C28.3365 11.6147 25.5001 8.77832 22.0012 8.77832C18.5024 8.77832 15.666 11.6147 15.666 15.1135C15.666 18.6124 18.5024 21.4488 22.0012 21.4488Z" fill="#3180F3"/>
<path d="M22.0001 23.3867C13.4853 23.3867 10.1738 29.1929 10.1738 31.893C10.1738 34.5932 17.2239 35.3123 22.0001 35.3123C26.7764 35.3123 33.8265 34.5932 33.8265 31.893C33.8265 29.1929 30.515 23.3867 22.0001 23.3867Z" fill="#3180F3"/>
<rect x="26.0879" y="4.59473" width="11.4766" height="11.4766" rx="5.73828" fill="#D2E8FF"/>
<path d="M34.1475 9.53027C34.5893 9.53027 34.9473 9.88825 34.9473 10.3301C34.9473 10.7719 34.5893 11.1299 34.1475 11.1299H29.5088C29.067 11.1299 28.709 10.7719 28.709 10.3301C28.709 9.88825 29.067 9.53027 29.5088 9.53027H34.1475Z" fill="#3180F3"/>
<path d="M32.6309 12.6523C32.6309 13.0942 32.2729 13.4521 31.8311 13.4521C31.3892 13.4521 31.0312 13.0942 31.0312 12.6523L31.0312 8.01367C31.0312 7.57184 31.3892 7.21387 31.8311 7.21387C32.2729 7.21387 32.6309 7.57184 32.6309 8.01367L32.6309 12.6523Z" fill="#3180F3"/>
</svg>
