<svg width="44" height="44" viewBox="0 0 44 44" fill="none" xmlns="http://www.w3.org/2000/svg">
<rect width="44" height="44" fill="white"/>
<g clip-path="url(#clip0_3371_20114)">
<path d="M15.8059 28.4158C21.5102 34.3238 25.8369 35.6687 29.2837 34.819C31.1975 34.347 32.9034 32.7324 34.043 31.389C34.9068 30.3696 34.7437 28.8022 33.7077 27.9721L29.1507 24.3195C28.6957 23.9548 28.0496 23.9969 27.6422 24.4188L25.2223 26.9252C24.8485 27.3123 24.2724 27.3892 23.8223 27.1028C23.0446 26.6083 21.7398 25.6499 20.1088 23.9599C18.4778 22.2707 17.5524 20.9193 17.0743 20.1138C16.7978 19.6476 16.872 19.0509 17.2458 18.6638L19.6657 16.1575C20.0724 15.7362 20.1137 15.0671 19.7616 14.5951L16.235 9.87533C15.4335 8.80233 13.9194 8.6334 12.9359 9.52805C11.6388 10.7076 10.0799 12.4745 9.62419 14.4573C8.80379 18.028 10.1023 22.5085 15.8066 28.4165L15.8059 28.4158Z" fill="#3180F3"/>
</g>
<defs>
<clipPath id="clip0_3371_20114">
<rect width="28" height="29" fill="white" transform="translate(8 7.5)"/>
</clipPath>
</defs>
</svg>
