<svg width="44" height="44" viewBox="0 0 44 44" fill="none" xmlns="http://www.w3.org/2000/svg">
<path d="M20.8245 8.18525C21.1942 7.04742 22.8039 7.04742 23.1736 8.18525L25.7821 16.2133C25.9474 16.7222 26.4216 17.0667 26.9566 17.0667H35.3979C36.5943 17.0667 37.0917 18.5977 36.1238 19.3009L29.2947 24.2625C28.8618 24.577 28.6807 25.1344 28.846 25.6433L31.4545 33.6714C31.8242 34.8092 30.5219 35.7554 29.554 35.0522L22.7249 30.0905C22.2921 29.776 21.706 29.776 21.2731 30.0905L14.444 35.0522C13.4761 35.7554 12.1738 34.8092 12.5435 33.6714L15.152 25.6433C15.3173 25.1344 15.1362 24.577 14.7034 24.2625L7.87426 19.3009C6.90636 18.5977 7.40379 17.0667 8.60018 17.0667H17.0414C17.5764 17.0667 18.0506 16.7222 18.216 16.2133L20.8245 8.18525Z" fill="#FFDC6D"/>
</svg>
