<svg width="370" height="83" viewBox="0 0 370 83" fill="none" xmlns="http://www.w3.org/2000/svg" xmlns:xlink="http://www.w3.org/1999/xlink">
<g filter="url(#filter0_d_3253_40508)">
<rect x="9.14453" y="9.14258" width="351" height="64" rx="16" fill="url(#paint0_radial_3253_40508)" shape-rendering="crispEdges"/>
<rect x="9.64453" y="9.64258" width="350" height="63" rx="15.5" stroke="white" shape-rendering="crispEdges"/>
<rect x="70.6016" y="10.3438" width="100.086" height="61.5977" fill="url(#pattern0_3253_40508)"/>
<path d="M194.187 33.2637V39.2051H196.542V41.0332H194.187V49.2949H191.937V33.2637H194.187ZM189.704 34.7402V36.5508H184.431V43.5645C186.751 43.5381 188.667 43.4326 190.794 43.0547L191.04 44.9355C188.562 45.3574 186.382 45.4277 183.552 45.4102H182.198V34.7402H189.704ZM205.612 34.5117C205.612 36.3926 207.528 38.4844 211.202 38.9414L210.323 40.752C207.528 40.3477 205.48 39.0557 204.435 37.3242C203.38 39.0557 201.35 40.3477 198.581 40.752L197.685 38.9414C201.323 38.4844 203.257 36.3926 203.257 34.5117V33.7383H205.612V34.5117ZM211.712 41.9648V43.793H205.489V49.2598H203.274V43.793H197.122V41.9648H211.712ZM230.31 33.2812V44.9531H228.077V39.2227H225.458V37.4121H228.077V33.2812H230.31ZM230.696 47.1855V48.9785H219.692V43.9336H221.942V47.1855H230.696ZM222.874 36.4102C222.874 38.2559 223.999 40.2422 226.548 41.0684L225.44 42.8438C223.665 42.2725 222.452 41.1035 221.749 39.6445C221.046 41.2617 219.771 42.5449 217.882 43.1777L216.739 41.3496C219.376 40.5234 220.571 38.4316 220.589 36.3926V36.1465H217.372V34.3535H226.056V36.1465H222.874V36.4102ZM247.009 41.1738V42.9492H240.979V45.709H238.765V42.9492H232.366V41.1738H247.009ZM245.128 33.9668V39.8555H234.194V33.9668H245.128ZM236.392 35.707V38.1152H242.931V35.707H236.392ZM245.392 47.1855V48.9785H234.089V44.3203H236.321V47.1855H245.392ZM260.562 33.2637V39.3984H262.829V41.2441H260.562V49.2246H258.312V33.2637H260.562ZM256.29 34.8984C256.272 39.6797 254.409 43.8281 249.03 46.4648L247.765 44.7422C251.553 42.8438 253.583 40.2949 254.005 36.7266H248.679V34.8984H256.29ZM281.515 33.2637V49.2598H279.37V41.1914H277.929V48.5215H275.802V33.4922H277.929V39.3633H279.37V33.2637H281.515ZM274.466 34.916V45.2344H268.103V34.916H274.466ZM270.194 36.6914V43.4766H272.374V36.6914H270.194ZM292.694 34.9336V36.709H289.425C289.478 38.335 290.708 39.9961 293.274 40.6641L292.237 42.3867C290.392 41.9121 289.091 40.8838 288.353 39.5566C287.632 41.0332 286.322 42.2021 284.415 42.7383L283.343 40.998C285.892 40.2949 287.096 38.4932 287.157 36.709H283.888V34.9336H287.157V33.2812H289.442V34.9336H292.694ZM296.597 33.2812V42.9316H294.347V33.2812H296.597ZM291.147 43.1777C294.54 43.1777 296.632 44.3027 296.649 46.2188C296.632 48.1523 294.54 49.2598 291.147 49.2598C287.737 49.2598 285.646 48.1523 285.646 46.2188C285.646 44.3027 287.737 43.1777 291.147 43.1777ZM291.147 44.918C289.003 44.918 287.896 45.3574 287.896 46.2188C287.896 47.0977 289.003 47.5547 291.147 47.5547C293.292 47.5547 294.435 47.0977 294.435 46.2188C294.435 45.3574 293.292 44.918 291.147 44.918Z" fill="white"/>
</g>
<defs>
<filter id="filter0_d_3253_40508" x="0.00158119" y="-0.000371933" width="369.286" height="82.2859" filterUnits="userSpaceOnUse" color-interpolation-filters="sRGB">
<feFlood flood-opacity="0" result="BackgroundImageFix"/>
<feColorMatrix in="SourceAlpha" type="matrix" values="0 0 0 0 0 0 0 0 0 0 0 0 0 0 0 0 0 0 127 0" result="hardAlpha"/>
<feOffset/>
<feGaussianBlur stdDeviation="4.57148"/>
<feComposite in2="hardAlpha" operator="out"/>
<feColorMatrix type="matrix" values="0 0 0 0 0 0 0 0 0 0 0 0 0 0 0 0 0 0 0.12 0"/>
<feBlend mode="normal" in2="BackgroundImageFix" result="effect1_dropShadow_3253_40508"/>
<feBlend mode="normal" in="SourceGraphic" in2="effect1_dropShadow_3253_40508" result="shape"/>
</filter>
<pattern id="pattern0_3253_40508" patternContentUnits="objectBoundingBox" width="1" height="1">
<use xlink:href="#image0_3253_40508" transform="matrix(0.000976562 0 0 0.00158675 0 -0.312417)"/>
</pattern>
<radialGradient id="paint0_radial_3253_40508" cx="0" cy="0" r="1" gradientUnits="userSpaceOnUse" gradientTransform="translate(184.645 41.1426) scale(175.5 86.2494)">
<stop stop-color="#1180FF"/>
<stop offset="1" stop-color="#6AB0FF"/>
</radialGradient>
</defs>
</svg>
