<svg width="671" height="257" viewBox="0 0 671 257" fill="none" xmlns="http://www.w3.org/2000/svg">
<path d="M349.014 0.973669C326.52 4.05714 281.8 11.5191 263.066 15.3426C229.963 22.0029 188.063 31.7467 164.226 38.3453C162.077 38.962 160.868 39.0237 160.398 38.592C159.928 38.1603 159.593 38.2837 159.257 38.962C159.055 39.5171 158.518 40.0104 158.048 40.0104C157.645 40.0104 150.998 41.7988 143.209 44.0189C135.487 46.1774 128.369 48.0891 127.429 48.1508C126.489 48.2741 125.482 48.5825 125.213 48.9525C124.408 49.8159 124.542 49.4458 130.384 36.1869C138.643 17.1311 139.516 13.7392 136.024 14.2326C134.144 14.4793 130.652 20.5845 118.297 45.499C116.686 48.7058 115.208 51.4809 114.873 51.7276C114.604 51.9743 109.501 53.6394 103.592 55.4278C93.8556 58.3879 88.1481 60.2997 63.6394 68.6867C47.3227 74.2986 32.2146 80.8972 18.8524 88.2976C8.57886 94.0328 3.94571 97.6097 1.66271 101.68C-3.84335 111.424 3.87856 121.291 31.5432 140.162L38.7279 145.033L33.3561 147.069C30.4017 148.179 26.1042 150.029 23.8212 151.2C18.7181 153.729 18.248 155.147 21.6054 157.491C24.3584 159.402 24.157 159.464 34.4305 155.209C38.5264 153.482 42.9582 151.755 44.3682 151.262L46.987 150.399L52.4259 154.407C55.4475 156.627 58.8049 159.094 59.8792 159.896L61.8265 161.376L54.7089 177.965C44.7711 201.091 41.8167 209.725 38.795 224.402C35.5048 240.004 38.795 248.206 48.5985 248.946C51.8887 249.193 52.8959 248.946 57.4619 246.85C64.9824 243.335 73.9129 235.071 80.1576 225.635C88.081 213.672 90.4983 207.196 90.4983 197.884C90.4983 190.854 89.021 185.859 84.8579 179.26C81.9034 174.45 74.0472 165.323 71.5628 163.719C70.2199 162.794 70.2199 162.671 73.9129 154.284C79.9562 140.408 80.2919 139.915 82.8435 138.928C84.1193 138.435 85.1265 137.818 85.1265 137.51C85.1265 137.201 85.6637 136.831 86.3352 136.646C86.9395 136.461 94.93 133.995 104.062 131.096C113.194 128.198 126.959 124.128 134.614 122.092C142.269 119.996 149.521 118.022 150.595 117.714C152.341 117.221 174.566 112.287 192.629 108.402C195.852 107.723 198.874 107.23 199.344 107.292C199.881 107.353 201.022 107.292 201.962 107.045C202.902 106.86 207.267 106.12 211.699 105.38C225.262 103.098 249.838 98.5964 252.188 97.918C254.874 97.1163 255.143 95.0812 252.591 94.5262C245.205 92.7994 196.523 99.8914 162.681 107.6C153.146 109.759 152.005 110.005 133.405 114.877C123.065 117.591 99.0259 124.621 91.9755 126.964C89.9611 127.643 88.2824 128.198 88.2153 128.198C87.3424 128.198 88.6853 123.264 90.6326 119.256C91.9755 116.542 94.1242 112.102 95.4 109.389C96.6758 106.675 98.4888 102.913 99.4288 101.063C100.369 99.2131 103.525 92.5528 106.479 86.2625C115.343 67.4533 119.774 59.0046 121.117 58.3262C123.266 57.2162 139.046 53.0227 139.717 53.3927C140.053 53.5777 140.523 53.4544 140.791 53.146C141.53 52.036 161.741 46.424 182.154 41.5522C185.511 40.7505 190.01 39.6404 192.159 39.0854C194.375 38.5304 196.591 38.2837 197.061 38.4687C197.598 38.592 197.866 38.5304 197.665 38.222C197.464 37.9137 198.269 37.5436 199.478 37.297C200.619 37.112 203.171 36.5569 204.984 36.0636C206.864 35.5702 210.154 34.7068 212.37 34.1518C214.586 33.6585 220.159 32.2401 224.792 31.0684C229.426 29.8966 236.543 28.3549 240.572 27.6149C247.488 26.3815 250.51 25.8264 256.352 24.5931C262.865 23.2363 272.333 21.3863 273.877 21.2012C274.884 21.0779 280.927 20.0295 287.306 18.7961C298.923 16.6994 322.76 12.5675 329.206 11.6425C331.086 11.3341 335.786 10.6558 339.748 10.1624C343.71 9.60739 349.149 8.62068 351.835 7.94231C354.521 7.26395 357.811 6.70893 359.087 6.70893C362.175 6.70893 365.868 5.72222 366.607 4.7355C367.547 3.31711 367.144 1.22035 365.868 0.541983C364.123 -0.321389 356.804 -0.13638 349.014 0.973669ZM109.299 62.4581C109.299 62.9514 108.292 65.3566 107.016 67.8233C102.316 77.0737 88.1481 106.058 82.3063 118.331C79.0161 125.299 75.9274 131.281 75.5245 131.713C75.0544 132.145 69.8841 134.118 63.9752 136.091C58.0662 138.126 51.2172 140.47 48.7328 141.333L44.2339 142.937L34.0947 136.03C28.5215 132.206 22.814 128.383 21.4711 127.396C16.9051 124.313 11.0633 118.639 9.85465 116.172C9.18318 114.815 8.646 112.719 8.646 111.547C8.71315 109.512 8.7803 109.512 9.31747 110.93C9.7875 112.287 9.85465 112.164 9.65321 110.314C9.25033 106.552 12.2719 102.667 19.6581 97.548C22.0083 95.9446 37.7878 87.4959 38.5264 87.4959C38.6607 87.4959 40.9437 86.5092 43.6296 85.2758C53.9703 80.5889 63.1023 77.0737 64.1095 77.4438C64.7809 77.6904 65.0495 77.5671 64.7809 77.1971C64.3109 76.5187 71.4285 73.7436 72.3686 74.2369C72.7043 74.422 73.1743 74.2369 73.3758 73.8669C73.6444 73.5586 74.3158 73.3736 74.853 73.5586C75.3902 73.7436 75.6588 73.6819 75.4573 73.4352C75.1887 72.9419 80.7619 70.9685 102.92 63.5065C109.299 61.348 109.299 61.348 109.299 62.4581ZM67.2654 149.289C65.3181 153.482 63.5723 156.874 63.3709 156.874C62.8337 156.874 52.2916 148.919 52.2916 148.487C52.2244 148.117 68.9441 142.012 70.4213 141.827C70.6899 141.765 69.2798 145.157 67.2654 149.289ZM72.5029 170.256C84.1193 182.837 87.3424 193.012 83.7164 205.655C79.6876 219.777 66.3925 236.181 54.776 241.299C48.7328 243.951 47.0541 244.075 46.1812 241.916C43.6296 235.749 47.927 216.817 56.7904 195.109C59.0734 189.559 64.1095 177.533 66.7282 171.181C67.6683 168.9 68.6755 167.049 69.0112 167.049C69.2798 167.049 70.8913 168.53 72.5029 170.256Z" fill="black"/>
<path d="M654.803 21.2017C645.872 25.3335 630.16 39.2708 615.924 55.7366C610.956 61.4718 610.351 62.2735 600.816 74.8541C584.097 97.1167 572.749 119.811 570.533 135.598L569.794 141.025L563.281 144.109C554.418 148.364 545.42 150.337 542.466 148.611C540.988 147.747 540.787 142.752 542.063 138.497C543.943 132.33 546.964 127.15 552.941 119.749C559.051 112.164 560.058 110.499 559.118 108.896C558.178 107.354 554.552 105.812 552.873 106.244C550.658 106.737 547.434 110.006 544.816 114.261C542.331 118.331 536.154 124.19 523.262 134.673C516.01 140.594 507.683 146.452 507.146 146.021C506.743 145.589 510.638 137.634 513.458 133.255C514.868 130.973 517.688 127.15 519.568 124.806C521.516 122.401 523.53 119.626 524.134 118.516C525.075 116.728 525.075 116.419 524 114.939C522.657 113.089 519.971 111.979 518.158 112.472C517.42 112.719 515.674 114.199 514.197 115.803C511.511 118.763 508.556 120.613 488.009 132.207C481.563 135.845 474.714 139.792 472.767 140.902C470.887 142.074 468.805 143.184 468.134 143.43C466.724 143.924 466.455 144.417 473.237 134.982C476.057 131.097 480.287 125.053 482.705 121.538C489.554 111.486 496.134 102.112 497.679 100.385C498.484 99.5218 499.693 98.0418 500.432 97.1167C501.17 96.1917 504.662 91.9365 508.221 87.6813C511.779 83.4261 516.211 77.9992 517.957 75.5941C519.77 73.1273 522.657 69.3655 524.336 67.1454C526.082 64.9253 527.693 62.5819 527.895 61.8418C528.969 58.635 522.389 55.2432 519.568 57.5866C518.427 58.5117 517.957 58.5733 516.211 57.895C511.847 56.2299 494.388 57.9567 463.165 63.1986C454.167 64.6786 446.378 65.7887 445.908 65.6653C445.505 65.4803 445.035 65.6037 444.901 65.912C444.565 66.7754 438.321 67.3921 438.321 66.5904C438.321 65.6037 450.743 51.9747 453.16 50.3713C455.51 48.7679 455.644 46.8562 453.63 45.1294C448.728 41.1209 445.975 42.971 431.942 59.7451C422.608 70.9072 423.347 70.4139 412.469 72.3256C384.737 77.2592 352.037 84.4128 334.578 89.2847C327.998 91.1348 325.446 92.1215 324.372 93.3549C322.358 95.4517 322.425 95.76 325.178 97.7334L327.528 99.3368L337.398 96.5617C350.089 92.9232 355.528 91.5665 361.773 90.2714C364.526 89.6547 370.435 88.4214 374.867 87.4346C379.298 86.4479 389.572 84.4128 397.697 82.8711C405.821 81.391 413.208 79.911 414.08 79.726C415.692 79.2943 415.692 79.2943 413.678 82.0077C400.987 99.0902 395.279 107.786 382.924 128.506C381.044 131.652 379.298 133.255 371.711 138.744C353.648 151.941 340.622 160.39 335.183 162.486C332.094 163.658 331.557 163.103 331.557 158.663V155.579L335.787 152.866C350.492 143.369 360.363 134.118 364.862 125.423C368.488 118.578 367.816 114.138 362.713 111.054C359.826 109.327 357.61 109.327 353.379 111.177C340.353 116.789 326.521 133.933 323.365 148.364L322.626 151.756L314.166 156.813C293.686 169.147 280.592 174.82 271.191 175.56C266.223 175.93 265.081 175.129 265.081 171.49C265.081 169.27 266.625 163.041 267.901 160.02C268.64 158.354 268.707 158.293 269.177 159.588C270.05 161.623 272.333 161.191 277.839 158.046C284.218 154.469 290.194 150.029 296.909 143.924C304.631 136.894 307.652 130.357 305.101 125.855C301.945 120.304 295.163 119.009 287.642 122.463C280.256 125.855 268.438 139.114 262.194 151.016C258.501 157.984 257.023 162.856 257.023 168.037C257.023 174.204 258.971 177.164 264.88 180.432C271.863 184.194 285.091 181.172 300.669 172.292C301.945 171.552 303.489 170.812 304.026 170.565C304.564 170.318 308.995 167.852 313.83 164.953L322.693 159.773L323.096 161.5C323.566 163.781 327.259 167.667 330.012 168.653C334.914 170.565 339.883 169.208 349.216 163.473C354.32 160.266 365.735 151.818 372.919 145.836L377.082 142.382L376.411 145.219C375.538 148.796 376.209 153.914 377.888 156.381C379.634 159.033 384.67 161.685 387.96 161.685C392.929 161.685 401.39 155.826 417.975 140.902L428.92 131.097L427.241 135.537C424.018 144.232 424.354 148.117 428.651 151.633C431.74 154.099 434.493 154.099 438.388 151.571C440.671 150.029 450.877 141.95 453.093 139.915C453.294 139.73 456.249 137.264 459.673 134.427L465.918 129.308L463.769 132.577C462.561 134.427 460.479 137.572 459.136 139.607C457.726 141.642 455.712 144.849 454.637 146.699C453.496 148.549 451.481 152.003 450.071 154.408C448.661 156.751 445.505 161.931 443.155 165.816C440.738 169.702 437.582 175.005 436.105 177.534C434.627 180.062 431.874 184.811 429.927 188.017C423.951 198.131 412.737 219.469 409.716 226.684C405.821 235.811 404.478 240.498 404.478 245.432C404.411 248.947 404.68 249.749 406.359 251.784C409.044 255.052 413.409 256.717 416.968 255.792C422.205 254.497 434.09 242.78 444.229 228.904C457.525 210.774 468 188.511 470.954 172.107C472.028 165.94 471.961 157.614 470.82 152.434C470.417 150.584 470.551 150.399 477.333 146.206C481.16 143.801 486.465 140.532 489.017 138.867C491.635 137.202 496.201 134.242 499.29 132.268L504.863 128.691L503.789 131.097C498.484 142.444 498.216 146.761 502.647 150.522C506.945 154.223 510.369 153.606 518.091 147.686C521.314 145.219 526.283 140.902 529.238 138.127C532.125 135.413 534.274 133.625 534.005 134.242C533.736 134.797 533.401 137.387 533.199 139.977C532.729 145.527 533.602 148.364 536.557 151.448C542.6 157.799 553.075 157.553 566.974 150.769L571.205 148.734L572.547 152.928C575.569 161.87 582.418 168.283 592.557 171.428C599.272 173.587 610.62 173.463 620.02 171.182C632.04 168.283 646.208 161.87 656.683 154.531C661.383 151.263 662.726 149.227 661.249 147.624C659.973 146.206 658.63 146.514 654.198 148.919C645.872 153.544 631.771 159.711 623.848 162.116C610.956 166.063 599.406 166.742 592.356 163.966C585.708 161.315 580.807 154.593 580.202 147.069L579.867 143.307L584.5 140.1C586.984 138.312 589.804 136.277 590.744 135.475C591.684 134.673 594.437 132.392 596.788 130.418C608.203 120.921 625.862 102.235 637.814 87.0646C646.544 76.0258 657.153 61.5335 660.376 56.3532C666.553 46.4861 670.649 35.4473 670.649 29.0337C670.582 23.7918 666.285 19.0432 661.517 19.0432C660.376 19.0432 657.354 20.03 654.803 21.2017ZM664.808 28.2937C665.345 30.2671 662.995 39.8875 660.644 45.0061C659.503 47.5962 657.018 52.0981 655.206 55.0582C653.325 57.9567 651.445 60.9785 650.975 61.7185C650.572 62.5202 648.827 64.802 647.148 66.9604C645.469 69.0572 641.44 74.2991 638.083 78.6159C632.98 85.2762 624.251 95.6983 623.042 96.7467C622.841 96.9317 620.558 99.2752 618.006 101.989C611.291 109.142 600.615 118.948 599.675 118.948C599.205 118.948 598.802 119.318 598.802 119.811C598.802 120.304 597.325 121.723 595.445 123.018C593.632 124.251 592.289 125.546 592.49 125.855C592.692 126.101 592.356 126.348 591.752 126.348C591.214 126.348 590.207 126.903 589.536 127.643C587.588 129.802 580.672 134.488 580.672 133.625C580.672 132.145 583.157 124.93 586.044 118.023C589.804 108.957 599.473 92.1215 606.188 82.8711C607.195 81.5144 609.478 78.3076 611.291 75.8408C613.104 73.3123 615.79 70.1055 617.2 68.8105C618.678 67.4537 619.483 66.5287 619.08 66.7754C618.61 67.0221 618.275 66.9604 618.275 66.5904C618.275 66.282 618.543 65.8503 618.879 65.6037C619.282 65.4187 621.565 62.8285 624.049 59.8684C628.212 54.8732 630.428 52.4681 638.352 44.1427C643.522 38.6541 653.795 30.2671 657.421 28.6637C661.652 26.6903 664.338 26.5669 664.808 28.2937ZM514.868 62.4585C514.868 62.5819 513.257 64.617 511.309 66.8987C506.072 73.2507 497.074 84.9062 490.225 94.2799C480.892 107.169 473.774 115.063 466.858 120.119C463.501 122.586 457.995 127.026 454.503 129.925C451.011 132.885 447.52 135.66 446.781 136.153C445.975 136.647 445.237 137.264 445.035 137.449C444.297 138.435 434.023 144.787 433.687 144.479C433.217 144.047 441.812 128.506 445.908 122.525C447.99 119.564 451.616 114.693 454.033 111.794C458.397 106.49 458.397 106.429 457.39 104.64C456.786 103.592 455.309 102.42 453.899 101.865C450.407 100.509 449.064 101.372 443.759 108.587C440.671 112.781 437.85 115.679 434.292 118.393C431.539 120.489 426.57 124.621 423.212 127.52C405.956 142.814 389.572 154.716 385.744 154.716C384.536 154.716 384.469 154.408 384.804 150.831C385.409 145.342 387.423 140.347 393.936 128.506C401.994 113.891 415.155 94.2799 425.965 80.5893L428.248 77.7525L439.865 75.2241C446.177 73.8674 457.927 71.5856 465.851 70.2289C473.774 68.8721 482.57 67.3304 485.323 66.8371C488.076 66.3437 494.724 65.357 500.096 64.6786C508.019 63.6302 513.525 62.7052 514.734 62.2735C514.801 62.2118 514.868 62.3352 514.868 62.4585ZM358.818 118.578C360.228 122.031 349.955 133.07 335.988 142.999C334.511 144.047 337.667 138.004 341.36 132.7C345.255 127.15 355.662 117.714 357.945 117.714C358.214 117.714 358.617 118.084 358.818 118.578ZM296.304 127.52C296.103 127.828 296.237 128.26 296.64 128.506C297.043 128.753 297.177 129.185 296.976 129.493C296.707 129.802 296.842 130.048 297.245 130.048C297.58 130.048 298.05 129.432 298.185 128.63C298.319 127.89 298.386 128.136 298.252 129.247C298.185 130.357 297.177 132.453 296.103 133.872C293.149 137.757 283.076 146.452 276.227 150.892L270.251 154.778L271.863 152.434C275.153 147.377 278.578 142.999 279.182 142.999C279.585 142.999 279.853 142.629 279.853 142.135C279.853 140.779 284.822 135.783 285.83 136.092C286.3 136.215 286.568 135.968 286.434 135.537C286.165 134.427 289.254 131.22 290.127 131.713C290.53 131.898 290.597 131.775 290.396 131.467C290.127 131.097 290.731 130.295 291.671 129.74C292.679 129.185 293.216 129 293.014 129.37C292.746 129.74 292.813 130.048 293.149 130.048C293.954 130.048 295.633 128.198 294.894 128.198C294.559 128.198 294.76 127.89 295.297 127.581C296.573 126.841 296.842 126.841 296.304 127.52ZM464.508 152.681C465.717 155.086 466.119 164.645 465.246 170.133C463.702 179.384 458.8 192.334 452.489 203.928C441.879 223.292 424.22 244.26 414.685 248.824L412.805 249.749V246.973C412.805 242.78 415.558 234.948 421.601 222.182C424.623 215.769 427.308 210.218 427.577 209.91C427.846 209.54 430.733 204.545 433.956 198.81C439.663 188.696 441.745 185.181 450.206 171.367C458.935 157.121 462.829 151.016 463.232 151.016C463.434 151.016 464.038 151.756 464.508 152.681Z" fill="black"/>
<path d="M453.83 91.8757C452.487 92.3691 452.286 92.7391 452.689 94.4658C453.629 98.906 461.015 101.188 463.97 97.9193C465.044 96.7476 465.044 96.5009 464.171 94.8359C462.425 91.7524 457.792 90.3957 453.83 91.8757Z" fill="black"/>
<path d="M357.474 119.256C357.742 119.749 358.011 120.181 358.145 120.181C358.279 120.181 358.414 119.749 358.414 119.256C358.414 118.762 358.145 118.331 357.742 118.331C357.406 118.331 357.272 118.762 357.474 119.256Z" fill="black"/>
<path d="M226.739 119.379C226.202 119.996 224.456 122.524 222.912 124.929C217.607 133.193 188.398 161.253 160.733 184.564C156.772 187.955 153.011 191.347 152.474 192.149C151.534 193.444 151.534 193.691 152.609 194.801C153.347 195.541 154.69 196.034 156.1 196.034C158.115 196.034 159.86 194.677 173.29 182.837C181.482 175.622 192.695 165.199 198.269 159.711C203.775 154.284 208.341 149.782 208.408 149.782C208.475 149.782 207.938 150.892 207.132 152.187C206.326 153.544 205.386 154.469 205.05 154.284C204.715 154.037 204.648 154.222 204.916 154.592C205.319 155.209 202.096 161.006 193.703 174.758C191.688 178.15 189.808 181.604 189.539 182.467C189.002 184.625 190.144 187.092 192.225 188.387C194.71 189.867 196.657 188.881 199.343 184.625C208.542 170.318 217.473 160.574 229.022 152.064C240.571 143.553 257.761 133.686 265.013 131.405C267.497 130.603 268.303 129.185 267.027 127.828C265.214 125.793 257.895 127.704 245.943 133.255C239.43 136.276 226.739 143.8 222.71 147.069C217.137 151.509 217.07 151.571 218.883 148.857C219.756 147.5 220.696 145.897 220.964 145.28C221.233 144.602 221.77 144.355 222.173 144.602C222.71 144.849 222.777 144.787 222.509 144.355C222.106 143.739 226.739 135.783 231.909 128.321C234.864 124.066 235.334 122.093 233.722 120.304C232.044 118.392 228.149 117.837 226.739 119.379Z" fill="black"/>
</svg>
