<svg width="30" height="30" viewBox="0 0 30 30" fill="none" xmlns="http://www.w3.org/2000/svg">
<path fill-rule="evenodd" clip-rule="evenodd" d="M17.7915 5.69482H19.6525C21.407 5.69482 22.2843 5.69482 22.8294 6.2399C23.3745 6.78497 23.3745 7.66226 23.3745 9.41683V23.607H24.305C24.6904 23.607 25.0028 23.9194 25.0028 24.3048C25.0028 24.6903 24.6904 25.0027 24.305 25.0027H5.69495C5.30952 25.0027 4.99707 24.6903 4.99707 24.3048C4.99707 23.9194 5.30952 23.607 5.69495 23.607H6.62545V12.2083C6.62545 10.4538 6.62545 9.57648 7.17052 9.0314C7.7156 8.48633 8.59288 8.48633 10.3475 8.48633H14.0695C15.824 8.48633 16.7013 8.48633 17.2464 9.0314C17.7915 9.57648 17.7915 10.4538 17.7915 12.2083V23.607H19.1872V12.2083L19.1872 12.1251C19.1873 11.3196 19.1874 10.5811 19.1066 9.98033C19.0177 9.31878 18.8084 8.61955 18.2333 8.04446C17.6582 7.46936 16.959 7.2601 16.2975 7.17116C15.7052 7.09152 14.979 7.09049 14.1867 7.09057C14.2651 6.73024 14.3961 6.45838 14.6145 6.2399C15.1596 5.69482 16.0369 5.69482 17.7915 5.69482ZM8.71908 11.2778C8.71908 10.8924 9.03153 10.58 9.41695 10.58H15C15.3854 10.58 15.6978 10.8924 15.6978 11.2778C15.6978 11.6633 15.3854 11.9757 15 11.9757H9.41695C9.03153 11.9757 8.71908 11.6633 8.71908 11.2778ZM8.71908 14.0693C8.71908 13.6839 9.03153 13.3715 9.41695 13.3715H15C15.3854 13.3715 15.6978 13.6839 15.6978 14.0693C15.6978 14.4548 15.3854 14.7672 15 14.7672H9.41695C9.03153 14.7672 8.71908 14.4548 8.71908 14.0693ZM8.71908 16.8608C8.71908 16.4754 9.03153 16.163 9.41695 16.163H15C15.3854 16.163 15.6978 16.4754 15.6978 16.8608C15.6978 17.2463 15.3854 17.5587 15 17.5587H9.41695C9.03153 17.5587 8.71908 17.2463 8.71908 16.8608ZM12.2085 20.8155C12.5939 20.8155 12.9063 21.1279 12.9063 21.5133V23.607H11.5106V21.5133C11.5106 21.1279 11.823 20.8155 12.2085 20.8155Z" fill="#2B313D"/>
</svg>
