<svg width="178" height="178" viewBox="0 0 178 178" fill="none" xmlns="http://www.w3.org/2000/svg">
<g clip-path="url(#clip0_3392_19651)">
<rect width="178" height="178" fill="#EDEDED"/>
<path d="M88.9917 101.799C71.3564 102.12 55.2489 87.2505 55.2733 67.6196C55.1364 63.0407 55.9082 58.4805 57.5431 54.2097C59.178 49.939 61.6425 46.0447 64.7905 42.7578C67.9385 39.471 71.7058 36.8587 75.8688 35.0759C80.0318 33.293 84.5057 32.3761 89.025 32.3794C93.5443 32.3827 98.0168 33.3062 102.177 35.0951C106.338 36.884 110.101 39.5019 113.245 42.7933C116.388 46.0848 118.847 49.9827 120.476 54.2559C122.104 58.529 122.87 63.0903 122.726 67.669C122.718 87.2752 106.749 102.136 88.9917 101.799Z" fill="#D9D9D9"/>
<ellipse cx="89" cy="179.845" rx="71.457" ry="66.9985" fill="#D9D9D9"/>
</g>
<defs>
<clipPath id="clip0_3392_19651">
<rect width="178" height="178" fill="white"/>
</clipPath>
</defs>
</svg>
