<svg width="44" height="44" viewBox="0 0 44 44" fill="none" xmlns="http://www.w3.org/2000/svg">
<g clip-path="url(#clip0_3370_19916)">
<rect width="44" height="44" fill="white"/>
<circle cx="22.4238" cy="20.9375" r="15.7422" fill="#475B6E"/>
<path d="M6.98324 36.9212C6.34577 37.1516 5.72862 36.5344 5.95898 35.897L9.27532 26.7196C9.47447 26.1684 10.179 26.0114 10.5934 26.4258L16.4545 32.2868C16.8688 32.7012 16.7118 33.4057 16.1607 33.6049L6.98324 36.9212Z" fill="#475B6E"/>
<path d="M20.6513 21.2996H23.3476L22.5455 16.8797H21.4534L20.6513 21.2996ZM24.5422 27.938L23.8425 24.0983H20.1393L19.4397 27.938H16.1973L18.5011 15.9582C18.74 14.7465 19.4055 14.0469 20.6001 14.0469H25.1053L27.8016 27.938H24.5422Z" fill="white"/>
</g>
<defs>
<clipPath id="clip0_3370_19916">
<rect width="44" height="44" fill="white"/>
</clipPath>
</defs>
</svg>
