<svg width="40" height="40" viewBox="0 0 40 40" fill="none" xmlns="http://www.w3.org/2000/svg">
<path d="M34 8H6C3.79086 8 2 9.79086 2 12V28C2 30.2091 3.79086 32 6 32H34C36.2091 32 38 30.2091 38 28V12C38 9.79086 36.2091 8 34 8Z" fill="#DE001B"/>
<path d="M4.58902 16.98L5.30602 14.797L3.42102 13.444L5.75502 13.439L6.48302 11.26L7.20902 13.44L9.54402 13.447L7.65702 14.798L8.37302 16.981L6.48102 15.637L4.58902 16.98Z" fill="#FADD00"/>
<path d="M11.098 18.16L11.886 18.471L12.433 17.833L12.376 18.665L13.162 18.98L12.339 19.183L12.277 20.015L11.826 19.308L11.002 19.508L11.546 18.868L11.098 18.16Z" fill="#FADD00"/>
<path d="M15.363 13.9661L14.526 13.8231L14.125 14.5581L14.006 13.7331L13.17 13.5851L13.932 13.2191L13.816 12.3921L14.407 12.9911L15.172 12.6271L14.774 13.3651L15.363 13.9661Z" fill="#FADD00"/>
<path d="M13.586 17.703L13.847 16.909L13.161 16.417L14.011 16.415L14.275 15.623L14.539 16.416L15.388 16.418L14.702 16.909L14.962 17.703L14.275 17.214L13.586 17.703Z" fill="#FADD00"/>
<path d="M11.139 10.454L11.91 10.805L12.49 10.196L12.389 11.024L13.157 11.379L12.324 11.54L12.218 12.367L11.805 11.638L10.971 11.795L11.549 11.184L11.139 10.454Z" fill="#FADD00"/>
</svg>
