<svg width="40" height="40" viewBox="0 0 40 40" fill="none" xmlns="http://www.w3.org/2000/svg">
<path d="M34 8H6C3.79086 8 2 9.79086 2 12V28C2 30.2091 3.79086 32 6 32H34C36.2091 32 38 30.2091 38 28V12C38 9.79086 36.2091 8 34 8Z" fill="#E3E7EA"/>
<path d="M36.4299 8.84098C36.4299 8.84098 36.4209 8.83498 36.4169 8.83198C36.2749 8.72298 36.1219 8.62698 35.9669 8.53698C35.9149 8.50698 35.8629 8.47898 35.8099 8.45198C35.6749 8.38198 35.5349 8.31898 35.3919 8.26398C35.2829 8.22198 35.1709 8.19198 35.0579 8.15998C34.9509 8.12998 34.8459 8.09598 34.7359 8.07498C34.4989 8.02898 34.2559 8.00098 34.0049 8.00098H23.3879V16.07L36.4299 8.84098Z" fill="#2E2C7B"/>
<path d="M16.957 16.069V8H5.99503C5.74603 8 5.50503 8.03 5.26803 8.074C5.19503 8.087 5.12503 8.107 5.05403 8.125C4.89103 8.165 4.73203 8.214 4.57703 8.273C4.50103 8.302 4.42403 8.331 4.35003 8.364C4.18803 8.438 4.03403 8.523 3.88403 8.617C3.83603 8.647 3.78503 8.671 3.73803 8.703C3.73503 8.705 3.73103 8.707 3.72803 8.709L16.956 16.07L16.957 16.069Z" fill="#2E2C7B"/>
<path d="M38 16.678V12.728L30.916 16.678H38Z" fill="#2E2C7B"/>
<path d="M38 27.7119V23.8059H30.916L38 27.7119Z" fill="#2E2C7B"/>
<path d="M4.14001 31.523C4.14801 31.527 4.15601 31.53 4.16301 31.534C4.34601 31.629 4.53801 31.708 4.73501 31.777C4.84701 31.816 4.96001 31.854 5.07701 31.883C5.15801 31.903 5.24201 31.917 5.32501 31.932C5.54301 31.972 5.76501 32 5.99601 32H16.958V24.415L4.14001 31.523Z" fill="#2E2C7B"/>
<path d="M23.387 24.4151V32.0001H34.004C34.241 32.0001 34.47 31.9711 34.694 31.9301C34.78 31.9141 34.865 31.8961 34.949 31.8741C35.073 31.8431 35.193 31.8041 35.312 31.7611C35.541 31.6781 35.763 31.5801 35.972 31.4601C35.999 31.4451 36.028 31.4331 36.055 31.4171L23.388 24.4141L23.387 24.4151Z" fill="#2E2C7B"/>
<path d="M2 23.8059V27.9429L9.429 23.8059H2Z" fill="#2E2C7B"/>
<path d="M2 12.533V16.678H9.429L2 12.533Z" fill="#2E2C7B"/>
<path d="M24.177 16.6779H27.052L37.778 10.7379C37.778 10.7379 37.775 10.7319 37.774 10.7289C37.702 10.5149 37.612 10.3119 37.508 10.1169C37.5 10.1019 37.492 10.0869 37.484 10.0719C37.378 9.88094 37.258 9.69894 37.122 9.52794C37.118 9.52294 37.116 9.51794 37.112 9.51294L24.177 16.6779Z" fill="#D00032"/>
<path d="M29.278 23.8059H26.403L37.481 29.9379C37.485 29.9309 37.487 29.9239 37.49 29.9169C37.597 29.7229 37.689 29.5209 37.762 29.3099C37.767 29.2949 37.771 29.2789 37.776 29.2639C37.848 29.0509 37.904 28.8309 37.939 28.6019V28.5989L29.277 23.8049L29.278 23.8059Z" fill="#D00032"/>
<path d="M11.5171 16.678H14.3931L2.51406 10.071C2.51106 10.077 2.50906 10.084 2.50606 10.09C2.39906 10.285 2.30806 10.489 2.23406 10.701C2.22906 10.715 2.22506 10.73 2.22106 10.744C2.14906 10.959 2.09406 11.181 2.06006 11.411V11.414L11.5181 16.677L11.5171 16.678Z" fill="#D00032"/>
<path d="M16.618 23.8059H13.743L2.55701 30.0049C2.55701 30.0049 2.56201 30.0119 2.56501 30.0159C2.68001 30.2109 2.81001 30.3929 2.95501 30.5639C2.96601 30.5759 2.97601 30.5899 2.98601 30.6019C3.13201 30.7709 3.29301 30.9269 3.46601 31.0699C3.47201 31.0749 3.47701 31.0809 3.48301 31.0859L16.618 23.8059Z" fill="#D00032"/>
<path d="M22.101 8H18.243V18.104H2V22.38H18.243V32H22.101V22.38H38V18.104H22.101V8Z" fill="#D00032"/>
</svg>
