<svg width="72" height="42" viewBox="0 0 72 42" fill="none" xmlns="http://www.w3.org/2000/svg">
<rect width="72" height="42" fill="white"/>
<mask id="mask0_3377_40675" style="mask-type:alpha" maskUnits="userSpaceOnUse" x="40" y="12" width="27" height="18">
<rect x="40.3945" y="12.5469" width="25.7864" height="16.9047" fill="#252525"/>
</mask>
<g mask="url(#mask0_3377_40675)">
<path d="M59.6425 27.3033L59.6425 15.2511L55.168 15.2511V14.6182L64.8027 14.6182V15.2511L60.3282 15.2511L60.3282 27.3033H59.6425Z" fill="#252525"/>
<path d="M45.8555 27.3033L45.8555 14.6182L53.2485 14.6182V15.2511L46.5412 15.2511L46.5412 20.4816L52.9321 20.4816L52.9321 21.1146L46.5412 21.1146L46.5412 26.6704L53.2485 26.6704V27.3033L45.8555 27.3033Z" fill="#252525"/>
<path d="M38.7773 27.5143C37.9275 27.5143 37.1686 27.3678 36.5005 27.0748C35.8324 26.7818 35.2961 26.3803 34.8917 25.8704C34.4874 25.3547 34.2529 24.7687 34.1885 24.1123L34.1797 24.0156H34.8654L34.8742 24.1123C34.9328 24.6397 35.1379 25.1115 35.4895 25.5276C35.847 25.9437 36.3129 26.2719 36.8873 26.5122C37.4616 26.7525 38.1033 26.8726 38.8124 26.8726C39.5274 26.8726 40.1604 26.7466 40.7113 26.4946C41.268 26.2426 41.7017 25.9027 42.0123 25.4749C42.3288 25.0412 42.487 24.5577 42.487 24.0244V24.0068C42.487 23.3446 42.2321 22.7849 41.7222 22.3277C41.2123 21.8706 40.3977 21.5102 39.2784 21.2465L38.118 20.9828C36.8345 20.678 35.9115 20.2736 35.3489 19.7696C34.7863 19.2598 34.5049 18.6034 34.5049 17.8005V17.7829C34.5108 17.1558 34.6896 16.5873 35.0412 16.0775C35.3987 15.5676 35.891 15.1632 36.518 14.8643C37.1451 14.5596 37.863 14.4072 38.6718 14.4072C39.4747 14.4072 40.1838 14.5449 40.7992 14.8204C41.4204 15.0958 41.9156 15.468 42.2848 15.9368C42.654 16.3998 42.865 16.9214 42.9178 17.5016L42.9265 17.5895H42.2409L42.2321 17.5104C42.1735 17.0533 41.9859 16.6401 41.6695 16.2709C41.353 15.8958 40.9398 15.5998 40.43 15.383C39.9201 15.1603 39.3282 15.049 38.6542 15.049C37.9978 15.049 37.4088 15.1691 36.8873 15.4094C36.3657 15.6497 35.9554 15.9749 35.6565 16.3852C35.3577 16.7954 35.2082 17.2584 35.2082 17.7741V17.7917C35.2082 18.4188 35.4485 18.9316 35.9291 19.3301C36.4155 19.7286 37.2037 20.0568 38.2938 20.3147L39.463 20.5872C40.3362 20.7864 41.0453 21.0414 41.5903 21.352C42.1412 21.6626 42.5427 22.0318 42.7947 22.4596C43.0525 22.8874 43.1815 23.3826 43.1815 23.9453V23.9628C43.1815 24.6544 42.9939 25.2668 42.6189 25.8001C42.2497 26.3334 41.7339 26.7525 41.0717 27.0572C40.4153 27.362 39.6505 27.5143 38.7773 27.5143Z" fill="#252525"/>
</g>
<path d="M40.3926 7.46582V33.8154L36.4424 34.502V34.5342L36.3584 34.5166L36.2549 34.5352V34.4951L29.4492 33.0879L29.4102 33.0947V7.46582H40.3926ZM33.3594 8.41699V32.3848L36.2549 32.8633V8.41699H33.3594Z" fill="#252525"/>
<mask id="mask1_3377_40675" style="mask-type:alpha" maskUnits="userSpaceOnUse" x="7" y="12" width="32" height="19">
<rect x="7.25781" y="12.585" width="30.885" height="17.5113" fill="#252525"/>
</mask>
<g mask="url(#mask1_3377_40675)">
<path d="M37.2559 27.6667C36.2479 27.6667 35.3717 27.5143 34.6274 27.2096C33.8832 26.9048 33.2971 26.477 32.8693 25.9261C32.4473 25.3694 32.21 24.7159 32.1572 23.9658L32.1484 23.8251L34.7066 23.8251L34.7154 23.913C34.7505 24.2295 34.8794 24.5079 35.1021 24.7482C35.3307 24.9826 35.6355 25.1672 36.0164 25.302C36.3973 25.4368 36.8339 25.5042 37.3262 25.5042C37.8009 25.5042 38.217 25.4338 38.5745 25.2932C38.932 25.1525 39.2104 24.9591 39.4096 24.713C39.6148 24.461 39.7173 24.1738 39.7173 23.8515V23.8427C39.7173 23.4266 39.5474 23.0926 39.2075 22.8406C38.8734 22.5886 38.3108 22.3805 37.5196 22.2164L36.1834 21.9439C34.8648 21.6743 33.9066 21.2318 33.3088 20.6165C32.711 20.0011 32.4122 19.2129 32.4122 18.2518V18.243C32.4122 17.4577 32.6202 16.772 33.0363 16.1859C33.4524 15.5999 34.0238 15.1457 34.7505 14.8233C35.4772 14.4951 36.3094 14.3311 37.2471 14.3311C38.2317 14.3311 39.0756 14.4922 39.7789 14.8145C40.488 15.131 41.0418 15.5676 41.4403 16.1244C41.8388 16.6753 42.0645 17.3053 42.1172 18.0144L42.126 18.1287L39.6294 18.1287L39.6118 18.0232C39.5591 17.7184 39.4302 17.4518 39.225 17.2232C39.0258 16.9947 38.7562 16.8159 38.4163 16.687C38.0822 16.5522 37.6925 16.4848 37.2471 16.4848C36.8134 16.4848 36.4325 16.5493 36.1043 16.6782C35.7761 16.8071 35.5212 16.9888 35.3395 17.2232C35.1578 17.4518 35.067 17.7243 35.067 18.0408V18.0496C35.067 18.4598 35.2311 18.7968 35.5593 19.0605C35.8933 19.3184 36.4325 19.5235 37.1768 19.6759L38.5218 19.9484C39.4184 20.1301 40.1481 20.3762 40.7107 20.6868C41.2792 20.9974 41.6982 21.3871 41.9678 21.856C42.2374 22.3248 42.3722 22.8904 42.3722 23.5526V23.5614C42.3722 24.3995 42.1641 25.1262 41.748 25.7415C41.3378 26.351 40.7488 26.8257 39.981 27.1656C39.2192 27.4997 38.3108 27.6667 37.2559 27.6667Z" fill="#252525"/>
<path d="M21.5156 27.3414L21.5156 14.6562L29.9196 14.6563L29.9196 16.8452L24.1705 16.8452L24.1705 19.9044L29.5944 19.9044L29.5944 21.9438L24.1705 21.9438L24.1705 25.1525L29.9196 25.1525L29.9196 27.3414L21.5156 27.3414Z" fill="#252525"/>
<path d="M9.02344 27.3414L9.02344 14.6562L14.3067 14.6563C15.2678 14.6563 16.0854 14.8203 16.7594 15.1485C17.4392 15.4709 17.9549 15.9338 18.3065 16.5375C18.664 17.1411 18.8428 17.859 18.8428 18.6912V18.7088C18.8428 19.5234 18.6406 20.256 18.2362 20.9065C17.8377 21.5512 17.2751 22.0171 16.5484 22.3043L19.2208 27.3414L16.2143 27.3414L13.8496 22.6998C13.832 22.6998 13.8115 22.6998 13.7881 22.6998C13.7646 22.6998 13.7441 22.6998 13.7265 22.6998H11.6783L11.6783 27.3414L9.02344 27.3414ZM11.6783 20.7659L14.0166 20.7659C14.6789 20.7659 15.1946 20.59 15.5638 20.2384C15.9389 19.8809 16.1264 19.3886 16.1264 18.7616V18.744C16.1264 18.1286 15.9359 17.6393 15.555 17.2759C15.1741 16.9126 14.6496 16.7309 13.9815 16.7309L11.6783 16.7309L11.6783 20.7659Z" fill="#252525"/>
</g>
</svg>
