<svg width="115" height="42" viewBox="0 0 115 42" fill="none" xmlns="http://www.w3.org/2000/svg">
<rect width="115" height="42" fill="white"/>
<path d="M38.2185 20.2283C38.3022 20.2283 38.4017 20.3671 38.4392 20.5369C38.6541 21.5102 38.9005 22.0131 39.6638 23.0359C40.3671 23.9782 40.6149 24.4347 40.615 24.7888C40.615 24.9665 40.4576 25.6686 40.2654 26.3484C39.4705 29.1583 39.4986 29.0918 38.8298 29.7732C37.4454 31.1837 35.2715 32.3067 31.4734 33.5759C29.2338 34.3243 28.5474 34.4402 27.3074 34.2781C26.1461 34.1265 25.3169 33.8739 24.0427 33.283C21.6568 32.1763 19.5192 30.3887 18.7478 28.8552C18.5824 28.5261 18.2984 27.7271 18.1169 27.0789C17.6394 25.3727 16.8954 23.5064 16.6628 23.4324C16.4755 23.373 15.55 23.5101 15.1863 23.6511C15.0884 23.6887 14.9479 23.646 14.8738 23.5564C14.7017 23.3481 14.3708 21.7374 14.4548 21.5174C14.5407 21.293 14.992 21.3081 16.0095 21.5691C17.9272 22.0611 18.4987 22.6703 18.991 24.7488C19.4975 26.8883 20.2773 28.3878 21.3748 29.3338C23.0275 30.7583 24.4783 31.5768 25.7429 31.7976C26.345 31.9028 26.5885 31.8934 27.1863 31.741C29.2621 31.2118 33.5197 29.3489 35.3181 28.1834C35.9599 27.7674 36.0332 27.676 36.3084 26.9539C36.6961 25.9361 36.8556 25.3385 37.2634 23.3728C37.6567 21.4777 37.781 20.9604 37.9461 20.5369C38.0121 20.3673 38.1348 20.2287 38.2185 20.2283ZM28.322 4.75857C28.6246 4.38841 29.6035 4.78737 29.9255 5.41189C30.1017 5.75381 30.0984 5.77582 29.8337 6.06228C28.9891 6.97678 28.1436 8.5469 27.6492 10.1209C27.0632 11.9861 26.4559 14.3756 26.5447 14.4646C26.5606 14.4778 26.8396 14.089 27.1658 13.5994C27.846 12.5784 28.8379 11.6071 29.5554 11.2586C30.6253 10.7392 32.1573 11.0765 32.5759 11.9236C32.8841 12.5472 33.5422 15.0966 33.8357 16.8064C34.1314 18.5295 34.4052 22.5998 34.322 24.0398C34.2824 24.7269 34.2065 25.0256 33.9705 25.4295C33.8054 25.7119 33.6163 25.9764 33.5496 26.0183C33.2261 26.2189 32.1608 26.4333 31.1531 26.4998L30.033 26.573L30.0183 27.5838C30.0026 28.6628 29.8749 29.2284 29.5711 29.5652C29.2761 29.8918 29.0385 29.8369 29.1355 29.4646C29.2494 29.027 29.3161 26.7081 29.2185 26.573C29.1732 26.5111 28.7839 26.3718 28.3533 26.2634C27.2116 25.9759 26.0318 25.3618 25.5603 24.8093C25.3414 24.5528 25.1588 24.4154 25.1541 24.5037C25.1493 24.5927 25.1091 25.2687 25.0642 26.0066C25.009 26.9138 25.0264 27.5833 25.1179 28.0711C25.2973 29.0288 25.169 29.4371 24.6892 29.4373C24.4374 29.4373 24.2227 29.3097 23.8601 28.9461L23.3709 28.4558V26.7039C23.3709 24.9074 23.4995 23.6768 23.9959 20.7332C24.6659 16.7595 25.5082 13.4538 26.8386 9.57888C27.2057 8.50965 27.4489 7.65415 27.3787 7.67653C27.3079 7.70022 27.1957 7.81522 27.1296 7.93239C27.0172 8.13229 26.9636 8.20758 26.6697 8.57302C26.3735 8.9418 24.8373 11.2334 24.6521 11.5828C24.4803 11.9076 24.4503 12.1853 24.4753 13.2283C24.5078 14.5752 24.347 15.1767 23.9558 15.1717C23.4996 15.1658 22.028 14.3052 21.5027 13.7371C21.199 13.4087 21.2681 13.2047 21.7644 12.9685C21.976 12.8677 22.336 12.5529 22.5642 12.2683C23.5627 11.0233 24.71 9.6478 25.6013 8.62868C27.3075 6.67769 27.9632 5.81309 28.0877 5.34841C28.1535 5.10165 28.259 4.8362 28.322 4.75857ZM46.0349 19.3972C46.1792 19.3973 46.2975 19.5156 46.2976 19.6599V27.4988C46.2974 27.643 46.1792 27.7614 46.0349 27.7615C45.8908 27.7613 45.7734 27.6429 45.7732 27.4988V19.6599C45.7733 19.5157 45.8907 19.3974 46.0349 19.3972ZM80.8005 19.3972C80.9447 19.3975 81.0622 19.5158 81.0623 19.6599V27.4988C81.0621 27.6429 80.9446 27.7612 80.8005 27.7615C80.6562 27.7615 80.538 27.6431 80.5378 27.4988V19.6599C80.538 19.5156 80.6562 19.3972 80.8005 19.3972ZM62.5759 23.6013C62.6835 23.6013 62.8085 23.6151 62.95 23.6433C63.0971 23.666 63.2305 23.6943 63.3494 23.7283C63.4115 23.7453 63.4631 23.7737 63.5027 23.8133C63.5422 23.8528 63.5622 23.8991 63.5623 23.95C63.5619 24.0855 63.4455 24.1593 63.2136 24.1707C62.8399 24.1537 62.4264 24.1453 61.9734 24.1453C61.3219 24.1453 60.6132 24.1537 59.8484 24.1707L59.8142 26.4138C59.8085 26.7875 59.7718 27.0971 59.7039 27.3406C59.6417 27.5833 59.571 27.7053 59.4919 27.7058C59.4297 27.7058 59.3836 27.6291 59.3552 27.4763C59.3326 27.3235 59.3189 27.0995 59.3132 26.8054L59.2625 24.1795C58.2543 24.2134 57.5769 24.2439 57.2312 24.2722C57.0557 24.2836 56.9277 24.3235 56.8484 24.3914C56.7466 24.4592 56.6645 24.4938 56.6023 24.4939C56.557 24.4939 56.4888 24.4761 56.3982 24.4422C55.9851 24.2554 55.7216 24.1168 55.6082 24.0261C55.5969 24.0149 55.5767 23.9978 55.5486 23.9754C55.5262 23.9529 55.5091 23.9327 55.4978 23.9158C55.4867 23.899 55.4804 23.8818 55.4802 23.865C55.4803 23.8369 55.4974 23.8222 55.531 23.822C55.5649 23.8221 55.6135 23.8305 55.6755 23.8474C55.8171 23.8757 56.0072 23.9019 56.2449 23.9246C56.4883 23.9416 56.735 23.95 56.9841 23.95C57.63 23.95 58.4467 23.9385 59.4324 23.9158C60.4236 23.8875 61.1997 23.8592 61.7605 23.8308C61.9472 23.8138 62.1039 23.7776 62.2302 23.7224L62.3962 23.6345C62.4482 23.6123 62.5082 23.6014 62.5759 23.6013ZM53.616 23.9343C53.6672 23.9345 53.7807 23.9575 53.9558 24.0027C54.1369 24.0423 54.2787 24.0812 54.3806 24.1209C54.4597 24.1605 54.4997 24.2205 54.4998 24.2996C54.4997 24.3278 54.4934 24.365 54.4822 24.4099C54.4539 24.5342 54.4402 24.6395 54.4402 24.7244L54.3894 26.6961C54.3837 26.9391 54.3437 27.1179 54.2703 27.2312C54.2024 27.35 54.1309 27.4099 54.0574 27.4099C54.0236 27.4098 53.995 27.3758 53.9724 27.3084C53.9498 27.2405 53.9361 27.149 53.9304 27.0359L51.1853 27.1297C51.1627 27.2708 51.1173 27.39 51.0496 27.4861C50.9817 27.5879 50.9187 27.6394 50.8621 27.6394C50.7773 27.6391 50.7289 27.4575 50.7175 27.0955L50.6326 24.8601C50.5476 24.7415 50.4003 24.6509 50.1912 24.5886C50.1291 24.5717 50.0838 24.557 50.0554 24.5457C50.0331 24.5289 50.0238 24.5094 50.0291 24.4871C50.0349 24.4589 50.078 24.4303 50.157 24.4021C50.2418 24.3682 50.3155 24.3504 50.3777 24.3504C50.44 24.3504 50.5512 24.365 50.7097 24.3933C50.8738 24.416 51.001 24.4475 51.0916 24.4871C51.1707 24.5154 51.2106 24.5775 51.2107 24.6736C51.2106 24.6964 51.2054 24.7481 51.1941 24.8269C51.1772 24.9003 51.1687 24.9797 51.1687 25.0642V25.3709L53.905 25.2859L53.8962 24.5203C53.8622 24.4525 53.7969 24.3871 53.7009 24.325C53.6103 24.257 53.5107 24.2066 53.4031 24.1726C53.2958 24.1387 53.2423 24.104 53.2419 24.0701C53.2423 24.0362 53.2874 24.0046 53.3777 23.9763C53.4682 23.9481 53.5481 23.9343 53.616 23.9343ZM69.5906 23.9343C69.6417 23.9344 69.755 23.9574 69.9304 24.0027C70.1115 24.0423 70.2533 24.0813 70.3552 24.1209C70.4344 24.1605 70.4743 24.2205 70.4744 24.2996C70.4743 24.3278 70.468 24.3649 70.4568 24.4099C70.4286 24.5342 70.4148 24.6395 70.4148 24.7244L70.364 26.6961C70.3583 26.9392 70.3183 27.1179 70.2449 27.2312C70.177 27.35 70.1056 27.4099 70.032 27.4099C69.9982 27.4097 69.9696 27.3758 69.947 27.3084C69.9244 27.2405 69.9107 27.149 69.905 27.0359L67.1599 27.1297C67.1373 27.2709 67.0919 27.39 67.0242 27.4861C66.9563 27.5879 66.8933 27.6394 66.8367 27.6394C66.752 27.6388 66.7045 27.4572 66.6931 27.0955L66.6072 24.8601C66.5222 24.7415 66.375 24.6509 66.1658 24.5886C66.1036 24.5717 66.0584 24.557 66.03 24.5457C66.0077 24.5289 65.9993 24.5094 66.0046 24.4871C66.0105 24.4589 66.0527 24.4303 66.1316 24.4021C66.2163 24.3682 66.2901 24.3504 66.3523 24.3504C66.4146 24.3504 66.5258 24.365 66.6843 24.3933C66.8484 24.416 66.9756 24.4475 67.0662 24.4871C67.1453 24.5154 67.1853 24.5775 67.1853 24.6736C67.1853 24.6964 67.18 24.7481 67.1687 24.8269C67.1518 24.9003 67.1433 24.9797 67.1433 25.0642V25.3709L69.8796 25.2859L69.8709 24.5203C69.8368 24.4525 69.7716 24.3871 69.6755 24.325C69.5849 24.257 69.4853 24.2066 69.3777 24.1726C69.2705 24.1388 69.2169 24.104 69.2166 24.0701C69.2169 24.0363 69.2621 24.0046 69.3523 23.9763C69.4429 23.948 69.5226 23.9343 69.5906 23.9343ZM91.9255 21.1472C92.1678 21.1472 92.3622 21.2132 92.5076 21.3465C92.6528 21.4676 92.7253 21.6254 92.7253 21.8191C92.7253 21.9038 92.7199 21.9709 92.7078 22.0193C93.3376 22.0678 93.8832 22.2255 94.3435 22.492C94.8157 22.7464 95.1736 23.0737 95.4158 23.4734C95.6699 23.8609 95.7966 24.2673 95.7966 24.6912C95.7723 25.2239 95.6027 25.7084 95.2878 26.1443C94.9728 26.5925 94.5429 26.9446 93.9978 27.199C93.4527 27.4655 92.8347 27.5984 92.1443 27.5984C91.1025 27.5984 90.2298 27.3444 89.5271 26.8357C88.8366 26.3269 88.4911 25.6357 88.491 24.7634C88.491 24.0002 88.7578 23.376 89.2908 22.8914C89.8238 22.3948 90.5142 22.0923 91.3621 21.9832C91.5678 21.9227 91.6714 21.7829 91.6716 21.5652C91.6716 21.4321 91.6348 21.3044 91.5623 21.1834C91.647 21.1592 91.7682 21.1473 91.9255 21.1472ZM73.8816 24.9793C74.0062 24.9793 74.1817 24.993 74.408 25.0213C74.6344 25.0496 74.7907 25.0832 74.8757 25.1228C74.9153 25.1455 74.9353 25.1917 74.9353 25.2595C74.9352 25.288 74.929 25.342 74.9177 25.4207C74.9008 25.5564 74.8924 25.6647 74.8923 25.7439L74.9011 26.7381C74.9012 26.8397 74.9265 26.9082 74.9773 26.9422C75.0283 26.9817 75.1419 27.0017 75.3171 27.0017C76.0366 27.0017 76.6069 26.9933 77.0261 26.9763C77.1956 26.9706 77.3284 26.9443 77.4246 26.8992C77.5206 26.854 77.5784 26.8287 77.5955 26.823C77.6575 26.8005 77.7168 26.7857 77.7732 26.78C77.8354 26.7744 77.9007 26.7722 77.9685 26.7722C78.1385 26.7722 78.3429 26.8006 78.5808 26.8572C78.643 26.8742 78.6945 26.8994 78.7341 26.9334C78.7735 26.9729 78.7936 27.0162 78.7937 27.0613C78.7932 27.191 78.6766 27.2565 78.4451 27.2566H77.7566L76.6941 27.2732C75.4942 27.2959 74.987 27.3074 75.1726 27.3074C74.8728 27.3073 74.6605 27.259 74.5359 27.1629C74.417 27.0722 74.3541 26.8906 74.3484 26.6189L74.323 25.5144C74.2551 25.4352 74.1647 25.3722 74.0515 25.3269C73.9439 25.2816 73.8076 25.2449 73.6433 25.2166C73.5925 25.2053 73.5471 25.1915 73.5076 25.1746C73.4682 25.1577 73.4483 25.1397 73.448 25.1228C73.4487 25.0891 73.5001 25.0582 73.6013 25.03C73.7088 24.9961 73.8024 24.9793 73.8816 24.9793ZM51.1765 25.6765L51.1941 26.8064L53.9216 26.7215L53.905 25.5916L51.1765 25.6765ZM67.1511 25.6765L67.1687 26.8064L69.8962 26.7215L69.8796 25.5916L67.1511 25.6765ZM92.5252 23.0369C92.4888 23.0851 92.4224 23.1276 92.3259 23.1638C92.2412 23.2002 92.1558 23.225 92.0711 23.2371C91.5141 23.3098 91.0719 23.485 90.7449 23.7634C90.418 24.0299 90.2538 24.3574 90.2537 24.7449C90.2538 25.1567 90.4353 25.497 90.7986 25.7634C91.1621 26.042 91.6415 26.1814 92.2351 26.1814C92.8164 26.1814 93.2952 26.0236 93.6707 25.7088C94.0462 25.4059 94.234 25.0235 94.2341 24.5633C94.2341 24.1394 94.0947 23.7817 93.8162 23.491C93.5375 23.2002 93.1067 23.049 92.5252 23.0369ZM77.2293 19.4549C77.3482 19.4549 77.5359 19.481 77.7908 19.532C78.0454 19.5829 78.2072 19.6334 78.2752 19.6843C78.3202 19.7126 78.3425 19.7612 78.3425 19.8289C78.3425 19.8517 78.3372 19.9034 78.3259 19.9822C78.309 20.1346 78.3006 20.2368 78.3005 20.2879L78.2664 24.1287C78.2607 24.5306 78.2239 24.8655 78.156 25.1316C78.0937 25.3976 78.0255 25.5309 77.9519 25.531C77.8443 25.531 77.7846 25.194 77.7732 24.5203L77.7224 20.0925C77.5412 19.8831 77.2892 19.7467 76.9666 19.6843C76.8368 19.6561 76.7708 19.6276 76.7703 19.5994C76.7707 19.5656 76.8252 19.5348 76.9324 19.5066C77.0455 19.4727 77.1444 19.4549 77.2293 19.4549ZM31.4402 12.3709C30.7148 11.9815 29.2976 12.8265 29.0769 13.78C29.0209 14.0218 28.9739 14.4381 28.9724 14.7049L28.9695 15.1902L29.3152 14.9295C30.1065 14.3336 30.2486 14.2778 30.9597 14.2771C31.6123 14.2766 31.67 14.2967 31.7722 14.5662C31.8525 14.7781 31.8397 14.9373 31.7234 15.156C31.6358 15.3207 31.4512 15.7582 31.3132 16.1287C31.0047 16.9578 30.4148 17.979 29.8406 18.6775C29.4271 19.1806 29.4116 19.2297 29.4841 19.7781C29.5597 20.3492 29.5618 20.3514 29.9089 20.281C30.1007 20.242 30.339 20.1148 30.4392 19.9988C30.5998 19.8127 30.6043 19.7136 30.4773 19.1658C30.3856 18.7698 30.3736 18.5194 30.4431 18.4763C30.5029 18.4393 30.5629 18.4267 30.5769 18.448C30.9696 19.0642 31.646 19.8317 32.0144 20.0799C32.7319 20.5632 33.0007 21.0326 33.0007 21.8015C33.0007 22.8636 32.5564 23.2118 30.8455 23.4881L29.9773 23.6277L29.9783 24.034C29.979 24.257 30.012 24.6357 30.0515 24.8758L30.1238 25.3133L31.1033 25.2488C32.2326 25.1753 32.944 24.883 33.1199 24.4197C33.3409 23.8366 33.3693 21.474 33.1755 19.7224C32.6727 15.176 32.093 12.7219 31.4402 12.3709ZM26.5671 23.4383C26.0461 23.2199 26.0583 23.2194 26.0584 23.4461C26.0584 24.0611 27.3537 24.9264 28.6052 25.1472L29.1931 25.2508V24.7185C29.1931 24.426 29.1615 24.028 29.1228 23.8338C29.0552 23.4945 29.0364 23.4839 28.6472 23.5652C28.0235 23.6956 27.0373 23.6352 26.5671 23.4383ZM53.5222 19.4558C53.6299 19.4672 53.8029 19.5101 54.0408 19.5838C54.2836 19.6572 54.4394 19.7247 54.5076 19.7869C54.5301 19.8095 54.5417 19.8443 54.5418 19.8894C54.5416 19.9126 54.53 19.9812 54.5076 20.0935C54.4907 20.1672 54.4822 20.2864 54.4822 20.45L54.4568 22.7361C54.4568 22.9568 54.4253 23.17 54.363 23.3738C54.3064 23.577 54.219 23.6792 54.1003 23.6795C54.0381 23.6795 53.992 23.5912 53.9636 23.4158C53.941 23.2348 53.9304 23.0306 53.9304 22.8045L53.9216 21.9793C53.5364 21.9963 53.1705 22.0256 52.825 22.0652C52.712 22.0822 52.6329 22.1106 52.5877 22.1502C52.5424 22.1897 52.4909 22.2087 52.4343 22.2088C52.3834 22.2087 52.3351 22.1982 52.2898 22.1756L51.9929 22.0134L51.9841 23.034C51.9784 23.277 51.9354 23.4559 51.8562 23.5691C51.7827 23.682 51.7059 23.739 51.6267 23.739C51.593 23.7388 51.5621 23.7101 51.5339 23.6541C51.5113 23.5975 51.4966 23.5175 51.491 23.4158L49.2644 23.5008C49.2474 23.6705 49.2022 23.8155 49.1287 23.9343C49.0551 24.0531 48.9868 24.113 48.9246 24.1131C48.8794 24.1129 48.8456 24.0614 48.823 23.9597C48.8004 23.8522 48.7835 23.6956 48.7722 23.492L48.6873 21.155C48.625 21.0702 48.5589 21.0082 48.491 20.9685C48.4231 20.929 48.3271 20.8889 48.2029 20.8494C48.1689 20.8437 48.1312 20.8353 48.0916 20.824C48.058 20.8071 48.0409 20.7869 48.0408 20.7644C48.0411 20.7306 48.0894 20.6989 48.1853 20.6707C48.2816 20.6367 48.3697 20.6199 48.449 20.6199C48.5113 20.6199 48.6217 20.6315 48.78 20.6541C48.9443 20.6767 49.0722 20.6998 49.1628 20.7224C49.2419 20.7451 49.2819 20.802 49.282 20.8924C49.2819 20.9208 49.2756 20.9749 49.2644 21.0535C49.2475 21.1384 49.239 21.2436 49.239 21.3679L49.2478 21.7078L51.4744 21.6228V20.739C51.4404 20.6655 51.369 20.5888 51.2615 20.5095C51.1597 20.4305 51.0522 20.3768 50.9392 20.3484C50.821 20.3146 50.7612 20.2774 50.7605 20.2381C50.7607 20.2042 50.8144 20.1757 50.9216 20.1531C51.0292 20.1248 51.1205 20.1133 51.1941 20.1189C51.5338 20.1812 51.7857 20.241 51.95 20.2976C52.0347 20.3259 52.0778 20.3766 52.0779 20.45C52.0777 20.4674 52.0662 20.5275 52.0437 20.6287C52.0211 20.7191 52.0095 20.8129 52.0095 20.909L52.0007 21.7586C52.216 21.7869 52.4572 21.7953 52.7234 21.784C52.8426 21.7783 53.2421 21.7478 53.9216 21.6912L53.9128 20.1355C53.8279 20.028 53.7229 19.9376 53.5984 19.864C53.4739 19.7848 53.3467 19.725 53.2166 19.6853C53.1713 19.674 53.1251 19.6593 53.0798 19.6424C53.0408 19.6255 53.0215 19.6084 53.0212 19.5916C53.0218 19.5577 53.0837 19.5238 53.2078 19.49C53.338 19.456 53.4429 19.4445 53.5222 19.4558ZM69.4968 19.4558C69.6045 19.4672 69.7775 19.5101 70.0154 19.5838C70.2588 19.6574 70.4152 19.7246 70.4832 19.7869C70.5057 19.8095 70.5163 19.8443 70.5164 19.8894C70.5162 19.9126 70.5056 19.9812 70.4832 20.0935C70.4663 20.1672 70.4568 20.2863 70.4568 20.45L70.4314 22.7361C70.4314 22.9568 70.4009 23.17 70.3386 23.3738C70.282 23.5773 70.1937 23.6793 70.075 23.6795C70.0127 23.6795 69.9675 23.5912 69.9392 23.4158C69.9166 23.2348 69.9051 23.0307 69.905 22.8045L69.8962 21.9793C69.5112 21.9963 69.146 22.0256 68.8005 22.0652C68.6874 22.0822 68.6076 22.1106 68.5623 22.1502C68.517 22.1896 68.4654 22.2087 68.4089 22.2088C68.3581 22.2087 68.3096 22.1981 68.2644 22.1756L67.9675 22.0134L67.9587 23.034C67.953 23.277 67.9109 23.4559 67.8318 23.5691C67.7583 23.682 67.6814 23.7388 67.6023 23.739C67.5684 23.739 67.5368 23.7104 67.5086 23.6541C67.4859 23.5975 67.4713 23.5175 67.4656 23.4158L65.239 23.5008C65.222 23.6705 65.1768 23.8155 65.1033 23.9343C65.0298 24.053 64.9614 24.113 64.8992 24.1131C64.8541 24.1128 64.8202 24.0612 64.7976 23.9597C64.775 23.8522 64.7582 23.6956 64.7468 23.492L64.6619 21.155C64.5997 21.0704 64.5343 21.0082 64.4666 20.9685C64.3986 20.9289 64.302 20.889 64.1775 20.8494C64.1436 20.8437 64.1066 20.8353 64.0671 20.824C64.0333 20.8071 64.0156 20.7869 64.0154 20.7644C64.0157 20.7306 64.0641 20.6989 64.1599 20.6707C64.2561 20.6367 64.3443 20.6199 64.4236 20.6199C64.4859 20.6199 64.5963 20.6315 64.7546 20.6541C64.9189 20.6767 65.0468 20.6998 65.1375 20.7224C65.2166 20.7451 65.2565 20.8019 65.2566 20.8924C65.2565 20.9208 65.2502 20.9749 65.239 21.0535C65.2221 21.1383 65.2136 21.2436 65.2136 21.3679L65.2224 21.7078L67.449 21.6228V20.739C67.415 20.6655 67.3436 20.5888 67.2361 20.5095C67.1343 20.4305 67.0269 20.3767 66.9138 20.3484C66.7956 20.3146 66.7358 20.2774 66.7351 20.2381C66.7353 20.2042 66.7891 20.1757 66.8962 20.1531C67.0038 20.1248 67.0951 20.1133 67.1687 20.1189C67.5084 20.1812 67.7603 20.241 67.9246 20.2976C68.0093 20.3259 68.0524 20.3765 68.0525 20.45C68.0524 20.4674 68.0408 20.5275 68.0183 20.6287C67.9957 20.7191 67.9842 20.8129 67.9841 20.909L67.9763 21.7586C68.1914 21.7868 68.432 21.7953 68.698 21.784C68.8171 21.7783 69.2167 21.7478 69.8962 21.6912L69.8875 20.1355C69.8026 20.0281 69.6974 19.9376 69.573 19.864C69.4485 19.7848 69.3213 19.725 69.1912 19.6853C69.1459 19.674 69.1007 19.6593 69.0554 19.6424C69.016 19.6255 68.9961 19.6085 68.9959 19.5916C68.9964 19.5578 69.0585 19.5238 69.1824 19.49C69.3125 19.4561 69.4176 19.4445 69.4968 19.4558ZM73.9412 20.3816C74.1052 20.3817 74.2303 20.43 74.3152 20.5261C74.3998 20.6223 74.4367 20.7414 74.4255 20.8826C74.7313 20.9279 74.9947 21.0244 75.2156 21.1717C75.4421 21.3189 75.6121 21.5004 75.7253 21.7156C75.8441 21.925 75.9039 22.1489 75.9041 22.3865C75.904 22.6809 75.8211 22.9622 75.657 23.2283C75.4984 23.4886 75.2832 23.6987 75.0115 23.8572C74.7396 24.01 74.4417 24.0867 74.1189 24.0867C73.7793 24.0866 73.4705 24.0131 73.1931 23.866C72.9156 23.7187 72.6974 23.5194 72.5388 23.2703C72.3805 23.0156 72.3007 22.7381 72.3005 22.4383C72.3006 22.1665 72.3688 21.9167 72.5046 21.6902C72.6406 21.4581 72.8221 21.2681 73.0486 21.1209C73.2751 20.9736 73.5248 20.8802 73.7966 20.8406C73.8757 20.8179 73.9157 20.7548 73.9158 20.6531C73.9157 20.5629 73.887 20.475 73.8308 20.3904C73.8535 20.3848 73.8905 20.3816 73.9412 20.3816ZM74.3152 21.1297C74.2416 21.1919 74.1303 21.2308 73.9832 21.2478C73.6604 21.2988 73.3939 21.4467 73.1843 21.6902C72.9806 21.928 72.8787 22.1947 72.8787 22.489C72.8788 22.8174 73.0005 23.0924 73.2439 23.3133C73.4932 23.5284 73.8109 23.6365 74.1961 23.6365C74.4224 23.6364 74.6294 23.5797 74.8162 23.4666C75.003 23.3477 75.151 23.1913 75.2586 22.9988C75.366 22.8064 75.4196 22.5962 75.4197 22.3699C75.4196 22.0699 75.3261 21.8032 75.1394 21.5711C74.9582 21.339 74.6831 21.192 74.3152 21.1297ZM61.3777 20.0574C61.5532 20.097 61.7064 20.1515 61.8367 20.2195C61.9045 20.2534 61.9391 20.2903 61.9392 20.3299C61.9389 20.3637 61.9126 20.4062 61.8621 20.4568C61.8226 20.4964 61.7972 20.548 61.7859 20.6101C61.7066 21.0859 61.5733 21.6671 61.3865 22.3523C61.494 22.3636 61.5738 22.3889 61.6248 22.4285C61.6811 22.4624 61.7096 22.5056 61.7097 22.5564C61.7094 22.6296 61.6664 22.6752 61.5818 22.6922C61.5025 22.7091 61.3691 22.7175 61.1824 22.7175H60.9705C60.4947 22.7175 59.9703 22.726 59.3982 22.7429C58.8263 22.7599 58.373 22.7767 58.0388 22.7937C58.0162 22.9012 57.9762 23.0011 57.9197 23.0916C57.8688 23.182 57.8173 23.2273 57.7664 23.2273C57.7268 23.2273 57.6953 23.1704 57.6726 23.0574C57.65 22.9441 57.6247 22.7624 57.5964 22.5134L57.4265 20.7967C57.4151 20.6781 57.3528 20.5789 57.24 20.4998C57.1324 20.4148 57.0128 20.3519 56.8826 20.3123C56.8373 20.301 56.7974 20.2894 56.7634 20.2781C56.7357 20.2614 56.7241 20.2417 56.7293 20.2195C56.7351 20.1912 56.7897 20.1596 56.8914 20.1258C56.9989 20.0918 57.0955 20.0771 57.1804 20.0828C57.3163 20.0941 57.4834 20.1225 57.6814 20.1677C57.8003 20.1961 57.9052 20.2138 57.9959 20.2195C58.0979 20.2308 58.3559 20.2361 58.7693 20.2361C59.4321 20.2361 60.1378 20.2109 60.8855 20.1599C60.9703 20.1542 61.064 20.128 61.1658 20.0828C61.2166 20.0603 61.262 20.0496 61.3015 20.0496C61.3352 20.0496 61.3607 20.0518 61.3777 20.0574ZM49.2478 22.0222L49.2644 23.2039L51.4822 23.1189L51.4744 21.9373L49.2478 22.0222ZM65.2224 22.0222L65.239 23.2039L67.4578 23.1189L67.449 21.9373L65.2224 22.0222ZM57.9871 20.534L58.0642 22.5047C58.6987 22.499 59.6532 22.4738 60.9275 22.4285C60.9783 22.4285 61.0099 22.3999 61.0212 22.3435C61.0552 22.0604 61.0888 21.7172 61.1228 21.3152C61.1568 20.9135 61.1767 20.6299 61.1824 20.4656L57.9871 20.534ZM95.488 11.2058C95.9847 11.2301 96.4633 11.2777 96.9236 11.3504C97.1053 11.3746 97.2446 11.448 97.3416 11.5691C97.4505 11.6902 97.5056 11.8296 97.5056 11.9871C97.5054 12.1564 97.4081 12.3016 97.2146 12.4226C97.0329 12.5316 96.8147 12.5867 96.5603 12.5867C94.1613 12.5867 91.7135 12.6407 89.2175 12.7498V14.4763C90.3443 14.4642 91.5321 14.4166 92.78 14.3318C93.3494 14.2834 93.7738 14.1916 94.0525 14.0584C94.2098 13.9737 94.3375 13.926 94.4343 13.9138C94.5313 13.8897 94.6946 13.8832 94.9246 13.8953C95.1305 13.9074 95.3551 13.9312 95.5974 13.9675C95.8517 14.0039 96.082 14.0406 96.2878 14.0769C96.4816 14.1012 96.6275 14.1681 96.7244 14.2771C96.833 14.374 96.8875 14.5017 96.8875 14.659C96.8872 14.8523 96.7843 15.0097 96.5789 15.1306C96.385 15.2396 96.154 15.2947 95.8875 15.2947C95.5117 15.2826 94.7967 15.2761 93.7429 15.2761L92.8523 15.2947L89.2175 15.367V16.4763C89.2178 16.8151 89.4121 16.9851 89.7996 16.9851C91.096 16.9851 92.2838 16.9603 93.3621 16.9119C93.9675 16.8755 94.4042 16.7728 94.6707 16.6033C94.8522 16.5065 95.0276 16.4578 95.197 16.4578C95.3302 16.4578 95.4394 16.4642 95.5242 16.4763C96.033 16.5006 96.4876 16.5546 96.8875 16.6394C97.0692 16.6879 97.2085 16.7732 97.3054 16.8943C97.4143 17.0033 97.4695 17.1244 97.4695 17.2576C97.4694 17.4512 97.3841 17.5973 97.2146 17.6941C97.045 17.7909 96.8202 17.8386 96.5418 17.8386C95.0153 17.8386 93.8823 17.8451 93.1433 17.8572L93.0711 19.656C94.4519 19.6076 95.4393 19.5654 96.033 19.5291C96.6749 19.4806 97.1416 19.3898 97.4324 19.2566C97.6141 19.1476 97.8084 19.0935 98.0144 19.0935C98.1476 19.0935 98.2568 19.099 98.3416 19.1111C98.596 19.1475 98.8747 19.196 99.1775 19.2566C99.4804 19.3172 99.7352 19.3722 99.9412 19.4207C100.353 19.5056 100.558 19.7173 100.558 20.0564C100.558 20.2621 100.456 20.4137 100.25 20.5105C100.056 20.5953 99.8074 20.632 99.5046 20.6199C99.0806 20.5957 98.2144 20.5838 96.906 20.5838C92.6533 20.5838 89.5694 20.668 87.655 20.8377C87.3644 20.8619 87.1342 20.8986 86.9646 20.947C86.8072 20.9834 86.6613 21.0375 86.5281 21.1101C86.3706 21.2191 86.2248 21.2742 86.0916 21.2742C85.9705 21.2741 85.819 21.2374 85.6375 21.1648C84.6202 20.6562 83.9839 20.2747 83.7293 20.0203C83.6324 19.9355 83.5535 19.8621 83.4929 19.8015C83.4446 19.729 83.4207 19.6563 83.4207 19.5838C83.4207 19.5233 83.4565 19.493 83.5291 19.4929C83.5533 19.4929 83.699 19.5167 83.9656 19.5652C84.7652 19.6985 85.7285 19.7654 86.8552 19.7654C88.2001 19.7654 89.6784 19.7471 91.2898 19.7107L91.2175 17.8933C90.4179 17.9176 89.8111 17.9295 89.3992 17.9295C88.7331 17.9294 88.2489 17.8203 87.9461 17.6023C87.6433 17.3843 87.4856 16.9788 87.4734 16.3855L87.364 12.8406C87.2429 12.659 87.0667 12.5021 86.8367 12.3689C86.6186 12.2236 86.3766 12.1264 86.1101 12.0779C86.0617 12.0537 85.9947 12.0289 85.9099 12.0047C85.8374 11.9684 85.7766 11.938 85.7283 11.9138C85.6922 11.8897 85.6737 11.8535 85.6736 11.8054C85.6736 11.7328 85.7773 11.6539 85.9832 11.5691C86.2012 11.4722 86.413 11.4236 86.6189 11.4236C86.9218 11.4236 87.3159 11.4603 87.8005 11.533C88.2848 11.6056 88.6665 11.6836 88.9451 11.7683C89.0905 11.7804 89.3636 11.7869 89.7634 11.7869C90.3207 11.7869 90.945 11.775 91.6355 11.7508C92.3258 11.7265 92.9072 11.6963 93.3796 11.6599C93.6945 11.6478 93.943 11.6175 94.1248 11.5691C94.3064 11.5086 94.4706 11.4297 94.616 11.3328C94.7734 11.2601 94.9009 11.2179 94.9978 11.2058C95.1069 11.1938 95.2702 11.1937 95.488 11.2058ZM28.7439 20.2566C28.7466 20.0308 28.5858 20.0922 28.2459 20.448L27.9285 20.781L28.2507 20.7224C28.5783 20.6628 28.7406 20.5093 28.7439 20.2566ZM28.3211 17.533C28.1189 17.533 26.7474 19.6093 26.8689 19.7312C26.9 19.7585 27.1295 19.5147 27.3806 19.1883C27.6328 18.8605 27.968 18.4718 28.1248 18.324C28.2816 18.1762 28.4099 17.9373 28.4099 17.7937C28.4099 17.6506 28.3698 17.5335 28.3211 17.533ZM28.1638 15.1287C28.1318 14.517 28.1185 14.4885 27.9519 14.6843C27.4113 15.3196 26.4728 17.0603 26.3484 17.658C26.3176 17.8058 26.2151 18.1743 26.1199 18.4773C25.8568 19.3152 25.9138 19.3437 26.325 18.5789C26.5303 18.1966 27.0077 17.524 27.3855 17.0847C27.763 16.6459 28.1006 16.1738 28.1355 16.0349C28.1702 15.8965 28.1826 15.4883 28.1638 15.1287ZM30.158 15.7674C30.1231 15.7325 30.0629 15.7869 30.0242 15.8884C29.9854 15.9899 29.8922 16.0728 29.8171 16.073C29.5454 16.073 29.1937 16.5856 29.1961 16.9783L29.198 17.364L29.4207 17.0838C29.5425 16.9293 29.7721 16.5844 29.9314 16.3172C30.0905 16.0502 30.1924 15.8027 30.158 15.7674ZM27.6043 7.25466C27.5698 7.22012 27.5077 7.2819 27.4656 7.39235C27.4049 7.55239 27.4175 7.56589 27.5281 7.45583C27.6045 7.37973 27.6384 7.28929 27.6043 7.25466Z" fill="#252525"/>
</svg>
