<svg width="72" height="42" viewBox="0 0 72 42" fill="none" xmlns="http://www.w3.org/2000/svg">
<rect width="72" height="42" fill="white"/>
<path fill-rule="evenodd" clip-rule="evenodd" d="M54.2443 16.3594L51.5009 18.5738L52.0446 18.6087C52.3437 18.6278 52.5884 18.6793 52.5885 18.7231C52.5885 18.7669 52.271 19.8746 51.8827 21.1846C51.0784 23.8985 51.0801 23.8962 49.8698 23.8962C49.173 23.8962 48.9255 23.7687 48.9255 23.4098C48.9255 23.239 50.0649 19.3071 50.2688 18.7741C50.3109 18.664 49.9664 18.631 48.7737 18.631C47.3966 18.631 47.2174 18.6533 47.1647 18.8313C47.1321 18.9415 46.7329 20.2678 46.2773 21.7787C45.1746 25.4367 45.1804 25.986 46.3318 26.9173L46.7712 27.2729L48.7408 27.3086C50.5268 27.341 50.7715 27.3214 51.3671 27.0985C52.2125 26.7823 53.234 25.8452 53.713 24.9464C54.059 24.2972 57.0975 14.4743 57.0222 14.2484C57.0032 14.1915 55.7531 15.1415 54.2443 16.3594ZM58.275 15.6264C58.0395 16.4291 57.8484 17.1245 57.8502 17.1716C57.852 17.2188 59.0061 17.2575 60.4149 17.2575C63.451 17.2575 63.3677 17.2242 63.065 18.3171C62.7141 19.5837 62.8129 19.5467 59.7835 19.5467C57.4146 19.5467 57.1654 19.5651 57.072 19.747C57.0154 19.8572 56.4936 21.5398 55.9124 23.4862C55.3311 25.4325 54.8293 27.0937 54.797 27.1776C54.75 27.3002 55.0545 27.3301 56.3483 27.3301H57.9581L58.2984 26.2141C58.4856 25.6002 58.8042 24.5486 59.0067 23.877L59.3746 22.6559L61.2754 22.6166C63.1486 22.5776 63.1859 22.5719 63.8662 22.2175C64.6855 21.7908 65.382 21.1434 65.8128 20.4082C66.2209 19.712 67.0111 17.0313 67.0079 16.3544C67.0052 15.7754 66.7091 15.0212 66.3643 14.715C65.7937 14.2084 65.4641 14.167 62.0021 14.167H58.7032L58.275 15.6264ZM20.8615 14.7107C20.7676 14.8208 19.9487 15.9842 19.0417 17.2958C17.1848 19.9812 17.2511 19.9525 17.231 18.0804L17.2196 17.0147L13.3565 17.0503L9.49343 17.0858L8.83493 17.3944C8.02866 17.7722 7.05573 18.6715 6.66267 19.4024C6.3004 20.076 5.08711 24.0843 5.00435 24.8813C4.89767 25.9078 5.32633 26.7321 6.16499 27.1131C6.55702 27.2911 6.92903 27.3255 8.4849 27.3276L10.338 27.3301L10.6369 26.3286C10.8013 25.7778 11.0104 25.0989 11.1016 24.8202C11.193 24.5413 11.2676 24.2967 11.2676 24.2765C11.2676 24.2562 10.6221 24.2396 9.83326 24.2396C8.63245 24.2396 8.38761 24.2102 8.32958 24.059C8.29146 23.9598 8.34618 23.7923 8.45125 23.687C8.60246 23.5355 8.94252 23.4837 10.0847 23.4384L11.5274 23.3812L11.8539 22.2938C12.0333 21.6957 12.1809 21.1435 12.1818 21.0669C12.1828 20.9664 11.7915 20.9183 10.7825 20.8952C9.5953 20.8679 9.37633 20.8346 9.346 20.6765C9.32643 20.5741 9.39499 20.4055 9.49846 20.302C9.66146 20.139 9.95791 20.118 11.7076 20.145L13.7285 20.1762L14.09 23.3239C14.2888 25.0552 14.4868 26.8001 14.53 27.2018C14.6054 27.9048 14.6158 27.9239 14.8094 27.7169C14.9947 27.5187 24.0536 14.9767 24.245 14.6535C24.3112 14.5417 23.9688 14.5104 22.681 14.5104C21.2522 14.5104 21.0095 14.537 20.8615 14.7107ZM34.3511 15.9284C34.1201 16.7084 33.931 17.4037 33.931 17.4737C33.931 17.5633 34.7115 17.6008 36.5713 17.6008C39.0322 17.6008 39.2077 17.6145 39.1524 17.8012C39.1198 17.9114 38.4725 20.0726 37.7139 22.6042C36.9553 25.1356 36.3347 27.2346 36.3347 27.2685C36.3347 27.3024 37.018 27.3301 37.8534 27.3301H39.3719L40.5616 23.3525C41.2158 21.1648 41.8736 18.9759 42.0232 18.4879L42.2954 17.6008H43.6025H44.9095L45.2642 16.4276C45.4593 15.7823 45.6675 15.105 45.7269 14.9226C45.7864 14.74 45.835 14.5726 45.835 14.5506C45.835 14.5285 43.3457 14.5104 40.3031 14.5104H34.7713L34.3511 15.9284ZM24.7768 17.212C23.9355 17.4381 23.3276 17.8109 22.6918 18.4907C21.9726 19.2596 21.819 19.6028 21.0411 22.1793C20.0882 25.3358 20.1265 26.2153 21.249 26.9585L21.7238 27.2729L26.0471 27.3054L30.3704 27.3379L30.7127 26.218C30.9009 25.6021 31.2446 24.4542 31.4765 23.6673C31.7085 22.8804 31.9705 22.1206 32.0588 21.979C32.2239 21.7141 32.7129 21.6245 32.8432 21.8352C32.8819 21.8979 32.5501 23.1577 32.1059 24.6351C31.6618 26.1124 31.2984 27.3489 31.2984 27.3829C31.2984 27.4167 31.9823 27.4446 32.8181 27.4446H34.3377L35.2504 24.3827C36.405 20.5089 36.4159 20.0297 35.37 19.1115C34.8699 18.6723 34.4579 18.5913 33.0414 18.6534C31.7356 18.7107 31.0673 18.9894 30.1271 19.8688C29.3349 20.6099 29.0548 21.2323 28.2491 24.0417C28.1957 24.2282 28.0114 24.2419 25.9483 24.2134C24.5237 24.1937 23.6911 24.1389 23.666 24.0634C23.6442 23.9978 23.7 23.8432 23.79 23.72C23.9335 23.5233 24.1342 23.4885 25.4156 23.4384L26.8775 23.3812L27.2447 22.1507L27.6119 20.9202H26.1894C25.0152 20.9202 24.7551 20.8896 24.6993 20.7443C24.6622 20.6475 24.7234 20.4672 24.8352 20.3437C25.0162 20.1436 25.1928 20.119 26.4445 20.119H27.8507L28.1495 19.1175C28.3139 18.5667 28.523 17.8878 28.6143 17.6091C28.7056 17.3303 28.7802 17.0857 28.7802 17.0654C28.7802 16.9396 25.3188 17.0664 24.7768 17.212Z" fill="#252525"/>
</svg>
