<svg width="115" height="42" viewBox="0 0 115 42" fill="none" xmlns="http://www.w3.org/2000/svg">
<rect width="115" height="42" fill="white"/>
<path d="M10.3682 30.0371H10.3408L10.3535 30.0195L10.3682 30.0371ZM17.4941 30.0371H17.4668L17.4795 30.0195L17.4941 30.0371ZM13.917 25.5371L10.3535 30.0195L3.1875 21.001H10.3135L13.917 25.5371ZM17.4795 30.0195L13.917 25.5371L17.5215 21.001H24.6475L17.4795 30.0195ZM10.3535 28.5635L12.7598 25.5361L9.5 21.4365H4.6875L10.3535 28.5635ZM15.0742 25.5371L17.4795 28.5635L23.0811 21.4365H18.2695L15.0742 25.5371ZM32.1719 16.4902C32.9576 16.4902 33.6782 16.6339 34.333 16.9219C34.9879 17.2013 35.5123 17.6031 35.9053 18.127L34.9883 19.1094C34.6566 18.6817 34.2506 18.3589 33.7705 18.1406C33.2902 17.9136 32.7569 17.7998 32.1719 17.7998C31.4997 17.7999 30.9017 17.9483 30.3779 18.2451C29.8541 18.5419 29.4434 18.9607 29.1465 19.502C28.8496 20.0345 28.7012 20.6462 28.7012 21.3359C28.7012 22.0258 28.8456 22.6462 29.1338 23.1963C29.4306 23.7375 29.8365 24.1652 30.3516 24.4795C30.8754 24.7851 31.4604 24.9384 32.1064 24.9385C32.9795 24.9385 33.6872 24.6939 34.2285 24.2051C34.7699 23.7161 35.0885 23.0432 35.1846 22.1875H31.9756V21.0088H36.6914V21.2051C36.6914 22.2702 36.4993 23.1828 36.1152 23.9424C35.731 24.7021 35.1888 25.274 34.4902 25.6582C33.8004 26.0511 33.0058 26.248 32.1064 26.248C31.2246 26.248 30.417 26.0293 29.6836 25.5928C28.9589 25.1562 28.3829 24.5624 27.9551 23.8115C27.5359 23.0606 27.3262 22.2353 27.3262 21.3359C27.3262 20.4367 27.536 19.6162 27.9551 18.874C28.3829 18.1318 28.9677 17.551 29.71 17.1318C30.4521 16.704 31.2726 16.4903 32.1719 16.4902ZM70.1123 16.4902C70.741 16.4902 71.3041 16.608 71.8018 16.8438C72.2995 17.0708 72.719 17.3894 73.0596 17.7998L72.1426 18.7168C71.837 18.3763 71.5272 18.1269 71.2129 17.9697C70.8985 17.8126 70.5314 17.7344 70.1123 17.7344C69.6146 17.7344 69.2168 17.8482 68.9199 18.0752C68.6234 18.2935 68.4746 18.5945 68.4746 18.9785C68.4746 19.2754 68.5577 19.5247 68.7236 19.7256C68.8895 19.9263 69.0954 20.0877 69.3398 20.21C69.593 20.3234 69.9377 20.4591 70.374 20.6162C70.9677 20.8345 71.4438 21.0394 71.8018 21.2314C72.1684 21.4235 72.4783 21.7028 72.7314 22.0693C72.9934 22.436 73.125 22.9121 73.125 23.4971C73.125 24.3528 72.8321 25.0257 72.2471 25.5146C71.6621 26.0035 70.8632 26.248 69.8506 26.248C69.1171 26.248 68.4749 26.1085 67.9248 25.8291C67.3747 25.5584 66.8819 25.1517 66.4453 24.6104L67.4268 23.6934C67.7586 24.13 68.1168 24.4496 68.501 24.6504C68.8939 24.8425 69.3659 24.9385 69.916 24.9385C70.4835 24.9384 70.9289 24.8247 71.252 24.5977C71.5837 24.3706 71.75 24.047 71.75 23.6279C71.7499 23.2963 71.6579 23.021 71.4746 22.8027C71.3 22.5758 71.0812 22.3975 70.8193 22.2666C70.5575 22.1357 70.191 21.9782 69.7197 21.7949C69.161 21.6029 68.7067 21.4148 68.3574 21.2314C68.0081 21.0393 67.7113 20.7682 67.4668 20.4189C67.2223 20.0697 67.0996 19.6115 67.0996 19.0439C67.0996 18.5113 67.2312 18.0531 67.4932 17.6689C67.7551 17.2848 68.1125 16.9918 68.5664 16.791C69.0205 16.5902 69.536 16.4902 70.1123 16.4902ZM80.1631 16.4902C80.8703 16.4902 81.5166 16.612 82.1016 16.8564C82.6865 17.0922 83.1972 17.4287 83.6338 17.8652L82.6523 18.8477C82.3555 18.5158 81.9923 18.2586 81.5645 18.0752C81.1453 17.8918 80.6782 17.7998 80.1631 17.7998C79.517 17.7998 78.9321 17.9483 78.4082 18.2451C77.8932 18.5419 77.4873 18.9608 77.1904 19.502C76.9023 20.0345 76.7578 20.6462 76.7578 21.3359C76.7578 22.0258 76.9023 22.6462 77.1904 23.1963C77.4873 23.7375 77.8931 24.1652 78.4082 24.4795C78.9321 24.7851 79.517 24.9384 80.1631 24.9385C80.6957 24.9385 81.1766 24.8425 81.6045 24.6504C82.0323 24.4496 82.4035 24.1744 82.7178 23.8252L83.7002 24.8066C83.2549 25.252 82.7344 25.6013 82.1406 25.8545C81.5469 26.1164 80.8878 26.248 80.1631 26.248C79.2638 26.248 78.4473 26.0293 77.7139 25.5928C76.9893 25.165 76.4171 24.576 75.998 23.8252C75.5876 23.0742 75.3828 22.2441 75.3828 21.3359C75.3828 20.428 75.5878 19.6074 75.998 18.874C76.4172 18.1318 76.9892 17.551 77.7139 17.1318C78.4473 16.704 79.2638 16.4903 80.1631 16.4902ZM42.9512 16.6221C43.5535 16.6221 44.0821 16.7359 44.5361 16.9629C44.9901 17.1899 45.3395 17.5086 45.584 17.9189C45.8372 18.3206 45.9639 18.7837 45.9639 19.3076C45.9639 20.041 45.7362 20.6477 45.2822 21.1279C44.8282 21.5995 44.182 21.8656 43.3438 21.9268L46.6182 26.1182H44.916L41.707 21.9268H40.79V26.1182H39.4141V16.6221H42.9512ZM56.7852 26.1182H55.2783L54.3613 23.8916H50.3008L49.3848 26.1182H47.9434L51.7422 16.6221H52.9209L56.7852 26.1182ZM61.417 20.6172L63.9717 16.6221H65.543L62.1377 21.9268V26.1182H60.6973V21.9268L57.2256 16.6221H58.7979L61.417 20.6172ZM94.1846 26.1182H92.6787L91.7617 23.8916H87.7012L86.7842 26.1182H85.3438L89.1426 16.6221H90.3213L94.1846 26.1182ZM98.0859 24.8086H102.671L102.736 26.1182H97.1689C97.0032 26.1181 96.8852 26.0835 96.8154 26.0137C96.7457 25.9438 96.7109 25.8259 96.7109 25.6602V16.6221H98.0859V24.8086ZM111.683 17.8672H106.705V20.6172H111.29V21.8613H106.705V24.8086H111.683L111.813 26.1182H105.789C105.623 26.1182 105.504 26.0835 105.435 26.0137C105.365 25.9438 105.33 25.8258 105.33 25.6602V16.6221H111.683V17.8672ZM50.6943 22.7129H53.9033L52.3311 18.5869L50.6943 22.7129ZM88.0947 22.7129H91.3037L89.7314 18.5869L88.0947 22.7129ZM24.6484 21H17.5225L15.4404 18.3799L19.0146 13.9121L24.6484 21ZM10.3135 20.999H3.1875L10.3682 11.9629H17.4941L10.3135 20.999ZM40.79 20.8789H42.8857C43.4355 20.8788 43.8545 20.7441 44.1426 20.4736C44.4395 20.1942 44.5879 19.8053 44.5879 19.3076C44.5879 18.8448 44.4395 18.4777 44.1426 18.207C43.8545 17.9366 43.4355 17.8018 42.8857 17.8018H40.79V20.8789ZM4.82715 20.3984H9.63965L15.6172 12.8682H10.8047L4.82715 20.3984ZM16.5986 18.3809L18.167 20.3906H22.9785L19.0127 15.3643L16.5986 18.3809Z" fill="black"/>
</svg>
