<svg width="272" height="161" viewBox="0 0 272 161" fill="none" xmlns="http://www.w3.org/2000/svg">
<path d="M15.9697 3.90318V4.03184L15.0691 4.11225C14.7796 4.1337 14.5813 4.18731 14.4741 4.27308C14.3668 4.34813 14.2757 4.50895 14.2007 4.75555L11.0003 15.2573H10.743L7.92854 7.24831L5.48403 15.2573H5.22671L1.3187 4.1605L-5.17477e-05 4.03184L-5.17477e-05 3.90318L4.02053 3.90318V4.03184L2.62137 4.1605L5.78959 13.1988H5.85392L7.7838 6.86234L6.83494 4.1605L5.51619 4.03184V3.90318L9.53678 3.90318V4.03184L8.13761 4.1605L11.3058 13.1988H11.3702L13.9433 4.75555C13.9755 4.63761 13.9916 4.53576 13.9916 4.44998C13.9916 4.33205 13.9594 4.25164 13.8951 4.20875C13.8308 4.15514 13.7075 4.12298 13.5252 4.11225L12.5442 4.03184V3.90318L15.9697 3.90318ZM27.6023 4.1605L27.6023 14.7427L29.0014 14.8713V15L25.0452 15V14.8713L26.3639 14.7427L26.3639 4.94854H26.2996L22.4238 15.2573H22.2629L17.9368 4.93245H17.8725L17.8725 14.019C17.8725 14.2763 17.9046 14.4586 17.9689 14.5658C18.0333 14.6623 18.1619 14.7212 18.3549 14.7427L19.4968 14.8713V15L15.9747 15V14.8713L17.1327 14.7427C17.3257 14.7212 17.4543 14.6623 17.5186 14.5658C17.583 14.4586 17.6151 14.2763 17.6151 14.019L17.6151 4.36957C17.5401 4.24091 17.4436 4.15514 17.3257 4.11225C17.2184 4.05865 17.0576 4.03184 16.8432 4.03184L16.1034 4.03184V3.90318L18.8535 3.90318L22.8097 13.3435H22.8741L26.4122 3.90318L29.0014 3.90318V4.03184L27.6023 4.1605ZM40.3892 14.8713V15L36.4491 15V14.8713L37.7678 14.7105L36.2561 10.5934L32.3641 10.5934L31.0293 14.1476C30.9864 14.2656 30.965 14.3621 30.965 14.4371C30.965 14.5551 30.9972 14.6408 31.0615 14.6944C31.1365 14.7373 31.2652 14.7695 31.4475 14.7909L32.4285 14.8713V15L29.0029 15V14.8713L29.9036 14.7909C30.1716 14.7695 30.3592 14.7159 30.4664 14.6301C30.5844 14.5443 30.6862 14.3835 30.772 14.1476L34.7122 3.64587L35.0017 3.64587L39.0544 14.7105L40.3892 14.8713ZM36.1596 10.3361L34.3584 5.43101H34.294L32.4606 10.3361L36.1596 10.3361ZM51.0068 14.8713V15L48.6106 15L44.2523 9.24252L43.3517 10.2718L43.3517 14.7427L44.7508 14.8713V15L40.7946 15V14.8713L42.1133 14.7427L42.1133 4.1605L40.7946 4.03184V3.90318L44.7508 3.90318V4.03184L43.3517 4.1605L43.3517 9.98231L47.7261 4.93245C47.8976 4.72874 47.9834 4.56256 47.9834 4.4339C47.9834 4.32669 47.8976 4.24627 47.7261 4.19267C47.5652 4.13906 47.2329 4.08545 46.7289 4.03184V3.90318L50.0097 3.90318V4.03184C49.3879 4.13906 48.9644 4.24091 48.7392 4.33741C48.5248 4.4339 48.2943 4.62153 48.0477 4.90029L45.1046 8.27758L49.7524 14.3567C49.9347 14.5604 50.1009 14.6998 50.251 14.7748C50.4118 14.8392 50.6423 14.8713 50.9425 14.8713H51.0068ZM66.8801 13.3596L66.8158 13.5365C66.6121 14.094 66.2904 14.5336 65.8508 14.8553C65.422 15.1662 64.9288 15.3216 64.3713 15.3216C63.9531 15.3216 63.5672 15.2198 63.2133 15.0161C62.8703 14.8124 62.4896 14.4693 62.0715 13.9868L61.782 13.6491C60.667 14.7641 59.4394 15.3216 58.0992 15.3216C57.1021 15.3216 56.3301 15.0911 55.7833 14.6301C55.2365 14.1584 54.9631 13.4936 54.9631 12.6359C54.9631 11.8425 55.2151 11.1456 55.719 10.5452C56.2229 9.94478 56.952 9.4784 57.9062 9.14603L57.7614 8.9852C57.2682 8.41696 56.9198 7.93985 56.7161 7.55388C56.5231 7.15718 56.4266 6.75512 56.4266 6.3477C56.4266 5.83307 56.5499 5.37204 56.7965 4.96462C57.0538 4.54648 57.4076 4.22483 57.8579 3.99968C58.3082 3.7638 58.8175 3.64587 59.3857 3.64587C60.1255 3.64587 60.7259 3.83886 61.187 4.22483C61.648 4.60009 61.8785 5.09328 61.8785 5.70441C61.8785 6.32626 61.6319 6.9213 61.1387 7.48955C60.6563 8.04707 60.013 8.48129 59.2088 8.79222L62.4736 12.5072C63.1276 11.6924 63.6529 10.7489 64.0496 9.67674C64.0925 9.55881 64.114 9.46767 64.114 9.40335C64.114 9.28541 64.0764 9.19964 64.0014 9.14603C63.9371 9.0817 63.8138 9.04417 63.6315 9.03345L62.3288 8.95304V8.82438L66.3976 8.82438V8.95304L65.1754 9.03345C64.9074 9.04417 64.7197 9.09242 64.6125 9.17819C64.516 9.25324 64.4142 9.41943 64.3069 9.67674C63.7923 10.8883 63.2294 11.8854 62.6183 12.6681L62.9721 13.0701C63.4117 13.5633 63.7709 13.901 64.0496 14.0833C64.3284 14.2656 64.6447 14.3567 64.9985 14.3567C65.3094 14.3567 65.5882 14.2924 65.8348 14.1637C66.0921 14.0351 66.3655 13.8153 66.655 13.5043L66.8158 13.3274L66.8801 13.3596ZM57.5524 5.65616C57.5524 6.09574 57.6757 6.55677 57.9223 7.03924C58.1689 7.52171 58.5602 8.06315 59.0963 8.66356L59.1123 8.67964C60.2381 8.05779 60.801 7.13574 60.801 5.91348C60.801 5.28091 60.6509 4.77699 60.3507 4.40174C60.0612 4.02648 59.6699 3.83886 59.1767 3.83886C58.7049 3.83886 58.3136 4.0104 58.0027 4.35349C57.7025 4.68586 57.5524 5.12008 57.5524 5.65616ZM58.6781 14.7427C59.1606 14.7427 59.6484 14.6301 60.1416 14.405C60.6348 14.1798 61.1173 13.8582 61.589 13.44L58.0027 9.27469C57.4988 9.58561 57.1074 10.0038 56.8287 10.5291C56.5499 11.0437 56.4105 11.612 56.4105 12.2338C56.4105 12.9951 56.6142 13.6062 57.0216 14.0672C57.4398 14.5175 57.9919 14.7427 58.6781 14.7427ZM79.8322 7.10357L79.7035 7.11965L78.7386 4.69122C78.6421 4.44462 78.5349 4.2838 78.4169 4.20875C78.3097 4.1337 78.1275 4.09617 77.8701 4.09617L74.6054 4.09617L74.6054 9.03345L76.9374 9.03345C77.1947 9.03345 77.3769 8.99057 77.4842 8.90479C77.5914 8.81902 77.6664 8.65284 77.7093 8.40624L77.9827 7.10357H78.1757V11.2206H77.9827L77.7093 9.91798C77.6664 9.67138 77.5914 9.5052 77.4842 9.41943C77.3769 9.33366 77.1947 9.29077 76.9374 9.29077L74.6054 9.29077L74.6054 14.7427L76.1815 14.8713V15L72.0483 15V14.8713L73.3671 14.7427L73.3671 4.1605L72.0483 4.03184V3.90318L79.5749 3.90318L79.8322 7.10357ZM84.0019 8.02026C84.2163 8.02026 84.3986 8.09532 84.5487 8.24542C84.6988 8.3848 84.7739 8.55634 84.7739 8.76005C84.7739 8.9316 84.7149 9.07634 84.597 9.19427C84.479 9.31221 84.3343 9.37118 84.1627 9.37118C84.0555 9.37118 83.9644 9.34974 83.8893 9.30685C83.825 9.25324 83.7553 9.17819 83.6803 9.0817C83.6052 8.99593 83.5355 8.9316 83.4712 8.88871C83.4176 8.84582 83.3479 8.82438 83.2621 8.82438C83.0906 8.82438 82.9137 8.92624 82.7314 9.12995C82.5599 9.33366 82.4366 9.56953 82.3615 9.83757L82.3615 14.7427L83.6481 14.8713V15L80.3351 15V14.8713L81.3162 14.7427L81.3162 9.11386L80.3673 8.76005V8.64748L82.1846 8.02026H82.3133V9.43551C82.9137 8.49201 83.4766 8.02026 84.0019 8.02026ZM90.9127 13.1666L90.977 13.1988L90.9127 13.3757C90.6982 13.9439 90.3766 14.3835 89.9477 14.6944C89.5296 15.0054 89.0257 15.1608 88.436 15.1608C87.857 15.1608 87.3424 15.0107 86.8921 14.7105C86.4418 14.4103 86.088 13.9922 85.8306 13.4561C85.5841 12.92 85.4608 12.3035 85.4608 11.6066C85.4608 10.9097 85.5948 10.2879 85.8628 9.74107C86.1309 9.19427 86.5115 8.77077 87.0047 8.47057C87.4978 8.17037 88.0607 8.02026 88.6933 8.02026C89.4438 8.02026 90.0174 8.24542 90.4141 8.69572C90.8215 9.13531 91.0306 9.7786 91.0413 10.6256L90.9448 10.706L86.6026 10.706C86.5812 10.9848 86.5704 11.2046 86.5704 11.3654C86.5704 12.3411 86.7688 13.0862 87.1655 13.6008C87.5622 14.1047 88.1143 14.3567 88.822 14.3567C89.1865 14.3567 89.5349 14.2763 89.8673 14.1155C90.2104 13.9439 90.5106 13.692 90.7679 13.3596L90.9127 13.1666ZM88.5164 8.19717C88.0125 8.19717 87.5943 8.40624 87.262 8.82438C86.9296 9.24252 86.7152 9.81076 86.6187 10.5291L89.7387 10.4165C89.7708 10.2879 89.7869 10.0734 89.7869 9.77324C89.7869 9.19427 89.6743 8.78686 89.4492 8.55098C89.2347 8.31511 88.9238 8.19717 88.5164 8.19717ZM97.7131 13.1666L97.7774 13.1988L97.7131 13.3757C97.4987 13.9439 97.177 14.3835 96.7482 14.6944C96.33 15.0054 95.8261 15.1608 95.2364 15.1608C94.6575 15.1608 94.1428 15.0107 93.6925 14.7105C93.2422 14.4103 92.8884 13.9922 92.6311 13.4561C92.3845 12.92 92.2612 12.3035 92.2612 11.6066C92.2612 10.9097 92.3952 10.2879 92.6632 9.74107C92.9313 9.19427 93.3119 8.77077 93.8051 8.47057C94.2983 8.17037 94.8612 8.02026 95.4937 8.02026C96.2443 8.02026 96.8179 8.24542 97.2146 8.69572C97.622 9.13531 97.831 9.7786 97.8418 10.6256L97.7453 10.706L93.403 10.706C93.3816 10.9848 93.3709 11.2046 93.3709 11.3654C93.3709 12.3411 93.5692 13.0862 93.9659 13.6008C94.3626 14.1047 94.9148 14.3567 95.6224 14.3567C95.9869 14.3567 96.3354 14.2763 96.6678 14.1155C97.0108 13.9439 97.311 13.692 97.5684 13.3596L97.7131 13.1666ZM95.3168 8.19717C94.8129 8.19717 94.3948 8.40624 94.0624 8.82438C93.73 9.24252 93.5156 9.81076 93.4191 10.5291L96.5391 10.4165C96.5713 10.2879 96.5873 10.0734 96.5873 9.77324C96.5873 9.19427 96.4748 8.78686 96.2496 8.55098C96.0352 8.31511 95.7243 8.19717 95.3168 8.19717ZM98.8043 8.34191L100.573 6.63718L100.638 6.65326V8.18109L102.471 8.18109L102.375 8.4384L100.638 8.4384L100.638 13.3596C100.638 13.7349 100.697 14.0136 100.815 14.1959C100.943 14.4532 101.185 14.5819 101.538 14.5819C101.71 14.5819 101.876 14.539 102.037 14.4532C102.198 14.3674 102.375 14.228 102.568 14.0351L102.632 14.0833C102.471 14.4157 102.241 14.6784 101.94 14.8713C101.651 15.0643 101.34 15.1608 101.008 15.1608C100.665 15.1608 100.359 15.0643 100.091 14.8713C99.9086 14.7427 99.78 14.5765 99.7049 14.3728C99.6299 14.1691 99.5924 13.901 99.5924 13.5687L99.5924 8.42232L98.8365 8.42232L98.8043 8.34191ZM103.976 5.15761C103.837 5.29699 103.767 5.47925 103.767 5.70441C103.767 5.92956 103.837 6.11719 103.976 6.26729C104.126 6.40667 104.314 6.47636 104.539 6.47636C104.764 6.47636 104.946 6.40667 105.086 6.26729C105.236 6.11719 105.311 5.92956 105.311 5.70441C105.311 5.47925 105.236 5.29699 105.086 5.15761C104.946 5.00751 104.764 4.93245 104.539 4.93245C104.314 4.93245 104.126 5.00751 103.976 5.15761ZM105.15 8.02026L105.15 14.7427L106.131 14.8713V15L103.124 15V14.8713L104.105 14.7427L104.105 9.11386L103.156 8.76005V8.64748L105.021 8.02026H105.15ZM110.369 3.21164C110.787 3.21164 111.152 3.30814 111.463 3.50113C111.774 3.68339 111.929 3.90318 111.929 4.1605C111.929 4.32133 111.87 4.46071 111.752 4.57864C111.634 4.68586 111.495 4.73947 111.334 4.73947C111.162 4.73947 111.023 4.68586 110.916 4.57864C110.819 4.47143 110.75 4.30524 110.707 4.08009C110.642 3.81205 110.567 3.63515 110.482 3.54937C110.407 3.4636 110.278 3.42071 110.096 3.42071C109.613 3.42071 109.259 3.69948 109.034 4.257C108.948 4.48215 108.889 4.74483 108.857 5.04503C108.825 5.33451 108.809 5.7741 108.809 6.36378V8.18109L110.305 8.18109L110.224 8.4384L108.809 8.4384L108.809 14.7105L110.208 14.8713V15L106.783 15V14.8713L107.764 14.7427L107.764 8.4384L106.686 8.4384L106.767 8.18109L107.764 8.18109V7.24831C107.764 6.46564 107.774 5.91884 107.796 5.60791C107.828 5.29699 107.882 5.03967 107.957 4.83596C108.139 4.36421 108.455 3.97824 108.906 3.67803C109.356 3.36711 109.844 3.21164 110.369 3.21164ZM117.392 14.1959V14.2763L115.639 15.0804H115.543V13.9868L115.494 13.9707C114.862 14.7641 114.181 15.1608 113.452 15.1608C113.12 15.1608 112.825 15.0911 112.567 14.9518C112.31 14.8124 112.122 14.6194 112.005 14.3728C111.929 14.2334 111.881 14.0458 111.86 13.8099C111.838 13.5633 111.828 13.1398 111.828 12.5394L111.828 8.4384L110.863 8.30975V8.18109L112.873 8.18109L112.873 12.5394C112.873 12.9683 112.884 13.2846 112.905 13.4883C112.927 13.6812 112.969 13.8474 113.034 13.9868C113.109 14.1584 113.232 14.2977 113.404 14.405C113.586 14.5014 113.79 14.5497 114.015 14.5497C114.283 14.5497 114.54 14.4854 114.787 14.3567C115.033 14.2173 115.259 14.019 115.462 13.7617L115.462 8.4384L114.497 8.30975V8.18109L116.508 8.18109L116.508 14.0029L117.392 14.1959ZM120.068 3.40463L120.068 14.7427L121.049 14.8713V15L118.041 15V14.8713L119.022 14.7427L119.022 4.49823L118.073 4.14442L118.073 4.03184L119.939 3.40463H120.068Z" fill="#383838"/>
<path d="M1.28324 43.761L4.12478 41.0522C7.71875 37.6353 9.51573 34.2803 9.51573 30.9873C9.51573 29.6064 9.21476 28.553 8.61282 27.8271C8.02857 27.0835 7.18762 26.7118 6.08995 26.7118C5.22244 26.7118 4.44345 26.9331 3.75299 27.3757C3.06252 27.8006 2.50483 28.4114 2.07993 29.2081L1.84092 29.0753C2.30123 27.9245 3.01826 27.0039 3.99199 26.3134C4.98343 25.6052 6.0634 25.2511 7.23188 25.2511C8.1525 25.2511 8.97575 25.4725 9.70163 25.9151C10.4275 26.3577 10.994 26.9685 11.4012 27.7475C11.8084 28.5264 12.012 29.4117 12.012 30.4031C12.012 31.607 11.6314 32.8374 10.8701 34.0944C10.1088 35.3337 8.81641 36.8829 6.99287 38.7418L3.8061 41.9552L9.94064 41.9552C10.4541 41.9552 10.8347 41.8755 11.0826 41.7161C11.3304 41.5568 11.5163 41.2293 11.6402 40.7336L12.1448 38.7949L12.3573 38.848L11.7465 44L1.3629 44L1.28324 43.761ZM18.7246 26.5259C19.7692 25.6761 20.9111 25.2511 22.1504 25.2511C23.3897 25.2511 24.5228 25.6761 25.5496 26.5259C26.5942 27.3757 27.4174 28.5353 28.0194 30.0048C28.6213 31.4742 28.9223 33.0853 28.9223 34.838C28.9223 36.5908 28.6213 38.2018 28.0194 39.6713C27.4174 41.1408 26.5942 42.3004 25.5496 43.1502C24.5228 44 23.3897 44.4249 22.1504 44.4249C20.9111 44.4249 19.7692 44 18.7246 43.1502C17.6977 42.3004 16.8833 41.1408 16.2814 39.6713C15.6795 38.2018 15.3785 36.5908 15.3785 34.838C15.3785 33.0853 15.6795 31.4742 16.2814 30.0048C16.8833 28.5353 17.6977 27.3757 18.7246 26.5259ZM18.9636 27.8537C18.2731 29.3762 17.9279 31.7044 17.9279 34.838C17.9279 37.9717 18.2731 40.2998 18.9636 41.8224C19.6718 43.3449 20.734 44.1062 22.1504 44.1062C23.5667 44.1062 24.6201 43.3449 25.3106 41.8224C26.0188 40.2998 26.3729 37.9717 26.3729 34.838C26.3729 31.7044 26.0188 29.3762 25.3106 27.8537C24.6201 26.3311 23.5667 25.5698 22.1504 25.5698C20.734 25.5698 19.6718 26.3311 18.9636 27.8537ZM31.3408 43.761L34.1823 41.0522C37.7763 37.6353 39.5733 34.2803 39.5733 30.9873C39.5733 29.6064 39.2723 28.553 38.6704 27.8271C38.0861 27.0835 37.2452 26.7118 36.1475 26.7118C35.28 26.7118 34.501 26.9331 33.8105 27.3757C33.1201 27.8006 32.5624 28.4114 32.1375 29.2081L31.8985 29.0753C32.3588 27.9245 33.0758 27.0039 34.0495 26.3134C35.041 25.6052 36.1209 25.2511 37.2894 25.2511C38.21 25.2511 39.0333 25.4725 39.7592 25.9151C40.485 26.3577 41.0516 26.9685 41.4588 27.7475C41.866 28.5264 42.0696 29.4117 42.0696 30.4031C42.0696 31.607 41.6889 32.8374 40.9277 34.0944C40.1664 35.3337 38.874 36.8829 37.0504 38.7418L33.8636 41.9552L39.9982 41.9552C40.5116 41.9552 40.8922 41.8755 41.1401 41.7161C41.388 41.5568 41.5739 41.2293 41.6978 40.7336L42.2024 38.7949L42.4148 38.848L41.804 44L31.4204 44L31.3408 43.761ZM47.3746 32.3683C47.9412 32.2266 48.4103 32.1293 48.7821 32.0762C49.1539 32.0053 49.5257 31.9699 49.8975 31.9699C51.0837 31.9699 52.1194 32.2089 53.0046 32.687C53.9075 33.165 54.6069 33.8466 55.1026 34.7318C55.5983 35.5993 55.8462 36.6085 55.8462 37.7592C55.8462 38.9808 55.5717 40.1051 55.0229 41.1319C54.4741 42.141 53.7128 42.9466 52.739 43.5485C51.783 44.1328 50.7296 44.4249 49.5788 44.4249C48.7644 44.4249 47.9943 44.2833 47.2684 44C46.5602 43.699 45.9849 43.3095 45.5423 42.8315C45.0996 42.3535 44.8783 41.8489 44.8783 41.3178C44.8783 40.9283 44.9846 40.6185 45.197 40.3883C45.4272 40.1582 45.7281 40.0431 46.0999 40.0431C46.5425 40.0431 46.8612 40.1936 47.056 40.4945C47.2507 40.7778 47.4366 41.2116 47.6137 41.7958C47.8438 42.5217 48.1182 43.0794 48.4369 43.4689C48.7556 43.8584 49.269 44.0531 49.9772 44.0531C51.0394 44.0531 51.8981 43.5839 52.5532 42.6456C53.2082 41.7073 53.5357 40.4768 53.5357 38.9543C53.5357 37.3609 53.164 36.1039 52.4204 35.1833C51.6768 34.2626 50.6588 33.8023 49.3664 33.8023C48.4103 33.8023 47.534 34.1121 46.7373 34.7318L46.6311 34.7052L47.9058 25.6761L54.837 25.6761C54.9963 25.4636 55.1645 25.1715 55.3416 24.7997L55.5275 24.8528L54.6777 27.6678L48.012 27.6678L47.3746 32.3683ZM79.2766 25.6761V25.8885L77.7895 26.0213C77.3646 26.0567 77.0636 26.1452 76.8865 26.2868C76.7272 26.4108 76.5502 26.6763 76.3554 27.0835L71.7346 36.7235L71.7346 43.5751L74.045 43.7875V44L67.3793 44V43.7875L69.6897 43.5751L69.6897 36.8563L63.927 26.101L61.7494 25.8885V25.6761L68.3619 25.6761V25.8885L66.0515 26.101L71.4425 36.1658H71.5752L75.9305 27.0835C76.0013 26.9242 76.0367 26.756 76.0367 26.579C76.0367 26.4019 75.9748 26.2691 75.8508 26.1806C75.7269 26.0921 75.5233 26.039 75.24 26.0213L73.6201 25.8885V25.6761L79.2766 25.6761ZM85.4458 40.9726L85.552 41.0257L85.4458 41.3178C85.0917 42.2561 84.5606 42.982 83.8524 43.4954C83.1619 44.0089 82.3298 44.2656 81.3561 44.2656C80.4001 44.2656 79.5503 44.0177 78.8067 43.522C78.0631 43.0263 77.4789 42.3358 77.054 41.4506C76.6468 40.5654 76.4432 39.5474 76.4432 38.3966C76.4432 37.2458 76.6645 36.219 77.1071 35.316C77.5497 34.4131 78.1782 33.7138 78.9926 33.2181C79.807 32.7224 80.7365 32.4745 81.781 32.4745C83.0203 32.4745 83.9675 32.8463 84.6225 33.5899C85.2953 34.3157 85.6405 35.378 85.6583 36.7766L85.4989 36.9094L78.3287 36.9094C78.2933 37.3697 78.2756 37.7327 78.2756 37.9982C78.2756 39.6093 78.6031 40.8398 79.2581 41.6896C79.9132 42.5217 80.825 42.9377 81.9935 42.9377C82.5954 42.9377 83.1708 42.805 83.7196 42.5394C84.2862 42.2561 84.7819 41.8401 85.2068 41.2912L85.4458 40.9726ZM81.4889 32.7666C80.6568 32.7666 79.9663 33.1119 79.4175 33.8023C78.8687 34.4928 78.5146 35.4311 78.3552 36.6173L83.5072 36.4314C83.5603 36.219 83.5868 35.8649 83.5868 35.3692C83.5868 34.4131 83.401 33.7404 83.0292 33.3509C82.6751 32.9614 82.1617 32.7666 81.4889 32.7666ZM90.0627 44.1859C89.3899 44.1859 88.8322 43.9557 88.3896 43.4954C87.9647 43.0174 87.7523 42.4066 87.7523 41.663C87.7523 40.7778 88.1506 40.0696 88.9473 39.5385C89.7617 39.0074 91.1338 38.5471 93.0636 38.1576V35.7409C93.0636 34.7141 92.9485 34.0059 92.7183 33.6164C92.4882 33.2092 92.0898 33.0056 91.5233 33.0056C90.9745 33.0056 90.5318 33.1561 90.1955 33.4571C89.8591 33.7404 89.6909 34.1299 89.6909 34.6256L89.7174 35.3426C89.7174 35.7852 89.6289 36.1393 89.4519 36.4049C89.2925 36.6527 89.0624 36.7766 88.7614 36.7766C88.4959 36.7766 88.2745 36.6881 88.0975 36.5111C87.9382 36.334 87.8585 36.1039 87.8585 35.8206C87.8585 35.3957 88.0621 34.9354 88.4693 34.4397C88.8942 33.9263 89.4342 33.5014 90.0892 33.165C90.8859 32.7224 91.7092 32.5011 92.559 32.5011C93.0547 32.5011 93.4708 32.5984 93.8071 32.7932C94.1612 32.9879 94.4179 33.2623 94.5773 33.6164C94.6658 33.8466 94.7189 34.1299 94.7366 34.4662C94.772 34.8026 94.7897 35.4488 94.7897 36.4049L94.7897 41.4771C94.7897 42.1145 94.8517 42.5571 94.9756 42.805C95.0996 43.0351 95.3209 43.1502 95.6395 43.1502C96.1176 43.1502 96.4716 42.982 96.7018 42.6456L96.808 42.6987C96.5956 43.1413 96.3123 43.4866 95.9582 43.7344C95.6041 43.9646 95.2235 44.0797 94.8163 44.0797C94.356 44.0797 93.9753 43.9469 93.6744 43.6813C93.3734 43.3981 93.2052 43.0263 93.1698 42.566L93.0901 42.5394C92.6829 43.0528 92.2138 43.46 91.6826 43.761C91.1515 44.0443 90.6115 44.1859 90.0627 44.1859ZM91.2046 43.1768C91.5764 43.1768 91.9216 43.0971 92.2403 42.9377C92.5767 42.7607 92.8511 42.5128 93.0636 42.1942L93.0636 38.4497C92.1429 38.6799 91.4259 38.91 90.9125 39.1402C90.4168 39.3703 90.0627 39.6447 89.8502 39.9634C89.6378 40.2821 89.5316 40.6804 89.5316 41.1585C89.5316 41.7781 89.682 42.2738 89.983 42.6456C90.284 42.9997 90.6912 43.1768 91.2046 43.1768ZM103.703 32.4745C104.057 32.4745 104.358 32.5984 104.606 32.8463C104.854 33.0764 104.977 33.3597 104.977 33.6961C104.977 33.9794 104.88 34.2184 104.685 34.4131C104.491 34.6079 104.252 34.7052 103.968 34.7052C103.791 34.7052 103.641 34.6698 103.517 34.599C103.411 34.5105 103.296 34.3866 103.172 34.2272C103.048 34.0856 102.933 33.9794 102.826 33.9085C102.738 33.8377 102.623 33.8023 102.481 33.8023C102.198 33.8023 101.906 33.9705 101.605 34.3069C101.322 34.6433 101.118 35.0328 100.994 35.4754L100.994 43.5751L103.118 43.7875V44L97.6479 44V43.7875L99.2678 43.5751L99.2678 34.2803L97.701 33.6961V33.5102L100.702 32.4745H100.914V34.8115C101.906 33.2535 102.835 32.4745 103.703 32.4745ZM112.203 38.2638L106.361 38.2638L106.547 37.6796L112.389 37.6796L112.203 38.2638ZM128.606 38.4231L127.942 44L114.929 44V43.7875L117.107 43.5751L117.107 26.101L114.929 25.8885V25.6761L127.968 25.6761L128.34 30.6687L128.075 30.6952L126.588 26.9773C126.428 26.5701 126.251 26.3046 126.056 26.1806C125.879 26.0567 125.578 25.9947 125.153 25.9947L119.152 25.9947L119.152 34.1476L123.082 34.1476C123.507 34.1476 123.808 34.0767 123.985 33.9351C124.162 33.7935 124.286 33.5191 124.357 33.1119L124.808 30.9608H125.127L125.127 37.7592H124.808L124.357 35.6082C124.286 35.201 124.162 34.9265 123.985 34.7849C123.808 34.6433 123.507 34.5725 123.082 34.5725L119.152 34.5725L119.152 43.6813L125.1 43.6813C125.525 43.6813 125.835 43.6194 126.03 43.4954C126.225 43.3538 126.402 43.0882 126.561 42.6987L128.314 38.3966L128.606 38.4231ZM141.738 43.7875L141.738 44L136.799 44L136.799 43.7875L138.419 43.5751V36.8032C138.419 36.1127 138.401 35.5993 138.366 35.2629C138.33 34.9265 138.26 34.6433 138.153 34.4131C138.012 34.1121 137.773 33.882 137.436 33.7227C137.118 33.5456 136.746 33.4571 136.321 33.4571C135.418 33.4571 134.612 33.8377 133.904 34.599V43.5751L135.524 43.7875L135.524 44H130.558L130.558 43.7875L132.178 43.5751V34.4131L130.611 33.8289V33.643L133.612 32.6073H133.825V34.2803C134.958 33.0764 136.144 32.4745 137.383 32.4745C137.932 32.4745 138.428 32.5984 138.87 32.8463C139.331 33.0764 139.658 33.3863 139.853 33.7758C139.977 34.0059 140.057 34.3246 140.092 34.7318C140.127 35.1213 140.145 35.8118 140.145 36.8032V43.5751L141.738 43.7875ZM149.491 43.761C148.924 44.0974 148.304 44.2656 147.632 44.2656C146.8 44.2656 146.047 44.0177 145.374 43.522C144.702 43.0263 144.17 42.3535 143.781 41.5037C143.409 40.6362 143.223 39.6624 143.223 38.5825C143.223 37.3963 143.453 36.3429 143.914 35.4223C144.392 34.4839 145.056 33.7581 145.905 33.2446C146.773 32.7312 147.756 32.4745 148.853 32.4745C149.544 32.4745 150.234 32.5807 150.925 32.7932L150.925 26.6586L149.358 26.0744V25.8885L152.438 24.8528H152.651L152.651 42.3535L154.111 42.6722V42.805L151.217 44.1328H151.057L151.057 42.3269L150.978 42.3004C150.571 42.9377 150.075 43.4246 149.491 43.761ZM146.012 41.8755C146.631 42.7607 147.481 43.2033 148.561 43.2033C149.075 43.2033 149.535 43.0971 149.942 42.8846C150.367 42.6545 150.694 42.3446 150.925 41.9552V35.1567C150.925 34.3777 150.739 33.7846 150.367 33.3774C150.013 32.9525 149.499 32.7401 148.827 32.7401C147.711 32.7401 146.808 33.2446 146.118 34.2538C145.445 35.2452 145.109 36.5642 145.109 38.2107C145.109 39.751 145.41 40.9726 146.012 41.8755Z" fill="#383838"/>
<path d="M32.0363 97.6083V98L26.9926 98C26.2091 98 25.6215 97.8857 25.2297 97.6572C24.838 97.4287 24.4299 96.988 24.0055 96.3351L16.5133 84.2399C16.0563 83.489 15.6645 83.032 15.3381 82.8688C15.0443 82.6729 14.5056 82.575 13.7221 82.575L10.0985 82.575L10.0985 97.2165L14.3587 97.6083V98L2.3125 98L2.3125 97.6083L6.32791 97.2165L6.32791 64.9953L2.3125 64.6035L2.3125 64.2118L14.7015 64.2118C18.5537 64.2118 21.4918 64.9953 23.5158 66.5623C25.5398 68.0966 26.5519 70.3329 26.5519 73.271C26.5519 75.5561 25.9316 77.4333 24.6911 78.9023C23.4505 80.3714 21.655 81.3834 19.3045 81.9384H19.3535L28.3147 95.9433C28.7391 96.5962 29.1472 97.037 29.5389 97.2655C29.9633 97.494 30.5673 97.6083 31.3508 97.6083L32.0363 97.6083ZM10.0985 64.7994L10.0985 81.8404L14.5546 81.8404C17.1662 81.8404 19.0923 81.1549 20.3329 79.7838C21.606 78.38 22.2426 76.2417 22.2426 73.3689C22.2426 70.4634 21.606 68.3088 20.3329 66.9051C19.0597 65.5013 17.1336 64.7994 14.5546 64.7994L10.0985 64.7994ZM57.6104 87.7166L56.3862 98L32.3917 98V97.6083L36.4071 97.2165L36.4071 64.9953L32.3917 64.6035V64.2118L56.4352 64.2118L57.1208 73.4179L56.6311 73.4668L53.8888 66.6113C53.595 65.8604 53.2686 65.3707 52.9095 65.1422C52.583 64.9137 52.0281 64.7994 51.2446 64.7994L40.1777 64.7994L40.1777 79.8327L47.425 79.8327C48.2085 79.8327 48.7635 79.7021 49.0899 79.441C49.4164 79.1798 49.6449 78.6738 49.7755 77.923L50.608 73.9565H51.1956L51.1956 86.4924H50.608L49.7755 82.526C49.6449 81.7751 49.4164 81.2691 49.0899 81.008C48.7635 80.7468 48.2085 80.6162 47.425 80.6162L40.1777 80.6162L40.1777 97.4124H51.1466C51.9301 97.4124 52.5014 97.2981 52.8605 97.0696C53.2196 96.8084 53.5461 96.3188 53.8399 95.6005L57.0718 87.6677L57.6104 87.7166ZM82.7439 97.1675C84.1476 96.5473 85.3229 95.7148 86.2696 94.6701C87.8692 92.8746 89.0771 90.1977 89.8932 86.6393L90.5298 86.7373L90.5298 98H89.8932L88.2283 95.3067C86.7593 96.384 85.1596 97.2328 83.4294 97.8531C81.7318 98.4734 80.0832 98.7835 78.4836 98.7835C75.6434 98.7835 73.0318 98 70.6487 96.433C68.2982 94.866 66.4374 92.7441 65.0663 90.0671C63.7278 87.3575 63.0586 84.3705 63.0586 81.1059C63.0586 77.874 63.7278 74.9032 65.0663 72.1937C66.4374 69.4841 68.2982 67.3458 70.6487 65.7788C72.9992 64.2118 75.5782 63.4283 78.3857 63.4283C79.8547 63.4283 81.3564 63.6731 82.8908 64.1628C84.4578 64.6199 86.188 65.3544 88.0814 66.3664L89.2567 64.0159H89.8932L90.3829 75.0338L89.6974 75.2297C89.2403 72.716 88.5221 70.643 87.5428 69.0107C86.5634 67.4111 85.2902 66.1869 83.7232 65.3381C82.1562 64.4566 80.426 64.0159 78.5326 64.0159C75.0721 64.0159 72.4115 65.5013 70.5507 68.4721C68.6899 71.4428 67.7595 75.6541 67.7595 81.1059C67.7595 86.5251 68.6899 90.72 70.5507 93.6908C72.4115 96.6289 75.0558 98.0979 78.4836 98.0979C79.9527 98.0979 81.3727 97.7878 82.7439 97.1675ZM120.782 87.7166L119.557 98L95.5629 98V97.6083L99.5783 97.2165L99.5783 64.9953L95.5629 64.6035V64.2118L119.606 64.2118L120.292 73.4179L119.802 73.4668L117.06 66.6113C116.766 65.8604 116.44 65.3707 116.081 65.1422C115.754 64.9137 115.199 64.7994 114.416 64.7994L103.349 64.7994L103.349 79.8327L110.596 79.8327C111.38 79.8327 111.935 79.7021 112.261 79.441C112.588 79.1798 112.816 78.6738 112.947 77.923L113.779 73.9565H114.367L114.367 86.4924H113.779L112.947 82.526C112.816 81.7751 112.588 81.2691 112.261 81.008C111.935 80.7468 111.38 80.6162 110.596 80.6162L103.349 80.6162L103.349 97.4124L114.318 97.4124C115.101 97.4124 115.673 97.2981 116.032 97.0696C116.391 96.8084 116.717 96.3188 117.011 95.6005L120.243 87.6677L120.782 87.7166ZM133.428 83.3095L133.428 97.2165L138.227 97.6083V98L125.642 98V97.6083L129.658 97.2165L129.658 64.9953L125.642 64.6035V64.2118L138.031 64.2118C141.851 64.2118 144.772 65.0279 146.796 66.6602C148.853 68.2925 149.881 70.594 149.881 73.5648C149.881 76.7314 148.869 79.1472 146.845 80.8121C144.821 82.477 141.883 83.3095 138.031 83.3095H133.428ZM133.428 64.7994L133.428 82.7219H137.884C140.528 82.7219 142.455 81.971 143.662 80.4693C144.87 78.9676 145.474 76.5845 145.474 73.3199C145.474 70.6103 144.919 68.521 143.809 67.052C142.732 65.5503 140.757 64.7994 137.884 64.7994L133.428 64.7994ZM165.667 97.2165L165.667 64.7505L159.203 64.7505C158.42 64.7505 157.848 64.881 157.489 65.1422C157.13 65.3707 156.787 65.8604 156.461 66.6113L153.082 74.1524L152.69 74.0544L154.6 63.4283H154.894C155.612 63.7548 156.216 63.967 156.706 64.0649C157.228 64.1628 157.881 64.2118 158.664 64.2118L177.517 64.2118C178.301 64.2118 178.937 64.1628 179.427 64.0649C179.949 63.967 180.57 63.7548 181.288 63.4283H181.582L182.659 74.0544L182.267 74.1524L179.231 66.6113C178.937 65.8604 178.611 65.3707 178.252 65.1422C177.925 64.881 177.37 64.7505 176.587 64.7505L169.437 64.7505L169.437 97.2165L174.726 97.6083V98L160.378 98V97.6083L165.667 97.2165ZM186.04 64.2118L197.841 64.2118V64.6035L193.826 64.9953L193.826 97.2165L197.841 97.6083V98L186.04 98V97.6083L190.055 97.2165L190.055 64.9953L186.04 64.6035V64.2118ZM217.498 63.4283C220.339 63.4283 222.934 64.2118 225.284 65.7788C227.668 67.3458 229.528 69.4841 230.867 72.1937C232.238 74.8706 232.923 77.8413 232.923 81.1059C232.923 84.3705 232.238 87.3575 230.867 90.0671C229.528 92.7441 227.668 94.866 225.284 96.433C222.934 98 220.339 98.7835 217.498 98.7835C214.658 98.7835 212.047 98 209.663 96.433C207.313 94.866 205.452 92.7441 204.081 90.0671C202.743 87.3575 202.073 84.3705 202.073 81.1059C202.073 77.8413 202.743 74.8706 204.081 72.1937C205.452 69.4841 207.313 67.3458 209.663 65.7788C212.047 64.2118 214.658 63.4283 217.498 63.4283ZM206.774 81.1059C206.774 86.5577 207.705 90.769 209.566 93.7397C211.426 96.6779 214.071 98.1469 217.498 98.1469C220.926 98.1469 223.57 96.6779 225.431 93.7397C227.292 90.769 228.222 86.5577 228.222 81.1059C228.222 75.6541 227.292 71.4428 225.431 68.4721C223.57 65.5013 220.926 64.0159 217.498 64.0159C214.071 64.0159 211.426 65.5013 209.566 68.4721C207.705 71.4428 206.774 75.6541 206.774 81.1059ZM270.361 64.2118V64.6035L266.835 64.9953C266.051 65.0932 265.529 65.2891 265.268 65.5829C265.007 65.8767 264.876 66.4154 264.876 67.1989L264.876 98.7835H264.386L242.4 67.5906H242.204L242.204 95.0129C242.204 95.7964 242.302 96.3514 242.498 96.6779C242.693 96.9717 243.085 97.1512 243.673 97.2165L247.15 97.6083V98L236.425 98V97.6083L239.951 97.2165C240.539 97.1512 240.931 96.9717 241.126 96.6779C241.322 96.3514 241.42 95.7964 241.42 95.0129L241.42 66.5133L241.224 66.2195C240.767 65.5666 240.327 65.1422 239.902 64.9463C239.51 64.7178 238.923 64.6035 238.139 64.6035H237.307V64.2118L244.603 64.2118L263.897 91.2424H264.093L264.093 67.1989C264.093 66.4154 263.995 65.8604 263.799 65.5339C263.603 65.2075 263.211 65.0279 262.624 64.9953L258.657 64.6035V64.2118L270.361 64.2118Z" fill="#383838"/>
<path d="M0.86256 131.405L3.16656 128.966C3.44176 128.678 3.66576 128.426 3.83856 128.208C4.01136 127.99 4.14256 127.789 4.23216 127.603C4.32176 127.411 4.36656 127.21 4.36656 126.998C4.36656 126.602 4.24816 126.307 4.01136 126.115C3.77456 125.917 3.45456 125.818 3.05136 125.818C2.64176 125.818 2.31536 125.933 2.07216 126.163C1.82896 126.387 1.70736 126.717 1.70736 127.152H0.90096C0.89456 126.736 0.98416 126.378 1.16976 126.077C1.35536 125.77 1.61136 125.533 1.93776 125.366C2.27056 125.2 2.65136 125.117 3.08016 125.117C3.51536 125.117 3.88976 125.194 4.20336 125.347C4.51696 125.501 4.75696 125.718 4.92336 126C5.09616 126.275 5.18256 126.608 5.18256 126.998C5.18256 127.248 5.13136 127.488 5.02896 127.718C4.93296 127.949 4.76976 128.205 4.53936 128.486C4.31536 128.768 4.00496 129.117 3.60816 129.533L1.62096 131.645L1.53456 131.299H5.25936L5.25936 132H0.86256L0.86256 131.405ZM8.66211 132.096C8.09251 132.096 7.62531 131.965 7.26051 131.702C6.90211 131.44 6.63971 131.05 6.47331 130.531C6.31331 130.013 6.23331 129.37 6.23331 128.602C6.23331 127.827 6.31651 127.184 6.48291 126.672C6.65571 126.16 6.92131 125.773 7.27971 125.51C7.63811 125.248 8.09891 125.117 8.66211 125.117C9.23811 125.117 9.70531 125.248 10.0637 125.51C10.4221 125.773 10.6845 126.16 10.8509 126.672C11.0237 127.184 11.1101 127.827 11.1101 128.602C11.1101 129.37 11.0237 130.013 10.8509 130.531C10.6845 131.05 10.4221 131.44 10.0637 131.702C9.70531 131.965 9.23811 132.096 8.66211 132.096ZM8.66211 131.386C9.25091 131.386 9.67011 131.165 9.91971 130.723C10.1693 130.275 10.2941 129.568 10.2941 128.602C10.2941 127.635 10.1693 126.931 9.91971 126.49C9.67011 126.042 9.25091 125.818 8.66211 125.818C8.09251 125.818 7.68291 126.042 7.43331 126.49C7.18371 126.931 7.05891 127.635 7.05891 128.602C7.05891 129.568 7.18051 130.275 7.42371 130.723C7.67331 131.165 8.08611 131.386 8.66211 131.386ZM12.0751 131.405L14.3791 128.966C14.6543 128.678 14.8783 128.426 15.0511 128.208C15.2239 127.99 15.3551 127.789 15.4447 127.603C15.5343 127.411 15.5791 127.21 15.5791 126.998C15.5791 126.602 15.4607 126.307 15.2239 126.115C14.9871 125.917 14.6671 125.818 14.2639 125.818C13.8543 125.818 13.5279 125.933 13.2847 126.163C13.0415 126.387 12.9199 126.717 12.9199 127.152L12.1135 127.152C12.1071 126.736 12.1967 126.378 12.3823 126.077C12.5679 125.77 12.8239 125.533 13.1503 125.366C13.4831 125.2 13.8639 125.117 14.2927 125.117C14.7279 125.117 15.1023 125.194 15.4159 125.347C15.7295 125.501 15.9695 125.718 16.1359 126C16.3087 126.275 16.3951 126.608 16.3951 126.998C16.3951 127.248 16.3439 127.488 16.2415 127.718C16.1455 127.949 15.9823 128.205 15.7519 128.486C15.5279 128.768 15.2175 129.117 14.8207 129.533L12.8335 131.645L12.7471 131.299L16.4719 131.299L16.4719 132H12.0751L12.0751 131.405ZM19.8746 132.096C19.4202 132.096 19.0266 132.022 18.6938 131.875C18.361 131.728 18.1018 131.52 17.9162 131.251C17.737 130.976 17.6378 130.656 17.6186 130.291H18.4442C18.4634 130.656 18.5946 130.931 18.8378 131.117C19.081 131.302 19.4266 131.395 19.8746 131.395C20.3674 131.395 20.7386 131.258 20.9882 130.982C21.2442 130.701 21.3722 130.346 21.3722 129.917C21.3722 129.629 21.321 129.376 21.2186 129.158C21.1226 128.934 20.9658 128.758 20.7482 128.63C20.5306 128.496 20.249 128.429 19.9034 128.429C19.5898 128.422 19.3178 128.477 19.0874 128.592C18.8634 128.707 18.6874 128.877 18.5594 129.101H17.7434L18.2138 125.213L21.8426 125.213V125.914L18.9146 125.914L18.5978 128.573L18.3482 128.544C18.5274 128.288 18.7514 128.09 19.0202 127.949C19.2954 127.802 19.6122 127.728 19.9706 127.728C20.4378 127.728 20.8346 127.824 21.161 128.016C21.4874 128.202 21.7402 128.458 21.9194 128.784C22.0986 129.104 22.1882 129.475 22.1882 129.898C22.1882 130.326 22.0922 130.707 21.9002 131.04C21.7146 131.366 21.449 131.626 21.1034 131.818C20.7578 132.003 20.3482 132.096 19.8746 132.096ZM23.4715 130.934H24.5179L24.5179 132H23.4715L23.4715 130.934ZM28.2963 132H27.4803L27.4803 125.693L27.9123 125.76L25.7907 127.171V126.346L27.4707 125.213H28.2963L28.2963 132ZM32.9838 132H32.1678L32.1678 125.693L32.5998 125.76L30.4782 127.171V126.346L32.1582 125.213H32.9838L32.9838 132ZM35.4153 130.934H36.4617V132H35.4153V130.934ZM37.7344 131.405L40.0384 128.966C40.3136 128.678 40.5376 128.426 40.7104 128.208C40.8832 127.99 41.0144 127.789 41.104 127.603C41.1936 127.411 41.2384 127.21 41.2384 126.998C41.2384 126.602 41.12 126.307 40.8832 126.115C40.6464 125.917 40.3264 125.818 39.9232 125.818C39.5136 125.818 39.1872 125.933 38.944 126.163C38.7008 126.387 38.5792 126.717 38.5792 127.152L37.7728 127.152C37.7664 126.736 37.856 126.378 38.0416 126.077C38.2272 125.77 38.4832 125.533 38.8096 125.366C39.1424 125.2 39.5232 125.117 39.952 125.117C40.3872 125.117 40.7616 125.194 41.0752 125.347C41.3888 125.501 41.6288 125.718 41.7952 126C41.968 126.275 42.0544 126.608 42.0544 126.998C42.0544 127.248 42.0032 127.488 41.9008 127.718C41.8048 127.949 41.6416 128.205 41.4112 128.486C41.1872 128.768 40.8768 129.117 40.48 129.533L38.4928 131.645L38.4064 131.299H42.1312V132H37.7344V131.405ZM46.6956 125.923L43.7196 130.214L43.566 129.878H48.2028V130.579H43.0092V129.974L46.3308 125.213H47.2524L47.2524 132H46.4364L46.4364 125.846L46.6956 125.923ZM49.3666 128.947C49.3666 128.154 49.4466 127.469 49.6066 126.893C49.773 126.31 49.9778 125.821 50.221 125.424C50.4642 125.021 50.7074 124.691 50.9506 124.435H51.7954C51.4818 124.768 51.2002 125.142 50.9506 125.558C50.701 125.974 50.5026 126.458 50.3554 127.008C50.2146 127.558 50.1442 128.205 50.1442 128.947C50.1442 129.683 50.2146 130.33 50.3554 130.886C50.5026 131.437 50.701 131.92 50.9506 132.336C51.2002 132.758 51.4818 133.136 51.7954 133.469H50.9506C50.7074 133.213 50.4642 132.883 50.221 132.48C49.9778 132.077 49.773 131.587 49.6066 131.011C49.4466 130.429 49.3666 129.741 49.3666 128.947ZM54.0405 125.213L56.2773 130.8H56.3349L58.5813 125.213H59.5989L59.5989 132H58.8117L58.8117 126.787H58.7541L56.6421 132H55.9509L53.8485 126.787H53.7909L53.7909 132H53.0037L53.0037 125.213H54.0405ZM66.7849 128.602C66.7849 129.728 66.5321 130.592 66.0265 131.194C65.5273 131.795 64.7977 132.096 63.8377 132.096C62.8841 132.096 62.1545 131.795 61.6489 131.194C61.1497 130.592 60.9001 129.728 60.9001 128.602C60.9001 127.475 61.1497 126.614 61.6489 126.019C62.1545 125.418 62.8841 125.117 63.8377 125.117C64.7977 125.117 65.5273 125.418 66.0265 126.019C66.5321 126.614 66.7849 127.475 66.7849 128.602ZM65.9593 128.602C65.9593 127.654 65.7833 126.957 65.4313 126.509C65.0857 126.054 64.5577 125.827 63.8473 125.827C63.1305 125.827 62.5961 126.054 62.2441 126.509C61.8985 126.957 61.7257 127.654 61.7257 128.602C61.7257 129.549 61.8985 130.25 62.2441 130.704C62.5961 131.158 63.1305 131.386 63.8473 131.386C64.5577 131.386 65.0857 131.158 65.4313 130.704C65.7833 130.25 65.9593 129.549 65.9593 128.602ZM73.2817 132H72.4561L68.9521 126.557H68.8945V132H68.0881L68.0881 125.213H68.9233L72.4273 130.656H72.4849L72.4849 125.213H73.2817L73.2817 132ZM76.9204 128.947C76.9204 129.741 76.8372 130.429 76.6708 131.011C76.5108 131.587 76.3092 132.077 76.066 132.48C75.8228 132.883 75.5828 133.213 75.346 133.469H74.4916C74.8052 133.136 75.0868 132.758 75.3364 132.336C75.586 131.92 75.7812 131.437 75.922 130.886C76.0692 130.33 76.1428 129.683 76.1428 128.947C76.1428 128.205 76.0692 127.558 75.922 127.008C75.7812 126.458 75.586 125.974 75.3364 125.558C75.0868 125.142 74.8052 124.768 74.4916 124.435H75.346C75.5828 124.691 75.8228 125.021 76.066 125.424C76.3092 125.821 76.5108 126.31 76.6708 126.893C76.8372 127.469 76.9204 128.154 76.9204 128.947ZM83.1119 132H82.2959L82.2959 125.693L82.7279 125.76L80.6063 127.171V126.346L82.2863 125.213H83.1119L83.1119 132ZM88.9226 125.51L89.0954 125.914L85.1498 125.914V125.213L89.6234 125.213V125.818L86.5226 132H85.6298L88.9226 125.51ZM90.6818 126.499H91.7282V127.565H90.6818V126.499ZM90.6818 130.435H91.7282V131.491L90.6818 131.491V130.435ZM95.4661 132.096C94.9925 132.096 94.5829 132.022 94.2373 131.875C93.8981 131.728 93.6325 131.514 93.4405 131.232C93.2549 130.944 93.1525 130.598 93.1333 130.195H93.9973C94.0165 130.458 94.0805 130.678 94.1893 130.858C94.3045 131.037 94.4677 131.171 94.6789 131.261C94.8901 131.35 95.1557 131.395 95.4757 131.395C95.9429 131.395 96.3077 131.274 96.5701 131.03C96.8389 130.787 96.9733 130.432 96.9733 129.965C96.9733 129.51 96.8389 129.165 96.5701 128.928C96.3077 128.691 95.9365 128.573 95.4565 128.573H94.6117V127.987L96.9445 125.501L97.0117 125.914L93.4309 125.914V125.213L97.6261 125.213V125.818L95.3701 128.218L95.3413 127.872C95.8149 127.866 96.2085 127.926 96.5221 128.054C96.8421 128.176 97.0949 128.339 97.2805 128.544C97.4661 128.749 97.5973 128.976 97.6741 129.226C97.7573 129.469 97.7989 129.715 97.7989 129.965C97.7989 130.413 97.7029 130.797 97.5109 131.117C97.3189 131.43 97.0469 131.674 96.6949 131.846C96.3493 132.013 95.9397 132.096 95.4661 132.096ZM101.25 132.096C100.68 132.096 100.213 131.965 99.848 131.702C99.4896 131.44 99.2272 131.05 99.0608 130.531C98.9008 130.013 98.8208 129.37 98.8208 128.602C98.8208 127.827 98.904 127.184 99.0704 126.672C99.2432 126.16 99.5088 125.773 99.8672 125.51C100.226 125.248 100.686 125.117 101.25 125.117C101.826 125.117 102.293 125.248 102.651 125.51C103.01 125.773 103.272 126.16 103.438 126.672C103.611 127.184 103.698 127.827 103.698 128.602C103.698 129.37 103.611 130.013 103.438 130.531C103.272 131.05 103.01 131.44 102.651 131.702C102.293 131.965 101.826 132.096 101.25 132.096ZM101.25 131.386C101.838 131.386 102.258 131.165 102.507 130.723C102.757 130.275 102.882 129.568 102.882 128.602C102.882 127.635 102.757 126.931 102.507 126.49C102.258 126.042 101.838 125.818 101.25 125.818C100.68 125.818 100.27 126.042 100.021 126.49C99.7712 126.931 99.6464 127.635 99.6464 128.602C99.6464 129.568 99.768 130.275 100.011 130.723C100.261 131.165 100.674 131.386 101.25 131.386ZM4.85616 143.234C4.19056 143.234 3.67856 143.307 3.32016 143.454C2.96176 143.602 2.78256 143.851 2.78256 144.203C2.78256 144.549 2.96176 144.795 3.32016 144.942C3.67856 145.09 4.19056 145.163 4.85616 145.163C5.52176 145.163 6.03376 145.09 6.39216 144.942C6.75056 144.795 6.92976 144.549 6.92976 144.203C6.92976 143.851 6.75056 143.602 6.39216 143.454C6.03376 143.307 5.52176 143.234 4.85616 143.234ZM4.85616 145.778C4.28016 145.778 3.78096 145.72 3.35856 145.605C2.93616 145.49 2.60976 145.314 2.37936 145.077C2.15536 144.84 2.04336 144.549 2.04336 144.203C2.04336 143.845 2.15536 143.55 2.37936 143.32C2.60976 143.083 2.93616 142.907 3.35856 142.792C3.78096 142.677 4.28016 142.619 4.85616 142.619C5.43856 142.619 5.93776 142.677 6.35376 142.792C6.77616 142.907 7.09936 143.083 7.32336 143.32C7.54736 143.55 7.65936 143.845 7.65936 144.203C7.65936 144.549 7.54736 144.84 7.32336 145.077C7.09936 145.314 6.77616 145.49 6.35376 145.605C5.93776 145.72 5.43856 145.778 4.85616 145.778ZM7.51536 142.475H6.77616L6.77616 137.483H7.51536L7.51536 142.475ZM5.04816 140.114H7.15056L7.15056 140.738H5.04816L5.04816 140.114ZM0.94896 139.586L0.94896 138.981H5.23056L5.23056 139.586H0.94896ZM0.97776 142.427L0.66096 141.822C1.19216 141.56 1.60816 141.307 1.90896 141.064C2.20976 140.821 2.42096 140.568 2.54256 140.306C2.66416 140.043 2.72496 139.755 2.72496 139.442V139.221H3.46416V139.442C3.46416 139.742 3.52496 140.021 3.64656 140.277C3.76816 140.526 3.97936 140.766 4.28016 140.997C4.58096 141.221 4.99376 141.451 5.51856 141.688L5.22096 142.302C4.77936 142.104 4.40816 141.902 4.10736 141.698C3.80656 141.486 3.55696 141.246 3.35856 140.978C3.16656 140.702 3.00976 140.376 2.88816 139.998H3.30096C3.18576 140.395 3.02576 140.734 2.82096 141.016C2.62256 141.298 2.36976 141.55 2.06256 141.774C1.76176 141.998 1.40016 142.216 0.97776 142.427ZM1.81296 138.261L1.81296 137.656H4.35696L4.35696 138.261H1.81296ZM15.3148 142.302H14.5756L14.5756 137.483H15.3148L15.3148 142.302ZM14.9308 139.528H16.63L16.63 140.142H14.9308L14.9308 139.528ZM10.2364 145.614L10.2364 142.734H15.3244L15.3244 145.614H10.2364ZM10.966 145.01L14.5852 145.01L14.5852 143.339H10.966L10.966 145.01ZM9.30524 138.069L13.1356 138.069V138.674H10.0348L10.0348 141.026H10.8508C11.5228 141.026 12.086 141.006 12.5404 140.968C13.0012 140.93 13.4108 140.885 13.7692 140.834L13.8364 141.438C13.5932 141.47 13.3244 141.502 13.03 141.534C12.7356 141.566 12.3964 141.592 12.0124 141.611C11.6284 141.624 11.1644 141.63 10.6204 141.63L9.30524 141.63L9.30524 138.069ZM26.3216 145.701H25.592L25.592 137.483H26.3216L26.3216 145.701ZM19.976 140.603H22.9424L22.9424 138.885H19.9472V138.261H23.6816L23.6816 141.208H20.7056L20.7056 143.08H21.5792C22.2576 143.08 22.8336 143.061 23.3072 143.022C23.7808 142.984 24.2032 142.942 24.5744 142.898L24.632 143.512C24.3824 143.544 24.1072 143.576 23.8064 143.608C23.5056 143.634 23.1568 143.656 22.76 143.675C22.3632 143.694 21.8896 143.704 21.3392 143.704H19.976L19.976 140.603ZM33.0843 145.355H32.3835L32.3835 137.618H33.0843L33.0843 145.355ZM34.7739 145.682H34.0539L34.0539 137.512H34.7739L34.7739 145.682ZM30.8667 140.642H32.8059L32.8059 141.256H30.8667V140.642ZM30.4923 138.27H31.2123L31.2123 143.608H28.1115L28.1115 138.27H28.8315L28.8315 142.984H30.4923L30.4923 138.27ZM31.0203 140.334V140.949H28.3227V140.334H31.0203ZM42.343 145.701H41.6038L41.6038 137.483L42.343 137.483L42.343 145.701ZM41.959 140.786L43.6582 140.786V141.4L41.959 141.4V140.786ZM36.3334 140.603H39.1942V138.885H36.3046V138.261H39.9238L39.9238 141.208H37.063V143.08H37.879C38.5382 143.08 39.095 143.061 39.5494 143.022C40.0102 142.984 40.4198 142.942 40.7782 142.898L40.8454 143.512C40.6022 143.544 40.3334 143.576 40.039 143.608C39.751 143.634 39.4118 143.656 39.0214 143.675C38.6374 143.694 38.1798 143.704 37.6486 143.704H36.3334L36.3334 140.603ZM48.3088 144.654H47.56V142.869H48.3088V144.654ZM44.2 144.933L44.2 144.309L51.6688 144.309L51.6688 144.933H44.2ZM44.6608 139.749V139.163H51.208V139.749H44.6608ZM47.9344 140.805C47.32 140.805 46.8432 140.888 46.504 141.054C46.1712 141.214 46.0048 141.442 46.0048 141.736C46.0048 142.03 46.1712 142.261 46.504 142.427C46.8432 142.594 47.32 142.677 47.9344 142.677C48.5552 142.677 49.032 142.594 49.3648 142.427C49.6976 142.261 49.864 142.03 49.864 141.736C49.864 141.442 49.6976 141.214 49.3648 141.054C49.032 140.888 48.5552 140.805 47.9344 140.805ZM47.9344 143.262C47.0896 143.262 46.4368 143.128 45.976 142.859C45.5152 142.59 45.2848 142.216 45.2848 141.736C45.2848 141.256 45.5152 140.882 45.976 140.613C46.4368 140.344 47.0896 140.21 47.9344 140.21C48.7792 140.21 49.432 140.344 49.8928 140.613C50.3536 140.882 50.584 141.256 50.584 141.736C50.584 142.216 50.3536 142.59 49.8928 142.859C49.432 143.128 48.7792 143.262 47.9344 143.262ZM46.2928 138.453V137.858H49.576V138.453H46.2928ZM54.1595 142.869V142.283L59.4491 142.283V144.232H54.8795L54.8795 145.038L59.7755 145.038V145.634L54.1499 145.634L54.1499 143.666H58.7099V142.869H54.1595ZM57.7403 141.861L57.0491 141.861L57.0491 137.618H57.7403L57.7403 141.861ZM59.4491 141.88H58.7291L58.7291 137.493H59.4491L59.4491 141.88ZM56.0507 139.298L57.4715 139.298V139.912L56.0507 139.912V139.298ZM53.0651 139.451H55.6379V140.037H53.0651V139.451ZM52.7771 137.982H55.8491V138.587H53.4971L53.4971 140.987H54.0731C54.5275 140.987 54.9339 140.974 55.2923 140.949C55.6507 140.917 55.9771 140.878 56.2715 140.834L56.3483 141.429C56.0475 141.486 55.7051 141.531 55.3211 141.563C54.9371 141.589 54.4667 141.602 53.9099 141.602H52.7771L52.7771 137.982ZM65.5599 145.096C65.0863 145.096 64.6767 145.022 64.3311 144.875C63.9919 144.728 63.7263 144.514 63.5343 144.232C63.3487 143.944 63.2463 143.598 63.2271 143.195H64.0911C64.1103 143.458 64.1743 143.678 64.2831 143.858C64.3983 144.037 64.5615 144.171 64.7727 144.261C64.9839 144.35 65.2495 144.395 65.5695 144.395C66.0367 144.395 66.4015 144.274 66.6639 144.03C66.9327 143.787 67.0671 143.432 67.0671 142.965C67.0671 142.51 66.9327 142.165 66.6639 141.928C66.4015 141.691 66.0303 141.573 65.5503 141.573H64.7055V140.987L67.0383 138.501L67.1055 138.914H63.5247V138.213H67.7199V138.818L65.4639 141.218L65.4351 140.872C65.9087 140.866 66.3023 140.926 66.6159 141.054C66.9359 141.176 67.1887 141.339 67.3743 141.544C67.5599 141.749 67.6911 141.976 67.7679 142.226C67.8511 142.469 67.8927 142.715 67.8927 142.965C67.8927 143.413 67.7967 143.797 67.6047 144.117C67.4127 144.43 67.1407 144.674 66.7887 144.846C66.4431 145.013 66.0335 145.096 65.5599 145.096ZM68.8282 142.446V141.832L76.297 141.832V142.446L68.8282 142.446ZM72.5626 143.55C71.8074 143.55 71.2442 143.608 70.873 143.723C70.5082 143.838 70.3258 144.05 70.3258 144.357C70.3258 144.664 70.5082 144.878 70.873 145C71.2442 145.115 71.8074 145.173 72.5626 145.173C73.3178 145.173 73.8778 145.112 74.2426 144.99C74.6138 144.869 74.7994 144.658 74.7994 144.357C74.7994 144.056 74.6138 143.848 74.2426 143.733C73.8778 143.611 73.3178 143.55 72.5626 143.55ZM72.5626 145.778C71.5898 145.778 70.8506 145.662 70.345 145.432C69.8458 145.208 69.5962 144.85 69.5962 144.357C69.5962 143.864 69.8458 143.506 70.345 143.282C70.8506 143.051 71.5898 142.936 72.5626 142.936C73.5354 142.936 74.2714 143.051 74.7706 143.282C75.2762 143.506 75.529 143.864 75.529 144.357C75.529 144.85 75.2762 145.208 74.7706 145.432C74.2714 145.662 73.5354 145.778 72.5626 145.778ZM69.7018 139.518V138.914H75.4234V139.518H69.7018ZM69.4426 141.458L69.3178 140.834C69.913 140.744 70.425 140.635 70.8538 140.507C71.2826 140.373 71.6122 140.21 71.8426 140.018C72.073 139.826 72.1882 139.598 72.1882 139.336V139.163H72.937V139.336C72.937 139.598 73.0522 139.826 73.2826 140.018C73.513 140.203 73.8426 140.363 74.2714 140.498C74.7066 140.626 75.2186 140.738 75.8074 140.834L75.6922 141.458C75.1226 141.355 74.6138 141.24 74.1658 141.112C73.7178 140.978 73.337 140.805 73.0234 140.594C72.7162 140.376 72.473 140.098 72.2938 139.758H72.8314C72.6522 140.098 72.4058 140.376 72.0922 140.594C71.785 140.805 71.4074 140.978 70.9594 141.112C70.5178 141.24 70.0122 141.355 69.4426 141.458ZM71.0842 138.194V137.589H73.993V138.194H71.0842ZM80.3821 140.594V137.8H85.9213V140.594H80.3821ZM81.1117 139.989H85.1821V138.405H81.1117V139.989ZM83.5213 141.928H82.7725V140.373H83.5213V141.928ZM79.4125 142.13V141.515H86.8813V142.13H79.4125ZM83.1469 143.358C82.4045 143.358 81.8445 143.429 81.4669 143.57C81.0957 143.704 80.9101 143.938 80.9101 144.27C80.9101 144.597 81.0957 144.827 81.4669 144.962C81.8445 145.096 82.4045 145.163 83.1469 145.163C83.8893 145.163 84.4461 145.096 84.8173 144.962C85.1949 144.827 85.3837 144.597 85.3837 144.27C85.3837 143.938 85.1949 143.704 84.8173 143.57C84.4461 143.429 83.8893 143.358 83.1469 143.358ZM83.1469 145.778C82.1869 145.778 81.4509 145.653 80.9389 145.403C80.4333 145.16 80.1805 144.782 80.1805 144.27C80.1805 143.752 80.4333 143.371 80.9389 143.128C81.4509 142.878 82.1869 142.754 83.1469 142.754C84.1133 142.754 84.8493 142.878 85.3549 143.128C85.8605 143.371 86.1133 143.752 86.1133 144.27C86.1133 144.782 85.8605 145.16 85.3549 145.403C84.8493 145.653 84.1133 145.778 83.1469 145.778ZM87.6344 141.707V141.093L95.1032 141.093V141.707L87.6344 141.707ZM88.5752 143.022L88.5752 142.437L94.172 142.437L94.172 144.299H89.2952V145.048H94.508V145.634L88.5656 145.634V143.742L93.4424 143.742V143.022L88.5752 143.022ZM88.8056 138.395L93.9512 138.395V138.971L88.8056 138.971V138.395ZM88.604 140.373V137.57H89.3336V139.797L93.4232 139.797V137.57H94.1432V140.373L88.604 140.373ZM99.6483 143.33C99.0211 143.33 98.5315 143.4 98.1795 143.541C97.8339 143.682 97.6611 143.918 97.6611 144.251C97.6611 144.584 97.8339 144.821 98.1795 144.962C98.5315 145.096 99.0211 145.163 99.6483 145.163C100.282 145.163 100.771 145.096 101.117 144.962C101.463 144.821 101.635 144.584 101.635 144.251C101.635 143.918 101.463 143.682 101.117 143.541C100.771 143.4 100.282 143.33 99.6483 143.33ZM99.6483 145.778C99.0915 145.778 98.6083 145.72 98.1987 145.605C97.7955 145.496 97.4819 145.326 97.2579 145.096C97.0339 144.872 96.9219 144.59 96.9219 144.251C96.9219 143.906 97.0339 143.621 97.2579 143.397C97.4819 143.166 97.7955 142.997 98.1987 142.888C98.6083 142.773 99.0915 142.715 99.6483 142.715C100.211 142.715 100.695 142.773 101.098 142.888C101.507 142.997 101.821 143.166 102.039 143.397C102.263 143.621 102.375 143.906 102.375 144.251C102.375 144.59 102.263 144.872 102.039 145.096C101.821 145.326 101.507 145.496 101.098 145.605C100.695 145.72 100.211 145.778 99.6483 145.778ZM102.221 142.533H101.482V137.483H102.221V142.533ZM101.837 139.547H103.536V140.162H101.837V139.547ZM96.2115 139.586H99.0723V138.578H96.1827V137.973H99.8019V140.181H96.9411V141.342H97.7571C98.4163 141.342 98.9731 141.323 99.4275 141.285C99.8883 141.246 100.298 141.202 100.656 141.15L100.723 141.755C100.48 141.787 100.211 141.819 99.9171 141.851C99.6291 141.883 99.2931 141.909 98.9091 141.928C98.5251 141.941 98.0643 141.947 97.5267 141.947H96.2115V139.586ZM108.187 142.12H107.438V140.987H108.187V142.12ZM104.078 142.446V141.87L111.547 141.87V142.446L104.078 142.446ZM105.019 143.483V142.926L110.616 142.926V144.52H105.739V145.077H110.952V145.634L105.009 145.634V144.002L109.886 144.002V143.483L105.019 143.483ZM104.577 139.038V138.472L111.057 138.472V139.038L104.577 139.038ZM107.813 139.922C107.217 139.922 106.753 139.957 106.421 140.027C106.088 140.091 105.921 140.216 105.921 140.402C105.921 140.587 106.088 140.715 106.421 140.786C106.753 140.856 107.217 140.891 107.813 140.891C108.401 140.891 108.865 140.856 109.205 140.786C109.544 140.715 109.713 140.587 109.713 140.402C109.713 140.216 109.544 140.091 109.205 140.027C108.872 139.957 108.408 139.922 107.813 139.922ZM107.813 141.438C107.269 141.438 106.801 141.406 106.411 141.342C106.027 141.278 105.729 141.173 105.518 141.026C105.313 140.872 105.211 140.664 105.211 140.402C105.211 140.139 105.313 139.934 105.518 139.787C105.729 139.64 106.027 139.534 106.411 139.47C106.801 139.406 107.269 139.374 107.813 139.374C108.357 139.374 108.824 139.406 109.214 139.47C109.605 139.534 109.902 139.64 110.107 139.787C110.318 139.934 110.424 140.139 110.424 140.402C110.424 140.664 110.318 140.872 110.107 141.026C109.902 141.173 109.605 141.278 109.214 141.342C108.824 141.406 108.357 141.438 107.813 141.438ZM106.209 138.059V137.493L109.425 137.493V138.059L106.209 138.059ZM4.52016 154.64H3.78096L3.78096 152.739H4.52016L4.52016 154.64ZM0.72816 154.947L0.72816 154.323H8.19696L8.19696 154.947H0.72816ZM4.46256 156.282C3.72016 156.282 3.16016 156.352 2.78256 156.493C2.41136 156.634 2.22576 156.877 2.22576 157.222C2.22576 157.562 2.41136 157.805 2.78256 157.952C3.16016 158.093 3.72016 158.163 4.46256 158.163C5.20496 158.163 5.76176 158.093 6.13296 157.952C6.51056 157.805 6.69936 157.562 6.69936 157.222C6.69936 156.877 6.51056 156.634 6.13296 156.493C5.76176 156.352 5.20496 156.282 4.46256 156.282ZM4.46256 158.778C3.50256 158.778 2.76656 158.65 2.25456 158.394C1.74896 158.138 1.49616 157.747 1.49616 157.222C1.49616 156.698 1.74896 156.307 2.25456 156.051C2.76656 155.795 3.50256 155.667 4.46256 155.667C5.42256 155.667 6.15536 155.795 6.66096 156.051C7.17296 156.307 7.42896 156.698 7.42896 157.222C7.42896 157.747 7.17296 158.138 6.66096 158.394C6.15536 158.65 5.42256 158.778 4.46256 158.778ZM1.53456 151.472L1.53456 150.867H7.21776L7.21776 152.125C7.21776 152.413 7.20816 152.682 7.18896 152.931C7.17616 153.174 7.15376 153.443 7.12176 153.738L6.39216 153.67C6.42416 153.395 6.44656 153.146 6.45936 152.922C6.47856 152.691 6.48816 152.438 6.48816 152.163L6.48816 151.472H1.53456ZM13.0588 154.928H12.31L12.31 153.373H13.0588L13.0588 154.928ZM8.95003 155.13L8.95003 154.515L16.4188 154.515V155.13L8.95003 155.13ZM12.6844 156.358C11.942 156.358 11.382 156.429 11.0044 156.57C10.6332 156.704 10.4476 156.938 10.4476 157.27C10.4476 157.597 10.6332 157.827 11.0044 157.962C11.382 158.096 11.942 158.163 12.6844 158.163C13.4268 158.163 13.9836 158.096 14.3548 157.962C14.7324 157.827 14.9212 157.597 14.9212 157.27C14.9212 156.938 14.7324 156.704 14.3548 156.57C13.9836 156.429 13.4268 156.358 12.6844 156.358ZM12.6844 158.778C11.7244 158.778 10.9884 158.653 10.4764 158.403C9.97084 158.16 9.71804 157.782 9.71804 157.27C9.71804 156.752 9.97084 156.371 10.4764 156.128C10.9884 155.878 11.7244 155.754 12.6844 155.754C13.6508 155.754 14.3868 155.878 14.8924 156.128C15.398 156.371 15.6508 156.752 15.6508 157.27C15.6508 157.782 15.398 158.16 14.8924 158.403C14.3868 158.653 13.6508 158.778 12.6844 158.778ZM9.90044 153.622L9.90044 150.848H15.3628V151.453H10.63L10.63 153.018H15.5068L15.5068 153.622H9.90044ZM17.1719 155.802V155.178L24.6407 155.178V155.802H17.1719ZM21.2807 158.691H20.5319L20.5319 155.408H21.2807L21.2807 158.691ZM17.7671 154.525L17.5655 153.901C18.2311 153.696 18.7815 153.485 19.2167 153.267C19.6583 153.05 19.9879 152.81 20.2055 152.547C20.4231 152.285 20.5319 151.99 20.5319 151.664V151.386H21.2807V151.664C21.2807 151.99 21.3895 152.285 21.6071 152.547C21.8247 152.81 22.1511 153.05 22.5863 153.267C23.0279 153.485 23.5815 153.696 24.2471 153.901L24.0455 154.525C23.4375 154.314 22.9063 154.102 22.4519 153.891C22.0039 153.674 21.6295 153.424 21.3287 153.142C21.0279 152.861 20.8007 152.512 20.6471 152.096H21.1655C21.0183 152.512 20.7943 152.861 20.4935 153.142C20.1927 153.424 19.8151 153.674 19.3607 153.891C18.9063 154.102 18.3751 154.314 17.7671 154.525ZM17.9495 151.549V150.944H23.8631V151.549H17.9495ZM32.181 158.701H31.4418L31.4418 150.483H32.181L32.181 158.701ZM25.4418 157.376V156.762H27.1506C27.8482 156.762 28.4914 156.739 29.0802 156.694C29.669 156.643 30.2578 156.573 30.8466 156.483L30.933 157.098C30.5362 157.155 30.1394 157.206 29.7426 157.251C29.3522 157.29 28.9298 157.322 28.4754 157.347C28.0274 157.366 27.525 157.376 26.9682 157.376H25.4418ZM28.4562 155.158L28.4562 157.078H27.7266L27.7266 155.158H28.4562ZM25.9218 152.931V152.317H30.261V152.931H25.9218ZM27.7266 152.576H28.4562V152.835C28.4562 153.104 28.533 153.35 28.6866 153.574C28.8402 153.798 29.0706 154.016 29.3778 154.227C29.6914 154.432 30.085 154.646 30.5586 154.87L30.261 155.485C29.845 155.274 29.4738 155.062 29.1474 154.851C28.821 154.64 28.549 154.403 28.3314 154.141C28.1138 153.872 27.9634 153.555 27.8802 153.19H28.3026C28.2322 153.472 28.133 153.725 28.005 153.949C27.877 154.173 27.717 154.381 27.525 154.573C27.333 154.758 27.1026 154.944 26.8338 155.13C26.5714 155.309 26.2578 155.501 25.893 155.706L25.5762 155.101C26.0946 154.826 26.5106 154.57 26.8242 154.333C27.1378 154.096 27.365 153.859 27.5058 153.622C27.653 153.379 27.7266 153.117 27.7266 152.835V152.576ZM26.8722 151.597V150.973H29.3106V151.597H26.8722ZM34.0381 152.499H35.0845L35.0845 153.565H34.0381L34.0381 152.499ZM34.0381 156.435H35.0845L35.0845 157.491H34.0381L34.0381 156.435ZM38.6313 157.933V157.309H46.1001V157.933H38.6313ZM45.4089 154.707V155.312L39.3225 155.312V154.707L45.4089 154.707ZM39.3033 151.232L45.4281 151.232V151.837L39.3033 151.837V151.232ZM40.5417 152.269H41.2521L41.2521 155.11H40.5417L40.5417 152.269ZM43.4889 152.269H44.1993L44.1993 155.11L43.4889 155.11L43.4889 152.269ZM53.6404 158.701H52.9108L52.9108 150.483H53.6404L53.6404 158.701ZM47.2948 153.603H50.2612L50.2612 151.885H47.266V151.261H51.0004L51.0004 154.208H48.0244V156.08H48.898C49.5764 156.08 50.1524 156.061 50.626 156.022C51.0996 155.984 51.522 155.942 51.8932 155.898L51.9508 156.512C51.7012 156.544 51.426 156.576 51.1252 156.608C50.8244 156.634 50.4756 156.656 50.0788 156.675C49.682 156.694 49.2084 156.704 48.658 156.704H47.2948V153.603ZM61.8622 158.701H61.1326L61.1326 150.483H61.8622L61.8622 158.701ZM55.8142 153.613L59.0302 153.613V154.218L55.8142 154.218V153.613ZM55.5166 151.28L59.3854 151.28V151.894L56.2462 151.894L56.2462 156.07L57.1294 156.07C57.8462 156.07 58.4382 156.051 58.9054 156.013C59.379 155.974 59.7982 155.933 60.163 155.888L60.2398 156.502C59.9838 156.534 59.7086 156.566 59.4142 156.598C59.1198 156.624 58.7678 156.646 58.3582 156.666C57.955 156.685 57.4686 156.694 56.899 156.694L55.5166 156.694L55.5166 151.28ZM63.2969 154.707V154.093H70.7657V154.707H63.2969ZM64.2377 156.07V155.485H69.8345V157.318L64.9577 157.318V158.058H70.1705V158.634H64.2281V156.771H69.1049V156.07H64.2377ZM67.4057 155.677H66.6569V154.419H67.4057V155.677ZM70.0457 152.826V153.421H64.0169V152.826H70.0457ZM63.9977 150.637H70.0649L70.0649 151.232H63.9977V150.637ZM65.2457 151.558H65.9465V153.219H65.2457V151.558ZM68.1161 151.558H68.8169V153.219H68.1161V151.558ZM72.2196 159.488H71.586L72.0372 156.934H72.9684L72.2196 159.488ZM82.8992 156.541H82.16L82.16 150.483H82.8992L82.8992 156.541ZM82.5152 153.334H84.2144V153.949H82.5152V153.334ZM78.5312 157.962H83.3504V158.576H77.792V156.426H78.5312V157.962ZM81.3824 152.547H76.5536V151.981H81.3824V152.547ZM77.6864 151.318L77.6864 150.752H80.2784L80.2784 151.318H77.6864ZM80.2304 154.515C80.2304 154.227 80.1216 154.006 79.904 153.853C79.6864 153.699 79.376 153.622 78.9728 153.622C78.5888 153.622 78.2848 153.699 78.0608 153.853C77.8432 154.006 77.7344 154.227 77.7344 154.515C77.7344 154.803 77.8432 155.024 78.0608 155.178C78.2848 155.331 78.5888 155.408 78.9728 155.408C79.376 155.408 79.6864 155.331 79.904 155.178C80.1216 155.024 80.2304 154.803 80.2304 154.515ZM77.0336 154.515C77.0336 154.048 77.2128 153.686 77.5712 153.43C77.9296 153.174 78.3968 153.046 78.9728 153.046C79.568 153.046 80.0448 153.174 80.4032 153.43C80.7616 153.686 80.9408 154.048 80.9408 154.515C80.9408 154.982 80.7616 155.344 80.4032 155.6C80.0448 155.85 79.568 155.974 78.9728 155.974C78.3968 155.974 77.9296 155.85 77.5712 155.6C77.2128 155.344 77.0336 154.982 77.0336 154.515ZM84.7563 154.458V153.843L92.2251 153.843V154.458L84.7563 154.458ZM85.4955 156.618V156.003L91.3035 156.003V158.73H90.5739V156.618H85.4955ZM88.8651 156.214H88.1163V154.074H88.8651V156.214ZM85.5819 151.491L85.5819 150.877L91.2171 150.877L91.2171 152.163C91.2171 152.477 91.1979 152.794 91.1595 153.114C91.1275 153.427 91.0795 153.786 91.0155 154.189H90.2667C90.3243 153.894 90.3691 153.638 90.4011 153.421C90.4331 153.197 90.4555 152.989 90.4683 152.797C90.4811 152.598 90.4875 152.397 90.4875 152.192V151.491L85.5819 151.491ZM99.7654 158.701H99.0262L99.0262 150.483H99.7654L99.7654 158.701ZM96.6838 152.346H99.3526V152.95H96.6838V152.346ZM96.6838 154.986H99.3526V155.59H96.6838V154.986ZM97.1542 153.968C97.1542 154.608 97.071 155.136 96.9046 155.552C96.7446 155.968 96.511 156.278 96.2038 156.483C95.903 156.682 95.5414 156.781 95.119 156.781C94.703 156.781 94.3414 156.682 94.0342 156.483C93.7334 156.278 93.4998 155.968 93.3334 155.552C93.1734 155.136 93.0934 154.608 93.0934 153.968C93.0934 153.322 93.1734 152.79 93.3334 152.374C93.4998 151.958 93.7334 151.651 94.0342 151.453C94.3414 151.254 94.703 151.155 95.119 151.155C95.5414 151.155 95.903 151.254 96.2038 151.453C96.511 151.651 96.7446 151.958 96.9046 152.374C97.071 152.79 97.1542 153.322 97.1542 153.968ZM93.8134 153.968C93.8134 154.474 93.8582 154.89 93.9478 155.216C94.0438 155.542 94.1878 155.782 94.3798 155.936C94.5782 156.09 94.8246 156.166 95.119 156.166C95.4198 156.166 95.6662 156.09 95.8582 155.936C96.0502 155.782 96.1942 155.542 96.2902 155.216C96.3862 154.89 96.4342 154.474 96.4342 153.968C96.4342 153.462 96.3862 153.046 96.2902 152.72C96.1942 152.394 96.0502 152.154 95.8582 152C95.6662 151.846 95.4198 151.77 95.119 151.77C94.8246 151.77 94.5782 151.846 94.3798 152C94.1878 152.154 94.0438 152.394 93.9478 152.72C93.8582 153.046 93.8134 153.462 93.8134 153.968ZM105.328 156.234C104.662 156.234 104.15 156.307 103.792 156.454C103.434 156.602 103.254 156.851 103.254 157.203C103.254 157.549 103.434 157.795 103.792 157.942C104.15 158.09 104.662 158.163 105.328 158.163C105.994 158.163 106.506 158.09 106.864 157.942C107.222 157.795 107.402 157.549 107.402 157.203C107.402 156.851 107.222 156.602 106.864 156.454C106.506 156.307 105.994 156.234 105.328 156.234ZM105.328 158.778C104.752 158.778 104.253 158.72 103.83 158.605C103.408 158.49 103.082 158.314 102.851 158.077C102.627 157.84 102.515 157.549 102.515 157.203C102.515 156.845 102.627 156.55 102.851 156.32C103.082 156.083 103.408 155.907 103.83 155.792C104.253 155.677 104.752 155.619 105.328 155.619C105.91 155.619 106.41 155.677 106.826 155.792C107.248 155.907 107.571 156.083 107.795 156.32C108.019 156.55 108.131 156.845 108.131 157.203C108.131 157.549 108.019 157.84 107.795 158.077C107.571 158.314 107.248 158.49 106.826 158.605C106.41 158.72 105.91 158.778 105.328 158.778ZM107.987 155.475H107.248L107.248 150.483H107.987L107.987 155.475ZM105.395 152.211H107.622V152.835H105.395V152.211ZM101.574 155.226L101.19 154.65C101.709 154.33 102.115 154.032 102.41 153.757C102.704 153.475 102.912 153.194 103.034 152.912C103.162 152.63 103.226 152.326 103.226 152L103.226 150.848H103.965L103.965 151.971C103.965 152.285 104.022 152.582 104.138 152.864C104.259 153.139 104.464 153.405 104.752 153.661C105.046 153.917 105.45 154.179 105.962 154.448L105.616 155.034C105.27 154.848 104.973 154.666 104.723 154.486C104.48 154.301 104.272 154.112 104.099 153.92C103.926 153.722 103.782 153.514 103.667 153.296C103.558 153.078 103.466 152.845 103.389 152.595H103.782C103.706 152.877 103.606 153.133 103.485 153.363C103.37 153.594 103.226 153.811 103.053 154.016C102.88 154.214 102.672 154.413 102.429 154.611C102.186 154.803 101.901 155.008 101.574 155.226ZM115.777 158.701H115.048L115.048 150.483H115.777L115.777 158.701ZM115.403 153.882H117.102V154.496H115.403V153.882ZM109.787 156.992L109.307 156.454C109.844 155.994 110.267 155.571 110.574 155.187C110.888 154.797 111.112 154.413 111.246 154.035C111.38 153.651 111.448 153.248 111.448 152.826V151.203H112.187V152.826C112.187 153.242 112.251 153.635 112.379 154.006C112.507 154.378 112.724 154.755 113.032 155.139C113.345 155.523 113.771 155.942 114.308 156.397L113.828 156.944C113.438 156.598 113.099 156.266 112.811 155.946C112.523 155.619 112.283 155.28 112.091 154.928C111.899 154.576 111.752 154.186 111.649 153.757H111.976C111.873 154.192 111.726 154.589 111.534 154.947C111.342 155.306 111.102 155.648 110.814 155.974C110.526 156.301 110.184 156.64 109.787 156.992ZM124.431 158.701H123.692L123.692 150.483H124.431L124.431 158.701ZM117.692 157.472V156.858H119.401C120.098 156.858 120.741 156.835 121.33 156.79C121.919 156.739 122.508 156.669 123.097 156.579L123.183 157.194C122.786 157.251 122.389 157.302 121.993 157.347C121.602 157.386 121.18 157.418 120.725 157.443C120.277 157.462 119.775 157.472 119.218 157.472H117.692ZM120.668 155.658V157.251H119.929V155.658H120.668ZM120.303 153.603C119.906 153.603 119.596 153.68 119.372 153.834C119.148 153.981 119.036 154.205 119.036 154.506C119.036 154.813 119.148 155.043 119.372 155.197C119.596 155.344 119.906 155.418 120.303 155.418C120.7 155.418 121.007 155.344 121.225 155.197C121.449 155.043 121.561 154.813 121.561 154.506C121.561 154.205 121.449 153.981 121.225 153.834C121.007 153.68 120.7 153.603 120.303 153.603ZM120.303 155.994C119.701 156 119.221 155.872 118.863 155.61C118.511 155.347 118.335 154.979 118.335 154.506C118.335 154.038 118.511 153.674 118.863 153.411C119.221 153.149 119.701 153.021 120.303 153.027C120.905 153.034 121.381 153.165 121.733 153.421C122.092 153.677 122.271 154.038 122.271 154.506C122.271 154.979 122.092 155.344 121.733 155.6C121.381 155.856 120.905 155.987 120.303 155.994ZM117.865 152.595V152H122.732V152.595H117.865ZM118.959 151.424L118.959 150.838H121.637L121.637 151.424H118.959ZM132.221 158.701H131.491V150.483H132.221V158.701ZM131.846 153.882H133.546V154.496H131.846V153.882ZM126.067 151.942V151.318H130.397V151.942H126.067ZM126.23 157.059L125.76 156.512C126.291 156.051 126.71 155.629 127.018 155.245C127.325 154.854 127.542 154.47 127.67 154.093C127.798 153.709 127.862 153.306 127.862 152.883V151.51H128.602V152.883C128.602 153.299 128.666 153.693 128.794 154.064C128.922 154.435 129.139 154.813 129.446 155.197C129.754 155.574 130.173 155.994 130.704 156.454L130.234 156.992C129.85 156.646 129.514 156.314 129.226 155.994C128.944 155.667 128.707 155.331 128.515 154.986C128.323 154.634 128.176 154.243 128.074 153.814H128.39C128.294 154.25 128.15 154.646 127.958 155.005C127.773 155.363 127.536 155.709 127.248 156.042C126.966 156.368 126.627 156.707 126.23 157.059ZM140.145 155.629H140.875V158.624H135.595V155.629H136.315V158.019H140.145V155.629ZM140.683 156.522V157.126L135.816 157.126V156.522H140.683ZM140.875 155.245H140.136V150.483H140.875V155.245ZM138.696 152.278H134.116V151.722H138.705L138.696 152.278ZM135.182 151.146V150.589H137.649V151.146H135.182ZM137.592 154.016C137.592 153.773 137.486 153.594 137.275 153.478C137.07 153.357 136.788 153.296 136.43 153.296C136.059 153.296 135.771 153.357 135.566 153.478C135.368 153.594 135.268 153.773 135.268 154.016C135.268 154.259 135.368 154.442 135.566 154.563C135.771 154.685 136.056 154.746 136.42 154.746C136.785 154.746 137.07 154.685 137.275 154.563C137.486 154.442 137.592 154.259 137.592 154.016ZM134.558 154.016C134.558 153.587 134.728 153.267 135.067 153.056C135.412 152.845 135.864 152.739 136.42 152.739C136.984 152.739 137.435 152.845 137.774 153.056C138.113 153.267 138.283 153.587 138.283 154.016C138.283 154.438 138.113 154.758 137.774 154.976C137.435 155.187 136.984 155.293 136.42 155.293C135.864 155.293 135.412 155.187 135.067 154.976C134.728 154.758 134.558 154.438 134.558 154.016ZM138.696 152.49H140.52V153.075H138.696V152.49ZM138.696 154.054H140.52V154.65H138.696V154.054ZM149.097 158.701H148.357V150.483H149.097V158.701ZM142.357 157.472V156.858H144.066C144.764 156.858 145.407 156.835 145.996 156.79C146.585 156.739 147.173 156.669 147.762 156.579L147.849 157.194C147.452 157.251 147.055 157.302 146.658 157.347C146.268 157.386 145.845 157.418 145.391 157.443C144.943 157.462 144.441 157.472 143.884 157.472H142.357ZM145.333 155.658V157.251H144.594V155.658H145.333ZM144.969 153.603C144.572 153.603 144.261 153.68 144.037 153.834C143.813 153.981 143.701 154.205 143.701 154.506C143.701 154.813 143.813 155.043 144.037 155.197C144.261 155.344 144.572 155.418 144.969 155.418C145.365 155.418 145.673 155.344 145.89 155.197C146.114 155.043 146.226 154.813 146.226 154.506C146.226 154.205 146.114 153.981 145.89 153.834C145.673 153.68 145.365 153.603 144.969 153.603ZM144.969 155.994C144.367 156 143.887 155.872 143.529 155.61C143.177 155.347 143.001 154.979 143.001 154.506C143.001 154.038 143.177 153.674 143.529 153.411C143.887 153.149 144.367 153.021 144.969 153.027C145.57 153.034 146.047 153.165 146.399 153.421C146.757 153.677 146.937 154.038 146.937 154.506C146.937 154.979 146.757 155.344 146.399 155.6C146.047 155.856 145.57 155.987 144.969 155.994ZM142.53 152.595V152H147.397V152.595H142.53ZM143.625 151.424V150.838H146.303V151.424H143.625Z" fill="#383838"/>
</svg>
