<svg width="72" height="42" viewBox="0 0 72 42" fill="none" xmlns="http://www.w3.org/2000/svg">
<rect width="72" height="42" fill="white"/>
<path d="M28.4912 34.8672C28.732 34.8672 28.9501 34.9146 29.1455 35.0088C29.3408 35.0995 29.5065 35.2268 29.6426 35.3906L29.3291 35.7051C29.2104 35.562 29.0824 35.4569 28.9463 35.3906C28.8138 35.321 28.662 35.2861 28.4912 35.2861C28.2783 35.2861 28.1104 35.3311 27.9883 35.4219C27.8697 35.5126 27.8106 35.6422 27.8105 35.8096C27.8105 35.942 27.8454 36.0539 27.915 36.1445C27.9848 36.2317 28.0722 36.3036 28.1768 36.3594C28.2849 36.4117 28.4336 36.4732 28.6221 36.543C28.8454 36.6232 29.0274 36.7015 29.167 36.7783C29.3064 36.8516 29.4248 36.9619 29.5225 37.1084C29.6201 37.2514 29.6689 37.4378 29.6689 37.668C29.6689 37.9925 29.5573 38.2439 29.334 38.4219C29.1142 38.5998 28.8073 38.6894 28.4131 38.6895C27.8372 38.6895 27.3922 38.4793 27.0781 38.0605L27.418 37.7725C27.5506 37.947 27.6955 38.075 27.8525 38.1553C28.013 38.232 28.2084 38.2705 28.4385 38.2705C28.6653 38.2705 28.8487 38.2193 28.9883 38.1182C29.1279 38.017 29.1982 37.8758 29.1982 37.6943C29.1982 37.5512 29.1612 37.4321 29.0879 37.3379C29.0146 37.2438 28.9221 37.1704 28.8105 37.1182C28.6989 37.0624 28.5487 37.0018 28.3604 36.9355C28.1335 36.8483 27.9539 36.7676 27.8213 36.6943C27.6887 36.621 27.5747 36.516 27.4805 36.3799C27.3865 36.2404 27.3398 36.059 27.3398 35.8359C27.3398 35.5393 27.444 35.3034 27.6533 35.1289C27.8662 34.9544 28.1457 34.8672 28.4912 34.8672ZM46.2168 34.8672C46.4993 34.8672 46.7575 34.9161 46.9912 35.0137C47.225 35.1079 47.43 35.2425 47.6045 35.417L47.2637 35.7314C47.1415 35.5954 46.99 35.4865 46.8086 35.4062C46.6306 35.326 46.4332 35.2861 46.2168 35.2861C45.9518 35.2861 45.7128 35.3506 45.5 35.4795C45.2906 35.6051 45.1265 35.782 45.0078 36.0088C44.8892 36.2356 44.8291 36.4921 44.8291 36.7783C44.8291 37.0645 44.8892 37.321 45.0078 37.5479C45.1265 37.7746 45.2907 37.9529 45.5 38.082C45.7128 38.2075 45.9517 38.2705 46.2168 38.2705C46.6461 38.2705 47.0039 38.1129 47.29 37.7988L47.6299 38.1396C47.4555 38.314 47.2512 38.4478 47.0176 38.542C46.7838 38.6397 46.5258 38.6894 46.2432 38.6895C45.8837 38.6895 45.5606 38.605 45.2744 38.4375C44.9884 38.27 44.7636 38.0415 44.5996 37.752C44.4391 37.4588 44.3584 37.1343 44.3584 36.7783C44.3584 36.4259 44.4391 36.1051 44.5996 35.8154C44.7601 35.5224 44.9811 35.2915 45.2637 35.124C45.5464 34.953 45.8643 34.8672 46.2168 34.8672ZM26.7588 35.3379H24.7441V36.542H26.6279V36.9346H24.7441V38.2168H26.7852L26.8115 38.6357H24.4561C24.3514 38.6357 24.2988 38.5832 24.2988 38.4785V34.9189H26.7588V35.3379ZM32.8418 35.3379H31.5596V38.6357H31.0889V35.3379H29.8057L29.7793 34.9189H32.8418V35.3379ZM33.7812 36.5156H35.7441V34.9189H36.2158V38.6357H35.7441V36.9082H33.7812V38.6357H33.3359V34.9189H33.7812V36.5156ZM39.4346 35.3379H37.4199V36.542H39.3037V36.9346H37.4199V38.2168H39.4609L39.4873 38.6357H37.1318C37.0271 38.6357 36.9746 38.5832 36.9746 38.4785V34.9189H39.4346V35.3379ZM42.8164 35.3379H41.5332V38.6357H41.0625V35.3379H39.7803L39.7539 34.9189H42.8164V35.3379ZM43.7549 38.6357H43.3105V34.9189H43.7549V38.6357ZM23.3516 25.3047V27.5303C23.3516 29.9784 23.4027 30.2299 24.0156 30.7998C24.3235 31.086 24.4709 31.1352 25.126 31.168C26.0895 31.2161 26.5637 30.9863 26.9199 30.2998C27.1576 29.8416 27.1729 29.6772 27.1729 27.5586V25.3047H28.084L28.0498 27.7207C28.017 30.0413 28.0052 30.1588 27.7354 30.6914C27.2151 31.7185 25.9872 32.2242 24.6211 31.9746C23.7935 31.8234 23.2183 31.4407 22.8242 30.7783L22.5088 30.248L22.4727 27.7764L22.4375 25.3047H23.3516ZM21.041 25.3242L21.5967 25.3604L20.1826 26.7988L18.7695 28.2373L19.3711 28.9648C20.3304 30.1244 21.666 31.8365 21.666 31.9062C21.6644 31.9413 21.4375 31.9697 21.1611 31.9697H20.6572L19.3965 30.4131L18.1357 28.8555L17.4844 29.4932L16.833 30.1299V31.9697H15.9336V25.3047H16.833V29.0146L18.6592 27.1514L20.4854 25.2871L21.041 25.3242ZM30.0098 25.3262L30.4873 25.3604L31.627 27.0596L32.7676 28.7598L33.2578 28.0596C33.5274 27.6747 34.0519 26.8982 34.4229 26.334L35.0967 25.3086L35.5742 25.3066L36.0527 25.3047V31.9697H35.1572L35.0967 26.8623L33.9727 28.5234C33.3546 29.4368 32.8212 30.1861 32.7871 30.1885C32.7524 30.1899 32.2221 29.459 31.6074 28.5645L30.4893 26.9375L30.459 29.4531L30.4287 31.9697H29.5332V25.292L30.0098 25.3262ZM38.5254 25.3047V28.1934H42.459V25.3047H43.3584V31.9697H42.459V28.9707H38.5254V31.9697H37.626V25.3047H38.5254ZM56.0586 25.3047V26.082H52.0127V28.1934H55.6094V28.9707H52.0127V31.0762L56.0029 31.1367L56.0371 31.5537L56.0723 31.9697H51.1133V25.3047H56.0586ZM49.6523 25.3047V26.082H45.6064V28.1875L47.4326 28.2178L49.2588 28.249L49.2939 28.6094L49.3291 28.9707H45.6064V31.0762L49.708 31.1367V31.9141H44.7627L44.7334 28.75C44.717 27.0104 44.7278 25.5237 44.7578 25.4453C44.7993 25.3383 45.3869 25.3047 47.2324 25.3047H49.6523ZM53.4736 16.7783C54.5866 16.8224 55.2072 17.0287 55.6367 17.498C55.825 17.7038 55.8214 17.7236 55.5479 17.9775C55.291 18.2161 55.2376 18.2275 55.0146 18.0879C53.6357 17.2249 52.2266 17.3842 51.376 18.499C50.3858 19.7973 50.7836 21.8588 52.1504 22.5127C52.8421 22.8437 53.9228 22.8381 54.6016 22.5L55.1035 22.25L55.1367 21.4443L55.1699 20.6396H53.1221L53.1924 19.917L54.626 19.8857L56.0586 19.8555V22.624L55.7344 22.8516C55.0096 23.3616 54.3545 23.5591 53.3613 23.5664C52.5942 23.5721 52.2895 23.523 51.8164 23.3154C51.1356 23.0165 50.5155 22.3865 50.1777 21.6523C49.845 20.9288 49.845 19.4607 50.1777 18.7373C50.5049 18.0261 51.1332 17.373 51.8232 17.0273C52.3558 16.7606 52.4975 16.7398 53.4736 16.7783ZM16.833 16.8623V19.751H20.6543V16.8623H21.666V23.54L21.1885 23.5059L20.71 23.4717L20.6475 20.5283H16.833V23.5273H15.9336V16.8623H16.833ZM27.7012 16.835C27.7789 16.6991 28.2765 16.7403 28.375 16.8906C28.4261 16.9704 28.8487 18.181 29.3154 19.584L30.166 22.1387L31.0557 19.501L31.9463 16.8623H32.4258C32.6895 16.8623 32.9046 16.8753 32.9043 16.8906C32.8987 16.9204 32.4683 18.1267 31.9424 19.584C31.4133 21.05 30.8766 22.5396 30.75 22.8945C30.5248 23.5262 30.5123 23.5389 30.1299 23.5059L29.7402 23.4717L28.9238 21.084C28.4748 19.7704 28.0865 18.6334 28.0615 18.5576C28.0363 18.4824 27.6176 19.5695 27.1309 20.9736L26.2451 23.5273H25.8779C25.4617 23.5274 25.5211 23.6272 24.9238 21.917C24.689 21.2449 24.1897 19.8323 23.8145 18.7783L23.1318 16.8623H24.1035L25.8926 22.1006L26.7734 19.5088C27.2575 18.0839 27.675 16.8807 27.7012 16.835ZM36.3203 16.8848C36.752 16.9172 36.7637 16.9305 37.1514 17.8066C37.3676 18.2954 38.0438 19.7646 38.6533 21.0713C39.2628 22.3779 39.7617 23.4652 39.7617 23.4873C39.7617 23.5094 39.54 23.5273 39.2695 23.5273H38.7773L38.4062 22.6387L38.0342 21.75L36.2852 21.751L34.5352 21.752L34.1523 22.6396L33.7705 23.5273H33.3379C33.1003 23.5273 32.9057 23.4783 32.9053 23.418C32.9053 23.3577 33.2491 22.57 33.6699 21.668C34.0907 20.7661 34.7612 19.3139 35.1592 18.4404L35.8828 16.8525L36.3203 16.8848ZM42.2041 16.8838C42.6058 16.9168 42.7077 17.0238 44.5928 19.3965L46.5615 21.874L46.6221 16.8623H47.5205L47.4902 20.167L47.4609 23.4717L47.1133 23.5059C46.798 23.5362 46.7019 23.4561 46.0488 22.6172C45.654 22.11 44.9073 21.1698 44.3887 20.5283C43.8703 19.887 43.2493 19.118 43.0088 18.8193L42.5713 18.2764V23.5273H41.7842V16.8486L42.2041 16.8838ZM36.709 18.8916C36.3515 18.0427 36.2297 17.9294 36.1025 18.3252C36.0599 18.4577 35.8584 18.9201 35.6553 19.3525C35.1435 20.4417 34.9179 20.9992 34.9678 21.0488C34.9911 21.0719 35.6196 21.0768 36.3643 21.0596L37.7188 21.0283L37.3838 20.3633C37.1996 19.9977 36.8961 19.3355 36.709 18.8916ZM32.9053 3.31055V13.5303H30.9941V3.31055H32.9053ZM38.1875 8.75391V13.5303H33.8047V8.75391H38.1875ZM38.1875 3.31055V6.97656H38.9746V3.31055H40.998V13.5303H38.9746V8.08691H33.8047V3.31055H38.1875Z" fill="#252525"/>
</svg>
