<svg width="72" height="42" viewBox="0 0 72 42" fill="none" xmlns="http://www.w3.org/2000/svg">
<g clip-path="url(#clip0_3377_40767)">
<rect width="72" height="42" fill="white"/>
<path d="M59.2891 16.6729C59.9051 16.5908 61.229 16.6373 61.9014 16.7646C62.3953 16.8583 63.1048 17.0835 63.1758 17.1689C63.1948 17.1906 63.3461 17.2792 63.5137 17.3662C64.1132 17.6774 64.6617 18.1479 65.0732 18.7041C65.2931 19.0012 65.5152 19.3004 65.5674 19.3701C65.7004 19.5477 66.0265 20.4135 66.1377 20.8848C66.1893 21.1038 66.2319 21.4607 66.2324 21.6777C66.2332 22.0024 66.2069 22.1039 66.082 22.249C65.9489 22.4038 65.8686 22.4307 65.4287 22.4707C65.1527 22.4957 63.7347 22.519 62.2773 22.5215C59.4126 22.5264 58.2695 22.5701 58.2695 22.6748C58.2705 22.81 58.7416 23.6543 59.0508 24.0742C59.8713 25.1888 61.0811 25.6264 62.3369 25.2637C63.0966 25.0443 63.6471 25.181 63.9404 25.6621C64.2233 26.126 64.0133 26.5969 63.416 26.8369C62.0512 27.3853 59.9504 27.2344 58.4287 26.4785C57.9052 26.2185 57.6749 26.052 57.1357 25.5459C56.2602 24.724 55.7768 23.9962 55.4912 23.0674C55.4266 22.8574 55.3564 22.6711 55.335 22.6533C55.2578 22.5901 55.1475 21.8576 55.1475 21.4092C55.1475 20.925 55.2334 20.3496 55.3369 20.1367C55.371 20.0663 55.4546 19.8564 55.5234 19.6699C55.8382 18.8168 56.5344 17.9449 57.3008 17.4443C57.5006 17.3138 57.6804 17.185 57.7002 17.1582C57.7773 17.056 58.8326 16.7337 59.2891 16.6729ZM38.3447 16.6328C39.0586 16.4485 40.0064 16.4255 40.7314 16.5752C41.3307 16.699 41.9828 16.9397 42.2422 17.1328C42.3496 17.2127 42.5742 17.3569 42.7412 17.4531C43.1452 17.686 43.8309 18.3331 43.959 18.6025C44.1977 19.1055 44.0495 19.3693 43.1689 20.0098C42.5594 20.4532 41.5102 21.194 41.0986 21.4717C40.9234 21.5899 40.493 21.8806 40.1426 22.1172C39.0886 22.8287 37.8784 23.7436 37.9141 23.8018C38.004 23.9473 38.923 24.4425 39.3467 24.5742C39.727 24.6924 39.9675 24.7229 40.5254 24.7217C41.1441 24.7204 41.2678 24.7006 41.582 24.5547C42.0593 24.333 42.286 24.1435 42.9355 23.4238C43.1701 23.164 43.4875 23.0349 43.8936 23.0352C44.4642 23.0355 44.8152 23.3696 44.7402 23.8408C44.6681 24.2931 43.8937 25.1894 43.1221 25.7129C41.2091 27.0103 39.0946 27.2482 36.9775 26.4043C36.5277 26.225 36.2851 26.0711 35.3408 25.3682C34.8355 24.9919 34.2521 24.1068 34.0547 23.417C34.0095 23.2594 33.9502 23.1001 33.9229 23.0635C33.8955 23.0259 33.8384 22.7351 33.7959 22.416C33.7355 21.9622 33.7352 21.6983 33.7949 21.2129C33.837 20.871 33.8954 20.5608 33.9248 20.5234C33.9542 20.4856 34.0394 20.268 34.1143 20.04C34.2782 19.5406 34.7276 18.8511 35.1611 18.4355C35.5328 18.0793 36.5217 17.3892 36.7979 17.293C36.9028 17.2563 36.9887 17.2046 36.9893 17.1777C36.9893 17.091 37.741 16.7889 38.3447 16.6328ZM28.2607 16.5049C28.9151 16.5209 29.2351 16.5597 29.5986 16.667C30.1818 16.8391 30.4305 16.9617 31.1279 17.4199C31.8264 17.8789 32.3488 18.4049 32.4531 18.7529C32.5779 19.1695 32.4516 19.3867 31.8164 19.8477C31.5253 20.059 31.2011 20.3049 31.0957 20.3945C30.9906 20.4841 30.5317 20.8041 30.0762 21.1055C29.6206 21.4069 29.2333 21.6742 29.2158 21.6992C29.1978 21.7245 28.9715 21.8824 28.7119 22.0498C28.138 22.4199 27.2843 23.0224 26.7432 23.4395C26.2788 23.7974 26.2787 23.7958 26.9102 24.167C27.4146 24.4635 27.773 24.6 28.2881 24.6895C29.5703 24.9124 30.5087 24.5486 31.2695 23.5342C31.5995 23.0945 32.2962 22.9096 32.8125 23.125C33.2507 23.3081 33.3003 23.8237 32.9326 24.374C32.6262 24.8326 31.9231 25.5228 31.5332 25.748C31.3626 25.8466 31.2073 25.9489 31.1885 25.9756C31.1029 26.097 29.9818 26.5619 29.4521 26.6953C28.6386 26.9002 28.0821 26.9426 27.3164 26.8584C26.0159 26.7153 25.1712 26.3998 24.2461 25.7119C23.4964 25.1544 23.3766 25.0374 23.0654 24.5566C22.4636 23.6268 22.2818 23.0725 22.2305 22.0156C22.1876 21.1336 22.2866 20.5836 22.6162 19.8799C22.8929 19.2894 23.1121 18.9676 23.5537 18.5039C24.2013 17.8241 25.7314 16.9056 26.6035 16.6729C27.3108 16.4842 27.3291 16.4822 28.2607 16.5049ZM9.46484 12.0254C10.8415 11.951 11.098 11.9623 11.4131 12.1162C11.7211 12.2667 11.7984 12.4608 11.6982 12.833C11.6336 13.0728 11.5857 13.1253 11.335 13.2363C11.0914 13.344 11.0203 13.4191 10.8867 13.7109C10.5438 14.4599 10.4136 15.5583 10.2861 18.7676C10.1839 21.3412 10.2889 23.758 10.543 24.6631C10.6909 25.1902 10.6061 25.1664 12.4463 25.1895C14.1821 25.2111 15.1148 25.1474 16.0596 24.9424C16.6172 24.8214 17.6477 24.5057 18.0342 24.3379C18.8016 24.0046 19.2055 23.7949 19.3574 23.6514C19.7354 23.2942 20.0913 23.1419 20.6191 23.1113C21.4479 23.0634 21.6337 23.1676 21.6338 23.6777C21.6338 23.959 21.6059 24.0245 21.3701 24.2803C21.2248 24.438 20.9736 24.6641 20.8125 24.7832C20.6514 24.9022 20.3185 25.2492 20.0732 25.5537C19.828 25.8582 19.5589 26.1913 19.4756 26.2939C19.3923 26.3966 19.206 26.5438 19.0615 26.6211L18.7988 26.7617H12.4316C8.22403 26.7617 6.02442 26.7393 5.93359 26.6963C5.78744 26.6241 5.73051 26.2894 5.80078 25.915C5.83193 25.7494 5.88945 25.6804 6.05469 25.6113C6.30757 25.5057 6.45794 25.166 6.63086 24.3066C6.69047 24.0105 6.76422 23.7111 6.79492 23.6406C6.94975 23.2865 7.10523 20.3485 7.10645 17.7617C7.10753 15.4254 7.00151 14.305 6.7207 13.6885C6.6531 13.5399 6.59766 13.3889 6.59766 13.3535C6.59737 13.3183 6.55585 13.2891 6.50488 13.2891C6.34093 13.2891 6.09346 12.9563 6.05176 12.6787C6.01238 12.4163 6.08976 12.1655 6.24121 12.0635C6.2818 12.0376 6.7717 12.032 7.33105 12.0508C7.89175 12.0696 8.85177 12.0585 9.46484 12.0254ZM52.127 16.3701C52.6942 16.387 52.8202 16.4123 53.2061 16.5928C53.7363 16.8409 54.3196 17.4121 54.4346 17.7959C54.4764 17.9355 54.5107 18.2549 54.5107 18.5059C54.5107 18.9427 54.5006 18.9721 54.2871 19.1855C54.0306 19.442 53.6476 19.6248 53.0166 19.791C52.6516 19.8872 52.5256 19.9573 52.2979 20.1914C52.0707 20.425 51.9666 20.4838 51.7139 20.5186C51.3582 20.5674 50.9928 20.4455 50.8838 20.2422C50.7942 20.0747 50.7961 19.6254 50.8867 19.4482C50.9259 19.3717 51.0598 19.2018 51.1846 19.0713C51.4062 18.8395 51.4081 18.8313 51.2939 18.7051C51.2075 18.6099 51.0977 18.5762 50.8711 18.5762C50.5834 18.5762 50.1143 18.7374 50.1143 18.8359C50.1136 18.8603 50.058 18.8943 49.9902 18.9121C49.9219 18.9299 49.8046 19.0416 49.7305 19.1592C49.5981 19.3692 49.5967 19.4136 49.625 21.8887C49.6605 24.9963 49.7175 25.3439 50.2383 25.6133C50.4151 25.7047 50.624 26.0989 50.624 26.3418C50.6239 26.4073 50.5717 26.5255 50.5078 26.6045L50.3906 26.748L48.1221 26.7432C46.7051 26.7399 45.8095 26.7136 45.7305 26.6729C45.6633 26.6369 45.5712 26.5184 45.5264 26.4102C45.4208 26.1553 45.5419 25.7551 45.7773 25.5801C46.3009 25.1912 46.3578 24.9064 46.4854 22.0479C46.5792 19.9455 46.5689 18.876 46.4492 18.4189C46.3368 17.9894 46.2285 17.8437 45.9111 17.6934C45.7897 17.6358 45.6254 17.4887 45.5459 17.3662C45.4664 17.2436 45.3727 17.1088 45.3379 17.0674C45.2598 16.9727 45.4164 16.5695 45.5518 16.5176C45.6045 16.4979 46.5294 16.4994 47.6084 16.5205L49.5723 16.5586L49.748 16.7461C49.8444 16.8492 49.9228 16.9736 49.9229 17.0225C49.9229 17.1564 49.9748 17.1373 50.5459 16.7939C51.2315 16.3817 51.3618 16.3474 52.127 16.3701ZM28.0332 18.3203C27.6163 18.2521 27.5467 18.2522 27.0752 18.3213C26.1571 18.4559 25.7397 18.7589 25.3623 19.5635C25.1046 20.1129 24.9482 20.7886 24.9297 21.4316C24.9176 21.8533 24.936 21.9482 25.0635 22.127C25.1447 22.2408 25.2528 22.334 25.3037 22.334C25.3556 22.3331 25.7185 22.0969 26.1113 21.8076C26.7518 21.3358 27.5358 20.7791 28.1152 20.3857C28.2283 20.309 28.5136 20.0701 28.749 19.8545L29.1768 19.4629L28.9893 19.1133C28.7027 18.5793 28.4788 18.3933 28.0332 18.3203ZM39.9121 18.3926C39.6224 18.2916 38.9825 18.2584 38.5674 18.3232C38.0514 18.4039 37.6095 18.6115 37.3447 18.8975C37.2193 19.0329 37.1162 19.172 37.1162 19.2061C37.1161 19.2402 37.0742 19.3106 37.0225 19.3623C36.6185 19.7665 36.3213 21.6331 36.5889 22.0859C36.7754 22.4016 36.871 22.3797 37.5771 21.8623C37.9371 21.5985 38.6041 21.1257 39.0596 20.8115C40.1315 20.0721 40.7154 19.5384 40.6562 19.3516C40.5586 19.0441 40.105 18.4598 39.9121 18.3926ZM61.8701 18.5039C61.4007 18.2843 60.7926 18.2095 60.4678 18.332C59.9688 18.5204 59.5294 18.8373 58.9258 19.4453C58.458 19.9166 58.2582 20.1667 58.2109 20.3379C58.1393 20.5979 58.1757 20.8455 58.291 20.8848C58.4056 20.9234 62.2633 20.8246 62.7119 20.7715C63.1 20.7254 63.1099 20.7192 63.1494 20.5088C63.2192 20.137 63.1505 19.511 63.0205 19.3389C62.8259 19.0811 62.3203 18.7146 61.8701 18.5039ZM35.2051 6.78809C35.5077 6.72613 35.9533 6.78489 36.2295 6.92383C36.4618 7.04071 36.6621 7.26943 36.9131 7.7041C37.2364 8.26487 36.9462 9.17632 36.3213 9.5625C36.0462 9.73251 35.956 9.75439 35.5205 9.75293C35.0892 9.75145 34.9936 9.72808 34.7227 9.56055C33.6206 8.87941 33.9395 7.04744 35.2051 6.78809ZM35.3633 8.57617C35.1478 8.57617 35.1416 8.58283 35.1416 8.82617C35.1416 9.05191 35.1237 9.07874 34.9658 9.09766L34.791 9.11914L35.0137 9.24121C35.3014 9.39837 35.7463 9.39774 36.0332 9.24023L36.2568 9.11719L36.0488 9.09766C35.8798 9.08129 35.8169 9.03 35.7129 8.82617C35.6011 8.60717 35.557 8.57618 35.3633 8.57617ZM35.5234 7.18066C35.3658 7.18072 35.161 7.21464 35.0684 7.25684C34.5223 7.5054 34.2666 8.33658 34.584 8.83105L34.7275 9.05371L34.7451 8.30566L34.7637 7.55664H35.3867C35.925 7.55665 36.028 7.57443 36.1484 7.68652C36.316 7.84255 36.3379 8.22412 36.1885 8.38965C36.0975 8.49013 36.097 8.51835 36.1875 8.69336C36.3361 8.98056 36.4084 8.99158 36.5127 8.74219C36.6886 8.32129 36.619 7.90345 36.3115 7.53223C36.1014 7.27839 35.882 7.18066 35.5234 7.18066ZM35.4121 7.93945C35.1837 7.93864 35.1416 7.95885 35.1416 8.06641C35.1416 8.17389 35.1837 8.1932 35.4121 8.19238C35.7455 8.19117 35.9241 8.09958 35.7783 8.00391C35.7257 7.96947 35.5609 7.94003 35.4121 7.93945ZM69.207 -1.2334H1.97656V-1.23438H69.207V-1.2334Z" fill="#252525"/>
<path d="M43.9522 32.9511C43.642 32.9511 43.3749 32.8838 43.1511 32.7492C42.9287 32.6131 42.7567 32.4207 42.6353 32.172C42.5138 31.9232 42.4531 31.6291 42.4531 31.2896V31.2853C42.4531 30.9443 42.5138 30.6502 42.6353 30.4029C42.7582 30.1542 42.9316 29.9625 43.1555 29.8279C43.3808 29.6933 43.6464 29.626 43.9522 29.626C44.2595 29.626 44.525 29.6933 44.7489 29.8279C44.9728 29.9625 45.1454 30.1542 45.2669 30.4029C45.3883 30.6517 45.449 30.9458 45.449 31.2853V31.2896C45.449 31.6291 45.3883 31.9232 45.2669 32.172C45.1469 32.4207 44.975 32.6131 44.7511 32.7492C44.5272 32.8838 44.2609 32.9511 43.9522 32.9511ZM43.9522 32.4617C44.1409 32.4617 44.3041 32.4134 44.4416 32.3168C44.5792 32.2202 44.6852 32.0842 44.7599 31.9086C44.836 31.733 44.874 31.5267 44.874 31.2896V31.2853C44.874 31.0468 44.836 30.8404 44.7599 30.6663C44.6852 30.4907 44.5792 30.3554 44.4416 30.2603C44.3041 30.1637 44.1409 30.1154 43.9522 30.1154C43.7649 30.1154 43.6017 30.1637 43.4627 30.2603C43.3252 30.3554 43.2184 30.4907 43.1423 30.6663C43.0677 30.8404 43.0304 31.0468 43.0304 31.2853V31.2896C43.0304 31.5267 43.0669 31.733 43.1401 31.9086C43.2147 32.0842 43.3208 32.2202 43.4583 32.3168C43.5974 32.4134 43.762 32.4617 43.9522 32.4617Z" fill="#252525"/>
<path d="M40.793 32.8722V29.7051H41.3592V32.8722H40.793Z" fill="#252525"/>
<path d="M37.0156 32.8722V29.7051H38.203C38.5176 29.7051 38.7854 29.7665 39.0063 29.8894C39.2287 30.0124 39.3985 30.1909 39.5155 30.425C39.634 30.6591 39.6933 30.9415 39.6933 31.2722V31.2766C39.6933 31.6146 39.6348 31.9028 39.5177 32.1413C39.4007 32.3784 39.2309 32.5598 39.0085 32.6856C38.7876 32.81 38.5191 32.8722 38.203 32.8722H37.0156ZM37.5819 32.3959H38.1284C38.3376 32.3959 38.5161 32.3528 38.6639 32.2664C38.8117 32.1801 38.9236 32.0543 38.9997 31.8889C39.0773 31.7236 39.1161 31.5224 39.1161 31.2853V31.281C39.1161 31.0498 39.0766 30.8522 38.9975 30.6884C38.92 30.523 38.8073 30.3972 38.6595 30.3108C38.5118 30.2245 38.3347 30.1814 38.1284 30.1814H37.5819V32.3959Z" fill="#252525"/>
<path d="M34.4851 32.9512C34.2188 32.9512 33.9884 32.9022 33.7938 32.8042C33.5991 32.7061 33.4484 32.5693 33.3416 32.3937C33.2363 32.2181 33.1836 32.014 33.1836 31.7814V29.7051H33.7477V31.7353C33.7477 31.8801 33.7762 32.0074 33.8333 32.1172C33.8918 32.2255 33.9759 32.3103 34.0857 32.3718C34.1954 32.4318 34.3293 32.4618 34.4873 32.4618C34.6439 32.4618 34.777 32.4318 34.8868 32.3718C34.9965 32.3103 35.0799 32.2255 35.137 32.1172C35.194 32.0074 35.2226 31.8801 35.2226 31.7353V29.7051H35.7866V31.7814C35.7866 32.014 35.734 32.2181 35.6286 32.3937C35.5233 32.5693 35.3733 32.7061 35.1787 32.8042C34.9855 32.9022 34.7543 32.9512 34.4851 32.9512Z" fill="#252525"/>
<path d="M30.5995 32.8722V30.1814H29.625V29.7051H32.1403V30.1814H31.1658V32.8722H30.5995Z" fill="#252525"/>
<path d="M27.4906 32.9511C27.2447 32.9511 27.0311 32.9131 26.8497 32.837C26.6697 32.7609 26.5278 32.6548 26.4239 32.5187C26.32 32.3827 26.2615 32.2239 26.2483 32.0425L26.2461 32.0117H26.7948L26.797 32.0337C26.8058 32.1229 26.8409 32.2005 26.9023 32.2663C26.9653 32.3322 27.0487 32.3841 27.1526 32.4222C27.2564 32.4587 27.375 32.477 27.5081 32.477C27.6354 32.477 27.7481 32.4573 27.8461 32.4178C27.9441 32.3783 28.021 32.3241 28.0766 32.2554C28.1322 32.1851 28.16 32.1047 28.16 32.0139V32.0117C28.16 31.8976 28.1153 31.8047 28.0261 31.733C27.9368 31.6598 27.7898 31.6013 27.5849 31.5574L27.2447 31.4872C26.9199 31.4184 26.6836 31.3087 26.5358 31.158C26.3895 31.0058 26.3163 30.8119 26.3163 30.5763V30.5741C26.3163 30.3854 26.3661 30.22 26.4656 30.0781C26.5665 29.9362 26.7048 29.8257 26.8804 29.7467C27.0574 29.6662 27.2601 29.626 27.4884 29.626C27.7225 29.626 27.9251 29.6655 28.0963 29.7445C28.2675 29.822 28.4021 29.9281 28.5002 30.0627C28.5982 30.1974 28.6531 30.3495 28.6648 30.5193L28.667 30.5478H28.127L28.1227 30.5215C28.1095 30.4381 28.0751 30.3656 28.0195 30.3042C27.9654 30.2413 27.8929 30.1915 27.8022 30.1549C27.7115 30.1183 27.6054 30.1001 27.484 30.1001C27.3684 30.1001 27.2652 30.1183 27.1745 30.1549C27.0838 30.19 27.0121 30.2398 26.9594 30.3042C26.9082 30.3686 26.8826 30.4461 26.8826 30.5368V30.539C26.8826 30.6502 26.9258 30.7424 27.0121 30.8156C27.0999 30.8887 27.2425 30.9458 27.4401 30.9868L27.7803 31.0592C28.0027 31.106 28.1834 31.1682 28.3224 31.2457C28.4614 31.3233 28.5631 31.4199 28.6275 31.5355C28.6933 31.6496 28.7262 31.7871 28.7262 31.9481V31.9503C28.7262 32.1551 28.6758 32.3322 28.5748 32.4814C28.4753 32.6307 28.3326 32.7463 28.1468 32.8282C27.9624 32.9101 27.7437 32.9511 27.4906 32.9511Z" fill="#252525"/>
</g>
<defs>
<clipPath id="clip0_3377_40767">
<rect width="72" height="42" fill="white"/>
</clipPath>
</defs>
</svg>
