<svg width="29" height="18" viewBox="0 0 29 18" fill="none" xmlns="http://www.w3.org/2000/svg">
<path d="M6.2926 14.2979C7.78421 14.1751 9.065 14.9289 9.09338 15.2676C9.11959 15.6068 7.97977 16.559 6.48888 16.6816C4.99796 16.8037 3.71841 16.0495 3.69006 15.7109C3.66428 15.3717 4.80287 14.4211 6.2926 14.2979ZM22.7086 14.2979C24.1985 14.421 25.337 15.3717 25.3112 15.7109C25.2827 16.0496 24.0034 16.8038 22.5123 16.6816C21.0216 16.5589 19.8827 15.6068 19.9088 15.2676C19.9373 14.9288 21.2172 14.1752 22.7086 14.2979ZM23.0602 1.30469C23.0175 2.11248 22.9381 2.90717 22.8278 3.68359H26.8717C26.506 7.60946 23.5323 10.9934 20.1041 11.9004C18.5419 14.5531 16.5365 16.2109 14.5006 16.2109C12.4649 16.2107 10.46 14.5529 8.89806 11.9004C5.46987 10.9935 2.49617 7.60951 2.13049 3.68359H6.17443C6.06411 2.90716 5.9847 2.11249 5.94201 1.30469H23.0602ZM1.0172 10.9092C1.15683 10.5989 2.61194 10.3088 3.97912 10.9141C5.34742 11.5204 6.11047 12.7955 5.97326 13.1064C5.8337 13.4168 4.3779 13.7065 3.01037 13.1006C1.64285 12.4941 0.880144 11.2202 1.0172 10.9092ZM25.0221 10.9141C26.3892 10.3087 27.8442 10.5989 27.984 10.9092C28.1213 11.2199 27.3592 12.4939 25.9918 13.1006C24.6242 13.7065 23.1683 13.4168 23.0289 13.1064C22.8913 12.7958 23.6537 11.5206 25.0221 10.9141ZM4.10217 5.2832C4.76869 7.22693 6.18135 8.83657 7.81994 9.74316C7.24961 8.39488 6.78268 6.89049 6.45275 5.2832H4.10217ZM22.5494 5.2832C22.2194 6.89059 21.7517 8.39481 21.1813 9.74316C22.8201 8.83663 24.2334 7.2272 24.9 5.2832H22.5494ZM0.322869 7.40723C0.459169 7.22427 1.45336 7.24414 2.26135 7.83691C3.06997 8.43093 3.38636 9.375 3.25158 9.55859C3.11567 9.74178 2.12049 9.72245 1.31213 9.12891C0.504283 8.53517 0.188635 7.59144 0.322869 7.40723ZM26.7408 7.83691C27.5455 7.24667 28.5336 7.22475 28.6764 7.40527L28.6744 7.40137C28.676 7.4033 28.6778 7.40526 28.6793 7.40723C28.6808 7.40927 28.6818 7.412 28.6832 7.41406L28.6803 7.41016C28.8107 7.59928 28.4939 8.53737 27.6891 9.12891C26.8805 9.7224 25.885 9.74195 25.7496 9.55859C25.615 9.3748 25.9322 8.43083 26.7408 7.83691ZM0.317986 7.41406C0.31938 7.41205 0.3205 7.40926 0.321892 7.40723C0.323318 7.40532 0.325262 7.40323 0.326775 7.40137L0.317986 7.41406Z" fill="#999999"/>
<path d="M12.0732 11.3633V10.4453L14.5732 8.0332C15.2861 7.32031 15.6572 6.90039 15.6572 6.30469C15.6572 5.65039 15.1396 5.23047 14.4463 5.23047C13.7139 5.23047 13.2451 5.68945 13.2549 6.40234H12.0439C12.0342 5.06445 13.04 4.19531 14.4561 4.19531C15.9014 4.19531 16.8779 5.05469 16.8779 6.24609C16.8779 7.04688 16.4873 7.69141 15.1006 9L13.8408 10.25V10.2988H16.9854V11.3633H12.0732Z" fill="white"/>
</svg>
