<svg width="29" height="18" viewBox="0 0 29 18" fill="none" xmlns="http://www.w3.org/2000/svg">
<path fill-rule="evenodd" clip-rule="evenodd" d="M6.29262 14.2979C7.78423 14.1751 9.06503 14.9289 9.0934 15.2676C9.12006 15.6066 7.98008 16.559 6.48891 16.6816C4.99776 16.8036 3.71797 16.0494 3.69008 15.7109C3.66431 15.3717 4.80296 14.4211 6.29262 14.2979ZM22.7086 14.2979C24.1986 14.421 25.337 15.3717 25.3112 15.7109C25.2832 16.0495 24.0036 16.8038 22.5123 16.6816C21.0214 16.5589 19.8823 15.6067 19.9088 15.2676C19.9374 14.9289 21.2173 14.1753 22.7086 14.2979ZM23.0602 1.30469C23.0175 2.11249 22.9381 2.90716 22.8278 3.68359H26.8717C26.506 7.60951 23.5323 10.9935 20.1041 11.9004C18.5419 14.5531 16.5365 16.2109 14.5006 16.2109C12.4649 16.2106 10.46 14.5528 8.89809 11.9004C5.46997 10.9934 2.49618 7.60945 2.13051 3.68359H6.17446C6.06414 2.90717 5.98472 2.11248 5.94203 1.30469H23.0602ZM1.01723 10.9092C1.15685 10.5989 2.61202 10.3089 3.97914 10.9141C5.34745 11.5204 6.11049 12.7955 5.97328 13.1064C5.83399 13.4168 4.37807 13.7066 3.01039 13.1006C1.64285 12.494 0.879965 11.22 1.01723 10.9092ZM25.0221 10.9141C26.3891 10.3088 27.844 10.599 27.984 10.9092C28.1216 11.2197 27.3594 12.4938 25.9918 13.1006C24.6241 13.7065 23.168 13.4168 23.0289 13.1064C22.8915 12.7957 23.6539 11.5205 25.0221 10.9141ZM4.10219 5.2832C4.76869 7.22689 6.18143 8.83655 7.81996 9.74316C7.24965 8.39489 6.7827 6.89047 6.45278 5.2832H4.10219ZM22.5495 5.2832C22.2195 6.8906 21.7517 8.39481 21.1813 9.74316C22.8202 8.83665 24.2334 7.22722 24.9 5.2832H22.5495ZM0.322894 7.40723C0.459184 7.22428 1.45341 7.24427 2.26137 7.83691C3.07 8.43093 3.38638 9.375 3.25161 9.55859C3.11585 9.74184 2.12059 9.72251 1.31215 9.12891C0.504365 8.5351 0.188572 7.5913 0.322894 7.40723ZM26.7409 7.83691C27.5453 7.24682 28.5332 7.2249 28.6764 7.40527L28.6745 7.40137C28.676 7.40327 28.6779 7.40529 28.6793 7.40723C28.6808 7.40923 28.6819 7.412 28.6832 7.41406L28.6803 7.41016C28.8108 7.59913 28.4941 8.5373 27.6891 9.12891C26.8804 9.72246 25.8848 9.74201 25.7497 9.55859C25.6153 9.37448 25.9324 8.43069 26.7409 7.83691ZM0.318011 7.41406C0.319419 7.41203 0.320503 7.40927 0.321918 7.40723C0.323354 7.4053 0.325279 7.40324 0.3268 7.40137L0.318011 7.41406Z" fill="#FFC70F"/>
<path d="M15.6621 4.29492V11.3652H14.3828V5.53516H14.3438L12.6934 6.58984V5.42773L14.4414 4.29492H15.6621Z" fill="white"/>
</svg>
