<svg width="29" height="18" viewBox="0 0 29 18" fill="none" xmlns="http://www.w3.org/2000/svg">
<path fill-rule="evenodd" clip-rule="evenodd" d="M6.29338 14.2979C7.78466 14.1753 9.06441 14.9288 9.09318 15.2676C9.11907 15.6069 7.98016 16.5589 6.48967 16.6816C4.99949 16.8037 3.71963 16.0508 3.68986 15.7119C3.66325 15.3729 4.80291 14.421 6.29338 14.2979ZM22.7084 14.2979C24.199 14.4209 25.3376 15.3729 25.311 15.7119C25.2809 16.0509 24.0022 16.8038 22.5121 16.6816C21.0217 16.5589 19.8828 15.6069 19.9086 15.2676C19.9374 14.9288 21.2172 14.1753 22.7084 14.2979ZM23.06 1.30469C23.0173 2.11249 22.9379 2.90716 22.8276 3.68359H26.8715C26.5058 7.60951 23.5321 10.9935 20.1039 11.9004C18.5417 14.5531 16.5363 16.2109 14.5004 16.2109C12.4647 16.2106 10.4598 14.5528 8.89787 11.9004C5.46974 10.9934 2.49596 7.60945 2.13029 3.68359H6.17424C6.06391 2.90717 5.9845 2.11248 5.94181 1.30469H23.06ZM1.01701 10.9092C1.15661 10.5989 2.61172 10.3097 3.97892 10.915C5.34723 11.5214 6.11029 12.7955 5.97306 13.1064C5.83318 13.4167 4.37752 13.7074 3.01017 13.1016C1.64281 12.4952 0.880196 11.2204 1.01701 10.9092ZM25.0229 10.915C26.3901 10.3097 27.8453 10.5989 27.9848 10.9092C28.1219 11.2201 27.3592 12.4951 25.9916 13.1016C24.6241 13.7074 23.1682 13.4168 23.0287 13.1064C22.8914 12.7956 23.6547 11.5215 25.0229 10.915ZM4.10197 5.2832C4.76847 7.22689 6.18121 8.83655 7.81974 9.74316C7.24942 8.39489 6.78248 6.89047 6.45256 5.2832H4.10197ZM22.5492 5.2832C22.2192 6.8906 21.7515 8.39481 21.1811 9.74316C22.82 8.83665 24.2332 7.22722 24.8998 5.2832H22.5492ZM0.322673 7.4082C0.457441 7.22467 1.45237 7.24356 2.26115 7.83691C3.06997 8.43093 3.38619 9.37501 3.25138 9.55859C3.11503 9.74162 2.12007 9.7223 1.31193 9.12891C0.504627 8.53545 0.188953 7.59305 0.322673 7.4082ZM26.7406 7.83691C27.5494 7.24356 28.5444 7.22467 28.6791 7.4082C28.8131 7.59274 28.4973 8.5353 27.6899 9.12891C26.8816 9.72225 25.8864 9.74174 25.7504 9.55859C25.6156 9.37502 25.932 8.43093 26.7406 7.83691ZM0.31779 7.41406C0.319184 7.41208 0.320333 7.40926 0.321697 7.40723C0.323126 7.40528 0.325951 7.40324 0.327556 7.40137L0.31779 7.41406ZM28.6801 7.40723C28.6815 7.40928 28.6826 7.41203 28.684 7.41406L28.6742 7.40137C28.6758 7.40332 28.6786 7.40521 28.6801 7.40723Z" fill="#DD9D65"/>
<path d="M14.4951 11.4629C12.9814 11.4629 11.9072 10.6426 11.8779 9.45117H13.1572C13.1963 10.0176 13.7627 10.3887 14.4951 10.3887C15.2764 10.3887 15.833 9.95898 15.833 9.33398C15.833 8.69922 15.2861 8.24023 14.3682 8.24023H13.7334V7.26367H14.3682C15.1201 7.26367 15.6475 6.84375 15.6377 6.22852C15.6475 5.63281 15.1982 5.23242 14.5049 5.23242C13.8408 5.23242 13.2646 5.60352 13.2451 6.19922H12.0244C12.0537 5.00781 13.1279 4.19727 14.5146 4.19727C15.9502 4.19727 16.8779 5.07617 16.8682 6.16016C16.8779 6.95117 16.3506 7.52734 15.5791 7.68359V7.74219C16.5752 7.87891 17.1416 8.51367 17.1318 9.40234C17.1416 10.5938 16.0283 11.4629 14.4951 11.4629Z" fill="white"/>
</svg>
