<svg width="176" height="30" viewBox="0 0 176 30" fill="none" xmlns="http://www.w3.org/2000/svg">
<path d="M66.877 19.1561C66.8157 19.2049 66.7669 19.268 66.7346 19.3399C66.2772 20.0607 65.6039 20.6132 64.814 20.9162C64.4567 21.0544 64.0808 21.137 63.6992 21.1612C63.2783 21.1949 62.8547 21.1656 62.4421 21.0742C61.5832 20.8715 60.9902 20.3514 60.6476 19.5304C60.4748 19.0945 60.3655 18.6353 60.3231 18.1674C60.2912 17.8558 60.2765 17.5427 60.279 17.2294C60.279 15.8817 60.279 14.5339 60.279 13.1862C60.275 13.0298 60.2867 12.8733 60.314 12.7194C60.4049 12.2718 60.6563 11.8744 61.0194 11.6045C61.3825 11.3346 61.8315 11.2113 62.279 11.2586C62.7266 11.306 63.1409 11.5205 63.4415 11.8606C63.742 12.2008 63.9074 12.6422 63.9055 13.0992C63.9092 13.4324 63.9055 13.7663 63.9055 14.0996C63.9055 14.8417 63.9055 15.5835 63.9055 16.3252C63.906 16.6932 63.9611 17.0589 64.069 17.4102C64.1183 17.5728 64.187 17.7288 64.2735 17.8745C64.3453 17.9979 64.4369 18.1082 64.5443 18.2011C64.6973 18.3362 64.8892 18.4175 65.0913 18.433C65.2935 18.4485 65.4952 18.3972 65.6663 18.2868C65.8466 18.1676 66.0008 18.0121 66.1193 17.8298C66.347 17.4834 66.4984 17.0912 66.5633 16.6799C66.5952 16.4774 66.6089 16.2724 66.6043 16.0673C66.6043 15.0736 66.6043 14.08 66.6043 13.0863C66.5994 12.5989 66.7853 12.1294 67.1211 11.7812C67.457 11.433 67.9153 11.2345 68.3953 11.2295C68.8752 11.2244 69.3375 11.4132 69.6803 11.7543C70.0232 12.0954 70.2186 12.5609 70.2236 13.0483C70.2236 13.0894 70.2236 13.1304 70.2236 13.1709C70.2236 15.6622 70.2236 18.1535 70.2236 20.6448C70.2236 20.937 70.258 20.896 69.9823 20.8966C69.0244 20.8966 68.0665 20.8966 67.1086 20.8966H67.0085C66.8764 20.8966 66.8746 20.8966 66.874 20.7587C66.874 20.3021 66.874 19.8461 66.874 19.3908L66.877 19.1561Z" fill="#4C4C4C"/>
<path d="M36.2331 16.9731C35.5231 16.9731 34.8132 16.9731 34.1032 16.9731C33.9029 16.9731 33.9222 16.9847 33.9343 17.1495C33.9444 17.4561 34.0056 17.7587 34.1152 18.0445C34.1624 18.1644 34.2231 18.2783 34.2962 18.3839C34.3929 18.5275 34.5179 18.6492 34.6633 18.7412C34.8086 18.8333 34.9712 18.8937 35.1407 18.9187C35.6541 19.0064 36.1816 18.913 36.6355 18.6541C36.7748 18.5726 36.909 18.4824 37.0372 18.3839C37.1343 18.3116 37.2333 18.2418 37.3334 18.1732C37.9366 17.7603 38.7847 18.0451 39.061 18.7619C39.1668 19.0225 39.1819 19.3119 39.1038 19.5823C39.0257 19.8528 38.8591 20.0881 38.6315 20.2493C38.16 20.5877 37.6321 20.8367 37.0734 20.9845C36.6061 21.1062 36.1262 21.171 35.6438 21.1775C35.0276 21.1976 34.4115 21.1329 33.8124 20.9851C33.0192 20.7817 32.308 20.4197 31.7096 19.845C31.2378 19.3967 30.8744 18.8436 30.648 18.2289C30.1383 16.8475 30.1232 15.4605 30.6703 14.087C30.983 13.2815 31.5083 12.5791 32.1883 12.0568C32.8684 11.5346 33.6771 11.2129 34.5254 11.1269C35.374 11.0316 36.2329 11.1332 37.0372 11.424C38.0464 11.7915 38.7932 12.4728 39.2866 13.4395C39.5942 14.0385 39.7867 14.6915 39.8536 15.3637C39.9097 15.9316 39.6727 16.3825 39.2136 16.7115C38.9403 16.9063 38.6285 16.9731 38.3003 16.9743C37.8449 16.9743 37.3895 16.9743 36.9341 16.9743L36.2331 16.9731ZM34.0489 14.756C34.0974 14.7798 34.1522 14.7871 34.2051 14.7768H36.1529C36.3695 14.7768 36.3339 14.7732 36.3007 14.5869C36.2537 14.2904 36.1474 14.0068 35.9882 13.7538C35.8018 13.472 35.5491 13.3041 35.2089 13.282C34.8849 13.2618 34.6171 13.3666 34.4169 13.6312C34.3482 13.7237 34.2909 13.8243 34.2461 13.9308C34.169 14.1119 34.1127 14.3014 34.0785 14.4956C34.0616 14.5814 34.026 14.6653 34.0489 14.756Z" fill="#4C4C4C"/>
<path d="M25.969 16.9733H23.8994C23.8457 16.9733 23.792 16.9733 23.7384 16.9733C23.6847 16.9733 23.6696 16.9947 23.6708 17.0511C23.6774 17.4358 23.7353 17.8101 23.9054 18.1587C24.128 18.6145 24.4839 18.8792 24.9864 18.9312C25.1929 18.9547 25.4015 18.9512 25.6071 18.9208C25.9789 18.8604 26.3314 18.7113 26.6356 18.4859C26.7725 18.3878 26.9058 18.2849 27.0452 18.1906C27.1822 18.092 27.3389 18.0252 27.5042 17.9952C27.7779 17.959 28.0556 18.0176 28.2925 18.1614C28.5294 18.3053 28.7117 18.526 28.8099 18.788C28.908 19.05 28.9164 19.338 28.8336 19.6054C28.7508 19.8728 28.5817 20.1041 28.3535 20.2618C27.846 20.6195 27.2764 20.8764 26.6748 21.019C26.2502 21.1168 25.8168 21.1694 25.3815 21.1759C24.8258 21.194 24.2699 21.1449 23.7257 21.0294C23.0942 20.8969 22.4947 20.6387 21.9619 20.2698C21.194 19.7295 20.6644 19.0023 20.3435 18.1152C20.1871 17.6732 20.0857 17.213 20.0419 16.7454C19.9605 15.999 20.033 15.2435 20.2548 14.5271C20.6541 13.251 21.4142 12.2702 22.5868 11.6386C23.1281 11.3501 23.7209 11.1747 24.3301 11.1228C25.072 11.0508 25.8206 11.1262 26.5342 11.3446C27.7467 11.717 28.6081 12.5 29.1347 13.6664C29.3702 14.1938 29.5246 14.7547 29.5925 15.3297C29.6854 16.077 29.1703 16.7999 28.3982 16.9433C28.2662 16.967 28.1323 16.9785 27.9982 16.9776C27.3214 16.9739 26.645 16.9725 25.969 16.9733ZM24.9086 14.7807H25.8737C25.9208 14.7807 25.9678 14.7807 26.0143 14.7807C26.0607 14.7807 26.0692 14.7507 26.0625 14.7109C26.0241 14.4341 25.9427 14.1653 25.8212 13.9145C25.7256 13.7105 25.5745 13.5385 25.3857 13.4189C25.1751 13.2867 24.9214 13.2448 24.6804 13.3022C24.4393 13.3596 24.2305 13.5117 24.0997 13.7252C23.9097 14.0315 23.8349 14.3764 23.7806 14.7268C23.7794 14.7336 23.7797 14.7405 23.7815 14.7471C23.7833 14.7537 23.7866 14.7598 23.7911 14.7649C23.7955 14.77 23.8011 14.7741 23.8073 14.7767C23.8136 14.7794 23.8203 14.7805 23.827 14.7801C23.8735 14.7832 23.9205 14.7832 23.9676 14.7832L24.9086 14.7807Z" fill="#4C4C4C"/>
<path d="M57.4264 17.1754V20.6459C57.4264 20.7071 57.4264 20.7684 57.4264 20.8297C57.4269 20.838 57.4257 20.8464 57.4229 20.8542C57.4201 20.8621 57.4157 20.8693 57.4101 20.8754C57.4044 20.8815 57.3976 20.8863 57.39 20.8896C57.3825 20.8929 57.3743 20.8946 57.3661 20.8946C57.3263 20.8946 57.2858 20.8946 57.2454 20.8946H53.9881C53.7987 20.8946 53.8071 20.9105 53.8071 20.7047C53.8071 18.3637 53.8071 16.0229 53.8071 13.6822C53.8071 13.621 53.8071 13.5597 53.8071 13.4985C53.8075 13.4882 53.8056 13.4781 53.8017 13.4687C53.7978 13.4593 53.7919 13.4508 53.7844 13.444C53.7769 13.4372 53.768 13.4321 53.7584 13.4291C53.7488 13.4261 53.7386 13.4253 53.7287 13.4268C53.6485 13.4268 53.5682 13.4268 53.4874 13.4225C53.2528 13.4157 53.0268 13.331 52.844 13.1814C52.6612 13.0318 52.5317 12.8256 52.4753 12.5942C52.4189 12.3628 52.4386 12.119 52.5315 11.9C52.6244 11.6811 52.7854 11.4991 52.9898 11.3819C53.1415 11.2933 53.313 11.2455 53.488 11.2428C53.5682 11.2428 53.6485 11.2428 53.7293 11.2428C53.7393 11.2443 53.7495 11.2434 53.7592 11.2404C53.7689 11.2374 53.7777 11.2323 53.7852 11.2254C53.7927 11.2185 53.7986 11.21 53.8025 11.2005C53.8064 11.191 53.8082 11.1808 53.8077 11.1705C53.8077 11.116 53.8077 11.0615 53.8077 11.0069C53.8077 10.6535 53.8077 10.2994 53.8077 9.94528C53.8061 9.55041 53.8651 9.1577 53.9826 8.7813C54.233 7.9996 54.7391 7.46479 55.4949 7.17502C55.9296 7.01223 56.3894 6.92925 56.8527 6.92997C57.4149 6.92446 57.9777 6.93365 58.5417 6.92691C58.826 6.92325 59.1001 7.03444 59.3037 7.23601C59.5072 7.43758 59.6236 7.71302 59.6272 8.00175C59.6308 8.29047 59.5213 8.56881 59.3229 8.77555C59.1244 8.9823 58.8532 9.10049 58.5689 9.10415C58.4417 9.10488 58.3151 9.12154 58.1919 9.15377C57.737 9.28487 57.4946 9.65612 57.4409 10.0678C57.4333 10.1423 57.4303 10.2172 57.4318 10.292C57.4318 10.5303 57.4318 10.7686 57.4318 11.0069C57.4318 11.2667 57.4047 11.241 57.6731 11.2416C57.9608 11.2416 58.2492 11.2416 58.5369 11.2416C58.7054 11.238 58.8721 11.2767 59.0223 11.3542C59.1726 11.4316 59.3017 11.5455 59.3983 11.6857C59.6462 12.0349 59.6836 12.4172 59.4996 12.805C59.4222 12.9842 59.2958 13.1372 59.1355 13.2457C58.9751 13.3543 58.7875 13.4139 58.5948 13.4176C58.2811 13.4341 57.9657 13.4231 57.6508 13.4249C57.4161 13.4249 57.4318 13.3974 57.4318 13.6406L57.4264 17.1754Z" fill="#4C4C4C"/>
<path d="M41.3213 15.7872V13.6847C41.3213 13.6302 41.3213 13.5757 41.3213 13.5211C41.3213 13.4446 41.3045 13.4317 41.2224 13.4293C41.1404 13.4268 41.0752 13.4293 41.0016 13.4256C40.7567 13.4174 40.5219 13.3245 40.336 13.1622C40.1502 12.9999 40.0246 12.778 39.98 12.5333C39.9353 12.2886 39.9744 12.0357 40.0906 11.8166C40.2069 11.5975 40.3934 11.4253 40.6192 11.3286C40.7364 11.2775 40.8621 11.2499 40.9896 11.2471C41.0698 11.2471 41.1506 11.2471 41.2309 11.2434C41.3111 11.2398 41.3213 11.2251 41.3213 11.1424C41.3213 10.7748 41.3213 10.4072 41.3213 10.0396C41.3187 9.73924 41.3866 9.44252 41.5192 9.17401C41.6916 8.83101 41.9655 8.5515 42.3024 8.37478C42.6393 8.19806 43.0223 8.13302 43.3975 8.1888C43.7727 8.24458 44.1212 8.41837 44.3941 8.68574C44.667 8.95312 44.8506 9.30063 44.9189 9.67942C44.9404 9.81368 44.95 9.9496 44.9479 10.0856C44.9515 10.4054 44.9479 10.7252 44.9479 11.0449C44.9479 11.0927 44.9479 11.1405 44.9533 11.1877C44.9538 11.2015 44.9594 11.2145 44.969 11.2242C44.9787 11.2339 44.9916 11.2395 45.0052 11.2398C45.0516 11.2434 45.0987 11.244 45.1457 11.244H46.0505C46.1983 11.2407 46.3451 11.2702 46.4805 11.3304C46.616 11.3906 46.7368 11.4801 46.8347 11.5926C47.1363 11.9332 47.2099 12.3278 47.0398 12.7493C46.9702 12.9433 46.8445 13.1115 46.6792 13.2317C46.5138 13.352 46.3166 13.4187 46.1133 13.4231C45.8062 13.4415 45.4974 13.4286 45.1891 13.4311C44.9316 13.4311 44.9479 13.3956 44.9479 13.6657C44.9479 14.9247 44.9575 16.1836 44.9436 17.4419C44.937 18.0423 45.3001 18.4883 45.8605 18.6494C46.0283 18.6973 46.202 18.7204 46.3763 18.718C46.4764 18.718 46.5771 18.718 46.6779 18.718C46.6879 18.7169 46.6981 18.7181 46.7076 18.7216C46.7171 18.725 46.7257 18.7306 46.7328 18.7379C46.7398 18.7452 46.7452 18.7541 46.7484 18.7638C46.7517 18.7735 46.7527 18.7838 46.7515 18.794C46.7515 18.8209 46.7515 18.8485 46.7515 18.8754V20.7329C46.7515 20.7672 46.7515 20.8009 46.7515 20.8346C46.7515 20.8432 46.7498 20.8517 46.7464 20.8595C46.743 20.8674 46.738 20.8744 46.7317 20.8802C46.7255 20.886 46.7181 20.8904 46.7101 20.8931C46.702 20.8958 46.6935 20.8967 46.6851 20.8958H46.6049C45.9015 20.8958 45.1982 20.9044 44.4936 20.8928C44.0181 20.8914 43.5457 20.8134 43.0942 20.6618C42.736 20.5443 42.4077 20.3481 42.1327 20.0872C41.7611 19.727 41.5488 19.2804 41.4347 18.7799C41.3558 18.421 41.3176 18.0541 41.3207 17.6863C41.3219 17.0533 41.3221 16.4203 41.3213 15.7872Z" fill="#4C4C4C"/>
<path d="M74.9972 14.6917C74.9972 16.6791 74.9972 18.6662 74.9972 20.6531C74.9972 20.927 75.0268 20.8982 74.7662 20.8982H71.612C71.5649 20.8982 71.5185 20.8982 71.4714 20.8982C71.393 20.8951 71.3821 20.8835 71.3791 20.8002C71.3791 20.7524 71.3791 20.7046 71.3791 20.6568C71.3791 16.7173 71.3791 12.7773 71.3791 8.83695C71.37 8.48146 71.459 8.13046 71.6361 7.82368C71.8234 7.50657 72.1005 7.25409 72.4311 7.09912C72.7617 6.94415 73.1306 6.89386 73.4898 6.95481C73.8489 7.01576 74.1817 7.18511 74.4447 7.44083C74.7078 7.69655 74.889 8.02677 74.9646 8.38852C74.9907 8.52202 75.0024 8.658 74.9996 8.79407C74.9976 10.7593 74.9968 12.7252 74.9972 14.6917Z" fill="#4C4C4C"/>
<path d="M15.0804 13.0041C15.1416 12.9699 15.1921 12.919 15.2263 12.8571C15.5718 12.3953 15.9956 11.9999 16.478 11.6895C17.1114 11.2846 17.8482 11.0781 18.5965 11.0958C19.1394 11.1063 19.5689 11.3348 19.8463 11.8151C20.0127 12.0906 20.0807 12.4159 20.039 12.7364C19.9973 13.0568 19.8483 13.3529 19.6171 13.5751C19.5026 13.6896 19.3804 13.7961 19.2516 13.8937C18.7455 14.2545 18.2183 14.2612 17.6802 13.969C17.564 13.9007 17.4562 13.8184 17.3593 13.724C17.2204 13.5945 17.0505 13.5043 16.8665 13.4624C16.5462 13.3925 16.2705 13.4863 16.0304 13.7007C15.8855 13.8335 15.7679 13.994 15.6842 14.173C15.5202 14.5242 15.4197 14.9025 15.3874 15.2898C15.3628 15.5341 15.3515 15.7795 15.3536 16.025C15.3536 17.5769 15.3536 19.1289 15.3536 20.6809C15.3536 20.9259 15.3741 20.9008 15.1395 20.9008H11.9243C11.7186 20.9008 11.7265 20.9179 11.7265 20.7035C11.7265 18.7023 11.7265 16.7011 11.7265 14.6999C11.7265 14.0873 11.7265 13.4746 11.7265 12.862C11.7211 12.5613 11.7902 12.2641 11.9274 11.9976C12.102 11.6665 12.3796 11.4033 12.7169 11.2492C13.0541 11.095 13.4322 11.0585 13.792 11.1454C14.1518 11.2322 14.4733 11.4376 14.7062 11.7293C14.9391 12.0211 15.0705 12.383 15.0797 12.7585C15.0816 12.8289 15.0804 12.9031 15.0804 13.0041Z" fill="#4C4C4C"/>
<path d="M51.5959 16.8975C51.5959 18.1493 51.5959 19.4008 51.5959 20.6522C51.5959 20.9285 51.6225 20.8973 51.3655 20.8973C50.3078 20.8973 49.2502 20.8973 48.1926 20.8973C47.9513 20.8973 47.9718 20.934 47.9718 20.6645V17.2338C47.9718 15.8664 47.9718 14.4993 47.9718 13.1323C47.9718 12.7035 48.0792 12.3084 48.3422 11.9714C48.8211 11.3588 49.4515 11.1217 50.1971 11.2975C50.9426 11.4734 51.386 11.9714 51.5615 12.7176C51.5895 12.8506 51.602 12.9865 51.5989 13.1225C51.5953 14.3804 51.5943 15.6388 51.5959 16.8975Z" fill="#4C4C4C"/>
<path d="M49.7791 6.93129C49.8798 6.93129 49.98 6.93129 50.0807 6.93129C50.7249 6.9172 51.4307 7.41403 51.5718 8.21779C51.639 8.60667 51.5592 9.00697 51.3484 9.33871C51.1377 9.67045 50.8114 9.90919 50.4348 10.0072C50.3963 10.0182 50.3572 10.0268 50.3178 10.033C49.9787 10.0745 49.636 10.076 49.2965 10.0373C48.9407 9.98635 48.6136 9.81067 48.3719 9.54064C48.1302 9.27061 47.989 8.92323 47.9729 8.55866C47.9568 8.19409 48.0667 7.83527 48.2837 7.54434C48.5006 7.2534 48.8109 7.04867 49.1608 6.9656C49.2648 6.94085 49.3713 6.92851 49.4781 6.92884L49.7791 6.93129Z" fill="#4C4C4C"/>
<path d="M4.70915 15.9449C4.67598 16.0147 4.69287 16.0901 4.69287 16.1623C4.69287 17.4693 4.69287 18.7762 4.69287 20.0831C4.6944 20.4113 4.61409 20.7346 4.45942 21.0229C4.27109 21.3714 3.97898 21.6504 3.62493 21.82C3.27088 21.9896 2.87307 22.0411 2.48847 21.967C2.10386 21.893 1.7522 21.6972 1.48385 21.4078C1.2155 21.1183 1.04423 20.7501 0.994567 20.3557C0.983314 20.2614 0.977473 20.1665 0.977073 20.0715C0.977073 17.0016 0.968025 13.9318 0.980089 10.862C0.984915 9.48113 1.49584 8.30429 2.47907 7.34739C3.03765 6.80399 3.69214 6.41131 4.40453 6.11235C5.11923 5.81952 5.86622 5.61567 6.62918 5.50524C7.35836 5.39848 8.09419 5.34545 8.83091 5.34658C9.3111 5.35053 9.77109 5.54333 10.1142 5.88448C10.4574 6.22563 10.657 6.68858 10.6712 7.17606C10.6853 7.66354 10.5128 8.13761 10.19 8.49867C9.86725 8.85974 9.41922 9.0797 8.94009 9.11234C8.73983 9.12336 8.53896 9.12336 8.33688 9.13072C7.65359 9.14648 6.97468 9.24604 6.31491 9.42722C6.03693 9.5045 5.7678 9.61149 5.51203 9.7464C5.37563 9.81926 5.24654 9.90543 5.12658 10.0037C4.84488 10.2347 4.68382 10.5281 4.68623 10.9024C4.68465 11.0047 4.68949 11.107 4.70071 11.2087C4.73759 11.4813 4.87571 11.7291 5.08677 11.9016C5.33661 12.1084 5.62333 12.2644 5.93126 12.3611C6.39567 12.5182 6.88224 12.5972 7.37174 12.5951C7.46524 12.5951 7.55873 12.581 7.65223 12.5749C8.45632 12.5185 9.08788 12.826 9.48359 13.5422C9.62338 13.7956 9.70337 14.0786 9.71728 14.3687C9.7312 14.6589 9.67865 14.9484 9.56378 15.2144C9.4489 15.4805 9.27483 15.7158 9.05524 15.902C8.83566 16.0881 8.57654 16.2201 8.29827 16.2873C8.12203 16.3283 7.94216 16.351 7.76141 16.3553C7.31879 16.3778 6.87511 16.3655 6.43434 16.3186C5.90227 16.2574 5.37712 16.145 4.86599 15.9828C4.81672 15.9597 4.7634 15.9468 4.70915 15.9449Z" fill="#4C4C4C"/>
<path d="M2.50388 5.16242C1.19491 5.18631 -0.000659318 4.08054 0.00115032 2.62067C-0.00901485 2.28016 0.0482763 1.94103 0.169624 1.62344C0.290971 1.30584 0.473902 1.01623 0.707561 0.771802C0.941219 0.527374 1.22084 0.333105 1.52984 0.200525C1.83884 0.0679448 2.17091 -0.000245604 2.50635 6.64669e-07C2.84179 0.000246933 3.17377 0.0689243 3.48258 0.201958C3.79139 0.334992 4.07073 0.529671 4.30404 0.774442C4.53736 1.01921 4.71987 1.30909 4.84077 1.62687C4.96166 1.94464 5.01847 2.28385 5.00782 2.62435C5.00722 4.08238 3.8219 5.18754 2.50388 5.16242Z" fill="#4C4C4C"/>
<path d="M118.146 29.4509H117.799V27.6765H116.787C116.622 28.1392 116.316 28.4094 115.934 28.4069C115.35 28.4095 114.941 27.7925 114.943 26.8181C114.941 25.8463 115.35 25.2269 115.934 25.2243C116.296 25.2269 116.591 25.4709 116.762 25.8923H117.799V24.8688H118.146V29.4509ZM114.081 25.4245C114.081 25.7638 114.081 26.1752 113.984 26.7253H114.557V27.0544H112.914V27.8981H114.108V29.4411H113.757V28.2321H111.314V27.8981H112.567V27.0544H110.941V26.7253H113.633C113.738 26.1676 113.737 25.7638 113.735 25.4245H111.399V25.0954H114.081V25.4245ZM125.791 26.7253H126.453V27.0749H125.791V29.4411H125.445V24.8688H125.791V26.7253ZM129.905 29.4411H129.558V24.8688H129.905V29.4411ZM133.654 26.7204H134.316V27.0651H133.654V29.4411H133.307V24.8688H133.654V26.7204ZM141.699 29.4411H141.352V24.8688H141.699V29.4411ZM120.767 27.7126C121.587 27.71 122.091 28.0266 122.091 28.5768C122.091 29.1219 121.587 29.4304 120.767 29.4304C119.945 29.4304 119.441 29.1219 119.443 28.5768C119.441 28.0266 119.945 27.71 120.767 27.7126ZM135.578 28.2477H137.456V27.7643H137.803V29.3786H135.231V27.7643H135.578V28.2477ZM107.969 29.0036H110.279V29.3425H107.627V28.0261H107.969V29.0036ZM120.767 28.0319C120.161 28.0319 119.787 28.2349 119.789 28.5768C119.787 28.9085 120.161 29.1087 120.767 29.1061C121.371 29.1087 121.745 28.9085 121.745 28.5768C121.745 28.2349 121.371 28.0319 120.767 28.0319ZM135.578 29.0554H137.456V28.5612H135.578V29.0554ZM127.981 26.0261C128.552 26.0235 128.938 26.3579 128.936 26.8747C128.938 27.3271 128.632 27.641 128.164 27.7028V28.1862C128.545 28.1656 128.932 28.1344 129.296 28.0778L129.323 28.3864C128.441 28.551 127.475 28.5661 126.742 28.5661L126.688 28.2224C127.025 28.2198 127.412 28.2173 127.812 28.2018V27.7028C127.337 27.6462 127.03 27.3323 127.035 26.8747C127.03 26.358 127.41 26.0235 127.981 26.0261ZM139.775 26.0261C140.346 26.0235 140.732 26.3579 140.73 26.8747C140.732 27.3271 140.426 27.641 139.957 27.7028V28.1862C140.339 28.1656 140.726 28.1344 141.09 28.0778L141.117 28.3864C140.235 28.551 139.269 28.5661 138.536 28.5661L138.483 28.2224C138.82 28.2198 139.206 28.2172 139.606 28.2018V27.7028C139.131 27.6461 138.824 27.3322 138.829 26.8747C138.824 26.358 139.204 26.0236 139.775 26.0261ZM132.823 25.6765H131.935V26.2731C131.931 27.0058 132.387 27.8133 132.96 28.1296L132.761 28.4479C132.317 28.196 131.941 27.6564 131.763 27.0368C131.581 27.7078 131.186 28.299 130.744 28.5612L130.531 28.2429C131.099 27.9215 131.588 27.0522 131.592 26.2731V25.6765H130.673V25.3425H132.823V25.6765ZM124.059 26.0983C124.059 26.9031 124.519 27.7336 125.081 28.0524L124.867 28.3766C124.431 28.1144 124.067 27.5712 123.892 26.9362C123.717 27.6098 123.343 28.1885 122.899 28.4636L122.677 28.1393C123.255 27.8102 123.712 26.9338 123.716 26.0983V25.2653H124.059V26.0983ZM110.097 26.3806H110.692V26.7204H110.097V28.2985H109.75V24.8747H110.097V26.3806ZM115.934 25.5837C115.545 25.5863 115.279 26.0751 115.277 26.8181C115.279 27.5611 115.545 28.0501 115.934 28.0475C116.32 28.05 116.591 27.561 116.591 26.8181C116.591 26.0752 116.32 25.5864 115.934 25.5837ZM108.196 26.0163C108.76 26.0164 109.141 26.3505 109.146 26.8698C109.141 27.3838 108.76 27.7151 108.196 27.7126C107.625 27.7152 107.243 27.3838 107.245 26.8698C107.242 26.3505 107.625 26.0163 108.196 26.0163ZM122.078 27.5788H121.727V26.1852H120.847V25.8513H121.727V24.8688H122.078V27.5788ZM137.803 27.5739H137.452V27.1677H136.763V26.8337H137.452V26.2731H136.768V25.9391H137.452V24.8698H137.803V27.5739ZM135.662 25.8874C136.19 25.89 136.562 26.2167 136.564 26.7155C136.562 27.2091 136.19 27.5329 135.662 27.5329C135.129 27.5328 134.765 27.209 134.769 26.7155C134.765 26.2168 135.129 25.89 135.662 25.8874ZM120.163 25.5895C120.158 26.2425 120.56 26.8158 121.14 27.0446L120.945 27.3581C120.51 27.1704 120.168 26.7977 119.997 26.3171C119.828 26.8646 119.467 27.2885 118.99 27.4968L118.799 27.1677C119.408 26.9208 119.812 26.3137 119.817 25.6042V25.1315H120.163V25.5895ZM108.196 26.3347C107.823 26.3321 107.576 26.5433 107.579 26.8698C107.577 27.191 107.823 27.3994 108.196 27.3942C108.564 27.3993 108.813 27.1909 108.818 26.8698C108.813 26.5433 108.564 26.3321 108.196 26.3347ZM127.981 26.3395C127.614 26.3396 127.357 26.5559 127.359 26.8747C127.357 27.1909 127.614 27.3993 127.981 27.3942C128.35 27.3994 128.605 27.1909 128.603 26.8747C128.605 26.5559 128.35 26.3395 127.981 26.3395ZM139.775 26.3395C139.408 26.3396 139.151 26.556 139.153 26.8747C139.151 27.1909 139.408 27.3993 139.775 27.3942C140.144 27.3994 140.399 27.1909 140.397 26.8747C140.399 26.5559 140.144 26.3395 139.775 26.3395ZM116.863 26.2321C116.9 26.4094 116.92 26.6048 116.92 26.8181C116.92 27.0057 116.904 27.1831 116.875 27.3425H117.799V26.2321H116.863ZM135.662 26.2009C135.317 26.2009 135.091 26.407 135.093 26.7155C135.091 27.0213 135.317 27.2266 135.662 27.2292C136.001 27.2266 136.234 27.0214 136.239 26.7155C136.234 26.407 136.001 26.2009 135.662 26.2009ZM108.369 25.4352H109.372V25.7643H107.018V25.4352H108.022V24.8747H108.369V25.4352ZM128.164 25.4352H129.194V25.7643H126.773V25.4352H127.812V24.8747H128.164V25.4352ZM139.957 25.4352H140.988V25.7643H138.567V25.4352H139.606V24.8747H139.957V25.4352ZM135.839 25.3317H136.768V25.6667H134.534V25.3317H135.493V24.8278H135.839V25.3317ZM94.5161 2.54559C99.8859 2.54571 104.267 6.77147 104.52 12.0788C104.268 7.13201 100.178 3.19892 95.1684 3.19891C89.9967 3.19919 85.8041 7.39142 85.8041 12.5632C85.8043 17.5002 89.6253 21.5411 94.4711 21.8981V12.9069L92.9614 12.2643L90.9223 12.1599L90.8061 12.154L88.7407 9.55536L90.0453 7.18817L90.2123 7.20282L93.3491 7.47137L93.4174 7.57587L94.5912 9.34442L100.487 13.4099L99.5981 14.8513L99.4809 15.0407L94.9877 13.1266V21.9225C95.0477 21.9237 95.1081 21.9274 95.1684 21.9274C100.26 21.9274 104.402 17.8646 104.53 12.8044V12.822C104.392 18.2345 99.9617 22.5797 94.5161 22.5798C88.9839 22.5796 84.4986 18.0953 84.4985 12.5632C84.4985 7.03093 88.9839 2.54579 94.5161 2.54559ZM116.422 17.8972H116.255C116.24 17.4942 116.155 17.2007 115.998 17.0173C115.842 16.8339 115.648 16.7419 115.416 16.7419C115.23 16.7419 115.081 16.7932 114.97 16.8952C114.862 16.9974 114.808 17.1211 114.808 17.2653C114.808 17.3645 114.829 17.4594 114.871 17.5495C114.916 17.6397 115.012 17.766 115.16 17.9284C115.551 18.3554 115.803 18.6777 115.917 18.8942C116.032 19.1107 116.088 19.3151 116.088 19.5075C116.088 19.82 115.958 20.098 115.697 20.3415C115.438 20.582 115.11 20.7027 114.713 20.7028C114.497 20.7028 114.247 20.6517 113.964 20.5495C113.865 20.5134 113.788 20.4958 113.734 20.4958C113.599 20.4959 113.496 20.5646 113.427 20.7028H113.26L113.536 19.2409H113.703C113.721 19.698 113.815 20.0222 113.987 20.2116C114.158 20.4008 114.393 20.4957 114.69 20.4958C114.918 20.4958 115.1 20.4326 115.232 20.3063C115.367 20.1771 115.435 20.0189 115.435 19.8327C115.435 19.7125 115.411 19.6009 115.363 19.4987C115.279 19.3183 115.101 19.0684 114.831 18.7497C114.563 18.4309 114.389 18.1913 114.311 18.0319C114.236 17.8728 114.199 17.7135 114.199 17.5544C114.199 17.2627 114.304 17.0156 114.514 16.8141C114.728 16.6127 115.002 16.5124 115.335 16.5124C115.432 16.5124 115.519 16.5198 115.597 16.5349C115.639 16.5439 115.737 16.5783 115.89 16.6384C116.046 16.6955 116.15 16.7243 116.202 16.7243C116.331 16.7243 116.439 16.6535 116.526 16.5124H116.698L116.422 17.8972ZM120.022 17.8972H119.855C119.84 17.4942 119.754 17.2007 119.598 17.0173C119.442 16.8339 119.248 16.7419 119.016 16.7419C118.83 16.7419 118.681 16.7932 118.57 16.8952C118.462 16.9974 118.408 17.1211 118.408 17.2653C118.408 17.3644 118.428 17.4594 118.47 17.5495C118.515 17.6397 118.612 17.7661 118.759 17.9284C119.15 18.3554 119.403 18.6777 119.517 18.8942C119.631 19.1107 119.689 19.3151 119.689 19.5075C119.689 19.8201 119.558 20.098 119.296 20.3415C119.038 20.582 118.71 20.7028 118.313 20.7028C118.096 20.7028 117.847 20.6517 117.564 20.5495C117.465 20.5134 117.388 20.4958 117.333 20.4958C117.198 20.4959 117.096 20.5646 117.027 20.7028H116.86L117.135 19.2409H117.302C117.32 19.698 117.415 20.0222 117.586 20.2116C117.758 20.4009 117.993 20.4958 118.29 20.4958C118.519 20.4957 118.699 20.4325 118.831 20.3063C118.967 20.1771 119.034 20.0189 119.035 19.8327C119.035 19.7125 119.01 19.6009 118.962 19.4987C118.878 19.3183 118.701 19.0684 118.43 18.7497C118.162 18.4309 117.99 18.1913 117.912 18.0319C117.836 17.8727 117.798 17.7136 117.798 17.5544C117.798 17.2627 117.903 17.0156 118.114 16.8141C118.327 16.6127 118.601 16.5124 118.935 16.5124C119.031 16.5124 119.119 16.5198 119.197 16.5349C119.239 16.5439 119.336 16.5783 119.49 16.6384C119.646 16.6955 119.75 16.7243 119.801 16.7243C119.931 16.7243 120.039 16.6537 120.126 16.5124H120.297L120.022 17.8972ZM123.451 16.5124C123.848 16.5124 124.174 16.6434 124.429 16.905C124.688 17.1666 124.817 17.5065 124.817 17.9245C124.817 18.3755 124.697 18.8224 124.456 19.2643C124.219 19.7062 123.886 20.0566 123.459 20.3151C123.032 20.5737 122.617 20.7028 122.214 20.7028C121.802 20.7028 121.466 20.5717 121.205 20.3102C120.946 20.0457 120.816 19.7046 120.816 19.2868C120.816 18.8448 120.942 18.4008 121.195 17.9557C121.45 17.5107 121.79 17.1587 122.214 16.9001C122.641 16.6415 123.054 16.5124 123.451 16.5124ZM128.12 16.5124C128.447 16.5125 128.692 16.5814 128.854 16.7194C129.016 16.8547 129.098 17.0219 129.098 17.2204C129.098 17.4068 129.04 17.5666 128.926 17.6989C128.842 17.8008 128.739 17.8521 128.616 17.8522C128.522 17.8522 128.443 17.8216 128.38 17.7614C128.32 17.7013 128.29 17.6259 128.29 17.5358C128.291 17.479 128.301 17.4265 128.322 17.3786C128.346 17.3305 128.393 17.2729 128.462 17.2067C128.534 17.1377 128.578 17.0883 128.593 17.0583C128.608 17.0283 128.616 16.9966 128.616 16.9636C128.616 16.9004 128.587 16.8475 128.53 16.8054C128.443 16.7452 128.319 16.7155 128.16 16.7155C127.865 16.7155 127.573 16.8187 127.285 17.0261C126.996 17.2336 126.749 17.5289 126.544 17.9108C126.298 18.3737 126.175 18.8367 126.175 19.2995C126.175 19.6062 126.263 19.8505 126.437 20.0309C126.611 20.2081 126.849 20.2965 127.149 20.2966C127.38 20.2966 127.61 20.2399 127.835 20.1257C128.064 20.0084 128.319 19.7974 128.602 19.4938L128.733 19.611C128.42 19.9868 128.104 20.2637 127.786 20.4411C127.467 20.6155 127.13 20.7028 126.775 20.7028C126.348 20.7028 126.014 20.5821 125.774 20.3415C125.536 20.1009 125.417 19.7777 125.417 19.3718C125.417 18.9118 125.545 18.4593 125.8 18.0143C126.059 17.5693 126.405 17.208 126.838 16.9313C127.274 16.6518 127.702 16.5124 128.12 16.5124ZM130.5 19.6745C130.441 19.8871 130.411 20.0148 130.411 20.0573C130.411 20.1054 130.425 20.1454 130.452 20.1755C130.482 20.2053 130.516 20.2204 130.555 20.2204C130.6 20.2204 130.654 20.1961 130.717 20.1481C130.889 20.0129 131.061 19.8204 131.236 19.571L131.394 19.6745C131.19 19.9872 130.949 20.2501 130.672 20.4636C130.468 20.6228 130.273 20.7027 130.086 20.7028C129.963 20.7028 129.862 20.6666 129.784 20.5944C129.706 20.5193 129.666 20.4262 129.666 20.3151C129.666 20.2039 129.704 20.0188 129.779 19.7604L130.366 17.739C130.462 17.4085 130.51 17.2012 130.51 17.1169C130.51 17.0509 130.486 16.9968 130.438 16.9548C130.393 16.9127 130.33 16.8913 130.248 16.8913C130.182 16.8913 130.045 16.908 129.837 16.9411V16.7653L131.394 16.5124L130.5 19.6745ZM135.296 19.571L135.197 19.9811C135.188 20.0202 135.183 20.0537 135.183 20.0807C135.183 20.1286 135.198 20.1708 135.228 20.2067C135.252 20.2338 135.283 20.2468 135.319 20.2468C135.358 20.2467 135.409 20.2235 135.472 20.1755C135.589 20.0883 135.745 19.9071 135.941 19.6335L136.094 19.7419C135.887 20.0546 135.673 20.2943 135.454 20.4597C135.234 20.6218 135.031 20.7028 134.845 20.7028C134.716 20.7028 134.618 20.6693 134.552 20.6032C134.489 20.5401 134.457 20.4472 134.457 20.3239C134.457 20.1766 134.49 19.9825 134.556 19.7419L134.651 19.404C134.257 19.9181 133.895 20.2777 133.564 20.4821C133.326 20.6294 133.093 20.7028 132.865 20.7028C132.645 20.7028 132.456 20.6127 132.296 20.4323C132.137 20.2489 132.057 19.9972 132.057 19.6784C132.057 19.2004 132.2 18.6968 132.486 18.1677C132.774 17.6355 133.14 17.21 133.581 16.8913C133.927 16.6387 134.254 16.5124 134.561 16.5124C134.744 16.5124 134.896 16.5607 135.016 16.6569C135.139 16.7531 135.233 16.912 135.296 17.1345L135.458 16.6208L136.175 16.5124L135.296 19.571ZM138.508 16.6208H139.216L139.139 16.905H138.436L137.66 19.5661C137.575 19.8516 137.534 20.0365 137.534 20.1208C137.534 20.1719 137.546 20.2109 137.57 20.238C137.594 20.2649 137.622 20.2789 137.655 20.279C137.73 20.279 137.829 20.226 137.953 20.1208C138.025 20.0606 138.186 19.8758 138.436 19.5661L138.584 19.6784C138.308 20.0814 138.046 20.3655 137.799 20.5309C137.631 20.6452 137.461 20.7028 137.289 20.7028C137.157 20.7028 137.049 20.6619 136.965 20.5807C136.881 20.4966 136.838 20.3897 136.838 20.2604C136.838 20.098 136.887 19.8499 136.983 19.5163L137.737 16.905H137.055L137.1 16.7292C137.431 16.639 137.707 16.5043 137.926 16.3268C138.146 16.1464 138.391 15.835 138.662 15.3932H138.86L138.508 16.6208ZM140.262 19.6745C140.202 19.8871 140.173 20.0148 140.172 20.0573C140.172 20.1054 140.185 20.1454 140.212 20.1755C140.242 20.2055 140.278 20.2204 140.317 20.2204C140.362 20.2203 140.416 20.1961 140.479 20.1481C140.65 20.0129 140.823 19.8204 140.997 19.571L141.156 19.6745C140.951 19.9872 140.711 20.2501 140.434 20.4636C140.23 20.6229 140.034 20.7028 139.847 20.7028C139.724 20.7028 139.623 20.6665 139.545 20.5944C139.467 20.5193 139.428 20.4263 139.428 20.3151C139.428 20.2039 139.465 20.0189 139.54 19.7604L140.127 17.739C140.223 17.4086 140.271 17.2012 140.271 17.1169C140.271 17.0509 140.247 16.9968 140.2 16.9548C140.155 16.9127 140.091 16.8914 140.01 16.8913C139.944 16.8913 139.807 16.908 139.599 16.9411V16.7653L141.156 16.5124L140.262 19.6745ZM144.507 16.5124C144.904 16.5124 145.23 16.6434 145.486 16.905C145.744 17.1666 145.873 17.5065 145.873 17.9245C145.873 18.3755 145.754 18.8224 145.513 19.2643C145.276 19.7062 144.943 20.0566 144.516 20.3151C144.089 20.5737 143.674 20.7028 143.271 20.7028C142.859 20.7028 142.523 20.5717 142.261 20.3102C142.003 20.0457 141.873 19.7046 141.872 19.2868C141.872 18.8448 141.999 18.4008 142.251 17.9557C142.507 17.5107 142.847 17.1587 143.271 16.9001C143.698 16.6415 144.11 16.5124 144.507 16.5124ZM149.817 16.5124C149.967 16.5125 150.09 16.5619 150.186 16.6608C150.285 16.7601 150.335 16.8901 150.335 17.0495C150.335 17.2299 150.292 17.4707 150.205 17.7712L149.654 19.6696C149.591 19.8887 149.559 20.0226 149.559 20.071C149.559 20.113 149.571 20.1494 149.595 20.1794C149.619 20.2064 149.645 20.2204 149.672 20.2204C149.708 20.2203 149.752 20.2008 149.803 20.1618C149.963 20.0355 150.137 19.8423 150.327 19.5837L150.466 19.6696C150.187 20.0695 149.922 20.3556 149.672 20.527C149.498 20.6443 149.341 20.7028 149.203 20.7028C149.092 20.7027 149.003 20.6683 148.937 20.5993C148.871 20.5332 148.837 20.4429 148.837 20.3288C148.837 20.1844 148.888 19.9355 148.991 19.5837L149.514 17.7712C149.58 17.5456 149.614 17.3692 149.614 17.2429C149.614 17.1828 149.594 17.1344 149.555 17.0983C149.516 17.0593 149.468 17.0398 149.411 17.0397C149.326 17.0397 149.225 17.076 149.108 17.1481C148.885 17.2834 148.654 17.5075 148.414 17.82C148.173 18.1298 147.918 18.5272 147.651 19.0114C147.51 19.2669 147.392 19.5467 147.299 19.8503L147.074 20.5944H146.397L147.218 17.7712C147.314 17.4314 147.363 17.2261 147.363 17.1569C147.363 17.091 147.336 17.034 147.282 16.986C147.231 16.9349 147.166 16.9089 147.087 16.9089C147.051 16.9089 146.988 16.9154 146.898 16.9274L146.727 16.9548L146.7 16.7917L148.26 16.5124L147.661 18.5651C148.223 17.7261 148.653 17.1735 148.951 16.9089C149.251 16.6444 149.54 16.5124 149.817 16.5124ZM162.217 16.5124C162.614 16.5125 162.94 16.6434 163.196 16.905C163.454 17.1666 163.583 17.5066 163.583 17.9245C163.583 18.3755 163.464 18.8224 163.223 19.2643C162.986 19.7063 162.653 20.0565 162.226 20.3151C161.799 20.5737 161.384 20.7028 160.981 20.7028C160.569 20.7028 160.232 20.5719 159.97 20.3102C159.712 20.0457 159.583 19.7045 159.582 19.2868C159.582 18.8448 159.709 18.4008 159.961 17.9557C160.217 17.5107 160.557 17.1587 160.981 16.9001C161.408 16.6415 161.82 16.5124 162.217 16.5124ZM170.223 16.5124C170.542 16.5124 170.779 16.5765 170.932 16.7057C171.085 16.8351 171.162 16.9893 171.162 17.1667C171.161 17.4162 171.062 17.655 170.864 17.8835C170.602 18.1811 170.217 18.4218 169.709 18.6052C169.373 18.7285 168.899 18.8251 168.289 18.8942C168.267 19.0444 168.257 19.1691 168.257 19.2682C168.257 19.5359 168.352 19.7643 168.541 19.9538C168.731 20.1401 168.96 20.234 169.231 20.2341C169.447 20.2341 169.655 20.1904 169.854 20.1032C170.055 20.013 170.353 19.8159 170.747 19.5124L170.841 19.6432C170.129 20.3497 169.449 20.7028 168.802 20.7028C168.363 20.7027 168.032 20.5644 167.81 20.2878C167.588 20.0112 167.476 19.7055 167.476 19.3718C167.476 18.924 167.615 18.4656 167.891 17.9968C168.168 17.5278 168.515 17.1636 168.933 16.905C169.351 16.6434 169.781 16.5125 170.223 16.5124ZM174.748 19.571L174.649 19.9811C174.64 20.0202 174.635 20.0537 174.635 20.0807C174.635 20.1287 174.65 20.1708 174.68 20.2067C174.704 20.2338 174.735 20.2468 174.771 20.2468C174.81 20.2466 174.861 20.2234 174.924 20.1755C175.042 20.0883 175.198 19.9071 175.393 19.6335L175.546 19.7419C175.339 20.0546 175.125 20.2943 174.906 20.4597C174.686 20.6218 174.484 20.7027 174.297 20.7028C174.168 20.7028 174.07 20.6694 174.003 20.6032C173.94 20.5401 173.909 20.447 173.909 20.3239C173.909 20.1766 173.942 19.9825 174.008 19.7419L174.103 19.404C173.709 19.9181 173.347 20.2777 173.016 20.4821C172.779 20.6294 172.545 20.7028 172.317 20.7028C172.097 20.7028 171.908 20.6126 171.748 20.4323C171.589 20.2489 171.509 19.9972 171.509 19.6784C171.509 19.2004 171.652 18.6968 171.938 18.1677C172.227 17.6355 172.592 17.21 173.034 16.8913C173.379 16.6387 173.706 16.5124 174.013 16.5124C174.196 16.5125 174.348 16.5607 174.468 16.6569C174.591 16.7531 174.685 16.912 174.748 17.1345L174.911 16.6208L175.627 16.5124L174.748 19.571ZM111.993 19.4265C111.969 19.6637 111.957 19.82 111.956 19.8952C111.956 20.0155 111.98 20.1074 112.025 20.1706C112.082 20.2577 112.158 20.3229 112.254 20.3649C112.354 20.407 112.519 20.4274 112.75 20.4274L112.701 20.5944H110.292L110.342 20.4274H110.446C110.641 20.4274 110.801 20.3856 110.924 20.3015C111.011 20.2443 111.078 20.1493 111.126 20.0173C111.159 19.9241 111.191 19.7046 111.221 19.3591L111.293 18.5827H109.543L108.921 19.4265C108.78 19.6158 108.691 19.7524 108.655 19.8366C108.619 19.9178 108.601 19.9949 108.601 20.0671C108.601 20.1632 108.64 20.246 108.718 20.3151C108.796 20.3842 108.926 20.4214 109.106 20.4274L109.056 20.5944H107.247L107.297 20.4274C107.52 20.4184 107.715 20.3449 107.883 20.2067C108.055 20.0654 108.309 19.7663 108.646 19.3093L112.299 14.3376H112.457L111.993 19.4265ZM156.84 14.6452C156.651 14.6422 156.509 14.6626 156.415 14.7077C156.286 14.7708 156.191 14.8527 156.131 14.9518C156.071 15.0514 155.983 15.2996 155.866 15.696L155.392 17.2653L157.566 15.6276C157.854 15.4112 158.044 15.2402 158.134 15.114C158.188 15.0358 158.215 14.9651 158.215 14.902C158.215 14.8479 158.187 14.7949 158.13 14.7438C158.076 14.6927 157.992 14.6602 157.877 14.6452L157.922 14.4782H159.88L159.839 14.6452C159.626 14.6813 159.446 14.7287 159.298 14.7888C159.154 14.8459 159.005 14.9258 158.852 15.028C158.807 15.0581 158.513 15.281 157.972 15.696L156.1 17.1169L157.616 19.4577C157.886 19.8726 158.11 20.1392 158.288 20.2565C158.465 20.3708 158.698 20.4274 158.987 20.4274L158.938 20.5944H156.331L156.371 20.4274C156.578 20.4064 156.724 20.357 156.808 20.279C156.895 20.2008 156.939 20.1116 156.939 20.0124C156.939 19.9223 156.924 19.8348 156.894 19.7507C156.87 19.6903 156.782 19.5433 156.632 19.3093L155.392 17.3649L154.792 19.3903C154.693 19.7151 154.643 19.9334 154.643 20.0446C154.643 20.1587 154.685 20.2463 154.769 20.3063C154.853 20.3665 155.061 20.4064 155.392 20.4274L155.32 20.5944H152.902L152.96 20.4274C153.195 20.4214 153.353 20.4009 153.434 20.3649C153.554 20.3108 153.643 20.2411 153.701 20.1569C153.779 20.0336 153.875 19.7779 153.989 19.3903L155.067 15.696C155.148 15.4133 155.189 15.1858 155.189 15.0143C155.189 14.8943 155.15 14.803 155.072 14.7399C154.997 14.6768 154.848 14.6452 154.625 14.6452H154.535L154.589 14.4782H156.885L156.84 14.6452ZM167.35 16.5124C167.449 16.5124 167.527 16.5423 167.584 16.6022C167.642 16.6594 167.67 16.7439 167.67 16.8552C167.67 17.0536 167.619 17.2431 167.517 17.4235C167.445 17.5588 167.341 17.6266 167.206 17.6266C167.136 17.6266 167.077 17.6033 167.026 17.5583C166.978 17.5132 166.947 17.4445 166.935 17.3513C166.929 17.2945 166.916 17.2571 166.895 17.239C166.871 17.2149 166.842 17.2028 166.809 17.2028C166.758 17.2028 166.71 17.2149 166.664 17.239C166.586 17.2812 166.467 17.3983 166.308 17.5905C166.059 17.8852 165.788 18.2671 165.497 18.736C165.37 18.9344 165.262 19.1584 165.171 19.4079C165.045 19.7507 164.973 19.9569 164.955 20.0261L164.811 20.5944H164.121L164.955 17.7936C165.051 17.4689 165.099 17.2367 165.099 17.0983C165.099 17.0444 165.077 16.9996 165.032 16.9636C164.972 16.9154 164.892 16.8913 164.792 16.8913C164.729 16.8913 164.613 16.9043 164.445 16.9313L164.414 16.7653L165.97 16.5124L165.321 18.7048C165.847 17.8058 166.324 17.1769 166.754 16.819C166.998 16.6146 167.197 16.5125 167.35 16.5124ZM123.333 16.7468C122.891 16.7468 122.484 17.0644 122.111 17.6989C121.741 18.3302 121.556 18.9584 121.556 19.5837C121.556 19.8693 121.629 20.0904 121.773 20.2468C121.917 20.4 122.098 20.4771 122.318 20.4772C122.742 20.4772 123.139 20.1632 123.509 19.5349C123.882 18.9034 124.069 18.2625 124.069 17.613C124.069 17.3333 123.999 17.1197 123.861 16.9724C123.726 16.8221 123.55 16.7468 123.333 16.7468ZM144.39 16.7468C143.948 16.7468 143.54 17.0644 143.167 17.6989C142.798 18.3302 142.613 18.9584 142.613 19.5837C142.613 19.8693 142.685 20.0904 142.83 20.2468C142.974 20.4 143.155 20.4771 143.374 20.4772C143.798 20.4772 144.196 20.1632 144.566 19.5349C144.939 18.9034 145.125 18.2625 145.125 17.613C145.125 17.3333 145.056 17.1197 144.917 16.9724C144.782 16.8221 144.606 16.7468 144.39 16.7468ZM162.1 16.7468C161.658 16.7468 161.25 17.0644 160.877 17.6989C160.508 18.3302 160.323 18.9584 160.323 19.5837C160.323 19.8691 160.394 20.0904 160.539 20.2468C160.683 20.4001 160.865 20.4772 161.084 20.4772C161.508 20.4772 161.906 20.1633 162.276 19.5349C162.649 18.9034 162.834 18.2625 162.834 17.613C162.834 17.3333 162.766 17.1197 162.627 16.9724C162.492 16.8221 162.316 16.7469 162.1 16.7468ZM134.57 16.7468C134.377 16.7468 134.173 16.837 133.956 17.0173C133.65 17.2729 133.376 17.6518 133.135 18.154C132.898 18.6561 132.779 19.1104 132.779 19.5163C132.779 19.7207 132.83 19.8833 132.932 20.0036C133.034 20.1209 133.152 20.1794 133.285 20.1794C133.612 20.1792 133.968 19.9375 134.353 19.4538C134.867 18.8103 135.124 18.1499 135.124 17.4733C135.124 17.218 135.075 17.0329 134.976 16.9186C134.877 16.8044 134.741 16.7468 134.57 16.7468ZM174.022 16.7468C173.83 16.7468 173.625 16.837 173.409 17.0173C173.102 17.2729 172.828 17.6519 172.587 18.154C172.35 18.6561 172.231 19.1104 172.231 19.5163C172.231 19.7207 172.282 19.8833 172.384 20.0036C172.486 20.1208 172.604 20.1793 172.736 20.1794C173.063 20.1794 173.42 19.9377 173.805 19.4538C174.319 18.8103 174.577 18.1499 174.577 17.4733C174.577 17.218 174.527 17.0329 174.428 16.9186C174.329 16.8044 174.193 16.7468 174.022 16.7468ZM170.057 16.738C169.75 16.738 169.423 16.9014 169.078 17.2292C168.735 17.5539 168.482 18.0352 168.32 18.6725C168.765 18.6214 169.127 18.5341 169.407 18.4108C169.777 18.2454 170.053 18.0486 170.237 17.82C170.423 17.5885 170.517 17.3693 170.517 17.1618C170.517 17.0355 170.476 16.9333 170.395 16.8552C170.317 16.7771 170.204 16.7381 170.057 16.738ZM109.791 18.2536H111.33L111.564 15.8405L109.791 18.2536ZM131.335 14.7214C131.462 14.7214 131.568 14.765 131.656 14.8522C131.743 14.9394 131.787 15.0462 131.787 15.1725C131.787 15.2958 131.741 15.4026 131.651 15.4929C131.564 15.5799 131.459 15.6237 131.335 15.6237C131.212 15.6237 131.105 15.5801 131.015 15.4929C130.928 15.4026 130.884 15.2958 130.884 15.1725C130.884 15.0463 130.928 14.9394 131.015 14.8522C131.102 14.765 131.209 14.7214 131.335 14.7214ZM141.097 14.7214C141.223 14.7214 141.33 14.7651 141.417 14.8522C141.505 14.9394 141.548 15.0463 141.548 15.1725C141.548 15.2958 141.503 15.4026 141.413 15.4929C141.325 15.58 141.22 15.6237 141.097 15.6237C140.974 15.6237 140.867 15.58 140.777 15.4929C140.69 15.4026 140.646 15.2958 140.646 15.1725C140.646 15.0462 140.69 14.9394 140.777 14.8522C140.864 14.7651 140.971 14.7214 141.097 14.7214ZM94.4692 12.3444L99.2739 14.3903L99.7885 13.5563L95.4633 10.5739L94.4692 12.3444ZM96.3207 11.6579C96.6023 11.658 96.8305 11.8861 96.8305 12.1677C96.8304 12.4491 96.6022 12.6773 96.3207 12.6774C96.0394 12.6772 95.8111 12.4491 95.811 12.1677C95.811 11.8862 96.0393 11.6581 96.3207 11.6579ZM93.3852 11.8825L93.9916 12.1403L95.0346 10.278L94.4907 9.90302L93.3852 11.8825ZM92.0786 11.7009L92.8725 11.7409L94.101 9.54071L93.6557 8.86884L92.0786 11.7009ZM91.3578 11.6638L91.5034 11.6716L93.3334 8.38446L93.2241 8.21942L91.3578 11.6638ZM89.3588 9.50165L90.895 11.4343L92.7866 7.94208L90.3354 7.73212L89.3588 9.50165ZM111.114 3.73993C110.807 3.73692 110.596 3.79276 110.482 3.90692C110.371 4.01815 110.294 4.29331 110.251 4.73212L109.914 8.03485L112.237 4.44794C112.24 4.38799 112.241 4.33661 112.241 4.29462C112.241 4.12641 112.191 3.99707 112.092 3.90692C111.993 3.81671 111.779 3.76098 111.452 3.73993L111.488 3.57294H113.964L113.914 3.73993C113.629 3.74293 113.437 3.76717 113.337 3.81219C113.265 3.84525 113.203 3.8992 113.152 3.9743C113.104 4.04648 113.065 4.17188 113.035 4.3493C113.026 4.4011 112.988 4.74977 112.922 5.3952C112.859 6.04176 112.763 6.92217 112.633 8.03485L114.569 5.09344C114.779 4.77173 114.911 4.54598 114.965 4.41669C115.019 4.28742 115.046 4.17779 115.046 4.08759C115.046 4.00356 115.011 3.92995 114.939 3.86688C114.867 3.80075 114.743 3.75798 114.569 3.73993L114.605 3.57294H116.418L116.372 3.73993C116.213 3.75199 116.072 3.79101 115.949 3.85712C115.825 3.92326 115.68 4.04965 115.511 4.23602C115.415 4.34428 115.216 4.63033 114.915 5.09344L111.844 9.82977H111.677L112.173 5.09344L109.101 9.82977H108.948L109.476 4.73212C109.497 4.53715 109.507 4.38707 109.507 4.28192C109.507 4.10758 109.458 3.97467 109.359 3.88446C109.26 3.79424 109.08 3.74594 108.822 3.73993L108.872 3.57294H111.163L111.114 3.73993ZM151.129 5.41376H150.966L150.949 4.91766C150.934 4.73741 150.899 4.57648 150.845 4.43524C150.791 4.2939 150.709 4.17128 150.601 4.06903C150.493 3.96396 150.356 3.88294 150.191 3.82587C150.025 3.76572 149.842 3.73602 149.64 3.73602C149.102 3.7361 148.632 3.88298 148.229 4.17743C147.715 4.55333 147.312 5.08455 147.02 5.7702C146.779 6.33556 146.659 6.90856 146.659 7.48895C146.659 8.08123 146.831 8.55505 147.177 8.90985C147.523 9.2617 147.973 9.43719 148.527 9.43719C148.944 9.43712 149.316 9.34413 149.64 9.1579C149.968 8.97153 150.272 8.68425 150.551 8.29657H150.764C150.433 8.82257 150.066 9.21006 149.664 9.45966C149.261 9.70622 148.778 9.82974 148.215 9.82977C147.716 9.82977 147.274 9.72574 146.889 9.51825C146.504 9.30774 146.211 9.01337 146.009 8.63446C145.808 8.25556 145.707 7.84784 145.707 7.4118C145.707 6.74437 145.886 6.09493 146.244 5.46356C146.601 4.83204 147.092 4.33517 147.714 3.9743C148.34 3.61358 148.97 3.43338 149.604 3.43329C149.902 3.43329 150.236 3.50387 150.606 3.6452C150.768 3.70529 150.885 3.73596 150.957 3.73602C151.03 3.73602 151.093 3.7202 151.147 3.69012C151.201 3.66004 151.291 3.57455 151.417 3.43329H151.584L151.129 5.41376ZM117.451 5.60809C117.848 5.60809 118.175 5.73812 118.43 5.99969C118.689 6.26126 118.818 6.60137 118.818 7.01923C118.818 7.47031 118.697 7.91701 118.456 8.35907C118.219 8.80096 117.887 9.15126 117.46 9.40985C117.033 9.66842 116.618 9.79847 116.215 9.79852C115.803 9.79852 115.466 9.66755 115.205 9.40594C114.946 9.14131 114.817 8.79954 114.817 8.38153C114.817 7.93962 114.943 7.49636 115.196 7.05145C115.451 6.60638 115.791 6.25441 116.215 5.99579C116.642 5.73728 117.054 5.60818 117.451 5.60809ZM124.799 5.60809C124.937 5.6081 125.05 5.65569 125.137 5.75165C125.227 5.84481 125.273 5.99088 125.273 6.18915C125.273 6.36357 125.246 6.54934 125.192 6.74481L124.696 8.49872C124.587 8.88064 124.533 9.09334 124.533 9.13544C124.533 9.17742 124.547 9.21383 124.574 9.24384C124.592 9.26473 124.616 9.27509 124.646 9.27509C124.676 9.27505 124.729 9.24625 124.804 9.18915C124.975 9.05686 125.136 8.8821 125.287 8.66571L125.435 8.76044C125.36 8.8807 125.226 9.04609 125.034 9.25653C124.844 9.46704 124.682 9.61006 124.546 9.68524C124.411 9.76036 124.287 9.79851 124.172 9.79852C124.067 9.79852 123.978 9.7623 123.906 9.69012C123.837 9.61797 123.802 9.52872 123.802 9.42352C123.802 9.27907 123.865 8.98912 123.988 8.55341L124.398 7.10516C124.491 6.77174 124.54 6.5868 124.546 6.55048C124.555 6.49334 124.56 6.43761 124.56 6.38348C124.56 6.30832 124.543 6.2498 124.51 6.2077C124.474 6.16579 124.434 6.14433 124.389 6.14423C124.263 6.14423 124.129 6.20935 123.988 6.33856C123.573 6.72043 123.184 7.2555 122.824 7.94403C122.586 8.39812 122.363 8.98042 122.156 9.69012H121.475L122.247 6.96063C122.331 6.66613 122.372 6.46901 122.372 6.36981C122.372 6.28871 122.356 6.22821 122.323 6.18915C122.29 6.15024 122.249 6.13055 122.201 6.13055C122.102 6.13064 121.996 6.1669 121.885 6.23895C121.705 6.35624 121.472 6.60793 121.186 6.99286C120.903 7.37755 120.684 7.7457 120.528 8.09735C120.453 8.26275 120.273 8.79397 119.991 9.69012H119.323L120.158 6.76727L120.266 6.38837C120.287 6.33123 120.297 6.28848 120.297 6.26141C120.297 6.19541 120.267 6.13666 120.207 6.08563C120.147 6.0315 120.07 6.00458 119.977 6.00458C119.938 6.00462 119.83 6.02231 119.653 6.05829L119.612 5.89227L121.168 5.60809L120.581 7.64227C120.843 7.16412 121.066 6.80473 121.249 6.56415C121.535 6.19127 121.813 5.92005 122.083 5.75165C122.243 5.65542 122.41 5.60809 122.584 5.60809C122.735 5.60809 122.859 5.65566 122.958 5.75165C123.058 5.84785 123.108 5.97146 123.108 6.12177C123.108 6.26903 123.073 6.46155 123.004 6.69891L122.684 7.8454C123.174 6.92828 123.639 6.28464 124.078 5.91473C124.321 5.71024 124.562 5.60809 124.799 5.60809ZM129.296 8.66571L129.198 9.07684C129.189 9.11571 129.184 9.14851 129.184 9.17548C129.184 9.22359 129.199 9.26634 129.229 9.30243C129.253 9.32926 129.283 9.34239 129.319 9.34247C129.358 9.34247 129.409 9.31827 129.472 9.2702C129.589 9.18299 129.746 9.00285 129.942 8.72919L130.095 8.83759C129.888 9.15023 129.674 9.38899 129.455 9.55438C129.235 9.71677 129.032 9.79852 128.845 9.79852C128.716 9.79847 128.618 9.76502 128.552 9.69891C128.489 9.63581 128.458 9.54272 128.457 9.41962C128.457 9.27227 128.491 9.07814 128.557 8.83759L128.652 8.49872C128.258 9.01296 127.895 9.37235 127.564 9.57684C127.327 9.72403 127.094 9.79842 126.866 9.79852C126.646 9.79852 126.456 9.70845 126.296 9.52802C126.137 9.34457 126.058 9.09288 126.058 8.77411C126.058 8.29601 126.201 7.79258 126.487 7.26337C126.775 6.73117 127.14 6.30575 127.582 5.987C127.928 5.73447 128.254 5.60817 128.561 5.60809C128.744 5.60809 128.897 5.65545 129.017 5.75165C129.14 5.84787 129.233 6.00765 129.296 6.23016L129.459 5.71552L130.176 5.60809L129.296 8.66571ZM134.055 5.60809C134.205 5.60809 134.329 5.65733 134.425 5.75653C134.524 5.85572 134.575 5.98494 134.575 6.14423C134.575 6.32459 134.531 6.56535 134.444 6.86591L133.893 8.76532C133.83 8.98474 133.798 9.11854 133.798 9.16669C133.798 9.20879 133.81 9.24501 133.834 9.27509C133.858 9.30213 133.885 9.31512 133.912 9.31512C133.948 9.31497 133.991 9.29547 134.042 9.25653C134.202 9.13023 134.376 8.93772 134.565 8.67938L134.706 8.76532C134.426 9.16523 134.161 9.45132 133.912 9.62274C133.737 9.74002 133.58 9.79852 133.442 9.79852C133.331 9.79849 133.242 9.76316 133.176 9.69403C133.11 9.62788 133.077 9.53776 133.077 9.42352C133.077 9.27913 133.128 9.03097 133.23 8.67938L133.753 6.86591C133.819 6.64059 133.853 6.4648 133.853 6.33856C133.853 6.27842 133.832 6.23012 133.793 6.19403C133.754 6.15518 133.707 6.13551 133.65 6.13544C133.566 6.13544 133.464 6.17166 133.347 6.24384C133.125 6.37915 132.893 6.60312 132.653 6.91571C132.412 7.22546 132.158 7.62295 131.89 8.10712C131.749 8.36262 131.632 8.64242 131.539 8.94598L131.313 9.69012H130.636L131.457 6.86591C131.554 6.52628 131.602 6.32177 131.602 6.25262C131.602 6.1865 131.574 6.12982 131.52 6.08173C131.469 6.03064 131.405 6.00462 131.327 6.00458C131.291 6.00458 131.227 6.01111 131.137 6.02313L130.965 6.0495L130.939 5.88739L132.499 5.60809L131.899 7.65985C132.461 6.82083 132.892 6.26922 133.19 6.00458C133.49 5.74023 133.779 5.60821 134.055 5.60809ZM140.88 8.49872L144.43 3.57294H145.923V3.73993C145.599 3.76094 145.409 3.7824 145.351 3.80341C145.252 3.84248 145.16 3.92058 145.076 4.03778C144.994 4.15506 144.905 4.38073 144.809 4.71454L143.677 8.59344C143.611 8.81871 143.578 8.9964 143.578 9.12567C143.578 9.24294 143.618 9.33213 143.7 9.39227C143.814 9.47945 143.994 9.5231 144.241 9.52313H144.349L144.309 9.69012H141.733L141.778 9.52313H141.9C142.128 9.52313 142.303 9.48968 142.423 9.42352C142.516 9.37537 142.599 9.2852 142.671 9.15302C142.746 9.01761 142.851 8.72017 142.983 8.26044L143.993 4.71454L140.425 9.69012H140.245L139.671 4.71454L138.58 8.49872C138.486 8.82049 138.44 9.03784 138.44 9.14911C138.44 9.26018 138.481 9.34587 138.562 9.40594C138.643 9.46302 138.84 9.5021 139.153 9.52313L139.103 9.69012H137.086L137.136 9.52313H137.258C137.556 9.52312 137.77 9.44776 137.903 9.29755C137.999 9.18929 138.1 8.95431 138.206 8.59344L139.537 4.03387C139.437 3.93176 139.342 3.86199 139.252 3.82587C139.162 3.78979 138.995 3.76098 138.751 3.73993L138.796 3.57294H140.317L140.88 8.49872ZM117.333 5.84247C116.892 5.84261 116.484 6.15957 116.112 6.79364C115.742 7.4251 115.556 8.05393 115.556 8.67938C115.556 8.96499 115.629 9.1861 115.773 9.34247C115.917 9.49584 116.099 9.57294 116.319 9.57294C116.743 9.57293 117.139 9.25809 117.509 8.62958C117.882 7.9982 118.069 7.35809 118.069 6.70868C118.069 6.42919 118 6.2154 117.862 6.06805C117.726 5.91769 117.55 5.84247 117.333 5.84247ZM128.571 5.84247C128.378 5.84247 128.173 5.93254 127.956 6.11298C127.65 6.36858 127.377 6.74765 127.136 7.24969C126.899 7.7519 126.78 8.20602 126.78 8.612C126.78 8.81644 126.831 8.97904 126.933 9.0993C127.035 9.2164 127.152 9.27506 127.285 9.27509C127.612 9.27509 127.969 9.03269 128.354 8.54852C128.868 7.90504 129.125 7.24461 129.125 6.56805C129.125 6.31265 129.075 6.12758 128.976 6.01337C128.877 5.89938 128.742 5.84257 128.571 5.84247Z" fill="#4C4C4C"/>
</svg>
