<svg width="30" height="30" viewBox="0 0 30 30" fill="none" xmlns="http://www.w3.org/2000/svg">
<path fill-rule="evenodd" clip-rule="evenodd" d="M12.3433 4.72301H17.6562C17.9342 4.72299 18.1989 4.72296 18.4219 4.74118C18.665 4.76105 18.9439 4.80739 19.2227 4.94942C19.6136 5.14858 19.9313 5.46636 20.1305 5.85723C20.2725 6.13599 20.3189 6.41491 20.3387 6.65807C20.357 6.88106 20.3569 7.14569 20.3569 7.42374L20.3569 8.54958L21.3796 8.54958C21.9589 8.54956 22.4522 8.54955 22.8571 8.58264C23.2826 8.6174 23.6965 8.69353 24.0922 8.89515C24.6888 9.19912 25.1738 9.68416 25.4778 10.2807C25.6794 10.6764 25.7556 11.0904 25.7903 11.5158C25.8234 11.9208 25.8234 12.4141 25.8234 12.9933V20.8333C25.8234 21.4126 25.8234 21.9059 25.7903 22.3109C25.7556 22.7363 25.6794 23.1502 25.4778 23.5459C25.1738 24.1425 24.6888 24.6276 24.0922 24.9315C23.6965 25.1332 23.2826 25.2093 22.8571 25.2441C22.4522 25.2771 21.9589 25.2771 21.3797 25.2771H8.61989C8.04062 25.2771 7.54729 25.2771 7.14232 25.2441C6.71685 25.2093 6.30293 25.1332 5.90723 24.9315C5.31065 24.6276 4.82562 24.1425 4.52164 23.5459C4.32002 23.1502 4.24389 22.7363 4.20913 22.3109C4.17604 21.9059 4.17606 21.4126 4.17607 20.8334V12.9934C4.17606 12.4141 4.17604 11.9208 4.20913 11.5158C4.24389 11.0904 4.32002 10.6764 4.52164 10.2807C4.82562 9.68416 5.31065 9.19912 5.90723 8.89515C6.30293 8.69353 6.71685 8.6174 7.14232 8.58264C7.54731 8.54955 8.04059 8.54956 8.6199 8.54958L9.64257 8.54958L9.64257 7.42374C9.64255 7.14569 9.64252 6.88106 9.66074 6.65807C9.68061 6.41491 9.72695 6.13599 9.86898 5.85723C10.0681 5.46636 10.3859 5.14858 10.7768 4.94942C11.0556 4.80739 11.3345 4.76105 11.5776 4.74118C11.8006 4.72296 12.0652 4.72299 12.3433 4.72301ZM11.6104 8.54965H18.3888V6.80023C18.3888 6.73985 18.3399 6.6909 18.2795 6.6909H11.7197C11.6593 6.6909 11.6104 6.73985 11.6104 6.80023V8.54965ZM11.7197 13.4695C11.1763 13.4695 10.7358 13.91 10.7358 14.4534C10.7358 14.9969 11.1763 15.4374 11.7197 15.4374H18.2795C18.823 15.4374 19.2635 14.9969 19.2635 14.4534C19.2635 13.91 18.823 13.4695 18.2795 13.4695H11.7197Z" fill="#2B313D"/>
</svg>
