<svg width="30" height="30" viewBox="0 0 30 30" fill="none" xmlns="http://www.w3.org/2000/svg">
<path d="M20.3737 4.79883C20.9363 4.79883 21.3929 5.25481 21.3932 5.81738V7.87402H21.5914C22.5494 7.87413 23.3588 8.5845 23.484 9.53418L25.2614 23.043C25.4116 24.1864 24.5211 25.2012 23.3678 25.2012H6.6305C5.49825 25.201 4.6153 24.221 4.73206 23.0947L6.13245 9.58691C6.23342 8.61407 7.05284 7.87422 8.03089 7.87402H8.6139V5.81738C8.61416 5.25509 9.0702 4.79928 9.63245 4.79883C10.1951 4.79883 10.6517 5.25481 10.652 5.81738V7.87402H13.984V5.81738C13.9843 5.25493 14.4411 4.79902 15.0035 4.79883C15.566 4.79899 16.0218 5.25491 16.0221 5.81738V7.87402H19.3551V5.81738C19.3554 5.25509 19.8114 4.79928 20.3737 4.79883ZM17.6696 12.2559C17.0394 12.2559 16.4729 12.3893 15.9791 12.6641L15.7721 12.79C15.2346 13.1474 14.8286 13.6654 14.5485 14.3262L14.5475 14.3271C14.2702 14.9883 14.1375 15.7752 14.1373 16.6777C14.1346 17.5838 14.2666 18.3769 14.5436 19.0459V19.0469C14.8231 19.7148 15.2288 20.2399 15.7653 20.6055H15.7662C16.3067 20.9716 16.9454 21.1505 17.6686 21.1533H17.6696C18.3931 21.1533 19.0314 20.9762 19.57 20.6094C20.1065 20.2438 20.5108 19.7188 20.7877 19.0508C21.0676 18.3817 21.2018 17.5874 21.2018 16.6787C21.204 15.8886 21.1027 15.1875 20.8893 14.583L20.7907 14.3291C20.5105 13.6685 20.1026 13.1497 19.5631 12.79H19.5621C19.0244 12.4302 18.389 12.2559 17.6696 12.2559ZM10.8571 12.4092L8.86683 13.6689L8.73402 13.7539V15.9365L9.17249 15.6611L10.6217 14.752V20.9766H12.8942V12.3652H10.9274L10.8571 12.4092ZM17.6696 14.2217C17.905 14.2217 18.1023 14.2985 18.2741 14.4541L18.275 14.4551C18.4513 14.6131 18.605 14.8657 18.7184 15.2393V15.2412C18.8326 15.61 18.8941 16.0869 18.8942 16.6787V16.6797C18.8967 17.5867 18.7615 18.22 18.526 18.6172C18.2925 19.0107 18.0102 19.1719 17.6696 19.1719C17.4929 19.1718 17.3367 19.1286 17.1959 19.041L17.0602 18.9385C16.884 18.7777 16.7297 18.5214 16.6139 18.1436C16.5016 17.7656 16.4411 17.2797 16.441 16.6797C16.4437 15.7863 16.5807 15.1618 16.816 14.7695C17.0491 14.3813 17.3308 14.2218 17.6696 14.2217ZM18.7731 18.7637C18.7388 18.8215 18.7019 18.8752 18.6647 18.9258L18.7721 18.7637L18.8688 18.5791C18.8388 18.6441 18.8073 18.7059 18.7731 18.7637ZM20.9098 17.0039C20.906 17.1035 20.8997 17.2018 20.8922 17.2979C20.8999 17.1986 20.9059 17.0972 20.9098 16.9941V17.0039ZM20.0504 13.625C20.2375 13.8604 20.3961 14.1328 20.527 14.4414V14.4424C20.3962 14.1338 20.2374 13.8614 20.0504 13.626V13.625ZM16.4791 12.7471C16.285 12.8211 16.1024 12.9152 15.9313 13.0293C15.8707 13.0696 15.8116 13.1123 15.7545 13.1572L15.5885 13.2979C15.6955 13.1989 15.8094 13.1087 15.9303 13.0283C16.0446 12.9522 16.1641 12.8852 16.2887 12.8271L16.4791 12.7471Z" fill="#2B313D"/>
</svg>
