<svg width="30" height="30" viewBox="0 0 30 30" fill="none" xmlns="http://www.w3.org/2000/svg">
<path d="M13.7124 5.93065C14.4843 5.38575 15.5157 5.38575 16.2876 5.93065L23.4399 10.9795C24.0323 11.3978 24.3851 12.0775 24.3853 12.8027V22.2461C24.385 23.479 23.3848 24.4785 22.1519 24.4785H18.2791C18.0324 24.4785 17.8325 24.2786 17.8325 24.032V19.1897C17.8325 18.9431 17.6326 18.7432 17.386 18.7432H12.6131C12.3664 18.7432 12.1665 18.9431 12.1665 19.1897V24.032C12.1665 24.2786 11.9666 24.4785 11.72 24.4785H7.84717C6.61427 24.4784 5.61497 23.479 5.61475 22.2461V12.8027C5.61487 12.0774 5.96748 11.3978 6.56006 10.9795L13.7124 5.93065Z" fill="#2B313D"/>
</svg>
