<svg width="30" height="30" viewBox="0 0 30 30" fill="none" xmlns="http://www.w3.org/2000/svg">
<path fill-rule="evenodd" clip-rule="evenodd" d="M6.41126 8.35706C5.27148 9.49684 5.27148 11.3313 5.27148 15.0002C5.27148 18.669 5.27148 20.5035 6.41126 21.6433C7.55104 22.783 9.38548 22.783 13.0544 22.783H16.9458C20.6147 22.783 22.4491 22.783 23.5889 21.6433C24.7287 20.5035 24.7287 18.669 24.7287 15.0002C24.7287 11.3313 24.7287 9.49684 23.5889 8.35706C22.4491 7.21729 20.6147 7.21729 16.9458 7.21729H13.0544C9.38548 7.21729 7.55104 7.21729 6.41126 8.35706ZM21.3978 10.6416C21.6557 10.9512 21.6139 11.4113 21.3043 11.6693L19.1675 13.45C18.3052 14.1686 17.6063 14.751 16.9894 15.1478C16.3468 15.561 15.721 15.8221 15.0001 15.8221C14.2791 15.8221 13.6533 15.561 13.0108 15.1478C12.3939 14.751 11.695 14.1686 10.8327 13.45L8.69582 11.6693C8.38624 11.4113 8.34442 10.9512 8.60239 10.6416C8.86037 10.332 9.32046 10.2902 9.63003 10.5482L11.7303 12.2984C12.638 13.0548 13.2681 13.5782 13.8001 13.9204C14.3151 14.2516 14.6644 14.3628 15.0001 14.3628C15.3358 14.3628 15.685 14.2516 16.2 13.9204C16.732 13.5782 17.3622 13.0548 18.2698 12.2984L20.3701 10.5482C20.6797 10.2902 21.1398 10.332 21.3978 10.6416Z" fill="#2B313D"/>
</svg>
