<svg width="44" height="44" viewBox="0 0 44 44" fill="none" xmlns="http://www.w3.org/2000/svg">
<g clip-path="url(#clip0_3370_19918)">
<rect width="44" height="44" fill="white"/>
<path d="M7.35254 8.91992C9.36525 8.91992 11.0082 10.5019 11.1064 12.4902C11.5765 12.3497 12.1033 12.4109 12.5449 12.7021C13.3366 13.2242 13.5552 14.2894 13.0332 15.0811L12.7666 15.4844C13.3332 15.1996 13.973 15.0391 14.6504 15.0391C14.7099 15.0391 14.7692 15.0405 14.8281 15.043C16.5405 11.7137 20.0083 9.43555 24.0098 9.43555C28.0106 9.43555 31.4768 11.7136 33.1895 15.042C33.2258 15.0411 33.2622 15.0391 33.2988 15.0391C35.6191 15.0391 37.5 16.92 37.5 19.2402C37.5 21.44 35.8091 23.2434 33.6562 23.4248C32.1767 27.3127 28.417 30.0762 24.0098 30.0762C19.6043 30.0762 15.845 27.3152 14.3643 23.4297C12.1775 23.2825 10.4492 21.4643 10.4492 19.2402C10.4492 18.6668 10.5635 18.12 10.7715 17.6221C10.6536 17.6478 10.5332 17.6616 10.4121 17.6621C9.73048 18.6168 8.61497 19.2402 7.35254 19.2402C5.27662 19.2402 3.59375 17.5574 3.59375 15.4814V12.6787C3.59375 10.6028 5.27662 8.91992 7.35254 8.91992Z" fill="#FFC9A8"/>
<path d="M7.68672 16.4572C10.1195 15.9493 12.5039 17.5098 13.0119 19.9426L15.4436 31.5881C15.9515 34.0209 14.391 36.4053 11.9582 36.9133C9.52542 37.4213 7.14103 35.8607 6.63301 33.4279L4.20137 21.7824C3.69339 19.3496 5.25395 16.9652 7.68672 16.4572Z" fill="#005BE2"/>
<path d="M9.82227 37.668C9.82227 33.2713 13.3865 29.707 17.7832 29.707H30.6074C35.0041 29.707 38.5684 33.2713 38.5684 37.668V37.668H9.82227V37.668Z" fill="#005BE2"/>
<path d="M21.1953 30.0762L21.1953 28.0117C21.1953 26.3549 22.5385 25.0117 24.1953 25.0117C25.8522 25.0117 27.1953 26.3549 27.1953 28.0117L27.1953 30.0762C27.1953 31.733 25.8522 33.0762 24.1953 33.0762C22.5385 33.0762 21.1953 31.733 21.1953 30.0762Z" fill="#FFC9A8"/>
<path d="M14.8834 18.6132C14.1501 18.4724 13.9893 17.5428 14.0005 17.0957C14.0005 10.7445 18.5162 6.79297 24.3028 6.79297C30.0893 6.79297 33.6883 11.521 34.2881 14.1673C34.888 16.8136 32.7356 17.5896 31.3243 17.5896C30.1952 17.5896 29.5601 14.6491 29.3837 13.1789C29.0544 13.7317 27.9088 14.8937 25.9611 15.1195C23.5265 15.4018 22.3622 14.6964 20.5274 14.4847C18.6926 14.2729 16.999 17.0957 16.8226 17.5896C16.6462 18.0836 15.7999 18.7893 14.8834 18.6132Z" fill="#372800"/>
<path d="M10.6609 15.7623C11.2047 15.6658 11.7237 16.0284 11.8202 16.5722C11.9167 17.116 11.5541 17.635 11.0103 17.7315L5.41609 18.7242C4.8723 18.8207 4.35324 18.4581 4.25675 17.9143C4.16026 17.3705 4.52286 16.8515 5.06665 16.755L10.6609 15.7623Z" fill="#94BFFF"/>
<circle cx="20.6816" cy="20.0117" r="1.31836" fill="#372800"/>
<circle cx="27.7109" cy="20.0117" r="1.31836" fill="#372800"/>
<path d="M26.0103 23.1843C26.3438 23.1843 26.6044 23.5018 26.5157 23.8235C26.2356 24.8418 25.3032 25.5898 24.1961 25.5898C23.089 25.5898 22.1566 24.8418 21.8765 23.8235C21.7878 23.5018 22.0484 23.1843 22.3819 23.1843L26.0103 23.1843Z" fill="#FF5700"/>
</g>
<defs>
<clipPath id="clip0_3370_19918">
<rect width="44" height="44" fill="white"/>
</clipPath>
</defs>
</svg>
