<svg width="379" height="111" viewBox="0 0 379 111" fill="none" xmlns="http://www.w3.org/2000/svg">
<path fill-rule="evenodd" clip-rule="evenodd" d="M174.468 56.1411C178.757 55.6604 183.097 56.1729 187.162 57.6401C192.261 59.4946 196.034 62.9318 198.528 67.809C200.083 70.8313 201.056 74.1266 201.394 77.518C201.677 80.3831 200.479 82.6581 198.16 84.3178C196.779 85.3007 195.203 85.6378 193.544 85.644H186.64L183.098 85.6381H172.334C171.323 85.6381 171.42 85.6965 171.481 86.5278C171.532 88.0746 171.842 89.6014 172.396 91.0434C172.634 91.6483 172.941 92.2235 173.31 92.7563C173.799 93.4807 174.43 94.0946 175.165 94.559C175.899 95.0235 176.721 95.3283 177.578 95.4545C180.172 95.8966 182.838 95.4257 185.131 94.1196C185.835 93.7085 186.514 93.2531 187.162 92.7563C187.652 92.3916 188.152 92.0389 188.658 91.6928C191.706 89.6095 195.992 91.0471 197.388 94.6635C197.923 95.9779 197.999 97.4379 197.605 98.8022C197.21 100.167 196.368 101.355 195.218 102.168C192.835 103.875 190.168 105.132 187.344 105.877C184.983 106.492 182.557 106.818 180.12 106.851C177.006 106.953 173.893 106.626 170.866 105.88C166.857 104.854 163.264 103.027 160.24 100.128C157.855 97.8662 156.019 95.0751 154.875 91.9741C152.299 85.0042 152.222 78.0064 154.987 71.0766C156.567 67.0123 159.222 63.4682 162.659 60.8334C166.095 58.1987 170.181 56.5751 174.468 56.1411ZM122.95 56.1186C126.699 55.7556 130.482 56.1358 134.087 57.2377C140.214 59.117 144.567 63.0668 147.228 68.9516C148.418 71.6124 149.199 74.4433 149.542 77.3442C150.012 81.115 147.408 84.7625 143.506 85.4858C142.839 85.6054 142.163 85.6631 141.486 85.6586C138.066 85.6401 134.647 85.633 131.231 85.6372H119.959C119.688 85.6373 119.612 85.7455 119.618 86.0297C119.651 87.9707 119.944 89.859 120.803 91.6176C121.928 93.9173 123.727 95.2524 126.266 95.5151C127.309 95.6336 128.364 95.6168 129.403 95.4633C131.282 95.1583 133.063 94.4054 134.6 93.268C135.292 92.7736 135.965 92.2546 136.669 91.7788C137.362 91.2813 138.154 90.9443 138.989 90.7924C140.372 90.61 141.776 90.9055 142.973 91.6313C144.17 92.3571 145.091 93.4716 145.587 94.7934C146.083 96.115 146.125 97.5675 145.707 98.9165C145.288 100.266 144.434 101.433 143.281 102.229C140.716 104.034 137.837 105.33 134.797 106.049C132.652 106.543 130.462 106.808 128.262 106.84C125.454 106.932 122.645 106.684 119.895 106.102C116.704 105.433 113.674 104.13 110.982 102.269C107.102 99.5429 104.425 95.8744 102.803 91.3989C102.013 89.1686 101.502 86.846 101.28 84.4868C100.869 80.7208 101.234 76.9089 102.355 73.2944C104.373 66.8561 108.214 61.9079 114.14 58.7211C116.875 57.2652 119.871 56.3802 122.95 56.1186ZM345.625 56.6586C348.051 56.6333 350.387 57.5861 352.12 59.3071C353.852 61.028 354.84 63.3763 354.865 65.8354V104.164C354.865 105.638 355.038 105.431 353.645 105.434H338.618C337.95 105.434 337.941 105.434 337.938 104.739V97.8364L337.953 96.6528C337.643 96.8989 337.397 97.2168 337.234 97.5795C334.922 101.216 331.52 104.004 327.528 105.533C325.722 106.23 323.823 106.647 321.895 106.769C319.768 106.939 317.627 106.791 315.542 106.331C311.202 105.307 308.206 102.683 306.474 98.5415C305.601 96.3419 305.048 94.0245 304.833 91.6635C304.693 90.288 304.619 88.9065 304.611 87.5239V65.9399C304.625 65.3486 304.684 64.7589 304.788 64.1762C305.247 61.9179 306.518 59.9131 308.353 58.5512C310.188 57.1894 312.457 56.5673 314.718 56.8061C316.98 57.045 319.073 58.1273 320.592 59.8432C322.111 61.5592 322.946 63.7865 322.937 66.0922C322.955 67.7737 322.937 69.4586 322.937 71.1401V82.3696C322.939 84.2259 323.218 86.0712 323.763 87.8432C324.012 88.6638 324.359 89.4507 324.796 90.186C325.159 90.8083 325.622 91.3651 326.166 91.8335C326.938 92.5152 327.908 92.9263 328.929 93.0043C329.951 93.0823 330.971 92.8229 331.835 92.2661C332.746 91.6648 333.526 90.8799 334.125 89.9604C335.275 88.2126 336.04 86.2335 336.368 84.1586C336.529 83.1369 336.598 82.1023 336.575 81.0678V66.0278C336.55 63.5685 337.49 61.1998 339.187 59.4428C340.884 57.6859 343.2 56.6841 345.625 56.6586ZM93.9751 55.9848C96.7185 56.0374 98.8893 57.1905 100.292 59.6137C101.132 61.004 101.476 62.6454 101.265 64.2622C101.054 65.879 100.302 67.3737 99.1333 68.4946C98.5543 69.0723 97.9367 69.6095 97.2857 70.102C94.7283 71.9224 92.0641 71.9561 89.3452 70.4819C88.7579 70.137 88.213 69.7219 87.7232 69.2456C87.0213 68.5921 86.1627 68.1365 85.2329 67.9252C83.6144 67.5729 82.2215 68.0466 81.0083 69.1284C80.2763 69.7983 79.6813 70.6079 79.2583 71.5112C78.4298 73.2832 77.9216 75.1919 77.7583 77.146C77.6341 78.3781 77.5778 79.6164 77.5884 80.8549V104.346C77.5884 105.582 77.6916 105.456 76.5064 105.456H60.2583C59.3493 105.456 59.2659 105.522 59.2593 104.814V64.8969C59.2321 63.38 59.5809 61.8801 60.2739 60.5356C61.1563 58.8651 62.559 57.537 64.2632 56.7592C65.9676 55.9815 67.8784 55.7966 69.6968 56.2348C71.5152 56.673 73.1398 57.7099 74.3169 59.1821C75.4937 60.6542 76.1568 62.48 76.2036 64.3745C76.2128 64.7298 76.2075 65.1039 76.2075 65.6137C76.5167 65.441 76.772 65.1837 76.9448 64.8715C78.6904 62.5416 80.8326 60.5461 83.27 58.9799C86.4708 56.9371 90.1942 55.8953 93.9751 55.9848ZM213.768 42.2563C215.471 41.3647 217.406 41.0364 219.302 41.3178C221.198 41.5993 222.959 42.4758 224.338 43.8247C225.717 45.1737 226.645 46.9272 226.991 48.8383C227.099 49.5157 227.147 50.202 227.136 50.8881C227.155 52.5014 227.136 54.1147 227.136 55.728C227.136 55.9691 227.136 56.2107 227.164 56.4487C227.166 56.518 227.195 56.5835 227.244 56.6323C227.292 56.6811 227.358 56.7098 227.426 56.7114C227.661 56.7299 227.899 56.7329 228.136 56.7329H232.708C233.455 56.7161 234.197 56.8647 234.881 57.1684C235.566 57.4722 236.177 57.9239 236.671 58.4917C238.195 60.2102 238.567 62.2011 237.708 64.3276C237.356 65.3065 236.721 66.1546 235.885 66.7612C235.05 67.3679 234.053 67.7046 233.026 67.727C231.474 67.8197 229.914 67.7547 228.356 67.767C227.054 67.767 227.136 67.5885 227.136 68.9516C227.136 75.3032 227.186 81.6548 227.116 88.0034C227.082 91.0325 228.917 93.2832 231.749 94.0961C232.596 94.3379 233.474 94.454 234.355 94.4418H235.879C235.93 94.4364 235.981 94.4431 236.029 94.4604C236.077 94.4778 236.12 94.5057 236.156 94.5424C236.192 94.5793 236.219 94.6243 236.236 94.6733C236.252 94.7222 236.257 94.7744 236.25 94.8256V105.122C236.251 105.165 236.242 105.208 236.225 105.248C236.208 105.287 236.182 105.323 236.151 105.352C236.119 105.381 236.082 105.403 236.042 105.416C236.021 105.423 236 105.428 235.979 105.43H235.51C231.956 105.43 228.402 105.473 224.841 105.415C222.438 105.407 220.051 105.014 217.769 104.249C215.959 103.657 214.301 102.667 212.911 101.35C211.033 99.5326 209.959 97.2796 209.383 94.7543C208.985 92.9435 208.791 91.0921 208.807 89.2368C208.813 86.0429 208.815 82.8486 208.811 79.6547V68.2221C208.811 67.8359 208.725 67.7706 208.311 67.7583C207.896 67.7459 207.567 67.7582 207.195 67.7397C205.957 67.6985 204.771 67.2293 203.832 66.4106C202.893 65.5918 202.257 64.4725 202.032 63.2377C201.806 62.003 202.004 60.727 202.591 59.6215C203.179 58.5162 204.121 57.6476 205.262 57.1596C205.854 56.9021 206.49 56.7625 207.134 56.7485C207.54 56.7485 207.948 56.7485 208.353 56.7299C208.758 56.7114 208.811 56.6365 208.811 56.2192V50.6557C208.798 49.1402 209.14 47.6432 209.81 46.2885C210.681 44.558 212.066 43.1479 213.768 42.2563ZM244.29 60.4018C246.71 57.3109 249.896 56.1143 253.664 57.0014C257.431 57.8886 259.671 60.4018 260.558 64.1665C260.699 64.8376 260.763 65.5233 260.748 66.2094C260.729 72.556 260.724 78.9046 260.732 85.2553V104.2C260.732 105.594 260.866 105.436 259.568 105.436H243.534C242.315 105.436 242.418 105.622 242.418 104.262V66.2583C242.419 64.095 242.961 62.1016 244.29 60.4018ZM366.02 35.8188C367.691 35.037 369.555 34.7828 371.37 35.0903C373.185 35.3978 374.867 36.2523 376.196 37.5424C377.525 38.8326 378.44 40.4987 378.823 42.3237C378.954 42.9973 379.014 43.684 379 44.3706C378.989 54.2861 378.985 64.2047 378.987 74.1264V104.205C378.987 105.586 379.136 105.441 377.82 105.441H361.17C360.774 105.425 360.719 105.367 360.704 104.947V44.5864C360.657 42.7928 361.108 41.0219 362.002 39.4741C362.949 37.8741 364.349 36.6007 366.02 35.8188ZM295.83 34.9497C297.266 34.9312 298.651 35.4922 299.68 36.5092C300.709 37.5262 301.297 38.9159 301.315 40.3725C301.333 41.8292 300.78 43.2337 299.777 44.2768C298.774 45.3199 297.403 45.9166 295.966 45.935C295.324 45.9387 294.684 46.0225 294.062 46.185C291.764 46.8464 290.538 48.7194 290.266 50.7963C290.228 51.1721 290.214 51.5505 290.221 51.9282V55.5356C290.221 56.8456 290.084 56.7161 291.44 56.7192H295.805C296.656 56.7013 297.499 56.8967 298.258 57.2875C299.017 57.6783 299.67 58.2523 300.158 58.9594C301.41 60.7212 301.6 62.6504 300.67 64.6069C300.279 65.5112 299.64 66.2827 298.83 66.8305C298.019 67.3782 297.072 67.6793 296.098 67.6977C294.513 67.7812 292.919 67.7256 291.328 67.7348C290.142 67.7348 290.221 67.596 290.221 68.8227L290.194 86.6577V105.095C290.196 105.137 290.189 105.18 290.175 105.219C290.161 105.259 290.139 105.295 290.111 105.326C290.082 105.356 290.048 105.381 290.009 105.398C289.971 105.414 289.93 105.423 289.888 105.423H272.819C271.981 105.423 271.909 105.484 271.904 104.804V68.1059C271.906 68.0544 271.896 68.003 271.876 67.9555C271.857 67.9083 271.827 67.8659 271.79 67.8315C271.752 67.797 271.706 67.7713 271.658 67.7563C271.609 67.7413 271.558 67.7373 271.507 67.7446C271.102 67.7446 270.697 67.7447 270.289 67.7231C269.103 67.6887 267.96 67.261 267.037 66.5063C266.113 65.7516 265.459 64.7108 265.174 63.5434C264.889 62.376 264.988 61.146 265.458 60.0415C265.927 58.9369 266.741 58.0187 267.774 57.4272C268.541 56.9805 269.407 56.7385 270.292 56.725H271.511C271.562 56.7323 271.613 56.7284 271.662 56.7133C271.71 56.6981 271.756 56.672 271.793 56.6372C271.831 56.6025 271.861 56.5598 271.88 56.5122C271.9 56.4644 271.909 56.4124 271.907 56.3608V50.1782C271.899 48.1862 272.197 46.2049 272.791 44.3061C274.056 40.3621 276.614 37.6636 280.433 36.2016C282.63 35.3803 284.953 34.9617 287.294 34.9653C290.135 34.9375 292.979 34.9837 295.83 34.9497ZM128.284 67.7036C127.219 67.0367 125.937 66.825 124.719 67.1147C123.501 67.4044 122.446 68.1714 121.785 69.2485C120.825 70.7939 120.447 72.5343 120.172 74.3022C120.166 74.3362 120.168 74.3715 120.177 74.4047C120.186 74.4379 120.203 74.4688 120.225 74.4946C120.248 74.5204 120.276 74.5409 120.307 74.5542C120.339 74.5674 120.373 74.5736 120.407 74.5717C120.641 74.5872 120.88 74.5864 121.118 74.5864L125.873 74.5747H131.459C131.694 74.5747 131.737 74.423 131.704 74.2221C131.509 72.8257 131.098 71.4691 130.485 70.2036C130.002 69.1743 129.237 68.3071 128.284 67.7036ZM177.922 67.0151C176.285 66.9131 174.931 67.4415 173.919 68.7768C173.573 69.2432 173.283 69.7512 173.057 70.2885C172.667 71.202 172.383 72.1583 172.209 73.1381C172.124 73.5708 171.944 73.9943 172.06 74.4516C172.305 74.5719 172.583 74.6091 172.85 74.5571H182.693C183.787 74.5571 183.608 74.5377 183.44 73.5981C183.203 72.1023 182.665 70.6718 181.861 69.395C180.919 67.9732 179.641 67.1264 177.922 67.0151ZM251.551 34.9731H253.076C256.331 34.9022 259.897 37.4084 260.611 41.4633C260.95 43.4254 260.547 45.4458 259.482 47.1196C258.417 48.7933 256.768 49.9979 254.865 50.4926C254.67 50.548 254.472 50.5914 254.273 50.6225C252.56 50.8321 250.828 50.8392 249.113 50.644C247.315 50.3871 245.661 49.5006 244.44 48.1381C243.219 46.7758 242.506 45.0233 242.424 43.184C242.343 41.3446 242.898 39.5338 243.995 38.0659C245.091 36.5982 246.658 35.5652 248.426 35.1459C248.952 35.0211 249.49 34.9588 250.03 34.9604L251.551 34.9731Z" fill="black"/>
<path d="M23.7939 80.4489C23.6262 80.8012 23.7116 81.1814 23.7116 81.5461C23.7116 88.1401 23.7116 94.7341 23.7116 101.328C23.7193 102.984 23.3135 104.615 22.5319 106.07C21.5802 107.828 20.104 109.236 18.3149 110.092C16.5258 110.947 14.5155 111.207 12.572 110.833C10.6285 110.46 8.85139 109.472 7.49533 108.012C6.13926 106.551 5.27378 104.693 5.02283 102.704C4.96597 102.228 4.93645 101.749 4.93443 101.269C4.93443 85.7807 4.88871 70.292 4.94967 54.8034C4.97406 47.8364 7.55592 41.8987 12.5245 37.0707C15.3472 34.329 18.6546 32.3477 22.2545 30.8393C25.8662 29.3619 29.6409 28.3334 33.4964 27.7762C37.1812 27.2376 40.8996 26.97 44.6225 26.9757C47.049 26.9956 49.3735 27.9684 51.1076 29.6897C52.8417 31.4109 53.8504 33.7467 53.9219 36.2062C53.9933 38.6658 53.1219 41.0577 51.4906 42.8794C49.8594 44.7012 47.5954 45.811 45.1742 45.9757C44.1622 46.0313 43.1472 46.0313 42.126 46.0684C38.6731 46.1479 35.2423 46.6503 31.9083 47.5644C30.5036 47.9543 29.1436 48.4941 27.8511 49.1748C27.1618 49.5424 26.5094 49.9772 25.9033 50.473C24.4797 51.6382 23.6659 53.1188 23.678 55.0074C23.6701 55.5236 23.6945 56.0398 23.7512 56.5528C23.9376 57.9279 24.6356 59.1786 25.7021 60.0487C26.9646 61.0921 28.4135 61.8792 29.9696 62.3669C32.3164 63.1598 34.7752 63.5586 37.2488 63.5476C37.7213 63.5476 38.1938 63.4765 38.6662 63.4456C42.7295 63.1613 45.921 64.7129 47.9207 68.3262C48.6271 69.605 49.0313 71.0325 49.1016 72.4965C49.1719 73.9605 48.9064 75.421 48.3259 76.7634C47.7454 78.1057 46.8658 79.2932 45.7561 80.2325C44.6465 81.1718 43.3371 81.8373 41.9309 82.1767C41.0403 82.3832 40.1314 82.4982 39.218 82.5198C36.9812 82.6333 34.7392 82.5713 32.5118 82.3343C29.8231 82.0256 27.1694 81.4584 24.5864 80.6405C24.3374 80.5239 24.068 80.4587 23.7939 80.4489Z" fill="#2C53FF"/>
<path d="M12.653 26.0468C6.03828 26.1673 -0.00333175 20.5882 0.00581296 13.2225C-0.0455551 11.5044 0.243956 9.7934 0.857165 8.19097C1.47037 6.58854 2.39478 5.12734 3.57554 3.89409C4.7563 2.66084 6.16933 1.68067 7.7308 1.01174C9.29226 0.342813 10.9703 -0.00123918 12.6654 3.35356e-06C14.3605 0.00124589 16.0381 0.347754 17.5986 1.01897C19.1591 1.69019 20.5708 2.67243 21.7498 3.90741C22.9288 5.14239 23.8511 6.60495 24.462 8.20828C25.0729 9.81161 25.36 11.523 25.3062 13.241C25.3032 20.5974 19.3134 26.1735 12.653 26.0468Z" fill="#4AD8FF"/>
</svg>
