<svg width="44" height="44" viewBox="0 0 44 44" fill="none" xmlns="http://www.w3.org/2000/svg">
<g clip-path="url(#clip0_3370_19976)">
<path d="M24.2896 4.99121C25.3464 4.99121 26.182 5.85778 26.404 6.89104C27.145 10.3401 29.8616 13.0557 33.311 13.7963C34.3443 14.0182 35.2109 14.8538 35.2109 15.9107V35.9584C35.2109 37.0153 34.3542 37.8721 33.2973 37.8721H11.4058C10.3489 37.8721 9.49219 37.0153 9.49219 35.9584V6.90484C9.49219 5.84797 10.3489 4.99121 11.4058 4.99121H24.2896Z" fill="#76ADF2"/>
<path fill-rule="evenodd" clip-rule="evenodd" d="M26.7354 14.5689H34.6724L25.666 5.5625V13.4995C25.666 14.0905 26.1444 14.5689 26.7354 14.5689Z" fill="#A7CBFF"/>
<path d="M30.2658 18.96C30.8875 18.96 31.3915 19.464 31.3915 20.0856C31.3915 20.7073 30.8875 21.2112 30.2658 21.2113H14.4362C13.8145 21.2113 13.3105 20.7073 13.3105 20.0856C13.3105 19.4639 13.8145 18.96 14.4362 18.96H30.2658Z" fill="#4583D8"/>
<path d="M24.5705 23.9648C25.1922 23.9648 25.6961 24.4688 25.6961 25.0905C25.6961 25.7122 25.1922 26.2162 24.5705 26.2162H14.4362C13.8145 26.2162 13.3105 25.7122 13.3105 25.0905C13.3105 24.4688 13.8145 23.9648 14.4362 23.9648H24.5705Z" fill="#4583D8"/>
</g>
<defs>
<clipPath id="clip0_3370_19976">
<rect width="44" height="44" fill="white"/>
</clipPath>
</defs>
</svg>
