<svg width="44" height="44" viewBox="0 0 44 44" fill="none" xmlns="http://www.w3.org/2000/svg">
<rect width="44" height="44" fill="white"/>
<path d="M17.1179 12.8107C14.862 12.8518 12.8016 10.9497 12.8047 8.43854C12.7872 7.85282 12.8859 7.26948 13.0951 6.72317C13.3042 6.17686 13.6195 5.67871 14.0221 5.25826C14.4248 4.83781 14.9067 4.50365 15.4393 4.27559C15.9718 4.04754 16.5441 3.93024 17.1222 3.93067C17.7003 3.93109 18.2724 4.04922 18.8046 4.27806C19.3368 4.50689 19.8182 4.84176 20.2203 5.2628C20.6224 5.68384 20.937 6.18246 21.1453 6.72908C21.3537 7.27569 21.4516 7.85916 21.4332 8.44487C21.4322 10.9529 19.3894 12.8539 17.1179 12.8107Z" fill="#97E8FF"/>
<path d="M28.0234 13.1279C28.851 13.1347 29.644 13.4659 30.2354 14.0527C30.8267 14.6396 31.171 15.4359 31.1953 16.2744C31.2197 17.1129 30.9225 17.9287 30.3662 18.5498C29.8099 19.1708 29.0376 19.5493 28.2119 19.6055C27.8668 19.6244 27.5201 19.6241 27.1719 19.6367C25.9944 19.6639 24.8244 19.8349 23.6875 20.1465C23.2084 20.2794 22.7445 20.4633 22.3037 20.6953C22.0686 20.8206 21.8464 20.9696 21.6396 21.1387C21.1543 21.5359 20.8767 22.0408 20.8809 22.6846C20.8782 22.8604 20.886 23.0362 20.9053 23.2109C20.9688 23.6797 21.2076 24.1067 21.5713 24.4033C22.0018 24.7589 22.4958 25.0271 23.0264 25.1934C23.8267 25.4637 24.6652 25.5994 25.5088 25.5957C25.6699 25.5957 25.8311 25.5711 25.9922 25.5605C27.3778 25.4636 28.4665 25.993 29.1484 27.2246C29.3893 27.6605 29.5278 28.1474 29.5518 28.6465C29.5757 29.1456 29.4851 29.6439 29.2871 30.1016C29.0891 30.5592 28.7886 30.9639 28.4102 31.2842C28.0317 31.6044 27.585 31.8316 27.1055 31.9473C26.8019 32.0176 26.492 32.0561 26.1807 32.0635C25.4179 32.1022 24.6531 32.0818 23.8936 32.001C22.9766 31.8957 22.0713 31.7017 21.1904 31.4229C21.0364 31.3508 20.8783 31.4628 20.8885 31.6326C20.8905 31.6661 20.8926 31.6995 20.8926 31.7324V38.0684C20.8926 39.1729 19.9971 40.0684 18.8926 40.0684H16.4863C15.3821 40.0684 14.4868 39.1742 14.4861 38.07C14.4827 32.9844 14.4771 26.6932 14.4932 22.6143C14.5016 20.2392 15.3827 18.2152 17.0771 16.5693C18.0398 15.6346 19.1678 14.9586 20.3955 14.4443C21.6271 13.9407 22.9147 13.5903 24.2295 13.4004C25.486 13.2168 26.754 13.126 28.0234 13.1279Z" fill="#4B82FA"/>
</svg>
