<svg width="30" height="30" viewBox="0 0 30 30" fill="none" xmlns="http://www.w3.org/2000/svg">
<path d="M23.0616 15.6473L23.5793 13.7154C24.1835 11.4603 24.4856 10.3328 24.2581 9.35703C24.0785 8.58657 23.6744 7.88668 23.097 7.34587C22.3657 6.66095 21.2381 6.35883 18.9831 5.75458C16.728 5.15033 15.6004 4.84821 14.6247 5.07573C13.8542 5.25537 13.1543 5.65945 12.6135 6.23687C12.0271 6.86298 11.7213 7.77957 11.2662 9.44561C11.1898 9.7254 11.1092 10.0263 11.0223 10.3506L11.0222 10.3508L10.5046 12.2826C9.90033 14.5377 9.59821 15.6652 9.82573 16.641C10.0054 17.4115 10.4095 18.1114 10.9869 18.6522C11.7182 19.3371 12.8457 19.6392 15.1008 20.2435L15.1008 20.2435C17.1334 20.7881 18.2499 21.0873 19.165 20.9744C19.2652 20.9621 19.3629 20.9448 19.4592 20.9223C20.2296 20.7427 20.9295 20.3386 21.4703 19.7612C22.1552 19.0299 22.4574 17.9024 23.0616 15.6473Z" fill="#2B313D"/>
<path d="M5.50458 17.715L6.02222 19.6469C6.62647 21.902 6.92859 23.0295 7.61351 23.7608C8.15432 24.3382 8.85421 24.7423 9.62466 24.9219C10.6004 25.1494 11.728 24.8473 13.9831 24.2431C16.2381 23.6388 17.3657 23.3367 18.097 22.6518C18.1577 22.5949 18.2164 22.5363 18.2733 22.4761C17.9391 22.448 17.602 22.3942 17.2594 22.3261C16.5633 22.1877 15.7362 21.9661 14.758 21.704L14.6512 21.6753L14.6264 21.6687C13.5621 21.3835 12.6728 21.1448 11.9628 20.8883C11.2161 20.6185 10.5376 20.286 9.96148 19.7464C9.16753 19.0028 8.61193 18.0404 8.36491 16.9811C8.18567 16.2123 8.23691 15.4585 8.37666 14.6769C8.51058 13.928 8.75109 13.0305 9.03926 11.9552L9.03926 11.9551L9.57365 9.96077L9.59245 9.89062C7.6719 10.408 6.66101 10.7141 5.98687 11.3455C5.40945 11.8863 5.00537 12.5862 4.82573 13.3566C4.59821 14.3324 4.90033 15.4599 5.50458 17.715Z" fill="#2B313D"/>
</svg>
