<svg width="44" height="44" viewBox="0 0 44 44" fill="none" xmlns="http://www.w3.org/2000/svg">
<g clip-path="url(#clip0_3370_19921)">
<rect width="44" height="44" fill="white"/>
<path d="M22.002 4.42969C27.6734 4.42985 32.2705 9.02777 32.2705 14.6992V26.957C32.2705 27.9235 31.487 28.707 30.5205 28.707C29.554 28.707 28.7705 27.9235 28.7705 26.957V14.6992C28.7705 10.9608 25.7404 7.92985 22.002 7.92969C18.2634 7.92969 15.2324 10.9607 15.2324 14.6992V29.4277C15.2324 32.568 17.3709 35.209 20.2709 35.9739C21.2054 36.2204 22.002 36.9808 22.002 37.9473C22.002 38.9138 21.2123 39.7129 20.2596 39.5501C15.4179 38.7225 11.7324 34.5054 11.7324 29.4277V14.6992C11.7324 9.02768 16.3304 4.42969 22.002 4.42969Z" fill="#4183F3"/>
<path d="M15.1982 30.4639H12.9297C9.12209 30.4639 6.03516 27.3769 6.03516 23.5693C6.03525 19.7618 9.12215 16.6748 12.9297 16.6748H15.1982V30.4639ZM31.0723 16.6748C34.8799 16.6748 37.9668 19.7617 37.9668 23.5693C37.9668 27.3769 34.8799 30.4639 31.0723 30.4639H28.8037V16.6748H31.0723Z" fill="#76A5F9"/>
</g>
<defs>
<clipPath id="clip0_3370_19921">
<rect width="44" height="44" fill="white"/>
</clipPath>
</defs>
</svg>
