<svg width="44" height="44" viewBox="0 0 44 44" fill="none" xmlns="http://www.w3.org/2000/svg">
<path d="M20.4314 4.6896C21.2322 3.67566 22.7698 3.67566 23.5705 4.6896L26.5515 8.46427C26.982 9.0094 27.6646 9.29211 28.3545 9.21106L33.1314 8.64985C34.4146 8.4991 35.5019 9.58637 35.3511 10.8696L34.7899 15.6465C34.7089 16.3364 34.9916 17.0189 35.5367 17.4494L39.3114 20.4304C40.3253 21.2312 40.3253 22.7688 39.3114 23.5696L35.5367 26.5506C34.9916 26.9811 34.7089 27.6636 34.7899 28.3535L35.3511 33.1304C35.5019 34.4136 34.4146 35.5009 33.1314 35.3501L28.3545 34.7889C27.6646 34.7079 26.982 34.9906 26.5515 35.5357L23.5705 39.3104C22.7698 40.3243 21.2322 40.3243 20.4314 39.3104L17.4504 35.5357C17.0199 34.9906 16.3374 34.7079 15.6475 34.7889L10.8705 35.3501C9.58735 35.5009 8.50008 34.4136 8.65083 33.1304L9.21204 28.3535C9.29309 27.6636 9.01038 26.9811 8.46524 26.5506L4.69058 23.5696C3.67664 22.7688 3.67664 21.2312 4.69058 20.4304L8.46525 17.4494C9.01038 17.0189 9.29309 16.3364 9.21204 15.6465L8.65083 10.8696C8.50008 9.58637 9.58735 8.4991 10.8705 8.64985L15.6475 9.21106C16.3374 9.29211 17.0199 9.0094 17.4504 8.46427L20.4314 4.6896Z" fill="#5C8FFF"/>
<path d="M14.6855 21.4269L20.1836 26.924L29.3175 17.79" stroke="white" stroke-width="3.6" stroke-linecap="round" stroke-linejoin="round"/>
</svg>
