<svg width="30" height="30" viewBox="0 0 30 30" fill="none" xmlns="http://www.w3.org/2000/svg">
<path d="M21.1745 11.3187L17.8497 8.32642C16.9025 7.4739 16.4288 7.04765 15.8477 6.82465L15.84 9.12122C15.84 11.1008 15.84 12.0906 16.455 12.7055C17.0699 13.3205 18.0597 13.3205 20.0393 13.3205H23.046C22.7415 12.7291 22.1963 12.2384 21.1745 11.3187Z" fill="#2B313D"/>
<path fill-rule="evenodd" clip-rule="evenodd" d="M13.3204 23.3987H16.6798C19.8471 23.3987 21.4308 23.3987 22.4147 22.4147C23.3987 21.4308 23.3987 19.8471 23.3987 16.6798V16.3127C23.3987 15.5797 23.3987 15.029 23.3629 14.5803H20.0393L19.9596 14.5803C19.0382 14.5804 18.2239 14.5804 17.5675 14.4922C16.8561 14.3965 16.1447 14.1769 15.5642 13.5963C14.9836 13.0158 14.764 12.3044 14.6683 11.593C14.5801 10.9366 14.5801 10.1223 14.5802 9.20089L14.588 6.8204C14.5882 6.75116 14.5941 6.68269 14.6054 6.61556C14.2622 6.60156 13.8544 6.60156 13.3454 6.60156C10.1615 6.60156 8.56947 6.60156 7.58552 7.58552C6.60156 8.56947 6.60156 10.1531 6.60156 13.3204V16.6798C6.60156 19.8471 6.60156 21.4308 7.58552 22.4147C8.56947 23.3987 10.1531 23.3987 13.3204 23.3987ZM14.1603 20.0393C15.0879 20.0393 15.84 19.3757 15.84 18.5572C15.84 17.9084 15.3676 17.357 14.7098 17.1562C14.6163 16.4157 13.9046 15.84 13.0405 15.84C12.1128 15.84 11.3607 16.5035 11.3607 17.3221C11.3607 17.5031 11.3975 17.6766 11.4649 17.837C11.3859 17.8233 11.3043 17.8161 11.2208 17.8161C10.525 17.8161 9.96099 18.3138 9.96099 18.9277C9.96099 19.5416 10.525 20.0393 11.2208 20.0393H14.1603Z" fill="#2B313D"/>
</svg>
