<svg width="30" height="30" viewBox="0 0 30 30" fill="none" xmlns="http://www.w3.org/2000/svg">
<path d="M15.0005 5.3501C20.3298 5.35016 24.6497 9.67022 24.6499 14.9995C24.6499 16.5379 24.2898 17.9952 23.6479 19.2876L24.1421 21.1001C24.2539 21.5101 24.3537 21.8758 24.4067 22.1763C24.4605 22.4808 24.4973 22.8668 24.3501 23.2524C24.1572 23.7577 23.7577 24.1572 23.2524 24.3501C22.8669 24.4971 22.4807 24.4605 22.1763 24.4067C21.8758 24.3537 21.5101 24.2539 21.1001 24.1421L19.2876 23.6479C17.9952 24.2897 16.5387 24.6499 15.0005 24.6499C9.67096 24.6499 5.3501 20.3291 5.3501 14.9995C5.35035 9.67018 9.67111 5.3501 15.0005 5.3501ZM10.9429 13.5864C10.1622 13.5864 9.52881 14.2198 9.52881 15.0005C9.52907 15.781 10.1623 16.4136 10.9429 16.4136C11.7234 16.4136 12.3567 15.781 12.3569 15.0005C12.3569 14.2198 11.7236 13.5864 10.9429 13.5864ZM15.0005 13.5864C14.2198 13.5864 13.5874 14.2198 13.5874 15.0005C13.5877 15.781 14.22 16.4136 15.0005 16.4136C15.781 16.4136 16.4143 15.781 16.4146 15.0005C16.4146 14.2198 15.7812 13.5864 15.0005 13.5864ZM19.0581 13.5864C18.2774 13.5864 17.645 14.2198 17.645 15.0005C17.6453 15.781 18.2776 16.4136 19.0581 16.4136C19.8386 16.4136 20.4719 15.781 20.4722 15.0005C20.4722 14.2198 19.8388 13.5864 19.0581 13.5864Z" fill="#2B313D"/>
</svg>
