<svg width="44" height="44" viewBox="0 0 44 44" fill="none" xmlns="http://www.w3.org/2000/svg">
<g clip-path="url(#clip0_3370_19922)">
<rect width="44" height="44" fill="white"/>
<path d="M33.9043 10.626C36.6657 10.626 38.9043 12.8646 38.9043 15.626V18.125C38.9041 18.4562 38.6345 18.721 38.3057 18.7607C35.8546 19.0568 33.9551 21.1439 33.9551 23.6748C33.9551 26.2057 35.8546 28.292 38.3057 28.5879C38.6345 28.6276 38.9041 28.8925 38.9043 29.2236V31.7236C38.9043 34.4851 36.6657 36.7236 33.9043 36.7236H30.0293V33.1934C30.0293 32.4874 29.457 31.915 28.751 31.915C28.045 31.9151 27.4727 32.4874 27.4727 33.1934V36.7236H10.0957C7.33428 36.7236 5.0957 34.4851 5.0957 31.7236V28.625H5.09668L5.35156 28.6182C7.96702 28.4855 10.0469 26.3232 10.0469 23.6748C10.0469 20.9409 7.8306 18.7246 5.09668 18.7246L5.0957 18.7236V15.626C5.0957 12.8646 7.33428 10.626 10.0957 10.626H27.4727V14.1562C27.4727 14.8622 28.045 15.4345 28.751 15.4346C29.457 15.4346 30.0293 14.8622 30.0293 14.1562V10.626H33.9043ZM28.751 24.9248C28.045 24.9249 27.4727 25.4972 27.4727 26.2031V28.1367C27.4727 28.8427 28.045 29.415 28.751 29.415C29.457 29.415 30.0293 28.8427 30.0293 28.1367V26.2031C30.0293 25.4971 29.457 24.9248 28.751 24.9248ZM28.751 17.9346C28.045 17.9346 27.4727 18.5069 27.4727 19.2129V21.1465C27.4727 21.8524 28.045 22.4248 28.751 22.4248C29.457 22.4248 30.0293 21.8525 30.0293 21.1465V19.2129C30.0293 18.5069 29.457 17.9346 28.751 17.9346Z" fill="#005BE2"/>
</g>
<defs>
<clipPath id="clip0_3370_19922">
<rect width="44" height="44" fill="white"/>
</clipPath>
</defs>
</svg>
