<svg width="44" height="44" viewBox="0 0 44 44" fill="none" xmlns="http://www.w3.org/2000/svg">
<g clip-path="url(#clip0_3370_19928)">
<rect width="44" height="44" fill="white"/>
<path d="M16.9691 15.8913L27.0231 15.8913L27.0231 13.596C27.0231 12.1971 25.8892 11.0632 24.4904 11.0632L19.5019 11.0632C18.1031 11.0632 16.9691 12.1971 16.9691 13.596L16.9691 15.8913ZM13.9298 13.596C13.9298 10.5186 16.4245 8.02382 19.5019 8.02382L24.4904 8.02382C27.5678 8.02382 30.0625 10.5186 30.0625 13.596L30.0625 18.9307L13.9298 18.9307L13.9298 13.596Z" fill="#6F47D2"/>
<path d="M36.9106 16.6642V26.7468H7.08789V16.6642C7.08789 15.0955 8.35919 13.8242 9.92786 13.8242H34.0697C35.6384 13.8242 36.9106 15.0955 36.9106 16.6642Z" fill="#6F47D2"/>
<path d="M36.9106 26.7461V33.1367C36.9106 34.7053 35.6393 35.9766 34.0706 35.9766H9.92786C8.35919 35.9766 7.08789 34.7053 7.08789 33.1367V26.7461H36.9106Z" fill="#8862E8"/>
<path d="M16.3262 26.7461H27.6664V27.9888C27.6664 30.1979 25.8755 31.9888 23.6664 31.9888H20.3262C18.117 31.9888 16.3262 30.1979 16.3262 27.9888V26.7461Z" fill="#AA88FF"/>
</g>
<defs>
<clipPath id="clip0_3370_19928">
<rect width="44" height="44" fill="white"/>
</clipPath>
</defs>
</svg>
