<svg width="44" height="44" viewBox="0 0 44 44" fill="none" xmlns="http://www.w3.org/2000/svg">
<rect x="8.00586" y="9.56934" width="12.3095" height="24.8623" rx="6.15475" fill="white"/>
<rect x="23.6836" y="9.56934" width="12.3095" height="24.8623" rx="6.15475" fill="white"/>
<path d="M12.8113 25.9077C14.9691 25.9077 16.7183 24.1585 16.7183 22.0007C16.7183 19.843 14.9691 18.0938 12.8113 18.0938C10.6535 18.0938 8.9043 19.843 8.9043 22.0007C8.9043 24.1585 10.6535 25.9077 12.8113 25.9077Z" fill="#191F28"/>
<path d="M11.2153 21.5643C11.7311 21.5643 12.1493 21.1461 12.1493 20.6303C12.1493 20.1145 11.7311 19.6963 11.2153 19.6963C10.6994 19.6963 10.2812 20.1145 10.2812 20.6303C10.2812 21.1461 10.6994 21.5643 11.2153 21.5643Z" fill="white"/>
<path d="M28.2117 25.9077C30.3695 25.9077 32.1187 24.1585 32.1187 22.0007C32.1187 19.843 30.3695 18.0938 28.2117 18.0938C26.0539 18.0938 24.3047 19.843 24.3047 22.0007C24.3047 24.1585 26.0539 25.9077 28.2117 25.9077Z" fill="#191F28"/>
<path d="M26.6156 21.5643C27.1315 21.5643 27.5496 21.1461 27.5496 20.6303C27.5496 20.1145 27.1315 19.6963 26.6156 19.6963C26.0998 19.6963 25.6816 20.1145 25.6816 20.6303C25.6816 21.1461 26.0998 21.5643 26.6156 21.5643Z" fill="white"/>
</svg>
