<svg xmlns="http://www.w3.org/2000/svg" xml:space="preserve" width="1000px" height="398px" x="0px" y="0px" viewBox="0 0 1000 398"><g fill="#004DA1"><path d="M648.735 195.039c-18.917-19.239-36.377-29.33-65.668-32.824 23.682-4 40.665-14.392 49.152-27.273 10.523-16.007 13.347-31.857 11.98-53.988-1.667-27.366-12.098-43.353-30.826-57.405C594.763 9.482 563.231.257 518.96.257H365.032v397.142h150.861c48.729 0 86.855-10.951 114.562-32.731 27.633-21.767 41.446-52.666 41.446-92.567 0-32.602-4.349-57.809-23.166-77.062M463.807 56.057h29.149c18.563 0 32.896 2.921 41.782 10.431 12.264 10.392 14.688 18.922 13.867 39.892-.588 14.543-4.155 23.54-12.429 31.269-8.331 7.758-22.529 11.656-42.569 11.656h-29.801V56.057zm97.359 246.325c-11.457 12.643-35.771 15.447-63.563 15.447h-33.796V201.8h28.518c29.154 0 51.669 4.744 65.06 16.182 11.238 9.614 18.193 17.148 18.102 42.307-.085 17.993-2.214 28.716-14.321 42.093M142.773 88.352c18.854-19.385 40.562-25.718 70.723-30.175 21.62-3.169 46.896-1.828 61.711-2.119 13.294-.262 20.104 0 35.216 0V.258h-41.836c-16.993 0-33.505.067-61.998 1.064-68.798 2.381-106.187 17.975-144.61 52.962C23.458 89.382 0 138.392 0 196.181v1.799c0 57.876 20.614 114.361 59.111 149.359 19.063 17.405 44.412 28.609 70.495 36.834 26.51 8.355 65.473 13.634 139.881 13.634 17.007 0 22.675.185 40.937 0v-80.921c-16.303 0-23.035.059-37.476.059-14.635 0-31.254.302-56.068-3.344-45.137-6.625-71.263-26.034-89.772-47.008-28.129-31.877-22.84-85.014-22.84-85.014 4.072-50.288 17.128-71.233 38.505-93.227M841.875 55.746s-51.63-2.571-50.26 48.548c0 0-.797 26.403 36.46 41.053 0 0 88.139 36.786 105.725 44.641 0 0 72.853 27.04 65.707 103.844 0 0-2.479 53.448-47.824 83.001 0 0-24.279 19.987-82.738 19.686H695.472v-79.404h136.221s43.469.423 52.771-27.817c0 0 7.612-29.485-14.563-42.871 0 0-6.338-5.288-28.002-14.296 0 0-75.385-29.28-92.873-38.827 0 0-37.199-17.775-48.607-46.784 0 0-17.537-38.555-3.086-74.796 0 0 15.078-43.348 55.946-59.13 0 0 27.647-13.041 62.931-12.463L969.9.257v55.489H841.875z"/></g></svg>