<svg xmlns="http://www.w3.org/2000/svg" xml:space="preserve" width="4377" height="1132" overflow="hidden"><g fill-rule="evenodd"><path fill="#FFF" d="M1129 566.46c0 312.34-252.74 565.5-564.557 565.5C252.74 1131.85 0 878.68 0 566.46 0 254.12 252.74.96 564.443.96 876.26.96 1129 254.12 1129 566.46"/><path fill="#003764" d="M830.086 527.47c-89.995-60.98-205.083-36.19-265.664 55.51C514.116 659.56 437.9 669.1 408.48 669.1c-96.29 0-162.01-67.5-181.5-137.32-.24-.82-.35-1.4-.58-1.98-.24-.82-.35-1.51-.59-2.33-7.7-29.21-9.57-43.06-9.57-74.01 0-166.78 171.82-352.63 419.034-352.63 253.289 0 398.259 192.26 435.726 299.09-.701-1.98-1.399-3.84-1.985-5.7C997.116 185.2 798.337 34.96 564.188 34.96 269.81 34.96 31 272.95 31 566.69c0 262.55 189.91 487.27 453.352 487.27 209.985 0 351.219-117.42 415.882-279.3 35.719-88.57 10.505-192.61-70.148-247.19"/><path fill="#E4032E" d="M1074.668 409.35c-31.269-104.59-177.112-310.39-438.81-310.39C388.74 98.96 217 285.38 217 452.66c0 31.05 1.98 44.94 9.57 74.24-3.16-12.84-4.9-25.56-4.9-38.05 0-174.4 174.42-295.1 353.752-295.1 242.797 0 439.626 196.93 439.626 439.73 0 190.39-109.56 355.22-268.584 434.37v.11C951.575 993.72 1098 797.14 1098 566.24c0-54.63-7.349-102.72-23.332-156.89"/><path fill="#575756" d="M2140.422 701.74v71.61h313.108v-71.61Zm751.168-28.65c-19.09 0-35.69 6.73-49.8 20.18-14.1 13.46-21.15 29.73-21.15 48.83s7.05 35.48 21.15 49.15c14.11 13.67 30.71 20.51 49.8 20.51s35.58-6.84 49.47-20.51 20.83-30.05 20.83-49.15-6.94-35.37-20.83-48.83c-13.89-13.45-30.38-20.18-49.47-20.18m632.7-31.9c-21.7 0-40.47 7.81-56.31 23.44-15.84 15.62-23.76 34.29-23.76 55.99q0 33.195 23.76 56.31c15.84 15.41 34.61 23.11 56.31 23.11 21.69 0 40.57-7.7 56.63-23.11 16.05-15.41 24.08-34.18 24.08-56.31 0-21.7-8.03-40.37-24.08-55.99-16.06-15.63-34.94-23.44-56.63-23.44m-2095.328-1.95h72.255v130.2h390.567v63.8h-462.822Zm2414.258-7.81H4377v63.8h-231.09v149.73h-72.25V695.23h-230.44Zm-951.63-16.93c19.96 0 38.51 3.36 55.66 10.09 17.14 6.73 32.43 15.95 45.89 27.67 12.58 12.15 22.45 25.82 29.62 41.01 7.16 15.19 10.74 31.69 10.74 49.48 0 17.36-3.58 33.74-10.74 49.15-7.17 15.41-17.04 28.97-29.62 40.69-13.46 11.72-28.75 21.05-45.89 27.99-17.15 6.95-35.7 10.42-55.66 10.42-19.53 0-37.97-3.47-55.33-10.42q-26.04-10.41-45.57-27.99c-13.02-11.72-23.11-25.28-30.27-40.69s-10.74-31.79-10.74-49.15c0-17.79 3.58-34.29 10.74-49.48q10.74-22.785 30.27-41.01c13.02-11.72 28.21-20.94 45.57-27.67s35.8-10.09 55.33-10.09m-822.121-26.04h70.953v54.69h313.108v-54.69h70.95v244.78h-455.011Zm1455.471-9.77q30.585 0 58.26 11.4c18.44 7.59 34.6 17.9 48.49 30.92 13.02 13.02 23.54 28.1 31.57 45.25 8.03 17.14 12.04 35.48 12.04 55.01s-4.01 37.86-12.04 55.01c-8.03 17.14-18.55 32.22-31.57 45.24-13.89 13.02-30.05 23.33-48.49 30.93-18.45 7.59-37.87 11.39-58.26 11.39-20.4 0-39.93-3.8-58.59-11.39-18.66-7.6-34.93-17.91-48.82-30.93q-20.175-19.53-32.22-45.24c-8.03-17.15-12.04-35.48-12.04-55.01s4.01-37.87 12.04-55.01c8.03-17.15 18.77-32.23 32.22-45.25 13.89-13.02 30.16-23.33 48.82-30.92q27.99-11.4 58.59-11.4m432.2-168.61v80.08h305.29v-80.08Zm-1769.85-80.07c-23.868 0-44.264 8.46-61.189 25.39-16.924 16.92-25.387 37.11-25.387 60.54q0 35.805 25.387 60.87c16.925 16.71 37.321 25.07 61.189 25.07 23.434 0 43.505-8.36 60.213-25.07q25.06-25.065 25.061-60.87c0-23.43-8.354-43.62-25.061-60.54-16.708-16.93-36.779-25.39-60.213-25.39m1698.9-55.99h70.95v73.56h305.29v-73.56h71.61v279.29h-447.85Zm-1218.53-3.91h447.2v58.6h-375.59v30.59h372.99v56.64h-372.99v32.55h377.55v57.29h-189.43v37.11h231.09v59.24H2624.7v-59.24h230.44v-37.11h-187.48Zm-481.672-1.95c21.698 0 41.986 3.91 60.864 11.72 18.877 7.81 35.042 18.44 48.495 31.9 14.321 13.02 25.604 28.54 33.849 46.55 8.246 18.01 12.368 37.21 12.368 57.61 0 20.83-4.122 40.04-12.368 57.62-8.245 17.57-19.528 33.09-33.849 46.54-13.453 13.46-29.618 24.09-48.495 31.9-18.878 7.82-39.166 11.72-60.864 11.72-21.264 0-41.335-3.9-60.212-11.72-18.878-7.81-35.043-18.44-48.496-31.9-14.321-13.45-25.604-28.97-33.849-46.54-8.245-17.58-12.368-36.79-12.368-57.62 0-20.4 4.123-39.6 12.368-57.61s19.528-33.53 33.849-46.55c13.453-13.46 29.618-24.09 48.496-31.9 18.877-7.81 38.948-11.72 60.212-11.72m1447.002-3.9h71.61v110.02h83.32v70.96h-83.32v126.94h-71.61Zm-1180.76 0h72.25v307.27h-72.25V448.49h-91.789v-63.8h91.789Zm-647.021 0h71.603v136.71h83.322v70.96h-83.322v164.05h-71.603ZM3392.14 261l178.36 256.5-57.28 39.71-121.08-176.42-119.77 180.98-58.59-39.71Zm-1827.781 0 178.359 297.51-58.585 35.16-119.774-207.02-118.472 211.58L1386 563.07Z"/></g></svg>