<svg xmlns="http://www.w3.org/2000/svg" width="233.032" height="99.057999" viewBox="0 0 61.656381 26.209096"><defs><linearGradient id="a" x1="0" x2="1" y1="0" y2="0" gradientTransform="matrix(-11.27193 6.50796 -6.50785 -11.27212 17.693 7.764)" gradientUnits="userSpaceOnUse" spreadMethod="pad"><stop offset="0" style="stop-opacity:1;stop-color:#f68b1e"/><stop offset="0.15" style="stop-opacity:1;stop-color:#f68b1e"/><stop offset="0.34727766" style="stop-opacity:1;stop-color:#f68b1e"/><stop offset="0.9" style="stop-opacity:1;stop-color:#ffcb04"/><stop offset="1" style="stop-opacity:1;stop-color:#ffde00"/></linearGradient><linearGradient id="b" x1="0" x2="1" y1="0" y2="0" gradientTransform="matrix(0 16.6337 -16.63341 0 9.02 -.13)" gradientUnits="userSpaceOnUse" spreadMethod="pad"><stop offset="0" style="stop-opacity:1;stop-color:#00b9f2"/><stop offset="0.1" style="stop-opacity:1;stop-color:#00abea"/><stop offset="0.50396758" style="stop-opacity:1;stop-color:#0071bc"/><stop offset="0.75" style="stop-opacity:1;stop-color:#0071bc"/><stop offset="0.84462785" style="stop-opacity:1;stop-color:#0071bc"/><stop offset="1" style="stop-opacity:1;stop-color:#0071bc"/></linearGradient><linearGradient id="c" x1="0" x2="1" y1="0" y2="0" gradientTransform="matrix(0 16.63423 -16.63395 0 30.64 -.13)" gradientUnits="userSpaceOnUse" spreadMethod="pad"><stop offset="0" style="stop-opacity:1;stop-color:#00b9f2"/><stop offset="0.1" style="stop-opacity:1;stop-color:#00abea"/><stop offset="0.50396758" style="stop-opacity:1;stop-color:#0071bc"/><stop offset="0.75" style="stop-opacity:1;stop-color:#0071bc"/><stop offset="0.84462785" style="stop-opacity:1;stop-color:#0071bc"/><stop offset="1" style="stop-opacity:1;stop-color:#0071bc"/></linearGradient><linearGradient id="d" x1="0" x2="1" y1="0" y2="0" gradientTransform="scale(-15.22315 -15.2234) rotate(-45 -1.963 2.72)" gradientUnits="userSpaceOnUse" spreadMethod="pad"><stop offset="0" style="stop-opacity:1;stop-color:#f68b1e"/><stop offset="0.15" style="stop-opacity:1;stop-color:#f68b1e"/><stop offset="0.34727766" style="stop-opacity:1;stop-color:#f68b1e"/><stop offset="0.9" style="stop-opacity:1;stop-color:#ffcb04"/><stop offset="1" style="stop-opacity:1;stop-color:#ffde00"/></linearGradient><linearGradient id="e" x1="0" x2="1" y1="0" y2="0" gradientTransform="scale(-9.84168 -9.84185) rotate(-45 -4.565 6.075)" gradientUnits="userSpaceOnUse" spreadMethod="pad"><stop offset="0" style="stop-opacity:1;stop-color:#00b9f2"/><stop offset="0.1" style="stop-opacity:1;stop-color:#00abea"/><stop offset="0.50396758" style="stop-opacity:1;stop-color:#0071bc"/><stop offset="0.75" style="stop-opacity:1;stop-color:#0071bc"/><stop offset="0.84462785" style="stop-opacity:1;stop-color:#0071bc"/><stop offset="1" style="stop-opacity:1;stop-color:#0071bc"/></linearGradient><linearGradient id="f" x1="0" x2="1" y1="0" y2="0" gradientTransform="matrix(-12.50302 12.50328 -12.50307 -12.50323 58.965 7.059)" gradientUnits="userSpaceOnUse" spreadMethod="pad"><stop offset="0" style="stop-opacity:1;stop-color:#f68b1e"/><stop offset="0.15" style="stop-opacity:1;stop-color:#f68b1e"/><stop offset="0.41495799" style="stop-opacity:1;stop-color:#f68b1e"/><stop offset="0.85" style="stop-opacity:1;stop-color:#ffcb04"/><stop offset="0.88945553" style="stop-opacity:1;stop-color:#ffcb04"/><stop offset="1" style="stop-opacity:1;stop-color:#ffde00"/></linearGradient></defs><path d="m14.296 6.641-9.098 5.546c.05 2.372.42 2.972 2.103 3.956l.624.346 9.018-5.494c2.245-1.365.68-4.704-1.461-4.704-.383 0-.784.106-1.186.35" style="fill:url(#a);stroke:none;stroke-width:.352781"/><path d="M0 2.055v22.097c0 2.739 5.191 2.739 5.191 0v-3.355l9.204 5.104c2.71 1.503 5.18-2.952 2.471-4.453l-8.94-4.959-.625-.345v-.001c-1.683-.984-2.053-1.584-2.103-3.956a27.31 27.31 0 0 1-.007-.698V2.055C5.191.685 3.893 0 2.595 0 1.298 0 0 .685 0 2.055" style="fill:url(#b);stroke:none;stroke-width:.352781"/><path d="M20.45 2.055v14.09c0 5.558 4.623 10.064 10.326 10.064 4.893 0 8.988-3.317 10.054-7.766-.986 3.183-3.934 5.493-7.417 5.493-4.185 0-7.596-3.333-7.763-7.508l-.004-.101v-.03a9.51 9.51 0 0 1-.006-.146v-.006.006V2.055C25.64.685 24.342 0 23.045 0c-1.298 0-2.596.685-2.596 2.055" style="fill:url(#c);stroke:none;stroke-width:.352781"/><path d="M25.64 7.87v8.273c.002-2.76 2.302-4.995 5.136-4.995 2.836 0 5.135 2.237 5.135 4.997s-2.3 4.998-5.135 4.998c-2.74 0-4.976-2.087-5.126-4.715.167 4.175 3.578 7.508 7.763 7.508 3.483 0 6.431-2.31 7.417-5.493a9.811 9.811 0 0 0 .27-2.096l.003-.193v-.01c0-5.557-4.624-10.063-10.327-10.063-1.87 0-3.783.622-5.136 1.79" style="fill:url(#d);stroke:none;stroke-width:.352781"/><path d="M43.22 16.144c0 5.559 4.624 10.065 10.328 10.065 2.85 0 5.427-1.13 7.3-2.95 2.445-2.368-1.205-6.048-3.67-3.584a7.462 7.462 0 0 1-.566.487c-3.092 2.409-7.553 2.134-10.28-.754-2.706-2.865-2.75-7.286-.228-10.239-1.785 1.809-2.883 4.268-2.883 6.975" style="fill:url(#e);stroke:none;stroke-width:.352781"/><path d="m46.192 9.08-.088.09c-2.521 2.952-2.478 7.373.228 10.238 2.727 2.888 7.188 3.163 10.28.754a5.175 5.175 0 0 1-3.066.98c-2.835 0-5.133-2.236-5.133-4.997 0-2.76 2.298-4.997 5.133-4.997 1.488 0 2.703.56 3.632 1.466 2.427 2.457 6.096-1.13 3.67-3.586a10.424 10.424 0 0 0-7.3-2.947 10.433 10.433 0 0 0-7.356 2.999" style="fill:url(#f);stroke:none;stroke-width:.352781"/></svg>