<svg xmlns="http://www.w3.org/2000/svg" xml:space="preserve" x="0px" y="0px" baseProfile="tiny" overflow="visible" version="1.2" viewBox="0 0 2048 813.5"><path fill="#FFF" d="M798.065 418.442c0 163.347-132.432 295.767-295.767 295.767-163.351 0-295.767-132.42-295.767-295.767 0-163.339 132.416-295.759 295.767-295.759 163.335 0 295.767 132.42 295.767 295.759z"/><path fill="#003764" d="M641.118 397.827c-47.045-31.973-107.275-18.953-138.943 29.119-26.341 40.18-66.211 45.18-81.568 45.18-50.372 0-84.741-35.407-94.956-72.025 0 0-.499-1.854-.63-2.273-4.016-15.307-5.031-22.576-5.031-38.818 0-87.521 89.868-185.016 219.192-185.016 132.49 0 208.315 100.856 227.907 156.924a69.391 69.391 0 0 1-1.03-2.981c-37.588-109.648-141.548-188.458-264.014-188.458-153.981 0-278.891 124.844-278.891 278.956 0 137.717 99.328 255.588 237.137 255.588 109.856 0 183.715-61.591 217.546-146.516 18.604-46.47 5.465-101.031-36.719-129.68z"/><path fill="#E4032E" d="M768.797 336.332c-16.342-54.699-92.656-162.339-229.615-162.339-129.324 0-219.192 97.495-219.192 185.016 0 16.242 1.015 23.511 5.031 38.818-1.681-6.704-2.539-13.376-2.539-19.903 0-91.175 91.267-154.332 185.1-154.332 127.055 0 230.026 102.975 230.026 229.977 0 99.555-57.307 185.789-140.528 227.18v.077c107.321-38.868 183.958-141.674 183.958-262.391.001-28.573-3.83-53.772-12.241-82.103z"/><g fill="#575757"><path d="M1104.51 366.725c0 10.464-2.137 20.335-6.403 29.623-4.273 9.288-10.039 17.454-17.295 24.5-11.103 10.249-23.698 17.084-37.79 20.498v57.965h76.861v30.744H934.456V499.31h73.979v-57.644c-15.163-3.414-28.293-10.355-39.392-20.818-7.262-7.046-13.024-15.212-17.293-24.5-4.273-9.288-6.405-19.159-6.405-29.623 0-10.459 2.132-20.336 6.405-29.624 4.269-9.288 10.032-17.455 17.293-24.5 7.046-6.83 15.422-12.275 25.14-16.333 9.713-4.053 20.016-6.084 30.904-6.084 10.889 0 21.136 2.031 30.744 6.084 9.608 4.059 17.934 9.504 24.98 16.333 7.256 7.044 13.022 15.212 17.295 24.5 4.267 9.288 6.404 19.165 6.404 29.624zm-33.625 0c0-6.19-1.232-12.06-3.684-17.615-2.456-5.549-5.714-10.458-9.768-14.731-4.273-4.053-9.182-7.312-14.731-9.768-5.555-2.452-11.425-3.682-17.614-3.682-6.195 0-12.064 1.23-17.614 3.682-5.555 2.456-10.464 5.715-14.733 9.768-4.057 4.273-7.315 9.182-9.767 14.731-2.458 5.555-3.684 11.425-3.684 17.615 0 6.195 1.226 12.064 3.684 17.613 2.452 5.555 5.71 10.464 9.767 14.733 4.269 4.057 9.178 7.316 14.733 9.767 5.549 2.458 11.419 3.684 17.614 3.684 6.189 0 12.059-1.226 17.614-3.684 5.549-2.451 10.458-5.71 14.731-9.767 4.054-4.269 7.312-9.178 9.768-14.733 2.452-5.548 3.684-11.418 3.684-17.613zm71.095-87.75h34.587v278.942h-34.587V278.975zM1390.245 420.206h33.946v86.471h82.307v30.744h-256.205v-30.744h60.209v-86.471h33.946v86.471h45.797v-86.471zm60.527 37.792V325.091h-180.623v-30.744h215.209v163.651h-34.586zM1568.641 455.437h256.205v30.746h-110.808v71.735h-34.907v-71.735h-110.49v-30.746zm54.764-136.432h146.679v-35.226h34.266v134.187h-215.212V283.779h34.266v35.226zm146.679 30.105h-146.679v38.431h146.679V349.11z"/></g></svg>