<svg xmlns="http://www.w3.org/2000/svg" viewBox="0 0 1173.2460995 111.59198"><path d="M46.836 25.725 33.159 69.459h27.506zm25.637 83.724-6.625-22.326H27.986l-6.697 22.326H0L36.358 2.158h20.967l36.437 107.291zM172.86 94.724c-6.961 12.596-20.674 16.868-34.301 16.868-18.119 0-34.839-7.467-40.134-26.143-1.236-4.092-1.388-8.201-1.699-12.466h19.905c.311 2.917.734 5.588 1.858 8.375 3.462 8.639 11.313 12.296 20.328 12.296 6.867 0 17.143-2.891 17.143-11.414 0-1.832-.582-3.029-1.359-4.695-2.248-4.562-10.615-7.742-15.04-9.542-9.115-3.853-20.638-7.97-28.423-13.839-7.262-5.638-10.927-13.55-10.927-22.691 0-20.624 17.957-31.442 36.759-31.442 13.554 0 27.852 5.812 33.766 18.856 2.284 4.851 2.888 9.434 3.177 14.693h-19.894c.145-9.972-8.067-15.784-17.519-15.784-6.698 0-15.596 3.669-15.596 11.599 0 7.608 9.387 10.319 15.177 12.592 9.148 3.625 21.914 7.753 29.819 13.37 7.886 5.58 11.071 13.677 11.071 23.215-.002 5.649-1.386 11.294-4.11 16.152M191.12 2.155h20.657v107.294H191.12zm78.154 23.57-13.677 43.734h27.495zm25.663 83.724-6.668-22.326h-37.858l-6.687 22.326H222.5L258.821 2.158h20.931l36.495 107.291zm93.501 0-44.96-75.541v75.541h-19.615V2.159h22.081l43.622 75.523V2.159h19.579v107.29zm75.18-83.724-13.677 43.734h27.509zm25.662 83.724-6.687-22.326h-37.85l-6.676 22.326H416.8L453.121 2.158h20.953l36.506 107.291zm116.472-83.804L592.075 69.43h27.502zm25.677 83.754-6.662-22.341h-37.868l-6.69 22.341h-21.282L595.255 2.12h21l36.452 107.279zM663.81 2.119h20.635v107.279H663.81zm85.723 19.601c-4.569-2.161-10.981-1.977-15.979-1.977h-9.867v31.008h13.536c10.941 0 20.519-3.011 20.519-15.965 0-5.938-2.733-10.633-8.209-13.066m10.93 87.679-21.911-41.038h-14.866v41.038h-20.685V2.119h29.071c8.599 0 17.747-.311 25.97 2.75 13.522 4.854 20.783 16.095 20.783 30.271 0 13.616-6.495 23.978-18.987 29.743l24.658 44.515h-24.033zm34.344 0V2.119h21.109v89.667h46.673v17.613zM874.74 2.119h20.707v107.279H874.74zm103.799 107.28-44.97-75.498v75.498h-19.601V2.119h22.026l43.619 75.513V2.119h19.583v107.28zm39.087 0V2.119h67.607v17.624h-46.951v25.221h42.715v17.61h-42.715v29.212h48.618v17.613zm151.52-14.725c-7.023 12.571-20.711 16.868-34.384 16.868-18.04 0-34.767-7.485-40.08-26.158-1.261-4.088-1.409-8.215-1.699-12.455h19.908c.318 2.899.777 5.631 1.854 8.367 3.484 8.646 11.378 12.278 20.324 12.278 6.839 0 17.183-2.862 17.183-11.36 0-1.847-.622-3.043-1.37-4.713-2.299-4.572-10.626-7.782-15.047-9.557-9.072-3.824-20.653-7.933-28.4-13.854-7.315-5.617-10.97-13.5-10.97-22.623 0-20.693 17.939-31.467 36.771-31.467 13.561 0 27.828 5.751 33.784 18.82 2.277 4.854 2.866 9.444 3.203 14.736h-19.948c.184-10.034-8.031-15.81-17.454-15.81-6.698 0-15.69 3.658-15.69 11.57 0 7.615 9.474 10.33 15.203 12.629 9.13 3.643 21.896 7.728 29.79 13.352 7.926 5.613 11.122 13.709 11.122 23.263 0 5.603-1.37 11.252-4.1 16.114" style="fill:#4a4f54"/></svg>