<svg xmlns="http://www.w3.org/2000/svg" xmlns:xlink="http://www.w3.org/1999/xlink" width="214.7906mm" height="54.389mm" viewBox="0 0 214.7906 54.389"><defs><linearGradient id="b"><stop offset="0" style="stop-color:#b21c21;stop-opacity:1"/><stop offset="1" style="stop-color:#ee1a24;stop-opacity:1"/></linearGradient><linearGradient id="a"><stop offset="0" style="stop-color:#aa7175;stop-opacity:1"/><stop offset="1" style="stop-color:#fff;stop-opacity:0"/></linearGradient><linearGradient xlink:href="#a" id="d" x1="78.088417" x2="78.088417" y1="164.47639" y2="140.94357" gradientUnits="userSpaceOnUse"/><linearGradient xlink:href="#b" id="c" x1="85.086021" x2="85.086021" y1="163.20181" y2="140.23976" gradientUnits="userSpaceOnUse"/></defs><g transform="translate(-58.439 -125.518)"><path d="M466.186 478.8v10.985h30.808v66.797h18.563v-66.797h30.177l27.4 67.049h15.28l38.26-77.654h-15.658l-26.137 59.218-23.234-59.597zm51.343 97.186c-10.159.143-19.179 2.439-27.467 7.19-15.506 8.889-26.655 23.688-26.78 45.633 0 21.96 17.057 60.763 81.36 43.533V654.93c-32.617 18.831-57.244 5.087-57.244-26.121 0-15.98 4.324-27.152 12.137-33.38 10.56-8.416 26.97-7.8 42.791 2.19l5.555-17.047c-10.393-2.882-19.75-4.467-28.305-4.586a69.83 69.83 0 0 0-2.047 0zm190.795.19a50.49 50.544 0 0 0-50.488 50.543 50.49 50.544 0 0 0 50.488 50.543 50.49 50.544 0 0 0 50.49-50.543 50.49 50.544 0 0 0-50.49-50.543zm100.112.02c-18.047.002-37.706 5.647-37.706 28.183 0 34.114 45.348 26.173 45.348 46.629 0 18.477-27.84 12.424-44.56 2.771v18.205c14.751 3.953 28.762 6.343 39.994 4.516 13.89-2.26 26.174-11.886 26.174-28.846 0-36.16-45.797-30.047-45.797-47.174 0-7.168 9.97-19.072 34.629-4.836l5.892-16.427c-5.512-1.477-14.521-3.023-23.974-3.022zm209.242 1.234v64.537l-49.51-64.002H948.75v98.38h15v-68.298l53.928 67.764h15V577.43zm-458.213.267v98.037h22.41v-44.732h39.955v44.732h22.41V577.7h-22.41v39.196h-39.955v-39.198zm290.863 0v68.694c.004 12.154 8.425 30.55 37.088 30.55 16.928 0 23.12-2.4 30.256-6.877 10.97-6.883 15.93-19.493 15.93-32.091v-60.276h-18.12v64.115c.005 8.402-6.117 19.016-21.181 19.016-16.049 0-21.555-5.042-21.563-18.99v-64.14zM708.324 589.56c16.079 0 26.688 17.709 26.688 41.267 0 24.121-13.148 33.05-24.414 33.05-18.78 0-28.961-15.92-28.961-41.71 0-22.04 9.18-32.607 26.687-32.607z" style="fill:#57575a;fill-opacity:1;fill-rule:evenodd;stroke:none;stroke-width:.99999994px;stroke-linecap:butt;stroke-linejoin:miter;stroke-opacity:1" transform="scale(.26458)"/><rect width="53.610119" height="54.389" x="58.438698" y="125.51846" rx="5.220798" ry="5.220798" style="opacity:1;fill:url(#c);fill-opacity:1;stroke:none;stroke-width:.11960047;stroke-linecap:round;stroke-linejoin:miter;stroke-miterlimit:4;stroke-dasharray:none;stroke-dashoffset:0;stroke-opacity:1"/><path d="m88.848 133.785-2.315 6.875s-4.389.757-8.023 3.924c-3.94 3.432-6.377 9.336-4.542 12.516 1.858 3.217 5.896 6.905 13.206 4.493 6.96-2.297 10.438-8.815 10.438-8.815h10.867s-2.591 10.301-15.55 16.354c-10.996 5.137-22.67 2.056-27.124-4.439-4.03-5.873-2.394-14.292 3.95-21.178 8.393-9.112 19.093-9.73 19.093-9.73z" style="fill:#fff;fill-opacity:1;fill-rule:evenodd;stroke:none;stroke-width:.26458332px;stroke-linecap:butt;stroke-linejoin:miter;stroke-opacity:1"/><path d="m88.848 133.785-2.315 6.875s-4.389.757-8.023 3.924c-3.94 3.432-6.377 9.336-4.542 12.516 1.858 3.217 5.896 6.905 13.206 4.493 1.093-.36 2.1-.826 3.021-1.353-5.58 4.334-14.766 4.984-19.95 1.666-3.556-2.277-6.826-8.105-4.571-12.576 1.006-1.997 2.373-3.961 4.08-5.815 8.394-9.112 19.094-9.73 19.094-9.73z" style="fill:url(#d);fill-opacity:1;fill-rule:evenodd;stroke:none;stroke-width:.26458332px;stroke-linecap:butt;stroke-linejoin:miter;stroke-opacity:1"/></g></svg>