<svg xmlns="http://www.w3.org/2000/svg" xml:space="preserve" id="레이어_1" x="0px" y="0px" style="enable-background:new 0 0 369.7 85.2" version="1.1" viewBox="0 0 369.7 85.2"><style>.st0{fill:#818383}.st1{fill:none}.st2{fill:#fff}.st3{fill:#f6e700}.st4{fill:#e60b22}</style><path d="M79.8 33.1c0-.1-.1-.2-.1-.4l-1.9-5.2c-.5-1.3-1.4-2.3-2.7-2.9-.8-.4-1.8-.5-2.7-.4l-1.2-1.8c.3-.6.5-1.4.6-2.1.1-1.4-.4-2.7-1.3-3.7l-3.7-4.1c-1.4-1.5-3.5-2-5.3-1.5l-1.1-1.2c.2-.7.4-1.5.4-2.3 0-4.1-3.4-7.5-7.5-7.5s-7.5 3.4-7.5 7.5c0 2.4 1.2 4.6 3 6H43c-1.7 0-3.2 1.4-3.2 3.2 0 1.7 1.4 3.2 3.2 3.2h6.5l-1.2 20-4.2-4.1c-2.3-2.6-6.1-2.6-6.3-2.6H0l.2 1c0 .1 1.3 5.8 6.5 7 0 1 .2 3 1.5 4.6 1.1 1.4 2.7 2.2 4.8 2.5.4 2.8 2.4 7.2 7.3 7.2h10.5l-1.5 9.6 2.8-1c1 2.3 4.9 9.9 11.9 13.6 5 2.6 6.9 3.9 8 5.7l1.3 1.8 1.3-1.8c1.1-1.8 3-3.1 8-5.7 7-3.7 10.9-11.3 11.9-13.7l2.8 1-1.5-9.6h10.5c4.9 0 6.8-4.3 7.3-7.2 2.1-.3 3.7-1.1 4.8-2.5 1.3-1.6 1.5-3.5 1.5-4.6 5.2-1.2 6.5-7 6.5-7l.2-1H79.8zm-6.3-2.7c.1-.1.2-.1.2-.2l1.1 2.9h-1.2l-.9-2.4c.3-.1.5-.2.8-.3zm.4 24.9-6.6 6.1 2.1.8c-4 4.8-7.7 6.8-9.4 7.6l-.9-14.5h14.8zm-7.6-30h.3c.4 0 .7 0 1-.1l.9 1.4c-.9 1.3-1.1 3-.5 4.6l.7 1.8c-.7 0-4 .2-6.2 2.6l-4.2 4.1-1.2-20h2.3l3.4 3.8c.8 1.1 2.1 1.7 3.5 1.8zm-1.2-6c.3-.2.6-.5.8-.8l1 1.1c-.1 0-.1 0-.2.1-.3.2-.5.4-.7.7l-.9-1.1zM63 12.2c1 0 2 .4 2.8 1.2l3.7 4.1c.7.7 1 1.7.9 2.7 0 .3-.1.5-.1.7l-.3-.4c-.4-.6-.9-.9-1.6-1-.1-.2-.2-.5-.4-.7l-1.5-1.6v-.5c0-1.7-1.3-3.1-3-3.2 0-.1-.1-.1-.1-.2l-.9-1.1h.5zm-3.2-1 .4.4.5.5.5.5.7.8.2.2h-2.4l-.2-.2-.1-.1-.5-.5-.1-.2-.1-.1-1-1.1-.1-.1-.8-.8-.3-.4-.6-.6c-.1-.1-.1-.2-.2-.3-.1-.3 0-.7.3-.9l.1-.1c.1-.2.3-.2.4-.2.2 0 .5.1.6.3l.1.1.4.4.9 1 .2.2 1 1.2h.1zM47.4 7.5c0-3.2 2.6-5.9 5.9-5.9 3.2 0 5.9 2.6 5.9 5.9 0 .3 0 .5-.1.8l-.2-.2-.7-.7c-.1-.2-.3-.3-.5-.4-.1-.1-.3-.2-.4-.2-.4-1.9-2-3.3-4-3.3-2.2 0-4.1 1.8-4.1 4.1 0 2.2 1.8 4.1 4.1 4.1.8 0 1.5-.2 2.1-.6l1.2 1.4c-.9.6-2.1 1-3.3 1-3.3-.1-5.9-2.7-5.9-6zm6.9 2.2c-.3.2-.7.3-1.1.3-1.3 0-2.4-1.1-2.4-2.4s1.1-2.4 2.4-2.4c1.1 0 2 .7 2.3 1.7-.2.1-.4.2-.6.4-.7.5-.9 1.5-.6 2.4zm-6.9 45.6-.9 14.5c-1.7-.7-5.5-2.7-9.4-7.6l2.1-.8-6.6-6.1h14.8zm26.1 6.6-.3.7c0 .1-3.8 9.6-11.5 13.6-4.8 2.5-7.1 4-8.5 6.1-1.4-2.1-3.7-3.5-8.5-6.1-7.6-4-11.4-13.5-11.5-13.6l-.2-.7-1.7.6.8-5.3 3.9 3.7-1.7.6.7.9c6 7.8 11.8 9.4 12 9.4l1 .3 1-16.7.1-1.7.6-10.1.1-.9.1-.9v-.5l1.4-23.2H43c-.8 0-1.5-.7-1.5-1.5s.7-1.5 1.5-1.5h20.4c.1 0 .3 0 .4.1.5.2 1 .6 1.1 1.2v.3c0 .2-.1.4-.2.6-.2.4-.5.6-.8.8-.2.1-.3.1-.5.1H55.1l1.4 23.2v.5l.1.9.1.9.6 10.1.1 1.7 1 16.7 1-.3c.2-.1 6-1.6 12-9.4l.7-.9-1.7-.6 3.9-3.7.8 5.3-1.6-.7z" class="st0"/><path d="M66.9 19.8c.1 0 .1-.1.2-.1l-1-1.1c-.2.3-.5.6-.8.8l1 1.1c0-.3.3-.5.6-.7zM63.7 13.5c1.7.1 3 1.5 3 3.2v.5l1.5 1.6c.2.2.3.4.4.7.6.1 1.2.4 1.6 1l.3.5c.1-.2.1-.5.1-.7.1-1-.3-2-.9-2.7L66 13.5c-1-.9-2-1.3-3-1.3h-.4l.9 1.1c.1 0 .1.1.2.2zM74.8 33.1l-1.1-2.9-.2.2c-.3.2-.5.3-.8.3l.9 2.4h1.2zM58.5 9.7l-.9-1-.4-.4-.1-.1c-.1-.1-.3-.2-.6-.2-.2 0-.4 0-.5.1l-.1.1c-.3.3-.4.6-.3.9 0 .1.1.2.2.3l.6.6.3.4.8.8.1.1 1 1.1.1.1.1.2.5.5.1.1.2.2H62l-.2-.2-.7-.8-.5-.5-.5-.5-.4-.4-.1-.2-1-1.2h-.1zM59.3 19.8H57l1.2 20 4.2-4.1c2.1-2.4 5.5-2.6 6.2-2.6l-.7-1.8c-.6-1.6-.3-3.3.5-4.6l-.9-1.4c-.3.1-.7.1-1 .1h-.3c-1.4-.1-2.6-.7-3.5-1.7l-3.4-3.9z" class="st1"/><path d="M53.2 13.4c1.2 0 2.3-.4 3.3-1L55.3 11c-.6.4-1.3.6-2.1.6-2.2 0-4.1-1.8-4.1-4.1 0-2.2 1.8-4.1 4.1-4.1 2 0 3.6 1.4 4 3.3.1.1.3.1.4.2.2.1.3.2.5.4l.7.7.2.2c0-.3.1-.5.1-.8 0-3.2-2.6-5.9-5.9-5.9-3.2 0-5.9 2.6-5.9 5.9.1 3.4 2.7 6 5.9 6zM70.5 60.8l1.7.6-.7.9c-6 7.8-11.8 9.4-12 9.4l-1 .3-1-16.7-.1-1.7-.6-10.1-.1-.9-.1-.9v-.5L55.2 18h8.3c.2 0 .3 0 .5-.1.4-.1.7-.4.8-.8.1-.2.2-.4.2-.6v-.3c-.1-.6-.5-1-1.1-1.2-.1 0-.3-.1-.4-.1H43c-.8 0-1.5.7-1.5 1.5s.7 1.5 1.5 1.5h8.3l-1.4 23.2v.5l-.1.9-.1.9-.6 10.1-.1 1.7-1 16.7-1-.3c-.2-.1-6-1.6-12-9.4l-.7-.9 1.7-.6-3.9-3.7-.8 5.3 1.7-.6.3.7c0 .1 3.8 9.6 11.5 13.6 4.8 2.5 7.1 4 8.5 6.1 1.4-2.1 3.7-3.5 8.5-6.1 7.6-4 11.4-13.5 11.5-13.6l.3-.7 1.7.6-.8-5.3-4 3.8z" class="st1"/><path d="M55.6 6.8c-.3-1-1.2-1.7-2.3-1.7-1.3 0-2.4 1.1-2.4 2.4s1.1 2.4 2.4 2.4c.4 0 .8-.1 1.1-.3-.3-.8-.1-1.8.6-2.5.1-.1.3-.2.6-.3zM59.3 19.8H57l1.2 20 4.2-4.1c2.1-2.4 5.5-2.6 6.2-2.6l-.7-1.8c-.6-1.6-.3-3.3.5-4.6l-.9-1.4c-.3.1-.7.1-1 .1h-.3c-1.4-.1-2.6-.7-3.5-1.7l-3.4-3.9zM63.7 13.5c1.7.1 3 1.5 3 3.2v.5l1.5 1.6c.2.2.3.4.4.7.6.1 1.2.4 1.6 1l.3.5c.1-.2.1-.5.1-.7.1-1-.3-2-.9-2.7L66 13.5c-1-.9-2-1.3-3-1.3h-.4l.9 1.1c.1 0 .1.1.2.2zM66.9 19.8c.1 0 .1-.1.2-.1l-1-1.1c-.2.3-.5.6-.8.8l1 1.1c0-.3.3-.5.6-.7z" class="st1"/><path d="m70.5 60.8 1.7.6-.7.9c-6 7.8-11.8 9.4-12 9.4l-1 .3-1-16.7-.1-1.7-.6-10.1-.1-.9-.1-.9v-.5L55.2 18h8.3c.2 0 .3 0 .5-.1.4-.1.7-.4.8-.8.1-.2.2-.4.2-.6v-.3c-.1-.6-.5-1-1.1-1.2-.1 0-.3-.1-.4-.1H43c-.8 0-1.5.7-1.5 1.5s.7 1.5 1.5 1.5h8.3l-1.4 23.2v.5l-.1.9-.1.9-.6 10.1-.1 1.7-1 16.7-1-.3c-.2-.1-6-1.6-12-9.4l-.7-.9 1.7-.6-3.9-3.7-.8 5.3 1.7-.6.3.7c0 .1 3.8 9.6 11.5 13.6 4.8 2.5 7.1 4 8.5 6.1 1.4-2.1 3.7-3.5 8.5-6.1 7.6-4 11.4-13.5 11.5-13.6l.3-.7 1.7.6-.8-5.3-4 3.8z" class="st1"/><path d="m70.5 60.8 1.7.6-.7.9c-6 7.8-11.8 9.4-12 9.4l-1 .3-1-16.7-.1-1.7-.6-10.1-.1-.9-.1-.9v-.5L55.2 18h8.3c.2 0 .3 0 .5-.1.4-.1.7-.4.8-.8.1-.2.2-.4.2-.6v-.3c-.1-.6-.5-1-1.1-1.2-.1 0-.3-.1-.4-.1H43c-.8 0-1.5.7-1.5 1.5s.7 1.5 1.5 1.5h8.3l-1.4 23.2v.5l-.1.9-.1.9-.6 10.1-.1 1.7-1 16.7-1-.3c-.2-.1-6-1.6-12-9.4l-.7-.9 1.7-.6-3.9-3.7-.8 5.3 1.7-.6.3.7c0 .1 3.8 9.6 11.5 13.6 4.8 2.5 7.1 4 8.5 6.1 1.4-2.1 3.7-3.5 8.5-6.1 7.6-4 11.4-13.5 11.5-13.6l.3-.7 1.7.6-.8-5.3-4 3.8z" class="st1"/><path d="M59.3 19.8H57l1.2 20 4.2-4.1c2.1-2.4 5.5-2.6 6.2-2.6l-.7-1.8c-.6-1.6-.3-3.3.5-4.6l-.9-1.4c-.3.1-.7.1-1 .1h-.3c-1.4-.1-2.6-.7-3.5-1.7l-3.4-3.9zM63.7 13.5c1.7.1 3 1.5 3 3.2v.5l1.5 1.6c.2.2.3.4.4.7.6.1 1.2.4 1.6 1l.3.5c.1-.2.1-.5.1-.7.1-1-.3-2-.9-2.7L66 13.5c-1-.9-2-1.3-3-1.3h-.4l.9 1.1c.1 0 .1.1.2.2z" class="st1"/><path d="M63.5 19.8h-2.3l2.6 2.9c.7.7 1.6 1.2 2.6 1.2h.4l-.6-1c-.2-.3-.3-.7-.3-1-.2-.1-.4-.2-.7-.5l-1.5-1.6h-.2zM74.6 28.6s0 .1.1.1l1.6 4.4h2l-1.9-5c-.3-.9-1-1.7-2-2.1-.4-.2-.8-.3-1.2-.3l1 1.6c.3.4.4.8.4 1.3zM70.4 29.7 69.3 28c-.4.9-.4 1.9-.1 2.8l.9 2.3h2l-1-2.7c-.3-.2-.6-.4-.7-.7zM70 23l-.4-.6-.7-1.2c-.1-.2-.3-.3-.5-.4h-.2c-.2 0-.3 0-.5.1-.3.2-.5.6-.4.9 0 .1.1.2.1.3l.9 1.4.4.6.4.6.5.8.4.6.4.6 1.1 1.7.3.5c.1.2.3.3.6.4h.2c.2 0 .3 0 .5-.1l.3-.3c.2-.3.2-.7 0-1l-.3-.5-1.1-1.7-.4-.6-.6-.5-.6-1-.4-.6zM58.4 42.6l.2 4h34.2c1.9-.2 3.4-.8 4.3-1.9.9-1.1 1.1-2.5 1.1-3.3H62.5c0-.1-2.3-.1-4.1 1.2zM59 53.7h27.3c4 0 5.2-3.7 5.6-5.4H58.7l.3 5.4zM79.3 34.7H68.8s-3.3 0-5 2.1l-3.1 3.1c1.1-.3 2-.3 2-.3H98.6c3.8-.3 5.4-3.3 6-4.9H79.3z" class="st2"/><path d="M66.9 19.8c.1 0 .1-.1.2-.1l-1-1.1c-.2.3-.5.6-.8.8l1 1.1c0-.3.3-.5.6-.7zM58.5 9.7l-.9-1-.4-.4-.1-.1c-.1-.1-.3-.2-.6-.2-.2 0-.4 0-.5.1l-.1.1c-.3.3-.4.6-.3.9 0 .1.1.2.2.3l.6.6.3.4.8.8.1.1 1 1.1.1.1.1.2.5.5.1.1.2.2H62l-.2-.2-.7-.8-.5-.5-.5-.5-.4-.4-.1-.2-1-1.2h-.1zM63.7 13.5c1.7.1 3 1.5 3 3.2v.5l1.5 1.6c.2.2.3.4.4.7.6.1 1.2.4 1.6 1l.3.5c.1-.2.1-.5.1-.7.1-1-.3-2-.9-2.7L66 13.5c-1-.9-2-1.3-3-1.3h-.4l.9 1.1c.1 0 .1.1.2.2zM59.3 19.8H57l1.2 20 4.2-4.1c2.1-2.4 5.5-2.6 6.2-2.6l-.7-1.8c-.6-1.6-.3-3.3.5-4.6l-.9-1.4c-.3.1-.7.1-1 .1h-.3c-1.4-.1-2.6-.7-3.5-1.7l-3.4-3.9zM74.8 33.1l-1.1-2.9-.2.2c-.3.2-.5.3-.8.3l.9 2.4h1.2z" class="st1"/><path d="M53.2 13.4c1.2 0 2.3-.4 3.3-1L55.3 11c-.6.4-1.3.6-2.1.6-2.2 0-4.1-1.8-4.1-4.1 0-2.2 1.8-4.1 4.1-4.1 2 0 3.6 1.4 4 3.3.1.1.3.1.4.2.2.1.3.2.5.4l.7.7.2.2c0-.3.1-.5.1-.8 0-3.2-2.6-5.9-5.9-5.9-3.2 0-5.9 2.6-5.9 5.9.1 3.4 2.7 6 5.9 6zM70.5 60.8l1.7.6-.7.9c-6 7.8-11.8 9.4-12 9.4l-1 .3-1-16.7-.1-1.7-.6-10.1-.1-.9-.1-.9v-.5L55.2 18h8.3c.2 0 .3 0 .5-.1.4-.1.7-.4.8-.8.1-.2.2-.4.2-.6v-.3c-.1-.6-.5-1-1.1-1.2-.1 0-.3-.1-.4-.1H43c-.8 0-1.5.7-1.5 1.5s.7 1.5 1.5 1.5h8.3l-1.4 23.2v.5l-.1.9-.1.9-.6 10.1-.1 1.7-1 16.7-1-.3c-.2-.1-6-1.6-12-9.4l-.7-.9 1.7-.6-3.9-3.7-.8 5.3 1.7-.6.3.7c0 .1 3.8 9.6 11.5 13.6 4.8 2.5 7.1 4 8.5 6.1 1.4-2.1 3.7-3.5 8.5-6.1 7.6-4 11.4-13.5 11.5-13.6l.3-.7 1.7.6-.8-5.3-4 3.8z" class="st1"/><path d="M55.6 6.8c-.3-1-1.2-1.7-2.3-1.7-1.3 0-2.4 1.1-2.4 2.4s1.1 2.4 2.4 2.4c.4 0 .8-.1 1.1-.3-.3-.8-.1-1.8.6-2.5.1-.1.3-.2.6-.3z" class="st1"/><path d="M47.8 48.3H14.7c.4 1.7 1.6 5.4 5.6 5.4h27.3l.2-5.4zM48.1 42.6c-1.8-1.2-4.1-1.3-4.1-1.3H8.4c0 .8.2 2.2 1.1 3.3.9 1.1 2.3 1.8 4.3 1.9H48l.1-3.9zM46 39.9l-3.2-3.1c-1.8-2-5-2.1-5-2.1H2.1c.6 1.6 2.2 4.7 6 4.9H44c.1.1.9.1 2 .3zM53.2 11.6c-2.2 0-4.1-1.8-4.1-4.1 0-2.2 1.8-4.1 4.1-4.1 2 0 3.6 1.4 4 3.3.1.1.3.1.4.2.2.1.3.2.5.4l.7.7.2.2c0-.3.1-.5.1-.8 0-3.2-2.6-5.9-5.9-5.9-3.2 0-5.9 2.6-5.9 5.9 0 3.2 2.6 5.9 5.9 5.9 1.2 0 2.3-.4 3.3-1L55.3 11c-.6.4-1.3.6-2.1.6z" class="st2"/><path d="M54.9 7.2c.2-.2.4-.3.6-.4-.3-1-1.2-1.7-2.3-1.7-1.3 0-2.4 1.1-2.4 2.4s1.1 2.4 2.4 2.4c.4 0 .8-.1 1.1-.3-.3-.8-.1-1.8.6-2.4z" class="st1"/><path d="M63.7 13.5c1.7.1 3 1.5 3 3.2v.5l1.5 1.6c.2.2.3.4.4.7.6.1 1.2.4 1.6 1l.3.5c.1-.2.1-.5.1-.7.1-1-.3-2-.9-2.7L66 13.5c-1-.9-2-1.3-3-1.3h-.4l.9 1.1c.1 0 .1.1.2.2zM70.5 60.8l1.7.6-.7.9c-6 7.8-11.8 9.4-12 9.4l-1 .3-1-16.7-.1-1.7-.6-10.1-.1-.9-.1-.9v-.5L55.2 18h8.3c.2 0 .3 0 .5-.1.4-.1.7-.4.8-.8.1-.2.2-.4.2-.6v-.3c-.1-.6-.5-1-1.1-1.2-.1 0-.3-.1-.4-.1H43c-.8 0-1.5.7-1.5 1.5s.7 1.5 1.5 1.5h8.3l-1.4 23.2v.5l-.1.9-.1.9-.6 10.1-.1 1.7-1 16.7-1-.3c-.2-.1-6-1.6-12-9.4l-.7-.9 1.7-.6-3.9-3.7-.8 5.3 1.7-.6.3.7c0 .1 3.8 9.6 11.5 13.6 4.8 2.5 7.1 4 8.5 6.1 1.4-2.1 3.7-3.5 8.5-6.1 7.6-4 11.4-13.5 11.5-13.6l.3-.7 1.7.6-.8-5.3-4 3.8zM61.8 13.5l-.7-.8-.5-.5-.5-.5-.4-.4-.1-.2-1-1.2-.2-.2-.9-1-.4-.4-.1-.1c0-.1-.2-.2-.5-.2-.2 0-.4 0-.5.1l-.1.1c-.3.3-.4.6-.3.9 0 .1.1.2.2.3l.6.6.3.4.8.8.1.1 1 1.1.1.1.1.2.5.5.1.1.2.2H62h-.2z" class="st2"/><path d="M53.1 53.1v-9.4L41.2 60.3zM53.1 42.7V22.2L47.6 35zM48.4 44.6l4.3-1.4-19.2-6.4 10.4 9.3zM53.7 43.5l10.8 15.2 1 1.4-3-13.7zM53.7 42.9l19.2-6.4-13.8-1.3-3.1 4.4z" class="st3"/><path d="m53.8 43.2 8.8 2.9L73 36.8l-7.4 2.5zM44 46.4l-3 13.7 11.8-16.6zM47.4 35.3v-.1l-13.8 1.3 19.2 6.4zM53.4 53.1l11.9 7.2-11.9-16.6zM53.4 22.2v20.5l5.5-7.7z" class="st4"/><path d="m62.8 46.3 11.2-10-14.9-1.4-5.8-13.6V21l-.1.4L47.4 35l-14.5 1.4h-.4l.3.2 11 9.8-3.3 14.8 12.8-7.8L65.8 61l.3.2-.1-.5-3.2-14.4zM47.4 35.2l5.5 7.6-19.2-6.3 13.7-1.3zm-13.9 1.6 19.2 6.3-4.4 1.4-4.5 1.5-10.3-9.2zM44 46.4l8.8-2.9L41 60.1l3-13.7zm9.1 5.2v1.5l-11.9 7.2 11.9-16.6v7.9zm0-8.9L47.6 35l5.5-12.9v20.6zm9.5 3.4-8.8-2.9 11.8-3.9 7.4-2.4-10.4 9.2zm10.3-9.6-19.2 6.3 2.3-3.2 3.1-4.4 13.8 1.3zM53.4 22.2 58.9 35l-5.5 7.6V22.2zm0 30.9v-9.4l11.9 16.6-11.9-7.2zm11.1 5.6L53.7 43.5l8.8 2.9 3.1 13.7-1.1-1.4z" class="st0"/><path d="M120.1 34.1h14.6v3.7h-10.2v19.9h10.7v3.7h-15V34.1zm26.3-2.1h4.1v34.2h-4.1V49.7h-4.6V66h-4V32h4v14h4.6V32zM155 38.2v-3.6h8.2v-3.3h4.6v3.3h8.2v3.6h-21zm1.6 27.3V55.1h4.3v6.7h23.6v3.7h-27.9zm16.9-19.1c0 1-.2 2-.6 2.8-.4.9-1 1.7-1.7 2.3-.7.7-1.6 1.2-2.6 1.6-1 .4-2 .6-3.1.6s-2.2-.2-3.1-.6c-1-.4-1.8-.9-2.6-1.6-.7-.7-1.3-1.5-1.7-2.3-.4-.9-.6-1.8-.6-2.8s.2-2 .6-2.9c.4-.9 1-1.7 1.7-2.4s1.6-1.2 2.6-1.6c1-.4 2-.6 3.1-.6s2.2.2 3.1.6c1 .4 1.8.9 2.6 1.6.7.7 1.3 1.5 1.7 2.4.4 1 .6 1.9.6 2.9zm-4.1 0c0-1-.4-1.9-1.1-2.7-.7-.7-1.6-1.1-2.7-1.1s-2 .4-2.7 1.1c-.8.7-1.1 1.6-1.1 2.7 0 1 .4 1.9 1.1 2.7.8.7 1.7 1.1 2.7 1.1 1.1 0 2-.4 2.7-1.1.7-.8 1.1-1.7 1.1-2.7zm14.4-5.1h5V45h-5v8.9h-4.3V32h4.3v9.3zM191.3 50.6V33h17.8v17.6h-17.8zm1 14.9V54.1h4.3v7.6h24.1v3.8h-28.4zm12.6-28.8h-9.4v10.2h9.4V36.7zm11.2 17.2V32h4.3v21.9h-4.3zM238 54.3v-5h-13.7v-3.7h31.9v3.7h-13.8v5h11.2v11.9h-4.3V58h-22.9v-3.7H238zm15.5-21.6v10.2h-4.3v-6.4h-22.5v-3.7h26.8zM282.2 54.3v-5h-13.7v-3.7h31.9v3.7h-13.8v5h11.2v11.9h-4.3V58h-22.9v-3.7h11.6zm15.5-21.6v10.2h-4.3v-6.4H271v-3.7h26.7zM321.8 49.3h-18V32.8h4.3v4.5h9.6v-4.5h4.2v16.5zm-4.2-8.5H308v5h9.6v-5zm12.3 18.1c0 1.2-.2 2.2-.7 3.2-.5 1-1.1 1.9-1.9 2.6-.8.8-1.8 1.4-2.9 1.8-1.1.4-2.3.7-3.5.7-1.2 0-2.4-.2-3.5-.7-1.1-.4-2.1-1-2.9-1.8-.8-.8-1.4-1.6-1.9-2.6s-.7-2.1-.7-3.2.2-2.2.7-3.3c.5-1 1.1-1.9 1.9-2.7.8-.8 1.8-1.4 2.9-1.8 1.1-.4 2.3-.7 3.5-.7 1.2 0 2.4.2 3.5.7 1.1.4 2.1 1 2.9 1.8.8.8 1.4 1.6 1.9 2.7s.7 2.2.7 3.3zm-4.2 0c0-1.3-.5-2.4-1.4-3.3-1-.9-2.1-1.4-3.4-1.4-1.3 0-2.4.5-3.4 1.4-.9.9-1.4 2-1.4 3.3 0 1.3.5 2.4 1.4 3.3.9.9 2.1 1.4 3.4 1.4 1.3 0 2.4-.5 3.4-1.4.9-1 1.4-2.1 1.4-3.3zm6-8.8h-4.3V32h4.3v6.7h5v4.2h-5v7.2zM337.9 53.6h31.9v3.8H356v8.8h-4.3v-8.8H338v-3.8zm6.8-16.7h18.2v-4.3h4.3V49h-26.8V32.6h4.3v4.3zm18.2 3.7h-18.2v4.7h18.2v-4.7z"/></svg>