<svg xmlns="http://www.w3.org/2000/svg" xml:space="preserve" width="1186.3473" height="200" viewBox="0 0 1186.3473 199.99999"><path d="m387.177 431.62.002 23.508h-26.188l-.06-31.02c0-3.735 2.98-6.752 6.627-6.752l120.479-.044c3.653 0 6.627 3.028 6.627 6.751l-.013 7.542-107.476.013zM439.255 476.455l28.182-.006v-29.654l26.2-.006.029 95.827c0 3.726-2.969 6.751-6.616 6.751l-19.593.029v-28.402H440.17c-3.343 3.245-7.392 6.094-12.018 8.384h15.673c3.648 0 6.608 3.022 6.608 6.749l.006 7.65-37.859-.044-.039 4.16c0 3.737-2.965 6.752-6.626 6.752l-19.543.044v-10.95l-37.916.006V529.4h22.514c-13.342-6.583-22.104-17.664-22.104-30.214 0-20.225 22.683-36.612 50.68-36.617 16.108 0 30.423 5.434 39.708 13.891m28.19 14.316h-18.598c.883 2.699 1.396 5.49 1.396 8.389 0 2.569-.382 5.086-1.083 7.506h18.299l-.013-15.895m-93.093 7.954c.006 13.098 11.279 23.723 25.16 23.704 13.875 0 25.132-10.611 25.116-23.71 0-13.1-11.241-23.703-25.127-23.703-13.892 0-25.149 10.616-25.149 23.709zM543.003 446.005l.022 84.599 36.289-.023c3.652 0 6.591 3.365 6.591 7.518v8.462l-68.955.006-.055-108.945c0-4.139 2.96-7.496 6.583-7.496l60.201-.022c3.642 0 6.583 3.368 6.583 7.504l-.015 8.38-47.245.017zM656.084 549.318l-19.516-.013-.013-42.872h-13.913l.028 35.327c0 4.153-2.955 7.573-6.592 7.573l-19.53-.016-.027-131.861 26.096-.013.029 72.987 13.91.045.033-73.031h26.08l.013 124.314c0 4.147-2.941 7.558-6.594 7.558zM734.631 549.677c-32.112.006-51.443-27.425-51.465-61.24 0-33.825 19.326-61.25 51.446-61.263 32.096 0 51.435 27.405 51.446 61.231 0 33.834-19.318 61.266-51.427 61.272m-.016-105.787c-13.674.013-24.22 18.848-24.2 45.54 0 26.657 10.545 44.405 24.22 44.405 13.652 0 24.194-17.761 24.186-44.414 0-26.691-10.556-45.53-24.206-45.53zM829.557 542.656c0 3.726-2.971 6.75-6.618 6.75l-19.59-.016-.021-132.125 26.199-.006.016 75.146 16.528-.012v16.395h-16.528l.013 33.864zM891.188 431.62v23.508h-26.186l-.058-31.02c0-3.735 2.98-6.752 6.63-6.752l120.473-.044c3.662 0 6.627 3.028 6.627 6.751v7.542l-107.486.013zM997.67 508.793v33.855c0 3.726-2.96 6.752-6.6 6.752l-19.598-.016-.022-102.59 26.197-.006.022 45.623 16.518-.013v16.396h-16.518zM904.609 502.94c3.617-6.167 9.603-12.64 17.924-19.443 8.284-6.624 17.175-12.253 26.713-16.849l10.662 12.999c-12.09 6.088-21.536 13.842-28.282 23.263-7.094 10.027-11.2 22.251-12.819 36.686-.38 3.337-.75 9.355-.929 9.804h-26.527c-.18-.449-.555-6.467-.919-9.804-1.613-14.435-5.746-26.66-12.819-36.686-6.75-9.421-16.191-17.175-28.298-23.263L860 466.648a140.42 140.42 0 0 1 26.71 16.85c8.317 6.803 14.291 13.275 17.898 19.442z" style="fill:#1c4e9d;fill-opacity:1;fill-rule:nonzero;stroke:none;stroke-width:5.562" transform="matrix(1.33333 0 0 -1.33333 -165.902 756.103)"/><path d="m212.473 567.077 87.463-150h-175.51Z" style="fill:#fab80a;fill-opacity:1;fill-rule:nonzero;stroke:none;stroke-width:5.562" transform="matrix(1.33333 0 0 -1.33333 -165.902 756.103)"/><path d="m233.157 567.077 87.452-150H145.108Z" style="fill:#009166;fill-opacity:1;fill-rule:nonzero;stroke:none;stroke-width:5.562" transform="matrix(1.33333 0 0 -1.33333 -165.902 756.103)"/></svg>