<svg xmlns="http://www.w3.org/2000/svg" xml:space="preserve" width="94.919998" height="82.506668" viewBox="0 0 94.919998 82.506668"><path d="M362.426 30.09 26.176 603.84h660Z" style="fill:#fff;fill-opacity:1;fill-rule:nonzero;stroke:none" transform="matrix(.13333 0 0 -.13333 0 82.507)"/><path d="M52.352 588.84 362.184 60.176 660.492 588.84H52.352ZM362.672 0 0 618.84h711.859L362.672 0" style="fill:#ec1d27;fill-opacity:1;fill-rule:nonzero;stroke:none" transform="matrix(.13333 0 0 -.13333 0 82.507)"/><path d="m359.508 202.512 33.34-60.625h-69.743z" style="fill:#ec1d27;fill-opacity:1;fill-rule:nonzero;stroke:none" transform="matrix(.13333 0 0 -.13333 0 82.507)"/><path d="M325.906 143.469h64.266l-30.723 55.855-33.543-55.855zm69.617-3.164h-75.218l39.261 65.386 35.957-65.386" style="fill:#ec1d27;fill-opacity:1;fill-rule:nonzero;stroke:none" transform="matrix(.13333 0 0 -.13333 0 82.507)"/><path d="M194.52 556.945c5.378-1.75 8.464-2.625 9.257-2.625 2.063 0 3.524.45 4.387 1.348.867.906 1.602 2.199 2.211 3.898h3.16l1.117-34.234h-3.297c-2.941 7.887-5.984 13.766-9.121 17.633-5.656 6.777-13.019 10.164-22.097 10.164-9.215 0-17.317-3.957-24.309-11.875-6.988-7.914-10.484-20.957-10.484-39.113 0-14.989 3.48-26.692 10.453-35.11 6.969-8.418 15.57-12.629 25.812-12.629 1.731 0 3.766.188 6.106.555 2.34.371 4.558.949 6.664 1.742 3.414 1.27 5.543 2.364 6.387 3.289.839.926 1.261 2.285 1.261 4.082v25.914c0 6.286-.781 10.196-2.347 11.739-1.571 1.543-4.996 2.507-10.282 2.879v3.015h36.622v-3.015c-3.555-.266-5.918-.93-7.082-1.989-1.965-1.695-2.954-5.187-2.954-10.484v-32.008c0-1.906-4.125-4.445-12.375-7.625-8.257-3.176-16.199-4.766-23.82-4.766-14.031 0-25.863 4.633-35.496 13.903-10.621 10.219-15.93 23.93-15.93 41.14 0 15.141 4.235 28.118 12.7 38.922 9.308 11.914 21.652 17.871 37.042 17.871 5.567 0 11.036-.875 16.415-2.621M271.41 557.656v-3.015c-5.515-.426-9.097-1.473-10.73-3.141-1.641-1.664-2.457-5.492-2.457-11.477v-52.027c0-8.523 1.023-15.168 3.086-19.933 3.832-8.684 11.109-13.024 21.816-13.024 11.742 0 19.617 4.449 23.645 13.344 2.246 4.976 3.367 12.652 3.367 23.035v42.332c0 8.844-.938 14.391-2.809 16.641-1.867 2.25-5.426 3.668-10.664 4.25v3.015h33.258v-3.015c-5.567-.692-9.203-2.215-10.906-4.567-1.711-2.359-2.567-7.797-2.567-16.324v-42.332c0-11.227-1.515-19.992-4.558-26.289-5.614-11.598-16.278-17.399-31.989-17.399-15.531 0-26.097 5.715-31.714 17.157-3.043 6.144-4.559 14.246-4.559 24.304v50.832c0 5.93-.809 9.735-2.418 11.399-1.617 1.668-5.137 2.738-10.563 3.219v3.015h40.762M334.059 453.051c5.289.633 8.711 1.699 10.281 3.199 1.562 1.504 2.344 5.309 2.344 11.418v72.355c0 5.774-.77 9.543-2.313 11.321-1.543 1.773-4.98 2.871-10.312 3.297v3.015h76.328l.496-23.269h-3.653c-1.218 7.168-3.035 11.804-5.468 13.914-2.43 2.105-7.86 3.16-16.278 3.16h-19.562c-2.109 0-3.406-.383-3.906-1.152-.489-.766-.731-2.207-.731-4.329v-36.296h22.168c6.121 0 10.027 1.023 11.707 3.082 1.692 2.054 3.047 6.214 4.074 12.484h3.368v-37.57h-3.368c-1.074 6.304-2.453 10.472-4.14 12.511-1.68 2.039-5.567 3.063-11.641 3.063h-22.168V462.98c0-3.23.899-5.136 2.703-5.718 1.797-.582 7.2-.875 16.192-.875 9.746 0 16.933 1.207 21.574 3.613 4.629 2.41 8.797 8.246 12.488 17.516h4.004l-6.523-27.481h-77.664v3.016M429.469 482.758c2.429-7.309 5.281-13.133 8.543-17.477 5.703-7.57 12.773-11.355 21.23-11.355 4.571 0 8.535 1.64 11.875 4.926 3.34 3.281 5.012 7.863 5.012 13.742 0 5.293-1.691 9.894-5.051 13.816-2.187 2.492-6.816 6.223-13.855 11.203l-12.258 8.657c-3.692 2.648-6.629 5.324-8.828 8.023-4.071 5.133-6.102 10.801-6.102 16.996 0 8.203 2.403 15.035 7.227 20.488 4.812 5.453 11.199 8.184 19.148 8.184 3.274 0 7.219-.914 11.817-2.738 4.609-1.828 7.238-2.746 7.902-2.746 1.777 0 2.996.48 3.68 1.433.675.949 1.203 2.305 1.574 4.051h2.949l3.152-34.629h-3.437c-2.332 10.43-6.094 17.711-11.258 21.84-5.168 4.133-10.273 6.199-15.324 6.199-3.934 0-7.363-1.316-10.281-3.933-2.922-2.622-4.387-6.262-4.387-10.922 0-4.184 1.125-7.758 3.359-10.723 2.246-3.016 5.723-6.172 10.442-9.453l12.625-8.813c7.89-5.507 13.457-10.566 16.699-15.172 3.195-4.664 4.797-10.164 4.797-16.523 0-8.523-2.844-15.644-8.528-21.363-5.683-5.723-12.937-8.578-21.785-8.578-4.445 0-9.082.953-13.926 2.855-4.835 1.91-7.609 2.863-8.312 2.863-1.68 0-2.82-.582-3.398-1.75a11.905 11.905 0 0 1-1.161-3.73h-3.156l-4.277 34.629h3.293M509.379 482.758c2.434-7.309 5.285-13.133 8.547-17.477 5.703-7.57 12.773-11.355 21.23-11.355 4.571 0 8.535 1.64 11.875 4.926 3.34 3.281 5.008 7.863 5.008 13.742 0 5.293-1.687 9.894-5.047 13.816-2.187 2.492-6.816 6.223-13.859 11.203l-12.254 8.657c-3.691 2.648-6.633 5.324-8.828 8.023-4.074 5.133-6.106 10.801-6.106 16.996 0 8.203 2.403 15.035 7.227 20.488 4.816 5.453 11.203 8.184 19.152 8.184 3.27 0 7.215-.914 11.817-2.738 4.609-1.828 7.234-2.746 7.898-2.746 1.777 0 3 .48 3.684 1.433.672.949 1.199 2.305 1.57 4.051h2.949l3.156-34.629h-3.437c-2.336 10.43-6.094 17.711-11.262 21.84-5.164 4.133-10.273 6.199-15.32 6.199-3.938 0-7.363-1.316-10.285-3.933-2.918-2.622-4.383-6.262-4.383-10.922 0-4.184 1.121-7.758 3.359-10.723 2.246-3.016 5.723-6.172 10.438-9.453l12.629-8.813c7.89-5.507 13.457-10.566 16.699-15.172 3.191-4.664 4.793-10.164 4.793-16.523 0-8.523-2.84-15.644-8.524-21.363-5.683-5.723-12.941-8.578-21.789-8.578-4.441 0-9.082.953-13.925 2.855-4.832 1.91-7.606 2.863-8.309 2.863-1.68 0-2.824-.582-3.398-1.75a11.988 11.988 0 0 1-1.164-3.73h-3.153l-4.277 34.629h3.289M590.875 554.301h4.539c2.18 0 3.652.363 4.445 1.086.789.722 1.192 1.676 1.192 2.867 0 .762-.196 1.449-.578 2.055a3.463 3.463 0 0 1-1.582 1.351c-.672.297-1.934.445-3.758.445h-4.258zm-3.742-14.551v25.859h7.969c2.726 0 4.699-.238 5.918-.714 1.222-.481 2.187-1.317 2.91-2.5.734-1.192 1.093-2.454 1.093-3.79 0-1.89-.605-3.535-1.816-4.937-1.211-1.402-2.812-2.188-4.812-2.359.82-.379 1.472-.84 1.972-1.368.926-1.019 2.071-2.73 3.426-5.125l2.832-5.066h-4.578l-2.051 4.074c-1.621 3.207-2.93 5.215-3.918 6.02-.691.597-1.687.894-3.008.894h-2.195V539.75Zm9.453 33.34c-3.027 0-5.977-.863-8.836-2.59-2.871-1.734-5.117-4.207-6.738-7.422-1.621-3.219-2.422-6.57-2.422-10.051 0-3.457.789-6.777 2.383-9.949 1.59-3.176 3.816-5.652 6.668-7.422 2.863-1.773 5.839-2.656 8.945-2.656 3.105 0 6.094.883 8.945 2.656 2.864 1.77 5.078 4.246 6.66 7.422 1.582 3.172 2.375 6.492 2.375 9.949 0 3.481-.8 6.832-2.414 10.051-1.609 3.215-3.855 5.688-6.726 7.422-2.883 1.727-5.821 2.59-8.84 2.59zm0 3.984c3.625 0 7.16-1.035 10.605-3.105 3.45-2.071 6.133-5.031 8.059-8.887 1.922-3.852 2.891-7.871 2.891-12.055 0-4.14-.95-8.121-2.844-11.937-1.895-3.824-4.559-6.793-7.977-8.902-3.418-2.114-6.992-3.168-10.734-3.168-3.731 0-7.305 1.054-10.731 3.168-3.417 2.109-6.074 5.078-7.988 8.902-1.906 3.816-2.851 7.797-2.851 11.937 0 4.184.964 8.203 2.898 12.055 1.934 3.856 4.621 6.816 8.078 8.887 3.446 2.07 6.981 3.105 10.594 3.105M305.969 424.77h4.621v-12.407c0-1.968.058-3.242.176-3.828a3.72 3.72 0 0 1 1.414-2.258c.746-.562 1.761-.847 3.054-.847 1.309 0 2.301.261 2.969.8.664.54 1.067 1.196 1.199 1.977.137.781.207 2.082.207 3.895v12.668h4.625v-12.032c0-2.75-.129-4.691-.379-5.828-.246-1.133-.71-2.09-1.378-2.871-.676-.781-1.575-1.406-2.696-1.871-1.129-.457-2.593-.691-4.41-.691-2.183 0-3.844.253-4.976.753-1.125.508-2.02 1.165-2.676 1.969-.656.813-1.086 1.656-1.297 2.539-.305 1.313-.453 3.25-.453 5.817v12.215M329.395 401.863v4.391h4.39v-4.391h-4.39M343.539 409.316l4.504.442c.273-1.516.82-2.625 1.648-3.332.832-.707 1.946-1.059 3.352-1.059 1.492 0 2.605.313 3.367.942.754.629 1.133 1.367 1.133 2.211 0 .543-.156 1.003-.477 1.382-.324.379-.871.711-1.66.993-.547.191-1.777.523-3.711 1-2.472.617-4.211 1.371-5.215 2.265-1.406 1.262-2.109 2.797-2.109 4.61 0 1.168.332 2.253.996 3.273.653 1.016 1.61 1.789 2.86 2.316 1.242.536 2.746.801 4.503.801 2.872 0 5.04-.633 6.493-1.894 1.457-1.258 2.218-2.938 2.285-5.043l-4.617-.203c-.207 1.175-.625 2.023-1.282 2.539-.644.515-1.621.773-2.929.773-1.336 0-2.391-.277-3.153-.828-.488-.352-.734-.824-.734-1.422 0-.543.227-1.008.684-1.391.586-.488 2.003-1 4.25-1.531 2.253-.531 3.914-1.082 5-1.648 1.074-.567 1.914-1.344 2.527-2.328.605-.985.91-2.2.91-3.649 0-1.312-.363-2.539-1.094-3.687-.722-1.149-1.757-1.996-3.086-2.551-1.339-.559-3-.836-4.992-.836-2.89 0-5.117.668-6.668 2.008-1.554 1.336-2.48 3.285-2.785 5.847M366.344 401.863v4.391h4.394v-4.391h-4.394M393.805 410.93l-3.157 8.496-3.093-8.496zm8.515-9.067h-5.031l-2 5.203h-9.152l-1.895-5.203h-4.902l8.918 22.907h4.89l9.172-22.907M405.055 401.863v4.391h4.394v-4.391h-4.394M209.238 360.762l16.016 17.461 1.676-2.618-10.77-11.035a85.893 85.893 0 0 0-3.426-3.34c2.379.833 3.746 1.309 4.125 1.418l15.371 4.668 1.973-3.078-8.004-9.023c-1.969-2.246-3.929-4.199-5.863-5.867 1.375.535 2.98 1.113 4.809 1.726l14.335 4.903 1.649-2.559-22.676-7.051-1.578 2.461 12.094 13.469a112.555 112.555 0 0 0 1.875 2.051 49.015 49.015 0 0 0-2.625-.879l-17.317-5.317-1.664 2.61M232.418 341.984l4.184-6.535 4.05 5.43c1.235 1.648 2.274 2.969 3.125 3.926a29.846 29.846 0 0 0-4.347-1.328zm-11.484.496 24.031 4.942 1.758-2.754-14.239-20.234-1.859 2.902 4.398 5.984-5.16 8.067-7.191-1.621-1.738 2.714M239.008 327.891l1.75-2.266c-.891-.742-1.516-1.504-1.871-2.324-.348-.813-.442-1.778-.258-2.891.184-1.133.617-2.246 1.316-3.34.625-.976 1.328-1.738 2.09-2.297.77-.554 1.524-.855 2.258-.894a3.24 3.24 0 0 1 2.008.508 2.964 2.964 0 0 1 1.238 1.531c.231.645.242 1.465.035 2.473-.133.64-.558 1.992-1.261 4.031-.708 2.051-1.102 3.555-1.18 4.492-.11 1.238.047 2.305.476 3.223a5.308 5.308 0 0 0 1.973 2.207c.977.625 2.063.929 3.258.918 1.199-.008 2.359-.41 3.48-1.192 1.114-.781 2.09-1.816 2.926-3.117.914-1.426 1.488-2.84 1.723-4.219.242-1.394.097-2.664-.418-3.816-.516-1.172-1.328-2.129-2.438-2.891l-1.75 2.325c1.133.91 1.774 1.945 1.91 3.105.137 1.152-.265 2.473-1.218 3.953-.989 1.543-1.989 2.492-3.004 2.832-1.02.344-1.922.266-2.727-.242-.691-.449-1.101-1.074-1.226-1.848-.133-.789.226-2.351 1.086-4.734.859-2.371 1.359-4.063 1.5-5.059.199-1.445.074-2.695-.375-3.75-.454-1.035-1.2-1.894-2.235-2.558-1.019-.645-2.176-.977-3.457-.965-1.289.008-2.531.391-3.742 1.18-1.207.781-2.258 1.843-3.137 3.222-1.117 1.746-1.8 3.379-2.039 4.883-.25 1.504-.074 2.922.516 4.238.594 1.329 1.519 2.422 2.793 3.282M244.48 305.684l19.293 12.343 1.637-2.547-7.926-5.07 6.418-10.039 7.922 5.078 1.637-2.558-19.289-12.344-1.637 2.558 9.098 5.821-6.418 10.027-9.098-5.816-1.637 2.547M256.492 286.926l19.293 12.344 8.926-13.957-2.277-1.446-7.297 11.387-5.907-3.789 6.829-10.664-2.266-1.446-6.828 10.665-6.567-4.2 7.586-11.836-2.277-1.464-9.215 14.406M271.441 268.574l2.637-4.121c.817-1.269 1.57-2.195 2.274-2.762.699-.578 1.398-.937 2.105-1.086.992-.234 2.106-.175 3.344.137 1.242.324 2.586.938 4.039 1.875 2.019 1.289 3.359 2.617 4.023 3.977.657 1.347.864 2.617.629 3.797-.176.859-.746 2.05-1.719 3.562l-2.597 4.055zm-3.906 1.094 19.289 12.344 4.254-6.641c.957-1.504 1.594-2.703 1.914-3.613.461-1.27.602-2.5.426-3.711-.203-1.57-.816-3.035-1.824-4.395-1.02-1.367-2.383-2.586-4.106-3.691-1.468-.938-2.875-1.602-4.222-1.981-1.356-.382-2.575-.546-3.653-.48-1.09.059-2.047.273-2.871.637-.836.359-1.648.926-2.445 1.687-.801.75-1.563 1.719-2.309 2.891l-4.453 6.953M445.258 274.91l1.055 2.563c1.554-.825 2.753-1.145 3.605-.957.848.175 1.531.718 2.059 1.597.371.664.546 1.321.527 1.977a2.67 2.67 0 0 1-.652 1.695c-.411.481-1.184 1.047-2.336 1.699l-13.633 7.926 1.523 2.629 13.496-7.84c1.661-.957 2.825-1.902 3.496-2.832.684-.933 1.016-1.969.977-3.113-.02-1.152-.379-2.313-1.055-3.469-1.015-1.746-2.285-2.793-3.828-3.125-1.523-.347-3.269.07-5.234 1.25M459.32 286.184l-19.804 11.496 8.32 14.324 2.336-1.356-6.789-11.695 6.074-3.523 6.359 10.953 2.325-1.348-6.36-10.953 6.739-3.914 7.05 12.148 2.344-1.359-8.594-14.773M463.539 312.156l3.899 6.715-6.692 1.117c-2.031.344-3.672.664-4.91.985a28.79 28.79 0 0 0 3.152-3.274zm4.816-10.437-15.382 19.105 1.632 2.824 24.52-3.394-1.738-2.984-7.344 1.171-4.805-8.285 4.727-5.648-1.61-2.789M479.918 321.633l-19.805 11.496 1.563 2.687 21.59 1.372-15.547 9.027 1.457 2.512 19.804-11.5-1.562-2.684-21.613-1.363 15.566-9.039-1.453-2.508M484.242 343.746l1.231 2.594c1.054-.449 2.031-.656 2.91-.598.879.059 1.789.418 2.695 1.098.918.676 1.699 1.566 2.363 2.703.579.992.938 1.973 1.086 2.898.145.942.067 1.754-.226 2.426a3.368 3.368 0 0 1-1.375 1.551c-.617.355-1.27.492-1.934.398-.676-.097-1.418-.457-2.207-1.101-.519-.418-1.523-1.395-3.019-2.973-1.493-1.558-2.637-2.594-3.457-3.097-1.036-.657-2.071-1.012-3.067-1.051-1.004-.035-1.953.211-2.871.742a5.699 5.699 0 0 0-2.305 2.48c-.546 1.075-.722 2.282-.546 3.633.187 1.36.664 2.692 1.445 4.024.851 1.468 1.836 2.629 2.961 3.472 1.121.848 2.312 1.309 3.594 1.379 1.269.067 2.488-.219 3.679-.84l-1.269-2.629c-1.328.594-2.539.688-3.633.282-1.094-.403-2.09-1.375-2.969-2.895-.918-1.586-1.289-2.91-1.133-3.965.157-1.062.645-1.836 1.465-2.308.703-.414 1.445-.508 2.207-.254.762.238 1.985 1.277 3.692 3.129 1.73 1.851 2.988 3.066 3.828 3.648 1.191.848 2.363 1.305 3.496 1.387 1.133.07 2.238-.199 3.301-.816 1.046-.61 1.855-1.497 2.441-2.633.586-1.153.813-2.438.676-3.867-.149-1.43-.625-2.856-1.438-4.266-1.043-1.789-2.187-3.141-3.406-4.051-1.223-.91-2.57-1.394-4.016-1.48-1.445-.086-2.851.246-4.199.98M329.281 166.555l-.984-1.836-11.692 6.258c.188-.657.293-1.465.329-2.411.035-.937.015-1.757-.079-2.445l-1.789.957c.075 1.289-.031 2.5-.304 3.637-.27 1.133-.641 2.027-1.114 2.691l.633 1.184 15-8.035M334.926 181.309l1.769-.95-5.3-9.863c-.45.219-.836.52-1.157.891-.535.617-.984 1.367-1.343 2.273-.356.91-.676 2.113-.981 3.613-.453 2.344-.922 3.997-1.394 4.993-.465.988-1.055 1.672-1.75 2.043-.731.386-1.473.457-2.254.203-.778-.254-1.395-.789-1.84-1.629-.477-.879-.594-1.731-.348-2.539.254-.821.84-1.485 1.777-1.992l-1.207-1.789c-1.335.886-2.144 1.945-2.429 3.183-.293 1.238-.047 2.57.715 3.984.765 1.438 1.769 2.364 3.019 2.774 1.25.398 2.445.293 3.625-.332.598-.32 1.11-.762 1.567-1.317.441-.558.832-1.289 1.168-2.199.332-.91.707-2.324 1.109-4.238.332-1.594.586-2.637.754-3.137.148-.484.344-.918.566-1.297l3.934 7.325M331.117 187.648c2.453-1.308 4.231-1.894 5.352-1.757 1.113.132 1.894.625 2.355 1.472.449.84.43 1.77-.09 2.774-.507 1.015-1.972 2.179-4.414 3.484-2.461 1.32-4.257 1.914-5.375 1.77-1.117-.149-1.898-.633-2.363-1.493-.449-.839-.449-1.71-.016-2.589.579-1.121 2.09-2.344 4.551-3.661zm-1.015-1.875c-1.778.938-3.094 1.883-3.973 2.832-.891.938-1.426 1.922-1.633 2.95-.187 1.035 0 2.09.586 3.172.43.8.965 1.425 1.606 1.855.652.43 1.375.684 2.203.754.828.059 1.722-.02 2.714-.273.997-.239 2.243-.762 3.723-1.555 1.746-.938 3.074-1.875 3.953-2.813.879-.937 1.426-1.922 1.633-2.961.203-1.035.008-2.097-.578-3.191-.77-1.434-1.895-2.297-3.367-2.559-1.778-.324-4.063.286-6.867 1.789M347.125 199.816l-.988-1.836-11.688 6.258c.18-.652.293-1.465.324-2.414.036-.933.016-1.758-.082-2.437l-1.785.957c.074 1.289-.031 2.5-.304 3.633-.274 1.132-.645 2.031-1.118 2.695l.633 1.18 15.008-8.036M375.98 199.031l-.996 1.828 11.653 6.336c-.657.215-1.399.571-2.199 1.059-.809.484-1.473.945-2 1.402l1.777.957a13.117 13.117 0 0 1 3.203-1.726c1.094-.391 2.059-.574 2.871-.547l.645-1.184-14.954-8.125M385.219 186.211l-1.758-.957-5.352 9.855c.43.25.899.411 1.387.465.801.117 1.692.078 2.637-.113.949-.195 2.129-.598 3.555-1.176 2.218-.894 3.847-1.426 4.941-1.558 1.086-.161 1.984-.039 2.668.332.73.398 1.191.984 1.406 1.777.223.789.098 1.602-.351 2.437-.481.879-1.133 1.438-1.946 1.68-.82.246-1.687.11-2.625-.387l-.832 1.981c1.477.637 2.805.73 3.985.281 1.203-.43 2.179-1.363 2.949-2.769.773-1.438.996-2.786.664-4.043-.352-1.274-1.102-2.219-2.285-2.864a5.175 5.175 0 0 0-1.953-.578c-.711-.078-1.524 0-2.481.219-.937.223-2.324.684-4.14 1.395-1.524.605-2.528.964-3.028 1.105a7.878 7.878 0 0 1-1.406.23l3.965-7.312M392.613 185.93c-2.453-1.328-3.918-2.5-4.414-3.52-.5-1.012-.519-1.93-.058-2.769.457-.84 1.238-1.328 2.371-1.457 1.125-.125 2.902.461 5.343 1.789 2.45 1.336 3.926 2.5 4.415 3.511.496 1.02.515 1.946.046 2.805-.457.84-1.179 1.32-2.156 1.426-1.25.137-3.105-.457-5.547-1.785zm-1.015 1.875c1.765.957 3.281 1.55 4.539 1.773 1.269.219 2.394.129 3.371-.269.965-.403 1.746-1.133 2.332-2.219.43-.801.664-1.594.664-2.371a4.407 4.407 0 0 0-.586-2.246c-.391-.727-.965-1.426-1.699-2.129-.762-.696-1.875-1.446-3.348-2.246-1.75-.95-3.262-1.543-4.523-1.77-1.27-.223-2.403-.137-3.36.266-.976.39-1.765 1.133-2.363 2.222-.781 1.438-.879 2.844-.293 4.219.715 1.66 2.461 3.242 5.266 4.77M394.184 174.895l1.242-1.704c-.918-.769-1.465-1.531-1.653-2.285-.183-.758-.078-1.492.325-2.215.457-.871 1.152-1.433 2.07-1.699.918-.273 1.805-.168 2.695.313.84.461 1.387 1.101 1.629 1.953.254.851.149 1.687-.312 2.539-.184.344-.489.73-.907 1.183l1.707.665c.051-.129.11-.227.149-.305.418-.774.996-1.367 1.758-1.77.742-.41 1.531-.379 2.383.078.671.375 1.101.903 1.296 1.594.188.696.09 1.399-.3 2.117-.383.715-.93 1.184-1.633 1.411-.703.234-1.543.171-2.52-.176l-.652 2.011c1.336.438 2.566.45 3.672.016 1.113-.43 1.972-1.226 2.617-2.398.438-.825.672-1.66.691-2.539.032-.871-.164-1.653-.566-2.344a4.06 4.06 0 0 0-1.621-1.582 3.607 3.607 0 0 0-2.039-.449c-.715.066-1.418.347-2.11.859.282-.996.243-1.906-.136-2.746-.383-.828-1.047-1.516-2.012-2.031-1.301-.711-2.656-.828-4.082-.379-1.418.457-2.52 1.414-3.312 2.859-.711 1.309-.899 2.609-.594 3.887.312 1.289 1.043 2.336 2.215 3.137" style="fill:#100f0d;fill-opacity:1;fill-rule:nonzero;stroke:none" transform="matrix(.13333 0 0 -.13333 0 82.507)"/><path d="M327.434 296.305c1.242 12.535-1.258 30.968 26.293 31.668 23.699.601 26.199-16.325 20.574-22.575-18.653-20.718-33.438-25.625-34.063-51.875-.097-4.058-.312-22.808-.625-31.25 6.66.415 38.438 0 40.938 0-.41 13.75-1.512 34.551 4.375 41.536 15.312 18.156 37.812 31.589 37.922 53.156.086 18.527-6.778 29.344-12.922 35.933-8.25 8.86-22.793 16.731-49.063 17.469-34.687.973-51.25-11.527-59.511-24.062-10.012-19.844-8.914-47.438-8.918-49.711 11.242.054 27.804-.254 35-.289" style="fill:#ec1d27;fill-opacity:1;fill-rule:nonzero;stroke:none" transform="matrix(.13333 0 0 -.13333 0 82.507)"/></svg>