<svg xmlns="http://www.w3.org/2000/svg" xml:space="preserve" width="216.7065" height="46.005867" viewBox="0 0 216.7065 46.005867"><defs><clipPath id="a" clipPathUnits="userSpaceOnUse"><path d="M0 595.28h419.53V0H0Z"/></clipPath></defs><g clip-path="url(#a)" transform="matrix(1.33333 0 0 -1.33333 -165.762 418.163)"><path d="M0 0h4.687v-.996H1.111v-1.643h3.17v-.994h-3.17v-1.699h3.621v-.994H0Z" style="fill:#1a345c;fill-opacity:1;fill-rule:nonzero;stroke:none" transform="translate(167.753 285.55)"/><path d="m0 0-2.214 3.111h1.309L.668.842l1.58 2.269h1.273L1.319.021l2.294-3.236h-1.31L.64-.82l-1.671-2.395h-1.272z" style="fill:#1a345c;fill-opacity:1;fill-rule:nonzero;stroke:none" transform="translate(180.147 282.438)"/><path d="M0 0c.839 0 1.363.469 1.363 1.131v.015c0 .743-.532 1.133-1.363 1.133h-1.292V0Zm-2.404 3.291H.089c1.474 0 2.405-.84 2.405-2.117v-.02C2.494-.258 1.354-1-.037-1h-1.255v-2.035h-1.112z" style="fill:#1a345c;fill-opacity:1;fill-rule:nonzero;stroke:none" transform="translate(191.825 282.259)"/><path d="M0 0h4.687v-.996H1.111v-1.643H4.28v-.994H1.111v-1.699h3.623v-.994H0Z" style="fill:#1a345c;fill-opacity:1;fill-rule:nonzero;stroke:none" transform="translate(199.972 285.55)"/><path d="M0 0c1.327 0 2.196.895 2.196 2.131v.017c0 1.237-.869 2.149-2.196 2.149h-1.245V0Zm-2.358 5.313H0c1.988 0 3.358-1.37 3.358-3.145v-.02C3.358.369 1.988-1.014 0-1.014h-2.358z" style="fill:#1a345c;fill-opacity:1;fill-rule:nonzero;stroke:none" transform="translate(212.898 280.237)"/><path d="M222.181 285.55h1.114v-6.326h-1.114z" style="fill:#1a345c;fill-opacity:1;fill-rule:nonzero;stroke:none"/><path d="M0 0h-2.005v1.033h5.13V0H1.12v-5.293H0Z" style="fill:#1a345c;fill-opacity:1;fill-rule:nonzero;stroke:none" transform="translate(231.053 284.517)"/><path d="M239.931 285.55h1.109v-6.326h-1.109z" style="fill:#1a345c;fill-opacity:1;fill-rule:nonzero;stroke:none"/><path d="M0 0v.018C0 1.248-.896 2.27-2.151 2.27c-1.257 0-2.133-1.004-2.133-2.233V.018c0-1.227.895-2.248 2.152-2.248C-.878-2.23 0-1.229 0 0m-5.448 0v.018c0 1.779 1.371 3.269 3.316 3.269 1.941 0 3.295-1.474 3.295-3.25V.018c0-1.78-1.373-3.268-3.314-3.268-1.943 0-3.297 1.471-3.297 3.25" style="fill:#1a345c;fill-opacity:1;fill-rule:nonzero;stroke:none" transform="translate(252.417 282.368)"/><path d="M0 0h1.028l3.387-4.373V0h1.094v-6.326h-.932L1.091-1.828v-4.498H0Z" style="fill:#1a345c;fill-opacity:1;fill-rule:nonzero;stroke:none" transform="translate(259.443 285.55)"/><path d="M0 0h-.958L.377 1.486l-1.279 1.43h.985l1.188-1.408Zm2.351.506c.039.469.223.881.4 1.283.08.18.156.356.215.525.092.26.153.534.22.819.074.326.151.664.278.994.31.801 1.014 1.34 1.636 1.819.138.103.267.203.391.303A11.842 11.842 0 0 0 8.11 7.828l.164.095c-.391 3.835-3.191 7.154-7.162 8.018a9.14 9.14 0 0 1-6.771-1.168c.361.017.744.044 1.089.064.443.027.824.053 1.093.056.314.007.731.064 1.173.124.822.119 1.672.236 2.294.086 1.314-.313 2.436-1.364 3.148-2.191.21-.243.44-.469.683-.709.357-.352.726-.715 1.032-1.14.141-.196.301-.466.285-.791-.04-.726-.761-1.211-1.235-1.529l-.102-.067c-.246-.17-.506-.323-.756-.469-.45-.266-.878-.522-1.232-.851-.252-.236-.376-.502-.533-.834a7.148 7.148 0 0 0-.264-.523c-.779-1.37-2.282-1.936-3.608-2.435-.289-.109-.563-.212-.827-.322-1.257-.525-2.259-1.912-2.704-3.728a9.074 9.074 0 0 1 3.341-1.465 9.093 9.093 0 0 1 6.095.781c-.461.375-1.023.981-.962 1.676" style="fill:#1a345c;fill-opacity:1;fill-rule:nonzero;stroke:none" transform="translate(134.315 292.6)"/><path d="M0 0c-.149.933-.491.954-1.314 1.007l-.248.016c-.73.054-1.66.379-2.406.639l-.115.036a9.051 9.051 0 0 1-.85-2.327c-.438-2.006-.18-4 .609-5.733.734 1.868 1.919 3.046 2.892 4.01C-.525-1.451.129-.799 0 0" style="fill:#1a345c;fill-opacity:1;fill-rule:nonzero;stroke:none" transform="translate(129.467 302.171)"/><path d="M0 0c-.575-.439-1.17-.892-1.408-1.511-.108-.281-.177-.585-.25-.9-.067-.293-.135-.595-.24-.894a8.323 8.323 0 0 0-.237-.574c-.161-.364-.313-.709-.343-1.061-.032-.381.412-.879.924-1.24a9.133 9.133 0 0 1 4.338 7.942A10.96 10.96 0 0 1 .404.314C.272.209.134.103 0 0" style="fill:#1a345c;fill-opacity:1;fill-rule:nonzero;stroke:none" transform="translate(139.85 297.988)"/><path d="M0 0c.439.333.983.719 1.659 1.027.245.114.482.244.734.376.216.117.44.24.67.35.642.306 1.185.609 1.372 1.213l.054.177c.172.565.335 1.101.692 1.639.357.538.334.695-.15 1.131-.429.389-.681.522-1.172.618-.615.123-1.369-.023-2.034-.146l-.038-.01c-1.47-.279-3.328-.083-4.706.156a9.198 9.198 0 0 1-.464-.665c.67-.233 1.583-.549 2.217-.598l.239-.014c.852-.053 1.734-.11 1.972-1.599C1.23 2.501.388 1.667-.587.699-1.614-.319-2.884-1.585-3.53-3.681c.217-.369.459-.725.728-1.061C-2.416-3.33-1.601-1.22 0 0" style="fill:#1a345c;fill-opacity:1;fill-rule:nonzero;stroke:none" transform="translate(129.124 298.625)"/><path d="M0 0c.273.116.567.226.849.332 1.274.483 2.591.979 3.243 2.125.092.163.165.32.24.476.166.348.337.714.686 1.044.411.388.893.671 1.359.949.25.148.488.285.715.441l.105.072c.359.241.904.606.925.982.005.11-.086.249-.154.349-.271.376-.603.705-.955 1.048-.241.239-.492.485-.721.751-.526.612-1.588 1.682-2.773 1.965-.494.116-1.309.003-2.03-.099-.466-.064-.904-.127-1.261-.13-.253-.004-.643-.03-1.058-.057-.742-.05-1.573-.103-2.123-.07a8.785 8.785 0 0 1-.936-.885c1.146-.172 2.781-.332 4.044-.089l.04.007c.728.139 1.555.296 2.305.149.693-.139 1.053-.373 1.513-.787.745-.676.816-1.204.265-2.039-.301-.452-.441-.917-.606-1.456l-.055-.18c-.289-.945-1.164-1.367-1.739-1.639-.215-.103-.432-.224-.642-.336C.985 2.79.728 2.65.462 2.527c-.497-.225-.939-.502-1.525-.947C-2.747.296-3.49-2.221-3.732-3.252a9.52 9.52 0 0 1 .695-.649C-2.501-2.018-1.391-.575 0 0" style="fill:#1a345c;fill-opacity:1;fill-rule:nonzero;stroke:none" transform="translate(130.62 296.488)"/><path d="M0 0h.366l.54-1.594L1.443 0h.36v-1.883h-.242v1.11c0 .039 0 .099.002.189.004.09.004.186.004.283L1.03-1.883H.778L.235-.301v-.053c0-.044 0-.117.006-.207 0-.095.004-.169.004-.212v-1.11H0Zm-.229 0v-.229H-.86v-1.654h-.257v1.654h-.631V0Z" style="fill:#1a345c;fill-opacity:1;fill-rule:nonzero;stroke:none" transform="translate(280.907 284.243)"/><path d="m0 0-4.476-12.805L-8.652 0h-4.269l6.487-17.344-.05-.119s-1.306-3.535-2.489-4.392c-.911-.465-3.044-.432-3.849-.379V-25.5c1.408 0 4.721-.094 5.79.582 1.338.85 1.636 1.215 2.553 3.068C-3.483-19.826 4.166 0 4.166 0Zm-20.902-2.886v2.883h-4v-17.464h4v6.651c0 1.168.109 2.195.432 3.039 1.2 3.179 4.562 4.08 6.3 4.339l-1.372 3.335c-1.396-.239-3.854-.914-5.36-2.783m-68.895-11.495c-3.077 0-5.225 2.51-5.225 5.653 0 3.076 2.115 5.59 5.025 5.59 2.018 0 3.308-.891 4.53-2.186l2.481 2.681C-84.609-.858-86.656.363-89.964.363c-5.224 0-9.057-4.163-9.057-9.154 0-4.994 3.833-9.063 9.024-9.063 3.407 0 5.423 1.358 7.14 3.274l-2.412 2.381c-1.258-1.291-2.644-2.182-4.528-2.182m57.935 7.29c-.069.636-.209.82-.433 1.383a4.846 4.846 0 0 1-.89 1.472c-.38.419-.824.745-1.34.974-.517.23-1.109.349-1.773.349-1.233 0-2.254-.425-3.056-1.273-.804-.851-1.298-1.536-1.473-2.905zm3.435 1.648a11.954 11.954 0 0 0 .515-4.137 9.187 9.187 0 0 0-.048-.574h-12.835c.221-1.434.79-2.535 1.706-3.295.913-.758 2.022-1.143 3.323-1.143.992 0 1.853.182 2.581.531.728.356 1.444.87 2.145 1.559l2.354-2.09a9.752 9.752 0 0 0-3-2.379c-1.154-.595-2.537-.896-4.146-.896a9.367 9.367 0 0 0-3.522.662 8.702 8.702 0 0 0-2.846 1.853 8.504 8.504 0 0 0-1.9 2.864c-.464 1.113-.693 2.344-.693 3.687v.069c0 1.254.206 2.436.625 3.539a8.908 8.908 0 0 0 1.771 2.892 8.243 8.243 0 0 0 2.695 1.949c1.036.476 2.181.712 3.438.712 1.391 0 2.61-.253 3.656-.759 1.048-.508 1.919-1.19 2.613-2.051a8.82 8.82 0 0 0 1.568-2.993m-25.685-7.395L-58.809-.003h-4.299l7.179-17.597h3.604l7.142 17.597h-4.199zm-13.161 4.07c0 .775-.133 1.5-.399 2.185a5.458 5.458 0 0 1-1.109 1.785 5.29 5.29 0 0 1-1.684 1.207 5.183 5.183 0 0 1-2.168.446c-.795 0-1.516-.15-2.166-.446a5.26 5.26 0 0 1-1.67-1.193 5.05 5.05 0 0 1-1.059-1.749 6.347 6.347 0 0 1-.364-2.169v-.066c0-.749.133-1.466.396-2.151a5.703 5.703 0 0 1 1.11-1.802 5.052 5.052 0 0 1 1.688-1.22 5.036 5.036 0 0 1 2.133-.45c.814 0 1.546.151 2.196.45a4.993 4.993 0 0 1 1.671 1.207 5.161 5.161 0 0 1 1.058 1.768 6.2 6.2 0 0 1 .367 2.132zm3.306 3.591a8.947 8.947 0 0 0 .696-3.525v-.066a8.849 8.849 0 0 0-.711-3.503 9.2 9.2 0 0 0-1.953-2.899c-.828-.826-1.815-1.478-2.959-1.969-1.149-.484-2.395-.728-3.739-.728-1.324 0-2.551.236-3.688.713a9.155 9.155 0 0 0-2.944 1.935 8.811 8.811 0 0 0-1.934 2.881 8.94 8.94 0 0 0-.696 3.504v.066c0 1.257.238 2.438.713 3.541a9.164 9.164 0 0 0 1.951 2.893 9.194 9.194 0 0 0 2.943 1.965c1.137.489 2.377.729 3.723.729 1.344 0 2.584-.236 3.72-.712a8.982 8.982 0 0 0 2.943-1.949 9.014 9.014 0 0 0 1.935-2.876m-38.625-3.642a8.04 8.04 0 0 1-1.737.979c-.64.262-1.277.495-1.919.69-.507.182-.996.344-1.469.5a8.335 8.335 0 0 0-1.258.512c-.364.189-.657.396-.877.629-.22.229-.331.502-.331.814v.06c0 .509.215.928.646 1.257.43.333 1.031.496 1.803.496.727 0 1.52-.15 2.38-.447a13.424 13.424 0 0 0 2.548-1.202l1.586 2.842a11.883 11.883 0 0 1-3.076 1.454 11.031 11.031 0 0 1-3.341.531 7.945 7.945 0 0 1-2.429-.366 5.882 5.882 0 0 1-1.985-1.06 4.919 4.919 0 0 1-1.322-1.666c-.321-.655-.481-1.397-.481-2.235v-.063c0-.841.165-1.546.496-2.122a4.713 4.713 0 0 1 1.274-1.436 6.992 6.992 0 0 1 1.752-.944 24.968 24.968 0 0 1 1.935-.628c.507-.156 1-.303 1.472-.447a7.469 7.469 0 0 0 1.257-.495c.364-.185.651-.402.861-.645.208-.242.312-.527.312-.861v-.062c0-.577-.238-1.032-.711-1.373-.473-.348-1.139-.518-2-.518-.903 0-1.846.184-2.826.551-.982.361-1.949.896-2.895 1.601l-1.787-2.713a12.367 12.367 0 0 1 3.589-1.953c1.29-.437 2.562-.656 3.821-.656a9.02 9.02 0 0 1 2.547.344 6.118 6.118 0 0 1 2.066 1.025 4.754 4.754 0 0 1 1.373 1.703c.332.684.495 1.493.495 2.418v.061c0 .799-.163 1.471-.495 2.02a4.832 4.832 0 0 1-1.274 1.405m-18.848-8.648h4.004V-.003h-4.004zm-2.317 11.737c0-6.541-5.026-11.6-12.301-11.6h-7.037a11.019 11.019 0 0 1 3.456 3.703h3.581c4.86 0 8.035 3.273 8.035 7.835 0 4.559-3.175 7.9-8.035 7.9h-4.561v-3.404a11.203 11.203 0 0 1-2.334 2.184c-.544.373-1.125.695-1.733.967v3.958h8.628c7.275 0 12.301-4.994 12.301-11.543" style="fill:#1a345c;fill-opacity:1;fill-rule:nonzero;stroke:none" transform="translate(282.685 307.81)"/></g></svg>