<svg xmlns="http://www.w3.org/2000/svg" xml:space="preserve" x="0px" y="0px" baseProfile="tiny" overflow="visible" version="1.2" viewBox="0 0 2048 828"><path fill="#FFF" d="M812.25 425.9c0 166.25-134.786 301.024-301.024 301.024-166.254 0-301.024-134.774-301.024-301.024 0-166.242 134.77-301.016 301.024-301.016 166.238 0 301.024 134.774 301.024 301.016z"/><path fill="#003764" d="M652.514 404.918c-47.881-32.541-109.181-19.29-141.413 29.636-26.81 40.894-67.387 45.983-83.018 45.983-51.267 0-86.247-36.036-96.644-73.305 0 0-.508-1.887-.641-2.314-4.087-15.579-5.12-22.978-5.12-39.508 0-89.077 91.465-188.304 223.088-188.304 134.845 0 212.018 102.648 231.958 159.713a70.997 70.997 0 0 1-1.049-3.034c-38.256-111.597-144.064-191.808-268.707-191.808-156.718 0-283.848 127.063-283.848 283.914 0 140.165 101.094 260.131 241.352 260.131 111.808 0 186.981-62.686 221.413-149.121 18.934-47.294 5.562-102.824-37.371-131.983z"/><path fill="#E4032E" d="M782.462 342.331c-16.632-55.671-94.303-165.225-233.696-165.225-131.623 0-223.088 99.228-223.088 188.304 0 16.531 1.033 23.929 5.12 39.508-1.711-6.823-2.584-13.614-2.584-20.257 0-92.796 92.89-157.075 188.39-157.075 129.314 0 234.115 104.805 234.115 234.064 0 101.325-58.325 189.091-143.026 231.218v.078c109.229-39.559 187.228-144.192 187.228-267.055 0-29.079-3.898-54.727-12.459-83.56z"/><g fill="#575757"><path d="M971.032 396.889V286.762h209.336v27.454h-175.643v14.35h174.396v26.518h-174.396v14.975h176.58v26.831h-88.601v17.471h107.944v27.767H951.065V414.36h107.632v-17.471h-87.665zm171.275 111.063c0 8.111-1.667 15.755-4.992 22.93-3.329 7.177-8.009 13.573-14.038 19.189-6.241 5.405-13.366 9.718-21.37 12.946-8.009 3.222-16.692 4.837-26.05 4.837-9.155 0-17.783-1.615-25.895-4.837-8.11-3.228-15.184-7.541-21.213-12.946-6.241-5.616-11.028-12.012-14.352-19.189-3.329-7.174-4.992-14.819-4.992-22.93 0-8.317 1.663-16.067 4.992-23.239 3.324-7.177 8.111-13.573 14.352-19.189 6.029-5.405 13.103-9.718 21.213-12.946 8.112-3.222 16.741-4.837 25.895-4.837 9.358 0 18.041 1.615 26.05 4.837 8.004 3.228 15.13 7.541 21.37 12.946 6.029 5.616 10.709 12.012 14.038 19.189 3.325 7.172 4.992 14.922 4.992 23.239zm-33.381-.312c0-8.939-3.276-16.583-9.828-22.927-6.552-6.344-14.302-9.517-23.242-9.517-8.946 0-16.692 3.173-23.243 9.517-6.552 6.344-9.828 13.988-9.828 22.927 0 8.944 3.276 16.589 9.828 22.93 6.552 6.344 14.297 9.517 23.243 9.517 8.94 0 16.69-3.173 23.242-9.517 6.552-6.341 9.828-13.986 9.828-22.93zM1403.418 350.092c0 8.946-1.823 17.267-5.46 24.959-3.642 7.697-8.579 14.559-14.819 20.59-6.239 5.825-13.571 10.451-21.995 13.884-8.425 3.431-17.423 5.148-26.985 5.148-9.57 0-18.563-1.717-26.987-5.148-8.425-3.433-15.755-8.058-21.996-13.884-6.239-6.03-11.182-12.893-14.819-20.59-3.64-7.692-5.459-16.013-5.459-24.959 0-8.94 1.819-17.315 5.459-25.114 3.636-7.799 8.579-14.711 14.819-20.746 6.241-5.821 13.571-10.452 21.996-13.884 8.423-3.433 17.417-5.148 26.987-5.148 9.562 0 18.561 1.716 26.985 5.148 8.423 3.431 15.755 8.062 21.995 13.884 6.239 6.034 11.177 12.947 14.819 20.746 3.637 7.799 5.46 16.174 5.46 25.114zm-120.113 75.498h213.393v74.251h-179.699v23.087h182.819v27.455h-216.513v-75.812h179.7v-22.463h-179.7V425.59zm88.29-75.498c0-9.983-3.694-18.509-11.075-25.582-7.385-7.067-16.175-10.607-26.361-10.607-10.193 0-18.983 3.54-26.364 10.607-7.385 7.073-11.075 15.599-11.075 25.582 0 9.984 3.69 18.515 11.075 25.583 7.381 7.073 16.171 10.606 26.364 10.606 10.186 0 18.976-3.533 26.361-10.606 7.381-7.068 11.075-15.599 11.075-25.583zm91.41-66.138h33.693V412.8h-33.693V283.954zM1571.298 455.855h249.582v29.95h-107.944v69.88h-34.005v-69.88h-107.633v-29.95zm53.349-132.906h142.887v-34.316h33.381v130.719h-209.649V288.633h33.382v34.316zm142.886 29.327h-142.887v37.438h142.887v-37.438z"/></g></svg>