<svg xmlns="http://www.w3.org/2000/svg" xml:space="preserve" x="0px" y="0px" style="enable-background:new 0 0 277.1 87.4" viewBox="0 0 277.1 87.4"><g fill="#001455"><path d="M107.7 15.3c.1-.6.2-1.3.3-1.9l.2-1.6h-11l-.2 1.6h9.3c-.1.6-.2 1.3-.3 1.9-.2 1-.5 2.1-.5 2.1H94.2l-.1 1.6h7.1l-.3 2.7h-4.7l-.2 1.6h9.3l-.4 4.2h1.6l.4-4.2.1-.8.1-.8h-4.7l.3-2.7h7.1l.2-1.6h-2.8s.3-1 .5-2.1zM124.5 17.1l.5-5.7h-1.6l-1.5 16h1.6l.8-8.7h2.6l.2-1.6zM112 14h6.4c-.4 4.1-3.5 7.6-7.2 8.8l-.2 1.7c5.2-1.1 8.9-6 9.5-11.2l.1-.9h-8.5L112 14zM140.5 11.4l-1.5 16h1.6l1.5-16zM128.8 14h6.4c-.4 4.1-3.5 7.6-7.2 8.8l-.2 1.7c5.2-1.1 8.9-6 9.5-11.2l.1-.9h-8.5l-.1 1.6zM157.4 15.7l.4-4.3h-1.6l-1.1 11h1.6l.5-5.1h2.6l.2-1.6zM153.6 12.4h-8.5l-.2 1.6h6.4c-1.3 2.9-3.9 4.7-6.9 5.2l-.2 1.7c4.5-.4 8.4-4.1 9.4-8.5zM148 21.7h-1.6l-.5 5c0 .4.3.7.7.7H156.7l.2-1.6h-9.3l.4-4.1zM160.4 20.5l-.2 1.6h3.9l-.5 5.3h1.6l.5-5.3h4.9l-.6 5.3h1.7l.5-5.3h4l.1-1.6zM164 18.4h10.5l.2-1.6H165l.5-4.8h-1.6l-.5 5.7c-.1.4.2.7.6.7zM185.7 17.2c1.1 2.3 3.7 3.8 6.3 4.1l.2-1.6c-3.3-.3-5.6-2.9-5.2-6.3l.2-1.6h-1.8l-.1 1.6c-.2 3.4-3.1 6-6.4 6.3l-.2 1.6c2.6-.2 5.5-1.8 7-4.1zM177.2 24.2l-.2 1.6h15.8l.2-1.6zM203.2 19.9l.1-1.1h4.8l.2-1.6H199l.1-1.2h9.1l.2-1.6h-9.1l.1-1.2h9.3l.2-1.6H198l-.6 6.4c0 .4.3.7.7.7h3.7l-.1 1.1h-7.2l-.2 1.6h15.9l.2-1.6h-7.2zM202.3 22c-3.1 0-5.8 1.4-5.9 3.1-.2 1.7 2.2 3.1 5.4 3.1 3.1 0 5.8-1.4 5.9-3.1.1-1.7-2.3-3.1-5.4-3.1zm-.4 4.6c-2.1 0-3.7-.7-3.7-1.5.1-.8 1.8-1.5 3.9-1.5s3.7.7 3.7 1.5c-.1.8-1.8 1.5-3.9 1.5zM226.4 11.4h-1.6l-1.1 11h1.6zM216.6 21.7H215l-.5 5c0 .4.3.7.7.7H225.3l.2-1.6h-9.3l.4-4.1zM217.1 17.2c.3 1.5 3.4 3.4 4.5 3.4l.2-1.6c-2.7-.7-3.7-3.5-3.5-6.1l.1-1h-1.6l-.1 1c-.3 2.7-1.9 5.5-4.7 6.1l-.2 1.6c1.3 0 4.7-1.9 5.3-3.4zM242 17.1l.5-5.7h-1.6l-1.5 16h1.6l.8-8.7h2.7l.1-1.6zM234.6 13.9l.2-2h-1.6l-.2 2c-.3 2.7-.8 7.1-5.2 8.9l-.2 1.6c1.2 0 5-2.6 5.6-4.1.3 1.5 3.6 4.1 4.8 4.1l.2-1.6c-4.1-1.8-3.8-6.3-3.6-8.9z" class="st0"/></g><path fill="#0068D1" d="M70.6 24.5c1.2-10.4-1-18.8-7-22.5-5.8-3.7-14-2.2-22.5 3.1C40 5 38.8 5 37.6 5 16.8 5 0 21.7 0 42.3c0 9.5 3.6 18.2 9.5 24.8-.2 8.4 2.2 15.1 7.3 18.3 6.9 4.3 17 1.5 27.1-6.4 17.7-3 31.3-18.3 31.3-36.8-.1-6.4-1.7-12.4-4.6-17.7zm-6.4-7.9c-4.5-5.3-10.3-7.8-10.3-7.8s3.7 2.9 3.7 11.5-3.8 22-10.6 33.5c-6.8 11.4-17.1 22.3-26 22 5.2 2.9 11.4 3.2 11.4 3.2s-4.1 4.2-9.7 4.2-11.4-3-11.4-16.5c0 0 .1-7 1.6-10.8h1s-1.7 14.5 6.2 14.5 16.1-14.2 16.1-14.2-3.5 3.3-6.5 3.3-5.5-3.1-5.5-9.3c0-6.2 2.7-16.5 7.2-22.8h10.3S31.6 38.1 30.9 51.3c0 0-.2 3.8 2.3 3.8s6-3.3 9.4-12.3c3.3-9 3.9-15.4 3.9-15.4H54s1.4-16.5-8.8-16.5-22.7 17.7-28 31.4H16s3.3-9.9 9.7-18.8c6.3-8.9 17.5-21 28.6-21s9.9 14.1 9.9 14.1z" class="st1"/><g fill="#001455"><path d="m124.7 36.6-.5 4.8h-10.8c-2.2-2.7-5.9-4.5-10.3-4.5-7.6 0-14.2 5.3-14.9 11.9-.6 6.6 5 11.9 12.5 11.9 4.2 0 8.2-1.7 11-4.3h11l-1 10.1h7.5l2.9-30h-7.4zm-16.6 12.2c-.4 3.6-3.4 6.6-6.8 6.6s-5.9-2.9-5.5-6.6c.4-3.6 3.4-6.6 6.8-6.6 3.4.1 5.9 3 5.5 6.6zm15.1 3.1h-8.3c.4-1 .6-2 .7-3 .1-1 0-1.9-.1-2.8h8.2l-.5 5.8zM103.2 63.4h-7.5l-1.3 13.3c-.1 1 .6 1.8 1.6 1.8H127.9l.4-4.6h-26.1l1-10.5zM187.3 58.7l-.6 5.5h8.1l-1.4 14.2h7.5l1.4-14.2h11.1L212 78.4h7.6l1.4-14.2h8.2l.5-5.5zM192.4 54.1H227.6l.5-5.5h-29.4l1.1-11.4h-7.5l-1.5 15.2c0 .9.7 1.7 1.6 1.7zM178.4 44l.7-7.4h-7.6l-2.2 23h7.5l1.1-11.1h6.8l.5-4.5zM168.7 65.3h-18.6l.3-3.5h-7.5l-1.5 14.9c-.1 1 .6 1.8 1.6 1.8h32l1.6-16.6h-7.5l-.4 3.4zm-.8 8.6h-18.6l.4-4h18.6l-.4 4zM165.2 49.4c.2-2.3-.5-4.5-1.9-6.2h3.7l.4-4.6h-11.2l.3-3.3H149l-.3 3.3h-11.2l-.4 4.6h3.7c-1.8 1.8-2.9 3.9-3.1 6.2-.6 6 5.1 10.8 12.6 10.8 7.7 0 14.3-4.8 14.9-10.8zm-19.9 0c.3-3.3 3.3-6 6.7-6 3.4 0 5.9 2.7 5.6 6-.3 3.3-3.3 6-6.7 6-3.4 0-5.9-2.7-5.6-6zM233.1 69l-.5 5.6h44l.5-5.6zM257.3 47.2s1.2 4.7 6.8 8.6c5.6 3.9 12.5 4.7 12.5 4.7l.5-5.5s-5.5-.3-9.2-3.7c-5.8-5.3-4.6-14.7-4.6-14.7h-10.1s-.6 9.4-7.5 14.7c-4.3 3.4-9.9 3.7-9.9 3.7l-.5 5.5s7-.8 13.4-4.7c6.4-3.8 8.6-8.6 8.6-8.6z" class="st0"/></g></svg>