<svg xmlns="http://www.w3.org/2000/svg" width="1229.5083mm" height="200mm" viewBox="0 0 1229.5083 200"><defs><linearGradient id="c" x1="0" x2="1" y1="0" y2="0" gradientTransform="scale(-.02523 .02523) rotate(-80 5294.226 9816.834)" gradientUnits="userSpaceOnUse" spreadMethod="pad"><stop offset="0" style="stop-opacity:1;stop-color:#0095da"/><stop offset="0.2104295" style="stop-opacity:1;stop-color:#0095da"/><stop offset="0.8" style="stop-opacity:1;stop-color:#0056a3"/><stop offset="0.82750144" style="stop-opacity:1;stop-color:#0056a3"/><stop offset="1" style="stop-opacity:1;stop-color:#002f66"/></linearGradient><linearGradient id="d" x1="0" x2="1" y1="0" y2="0" gradientTransform="scale(-28.29325 28.29325) rotate(-80 5.186 8.396)" gradientUnits="userSpaceOnUse" spreadMethod="pad"><stop offset="0" style="stop-opacity:1;stop-color:#002f66"/><stop offset="0.17249856" style="stop-opacity:1;stop-color:#005bab"/><stop offset="0.2" style="stop-opacity:1;stop-color:#005bab"/><stop offset="0.7895705" style="stop-opacity:1;stop-color:#0095da"/><stop offset="1" style="stop-opacity:1;stop-color:#0095da"/></linearGradient><linearGradient id="f" x1="0" x2="1" y1="0" y2="0" gradientTransform="scale(-28.78042 28.78042) rotate(-20 31.575 19.187)" gradientUnits="userSpaceOnUse" spreadMethod="pad"><stop offset="0" style="stop-opacity:1;stop-color:#00aeea"/><stop offset="0.26303688" style="stop-opacity:1;stop-color:#00aeea"/><stop offset="1" style="stop-opacity:1;stop-color:#005bab"/></linearGradient><linearGradient id="h" x1="0" x2="1" y1="0" y2="0" gradientTransform="scale(-.02522 .02522) rotate(-80 6136.146 8564.064)" gradientUnits="userSpaceOnUse" spreadMethod="pad"><stop offset="0" style="stop-opacity:1;stop-color:#ef4123"/><stop offset="0.11000578" style="stop-opacity:1;stop-color:#ef4123"/><stop offset="0.8" style="stop-opacity:1;stop-color:#ae1a1f"/><stop offset="0.82750144" style="stop-opacity:1;stop-color:#ae1a1f"/><stop offset="1" style="stop-opacity:1;stop-color:#850f12"/></linearGradient><linearGradient id="j" x1="0" x2="1" y1="0" y2="0" gradientTransform="scale(-28.29325 28.29325) rotate(-80 5.531 8.618)" gradientUnits="userSpaceOnUse" spreadMethod="pad"><stop offset="0" style="stop-opacity:1;stop-color:#ef4123"/><stop offset="0.11000578" style="stop-opacity:1;stop-color:#ef4123"/><stop offset="0.8" style="stop-opacity:1;stop-color:#b5181d"/><stop offset="0.82750144" style="stop-opacity:1;stop-color:#b5181d"/><stop offset="1" style="stop-opacity:1;stop-color:#850f12"/></linearGradient><linearGradient id="l" x1="0" x2="1" y1="0" y2="0" gradientTransform="scale(28.78043 -28.78043) rotate(-20 -30.345 -13.91)" gradientUnits="userSpaceOnUse" spreadMethod="pad"><stop offset="0" style="stop-opacity:1;stop-color:#f37021"/><stop offset="0.26303688" style="stop-opacity:1;stop-color:#f37021"/><stop offset="1" style="stop-opacity:1;stop-color:#e31f26"/></linearGradient><clipPath id="b" clipPathUnits="userSpaceOnUse"><path d="M133.51 336.123V336.151v-.028"/></clipPath><clipPath id="a" clipPathUnits="userSpaceOnUse"><path d="M121.352 337.925v-12.114c-13.258-10.699-31.781-4.621-33.696-3.929-1.128.409-2.264.108-2.686-.904-.333-.799-.171-1.742.675-2.316 17.6-11.945 36.528-7.117 45.968-.687 1.961 1.337 1.897 2.534 1.897 4.435v13.713c-.2.832-2.572 2.349-7.102 2.349-1.461 0-3.146-.158-5.056-.547"/></clipPath><clipPath id="e" clipPathUnits="userSpaceOnUse"><path d="M108.083 342.425c-5.734-1.852-5.851-4.128-4.201-5.122l5.266-2.964c.684-.356 1.623-.208 2.227.083 14.372 6.917 21.774 3.2 22.135 1.701 0 1.813-1.928 4.022-5.779 5.522-3.066 1.196-7.1 2.017-11.287 2.017-2.8 0-5.669-.368-8.361-1.237"/></clipPath><clipPath id="g" clipPathUnits="userSpaceOnUse"><path d="m84.809 330.812.001-.003-.001.028z"/></clipPath><clipPath id="i" clipPathUnits="userSpaceOnUse"><path d="M86.706 348.985c-1.961-1.337-1.897-2.534-1.897-4.434v-13.714c.265-1.1 4.327-3.397 12.158-1.801v12.114c13.257 10.7 31.782 4.621 33.695 3.929 1.129-.409 2.265-.109 2.687.904.332.8.171 1.741-.676 2.315-7.85 5.328-15.966 7.319-23.385 7.32-9.213 0-17.353-3.07-22.582-6.633"/></clipPath><clipPath id="k" clipPathUnits="userSpaceOnUse"><path d="M106.943 332.538c-14.371-6.916-21.772-3.199-22.134-1.701 0-1.812 1.929-4.021 5.779-5.521 5.116-1.995 12.931-2.95 19.648-.78 5.734 1.853 5.851 4.127 4.202 5.122l-5.267 2.964a2.04 2.04 0 0 1-.939.208c-.466 0-.934-.121-1.289-.292"/></clipPath></defs><g clip-path="url(#b)" transform="matrix(4.51721 0 0 -4.51721 -383.098 1606.403)"><path d="M133.51 336.123V336.151v-.028" style="fill:url(#c);stroke:none"/></g><path d="M121.352 337.925v-12.114c-13.258-10.699-31.781-4.621-33.696-3.929-1.128.409-2.264.108-2.686-.904-.333-.799-.171-1.742.675-2.316 17.6-11.945 36.528-7.117 45.968-.687 1.961 1.337 1.897 2.534 1.897 4.435v13.713c-.2.832-2.572 2.349-7.102 2.349-1.461 0-3.146-.158-5.056-.547" style="fill:url(#d);stroke:none" transform="matrix(4.51721 0 0 -4.51721 -383.098 1606.403)"/><g clip-path="url(#e)" transform="matrix(4.51721 0 0 -4.51721 -383.098 1606.403)"><path d="M108.083 342.425c-5.734-1.852-5.851-4.128-4.201-5.122l5.266-2.964c.684-.356 1.623-.208 2.227.083 14.372 6.917 21.774 3.2 22.135 1.701 0 1.813-1.928 4.022-5.779 5.522-3.066 1.196-7.1 2.017-11.287 2.017-2.8 0-5.669-.368-8.361-1.237" style="fill:url(#f);stroke:none"/></g><g clip-path="url(#g)" transform="matrix(4.51721 0 0 -4.51721 -383.098 1606.403)"><path d="m84.809 330.812.001-.003-.001.028z" style="fill:url(#h);stroke:none"/></g><g clip-path="url(#i)" transform="matrix(4.51721 0 0 -4.51721 -383.098 1606.403)"><path d="M86.706 348.985c-1.961-1.337-1.897-2.534-1.897-4.434v-13.714c.265-1.1 4.327-3.397 12.158-1.801v12.114c13.257 10.7 31.782 4.621 33.695 3.929 1.129-.409 2.265-.109 2.687.904.332.8.171 1.741-.676 2.315-7.85 5.328-15.966 7.319-23.385 7.32-9.213 0-17.353-3.07-22.582-6.633" style="fill:url(#j);stroke:none"/></g><g clip-path="url(#k)" transform="matrix(4.51721 0 0 -4.51721 -383.098 1606.403)"><path d="M106.943 332.538c-14.371-6.916-21.772-3.199-22.134-1.701 0-1.812 1.929-4.021 5.779-5.521 5.116-1.995 12.931-2.95 19.648-.78 5.734 1.853 5.851 4.127 4.202 5.122l-5.267 2.964a2.04 2.04 0 0 1-.939.208c-.466 0-.934-.121-1.289-.292" style="fill:url(#l);stroke:none"/></g><path d="M0 0h1.816v-3.89L5.085 0h2.231L3.594-4.267l3.878-4.786H5.097L1.844-4.851h-.028v-4.202H0Z" style="fill:#4c4d4f;fill-opacity:1;fill-rule:nonzero;stroke:none" transform="matrix(4.51721 0 0 -4.51721 275.299 153.392)"/><path d="M0 0c.095-.389.244-.739.448-1.05.204-.309.467-.556.791-.738.324-.183.711-.273 1.161-.273.449 0 .836.09 1.16.273.325.182.589.429.792.738.203.311.352.661.447 1.05.095.391.143.797.143 1.22 0 .415-.05.816-.149 1.201a3.283 3.283 0 0 1-.461 1.037c-.207.307-.473.55-.797.726-.325.178-.703.266-1.135.266-.433 0-.81-.088-1.135-.266a2.225 2.225 0 0 1-.798-.733 3.336 3.336 0 0 1-.46-1.038c-.1-.381-.15-.778-.15-1.193C-.143.797-.095.391 0 0m-.875 4.613C-.102 5.455.991 5.877 2.4 5.877c.7 0 1.327-.113 1.88-.338a3.731 3.731 0 0 0 1.394-.959c.377-.416.664-.908.863-1.479.2-.569.298-1.198.298-1.881 0-.691-.097-1.324-.291-1.894a4.353 4.353 0 0 0-.855-1.492 3.76 3.76 0 0 0-1.395-.978C3.74-3.372 3.109-3.49 2.4-3.49c-1.419 0-2.512.431-3.281 1.286-.77.857-1.155 1.998-1.155 3.424 0 1.418.386 2.547 1.161 3.393" style="fill:#4c4d4f;fill-opacity:1;fill-rule:nonzero;stroke:none" transform="matrix(4.51721 0 0 -4.51721 320.414 179.235)"/><path d="M0 0h.596a5.2 5.2 0 0 1 .72.044c.212.032.41.09.597.175.185.088.332.214.442.385.107.167.16.385.16.653 0 .259-.053.469-.16.629a.992.992 0 0 1-.436.358 2.179 2.179 0 0 1-.59.156 6.299 6.299 0 0 1-.733.039H0Zm-1.817 3.864h1.96c.691 0 1.266-.019 1.725-.058a4.407 4.407 0 0 0 1.271-.291c.388-.156.698-.402.926-.739.23-.337.345-.792.345-1.362A2.07 2.07 0 0 0 3.904.012c-.337-.388-.792-.622-1.362-.699v-.027a.82.82 0 0 0 .557-.285c.155-.172.29-.389.402-.648l1.453-3.541H2.931l-1.09 2.827c-.138.355-.291.599-.46.733-.168.135-.435.2-.799.2H0v-3.76h-1.817z" style="fill:#4c4d4f;fill-opacity:1;fill-rule:nonzero;stroke:none" transform="matrix(4.51721 0 0 -4.51721 365.122 170.85)"/><path d="M0 0h5.344v-1.426H1.816v-2.231h3.23v-1.428h-3.23v-2.54H5.37v-1.428H0Z" style="fill:#4c4d4f;fill-opacity:1;fill-rule:nonzero;stroke:none" transform="matrix(4.51721 0 0 -4.51721 392.244 153.392)"/><path d="M0 0h-.026l-1.31-3.736h2.645Zm-.999 1.815H1.05l3.554-9.053H2.593l-.778 2.075h-3.67l-.791-2.075h-1.881z" style="fill:#4c4d4f;fill-opacity:1;fill-rule:nonzero;stroke:none" transform="matrix(4.51721 0 0 -4.51721 439.882 161.59)"/><path d="M0 0a5.044 5.044 0 0 1-1.136.357 6.246 6.246 0 0 1-1.199.122c-1.03 0-1.833-.305-2.413-.919-.58-.616-.87-1.401-.87-2.361 0-.944.278-1.717.831-2.323.554-.604 1.302-.907 2.244-.907.45 0 .847.043 1.193.131v2.358h-1.919v1.428H.388v-4.877a15.74 15.74 0 0 0-1.536-.343 8.18 8.18 0 0 0-1.395-.126c-1.522 0-2.715.373-3.579 1.119-.451.38-.794.854-1.033 1.425-.237.572-.356 1.232-.356 1.986 0 1.538.441 2.727 1.324 3.572.882.843 2.096 1.265 3.644 1.265.501 0 .969-.032 1.401-.098a9.268 9.268 0 0 0 1.259-.278z" style="fill:#4c4d4f;fill-opacity:1;fill-rule:nonzero;stroke:none" transform="matrix(4.51721 0 0 -4.51721 511.83 161.3)"/><path d="M0 0h-.026l-1.309-3.736H1.31Zm-.998 1.815h2.049l3.555-9.053H2.594l-.777 2.075h-3.672l-.791-2.075h-1.88z" style="fill:#4c4d4f;fill-opacity:1;fill-rule:nonzero;stroke:none" transform="matrix(4.51721 0 0 -4.51721 537.252 161.59)"/><path d="M0 0a4.596 4.596 0 0 1-1.841.388c-.174 0-.343-.021-.506-.063a1.5 1.5 0 0 1-.454-.208 1.055 1.055 0 0 1-.337-.39 1.258 1.258 0 0 1-.131-.596c0-.294.122-.524.364-.687.242-.166.622-.345 1.141-.546.381-.146.699-.28.953-.401.256-.122.501-.282.733-.48.234-.199.422-.449.565-.745.142-.298.214-.662.214-1.085 0-.474-.089-.89-.266-1.244a2.242 2.242 0 0 0-.733-.857 3.31 3.31 0 0 0-1.077-.479 5.317 5.317 0 0 0-1.322-.158c-.416 0-.758.023-1.025.067-.268.044-.636.12-1.102.233l-.196.051.169 1.636c.32-.173.655-.311 1.005-.409.351-.1.699-.149 1.045-.149.398 0 .765.102 1.101.304.338.204.507.491.507.863 0 .336-.128.596-.383.778-.254.182-.655.375-1.199.585-.363.145-.672.28-.921.401a3.235 3.235 0 0 0-.713.473 2.231 2.231 0 0 0-.545.727c-.138.289-.208.636-.208 1.043 0 .486.086.905.26 1.258.172.356.408.643.706.863.298.221.634.384 1.006.487a4.45 4.45 0 0 0 1.193.156c.795 0 1.518-.109 2.166-.326z" style="fill:#4c4d4f;fill-opacity:1;fill-rule:nonzero;stroke:none" transform="matrix(4.51721 0 0 -4.51721 584.123 160.89)"/><path d="M0 0a4.597 4.597 0 0 1-1.842.388c-.173 0-.341-.021-.505-.063a1.517 1.517 0 0 1-.455-.208 1.052 1.052 0 0 1-.336-.39 1.247 1.247 0 0 1-.131-.596c0-.294.122-.524.364-.687.242-.166.623-.345 1.141-.546.381-.146.699-.28.953-.401.256-.122.5-.282.733-.48a2.23 2.23 0 0 0 .564-.745C.629-4.026.7-4.39.7-4.813c0-.474-.088-.89-.266-1.244a2.225 2.225 0 0 0-.733-.857 3.3 3.3 0 0 0-1.075-.479 5.334 5.334 0 0 0-1.324-.158c-.415 0-.757.023-1.025.067-.267.044-.635.12-1.102.233l-.194.051.169 1.636a4.843 4.843 0 0 1 1.004-.409c.35-.1.699-.149 1.044-.149.399 0 .766.102 1.103.304.337.204.506.491.506.863 0 .336-.128.596-.383.778-.255.182-.654.375-1.199.585-.363.145-.671.28-.921.401a3.24 3.24 0 0 0-.714.473 2.215 2.215 0 0 0-.544.727c-.138.289-.208.636-.208 1.043 0 .486.086.905.26 1.258.172.356.408.643.706.863.298.221.633.384 1.006.487.371.103.769.156 1.192.156.796 0 1.518-.109 2.167-.326z" style="fill:#4c4d4f;fill-opacity:1;fill-rule:nonzero;stroke:none" transform="matrix(4.51721 0 0 -4.51721 630.644 160.89)"/><path d="M0 0h-.026l-1.311-3.736h2.645Zm-.999 1.815h2.048l3.555-9.053H2.593l-.779 2.075h-3.67l-.791-2.075h-1.882z" style="fill:#4c4d4f;fill-opacity:1;fill-rule:nonzero;stroke:none" transform="matrix(4.51721 0 0 -4.51721 656.312 161.59)"/><path d="M0 0h5.033v-1.426H1.816v-2.231h3.062v-1.428H1.816v-3.968H0Z" style="fill:#4c4d4f;fill-opacity:1;fill-rule:nonzero;stroke:none" transform="matrix(4.51721 0 0 -4.51721 681.207 153.392)"/><path d="M0 0h5.344v-1.426H1.816v-2.231h3.231v-1.428H1.816v-2.54H5.37v-1.428H0Z" style="fill:#4c4d4f;fill-opacity:1;fill-rule:nonzero;stroke:none" transform="matrix(4.51721 0 0 -4.51721 709.328 153.392)"/><path d="M0 0h-2.595v1.426H4.41V0H1.816v-7.627H0Z" style="fill:#4c4d4f;fill-opacity:1;fill-rule:nonzero;stroke:none" transform="matrix(4.51721 0 0 -4.51721 748.178 159.833)"/><path d="m0 0-3.307 5.474h2.127L.959 1.673l2.179 3.801h1.92L1.815 0v-3.579H0Z" style="fill:#4c4d4f;fill-opacity:1;fill-rule:nonzero;stroke:none" transform="matrix(4.51721 0 0 -4.51721 782.978 178.118)"/><path d="M0 0a14.847 14.847 0 0 0-1.07-.208 6.6 6.6 0 0 0-.993-.079c-1.522 0-2.715.373-3.58 1.118a3.7 3.7 0 0 0-1.031 1.426c-.236.571-.356 1.232-.356 1.986 0 1.537.44 2.727 1.322 3.572.883.843 2.097 1.265 3.645 1.265.321 0 .664-.033 1.032-.099a5.406 5.406 0 0 0 1.018-.278l-.13-1.53a3.491 3.491 0 0 1-.947.377 4.67 4.67 0 0 1-1.012.102 3.13 3.13 0 0 1-1.251-.245 2.711 2.711 0 0 1-.96-.695 3.207 3.207 0 0 1-.61-1.043 3.817 3.817 0 0 1-.214-1.298c0-.944.278-1.717.83-2.322.554-.605 1.302-.908 2.244-.908.364 0 .731.035 1.103.104.371.069.666.16.883.272z" style="fill:#4c4d4f;fill-opacity:1;fill-rule:nonzero;stroke:none" transform="matrix(4.51721 0 0 -4.51721 854.928 193.7)"/><path d="M0 0a3.39 3.39 0 0 1 .448-1.05c.204-.309.467-.556.791-.738.324-.183.71-.273 1.161-.273.45 0 .836.09 1.161.273.324.182.588.429.792.738.202.311.351.661.446 1.05.095.391.143.797.143 1.22 0 .415-.05.816-.149 1.201-.1.385-.252.731-.46 1.037a2.25 2.25 0 0 1-.798.726c-.324.178-.703.266-1.135.266-.432 0-.811-.088-1.135-.266a2.233 2.233 0 0 1-.798-.733 3.383 3.383 0 0 1-.46-1.038c-.1-.381-.15-.778-.15-1.193C-.143.797-.094.391 0 0m-.875 4.613C-.102 5.455.99 5.877 2.4 5.877c.701 0 1.327-.113 1.881-.338a3.72 3.72 0 0 0 1.393-.959c.378-.416.665-.908.864-1.479a5.7 5.7 0 0 0 .298-1.881c0-.691-.098-1.324-.292-1.894a4.355 4.355 0 0 0-.856-1.492 3.743 3.743 0 0 0-1.395-.978C3.74-3.372 3.109-3.49 2.4-3.49c-1.418 0-2.512.431-3.282 1.286-.769.857-1.154 1.998-1.154 3.424 0 1.418.387 2.547 1.161 3.393" style="fill:#4c4d4f;fill-opacity:1;fill-rule:nonzero;stroke:none" transform="matrix(4.51721 0 0 -4.51721 866.993 179.235)"/><path d="M0 0h.597c.268 0 .508.014.72.044.212.032.409.09.597.175.185.088.333.214.441.385.108.167.161.385.161.653 0 .259-.053.469-.161.629a.973.973 0 0 1-.435.358 2.179 2.179 0 0 1-.59.156 6.299 6.299 0 0 1-.733.039H0Zm-1.816 3.864H.143c.692 0 1.267-.019 1.725-.058a4.406 4.406 0 0 0 1.272-.291c.389-.156.697-.402.927-.739.228-.337.344-.792.344-1.362 0-.546-.169-1.012-.507-1.402-.337-.388-.79-.622-1.361-.699v-.027A.82.82 0 0 0 3.1-.999c.156-.172.289-.389.403-.648l1.452-3.541H2.932l-1.09 2.827c-.139.355-.292.599-.461.733-.167.135-.433.2-.797.2H0v-3.76h-1.816z" style="fill:#4c4d4f;fill-opacity:1;fill-rule:nonzero;stroke:none" transform="matrix(4.51721 0 0 -4.51721 911.697 170.85)"/><path d="M0 0h.636c.519 0 .935.104 1.252.312.315.208.472.551.472 1.037 0 .492-.16.852-.479 1.077-.321.225-.735.338-1.245.338H0Zm-1.817 4.189H.48c.526 0 1.014-.043 1.458-.129a3.66 3.66 0 0 0 1.194-.442c.35-.205.624-.49.824-.849.199-.358.299-.795.299-1.315 0-.511-.09-.953-.266-1.324a2.361 2.361 0 0 0-.734-.901 3.1 3.1 0 0 0-1.103-.501 5.972 5.972 0 0 0-1.388-.154H0v-3.437h-1.817z" style="fill:#4c4d4f;fill-opacity:1;fill-rule:nonzero;stroke:none" transform="matrix(4.51721 0 0 -4.51721 946.327 172.317)"/><path d="M0 0c.095-.389.245-.739.447-1.05.205-.309.468-.556.792-.738.324-.183.712-.273 1.16-.273.45 0 .837.09 1.161.273.324.182.589.429.792.738.203.311.352.661.447 1.05.095.391.143.797.143 1.22 0 .415-.05.816-.149 1.201-.1.385-.253.731-.461 1.037-.207.307-.473.55-.797.726-.325.178-.704.266-1.136.266-.431 0-.81-.088-1.134-.266a2.233 2.233 0 0 1-.798-.733 3.334 3.334 0 0 1-.459-1.038 4.633 4.633 0 0 1-.15-1.193C-.142.797-.095.391 0 0m-.876 4.613c.774.842 1.866 1.264 3.275 1.264.702 0 1.328-.113 1.881-.338a3.751 3.751 0 0 0 1.395-.959 4.27 4.27 0 0 0 .862-1.479 5.674 5.674 0 0 0 .298-1.881c0-.691-.097-1.324-.291-1.894a4.355 4.355 0 0 0-.856-1.492 3.751 3.751 0 0 0-1.395-.978c-.552-.228-1.184-.346-1.894-.346-1.417 0-2.511.431-3.281 1.286-.77.857-1.154 1.998-1.154 3.424 0 1.418.387 2.547 1.16 3.393" style="fill:#4c4d4f;fill-opacity:1;fill-rule:nonzero;stroke:none" transform="matrix(4.51721 0 0 -4.51721 977.436 179.235)"/><path d="M0 0h.595c.269 0 .509.014.721.044.212.032.41.09.596.175.186.088.333.214.441.385.108.167.162.385.162.653 0 .259-.054.469-.162.629a.97.97 0 0 1-.434.358 2.192 2.192 0 0 1-.589.156 6.348 6.348 0 0 1-.735.039H0Zm-1.817 3.864H.142c.692 0 1.267-.019 1.725-.058a4.392 4.392 0 0 0 1.271-.291c.389-.156.698-.402.928-.739.229-.337.343-.792.343-1.362 0-.546-.168-1.012-.506-1.402-.336-.388-.791-.622-1.362-.699v-.027A.824.824 0 0 0 3.1-.999a2.36 2.36 0 0 0 .401-.648l1.453-3.541H2.93L1.841-2.361c-.138.355-.292.599-.46.733-.168.135-.435.2-.798.2H0v-3.76h-1.817z" style="fill:#4c4d4f;fill-opacity:1;fill-rule:nonzero;stroke:none" transform="matrix(4.51721 0 0 -4.51721 1022.145 170.85)"/><path d="M0 0h-.026l-1.31-3.736H1.31Zm-.998 1.815h2.049l3.554-9.053H2.594l-.778 2.075h-3.671l-.791-2.075h-1.881z" style="fill:#4c4d4f;fill-opacity:1;fill-rule:nonzero;stroke:none" transform="matrix(4.51721 0 0 -4.51721 1065.495 161.59)"/><path d="M0 0h-2.594v1.426H4.41V0H1.816v-7.627H0Z" style="fill:#4c4d4f;fill-opacity:1;fill-rule:nonzero;stroke:none" transform="matrix(4.51721 0 0 -4.51721 1093.153 159.833)"/><path d="M580.196-22.676h8.203v40.894h-8.203z" style="fill:#4c4d4f;fill-opacity:1;fill-rule:nonzero;stroke:none;stroke-width:4.5172" transform="translate(536.217 176.067)"/><path d="M0 0c.095-.389.244-.739.448-1.05.203-.309.467-.556.791-.738.323-.183.711-.273 1.161-.273.449 0 .835.09 1.16.273.325.182.588.429.791.738.203.311.352.661.448 1.05.095.391.143.797.143 1.22 0 .415-.051.816-.15 1.201-.1.385-.253.731-.46 1.037-.208.307-.473.55-.798.726-.324.178-.703.266-1.134.266-.433 0-.811-.088-1.135-.266a2.245 2.245 0 0 1-.799-.733 3.383 3.383 0 0 1-.46-1.038A4.676 4.676 0 0 1-.143 1.22C-.143.797-.095.391 0 0m-.876 4.613C-.102 5.455.991 5.877 2.4 5.877c.7 0 1.327-.113 1.88-.338a3.743 3.743 0 0 0 1.395-.959 4.27 4.27 0 0 0 .862-1.479 5.7 5.7 0 0 0 .298-1.881c0-.691-.097-1.324-.291-1.894a4.341 4.341 0 0 0-.857-1.492 3.727 3.727 0 0 0-1.395-.978C3.74-3.372 3.109-3.49 2.4-3.49c-1.418 0-2.512.431-3.283 1.286-.768.857-1.154 1.998-1.154 3.424 0 1.418.387 2.547 1.161 3.393" style="fill:#4c4d4f;fill-opacity:1;fill-rule:nonzero;stroke:none" transform="matrix(4.51721 0 0 -4.51721 1139.44 179.235)"/><path d="M0 0h2.23l3.45-6.771h.027V0h1.738v-9.053H5.226L1.764-2.282h-.026v-6.771H0Z" style="fill:#4c4d4f;fill-opacity:1;fill-rule:nonzero;stroke:none" transform="matrix(4.51721 0 0 -4.51721 1176.235 153.392)"/><path d="M0 0c.221.875.332 1.698.332 2.472v6.204h-18.931V6.121h14.542V2.372c0-.796-.039-1.564-.116-2.305a8.896 8.896 0 0 0-.415-1.974h-17.063v-2.556h10.307v-4.378h-7.353v-2.522h14.574v-7.431h2.843c.854 0 1.546.692 1.546 1.546v8.407h-7.221v4.378H3.55v2.556H-.763C-.475-1.509-.222-.873 0 0" style="fill:#4c4d4f;fill-opacity:1;fill-rule:nonzero;stroke:none" transform="matrix(4.51721 0 0 -4.51721 477.525 46.298)"/><path d="M0 0h8.925s.205-4.013-.789-6.408C6.079-11.368.968-12.602 0-12.823v-2.427c4.291.437 9.841 2.765 12.222 8.008.805 1.771 1.324 4.678 1.324 7.044v2.754H0Z" style="fill:#4c4d4f;fill-opacity:1;fill-rule:nonzero;stroke:none" transform="matrix(4.51721 0 0 -4.51721 503.367 18.65)"/><path d="M0 0h-4.344v-27.47h2.798c.854 0 1.546.692 1.546 1.545v16.864h4.443v2.79H0Z" style="fill:#4c4d4f;fill-opacity:1;fill-rule:nonzero;stroke:none" transform="matrix(4.51721 0 0 -4.51721 600.418 7.106)"/><path d="M0 0h5.108v-11.167h2.798c.854 0 1.546.692 1.546 1.546V9.137H5.108V2.734H0Z" style="fill:#4c4d4f;fill-opacity:1;fill-rule:nonzero;stroke:none" transform="matrix(4.51721 0 0 -4.51721 927.04 48.38)"/><path d="M0 0v6.568h-4.345v-27.47h2.799c.854 0 1.546.692 1.546 1.546v16.654h4.353V0Z" style="fill:#4c4d4f;fill-opacity:1;fill-rule:nonzero;stroke:none" transform="matrix(4.51721 0 0 -4.51721 1209.845 36.775)"/><path d="M85.728-61.438H199.3v-11.79H85.728Z" style="fill:#4c4d4f;fill-opacity:1;fill-rule:nonzero;stroke:none;stroke-width:4.5172" transform="translate(536.217 176.067)"/><path d="M0 0c2.545-4.261 8.028-5.699 11.271-5.859v2.363c-.768.111-5.929 1.578-8.085 5.815-.588 1.156-.93 2.395-.93 3.766v3.503h-4.512V6.085c0-1.371-.341-2.61-.929-3.766-2.157-4.237-7.318-5.704-8.086-5.815v-2.363C-8.027-5.699-2.545-4.261 0 0" style="fill:#4c4d4f;fill-opacity:1;fill-rule:nonzero;stroke:none" transform="matrix(4.51721 0 0 -4.51721 678.655 50.417)"/><path d="M0 0v5.276h-4.491V0c0-5.26-2.393-8.31-6.037-9.812v-2.689c1.739.233 6.568 1.86 8.282 5.926 1.715-4.066 6.543-5.693 8.283-5.926v2.689C2.393-8.31 0-5.26 0 0" style="fill:#4c4d4f;fill-opacity:1;fill-rule:nonzero;stroke:none" transform="matrix(4.51721 0 0 -4.51721 1153.629 30.937)"/><path d="M0 0c1.648-3.974 6.396-5.394 8.227-5.538v2.683c-1.593.437-5.998 2.97-5.998 8.926v1.591h5.136v2.556H-7.333V7.662h5.104V6.071c0-5.956-4.404-8.489-5.997-8.926v-2.683C-6.396-5.394-1.647-3.974 0 0" style="fill:#4c4d4f;fill-opacity:1;fill-rule:nonzero;stroke:none" transform="matrix(4.51721 0 0 -4.51721 901.158 53.262)"/><path d="M0 0h-4.389v-6.735c0-.929.293-1.66.879-2.19.586-.531 1.333-.796 2.239-.796h15.58v2.554H0Z" style="fill:#4c4d4f;fill-opacity:1;fill-rule:nonzero;stroke:none" transform="matrix(4.51721 0 0 -4.51721 907.807 87.282)"/><path d="M0 0h-4.361v-20.304h2.815c.854 0 1.546.692 1.546 1.546V-8.54h4.436v2.734H0Z" style="fill:#4c4d4f;fill-opacity:1;fill-rule:nonzero;stroke:none" transform="matrix(4.51721 0 0 -4.51721 836.97 7.106)"/><path d="M0 0h-4.389v-6.735c0-.929.293-1.66.879-2.19.586-.531 1.333-.796 2.239-.796h15.58v2.554H0Z" style="fill:#4c4d4f;fill-opacity:1;fill-rule:nonzero;stroke:none" transform="matrix(4.51721 0 0 -4.51721 776.831 87.282)"/><path d="M0 0c0 2.526 1.397 4.574 3.121 4.574S6.242 2.526 6.242 0 4.845-4.574 3.121-4.574 0-2.526 0 0m10.768 0c0 3.976-3.424 7.2-7.647 7.2-4.224 0-7.647-3.224-7.647-7.2s3.423-7.2 7.647-7.2c4.223 0 7.647 3.224 7.647 7.2" style="fill:#4c4d4f;fill-opacity:1;fill-rule:nonzero;stroke:none" transform="matrix(4.51721 0 0 -4.51721 755.12 37.767)"/><path d="M0 0c.242.885.366 1.748.366 2.59v7.455h-18.998V7.518h14.609V2.456c0-.797-.04-1.565-.118-2.307a7.132 7.132 0 0 0-.384-1.717h-4.653V4.47h-4.39v-6.038h-8.083v-2.555h25.2v2.555H-.633C-.402-1.213-.191-.693 0 0" style="fill:#4c4d4f;fill-opacity:1;fill-rule:nonzero;stroke:none" transform="matrix(4.51721 0 0 -4.51721 1082.236 52.484)"/><path d="M0 0c-1.57 0-2.843 1.676-2.843 3.743S-1.57 7.485 0 7.485 2.843 5.81 2.843 3.743 1.57 0 0 0m0 10.064c-4.082 0-7.392-2.83-7.392-6.321 0-3.491 3.31-6.321 7.392-6.321 4.082 0 7.392 2.83 7.392 6.321 0 3.491-3.31 6.321-7.392 6.321" style="fill:#4c4d4f;fill-opacity:1;fill-rule:nonzero;stroke:none" transform="matrix(4.51721 0 0 -4.51721 1043.347 123.604)"/><path d="M0 0h-4.389v-5.904c0-.93.286-1.66.862-2.191.575-.53 1.316-.796 2.224-.796h15.526v2.556H0Z" style="fill:#4c4d4f;fill-opacity:1;fill-rule:nonzero;stroke:none" transform="matrix(4.51721 0 0 -4.51721 295.125 90.884)"/><path d="M0 0h-4.344v-20.305h2.798c.854 0 1.546.692 1.546 1.546v9.687h4.174v2.734H0Z" style="fill:#4c4d4f;fill-opacity:1;fill-rule:nonzero;stroke:none" transform="matrix(4.51721 0 0 -4.51721 355.025 6.951)"/><path d="M0 0c0 2.068 1.06 3.745 2.368 3.745 1.308 0 2.368-1.677 2.368-3.745s-1.06-3.745-2.368-3.745C1.06-3.745 0-2.068 0 0m9.302 0c0 1.933-.985 3.66-2.53 4.8h3.493v2.556H4.546v2.918H.157V7.356h-5.718V4.8h3.525c-1.545-1.14-2.53-2.867-2.53-4.8 0-3.432 3.104-6.214 6.934-6.214S9.302-3.432 9.302 0" style="fill:#4c4d4f;fill-opacity:1;fill-rule:nonzero;stroke:none" transform="matrix(4.51721 0 0 -4.51721 277.788 51.41)"/></svg>