<svg xmlns="http://www.w3.org/2000/svg" id="_레이어_1" version="1.1" viewBox="0 0 1636.0392642 241.2948592"><defs><style>.st0{fill:#bed600}</style></defs><path d="M550.078 27.376v156.268h-113.76a7.91 7.91 0 0 1-7.92-7.898V137.39H381.73v68.753c-.005 13.114 10.621 23.749 23.735 23.754h191.292V27.376zM656.761 27.377h46.67v202.522h-46.67zM954.717 27.376H763.86v202.522h46.669V73.63H924.29a7.91 7.91 0 0 1 7.918 7.899v148.37h46.67V51.13c-.211-13.182-10.958-23.757-24.141-23.755M199.621 119.884l-6.663-5.002-19.998-13.75v-7.465c.089-10.35-.882-20.68-2.897-30.832 0-.83-.415-2.086-.415-2.897-.415-.83-.415-2.086-.83-3.332a25.3 25.3 0 0 1 4.17-2.896 338.4 338.4 0 0 1 85.43-46.254c.83-.416 2.086-.83 2.897-1.246.416 0 .83-.415 1.246-.415A112.1 112.1 0 0 1 293.819 0h1.245c11.768-.107 21.854 8.385 23.755 19.998a2.5 2.5 0 0 0 .415 1.67 185 185 0 0 1 1.67 26.256 215.4 215.4 0 0 1-5.793 49.586v.83a73.26 73.26 0 0 1-29.172 42.488 77.1 77.1 0 0 1-37.505 13.75zM182.124 192.394l-16.252-10.835-.415-.415.415-3.332 2.501-18.752.415-1.67 3.747-25.416 8.749 3.747 18.347 7.502 7.503 2.897 38.335 15.837a60.35 60.35 0 0 1 15.45 22.499c.045.315.19.606.416.83q0 .416.415.83c.415.831.415 1.671.83 2.502.424 1.068.704 2.189.83 3.331.97 4.52 1.111 9.18.416 13.75a31.4 31.4 0 0 1-3.737 12.12c-8.95 18.885-30.66 28.03-50.425 21.244h-.416c-.415 0-.83-.416-1.245-.416a.406.406 0 0 1-.415-.415c-2.086-.83-4.172-1.67-5.794-2.5a66.12 66.12 0 0 1-31.673-37.09l12.08 2.085 4.587.83v-6.247zM1314.338 27.377h46.67v202.522h-46.67zM1062.646 27.376c-13.114-.005-23.75 10.621-23.754 23.735v178.787h46.669v-63.336h122.094v63.336h46.67V27.376zm22.924 54.172a7.91 7.91 0 0 1 7.899-7.918h113.78v46.669h-122.104V81.548zM1612.294 27.376h-191.273v202.522h46.254V73.63h114.177a7.91 7.91 0 0 1 7.918 7.899v38.355h46.67V51.13c-.142-13.06-10.695-23.614-23.755-23.755M121.289 119.884l6.663-5.002 19.998-13.75v-7.465c-.089-10.35.882-20.68 2.897-30.832 0-.83.415-2.086.415-2.897.415-.83.415-2.086.83-3.332a25.3 25.3 0 0 0-4.171-2.896 338.4 338.4 0 0 0-85.43-46.254c-.83-.416-2.085-.83-2.896-1.246-.416 0-.83-.415-1.246-.415A112.1 112.1 0 0 0 27.09 0h-1.245C14.078-.106 3.992 8.386 2.09 19.999a2.5 2.5 0 0 1-.415 1.67 185 185 0 0 0-1.67 26.256 215.4 215.4 0 0 0 5.793 49.586v.83a73.26 73.26 0 0 0 29.172 42.488 77.1 77.1 0 0 0 37.505 13.75zM138.37 192.394l16.252-10.835.416-.415-.416-3.332-2.5-18.752-.416-1.67-3.775-25.416-8.749 3.747-18.347 7.503-7.503 2.896-37.505 15.837a60.35 60.35 0 0 0-15.45 22.5c-.044.314-.19.605-.415.83q0 .415-.416.83c-.415.83-.415 1.67-.83 2.5a12.9 12.9 0 0 0-.83 3.332c-.97 4.52-1.111 9.18-.416 13.751a31.4 31.4 0 0 0 3.747 12.08c8.95 18.885 30.66 28.031 50.425 21.244h.415c.416 0 .83-.415 1.246-.415a.406.406 0 0 0 .415-.415c2.086-.83 4.172-1.671 5.794-2.501a66.12 66.12 0 0 0 31.673-37.09l-11.945 2.124-4.587.83v-6.247z" class="st0"/></svg>