<svg width="72" height="42" viewBox="0 0 72 42" fill="none" xmlns="http://www.w3.org/2000/svg">
<rect width="72" height="42" fill="white"/>
<path d="M54.1985 31.0694L54.2553 31.0978L54.1985 31.254C54.0092 31.7555 53.7254 32.1435 53.3469 32.4179C52.9778 32.6923 52.5331 32.8295 52.0126 32.8295C51.5016 32.8295 51.0474 32.697 50.65 32.4321C50.2526 32.1671 49.9403 31.7981 49.7132 31.3249C49.4955 30.8518 49.3867 30.3077 49.3867 29.6926C49.3867 29.0775 49.505 28.5287 49.7416 28.0461C49.9781 27.5635 50.3141 27.1897 50.7493 26.9248C51.1846 26.6598 51.6814 26.5273 52.2397 26.5273C52.9021 26.5273 53.4084 26.7261 53.7585 27.1235C54.1181 27.5115 54.3026 28.0792 54.3121 28.8268L54.2269 28.8978L50.3945 28.8978C50.3756 29.1438 50.3661 29.3378 50.3661 29.4797C50.3661 30.3408 50.5412 30.9985 50.8913 31.4527C51.2414 31.8974 51.7287 32.1198 52.3533 32.1198C52.675 32.1198 52.9825 32.0488 53.2759 31.9069C53.5787 31.7555 53.8437 31.5331 54.0708 31.2398L54.1985 31.0694ZM52.0836 26.6835C51.6388 26.6835 51.2698 26.868 50.9765 27.237C50.6831 27.6061 50.4939 28.1076 50.4087 28.7416L53.1623 28.6423C53.1907 28.5287 53.2049 28.3395 53.2049 28.0745C53.2049 27.5635 53.1056 27.2039 52.9068 26.9957C52.7176 26.7876 52.4432 26.6835 52.0836 26.6835Z" fill="#252525"/>
<path d="M46.0451 32.5593C45.7423 32.7391 45.4111 32.829 45.0515 32.829C44.6068 32.829 44.2046 32.6965 43.845 32.4315C43.4854 32.1666 43.2016 31.807 42.9934 31.3528C42.7947 30.8891 42.6953 30.3687 42.6953 29.7915C42.6953 29.1575 42.8183 28.5944 43.0644 28.1024C43.3198 27.6008 43.6747 27.2129 44.1289 26.9384C44.5926 26.664 45.1178 26.5268 45.7045 26.5268C46.0735 26.5268 46.4425 26.5836 46.8116 26.6971L46.8116 23.4183L45.9741 23.1061V23.0067L47.6206 22.4531H47.7342L47.7342 31.807L48.5149 31.9773V32.0483L46.9677 32.758H46.8826V31.7928L46.84 31.7786C46.6223 32.1193 46.3574 32.3795 46.0451 32.5593ZM44.1857 31.5515C44.5169 32.0247 44.9711 32.2612 45.5483 32.2612C45.8227 32.2612 46.0688 32.2044 46.2864 32.0909C46.5135 31.9679 46.6886 31.8023 46.8116 31.5941L46.8116 27.9604C46.8116 27.5441 46.7122 27.2271 46.5135 27.0094C46.3243 26.7823 46.0498 26.6688 45.6903 26.6688C45.0941 26.6688 44.6115 26.9384 44.2425 27.4778C43.8829 28.0077 43.7031 28.7127 43.7031 29.5927C43.7031 30.416 43.864 31.0689 44.1857 31.5515Z" fill="#252525"/>
<path d="M41.9015 32.574V32.6876L39.2614 32.6876L39.2614 32.574L40.1272 32.4605L40.1272 28.841C40.1272 28.4719 40.1178 28.1975 40.0988 28.0177C40.0799 27.8379 40.0421 27.6865 39.9853 27.5635C39.9096 27.4026 39.7818 27.2796 39.602 27.1945C39.4317 27.0998 39.233 27.0525 39.0059 27.0525C38.5233 27.0525 38.0927 27.256 37.7142 27.6629L37.7142 32.4605L38.5801 32.574L38.5801 32.6876L35.9258 32.6876V32.574L36.7916 32.4605L36.7916 27.5635L35.9542 27.2512V27.1519L37.5581 26.5983H37.6717V27.4925C38.2773 26.8491 38.9113 26.5273 39.5737 26.5273C39.867 26.5273 40.132 26.5936 40.3685 26.7261C40.6146 26.8491 40.7896 27.0147 40.8937 27.2229C40.9599 27.3459 41.0025 27.5162 41.0214 27.7338C41.0404 27.942 41.0498 28.3111 41.0498 28.841L41.0498 32.4605L41.9015 32.574Z" fill="#252525"/>
<path d="M32.1971 26.5273C32.746 26.5273 33.2333 26.6598 33.6591 26.9248C34.0849 27.1897 34.4161 27.5635 34.6527 28.0461C34.8893 28.5192 35.0076 29.0633 35.0076 29.6784C35.0076 30.2935 34.8893 30.8423 34.6527 31.3249C34.4161 31.7981 34.0849 32.1671 33.6591 32.4321C33.2333 32.697 32.746 32.8295 32.1971 32.8295C31.6483 32.8295 31.161 32.697 30.7352 32.4321C30.3093 32.1671 29.9781 31.7981 29.7416 31.3249C29.505 30.8423 29.3867 30.2935 29.3867 29.6784C29.3867 29.0633 29.505 28.5192 29.7416 28.0461C29.9781 27.5635 30.3093 27.1897 30.7352 26.9248C31.161 26.6598 31.6483 26.5273 32.1971 26.5273ZM30.4371 29.6784C30.4371 30.6247 30.5932 31.3628 30.9055 31.8927C31.2177 32.4226 31.6483 32.6876 32.1971 32.6876C32.746 32.6876 33.1765 32.4226 33.4888 31.8927C33.8011 31.3628 33.9572 30.6247 33.9572 29.6784C33.9572 28.7322 33.8011 27.9941 33.4888 27.4642C33.1765 26.9342 32.746 26.6693 32.1971 26.6693C31.6483 26.6693 31.2177 26.9342 30.9055 27.4642C30.5932 27.9941 30.4371 28.7322 30.4371 29.6784Z" fill="#252525"/>
<path d="M27.5982 23.1207L27.5982 32.4604L28.8331 32.5739V32.6875L25.3414 32.6875V32.5739L26.5053 32.4604L26.5053 23.8162H26.4485L23.0278 32.9146H22.8858L19.0676 23.802H19.0108L19.0108 31.8216C19.0108 32.0487 19.0392 32.2096 19.096 32.3042C19.1528 32.3894 19.2663 32.4414 19.4367 32.4604L20.4444 32.5739V32.6875L17.3359 32.6875V32.5739L18.3579 32.4604C18.5282 32.4414 18.6418 32.3894 18.6986 32.3042C18.7553 32.2096 18.7837 32.0487 18.7837 31.8216L18.7837 23.3052C18.7175 23.1916 18.6323 23.1159 18.5282 23.0781C18.4336 23.0308 18.2917 23.0071 18.1024 23.0071H17.4495V22.8936L19.8767 22.8936L23.3684 31.2255H23.4252L26.5479 22.8936L28.8331 22.8936V23.0071L27.5982 23.1207Z" fill="#252525"/>
<path d="M62.6261 18.6103V18.6813L61.0789 19.391H60.9938L60.9938 18.4258L60.9512 18.4116C60.3929 19.1119 59.792 19.462 59.1485 19.462C58.8552 19.462 58.595 19.4005 58.3679 19.2775C58.1407 19.1544 57.9752 18.9841 57.8711 18.7665C57.8048 18.6435 57.7622 18.4779 57.7433 18.2697C57.7244 18.052 57.7149 17.6783 57.7149 17.1483L57.7149 13.5289L56.8633 13.4153V13.3018L58.6375 13.3018L58.6375 17.1483C58.6375 17.5269 58.647 17.806 58.6659 17.9858C58.6849 18.1561 58.7227 18.3028 58.7795 18.4258C58.8457 18.5772 58.9545 18.7002 59.1059 18.7949C59.2668 18.88 59.4466 18.9226 59.6453 18.9226C59.8819 18.9226 60.109 18.8658 60.3266 18.7523C60.5443 18.6293 60.743 18.4542 60.9228 18.2271L60.9228 13.5289L60.0711 13.4153V13.3018L61.8454 13.3018L61.8454 18.44L62.6261 18.6103Z" fill="#252525"/>
<path d="M53.2753 13.1592C53.8241 13.1592 54.3114 13.2917 54.7373 13.5566C55.1631 13.8216 55.4943 14.1953 55.7308 14.6779C55.9674 15.1511 56.0857 15.6952 56.0857 16.3103C56.0857 16.9253 55.9674 17.4742 55.7308 17.9568C55.4943 18.4299 55.1631 18.799 54.7373 19.0639C54.3114 19.3289 53.8241 19.4613 53.2753 19.4613C52.7264 19.4613 52.2391 19.3289 51.8133 19.0639C51.3875 18.799 51.0563 18.4299 50.8197 17.9568C50.5831 17.4742 50.4648 16.9253 50.4648 16.3103C50.4648 15.6952 50.5831 15.1511 50.8197 14.6779C51.0563 14.1953 51.3875 13.8216 51.8133 13.5566C52.2391 13.2917 52.7264 13.1592 53.2753 13.1592ZM51.5152 16.3103C51.5152 17.2565 51.6713 17.9946 51.9836 18.5245C52.2959 19.0544 52.7264 19.3194 53.2753 19.3194C53.8241 19.3194 54.2547 19.0544 54.5669 18.5245C54.8792 17.9946 55.0353 17.2565 55.0353 16.3103C55.0353 15.364 54.8792 14.6259 54.5669 14.096C54.2547 13.5661 53.8241 13.3011 53.2753 13.3011C52.7264 13.3011 52.2959 13.5661 51.9836 14.096C51.6713 14.6259 51.5152 15.364 51.5152 16.3103Z" fill="#252525"/>
<path d="M49.6881 19.2053V19.3189L47.0338 19.3189V19.2053L47.8996 19.0918V15.4723C47.8996 15.0843 47.8902 14.8052 47.8712 14.6348C47.8523 14.455 47.8144 14.3084 47.7577 14.1948C47.682 14.034 47.559 13.9109 47.3886 13.8258C47.2183 13.7311 47.0196 13.6838 46.7925 13.6838C46.3004 13.6838 45.8746 13.8873 45.515 14.2942L45.515 19.0918L46.3809 19.2053V19.3189L43.7266 19.3189V19.2053L44.5924 19.0918L44.5924 10.0502L43.755 9.73789V9.63853L45.4015 9.08496H45.515L45.515 14.0813C45.8084 13.7785 46.1112 13.5514 46.4234 13.4C46.7452 13.2391 47.0622 13.1587 47.3744 13.1587C47.6583 13.1587 47.9138 13.2202 48.1409 13.3432C48.3775 13.4662 48.5525 13.6365 48.6661 13.8542C48.7323 13.9772 48.7749 14.1475 48.7938 14.3651C48.8128 14.5733 48.8222 14.9424 48.8222 15.4723V19.0918L49.6881 19.2053Z" fill="#252525"/>
<path d="M39.6283 13.5708C40.0541 13.2964 40.5367 13.1592 41.076 13.1592C41.606 13.1592 42.0507 13.2775 42.4103 13.514C42.7793 13.7506 42.9639 14.0439 42.9639 14.3941C42.9639 14.5549 42.9165 14.6874 42.8219 14.7915C42.7273 14.8861 42.5995 14.9334 42.4387 14.9334C42.2494 14.9334 42.1169 14.8767 42.0412 14.7631C41.975 14.6401 41.9135 14.4508 41.8567 14.1953C41.7905 13.902 41.7053 13.6796 41.6012 13.5282C41.4971 13.3768 41.3032 13.3011 41.0193 13.3011C40.6786 13.3011 40.3711 13.4241 40.0967 13.6702C39.8222 13.9162 39.6046 14.2569 39.4437 14.6921C39.2923 15.1274 39.2166 15.6195 39.2166 16.1683C39.2166 16.9916 39.3917 17.6303 39.7418 18.0845C40.0919 18.5387 40.5887 18.7658 41.2322 18.7658C41.5823 18.7658 41.8946 18.6949 42.169 18.5529C42.4529 18.4015 42.7131 18.1744 42.9497 17.8716L43.0774 17.7013L43.1342 17.7297L43.0774 17.8858C42.8882 18.3873 42.5995 18.7753 42.2116 19.0497C41.8331 19.3241 41.3836 19.4613 40.8631 19.4613C40.3616 19.4613 39.9121 19.3336 39.5147 19.0781C39.1267 18.8131 38.8192 18.4488 38.5921 17.9852C38.3744 17.512 38.2656 16.9774 38.2656 16.3812C38.2656 15.7662 38.3839 15.2126 38.6205 14.7205C38.8665 14.2285 39.2024 13.8452 39.6283 13.5708Z" fill="#252525"/>
<path d="M37.38 18.6103V18.6813L35.8328 19.391H35.7477L35.7477 18.4258L35.7051 18.4116C35.1468 19.1119 34.5459 19.462 33.9024 19.462C33.6091 19.462 33.3489 19.4005 33.1218 19.2775C32.8947 19.1544 32.7291 18.9841 32.625 18.7665C32.5587 18.6435 32.5161 18.4779 32.4972 18.2697C32.4783 18.052 32.4688 17.6783 32.4688 17.1483L32.4688 13.5289L31.6172 13.4153V13.3018L33.3914 13.3018L33.3914 17.1483C33.3914 17.5269 33.4009 17.806 33.4198 17.9858C33.4388 18.1561 33.4766 18.3028 33.5334 18.4258C33.5996 18.5772 33.7084 18.7002 33.8599 18.7949C34.0207 18.88 34.2005 18.9226 34.3992 18.9226C34.6358 18.9226 34.8629 18.8658 35.0805 18.7523C35.2982 18.6293 35.4969 18.4542 35.6767 18.2271L35.6767 13.5289L34.825 13.4153V13.3018L36.5993 13.3018L36.5993 18.44L37.38 18.6103Z" fill="#252525"/>
<path d="M28.037 13.1592C28.5858 13.1592 29.0732 13.2917 29.499 13.5566C29.9248 13.8216 30.256 14.1953 30.4926 14.6779C30.7291 15.1511 30.8474 15.6952 30.8474 16.3103C30.8474 16.9253 30.7291 17.4742 30.4926 17.9568C30.256 18.4299 29.9248 18.799 29.499 19.0639C29.0732 19.3289 28.5858 19.4613 28.037 19.4613C27.4882 19.4613 27.0008 19.3289 26.575 19.0639C26.1492 18.799 25.818 18.4299 25.5814 17.9568C25.3448 17.4742 25.2266 16.9253 25.2266 16.3103C25.2266 15.6952 25.3448 15.1511 25.5814 14.6779C25.818 14.1953 26.1492 13.8216 26.575 13.5566C27.0008 13.2917 27.4882 13.1592 28.037 13.1592ZM26.2769 16.3103C26.2769 17.2565 26.4331 17.9946 26.7453 18.5245C27.0576 19.0544 27.4882 19.3194 28.037 19.3194C28.5858 19.3194 29.0164 19.0544 29.3286 18.5245C29.6409 17.9946 29.797 17.2565 29.797 16.3103C29.797 15.364 29.6409 14.6259 29.3286 14.096C29.0164 13.5661 28.5858 13.3011 28.037 13.3011C27.4882 13.3011 27.0576 13.5661 26.7453 14.096C26.4331 14.6259 26.2769 15.364 26.2769 16.3103Z" fill="#252525"/>
<path d="M24.442 19.2053V19.3189L21.7877 19.3189V19.2053L22.6535 19.0918L22.6535 15.4723C22.6535 15.0843 22.6441 14.8052 22.6251 14.6348C22.6062 14.455 22.5684 14.3084 22.5116 14.1948C22.4359 14.034 22.3129 13.9109 22.1425 13.8258C21.9722 13.7311 21.7735 13.6838 21.5464 13.6838C21.0543 13.6838 20.6285 13.8873 20.2689 14.2942L20.2689 19.0918L21.1348 19.2053V19.3189L18.4805 19.3189V19.2053L19.3463 19.0918L19.3463 10.0502L18.5089 9.73789V9.63853L20.1554 9.08496H20.2689L20.2689 14.0813C20.5623 13.7785 20.8651 13.5514 21.1773 13.4C21.4991 13.2391 21.8161 13.1587 22.1283 13.1587C22.4122 13.1587 22.6677 13.2202 22.8948 13.3432C23.1314 13.4662 23.3064 13.6365 23.42 13.8542C23.4862 13.9772 23.5288 14.1475 23.5477 14.3651C23.5667 14.5733 23.5761 14.9424 23.5761 15.4723L23.5761 19.0918L24.442 19.2053Z" fill="#252525"/>
<path d="M15.0771 19.0785C15.484 18.8987 15.8247 18.6574 16.0991 18.3546C16.5627 17.8342 16.9129 17.0582 17.1494 16.0268L17.334 16.0552L17.334 19.3198H17.1494L16.6668 18.5392C16.241 18.8514 15.7773 19.0975 15.2758 19.2773C14.7838 19.457 14.3059 19.5469 13.8422 19.5469C13.019 19.5469 12.262 19.3198 11.5712 18.8656C10.8899 18.4114 10.3505 17.7963 9.95305 17.0204C9.56508 16.235 9.37109 15.3692 9.37109 14.4229C9.37109 13.4861 9.56508 12.625 9.95305 11.8396C10.3505 11.0542 10.8899 10.4344 11.5712 9.98014C12.2525 9.52593 13 9.29883 13.8138 9.29883C14.2397 9.29883 14.6749 9.3698 15.1197 9.51174C15.5739 9.64422 16.0754 9.85713 16.6243 10.1505L16.9649 9.46916L17.1494 9.46916L17.2914 12.6628L17.0927 12.7196C16.9602 11.991 16.752 11.3901 16.4681 10.917C16.1842 10.4533 15.8152 10.0984 15.361 9.8524C14.9068 9.5969 14.4053 9.46916 13.8564 9.46916C12.8534 9.46916 12.0822 9.89971 11.5428 10.7608C11.0034 11.6219 10.7337 12.8426 10.7337 14.4229C10.7337 15.9937 11.0034 17.2096 11.5428 18.0708C12.0822 18.9224 12.8486 19.3482 13.8422 19.3482C14.268 19.3482 14.6797 19.2583 15.0771 19.0785Z" fill="#252525"/>
</svg>
