<svg width="72" height="42" viewBox="0 0 72 42" fill="none" xmlns="http://www.w3.org/2000/svg">
<rect width="72" height="42" fill="white"/>
<path d="M46.7939 31.0918C47.3181 31.0918 47.7992 31.2366 48.2334 31.5254H48.2344C48.6742 31.8146 49.0181 32.2111 49.2637 32.708H49.2617C49.513 33.1991 49.6395 33.7426 49.6396 34.3369C49.6396 34.8779 49.5344 35.38 49.3252 35.8408C49.1726 36.1864 48.9726 36.4881 48.7246 36.7441L48.4609 36.9854C48.1781 37.2171 47.8667 37.379 47.5293 37.4756C47.6179 37.5183 47.7131 37.5668 47.8145 37.6201C47.9585 37.6893 48.0862 37.7484 48.1973 37.7969L48.4834 37.9111L48.4863 37.9131C48.6372 37.9723 48.7874 38.001 48.9355 38.001C49.1058 38.0009 49.2201 37.9598 49.293 37.8955L49.2939 37.8936L49.4189 37.7559C49.4576 37.7004 49.493 37.6342 49.5254 37.5586L49.5732 37.4502L49.6758 37.5107L49.7637 37.5625L49.8418 37.6094L49.8047 37.6953C49.6758 37.9895 49.478 38.234 49.2158 38.4297C48.9556 38.6341 48.6701 38.7412 48.3604 38.7412C48.19 38.7412 48.0291 38.7079 47.8789 38.6436L47.7334 38.5693C47.5945 38.4859 47.4683 38.3845 47.3574 38.2666L47.252 38.1436V38.1426C46.9502 37.7498 46.6805 37.5835 46.4473 37.583C46.3381 37.583 46.2319 37.6105 46.1309 37.666C46.0363 37.7181 46.0122 37.7702 46.0117 37.8174L46.0576 37.9805V37.9854C46.0979 38.1062 46.1239 38.2093 46.124 38.2803L46.1152 38.3701C46.0985 38.4575 46.0564 38.5352 45.9912 38.6016C45.9014 38.6988 45.7873 38.749 45.6543 38.749C45.5252 38.749 45.4146 38.698 45.3311 38.5996V38.5977C45.2493 38.5063 45.211 38.3913 45.2109 38.2617C45.2113 38.0464 45.31 37.8563 45.4893 37.6963C45.6044 37.5936 45.7429 37.5037 45.9023 37.4248C45.6856 37.3471 45.4801 37.2448 45.2891 37.1113L45.0283 36.9043H45.0264C44.7743 36.6747 44.563 36.4055 44.3926 36.0996L44.2363 35.7793C44.0448 35.3361 43.9482 34.8544 43.9482 34.3369C43.9484 33.7425 44.0699 33.1972 44.3154 32.7061H44.3174L44.5215 32.3545C44.7441 32.0206 45.0193 31.7423 45.3447 31.5254C45.7849 31.2362 46.2692 31.0919 46.7939 31.0918ZM45.9141 38.5312C45.862 38.5876 45.8 38.6225 45.7285 38.6367H45.7295C45.8009 38.6227 45.863 38.5874 45.915 38.5312C45.9324 38.5138 45.9478 38.4949 45.9609 38.4756C45.9478 38.495 45.9316 38.5137 45.9141 38.5312ZM49.708 37.6523C49.5862 37.9306 49.4006 38.1631 49.1514 38.3486C48.9077 38.54 48.6436 38.6348 48.3594 38.6348L48.3604 38.6357C48.6446 38.6357 48.9097 38.5391 49.1533 38.3477C49.402 38.1622 49.5874 37.9302 49.709 37.6523L49.6221 37.5996L49.708 37.6523ZM47.7861 38.4795C47.8002 38.4879 47.8158 38.4942 47.8301 38.502C47.8154 38.494 47.7996 38.4872 47.7852 38.4785C47.7419 38.4526 47.6995 38.425 47.6592 38.3955L47.7861 38.4795ZM45.9053 37.8174C45.9053 37.8579 45.9233 37.9251 45.958 38.0176C45.9983 38.1386 46.0183 38.226 46.0186 38.2783C46.0186 38.332 46.0071 38.3816 45.9863 38.4268C45.9981 38.4023 46.0086 38.3767 46.0137 38.3496L46.0205 38.2803C46.0203 38.228 45.9994 38.1389 45.959 38.0176C45.9244 37.9253 45.9063 37.8578 45.9062 37.8174C45.9064 37.809 45.9083 37.8002 45.9092 37.792C45.9083 37.8002 45.9054 37.8089 45.9053 37.8174ZM47.333 38.0791C47.3398 38.0878 47.3485 38.096 47.3555 38.1045C47.3483 38.0958 47.34 38.0871 47.333 38.0781L47.2324 37.9551C47.2656 37.994 47.2995 38.0355 47.333 38.0791ZM48.7061 38.082C48.7819 38.0963 48.8576 38.1045 48.9336 38.1045L48.9346 38.1035L48.7061 38.082ZM49.3604 37.9736C49.3415 37.9903 49.3199 38.0041 49.2979 38.0176C49.3197 38.0042 49.3416 37.9911 49.3604 37.9746C49.3865 37.9528 49.4116 37.9279 49.4355 37.9014L49.3604 37.9736ZM47.2021 37.4434C47.3296 37.4953 47.4778 37.5659 47.6475 37.6523C47.4786 37.566 47.3311 37.4951 47.2041 37.4434C47.215 37.4416 47.2255 37.4374 47.2363 37.4355C47.2249 37.4375 47.2137 37.4415 47.2021 37.4434ZM46.0801 37.5742C46.0565 37.5872 46.0352 37.6015 46.0166 37.6162L46.0811 37.5742C46.0852 37.5719 46.0896 37.5696 46.0938 37.5674C46.0893 37.5697 46.0845 37.5718 46.0801 37.5742ZM14.1514 31.0918C14.424 31.0918 14.7026 31.1367 14.9844 31.2266C15.2439 31.3024 15.5228 31.4218 15.8262 31.5781L15.9902 31.2539L16.0186 31.1953H16.2959L16.3008 31.2959L16.3877 33.2539L16.3916 33.335L16.3135 33.3594L16.1904 33.3936L16.0801 33.4258L16.0596 33.3115C15.9799 32.8737 15.8541 32.5183 15.6885 32.2422C15.5652 32.0416 15.4152 31.8743 15.2383 31.7451L15.0508 31.6279L15.0488 31.626C14.7873 31.479 14.4976 31.4054 14.1787 31.4053C13.6005 31.4053 13.1605 31.6509 12.8486 32.1484C12.5329 32.6527 12.3683 33.3784 12.3682 34.3369L12.375 34.6846C12.4056 35.3557 12.5283 35.8991 12.7363 36.3184L12.8486 36.5176C13.1605 37.0097 13.5974 37.2529 14.1699 37.2529C14.4153 37.2528 14.6527 37.1997 14.8828 37.0957L15.0547 37.0107C15.2169 36.9193 15.3567 36.8077 15.4746 36.6777L15.5732 36.5586C15.7946 36.2612 15.9707 35.8419 16.0957 35.2969L16.1152 35.2031L16.2129 35.2168L16.3252 35.2354L16.4131 35.249V37.4434H16.1377L15.8672 37.0078C15.624 37.1742 15.3635 37.3105 15.083 37.4111C14.7718 37.5248 14.4674 37.5829 14.1699 37.583C13.7105 37.583 13.2825 37.4707 12.8877 37.249L12.7188 37.1484C12.2857 36.8595 11.9425 36.4667 11.6914 35.9766C11.4463 35.4799 11.3242 34.9312 11.3242 34.3369C11.3244 33.7481 11.4461 33.2026 11.6914 32.7061C11.9425 32.2102 12.2854 31.8164 12.7188 31.5273C13.1533 31.2378 13.632 31.0919 14.1514 31.0918ZM30.5908 31.1602L32.7598 37.0859L33.4209 37.166L33.4492 37.1689L33.4902 37.165L34.1162 37.0957C34.2082 37.0854 34.2385 37.0595 34.248 37.0459C34.2663 37.0119 34.2841 36.9389 34.2842 36.8086V31.6201C34.2571 31.581 34.2276 31.5574 34.1963 31.5459L34.1855 31.542C34.1674 31.533 34.1406 31.5244 34.1055 31.5186L33.9717 31.5078H33.4658V31.2305H35.1279L35.1553 31.2939L37.2119 36.2041L39.0498 31.2969L39.0762 31.2305H40.6543V31.5L39.8975 31.5674V37.1045L40.5586 37.165L40.6543 37.1738V37.4424H38.3037V37.1738L38.3984 37.165L39.0176 37.1045V32.3789L37.0869 37.5137L37.0635 37.582H36.834L36.8066 37.5195L34.6328 32.3281V36.8086L34.6436 36.9678C34.6501 37.0054 34.6598 37.0316 34.6689 37.0479C34.6797 37.0617 34.7115 37.0858 34.7998 37.0957L35.4189 37.165L35.5107 37.1758V37.4424H33.5127V37.4434H31.1709V37.1777L31.2627 37.166L31.8457 37.0947L31.0996 35.0605H29.1377L28.4404 36.9141C28.4193 36.9722 28.4132 37.0122 28.4131 37.0352L28.4258 37.0859C28.4517 37.0969 28.5001 37.1124 28.582 37.1221L29.1094 37.166L29.2041 37.1729V37.4434L27.1426 37.4424H26.9365C26.8269 37.4424 26.7274 37.4322 26.6455 37.4033L26.5703 37.3682C26.5252 37.3417 26.4814 37.3041 26.4395 37.2588L26.3174 37.1006L26.3154 37.0977L24.9854 34.9492L24.9834 34.9473C24.9451 34.8844 24.9114 34.8353 24.8818 34.8008L24.8184 34.7432L24.8066 34.7383L24.8643 34.6494C24.9221 34.6783 24.9933 34.7598 25.0742 34.8926L26.4053 37.043C26.4804 37.1585 26.5537 37.2366 26.623 37.2773L26.626 37.2783C26.5567 37.2375 26.4842 37.1594 26.4092 37.0439L25.0781 34.8945C24.9972 34.7616 24.927 34.6805 24.8691 34.6514C24.8554 34.6422 24.8381 34.6337 24.8184 34.627C24.8361 34.6333 24.8516 34.6411 24.8643 34.6494L24.8066 34.7363C24.7967 34.73 24.7748 34.722 24.7354 34.7148L24.5771 34.7021H24.0381V37.1045L24.6992 37.165L24.7949 37.1738V37.4424H22.4463V37.1738L22.5391 37.165L23.1582 37.1045V31.5674L22.5391 31.5078L22.4463 31.5V31.2305H24.752C25.4479 31.2305 25.9968 31.3721 26.3818 31.6699C26.7709 31.9653 26.9615 32.3956 26.9619 32.9434C26.9619 33.3689 26.8453 33.7285 26.6064 34.0117C26.3958 34.2612 26.1037 34.4346 25.7393 34.543L27.2598 36.917H27.2578C27.3287 37.026 27.391 37.0871 27.4395 37.1162C27.4577 37.1259 27.4807 37.1331 27.5068 37.1406L27.7246 37.1221L27.8896 37.0957C27.9302 37.0842 27.9564 37.0696 27.9727 37.0566L27.9766 37.0557C28.0152 37.0273 28.0618 36.9608 28.1055 36.8408L30.2646 31.0918H30.5654L30.5908 31.1602ZM52.4531 31.5L51.6963 31.5674V35.6689L51.7031 35.9629C51.7169 36.2357 51.7517 36.4499 51.8037 36.6074C51.8774 36.8127 51.9958 36.9602 52.1572 37.0566C52.2007 37.0822 52.252 37.1067 52.3076 37.1279L52.4961 37.1855C52.6323 37.2182 52.7745 37.2353 52.9229 37.2354C53.1982 37.2354 53.4494 37.1789 53.6777 37.0703C53.905 36.9621 54.0866 36.8095 54.2207 36.6113L54.292 36.4932C54.3575 36.3712 54.4075 36.2339 54.4404 36.082C54.4847 35.8715 54.5068 35.5939 54.5068 35.25V31.8652C54.5068 31.7999 54.5033 31.7465 54.4961 31.707L54.4727 31.6357C54.4616 31.6199 54.4272 31.5937 54.3379 31.5781L53.7207 31.5078L53.6289 31.498V31.2305H55.7432V31.498L55.6494 31.5078L55.0234 31.5781C54.9345 31.5938 54.9007 31.6199 54.8896 31.6357C54.8834 31.6451 54.8745 31.6674 54.8672 31.707C54.86 31.7465 54.8555 31.7999 54.8555 31.8652V35.208L54.833 35.7197C54.8183 35.8744 54.7945 36.0155 54.7646 36.1416C54.7103 36.3953 54.6224 36.618 54.498 36.8047C54.3303 37.047 54.0994 37.2394 53.8125 37.3799C53.5247 37.5146 53.2058 37.582 52.8613 37.582C52.5834 37.5819 52.308 37.5365 52.0371 37.4463C51.834 37.3785 51.6528 37.2918 51.4971 37.1846L51.3496 37.0703C51.2032 36.9427 51.0878 36.7882 51.0059 36.6094L50.9346 36.4219C50.8548 36.1638 50.8174 35.814 50.8174 35.3809V31.5674L50.1982 31.5078L50.1045 31.5V31.2305H52.4531V31.5ZM12.4795 31.8418C12.1993 32.0885 11.9677 32.3933 11.7852 32.7539C11.5475 33.2351 11.4279 33.7631 11.4277 34.3369C11.4277 34.9167 11.5475 35.4484 11.7852 35.9297C12.0286 36.405 12.3591 36.7822 12.7764 37.0605C13.1467 37.3041 13.549 37.4411 13.9814 37.4717L14.1699 37.4785C14.1712 37.4785 14.1725 37.4775 14.1738 37.4775C13.6709 37.4767 13.2083 37.3381 12.7861 37.0605C12.3687 36.7822 12.0375 36.4051 11.7939 35.9297C11.5563 35.4484 11.4375 34.9168 11.4375 34.3369C11.4376 33.7629 11.5562 33.2342 11.7939 32.7529C12.0046 32.3368 12.2813 31.9968 12.6221 31.7324L12.4795 31.8418ZM36.9033 37.4785H36.9072L34.5664 31.8926H34.5645L36.9033 37.4785ZM21.582 31.3262L21.7051 32.9629L21.7119 33.0645L21.6113 33.0742L21.5225 33.083L21.4443 33.0918L21.416 33.0186L20.9297 31.8008C20.8794 31.6726 20.8295 31.6099 20.7949 31.5879L20.791 31.5859C20.7759 31.5756 20.7504 31.5653 20.7129 31.5576L20.5547 31.5439H18.6943V34.0068H19.876C20.0094 34.0068 20.0783 33.9822 20.1074 33.959C20.1345 33.937 20.1695 33.8789 20.1914 33.7529L20.1924 33.75L20.3408 33.0439L20.3574 32.9629H20.6523V35.3984H20.3574L20.3408 35.3145L20.1924 34.6104L20.1914 34.6074C20.1804 34.5443 20.1672 34.4967 20.1523 34.4639L20.1074 34.4014C20.078 34.3782 20.0087 34.3535 19.876 34.3535H18.6943V37.1299H20.5381C20.6684 37.1299 20.7442 37.1084 20.7832 37.085C20.8229 37.0545 20.8726 36.991 20.9209 36.873L21.4941 35.4629L21.5244 35.3916L21.6963 35.4062L21.8037 35.417L21.792 35.5244L21.5742 37.3506L21.5615 37.4424H17.1006V37.1738L17.1953 37.165L17.8145 37.1045V31.5674L17.1953 31.5078L17.1006 31.5V31.2305H21.5752L21.582 31.3262ZM43.4014 31.5L43.3066 31.5078L42.6875 31.5674V37.1045L43.3066 37.165L43.4014 37.1738V37.4424H41.0947V37.1738L41.1904 37.165L41.8096 37.1045V31.5674L41.1904 31.5078L41.0947 31.5V31.2305H43.4014V31.5ZM60.46 31.3262L60.5811 32.9629L60.5889 33.0645L60.4873 33.0742L60.4004 33.083L60.3223 33.0918L60.293 33.0186L59.8047 31.8008V31.7988C59.7546 31.6713 59.7073 31.61 59.6729 31.5879L59.6689 31.5859C59.6539 31.5756 59.6282 31.5654 59.5908 31.5576L59.4326 31.5439H57.5703V34.0068H58.7539C58.8874 34.0068 58.9562 33.9823 58.9854 33.959C59.0124 33.9367 59.0466 33.8782 59.0684 33.7529V33.75H59.0703L59.2188 33.0439L59.2354 32.9629H59.5283V35.3984H59.2354L59.2188 35.3145L59.0703 34.6104L59.0684 34.6074C59.0574 34.5444 59.0441 34.4967 59.0293 34.4639L58.9854 34.4014C58.9561 34.3782 58.8869 34.3535 58.7539 34.3535H57.5703V37.1299H59.416C59.5464 37.1298 59.6213 37.1085 59.6602 37.085C59.6998 37.0545 59.7486 36.9909 59.7969 36.873L60.3711 35.4629L60.4004 35.3916L60.4766 35.3984L60.5742 35.4062L60.6807 35.417L60.668 35.5244L60.4502 37.3506L60.4395 37.4424H55.9785V37.1738L56.0732 37.165L56.6924 37.1045V31.5674L56.0732 31.5078L55.9785 31.5V31.2305H60.4512L60.46 31.3262ZM46.7939 37.373C46.7649 37.373 46.7364 37.3703 46.708 37.3691C46.7361 37.3703 46.7643 37.374 46.793 37.374C46.8183 37.374 46.8434 37.3701 46.8682 37.3691C46.8436 37.37 46.8189 37.373 46.7939 37.373ZM16.1973 35.3203C16.0524 35.9521 15.8367 36.428 15.5527 36.7471L15.418 36.8799C15.2769 37.0046 15.1133 37.1089 14.9268 37.1914C14.6846 37.301 14.4332 37.3548 14.1738 37.3555C14.1753 37.3555 14.1772 37.3564 14.1787 37.3564C14.4396 37.3564 14.6921 37.3016 14.9355 37.1914C15.1848 37.0812 15.3934 36.9326 15.5615 36.7471C15.8454 36.4282 16.0601 35.9527 16.2051 35.3213L16.1973 35.3203ZM15.9033 36.8643L16.1973 37.3398L16.3096 37.3389H16.2061L15.9102 36.8604C15.9082 36.8618 15.9053 36.8629 15.9033 36.8643ZM27.9365 37.3398H29.1006V37.3389H27.9365V37.3398ZM31.2764 37.3398H33.3965V37.3389H31.2764V37.3398ZM51.7754 36.8027C51.8558 36.9505 51.9664 37.0658 52.1055 37.1484C52.204 37.2064 52.3259 37.2533 52.4707 37.2881C52.6156 37.3228 52.7664 37.3398 52.9229 37.3398V37.3389C52.7665 37.3388 52.6155 37.3209 52.4707 37.2861C52.326 37.2513 52.203 37.2044 52.1045 37.1465C51.9659 37.0639 51.8557 36.9491 51.7754 36.8018V36.8027ZM21.6855 35.5127L21.4678 37.3389H21.4697L21.6875 35.5117L21.5908 35.5039H21.5898L21.6855 35.5127ZM23.2637 31.4746V37.1992L22.5498 37.2695V37.3389H22.5547V37.2705L23.2676 37.2002V31.4746L22.9551 31.4434L23.2637 31.4746ZM39.1221 37.1992L38.4092 37.2695V37.3389H38.4121V37.2705L39.126 37.2002V31.9014H39.1221V37.1992ZM41.9131 31.4746V37.1992L41.2002 37.2695V37.3389H41.208V37.2705L41.9219 37.2002V31.4746L41.3447 31.418L41.9131 31.4746ZM56.7959 31.4746V37.1992L56.084 37.2695V37.3389H56.0859V37.2705L56.7998 37.2002V31.4746L56.5635 31.4512L56.7959 31.4746ZM34.2754 31.4688C34.3194 31.4946 34.357 31.5338 34.3877 31.5859V36.8086L34.376 36.9863C34.3673 37.0352 34.3541 37.0756 34.3369 37.1045L34.3027 37.1396C34.2637 37.1708 34.2055 37.1905 34.1279 37.1992L33.5088 37.2676L33.5049 37.2695V37.2705L34.1309 37.2002C34.2352 37.1886 34.305 37.1567 34.3398 37.1045C34.3744 37.0464 34.3926 36.9473 34.3926 36.8086V31.5879C34.3609 31.5338 34.3213 31.4947 34.2754 31.4688ZM28.5693 37.2256L29.1006 37.2695L28.5703 37.2256C28.5631 37.2247 28.5558 37.2226 28.5488 37.2217C28.5556 37.2226 28.5623 37.2248 28.5693 37.2256ZM34.793 37.2002L35.4072 37.2695L34.7891 37.1992C34.7534 37.1952 34.7221 37.1873 34.6943 37.1787C34.7228 37.1881 34.7556 37.196 34.793 37.2002ZM46.7939 31.4053C46.2221 31.4054 45.7847 31.6506 45.4727 32.1484C45.1571 32.6527 44.9933 33.3787 44.9932 34.3369C44.9932 35.2953 45.1572 36.022 45.4727 36.5264C45.7847 37.0244 46.222 37.2694 46.7939 37.2695C47.366 37.2695 47.8032 37.0245 48.1152 36.5264C48.4308 36.022 48.5957 35.2955 48.5957 34.3369C48.5956 33.4983 48.4695 32.8374 48.2266 32.3477L48.1152 32.1484C47.8032 31.6505 47.3659 31.4053 46.7939 31.4053ZM27.4971 37.2461L27.502 37.2451L27.501 37.2441L27.499 37.2451L27.4863 37.2402C27.458 37.2331 27.4322 37.2253 27.4092 37.2148L27.4971 37.2461ZM18.5879 37.2354H18.5889V34.251H18.5879V37.2354ZM59.8936 36.9121C59.8414 37.0394 59.7834 37.1274 59.7197 37.1738L59.5957 37.2197C59.5452 37.2298 59.4852 37.2353 59.416 37.2354H59.4189C59.558 37.2354 59.6598 37.2153 59.7236 37.1748C59.7873 37.1283 59.8453 37.0405 59.8975 36.9131L60.4707 35.5039H60.4688L59.8936 36.9121ZM53.7236 37.165L53.5557 37.2324C53.6127 37.2132 53.6692 37.192 53.7236 37.166C53.7693 37.1443 53.8133 37.1209 53.8555 37.0957L53.7236 37.165ZM20.7207 37.2178C20.7698 37.2076 20.8107 37.1946 20.8418 37.1748L20.8428 37.1738L20.7207 37.2178ZM32.6855 37.1826L32.9053 37.209L32.6865 37.1826L30.4922 31.1953L32.6855 37.1826ZM28.3428 36.8779C28.3383 36.8904 28.3356 36.9035 28.332 36.915L28.3438 36.8789L29.0654 34.9551L28.3428 36.8779ZM45.5137 36.7676C45.5319 36.7906 45.5533 36.8113 45.5723 36.833C45.5535 36.8115 45.5327 36.7904 45.5146 36.7676L45.3838 36.582L45.5137 36.7676ZM37.2334 36.4424H37.2031V36.4434H37.2373L39.1523 31.3359H40.5488V31.335H39.1484L37.2334 36.4424ZM54.5684 36.4385C54.5708 36.4324 54.5748 36.4261 54.5771 36.4199L54.6182 36.2979C54.6036 36.3463 54.5859 36.3932 54.5684 36.4385ZM54.498 36.2676C54.4988 36.2654 54.5003 36.2629 54.501 36.2607V36.2588C54.5001 36.2615 54.4989 36.2648 54.498 36.2676ZM49.0137 36.2041C49.0313 36.1761 49.0516 36.1489 49.0684 36.1201L49.1055 36.0469C49.0761 36.1003 49.0457 36.1532 49.0137 36.2041ZM49.2295 35.7988C49.2233 35.8128 49.2163 35.827 49.21 35.8408L49.2314 35.7988C49.251 35.7556 49.2675 35.71 49.2852 35.666C49.2673 35.7103 49.2493 35.7553 49.2295 35.7988ZM54.7178 35.7988C54.7213 35.7698 54.7266 35.7392 54.7295 35.709L54.7314 35.6689C54.7277 35.7133 54.7227 35.757 54.7178 35.7988ZM51.5918 31.4746V35.6689C51.5918 35.6848 51.5936 35.7012 51.5938 35.7168L51.5928 35.6689V31.4746L51.6621 31.4678L51.5918 31.4746ZM20.4424 33.0674H20.5459V35.2939H20.5469V33.0664H20.4424V33.0674ZM59.0498 34.3193C59.1076 34.3656 59.1496 34.4562 59.1729 34.5889L59.3203 35.2939H59.3232L59.1758 34.5898C59.1526 34.4569 59.1116 34.3666 59.0537 34.3203C59.0394 34.3089 59.0222 34.2986 59.0029 34.29L58.999 34.2891C59.0183 34.2976 59.0355 34.308 59.0498 34.3193ZM29.2695 34.7119H30.9697L30.126 32.415L29.2695 34.7119ZM45.2676 32.2998C45.0144 32.8098 44.8878 33.4893 44.8877 34.3369C44.8877 34.4049 44.8909 34.4723 44.8926 34.5381L44.8887 34.3369C44.8888 33.49 45.0149 32.8107 45.2676 32.3008V32.2998ZM25.5742 34.4854H25.5801L25.5781 34.4844C25.5769 34.4847 25.5755 34.4851 25.5742 34.4854ZM25.3262 31.5322C25.4971 31.5946 25.6399 31.6882 25.7529 31.8125C25.979 32.0618 26.0927 32.447 26.0928 32.9629L26.0703 33.3193C26.028 33.6531 25.9223 33.9144 25.7529 34.1016C25.5325 34.3451 25.1894 34.4677 24.7256 34.4678H24.7295C25.1936 34.4678 25.5364 34.3462 25.7568 34.1025C25.9827 33.8531 26.0957 33.4729 26.0957 32.9629C26.0956 32.4471 25.9828 32.0638 25.7568 31.8145C25.6437 31.6899 25.5011 31.5955 25.3301 31.5332L25.3262 31.5322ZM49.5342 34.3369C49.5342 34.3599 49.5326 34.3834 49.5322 34.4062L49.5361 34.3369C49.5361 34.2839 49.5313 34.2308 49.5293 34.1787C49.5313 34.2308 49.5342 34.284 49.5342 34.3369ZM24.0381 34.3623H24.7256C25.172 34.3622 25.4813 34.2457 25.6748 34.0322L25.7461 33.9424C25.9022 33.7198 25.9872 33.3976 25.9873 32.9629C25.9872 32.5222 25.9024 32.1958 25.7461 31.9727L25.6748 31.8838C25.5248 31.7186 25.313 31.6102 25.0312 31.5664L24.7256 31.5439H24.0381V34.3623ZM18.5879 34.1113H19.876C20.015 34.1113 20.1139 34.0884 20.1719 34.042C20.1856 34.031 20.1982 34.0169 20.21 34.001C20.1984 34.0165 20.1853 34.0302 20.1719 34.041C20.1138 34.087 20.0146 34.1104 19.876 34.1104H18.5889V31.4404H18.5879V34.1113ZM59.1729 33.7705C59.1497 33.9036 59.1076 33.9945 59.0498 34.041C58.9918 34.0873 58.893 34.1104 58.7539 34.1104H57.4697V34.1113H58.7578C58.897 34.1113 58.9957 34.0884 59.0537 34.042C59.1115 33.9955 59.1526 33.9055 59.1758 33.7725L59.3232 33.0674H59.4238V33.0664H59.3203L59.1729 33.7705ZM14.0332 31.3076C14.0807 31.3042 14.1294 31.3008 14.1787 31.3008C14.5147 31.3009 14.8225 31.3798 15.1006 31.5361C15.3784 31.6868 15.6055 31.9039 15.7793 32.1875C15.9531 32.4773 16.0809 32.8468 16.1621 33.293L16.1699 33.29C16.0887 32.8449 15.9617 32.4768 15.7881 32.1875C15.6141 31.9035 15.3876 31.6859 15.1094 31.5352C14.831 31.3786 14.5229 31.2998 14.1865 31.2998C14.1344 31.2998 14.0833 31.3038 14.0332 31.3076ZM49.3584 33.2109C49.3484 33.1808 49.3409 33.1489 49.3301 33.1191L49.2998 33.0498C49.3205 33.1028 49.3404 33.1568 49.3584 33.2109ZM59.7285 31.5C59.7922 31.5406 59.8502 31.6287 59.9023 31.7617L60.3906 32.9795L60.3926 32.9785L59.9062 31.7617C59.8541 31.6288 59.7961 31.5415 59.7324 31.501C59.7217 31.4935 59.7088 31.4875 59.6953 31.4814C59.7073 31.4871 59.7188 31.4932 59.7285 31.5ZM17.2061 31.3359H21.4766L21.5977 32.9707H21.5996L21.4785 31.335H17.2061V31.3359ZM30.1094 32.1621H30.1445V32.1611H30.1094V32.1621ZM15.876 31.7129C15.8786 31.7143 15.8812 31.7164 15.8838 31.7178L16.0928 31.3008H16.083L15.876 31.7129ZM14.1514 31.1953C13.6528 31.1954 13.1938 31.336 12.7764 31.6143L12.6553 31.707C12.6979 31.6749 12.7415 31.643 12.7861 31.6133C13.2022 31.336 13.6587 31.1963 14.1553 31.1953C14.154 31.1953 14.1527 31.1953 14.1514 31.1953ZM47.8555 31.4307C47.9651 31.4828 48.0725 31.5438 48.1768 31.6133C48.1797 31.6152 48.1826 31.6181 48.1855 31.6201L48.1787 31.6143C48.0745 31.5448 47.9671 31.4838 47.8574 31.4316L47.8555 31.4307ZM54.3496 31.4746C54.3538 31.4753 54.3582 31.4768 54.3623 31.4775C54.3584 31.4768 54.3546 31.4753 54.3506 31.4746L54.2549 31.4639L54.3496 31.4746ZM22.5498 31.4043H22.5547V31.3359H24.7559C24.8317 31.3359 24.9057 31.3374 24.9775 31.3408L24.752 31.335H22.5498V31.4043ZM33.5703 31.4043H33.5742V31.3359H35.0586V31.335H33.5703V31.4043ZM41.2002 31.4043H41.208V31.3359H43.2959V31.335H41.2002V31.4043ZM50.208 31.3359H52.3486V31.4043H52.3496V31.335H50.208V31.3359ZM56.084 31.4043H56.0859V31.3359H60.3545V31.335H56.084V31.4043ZM53.7324 31.3359H55.6377V31.335H53.7324V31.3359ZM46.6465 31.3076C46.6947 31.304 46.7438 31.3008 46.7939 31.3008L46.9688 31.3105C46.9115 31.3047 46.853 31.2998 46.793 31.2998C46.7432 31.2998 46.6944 31.3041 46.6465 31.3076ZM20.6494 28.7432C20.5244 29.7681 19.6183 30.087 19.1807 30.1182C19.7306 29.9422 19.8044 28.8773 19.7725 28.3672L20.6494 28.7432ZM36.2607 28.6309H35.7363V3.25H36.2607V28.6309ZM30.2119 4.71094C32.9413 4.7122 35.1542 9.74306 35.1543 15.9473L35.1289 17.0957C34.8757 22.7601 32.7706 27.1805 30.2119 27.1816C29.4119 27.1816 28.6558 26.7494 27.9873 25.9824C27.1605 26.2986 26.2803 26.4715 25.3672 26.4717C23.799 26.4717 22.3279 25.9674 21.0576 25.0879C16.6932 24.3297 13.3744 20.5265 13.374 15.9453C13.3741 11.3638 16.6929 7.55898 21.0576 6.80078C22.328 5.92119 23.799 5.41602 25.3672 5.41602C26.2822 5.41618 27.1648 5.58875 27.9932 5.90625C28.6605 5.14256 29.4138 4.71094 30.2119 4.71094ZM41.7959 4.71094C42.5931 4.71126 43.3459 5.14195 44.0127 5.9043C44.8404 5.58756 45.7226 5.41602 46.6367 5.41602C48.2039 5.41627 49.6736 5.92103 50.9434 6.7998C55.311 7.55558 58.6337 11.3617 58.6338 15.9453C58.6334 20.5286 55.3107 24.3331 50.9434 25.0889C49.6737 25.9676 48.2039 26.4714 46.6367 26.4717C45.7244 26.4717 44.8448 26.2989 44.0186 25.9834C43.3505 26.7494 42.5952 27.1813 41.7959 27.1816C39.2368 27.1815 37.1322 22.7608 36.8789 17.0957L36.8535 15.9473C36.8536 9.74238 39.0661 4.7111 41.7959 4.71094ZM30.2119 5.2334C29.7015 5.2334 29.1745 5.4679 28.6504 5.97168C28.6003 6.01989 28.5506 6.0713 28.501 6.12402C31.7533 7.64759 34.0615 11.4698 34.0615 15.9453L34.0498 16.4863C33.872 20.7276 31.6194 24.3039 28.498 25.7646C28.5488 25.8187 28.5991 25.8725 28.6504 25.9219C29.1744 26.4255 29.7015 26.6602 30.2119 26.6602C30.7222 26.6598 31.2495 26.4256 31.7734 25.9219C32.3 25.4154 32.7999 24.6581 33.2295 23.6816C34.0883 21.7293 34.6327 18.9942 34.6328 15.9473C34.6328 12.9002 34.0883 10.1644 33.2295 8.21191C32.7999 7.23561 32.2999 6.47815 31.7734 5.97168C31.2495 5.46796 30.7222 5.23371 30.2119 5.2334ZM41.7959 5.2334C41.2855 5.23344 40.7585 5.46794 40.2344 5.97168C39.7078 6.4781 39.208 7.23546 38.7783 8.21191C37.9194 10.1644 37.375 12.9 37.375 15.9473C37.3751 18.9944 37.9194 21.7293 38.7783 23.6816C39.208 24.6582 39.7077 25.4155 40.2344 25.9219C40.7584 26.4255 41.2855 26.6601 41.7959 26.6602C42.3062 26.6599 42.8335 26.4255 43.3574 25.9219C43.408 25.8732 43.4568 25.8198 43.5068 25.7666C40.3841 24.3067 38.131 20.7289 37.9531 16.4863L37.9414 15.9453C37.9415 11.4683 40.2508 7.64557 43.5049 6.12305C43.4558 6.0709 43.407 6.01941 43.3574 5.97168C42.8334 5.46791 42.3062 5.23367 41.7959 5.2334ZM26.8672 24.2178C25.6034 24.8622 24.173 25.2284 22.6572 25.2285C22.5421 25.2285 22.4266 25.2239 22.3125 25.2197C23.2618 25.6899 24.2947 25.9502 25.3672 25.9502C26.1538 25.95 26.9189 25.8083 27.6455 25.5488C27.367 25.1633 27.106 24.7169 26.8672 24.2178ZM45.1396 24.2178C44.9006 24.7174 44.6392 25.164 44.3604 25.5498C45.0863 25.8087 45.8509 25.9502 46.6367 25.9502C47.709 25.95 48.7413 25.6899 49.6904 25.2197C49.5779 25.2238 49.4641 25.2285 49.3506 25.2285C47.8344 25.2285 46.4036 24.8623 45.1396 24.2178ZM43.8545 6.53809C40.7477 7.92115 38.4639 11.5554 38.4639 15.9453C38.4644 20.3359 40.7496 23.9687 43.8574 25.3506C44.148 24.9674 44.4254 24.5046 44.6807 23.9678C41.9221 22.3586 40.0676 19.3692 40.0674 15.9453C40.0675 12.5215 41.9214 9.53123 44.6797 7.92188C44.4239 7.38446 44.1456 6.92133 43.8545 6.53809ZM28.1514 6.54004C27.8607 6.92297 27.5825 7.38524 27.3271 7.92188C30.0855 9.53123 31.9404 12.5215 31.9404 15.9453C31.9402 19.3692 30.0848 22.3586 27.3262 23.9678C27.581 24.5038 27.8584 24.9658 28.1484 25.3486C31.2544 23.9655 33.5396 20.3341 33.54 15.9453C33.54 11.5572 31.2563 7.92435 28.1514 6.54004ZM22.6572 7.18359C22.1853 7.18359 21.7212 7.22113 21.2695 7.29297C18.8548 9.01025 17.1934 12.2027 17.1934 15.9453C17.1938 19.6884 18.8569 22.8792 21.2725 24.5957C21.7233 24.6673 22.1863 24.7061 22.6572 24.7061C24.097 24.7059 25.455 24.3558 26.6533 23.7402C25.9068 21.979 25.4088 19.6656 25.2939 17.0957L25.2686 15.9473C25.2686 12.9188 25.7972 10.1701 26.6543 8.14941C25.4558 7.53362 24.0973 7.18375 22.6572 7.18359ZM49.3506 7.18359C47.9102 7.1836 46.5513 7.53346 45.3525 8.14941C46.2097 10.1701 46.7392 12.9188 46.7393 15.9473L46.7139 17.0957C46.599 19.6656 46.1 21.979 45.3535 23.7402C46.5521 24.3559 47.9105 24.706 49.3506 24.7061C49.8192 24.706 50.2798 24.6676 50.7285 24.5967C53.1448 22.8804 54.8092 19.6891 54.8096 15.9453C54.8095 12.2017 53.1463 9.00894 50.7305 7.29199C50.2812 7.22091 49.8198 7.18364 49.3506 7.18359ZM51.8926 7.55859C53.9815 9.48164 55.331 12.523 55.3311 15.9453L55.3193 16.4863C55.1851 19.6881 53.8672 22.5105 51.8877 24.3311C55.4884 23.2428 58.112 19.9009 58.1123 15.9453C58.1122 11.9912 55.4911 8.64836 51.8926 7.55859ZM20.1074 7.56055C16.5124 8.65248 13.8956 11.9937 13.8955 15.9453C13.8958 19.8983 16.5152 23.2386 20.1123 24.3291C18.1341 22.5085 16.8178 19.6868 16.6836 16.4863L16.6719 15.9453C16.6719 12.5242 18.0197 9.4837 20.1074 7.56055ZM27.1143 8.40234C26.3026 10.3404 25.7911 12.9975 25.791 15.9473C25.7911 18.8949 26.3016 21.5498 27.1123 23.4873C29.6886 21.9619 31.4187 19.1561 31.4189 15.9453C31.4189 12.7349 29.6899 9.92803 27.1143 8.40234ZM44.8926 8.40234C42.3169 9.92804 40.5889 12.7349 40.5889 15.9453C40.5891 19.1561 42.3183 21.9619 44.8945 23.4873C45.7053 21.5498 46.2167 18.8949 46.2168 15.9473C46.2168 12.9975 45.7043 10.3404 44.8926 8.40234ZM25.3672 5.93848C24.293 5.93848 23.2581 6.19825 22.3076 6.66992C22.4233 6.66564 22.5405 6.66113 22.6572 6.66113C24.1735 6.66128 25.6041 7.0281 26.8682 7.67285C27.1074 7.17294 27.3673 6.72474 27.6465 6.33887C26.9197 6.07918 26.154 5.93863 25.3672 5.93848ZM46.6367 5.93848C45.8507 5.93848 45.0855 6.07885 44.3594 6.33789C44.6388 6.724 44.8992 7.17249 45.1387 7.67285C46.403 7.02794 47.834 6.66114 49.3506 6.66113C49.4654 6.66116 49.5805 6.66578 49.6943 6.66992C48.7443 6.19851 47.7103 5.93867 46.6367 5.93848ZM34.2354 31.4492L34.2314 31.4482C34.2467 31.4538 34.2615 31.4606 34.2754 31.4688C34.2625 31.4614 34.2493 31.4543 34.2354 31.4492Z" fill="#252525"/>
</svg>
