<svg width="43" height="42" viewBox="0 0 43 42" fill="none" xmlns="http://www.w3.org/2000/svg">
<rect width="43" height="42" fill="white"/>
<path d="M13.3311 37.2373C13.4759 37.2373 13.607 37.2666 13.7246 37.3232C13.8421 37.3778 13.9425 37.4542 14.0244 37.5527L13.835 37.7422C13.7636 37.6563 13.6873 37.5926 13.6055 37.5527C13.5257 37.5108 13.4339 37.4903 13.3311 37.4902C13.2029 37.4902 13.1019 37.5177 13.0283 37.5723C12.957 37.6268 12.921 37.705 12.9209 37.8057C12.921 37.8853 12.9425 37.9523 12.9844 38.0068C13.0264 38.0593 13.0786 38.1031 13.1416 38.1367C13.2067 38.1682 13.2968 38.2051 13.4102 38.2471C13.5442 38.2953 13.6534 38.3426 13.7373 38.3887C13.8212 38.4327 13.8934 38.4989 13.9521 38.5869C14.0109 38.673 14.04 38.7863 14.04 38.9248C14.04 39.1201 13.9731 39.2717 13.8389 39.3789C13.7064 39.4861 13.5207 39.54 13.2832 39.54C12.9365 39.54 12.6686 39.4133 12.4795 39.1611L12.6846 38.9873C12.7644 39.0923 12.8518 39.1694 12.9463 39.2178C13.043 39.264 13.1611 39.2871 13.2998 39.2871C13.4362 39.287 13.5469 39.2572 13.6309 39.1963C13.7147 39.1353 13.7568 39.0496 13.7568 38.9404C13.7568 38.8545 13.7345 38.7822 13.6904 38.7256C13.6464 38.6691 13.5904 38.6252 13.5234 38.5938C13.4562 38.5601 13.3654 38.5233 13.252 38.4834C13.1154 38.4309 13.0066 38.382 12.9268 38.3379C12.8473 38.2938 12.7792 38.2309 12.7227 38.1494C12.6661 38.0654 12.6367 37.9556 12.6367 37.8213C12.6368 37.6429 12.7003 37.5005 12.8262 37.3955C12.9544 37.2905 13.1231 37.2373 13.3311 37.2373ZM15.3516 37.2373C15.4964 37.2374 15.6275 37.2666 15.7451 37.3232C15.8627 37.3778 15.963 37.4541 16.0449 37.5527L15.8555 37.7422C15.7842 37.6563 15.7077 37.5926 15.626 37.5527C15.5462 37.5108 15.4543 37.4903 15.3516 37.4902C15.2235 37.4902 15.1224 37.5178 15.0488 37.5723C14.9775 37.6268 14.9415 37.705 14.9414 37.8057C14.9415 37.8851 14.9623 37.9524 15.0039 38.0068C15.0459 38.0593 15.0991 38.1031 15.1621 38.1367C15.2272 38.1682 15.3165 38.2051 15.4297 38.2471C15.5641 38.2954 15.6738 38.3425 15.7578 38.3887C15.8418 38.4327 15.9139 38.4988 15.9727 38.5869C16.0315 38.673 16.0605 38.7863 16.0605 38.9248C16.0605 39.1202 15.9928 39.2717 15.8584 39.3789C15.726 39.4859 15.541 39.54 15.3037 39.54C14.957 39.54 14.6892 39.4133 14.5 39.1611L14.7051 38.9873C14.7849 39.0923 14.8723 39.1694 14.9668 39.2178C15.0634 39.2639 15.1808 39.2871 15.3193 39.2871C15.4557 39.2871 15.5664 39.257 15.6504 39.1963C15.7343 39.1353 15.7773 39.0497 15.7773 38.9404C15.7773 38.8545 15.755 38.7822 15.7109 38.7256C15.6669 38.6691 15.6109 38.6252 15.5439 38.5938C15.4767 38.5602 15.3858 38.5233 15.2725 38.4834C15.1359 38.4309 15.0271 38.382 14.9473 38.3379C14.8676 38.2938 14.7988 38.2312 14.7422 38.1494C14.6856 38.0654 14.6573 37.9556 14.6572 37.8213C14.6573 37.6428 14.7207 37.5005 14.8467 37.3955C14.9749 37.2905 15.1436 37.2373 15.3516 37.2373ZM17.6992 37.2373C17.9114 37.2373 18.1041 37.2897 18.2764 37.3926C18.4505 37.4934 18.5868 37.6323 18.6855 37.8086C18.7843 37.983 18.8339 38.1765 18.834 38.3887C18.834 38.6008 18.7842 38.7952 18.6855 38.9717C18.5868 39.1461 18.4516 39.2857 18.2793 39.3887C18.1091 39.4895 17.9208 39.54 17.7148 39.54C17.5027 39.54 17.3092 39.4894 17.1348 39.3887C16.9625 39.2857 16.8263 39.1461 16.7275 38.9717C16.629 38.7953 16.5791 38.6007 16.5791 38.3887C16.5792 38.1766 16.628 37.9829 16.7246 37.8086C16.8213 37.6322 16.9549 37.4934 17.125 37.3926C17.2952 37.2896 17.487 37.2373 17.6992 37.2373ZM20.4961 37.2373C20.6663 37.2373 20.8221 37.2674 20.9629 37.3262C21.1036 37.3829 21.227 37.4635 21.332 37.5684L21.127 37.7578C21.0534 37.676 20.9617 37.6108 20.8525 37.5625C20.7454 37.5142 20.6263 37.4902 20.4961 37.4902C20.3366 37.4903 20.1925 37.5289 20.0645 37.6064C19.9385 37.682 19.839 37.7884 19.7676 37.9248C19.6962 38.0613 19.6612 38.2165 19.6611 38.3887C19.6611 38.5609 19.6962 38.716 19.7676 38.8525C19.839 38.989 19.9385 39.0961 20.0645 39.1738C20.1926 39.2494 20.3365 39.2871 20.4961 39.2871C20.7545 39.2871 20.9702 39.1929 21.1426 39.0039L21.3477 39.208C21.2426 39.3131 21.1193 39.3944 20.9785 39.4512C20.8377 39.51 20.6819 39.54 20.5117 39.54C20.2954 39.54 20.1009 39.4895 19.9287 39.3887C19.7566 39.2879 19.6212 39.1498 19.5225 38.9756C19.4259 38.7991 19.377 38.6029 19.377 38.3887C19.377 38.1765 19.4258 37.983 19.5225 37.8086C19.6191 37.6322 19.7527 37.4934 19.9229 37.3926C20.093 37.2897 20.284 37.2373 20.4961 37.2373ZM29.3682 37.2373C29.5804 37.2373 29.773 37.2896 29.9453 37.3926C30.1197 37.4934 30.2567 37.6322 30.3555 37.8086C30.4542 37.9829 30.5038 38.1766 30.5039 38.3887C30.5039 38.6007 30.454 38.7953 30.3555 38.9717C30.2567 39.1461 30.1205 39.2857 29.9482 39.3887C29.7781 39.4894 29.5896 39.54 29.3838 39.54C29.1716 39.54 28.9781 39.4895 28.8037 39.3887C28.6314 39.2857 28.4962 39.1461 28.3975 38.9717C28.2988 38.7952 28.249 38.6008 28.249 38.3887C28.2491 38.1765 28.2979 37.983 28.3945 37.8086C28.4912 37.6322 28.6248 37.4934 28.7949 37.3926C28.965 37.2897 29.1561 37.2374 29.3682 37.2373ZM12.1611 39.5088H11.8613L11.6406 38.9414H10.6318L10.4111 39.5088H10.1113L11.0264 37.2695H11.2627L12.1611 39.5088ZM22.1953 39.5088H21.9277V37.2695H22.1953V39.5088ZM24.8271 39.5088H24.5273L24.3066 38.9414H23.2979L23.0771 39.5088H22.7773L23.6924 37.2695H23.9287L24.8271 39.5088ZM26.7568 37.5225H25.9844V39.5088H25.7002V37.5225H24.9277L24.9121 37.2695H26.7568V37.5225ZM27.6074 39.5088H27.3398V37.2695H27.6074V39.5088ZM32.6182 38.9883V37.2695H32.9014V39.5088H32.6963L31.4199 37.79V39.5088H31.1514V37.2695H31.3408L32.6182 38.9883ZM17.6992 37.4902C17.5395 37.4902 17.3948 37.5287 17.2666 37.6064C17.1408 37.682 17.0421 37.7885 16.9707 37.9248C16.8993 38.0613 16.8633 38.2165 16.8633 38.3887C16.8633 38.5609 16.8994 38.716 16.9707 38.8525C17.0421 38.9889 17.1408 39.0961 17.2666 39.1738C17.3948 39.2495 17.5395 39.2871 17.6992 39.2871C17.8608 39.2871 18.0057 39.2485 18.1338 39.1709C18.264 39.0931 18.3669 38.9852 18.4404 38.8486C18.5137 38.7122 18.5508 38.5586 18.5508 38.3887C18.5507 38.2188 18.5138 38.0651 18.4404 37.9287C18.3669 37.7922 18.264 37.6842 18.1338 37.6064C18.0058 37.5289 17.8608 37.4903 17.6992 37.4902ZM29.3682 37.4902C29.2087 37.4903 29.0646 37.5288 28.9365 37.6064C28.8105 37.682 28.7111 37.7884 28.6396 37.9248C28.5682 38.0613 28.5333 38.2165 28.5332 38.3887C28.5332 38.5609 28.5683 38.716 28.6396 38.8525C28.7111 38.9891 28.8105 39.0961 28.9365 39.1738C29.0647 39.2494 29.2085 39.2871 29.3682 39.2871C29.53 39.2871 29.6755 39.2487 29.8037 39.1709C29.934 39.0931 30.0358 38.9852 30.1094 38.8486C30.1827 38.7122 30.2197 38.5587 30.2197 38.3887C30.2197 38.2187 30.1828 38.0652 30.1094 37.9287C30.0358 37.7922 29.9339 37.6842 29.8037 37.6064C29.6755 37.5287 29.5299 37.4902 29.3682 37.4902ZM10.7266 38.7041H11.5469L11.1367 37.6484L10.7266 38.7041ZM23.3926 38.7041H24.2129L23.8027 37.6484L23.3926 38.7041ZM31.2148 32.0879C31.5032 32.0879 31.7684 32.1433 32.0098 32.2539C32.2544 32.3612 32.4588 32.5158 32.623 32.7168L32.3213 33.0439C32.1972 32.8663 32.0382 32.7296 31.8438 32.6357C31.6527 32.5386 31.4428 32.4903 31.2148 32.4902C30.9432 32.4902 30.7015 32.5527 30.4902 32.6768C30.2824 32.7975 30.1193 32.9667 30.002 33.1846C29.888 33.4024 29.8312 33.6491 29.8311 33.9238C29.8311 34.2054 29.888 34.4559 30.002 34.6738C30.116 34.8884 30.2759 35.056 30.4805 35.1768C30.6884 35.2974 30.9246 35.3584 31.1895 35.3584C31.5416 35.3584 31.8254 35.2579 32.04 35.0566C32.2579 34.8521 32.3849 34.5665 32.4219 34.2012H31.1143V33.8232H32.9004V33.874C32.9004 34.2763 32.8277 34.6203 32.6836 34.9053C32.5394 35.1869 32.3382 35.3997 32.0801 35.5439C31.8251 35.6882 31.5282 35.7607 31.1895 35.7607C30.8507 35.7607 30.542 35.6805 30.2637 35.5195C29.9888 35.3552 29.7719 35.1337 29.6143 34.8555C29.4567 34.5738 29.3779 34.2625 29.3779 33.9238C29.378 33.5754 29.4568 33.2616 29.6143 32.9834C29.7752 32.7052 29.9952 32.4867 30.2734 32.3291C30.5518 32.1682 30.8661 32.0879 31.2148 32.0879ZM11.4209 34.958L12.3018 32.1387H12.6543L13.5098 34.958L14.3906 32.1387H14.8438L13.6855 35.7129H13.333L12.4775 32.8945L11.5967 35.7129H11.2441L10.1113 32.1387H10.54L11.4209 34.958ZM17.5547 32.542H15.6182V33.6992H17.4287V34.0762H15.6182V35.3086H17.5801L17.6055 35.7119H15.3408C15.2403 35.7119 15.1904 35.6611 15.1904 35.5605V32.1387H17.5547V32.542ZM19.3135 32.1387C19.652 32.1387 19.961 32.2161 20.2393 32.3701C20.5209 32.5244 20.7433 32.7382 20.9043 33.0098C21.0684 33.2811 21.1502 33.5865 21.1504 33.9248C21.1504 34.2634 21.0715 34.5692 20.9141 34.8408C20.7564 35.1125 20.5381 35.3262 20.2598 35.4805C19.9848 35.6347 19.6776 35.7119 19.3389 35.7119H18.1562C18.0559 35.7118 18.0059 35.661 18.0059 35.5605V32.1387H19.3135ZM22.8701 32.1387C23.2088 32.1387 23.5176 32.2159 23.7959 32.3701C24.0776 32.5244 24.299 32.7382 24.46 33.0098C24.6241 33.2812 24.7069 33.5864 24.707 33.9248C24.707 34.2635 24.6273 34.5692 24.4697 34.8408C24.3121 35.1124 24.0947 35.3262 23.8164 35.4805C23.5414 35.6347 23.2342 35.7119 22.8955 35.7119H21.7129C21.6123 35.7119 21.5615 35.6612 21.5615 35.5605V32.1387H22.8701ZM25.5459 35.7119H25.1182V32.1387H25.5459V35.7119ZM28.5088 34.8809V32.1387H28.9619V35.7119H28.6348L26.5967 32.9697V35.7119H26.1689V32.1387H26.4717L28.5088 34.8809ZM18.4336 35.3086H19.3135C19.5785 35.3086 19.817 35.2517 20.0283 35.1377C20.2396 35.0203 20.4041 34.8573 20.5215 34.6494C20.6387 34.4382 20.6973 34.1962 20.6973 33.9248C20.6971 33.6536 20.6387 33.4137 20.5215 33.2061C20.4041 32.9949 20.2395 32.8318 20.0283 32.7178C19.817 32.6004 19.5784 32.542 19.3135 32.542H18.4336V35.3086ZM21.9893 35.3086H22.8701C23.1351 35.3086 23.3736 35.2517 23.585 35.1377C23.796 35.0203 23.9608 34.8572 24.0781 34.6494C24.1952 34.4383 24.2539 34.1962 24.2539 33.9248C24.2538 33.6537 24.1952 33.4137 24.0781 33.2061C23.9608 32.995 23.796 32.8318 23.585 32.7178C23.3737 32.6004 23.135 32.542 22.8701 32.542H21.9893V35.3086ZM16.5645 24.9102C17.0685 24.9102 17.5253 25.0328 17.9346 25.2773C18.3488 25.5169 18.6736 25.8465 18.9082 26.2656C19.1427 26.6798 19.2597 27.1396 19.2598 27.6436C19.2597 28.1474 19.1426 28.6092 18.9082 29.0283C18.6737 29.4424 18.3514 29.772 17.9424 30.0166C17.5381 30.2562 17.0907 30.376 16.6016 30.376C16.0976 30.3759 15.6388 30.2561 15.2246 30.0166C14.8154 29.772 14.4924 29.4426 14.2578 29.0283C14.0235 28.6093 13.9063 28.1474 13.9062 27.6436C13.9063 27.1396 14.0214 26.6798 14.251 26.2656C14.4806 25.8466 14.798 25.5169 15.2021 25.2773C15.6063 25.033 16.0605 24.9102 16.5645 24.9102ZM10.5664 27.4189L13.2246 24.9863H14.085L11.3145 27.5312L14.1602 30.3018H13.2988L10.5664 27.6436V30.3018H9.92969V24.9863H10.5664V27.4189ZM21.8682 24.9863C22.2125 24.9863 22.5102 25.0509 22.7598 25.1807C23.014 25.3104 23.209 25.4876 23.3438 25.7119C23.4834 25.9364 23.5527 26.1941 23.5527 26.4834C23.5527 26.8925 23.4233 27.2297 23.1641 27.4941C22.9046 27.7586 22.5225 27.9084 22.0186 27.9434L23.9277 30.3018H23.1035L21.2324 27.9434H20.5576V30.3018H19.9219V24.9863H21.8682ZM27.9609 25.585H25.0791V27.3066H27.7744V27.8682H25.0791V29.7031H27.999L28.0361 30.3018H24.667C24.5172 30.3018 24.4424 30.2269 24.4424 30.0771V24.9863H27.9609V25.585ZM33.0713 30.3018H32.3594L31.8359 28.9541H29.4395L28.915 30.3018H28.2041L30.375 24.9863H30.9375L33.0713 30.3018ZM16.5645 25.5098C16.1854 25.5098 15.8434 25.6017 15.5391 25.7861C15.2397 25.9658 15.0047 26.2187 14.835 26.543C14.6653 26.8673 14.5801 27.2345 14.5801 27.6436C14.5801 28.0527 14.6654 28.4198 14.835 28.7441C15.0046 29.0685 15.2397 29.3232 15.5391 29.5078C15.8435 29.6874 16.1852 29.7773 16.5645 29.7773C16.9488 29.7773 17.2932 29.6847 17.5977 29.5C17.907 29.3153 18.1496 29.0607 18.3242 28.7363C18.4987 28.4121 18.5859 28.0475 18.5859 27.6436C18.5859 27.2394 18.4989 26.8741 18.3242 26.5498C18.1495 26.2256 17.907 25.9707 17.5977 25.7861C17.2933 25.6016 16.9486 25.5098 16.5645 25.5098ZM29.6641 28.3926H31.6113L30.6377 25.8848L29.6641 28.3926ZM20.5576 27.4189H21.8311C22.1604 27.4189 22.4179 27.3347 22.6025 27.165C22.787 26.9954 22.8789 26.7678 22.8789 26.4834C22.8788 26.1991 22.7871 25.9714 22.6025 25.8018C22.4179 25.6322 22.1603 25.5479 21.8311 25.5479H20.5576V27.4189ZM11.7061 22.7188C11.7501 22.7276 11.7868 22.7363 11.8154 22.7451C11.8372 22.7506 11.8484 22.7629 11.8486 22.7812C11.8486 22.7845 11.8478 22.7921 11.8457 22.8027C11.8413 22.8291 11.8389 22.8621 11.8389 22.9004L11.835 23.1885C11.8349 23.2225 11.8293 23.2554 11.8184 23.2861C11.8075 23.3165 11.7945 23.3409 11.7793 23.3584C11.765 23.377 11.7506 23.3866 11.7363 23.3867C11.7132 23.3867 11.6973 23.3636 11.6885 23.3174L11.2051 23.334C11.193 23.3614 11.1785 23.3847 11.1621 23.4033C11.1467 23.422 11.1315 23.4316 11.1172 23.4316C11.101 23.4315 11.0896 23.4193 11.083 23.3955C11.0765 23.3723 11.0716 23.3337 11.0684 23.2822L11.0518 22.915C11.0351 22.8877 10.999 22.8652 10.9453 22.8477C10.9399 22.8455 10.9324 22.8429 10.9229 22.8408C10.9143 22.8376 10.9068 22.8352 10.9014 22.833C10.8973 22.8299 10.8947 22.8264 10.8945 22.8232C10.8949 22.8157 10.9062 22.8073 10.9287 22.7998C10.9517 22.7922 10.9735 22.7881 10.9932 22.7881C11.0162 22.7881 11.0507 22.7904 11.0957 22.7959C11.1419 22.8003 11.1779 22.8068 11.2021 22.8145C11.2239 22.821 11.2352 22.8333 11.2354 22.8496C11.2353 22.853 11.2335 22.8606 11.2314 22.8711C11.2271 22.8973 11.2246 22.9265 11.2246 22.957V22.9785L11.6777 22.9648L11.6768 22.8496C11.6679 22.8332 11.6518 22.8171 11.6299 22.8018C11.6091 22.7865 11.5858 22.7734 11.5596 22.7646C11.5542 22.7625 11.5466 22.7609 11.5381 22.7588C11.5295 22.7556 11.522 22.7522 11.5166 22.75C11.5123 22.7467 11.5098 22.7426 11.5098 22.7383C11.5114 22.7308 11.5235 22.7233 11.5459 22.7158C11.5701 22.7081 11.5925 22.7041 11.6123 22.7041C11.631 22.7052 11.6623 22.71 11.7061 22.7188ZM12.6504 22.8975C12.7007 22.9019 12.7376 22.9074 12.7607 22.915C12.7737 22.9183 12.7817 22.9251 12.7852 22.9336C12.7884 22.9423 12.7892 22.9553 12.7871 22.9717C12.7806 23.011 12.7774 23.0416 12.7773 23.0625V23.2383C12.7774 23.2545 12.7815 23.2659 12.7891 23.2725C12.7979 23.2802 12.8122 23.2842 12.832 23.2842C12.9444 23.2842 13.0431 23.2818 13.1279 23.2773C13.1588 23.2762 13.1827 23.2731 13.1992 23.2676C13.2167 23.2621 13.2337 23.2549 13.249 23.2461C13.2631 23.2396 13.2754 23.2356 13.2852 23.2334C13.2951 23.2323 13.3104 23.2322 13.3301 23.2344C13.3486 23.2355 13.3688 23.2379 13.3906 23.2412C13.4137 23.2445 13.4354 23.2477 13.4541 23.251C13.4714 23.2554 13.4853 23.2627 13.4951 23.2725C13.5049 23.2833 13.5096 23.2964 13.5098 23.3105C13.5098 23.3292 13.5001 23.3436 13.4814 23.3535C13.4627 23.3645 13.4412 23.3694 13.417 23.3672C13.3982 23.3661 13.3654 23.3652 13.3193 23.3652H13.2168C13.1486 23.3674 13.0728 23.3699 12.9893 23.3721C12.9066 23.3743 12.8405 23.375 12.792 23.375C12.7292 23.375 12.6822 23.3647 12.6514 23.3438C12.6219 23.3239 12.6066 23.2863 12.6055 23.2314L12.6006 23.0195C12.5829 22.991 12.5453 22.9678 12.4893 22.9502C12.4838 22.9481 12.4763 22.9455 12.4668 22.9434C12.4571 22.9401 12.4488 22.9377 12.4434 22.9355C12.4393 22.9324 12.4367 22.9289 12.4365 22.9258C12.437 22.9182 12.449 22.9099 12.4717 22.9023C12.4945 22.8937 12.5164 22.8887 12.5371 22.8887C12.5625 22.8887 12.6008 22.892 12.6504 22.8975ZM25.1699 22.0264C25.5474 22.0264 25.8366 22.0864 26.0371 22.2061C26.2401 22.3258 26.3426 22.494 26.3428 22.71C26.3427 22.9181 26.24 23.0811 26.0371 23.1982C25.834 23.3153 25.5447 23.374 25.1699 23.374C24.7846 23.374 24.4889 23.3154 24.2832 23.1982C24.0803 23.0811 23.9786 22.9181 23.9785 22.71C23.9787 22.4941 24.0804 22.3258 24.2832 22.2061C24.4889 22.0863 24.7847 22.0264 25.1699 22.0264ZM20.2383 21.6738H18.9297V22.2402H19.9453V23.3535H19.6328V22.5332H17.5234V22.2402H18.5977V21.6738H17.2891V21.3809H20.2383V21.6738ZM22.1035 22.0654C21.8431 22.1097 21.5866 22.141 21.334 22.1592L21.2637 23.3154H20.9512L21.0215 22.1748L20.6387 22.1826H20.3848V21.8887H20.6387C21.1465 21.8887 21.6347 21.8496 22.1035 21.7715V22.0654ZM22.6309 23.3154H22.3184V22.7881H21.6152V22.4951H22.3184V20.0723H22.6309V23.3154ZM23.2559 23.3154H22.9434V20.0723H23.2559V23.3154ZM27.3838 22.4551H29.083V22.1816H29.3955V23.3145H27.1885C27.1103 23.3145 27.0713 23.2754 27.0713 23.1973V22.1816H27.3838V22.4551ZM32.5156 23.3145H32.2031V20.0713H32.5156V23.3145ZM14.875 22.9629H16.8877L16.9072 23.2754H14.6797C14.6017 23.2753 14.5625 23.2363 14.5625 23.1582V22.3965H14.875V22.9629ZM11.2246 23.084L11.2266 23.2295L11.6836 23.2148L11.6797 23.0674L11.2246 23.084ZM25.1699 22.3193C24.8941 22.3194 24.6842 22.3546 24.541 22.4248C24.4008 22.495 24.3302 22.5904 24.3301 22.71C24.3302 22.8295 24.4007 22.921 24.541 22.9834C24.6816 23.0485 24.8914 23.081 25.1699 23.0811C25.4327 23.0811 25.6348 23.0484 25.7754 22.9834C25.9184 22.9184 25.9901 22.827 25.9902 22.71C25.9901 22.5904 25.9185 22.495 25.7754 22.4248C25.6322 22.3546 25.4302 22.3193 25.1699 22.3193ZM27.3838 23.041H29.083V22.7285H27.3838V23.041ZM30.7773 20.8926C31.0403 20.8926 31.2487 20.9552 31.4023 21.0801C31.5584 21.205 31.6366 21.3706 31.6367 21.5762C31.6367 21.7557 31.5753 21.9031 31.4531 22.0176C31.3333 22.1321 31.1666 22.2025 30.9531 22.2285V22.7207C31.4296 22.6947 31.7812 22.6647 32.0078 22.6309V22.9238C31.8203 22.9525 31.5181 22.9785 31.1016 23.002C30.6875 23.028 30.3581 23.041 30.1133 23.041H29.8008V22.748H30.1133C30.2669 22.748 30.4427 22.7441 30.6406 22.7363V22.2324C30.4219 22.2116 30.2461 22.1425 30.1133 22.0254C29.9833 21.9083 29.918 21.7583 29.918 21.5762C29.918 21.441 29.9546 21.3221 30.0273 21.2207C30.1002 21.1167 30.202 21.0358 30.332 20.9785C30.4622 20.9213 30.6107 20.8926 30.7773 20.8926ZM13.2754 21.8457C13.3324 21.8556 13.3732 21.8652 13.3975 21.874C13.4082 21.8773 13.4156 21.8814 13.4189 21.8867C13.4233 21.8921 13.4257 21.8996 13.4258 21.9082C13.4258 21.9165 13.4248 21.9233 13.4238 21.9277C13.4183 21.9628 13.416 21.9943 13.416 22.0195L13.4043 22.75C13.4032 22.8312 13.3927 22.8976 13.373 22.9482C13.3532 22.999 13.33 23.0244 13.3047 23.0244C13.2882 23.0243 13.2754 23.006 13.2666 22.9697C13.2579 22.9334 13.2531 22.8837 13.252 22.8213L13.2422 21.9775C13.2311 21.9611 13.2127 21.945 13.1875 21.9297C13.1623 21.9133 13.1358 21.9004 13.1084 21.8916C13.105 21.8905 13.0977 21.8889 13.0879 21.8867C13.0784 21.8836 13.0708 21.881 13.0654 21.8789C13.0601 21.8757 13.0567 21.8714 13.0566 21.8672C13.0571 21.8596 13.0691 21.8513 13.0918 21.8438C13.1146 21.8351 13.1365 21.8301 13.1572 21.8301C13.1793 21.8301 13.2192 21.8358 13.2754 21.8457ZM11.7129 21.8457C11.77 21.8556 11.8107 21.8652 11.835 21.874C11.8456 21.8772 11.853 21.8815 11.8564 21.8867C11.8608 21.8921 11.8632 21.8996 11.8633 21.9082C11.8633 21.9166 11.8623 21.9233 11.8613 21.9277C11.8558 21.9628 11.8535 21.9943 11.8535 22.0195L11.8506 22.4229C11.8506 22.4645 11.8449 22.5039 11.834 22.54C11.8241 22.5752 11.8104 22.604 11.7939 22.626C11.7785 22.6469 11.7626 22.6572 11.7461 22.6572C11.7296 22.6572 11.716 22.6429 11.7061 22.6143C11.6963 22.5857 11.6906 22.547 11.6895 22.499L11.6865 22.3682C11.6667 22.3671 11.6419 22.3678 11.6133 22.3711C11.5849 22.3733 11.5631 22.3766 11.5488 22.3799C11.5358 22.3821 11.5228 22.3862 11.5098 22.3916C11.4943 22.4004 11.4823 22.4043 11.4746 22.4043C11.4647 22.4043 11.4543 22.4011 11.4434 22.3945C11.4257 22.3868 11.401 22.3692 11.3691 22.3428L11.3652 22.4902C11.3641 22.5242 11.3586 22.5572 11.3477 22.5879C11.3378 22.6185 11.3248 22.6434 11.3096 22.6621C11.2941 22.6797 11.279 22.6885 11.2646 22.6885C11.2416 22.6884 11.2249 22.6654 11.2139 22.6191L10.8545 22.6357C10.8446 22.6709 10.8293 22.7021 10.8096 22.7285C10.79 22.7535 10.7722 22.7664 10.7559 22.7666C10.7383 22.7666 10.7254 22.7546 10.7188 22.7305C10.7122 22.7063 10.7083 22.6684 10.7061 22.6182L10.6895 22.1895C10.6728 22.162 10.6368 22.1396 10.583 22.1221C10.5776 22.1199 10.5701 22.1174 10.5605 22.1152C10.5519 22.112 10.5445 22.1086 10.5391 22.1064C10.5348 22.1032 10.5322 22.0999 10.5322 22.0967C10.5328 22.0892 10.544 22.0807 10.5664 22.0732C10.5895 22.0656 10.612 22.0625 10.6318 22.0625C10.655 22.0625 10.6895 22.0648 10.7344 22.0703C10.7804 22.0747 10.8157 22.0812 10.8398 22.0889C10.8615 22.0954 10.8727 22.1069 10.873 22.123C10.873 22.1263 10.8713 22.1338 10.8691 22.1445C10.8648 22.1708 10.8633 22.1999 10.8633 22.2305V22.2568L11.2021 22.2461L11.2002 22.1055C11.1914 22.0892 11.176 22.0728 11.1543 22.0576C11.1334 22.0423 11.1093 22.0293 11.083 22.0205C11.0775 22.0183 11.0702 22.0159 11.0615 22.0137C11.0529 22.0104 11.0455 22.008 11.04 22.0059C11.0358 22.0026 11.0332 21.9985 11.0332 21.9941C11.0348 21.9867 11.0469 21.9791 11.0693 21.9727C11.0924 21.9661 11.1148 21.9629 11.1357 21.9629C11.1555 21.964 11.1891 21.9696 11.2363 21.9795C11.2846 21.9883 11.323 21.9962 11.3506 22.0039C11.3725 22.0094 11.3836 22.0225 11.3838 22.041C11.3837 22.0444 11.3829 22.0521 11.3809 22.0625C11.3776 22.0801 11.3751 22.1126 11.374 22.1592L11.3701 22.2783C11.3988 22.2805 11.4228 22.2822 11.4404 22.2822L11.5176 22.2803C11.5737 22.2792 11.6295 22.2744 11.6846 22.2656L11.6777 21.9775C11.6678 21.9613 11.65 21.9449 11.624 21.9297C11.5987 21.9132 11.5714 21.9004 11.5439 21.8916C11.5395 21.8905 11.5321 21.8889 11.5225 21.8867C11.5138 21.8835 11.5064 21.8811 11.501 21.8789C11.4968 21.8757 11.4952 21.8714 11.4951 21.8672C11.4955 21.8596 11.5066 21.8513 11.5293 21.8438C11.5535 21.835 11.5759 21.8301 11.5957 21.8301C11.6178 21.8301 11.6569 21.8358 11.7129 21.8457ZM12.5586 22.0107C12.5894 22.0107 12.6151 22.0171 12.6338 22.0303C12.6534 22.0434 12.663 22.0613 12.6631 22.082C12.6631 22.0928 12.6605 22.1027 12.6562 22.1113C12.7124 22.119 12.7627 22.1383 12.8057 22.168C12.8496 22.1976 12.8831 22.2346 12.9062 22.2773C12.9304 22.3202 12.9423 22.365 12.9424 22.4111C12.9424 22.4727 12.9255 22.5302 12.8926 22.583C12.8607 22.6347 12.8175 22.6762 12.7637 22.707C12.7098 22.7366 12.6523 22.7519 12.5908 22.752C12.5181 22.752 12.452 22.7384 12.3936 22.7119C12.3352 22.6855 12.289 22.6472 12.2549 22.5977C12.222 22.5481 12.2051 22.4907 12.2051 22.4258C12.2052 22.3433 12.2331 22.2723 12.2881 22.2129C12.3432 22.1535 12.4124 22.1159 12.4961 22.1016C12.5181 22.0971 12.5293 22.0852 12.5293 22.0654C12.5292 22.0502 12.5219 22.0339 12.5078 22.0176C12.5242 22.0132 12.5411 22.0108 12.5586 22.0107ZM12.627 22.209C12.6149 22.2211 12.5932 22.2291 12.5625 22.2324C12.5053 22.2412 12.459 22.2637 12.4248 22.2988C12.3909 22.3339 12.3742 22.3765 12.374 22.4258C12.374 22.4775 12.3939 22.5223 12.4346 22.5586C12.4754 22.5939 12.5271 22.6113 12.5889 22.6113C12.6505 22.6113 12.7016 22.5922 12.7412 22.5537C12.7817 22.5142 12.8016 22.4652 12.8018 22.4082C12.8017 22.3599 12.7875 22.3157 12.7578 22.2783C12.7281 22.24 12.684 22.2167 12.627 22.209ZM10.8633 22.3633L10.8643 22.5322L11.207 22.5186L11.2031 22.3486L10.8633 22.3633ZM16.8096 20.8926H17.2979V21.1855H16.8096V22.4746H16.4775V20.0723H16.8096V20.8926ZM15.0898 20.7949C15.3448 20.7949 15.5482 20.855 15.6992 20.9746C15.8528 21.0943 15.9295 21.2561 15.9297 21.459C15.9297 21.6725 15.8528 21.8405 15.6992 21.9629C15.5482 22.0826 15.345 22.1426 15.0898 22.1426C14.8269 22.1425 14.6211 22.0827 14.4727 21.9629C14.3245 21.8405 14.25 21.6724 14.25 21.459C14.2501 21.2535 14.3244 21.0917 14.4727 20.9746C14.6211 20.8549 14.827 20.795 15.0898 20.7949ZM29.3955 22.0059H29.0635V21.7129H28.458V21.4199H29.0635V21.0879H28.458V20.7949H29.0635V20.0723H29.3955V22.0059ZM27.5596 20.7363C27.7262 20.7363 27.8734 20.7624 28.001 20.8145C28.1284 20.8665 28.2262 20.9409 28.2939 21.0371C28.3642 21.1307 28.3993 21.2391 28.3994 21.3613C28.3994 21.5461 28.3224 21.6934 28.1689 21.8027C28.0179 21.9121 27.8148 21.9668 27.5596 21.9668C27.2965 21.9668 27.0908 21.9134 26.9424 21.8066C26.7941 21.6973 26.7197 21.5488 26.7197 21.3613C26.7199 21.174 26.7941 21.0227 26.9424 20.9082C27.0934 20.7938 27.2993 20.7363 27.5596 20.7363ZM30.7773 21.166C30.6238 21.166 30.4974 21.2052 30.3984 21.2832C30.2997 21.3612 30.2501 21.4592 30.25 21.5762C30.2501 21.6932 30.2984 21.7885 30.3945 21.8613C30.4935 21.9316 30.6212 21.9668 30.7773 21.9668C30.9335 21.9668 31.0599 21.9316 31.1562 21.8613C31.255 21.7885 31.3046 21.6932 31.3047 21.5762C31.3046 21.4592 31.255 21.3612 31.1562 21.2832C31.0599 21.2052 30.9335 21.166 30.7773 21.166ZM26.2842 21.9082H25.9512V20.0723H26.2842V21.9082ZM15.0898 21.0684C14.926 21.0684 14.7968 21.1036 14.7031 21.1738C14.6096 21.244 14.5626 21.3395 14.5625 21.459C14.5625 21.5864 14.6096 21.6869 14.7031 21.7598C14.7968 21.8327 14.9259 21.8691 15.0898 21.8691C15.2487 21.8691 15.3763 21.8326 15.4727 21.7598C15.5689 21.6843 15.6172 21.5839 15.6172 21.459C15.617 21.342 15.5676 21.2479 15.4688 21.1777C15.3724 21.105 15.2459 21.0684 15.0898 21.0684ZM25.3262 20.4824H24.0371V21.4043C24.5787 21.3991 25.0475 21.3457 25.4434 21.2441L25.4824 21.5566C25.0084 21.653 24.4616 21.7051 23.8418 21.7129C23.7637 21.7129 23.7246 21.6738 23.7246 21.5957V20.1895H25.3262V20.4824ZM27.5596 20.9902C27.3957 20.9902 27.2666 21.0256 27.1729 21.0957C27.0792 21.1633 27.0324 21.2522 27.0322 21.3613C27.0322 21.4706 27.0792 21.5566 27.1729 21.6191C27.2666 21.6816 27.3955 21.7129 27.5596 21.7129C27.7158 21.7129 27.8421 21.6816 27.9385 21.6191C28.0373 21.554 28.0869 21.468 28.0869 21.3613C28.0867 21.2548 28.0373 21.1659 27.9385 21.0957C27.8422 21.0255 27.7157 20.9902 27.5596 20.9902ZM11.5869 20.0361C11.6439 20.046 11.6847 20.0557 11.709 20.0645C11.7198 20.0677 11.7271 20.0727 11.7305 20.0781C11.7348 20.0835 11.7372 20.091 11.7373 20.0996C11.7373 20.108 11.7364 20.1148 11.7354 20.1191C11.7299 20.1541 11.7276 20.1847 11.7275 20.21L11.7227 20.832L11.7803 20.8271C11.8034 20.8249 11.8217 20.8169 11.835 20.8037C11.8524 20.7897 11.8711 20.7823 11.8906 20.7822C11.906 20.7822 11.9277 20.7847 11.9541 20.7891C11.9812 20.7934 12.0014 20.7975 12.0146 20.8008C12.0332 20.8062 12.0469 20.816 12.0547 20.8291C12.0633 20.841 12.0673 20.8542 12.0664 20.8682C12.0609 20.909 12.0274 20.9281 11.9668 20.9248C11.9361 20.9226 11.9081 20.9209 11.8828 20.9209C11.853 20.9209 11.8117 20.9226 11.7588 20.9248L11.7207 20.9258L11.7178 21.333C11.7178 21.3968 11.712 21.4535 11.7021 21.502C11.6923 21.5501 11.6794 21.587 11.6641 21.6123C11.6486 21.6388 11.6327 21.6523 11.6162 21.6523C11.5999 21.652 11.587 21.6305 11.5771 21.5879C11.5684 21.546 11.5626 21.4868 11.5615 21.4121L11.5537 20.1689C11.5427 20.1525 11.5242 20.1364 11.499 20.1211C11.4738 20.1047 11.4473 20.0918 11.4199 20.083C11.4166 20.0819 11.4099 20.0802 11.4004 20.0781C11.3906 20.0748 11.3824 20.0715 11.377 20.0693C11.3716 20.0661 11.3682 20.062 11.3682 20.0576C11.369 20.0502 11.381 20.0426 11.4033 20.0352C11.4264 20.0264 11.4488 20.0215 11.4697 20.0215C11.4918 20.0215 11.531 20.0263 11.5869 20.0361ZM21.1855 20.1113C21.3469 20.1113 21.489 20.1427 21.6113 20.2051C21.7361 20.2649 21.8327 20.3498 21.9004 20.459C21.9706 20.5682 22.0057 20.6936 22.0059 20.834C22.0059 20.9822 21.9705 21.1127 21.9004 21.2246C21.8327 21.3365 21.7362 21.4238 21.6113 21.4863C21.4889 21.5462 21.347 21.5762 21.1855 21.5762C20.9329 21.5762 20.7324 21.5098 20.584 21.377C20.4384 21.2415 20.3652 21.0604 20.3652 20.834C20.3654 20.6181 20.4383 20.4432 20.584 20.3105C20.7324 20.1779 20.9331 20.1113 21.1855 20.1113ZM12.5938 21.123C12.6421 21.1274 12.678 21.1339 12.7012 21.1416C12.7141 21.1459 12.7231 21.1517 12.7266 21.1592C12.7298 21.1668 12.7297 21.1799 12.7275 21.1973C12.7221 21.2301 12.7198 21.2583 12.7197 21.2803L12.7227 21.4336C12.7227 21.4632 12.7388 21.4784 12.7705 21.4785C12.8675 21.4785 12.9646 21.4769 13.0605 21.4736C13.0924 21.4714 13.1172 21.4674 13.1348 21.4619C13.1522 21.4575 13.1676 21.4511 13.1807 21.4424C13.1938 21.4358 13.2059 21.4309 13.2158 21.4287C13.2268 21.4276 13.2437 21.4276 13.2656 21.4287C13.2843 21.4298 13.3059 21.4323 13.3301 21.4355C13.354 21.4388 13.3726 21.4429 13.3857 21.4473C13.423 21.4593 13.4422 21.4795 13.4424 21.5068C13.4423 21.5244 13.4326 21.538 13.4141 21.5479C13.3964 21.5589 13.375 21.5636 13.3496 21.5625C13.3056 21.5603 13.2673 21.5596 13.2354 21.5596L13.1514 21.5615L12.7441 21.5693C12.6781 21.5704 12.6295 21.5608 12.5986 21.541C12.5682 21.5211 12.551 21.4827 12.5488 21.4258L12.543 21.2451C12.5274 21.2167 12.4898 21.1933 12.4316 21.1758C12.4272 21.1747 12.4198 21.173 12.4102 21.1709C12.4015 21.1677 12.3941 21.1653 12.3887 21.1631C12.3845 21.1599 12.3819 21.1556 12.3818 21.1514C12.3823 21.1438 12.3936 21.1355 12.415 21.1279C12.4381 21.1202 12.4605 21.1162 12.4814 21.1162C12.5079 21.1162 12.5454 21.1187 12.5938 21.123ZM21.1855 20.3848C21.0295 20.3848 20.9056 20.4253 20.8145 20.5059C20.7235 20.5865 20.6779 20.6963 20.6777 20.834C20.6777 20.9797 20.7235 21.0944 20.8145 21.1777C20.9056 21.2611 21.0293 21.3027 21.1855 21.3027C21.3418 21.3027 21.4655 21.2611 21.5566 21.1777C21.6476 21.0944 21.6934 20.9797 21.6934 20.834C21.6932 20.6963 21.6476 20.5865 21.5566 20.5059C21.4655 20.4253 21.3416 20.3848 21.1855 20.3848ZM11.0127 20.3115C11.0677 20.3269 11.1109 20.3412 11.1406 20.3555C11.1601 20.3631 11.1697 20.3763 11.1699 20.3936C11.1699 20.4045 11.1667 20.4192 11.1602 20.4355C11.1315 20.5246 11.0908 20.6149 11.0381 20.7051L11.1035 20.7676L11.1699 20.832C11.1831 20.8441 11.1984 20.8553 11.2148 20.8652C11.2313 20.8751 11.2466 20.8806 11.2598 20.8828C11.2891 20.8851 11.3101 20.8966 11.3223 20.916C11.3398 20.9435 11.3558 20.9732 11.3701 21.0039C11.3854 21.0334 11.3959 21.0567 11.4004 21.0732C11.4047 21.0905 11.4062 21.1053 11.4062 21.1162C11.4062 21.1414 11.3982 21.1582 11.3818 21.166C11.3741 21.1693 11.3661 21.1709 11.3584 21.1709C11.3441 21.1709 11.3288 21.167 11.3135 21.1582C11.2994 21.1494 11.2873 21.1372 11.2764 21.123L10.9834 20.792C10.8733 20.9539 10.7434 21.0837 10.5947 21.1807C10.5794 21.1916 10.5616 21.2029 10.542 21.2139C10.5222 21.2238 10.507 21.2285 10.4971 21.2285C10.4849 21.2285 10.4834 21.2222 10.4922 21.209C10.5022 21.1958 10.5198 21.1763 10.5449 21.1523C10.6308 21.0697 10.713 20.9621 10.79 20.8301C10.8681 20.698 10.9272 20.5672 10.9668 20.4385C10.958 20.4177 10.9435 20.3975 10.9238 20.3789C10.9052 20.3603 10.8835 20.3466 10.8594 20.3389C10.8495 20.3356 10.8398 20.3315 10.8311 20.3271C10.8236 20.3228 10.8194 20.3188 10.8193 20.3145C10.8208 20.3091 10.8297 20.3032 10.8457 20.2979C10.8632 20.2913 10.881 20.2881 10.8984 20.2881C10.9205 20.2881 10.9588 20.2961 11.0127 20.3115ZM13.1846 20.0361C13.2414 20.046 13.2815 20.0557 13.3047 20.0645C13.3188 20.0677 13.3276 20.0744 13.3311 20.083C13.3343 20.0907 13.3351 20.1028 13.333 20.1191C13.3275 20.1541 13.3252 20.1847 13.3252 20.21L13.3164 20.7051L13.3633 20.7012C13.3852 20.6989 13.4036 20.6909 13.4189 20.6777C13.4365 20.6636 13.4559 20.6562 13.4756 20.6562C13.491 20.6563 13.5102 20.6588 13.5332 20.6621C13.5562 20.6654 13.5763 20.6685 13.5928 20.6729C13.609 20.6761 13.6212 20.6837 13.6289 20.6943C13.6376 20.7052 13.6424 20.7184 13.6426 20.7324C13.6426 20.7743 13.6091 20.7959 13.543 20.7959H13.4932C13.4296 20.7959 13.3703 20.7975 13.3154 20.8008L13.3135 20.9531C13.3124 21.0068 13.3067 21.055 13.2969 21.0967C13.287 21.1384 13.2741 21.1712 13.2588 21.1943C13.2445 21.2163 13.2293 21.2275 13.2139 21.2275C13.1975 21.2274 13.1847 21.2089 13.1748 21.1729C13.166 21.1365 13.1603 21.086 13.1592 21.0234L13.1562 20.7773C13.0527 20.8247 12.9309 20.8694 12.791 20.9102C12.6523 20.9509 12.5248 20.9763 12.4092 20.9873C12.4037 20.9884 12.394 20.9893 12.3818 20.9893C12.3611 20.9892 12.3433 20.9845 12.3291 20.9746C12.2741 20.9338 12.2462 20.878 12.2451 20.8086L12.2383 20.4199C12.2238 20.3926 12.1894 20.3692 12.1357 20.3506C12.1302 20.3484 12.1221 20.3459 12.1123 20.3438C12.1038 20.3405 12.0971 20.3381 12.0928 20.3359C12.0885 20.3327 12.0859 20.3286 12.0859 20.3242C12.0865 20.3177 12.0977 20.3102 12.1191 20.3027C12.1411 20.294 12.1628 20.2891 12.1826 20.2891C12.2035 20.2891 12.2332 20.2924 12.2715 20.2979C12.311 20.3033 12.343 20.3097 12.3672 20.3174C12.387 20.3185 12.4181 20.3186 12.46 20.3164C12.5015 20.3142 12.5311 20.3118 12.5488 20.3096C12.5764 20.3063 12.598 20.3014 12.6123 20.2959C12.6265 20.2893 12.6419 20.2822 12.6572 20.2734C12.6702 20.2648 12.6816 20.2591 12.6914 20.2568C12.7013 20.2546 12.7165 20.2529 12.7363 20.2529C12.7539 20.2529 12.7748 20.2545 12.7988 20.2578C12.823 20.26 12.843 20.2633 12.8584 20.2666C12.8946 20.2743 12.9138 20.2929 12.915 20.3213C12.9149 20.3387 12.906 20.3541 12.8896 20.3672C12.8743 20.3792 12.8559 20.3857 12.834 20.3857C12.7855 20.3857 12.7345 20.3873 12.6816 20.3906L12.6152 20.3955C12.5021 20.4021 12.4327 20.4077 12.4072 20.4121V20.8057C12.4073 20.8187 12.4114 20.8284 12.4189 20.835C12.4266 20.8415 12.4362 20.8448 12.4482 20.8438C12.5683 20.8338 12.6901 20.8162 12.8135 20.792C12.938 20.7677 13.0526 20.7368 13.1562 20.6982L13.1494 20.1689C13.1384 20.1525 13.1199 20.1364 13.0947 20.1211C13.0695 20.1047 13.0431 20.0918 13.0156 20.083C13.0112 20.0819 13.004 20.0803 12.9941 20.0781C12.9854 20.0748 12.9781 20.0715 12.9727 20.0693C12.9685 20.0661 12.9658 20.0619 12.9658 20.0576C12.9666 20.0502 12.9786 20.0426 13.001 20.0352C13.024 20.0264 13.0465 20.0215 13.0674 20.0215C13.0884 20.0216 13.1277 20.0263 13.1846 20.0361ZM19.8281 20.1309C19.9061 20.1309 19.9452 20.1702 19.9453 20.248C19.9271 20.5786 19.888 20.8914 19.8281 21.1855L19.5156 21.166C19.5833 20.9135 19.6224 20.6659 19.6328 20.4238H17.5234L17.5039 20.1309H19.8281ZM30.9336 20.3838H31.7734V20.6777H29.8008L29.7812 20.3838H30.6406V19.9932H30.9336V20.3838ZM15.2461 20.3066H16.0664V20.5801H14.1133L14.0938 20.3066H14.9336V19.916H15.2461V20.3066ZM27.7158 20.2676H28.5361V20.541H26.583L26.5635 20.2676H27.4033V19.916H27.7158V20.2676ZM21.5039 2.46484L23.5967 6.44824L22.1768 9.42285L22.8535 11.8555C23.6819 9.99613 25.7465 5.82613 27.3818 4.01465C28.2833 4.08228 30.3703 4.33237 31.5059 4.79199C31.0776 5.1381 30.062 6.07797 29.4268 7.06836C30.1759 7.12733 31.8456 7.33325 32.5303 7.68262C30.4518 9.35749 26.032 13.6864 24.9824 17.6025H23.5967L21.502 11.4209L19.4082 17.6025H18.0225C16.973 13.6866 12.5542 9.35772 10.4756 7.68262C11.1607 7.33339 12.8293 7.12729 13.5781 7.06836C12.9429 6.0779 11.9273 5.13812 11.499 4.79199C12.6348 4.33243 14.7218 4.08224 15.623 4.01465C17.2586 5.82625 19.3241 9.99636 20.1523 11.8555L20.8281 9.42285L19.4082 6.44824L21.501 2.46484V2.45996L21.502 2.46191L21.5039 2.45996V2.46484Z" fill="#252525"/>
</svg>
