<svg width="72" height="42" viewBox="0 0 72 42" fill="none" xmlns="http://www.w3.org/2000/svg">
<rect width="72" height="42" fill="white"/>
<path d="M19.6094 7.54785C24.8546 8.00155 29.017 10.6683 31.2149 14.9824C32.2873 17.0873 32.6602 18.6431 32.6602 21.0146C32.6602 24.6054 31.4023 27.6947 28.8965 30.2588C26.6223 32.5858 23.7844 33.9881 20.5479 34.3848C18.8199 34.5965 18.7999 34.594 18.7999 34.1504C18.7999 33.7785 18.8139 33.7712 19.6739 33.6895C25.4654 33.1388 29.811 29.6921 31.4366 24.3604C31.7595 23.3011 31.7902 23.0194 31.7921 21.0664C31.7945 18.53 31.594 17.6158 30.586 15.5645C29.3184 12.9854 27.3577 11.0463 24.6895 9.73242C23.011 8.90594 21.6434 8.52243 19.9971 8.41797L18.7999 8.34277V7.47852L19.6094 7.54785ZM16.211 9.1416C17.8455 8.78226 20.6287 8.87396 22.2305 9.33984C29.0412 11.3209 32.8152 18.0613 30.7618 24.5762C29.5296 28.4856 26.5123 31.3923 22.3594 32.6699C21.2653 33.0066 21.0493 33.0283 18.7999 33.0283C16.5622 33.0283 16.3307 33.0046 15.2676 32.6768C11.7872 31.6036 9.1262 29.4066 7.58112 26.3301C6.70985 24.5954 6.34888 23.0616 6.34381 21.0664C6.33863 19.0094 6.65541 17.611 7.53229 15.8232C9.23273 12.3562 12.2891 10.0037 16.211 9.1416ZM42.7032 32.9141H42.2422V27.8809H42.7032V32.9141ZM52.6739 29.9473H53.4962V30.3359H52.6739V32.9082H52.2188V27.8809H52.6739V29.9473ZM58.4737 31.1416H56.4122V32.9082H55.9571V31.1416H53.918V30.7588H58.4737V31.1416ZM44.7413 32.4141H47.7637V32.792H44.2862V31.3252H44.7413V32.4141ZM30.3614 21.4551C30.1496 21.4552 30.091 21.6123 29.9571 22.5391C28.9853 29.2576 21.9054 33.5389 15.3047 31.3994C11.1959 30.0675 8.26892 26.6558 7.65924 22.4873C7.53071 21.6081 7.47133 21.4551 7.25983 21.4551C7.03593 21.4551 7.01969 21.5217 7.09381 22.1338C7.75385 27.586 11.9574 31.702 17.5342 32.3564C20.9491 32.7571 24.6168 31.5038 27.086 29.0918C29.046 27.1771 30.2145 24.8333 30.5225 22.1992C30.6017 21.522 30.5869 21.4551 30.3614 21.4551ZM63.5889 32.2305H59.0342V31.8477H63.5889V32.2305ZM50.2911 29.4756C50.528 29.4756 50.7376 29.525 50.919 29.625C51.104 29.7249 51.248 29.8623 51.3516 30.0361C51.459 30.2065 51.5128 30.4049 51.5128 30.6309C51.5127 30.8567 51.459 31.0565 51.3516 31.2305C51.248 31.4044 51.104 31.5416 50.919 31.6416C50.7376 31.7379 50.528 31.7861 50.2911 31.7861C50.0541 31.7861 49.8425 31.7379 49.6573 31.6416C49.476 31.5416 49.332 31.4044 49.2247 31.2305C49.1173 31.0564 49.0636 30.8567 49.0635 30.6309C49.0635 30.4049 49.1173 30.2065 49.2247 30.0361C49.332 29.8622 49.476 29.7249 49.6573 29.625C49.8425 29.525 50.0541 29.4756 50.2911 29.4756ZM40.0538 28.2695C40.3017 28.2696 40.5203 28.342 40.709 28.4863C40.9016 28.6271 41.0519 28.8289 41.1592 29.0918C41.2703 29.3547 41.3252 29.6641 41.3253 30.0195C41.3253 30.375 41.2703 30.6844 41.1592 30.9473C41.0518 31.2102 40.9016 31.4142 40.709 31.5586C40.5203 31.7029 40.3017 31.7753 40.0538 31.7754C39.8058 31.7754 39.5851 31.7029 39.3926 31.5586C39.2001 31.4142 39.0477 31.2102 38.9366 30.9473C38.8292 30.6843 38.7755 30.375 38.7755 30.0195C38.7755 29.664 38.8292 29.3547 38.9366 29.0918C39.0477 28.8289 39.2001 28.6271 39.3926 28.4863C39.5852 28.342 39.8057 28.2695 40.0538 28.2695ZM50.2911 29.8584C50.1392 29.8584 50.0033 29.8923 49.8848 29.959C49.7666 30.0256 49.6719 30.1159 49.6016 30.2305C49.535 30.3453 49.502 30.479 49.502 30.6309C49.502 30.7825 49.5351 30.9177 49.6016 31.0361C49.6719 31.1508 49.7664 31.2419 49.8848 31.3086C50.0033 31.3716 50.1392 31.4033 50.2911 31.4033C50.439 31.4033 50.5721 31.3714 50.6905 31.3086C50.809 31.2419 50.9021 31.1509 50.9688 31.0361C51.0391 30.9177 51.0743 30.7826 51.0743 30.6309C51.0743 30.479 51.0392 30.3453 50.9688 30.2305C50.9022 30.1157 50.809 30.0256 50.6905 29.959C50.5721 29.8924 50.4391 29.8584 50.2911 29.8584ZM40.0538 28.6807C39.8871 28.6807 39.7402 28.7366 39.6143 28.8477C39.4922 28.9551 39.3956 29.1109 39.3253 29.3145C39.255 29.5143 39.2198 29.7494 39.2198 30.0195C39.2198 30.2897 39.255 30.5268 39.3253 30.7305C39.3956 30.9304 39.4922 31.0862 39.6143 31.1973C39.7402 31.3084 39.8871 31.3643 40.0538 31.3643C40.2166 31.3642 40.3594 31.3083 40.4815 31.1973C40.6073 31.0862 40.7051 30.9303 40.7755 30.7305C40.8458 30.5268 40.8809 30.2898 40.8809 30.0195C40.8809 29.7493 40.8457 29.5144 40.7755 29.3145C40.7051 29.1109 40.6073 28.955 40.4815 28.8477C40.3594 28.7366 40.2166 28.6808 40.0538 28.6807ZM8.21002 21.4551L8.27545 22.0049C8.88066 27.0815 12.9882 30.9252 18.1524 31.248C21.2536 31.4418 24.0991 30.3737 26.3106 28.1855C27.5221 26.9868 28.1948 25.9855 28.7139 24.6094C29.0143 23.8129 29.4139 22.1168 29.4141 21.6377C29.4141 21.4817 27.8567 21.4551 18.8126 21.4551H8.21002ZM48.2471 30.792H43.7032V30.4199H48.2471V30.792ZM61.5284 28.6143C61.5284 28.7846 61.5635 28.9513 61.6339 29.1143C61.7042 29.2735 61.7986 29.4238 61.9171 29.5645C62.0392 29.7051 62.1786 29.8325 62.334 29.9473C62.4896 30.0583 62.6542 30.1549 62.8282 30.2363C63.0059 30.3141 63.1836 30.37 63.3614 30.4033L63.1505 30.7861C62.9505 30.738 62.7541 30.6678 62.5616 30.5752C62.3691 30.4826 62.1858 30.3696 62.0118 30.2363C61.8414 30.103 61.6891 29.9528 61.5557 29.7861C61.4466 29.6466 61.3586 29.4978 61.2891 29.3408C61.2197 29.4978 61.1317 29.6466 61.0225 29.7861C60.8929 29.9527 60.7414 30.103 60.5674 30.2363C60.3972 30.3696 60.2138 30.4826 60.0176 30.5752C59.8252 30.6677 59.6286 30.738 59.4288 30.7861L59.2227 30.4033C59.3968 30.3663 59.5711 30.3082 59.7452 30.2305C59.9229 30.1527 60.0897 30.0583 60.2452 29.9473C60.4006 29.8325 60.5379 29.7051 60.6563 29.5645C60.7785 29.4237 60.8729 29.2735 60.9395 29.1143C61.0099 28.9513 61.045 28.7846 61.045 28.6143V28.2256H61.5284V28.6143ZM56.1846 28.0811C56.5363 28.0811 56.8436 28.1272 57.1065 28.2197C57.3695 28.3086 57.5756 28.4369 57.7237 28.6035C57.8716 28.7664 57.9454 28.9608 57.9454 29.1865C57.9453 29.4085 57.8716 29.603 57.7237 29.7695C57.5756 29.9362 57.3695 30.0644 57.1065 30.1533C56.8436 30.2421 56.5363 30.2861 56.1846 30.2861C55.8402 30.2861 55.5343 30.2422 55.2676 30.1533C55.0048 30.0644 54.7995 29.9362 54.6514 29.7695C54.5033 29.6029 54.4288 29.4087 54.4288 29.1865C54.4288 28.9607 54.5034 28.7664 54.6514 28.6035C54.7995 28.4369 55.0048 28.3086 55.2676 28.2197C55.5343 28.1271 55.8402 28.0811 56.1846 28.0811ZM56.1846 28.4531C55.933 28.4531 55.709 28.4828 55.5128 28.542C55.3202 28.6012 55.17 28.6867 55.0626 28.7979C54.9552 28.9052 54.9015 29.0326 54.9014 29.1807C54.9014 29.3325 54.9552 29.4641 55.0626 29.5752C55.17 29.6825 55.3202 29.766 55.5128 29.8252C55.7089 29.8844 55.933 29.9141 56.1846 29.9141C56.4438 29.9141 56.6698 29.8844 56.8624 29.8252C57.0549 29.7659 57.2052 29.6826 57.3126 29.5752C57.4199 29.4641 57.4737 29.3324 57.4737 29.1807C57.4737 29.0327 57.4197 28.9052 57.3126 28.7979C57.2052 28.6868 57.0549 28.6012 56.8624 28.542C56.6698 28.4827 56.4438 28.4531 56.1846 28.4531ZM47.6807 28.4697H44.7364V29.4922H47.7247V29.8701H44.2745V28.0977H47.6807V28.4697ZM50.5128 28.6865H51.7462V29.0645H48.7852V28.6865H50.0518V27.9424H50.5128V28.6865ZM44.5274 20.2158C45.1181 20.005 46.3868 19.9826 47.0655 20.1709C47.712 20.3507 48.646 21.2157 48.8458 21.8203C49.0928 22.5688 49.0292 23.6908 48.7022 24.3662C48.0611 25.6906 46.3177 26.3067 44.6397 25.8018C43.288 25.395 42.6262 24.482 42.6212 23.0166C42.6164 21.6273 43.2723 20.6637 44.5274 20.2158ZM57.5694 20.2744C58.143 20.011 59.5915 19.9453 60.1495 20.1572C60.4084 20.2557 60.4815 20.3725 60.4815 20.6885C60.4815 21.014 60.4393 21.0774 60.2657 21.0107C58.9398 20.502 57.5053 20.7574 57.5049 21.502C57.5049 21.9069 57.7894 22.1392 58.9327 22.665C60.3557 23.3198 60.8497 23.9005 60.6719 24.71C60.4856 25.558 59.3097 26.0669 57.8487 25.9326C56.7232 25.8292 56.4688 25.6956 56.4688 25.2041C56.4688 24.7641 56.5252 24.7489 57.1612 25.0146C57.7848 25.2752 59.045 25.2679 59.4249 25.002C59.6458 24.8471 59.7095 24.6927 59.6797 24.3867C59.6433 24.0121 59.5399 23.9283 58.4112 23.3613C56.8838 22.5942 56.571 22.2989 56.5528 21.6084C56.5365 20.9891 56.8182 20.6194 57.5694 20.2744ZM51.0323 20.1602V22.041C51.0323 24.7149 51.2944 25.2089 52.7149 25.209C54.1356 25.209 54.3975 24.715 54.3975 22.041V20.1602H55.3038L55.3008 21.9404C55.2964 24.4789 55.1048 25.0851 54.1251 25.6621C53.4558 26.0558 51.7918 26.0312 51.126 25.6172C50.292 25.0988 50.1983 24.7815 50.1485 22.3281L50.1046 20.1602H51.0323ZM37.0518 20.1602V22.6191H40.418V20.1602H41.3233V25.8555H40.418V23.2666H37.0518V25.8555H36.1456V20.1602H37.0518ZM65.4014 20.1602V20.8076H62.8116V22.6191H64.0421C65.2672 22.6191 65.2715 22.6209 65.2715 22.9434C65.2715 23.2657 65.2671 23.2666 64.0421 23.2666H62.8116V25.209H65.6602V25.8555H61.9063V20.1602H65.4014ZM47.0704 21.0439C46.5203 20.7268 45.6191 20.6464 45.0303 20.8623C43.9728 21.2501 43.4434 22.1228 43.5557 23.292C43.6248 24.009 43.9178 24.4803 44.5723 24.9287C44.952 25.1888 45.1394 25.2247 45.92 25.1865C47.4655 25.111 48.1295 24.3591 48.0303 22.7988C47.9726 21.8927 47.7108 21.4135 47.0704 21.0439ZM21.3887 9.88672C18.5871 9.32636 15.8165 9.66879 13.4288 10.8711C9.90895 12.6435 7.53778 16.0557 7.08698 19.998L6.99518 20.8076H30.6133L30.5235 19.9033C30.2496 17.1243 28.8084 14.3836 26.6417 12.5225C25.1404 11.2329 23.165 10.2422 21.3887 9.88672ZM17.1817 10.1846C18.0688 10.0375 20.506 10.1493 21.4708 10.3809C22.5317 10.6355 23.3305 10.9643 23.3282 11.1455C23.3222 11.5824 23.126 11.6065 22.1358 11.292C18.5673 10.1589 14.8247 10.8747 11.9278 13.2441C10.1159 14.7263 8.69846 17.1483 8.37311 19.3174L8.28522 19.9014H30.0616V20.5488H18.8721C11.9547 20.5488 7.65337 20.5018 7.60651 20.4258C7.4779 20.2175 7.79017 18.5974 8.17487 17.4766C9.48969 13.6468 12.887 10.8964 17.1817 10.1846ZM44.8516 10.9971C47.5065 11.056 48.2707 11.2428 49.0753 12.0293C49.707 12.647 49.905 13.1314 49.9698 14.2217C50.0528 15.6205 49.7907 16.344 48.9102 17.1455C47.8592 18.1023 47.3449 18.2464 44.7217 18.3174L42.4883 18.377V10.9443L44.8516 10.9971ZM41.0645 10.9697V12.3936H38.088V13.9463H40.8057V15.3701H38.088V16.9238H41.1944V18.3477H36.0167V10.9697H41.0645ZM56.3399 10.9697V12.3936H53.3624V13.9463H56.0811V15.3701H53.3624V16.9238H56.4688V18.3477H51.2911V10.9697H56.3399ZM58.8311 10.9697L59.8995 10.9707L61.712 13.374L63.5235 15.7783L63.5596 13.374L63.5948 10.9697H65.4014V18.3477L64.3975 18.3418L63.3946 18.3359L61.5176 15.8447L59.6407 13.3525L59.6827 15.8506L59.7247 18.3477H57.7637V10.9697H58.8311ZM44.4307 16.9238H45.0538C46.3895 16.9238 47.4491 16.3563 47.7881 15.459C48.1708 14.4456 47.7388 13.203 46.8428 12.7402C46.5304 12.5788 45.984 12.4592 45.3868 12.4209L44.4307 12.3594V16.9238Z" fill="#252525"/>
</svg>
