<svg xmlns="http://www.w3.org/2000/svg" xml:space="preserve" id="Layer_1" x="0px" y="0px" style="enable-background:new 0 0 350 36.3" version="1.1" viewBox="0 0 350 36.3"><style>.st0{fill:#182e4d}.st1{fill:#eb7b6f}</style><g id="グループ_925" transform="translate(233.15 384.106)"><path id="長方形_1379" d="M-176.3-382.7h10.1v33.4h-10.1z" class="st0"/><path id="パス_548" d="M-199.3-349.2v-6.1h-23.8v6.1h-10.1v-20.1c0-9.3 6.4-14 19.1-14h5.8c12.7 0 19.1 4.7 19.1 14v20.1h-10.1zm-14.8-26.7c-4.1 0-9 1.1-9 6.5v6.5h23.8v-6.5c0-5.4-4.9-6.5-9-6.5h-5.8z" class="st0"/><path id="パス_549" d="M-46.9-349.2v-6.1h-23.8v6.1h-10.1v-20.1c0-9.3 6.4-14 19.1-14h5.8c12.7 0 19.1 4.7 19.1 14v20.1h-10.1zm-14.8-26.7c-4.1 0-9 1.1-9 6.5v6.5h23.8v-6.5c0-5.4-4.9-6.5-9-6.5h-5.8z" class="st0"/><path id="パス_550" d="M52-349.2v-6.1H28.3v6.1H18.2v-20.1c0-9.3 6.4-14 19.1-14H43c12.7 0 19.1 4.7 19.1 14v20.1H52zm-14.7-26.7c-4.1 0-9 1.1-9 6.5v6.5H52v-6.5c0-5.4-4.9-6.5-9-6.5h-5.7z" class="st0"/><path id="パス_551" d="M106.8-349.2v-20.1c0-5.4-4.9-6.5-9-6.5H92c-4.1 0-9 1.1-9 6.5v20.1H72.9v-20.1c0-9.3 6.4-14 19.1-14h5.8c12.7 0 19.1 4.7 19.1 14v20.1h-10.1z" class="st0"/><path id="パス_552" d="M-29.1-349.2v-20.1c0-9.3 6.4-14 19.1-14h5.8c12.7 0 19.1 4.7 19.1 14s-6.4 14-19.1 14H-19v6.1h-10.1zm19.1-26.7c-4.1 0-9 1.1-9 6.5v6.5h14.8c4.1 0 9-1.1 9-6.5s-4.9-6.5-9-6.5H-10z" class="st0"/></g><g id="グループ_926" transform="translate(308.249 383.386)"><path id="パス_553" d="M-211.2-383.4c-14.6 0-22 5.9-22 17.4v17.4h10.1v-16.1c0-7 4.5-10.6 13.3-10.6 3.6 0 7.3.4 10.8 1.4l2.2-7.5c-4.7-1.3-9.5-2-14.4-2z" class="st1"/><path id="パス_554" d="M-184.5-347.1c14.6 0 22-5.9 22-17.4v-17.4h-10.1v16.1c0 7-4.5 10.6-13.3 10.6-3.6 0-7.3-.4-10.8-1.4l-2.2 7.5c4.6 1.4 9.5 2 14.4 2z" class="st1"/></g></svg>