<svg xmlns="http://www.w3.org/2000/svg" xml:space="preserve" x="0px" y="0px" baseProfile="tiny" overflow="visible" version="1.2" viewBox="0 0 2048 548"><path fill="#FFF" d="M537.179 281.87c0 109.949-89.14 199.081-199.081 199.081-109.952 0-199.081-89.132-199.081-199.081 0-109.944 89.13-199.076 199.081-199.076 109.941 0 199.081 89.132 199.081 199.076z"/><path fill="#003764" d="M431.538 267.994c-31.666-21.521-72.207-12.757-93.523 19.6-17.731 27.045-44.566 30.41-54.904 30.41-33.905 0-57.039-23.832-63.915-48.48 0 0-.336-1.248-.424-1.53-2.703-10.303-3.386-15.196-3.386-26.129 0-58.911 60.49-124.535 147.538-124.535 89.179 0 140.217 67.886 153.405 105.626a45.634 45.634 0 0 1-.693-2.006C490.335 147.146 420.36 94.099 337.927 94.099c-103.645 0-187.722 84.033-187.722 187.766 0 92.697 66.858 172.037 159.618 172.037 73.944 0 123.659-41.457 146.431-98.621 12.522-31.278 3.678-68.003-24.716-87.287z"/><path fill="#E4032E" d="M517.479 226.602c-11-36.818-62.367-109.271-154.554-109.271-87.048 0-147.538 65.624-147.538 124.535 0 10.932.683 15.826 3.386 26.129-1.131-4.512-1.709-9.004-1.709-13.397 0-61.37 61.432-103.881 124.591-103.881 85.521 0 154.831 69.312 154.831 154.798 0 67.011-38.573 125.055-94.59 152.915v.052c72.238-26.162 123.823-95.361 123.823-176.616 0-19.233-2.579-36.195-8.24-55.264z"/><g fill="#575757"><path d="M792.07 264.849v19.162H628.984v-19.162h62.991v-28.948h22.016v28.948h78.079zm-35.47-11.824v-39.957H641.624v-19.163h136.992v59.12H756.6zm-.204 79.709c0 5.846-1.224 11.386-3.668 16.615-2.448 5.231-5.708 9.751-9.786 13.557a52.104 52.104 0 0 1-14.678 9.378c-5.438 2.309-11.283 3.466-17.532 3.466-6.389 0-12.333-1.157-17.837-3.466-5.506-2.313-10.366-5.438-14.577-9.378-4.215-3.807-7.542-8.326-9.99-13.557-2.444-5.229-3.668-10.769-3.668-16.615 0-5.978 1.224-11.517 3.668-16.613 2.448-5.098 5.775-9.614 9.99-13.557 4.211-3.805 9.071-6.863 14.577-9.174 5.504-2.309 11.448-3.466 17.837-3.466 6.249 0 12.094 1.157 17.532 3.466 5.435 2.311 10.327 5.369 14.678 9.174a47.022 47.022 0 0 1 9.786 13.557c2.444 5.096 3.668 10.636 3.668 16.613zm-22.017 0c0-6.522-2.313-12.094-6.932-16.716-4.623-4.619-10.192-6.932-16.716-6.932-6.659 0-12.333 2.313-17.021 6.932-4.69 4.623-7.035 10.194-7.035 16.716 0 6.524 2.345 12.131 7.035 16.819 4.688 4.69 10.363 7.033 17.021 7.033 6.524 0 12.094-2.343 16.716-7.033 4.619-4.688 6.932-10.295 6.932-16.819zM814.289 214.292v-18.959h101.93v18.959h-43.421l45.257 55.247-15.494 12.639-36.287-45.257-36.084 48.315-16.103-13.047 45.051-57.897h-44.849zm141.072 115.792c0 5.983-1.224 11.588-3.67 16.819-2.446 5.231-5.708 9.818-9.784 13.761-4.215 3.94-9.142 7.065-14.779 9.378-5.642 2.309-11.59 3.464-17.839 3.464-6.253 0-12.232-1.155-17.94-3.464-5.708-2.313-10.671-5.438-14.88-9.378-4.078-3.943-7.34-8.53-9.786-13.761-2.446-5.231-3.67-10.836-3.67-16.819 0-5.978 1.224-11.62 3.67-16.92 2.446-5.3 5.708-9.919 9.786-13.862 4.209-3.941 9.172-7.065 14.88-9.378 5.708-2.309 11.688-3.466 17.94-3.466 6.249 0 12.197 1.157 17.839 3.466 5.637 2.313 10.565 5.437 14.779 9.378 4.076 3.943 7.338 8.562 9.784 13.862 2.446 5.3 3.67 10.943 3.67 16.92zm-21.61-.204c0-6.657-2.444-12.401-7.338-17.225-4.892-4.823-10.671-7.237-17.328-7.237-6.661 0-12.404 2.414-17.227 7.237-4.825 4.825-7.237 10.568-7.237 17.225 0 6.661 2.412 12.369 7.237 17.124 4.823 4.757 10.567 7.136 17.227 7.136 6.657 0 12.436-2.379 17.328-7.136 4.894-4.755 7.338-10.463 7.338-17.124zm14.678-45.46v-38.529h-33.025v-18.959h33.025v-36.695h22.018v94.183h-22.018zM1089.907 344.559h-22.018V221.02H999.8v-19.775h90.107v143.314zm44.441-154.322h22.018v177.562h-22.018v-87.661h-29.152v-19.569h29.152v-70.332zM1268.078 343.336h-78.283v-81.137h55.043v-41.588h-55.043v-19.367h76.245v80.117h-55.043v42.607h57.081v19.368zm56.673-153.099h21.202v177.562h-21.202v-85.621h-20.386v84.603h-20.59v-176.34h20.59v72.777h20.386v-72.981zM1489.876 313.98h-48.925v48.111h-22.018V313.98h-47.093v-19.572h118.036v19.572zm-12.232-75.632c0 6.116-1.258 11.894-3.771 17.327a45.622 45.622 0 0 1-10.295 14.27c-4.351 4.078-9.447 7.308-15.29 9.683-5.843 2.379-12.026 3.567-18.55 3.567-6.524 0-12.709-1.188-18.55-3.567-5.846-2.375-10.943-5.605-15.29-9.683a45.523 45.523 0 0 1-10.295-14.27c-2.515-5.433-3.771-11.211-3.771-17.327s1.256-11.891 3.771-17.328c2.512-5.434 5.942-10.193 10.295-14.27 4.348-4.078 9.444-7.305 15.29-9.684 5.841-2.376 12.026-3.566 18.55-3.566 6.524 0 12.707 1.19 18.55 3.566 5.843 2.38 10.939 5.606 15.29 9.684a45.668 45.668 0 0 1 10.295 14.27c2.513 5.437 3.771 11.212 3.771 17.328zm-21.609 0c0-7.065-2.583-13.149-7.748-18.246-5.165-5.096-11.349-7.644-18.55-7.644-7.205 0-13.353 2.548-18.449 7.644-5.096 5.097-7.645 11.181-7.645 18.246 0 7.069 2.549 13.148 7.645 18.245 5.096 5.096 11.244 7.644 18.449 7.644 7.202 0 13.385-2.548 18.55-7.644 5.166-5.097 7.748-11.177 7.748-18.245zm47.907-48.111h22.016v177.562h-22.016V190.237zM1675.793 296.856H1628.7v26.909h-22.016v-26.909h-48.925v-19.367h118.034v19.367zm-106.007 67.885V313.98h22.018v31.598h122.112v19.162h-144.13zm90.311-135.567c0 5.708-1.192 11.044-3.569 16.003a45.417 45.417 0 0 1-9.479 13.148c-4.078 3.67-8.802 6.594-14.167 8.766-5.371 2.176-11.111 3.262-17.227 3.262-6.114 0-11.858-1.086-17.225-3.262-5.371-2.172-10.091-5.096-14.169-8.766a45.306 45.306 0 0 1-9.479-13.148c-2.38-4.96-3.567-10.295-3.567-16.003s1.187-11.04 3.567-16.003a45.39 45.39 0 0 1 9.479-13.149c4.078-3.669 8.798-6.59 14.169-8.765 5.368-2.172 11.111-3.262 17.225-3.262 6.116 0 11.856 1.09 17.227 3.262 5.366 2.176 10.089 5.096 14.167 8.765a45.51 45.51 0 0 1 9.479 13.149c2.377 4.963 3.569 10.295 3.569 16.003zm-21.406 0c0-6.249-2.278-11.55-6.829-15.901-4.555-4.348-9.958-6.523-16.207-6.523-6.253 0-11.654 2.176-16.207 6.523-4.555 4.351-6.829 9.652-6.829 15.901 0 6.254 2.274 11.554 6.829 15.901 4.553 4.352 9.955 6.523 16.207 6.523 6.249 0 11.652-2.171 16.207-6.523 4.551-4.348 6.829-9.648 6.829-15.901zm51.168-38.937h22.018v135.567h-22.018v-65.44h-24.667v-19.162h24.667v-50.965zM1845.2 269.945c0 5.438-1.121 10.6-3.365 15.492a40.347 40.347 0 0 1-9.275 12.844c-3.943 3.67-8.562 6.524-13.862 8.562-2.176.816-4.147 1.428-5.912 1.836v22.424h48.927v19.366h-118.036v-19.366h47.091V308.68c-1.767-.408-3.739-1.02-5.912-1.836-5.3-2.038-9.923-4.892-13.862-8.562a40.317 40.317 0 0 1-9.275-12.844c-2.242-4.892-3.365-10.055-3.365-15.492 0-5.434 1.123-10.6 3.365-15.493a40.32 40.32 0 0 1 9.275-12.842c3.94-3.67 8.562-6.524 13.862-8.562 5.302-2.039 10.939-3.058 16.922-3.058 5.978 0 11.62 1.019 16.92 3.058 5.3 2.038 9.919 4.892 13.862 8.562a40.35 40.35 0 0 1 9.275 12.842c2.244 4.892 3.365 10.058 3.365 15.492zm-55.451-61.973v-18.958h23.852v18.958h42.199v18.959h-108.454v-18.959h42.403zm34.045 61.973c0-5.841-2.141-10.872-6.421-15.085-4.282-4.211-9.479-6.319-15.595-6.319-6.116 0-11.283 2.108-15.494 6.319-4.215 4.214-6.32 9.244-6.32 15.085 0 5.846 2.105 10.875 6.32 15.086 4.211 4.213 9.378 6.318 15.494 6.318s11.313-2.105 15.595-6.318c4.28-4.21 6.421-9.24 6.421-15.086zm51.982-79.708h22.018v177.562h-22.018V190.237z"/></g></svg>