<svg xmlns="http://www.w3.org/2000/svg" width="187.35001" height="116.648" viewBox="0 0 49.569688 30.863118"><defs><clipPath id="a" clipPathUnits="userSpaceOnUse"><path d="M0 737.01h510.24V0H0Z"/></clipPath></defs><g clip-path="url(#a)" transform="matrix(.35278 0 0 -.35278 -65.342 139.673)"><path fill="#ea581f" d="M223.568 376.029h-33.61a4.737 4.737 0 0 1 0-9.472h10.885v-32.93a5.92 5.92 0 0 1 11.839 0v32.93h10.886a4.734 4.734 0 0 1 4.736 4.733 4.737 4.737 0 0 1-4.736 4.739"/><path fill="#014199" d="m249.366 323.668.015 18.738c5.813-3.384 10.183-5.931 16.114-9.383-5.934-3.443-10.31-5.98-16.13-9.355m.036 38.276.017 18.739c5.814-3.384 10.185-5.93 16.112-9.383-5.932-3.445-10.311-5.981-16.13-9.356m29.504-24.284-24.92 14.51 24.948 14.468a5.376 5.376 0 0 1 .01 9.296l-33.072 19.26a5.373 5.373 0 0 1-8.08-4.638l-.038-38.264v-.016l-.035-38.457a5.363 5.363 0 0 1 2.69-4.66 5.369 5.369 0 0 1 5.384.007l33.106 19.193a5.386 5.386 0 0 1 2.678 4.65 5.367 5.367 0 0 1-2.671 4.651"/><path fill="#ea581f" d="M321.586 337.917c-6.481 1.352-11.827 3.018-16.34 5.092-3.951 1.722-8.081 4.249-10.117 6.446-.496.551-1.171 1.52-1.171 2.71 0 1.173.616 2.099 1.104 2.651 2.01 2.098 6.165 4.749 10.083 6.458 4.612 2.12 9.956 3.786 16.44 5.14a5.208 5.208 0 1 1-2.124 10.195c-7.266-1.515-13.338-3.422-18.568-5.829-2.914-1.259-18.006-8.309-18.006-18.615 0-10.303 15.092-17.357 18.114-18.665 5.125-2.361 11.2-4.265 18.46-5.779a5.208 5.208 0 1 1 2.125 10.196"/></g></svg>