<svg xmlns="http://www.w3.org/2000/svg" xml:space="preserve" x="0px" y="0px" baseProfile="tiny" overflow="visible" version="1.2" viewBox="0 0 2048 552"><path fill="#FFF" d="M541.067 283.927c0 110.745-89.785 200.522-200.522 200.522-110.747 0-200.522-89.777-200.522-200.522 0-110.739 89.775-200.517 200.522-200.517 110.736 0 200.522 89.777 200.522 200.517z"/><path fill="#003764" d="M434.661 269.95c-31.895-21.677-72.729-12.85-94.2 19.742-17.859 27.241-44.889 30.631-55.301 30.631-34.151 0-57.452-24.005-64.378-48.831 0 0-.339-1.257-.427-1.541-2.722-10.378-3.411-15.306-3.411-26.318 0-59.337 60.928-125.436 148.606-125.436 89.824 0 141.232 68.377 154.515 106.39a46.774 46.774 0 0 1-.698-2.021c-25.484-74.338-95.966-127.769-178.995-127.769-104.395 0-189.08 84.641-189.08 189.125 0 93.368 67.342 173.281 160.773 173.281 74.479 0 124.554-41.757 147.49-99.334 12.613-31.504 3.705-68.495-24.894-87.919z"/><path fill="#E4032E" d="M521.223 228.259c-11.079-37.084-62.818-110.062-155.673-110.062-87.678 0-148.606 66.099-148.606 125.436 0 11.012.688 15.94 3.411 26.318-1.14-4.545-1.721-9.069-1.721-13.494 0-61.814 61.877-104.633 125.493-104.633 86.14 0 155.951 69.814 155.951 155.918 0 67.496-38.852 125.96-95.274 154.022v.052c72.761-26.352 124.719-96.051 124.719-177.894 0-19.372-2.597-36.456-8.3-55.663z"/><g fill="#575757"><path d="M794.656 282.82v19.133h-68.879v27.19h-21.952v-27.19h-70.29V282.82h161.121zm-148.231-17.923v-67.469h135.341v67.469H646.425zm21.953 51.154v32.426h115.604v19.133H646.425v-51.559h21.953zm91.839-99.692h-92.243v29.808h92.243v-29.808zM914.286 273.958c0 5.373-1.108 10.472-3.323 15.305a39.889 39.889 0 0 1-9.164 12.689c-5.372 4.97-11.883 8.392-19.537 10.273v22.154h45.921v19.133H814.391v-19.133h46.12v-22.154c-7.923-2.015-14.435-5.439-19.536-10.273a39.843 39.843 0 0 1-9.164-12.689c-2.215-4.833-3.323-9.933-3.323-15.305 0-5.368 1.108-10.472 3.323-15.305a39.835 39.835 0 0 1 9.164-12.687c3.893-3.626 8.459-6.445 13.695-8.459 5.237-2.014 10.807-3.021 16.717-3.021 5.906 0 11.479 1.007 16.715 3.021 5.237 2.014 9.8 4.833 13.696 8.459a39.892 39.892 0 0 1 9.164 12.687c2.216 4.833 3.324 9.938 3.324 15.305zm-54.781-61.224v-18.73h23.564v18.73h41.287v18.731H818.017v-18.731h41.488zm33.634 61.224c0-5.771-2.115-10.74-6.345-14.902-4.229-4.16-9.364-6.244-15.406-6.244s-11.147 2.084-15.307 6.244c-4.163 4.162-6.243 9.132-6.243 14.902 0 5.776 2.08 10.744 6.243 14.904 4.16 4.162 9.265 6.242 15.307 6.242s11.177-2.08 15.406-6.242c4.229-4.16 6.345-9.128 6.345-14.904zm70.288 96.673h-21.753V195.213h21.753v73.711h22.557v20.542h-22.557v81.165zM996.656 232.471V213.74h34.641v-18.73h22.958v18.73h33.233v18.731h-37.864l40.281 108.555-18.73 7.25-28.398-78.345-28.196 79.755-19.336-7.251 40.482-109.964h-39.071zm105.735-37.057h20.342v174.211h-20.342V282.62h-23.764v-19.739h23.764v-67.467zm34.843-.201h20.946v175.419h-20.946V195.213zM1345.682 280.605v19.133h-35.849v16.515h22.958v54.782h-21.751v-35.849h-115.604v-18.933h24.974v-16.515h-35.849v-19.133h161.121zm-34.44-48.335c0 5.91-1.242 11.448-3.726 16.616a45.389 45.389 0 0 1-9.969 13.592c-4.164 3.897-9.032 6.983-14.603 9.265-5.573 2.285-11.513 3.424-17.822 3.424-6.314 0-12.255-1.139-17.825-3.424-5.573-2.282-10.441-5.368-14.601-9.265a45.253 45.253 0 0 1-9.969-13.592c-2.487-5.168-3.727-10.706-3.727-16.616 0-5.906 1.241-11.445 3.727-16.615a45.345 45.345 0 0 1 9.969-13.595c4.16-3.892 9.028-6.979 14.601-9.264 5.571-2.281 11.512-3.423 17.825-3.423 6.309 0 12.249 1.143 17.822 3.423 5.571 2.285 10.439 5.372 14.603 9.264a45.46 45.46 0 0 1 9.969 13.595c2.483 5.17 3.726 10.708 3.726 16.615zm-21.751 0c0-6.713-2.387-12.386-7.15-17.018-4.768-4.632-10.507-6.948-17.219-6.948-6.717 0-12.456 2.316-17.221 6.948-4.768 4.632-7.15 10.306-7.15 17.018 0 6.716 2.381 12.387 7.15 17.018 4.765 4.632 10.504 6.948 17.221 6.948 6.712 0 12.451-2.317 17.219-6.948 4.763-4.632 7.15-10.302 7.15-17.018zm-1.209 83.983v-16.515h-46.321v16.515h46.321zM1479.209 281.21v19.133h-113.792V281.21h35.647v-39.272h21.551v39.272h56.594zm-31.219-16.716v-46.725h-74.719v-18.932h96.27v65.657h-21.551zm-70.085 103.116v-52.565h21.751v33.432h118.021v19.133h-139.772zm136.548-57.198h-21.751V195.213h21.751v47.127h22.557v19.939h-22.557v48.133zM1662.883 269.931v18.73h-113.792v-18.73h35.649v-32.022h21.549v32.022h56.594zm-31.217-14.904v-37.862h-74.721v-18.529h96.27v56.391h-21.549zm52.164 81.769a37.185 37.185 0 0 1-3.626 16.113c-2.417 5.099-5.639 9.531-9.668 13.292-4.027 3.757-8.76 6.747-14.198 8.962-5.439 2.217-11.249 3.324-17.422 3.324-6.177 0-11.983-1.108-17.421-3.324-5.438-2.215-10.171-5.205-14.2-8.962-4.027-3.761-7.25-8.192-9.666-13.292-2.417-5.101-3.626-10.474-3.626-16.113s1.209-11.009 3.626-16.112c2.417-5.101 5.639-9.533 9.666-13.294 4.029-3.757 8.762-6.747 14.2-8.962 5.438-2.215 11.243-3.324 17.421-3.324 6.174 0 11.983 1.109 17.422 3.324 5.438 2.215 10.171 5.205 14.198 8.962 4.029 3.761 7.251 8.192 9.668 13.294a37.187 37.187 0 0 1 3.626 16.112zm-21.753 0c0-6.309-2.285-11.713-6.848-16.213-4.565-4.497-10.003-6.747-16.313-6.747-6.312 0-11.75 2.25-16.313 6.747-4.567 4.5-6.848 9.905-6.848 16.213 0 6.312 2.282 11.717 6.848 16.213 4.563 4.497 10.001 6.747 16.313 6.747 6.31 0 11.748-2.25 16.313-6.747 4.563-4.497 6.848-9.901 6.848-16.213zm36.052-44.912h-21.753v-96.671h21.753v37.662h22.557v19.535h-22.557v39.474zM1735.587 306.183h161.121v19.334h-69.684v45.114h-21.954v-45.114h-69.483v-19.334zm34.438-85.796h92.241v-22.153h21.551v84.387h-135.341v-84.387h21.549v22.153zm92.241 18.932h-92.241v24.167h92.241v-24.167z"/></g></svg>