<svg xmlns="http://www.w3.org/2000/svg" xml:space="preserve" width="1095.4895" height="293.59589" viewBox="0 0 1095.4895 293.59588"><g style="stroke-width:.364506"><path d="M139.67 636.9h174.74v80.262H139.67Z" style="fill:#1f9d8b;fill-opacity:1;fill-rule:nonzero;stroke:none;stroke-width:.364506" transform="matrix(3.65792 0 0 -3.65792 -510.902 2623.327)"/><path d="M439.154 717.163h-82.19v-80.262h82.19z" style="fill:#c87929;fill-opacity:1;fill-rule:nonzero;stroke:none;stroke-width:.364506" transform="matrix(3.65792 0 0 -3.65792 -510.902 2623.327)"/><path d="M314.41 636.9h42.554v80.262H314.41Z" style="fill:#1f1f1f;fill-opacity:1;fill-rule:nonzero;stroke:none;stroke-width:.364506" transform="matrix(3.65792 0 0 -3.65792 -510.902 2623.327)"/><path d="M179.732 697.171h-9.774v-2.703h9.774zM394.231 694.774h-19.23v-2.912h19.23z" style="fill:#fff;fill-opacity:1;fill-rule:nonzero;stroke:none;stroke-width:.364506" transform="matrix(3.65792 0 0 -3.65792 -510.902 2623.327)"/><g style="stroke-width:.364506"><path d="m0 0-5.466-.169v10.818h-3.222V-.268l-6.189-.191v11.108h-3.224V-.559l-4.68-.144.089-2.909L.09-2.91z" style="fill:#fff;fill-opacity:1;fill-rule:nonzero;stroke:none;stroke-width:.364506" transform="matrix(3.65792 0 0 -3.65792 939.732 138.597)"/></g><g style="stroke-width:.364506"><path d="m0 0-10.738-.203v21.347h8.175v2.703h-11.204V-2.951l.685.01v-.01l2.279.042.065.002 10.786.204z" style="fill:#fff;fill-opacity:1;fill-rule:nonzero;stroke:none;stroke-width:.364506" transform="matrix(3.65792 0 0 -3.65792 330.892 173.667)"/></g><g style="stroke-width:.364506"><path d="M0 0h-3.028v-11.128h22.851v2.703H0Z" style="fill:#fff;fill-opacity:1;fill-rule:nonzero;stroke:none;stroke-width:.364506" transform="matrix(3.65792 0 0 -3.65792 125.67 174.305)"/></g><path d="M184.358 691.451H165.33v-2.701h19.028zM286.645 697.705h-12.569v-2.703h12.569zM293.038 692.766h-25.619v-2.702h25.619z" style="fill:#fff;fill-opacity:1;fill-rule:nonzero;stroke:none;stroke-width:.364506" transform="matrix(3.65792 0 0 -3.65792 -510.902 2623.327)"/><g style="stroke-width:.364506"><path d="M0 0h3.223v30.78H0V20.616h-5.147v-2.703H0v-5.2h-5.147V10.01H0Z" style="fill:#fff;fill-opacity:1;fill-rule:nonzero;stroke:none;stroke-width:.364506" transform="matrix(3.65792 0 0 -3.65792 184.393 186.575)"/></g><path d="M402.309 697.576h-3.225v-24.891h3.225z" style="fill:#fff;fill-opacity:1;fill-rule:nonzero;stroke:none;stroke-width:.364506" transform="matrix(3.65792 0 0 -3.65792 -510.902 2623.327)"/><g style="stroke-width:.364506"><path d="M0 0c0 1.467 3.142 2.653 7.019 2.653S14.038 1.467 14.038 0c0-1.463-3.142-2.65-7.019-2.65S0-1.463 0 0m8.507-5.153c5.276.354 9.352 2.513 9.352 5.153 0 2.886-4.853 5.227-10.84 5.227S-3.822 2.886-3.822 0c0-2.599 3.949-4.739 9.106-5.14v-2.905H-8.708v-2.912h31.286v2.912H8.507Z" style="fill:#fff;fill-opacity:1;fill-rule:nonzero;stroke:none;stroke-width:.364506" transform="matrix(3.65792 0 0 -3.65792 489.408 124.955)"/></g><g style="stroke-width:.364506"><path d="M0 0h-3.223v-10.355h-6.603V0h-3.223v-10.355h-9.113v-2.911H9.124v2.911H0Z" style="fill:#fff;fill-opacity:1;fill-rule:nonzero;stroke:none;stroke-width:.364506" transform="matrix(3.65792 0 0 -3.65792 732.777 153.28)"/></g><g style="stroke-width:.364506"><path d="M0 0h-4.575v14.973h-3.224v-37.201h3.224v19.317H0v-21.292h3.224v40.127H0Z" style="fill:#fff;fill-opacity:1;fill-rule:nonzero;stroke:none;stroke-width:.364506" transform="matrix(3.65792 0 0 -3.65792 366.212 130.277)"/></g><g style="stroke-width:.364506"><path d="M0 0c0 2.441 2.307 4.42 5.151 4.42 2.845 0 5.151-1.979 5.151-4.42S7.996-4.418 5.151-4.418 0-2.44 0 0m13.574 0c0 3.991-3.772 7.228-8.423 7.228S-3.271 3.991-3.271 0c0-3.989 3.771-7.226 8.422-7.226S13.574-3.989 13.574 0" style="fill:#fff;fill-opacity:1;fill-rule:nonzero;stroke:none;stroke-width:.364506" transform="matrix(3.65792 0 0 -3.65792 109.727 137.602)"/></g><path d="M272.499 666.236h15.93v-5.576h-15.93zm-3.441-8.346h22.812v11.114h-22.812z" style="fill:#fff;fill-opacity:1;fill-rule:nonzero;stroke:none;stroke-width:.364506" transform="matrix(3.65792 0 0 -3.65792 -510.902 2623.327)"/><g style="stroke-width:.364506"><path d="M0 0c1.613-4.156 5.007-9.352 12.144-13.284l1.564 2.843C2.201-4.101 1.798 5.78 1.791 6.879v.124l-3.244.037-.001-.139c-.094-8.685-12.025-17.359-12.147-17.446l1.892-2.636C-11.285-12.878-3.574-7.277 0 0" style="fill:#fff;fill-opacity:1;fill-rule:nonzero;stroke:none;stroke-width:.364506" transform="matrix(3.65792 0 0 -3.65792 708.437 102.956)"/></g><g style="stroke-width:.364506"><path d="M0 0c-4.699 0-8.507 2.293-8.507 5.119 0 2.827 3.808 5.122 8.507 5.122 4.697 0 8.505-2.295 8.505-5.122S4.697 0 0 0m0 13.101c-6.708 0-12.146-3.573-12.146-7.982 0-4.407 5.438-7.98 12.146-7.98 6.707 0 12.144 3.573 12.144 7.98 0 4.409-5.437 7.982-12.144 7.982" style="fill:#fff;fill-opacity:1;fill-rule:nonzero;stroke:none;stroke-width:.364506" transform="matrix(3.65792 0 0 -3.65792 919.57 211.956)"/></g></g></svg>