<svg xmlns="http://www.w3.org/2000/svg" id="_레이어_1" version="1.1" viewBox="0 0 518.3145158 280.054854"><defs><style>.st0{fill:#c00}</style></defs><circle cx="261.7" cy="107.0508663" r="107.0508663" style="fill:#fff"/><path d="M263.159 169.227h7.7l-.34-9.18z" class="st0"/><path d="M361.652 115.91c.649-7.401.483-14.85-.495-22.214 0-.127-.147-.127-.174 0a60.02 60.02 0 0 1-22.08 33.828.123.123 0 0 1-.16-.187 73.27 73.27 0 0 0 20.246-44.828 99.4 99.4 0 0 0-10.176-25.244c-.067-.094-.18-.067-.154.06a68.87 68.87 0 0 1-17.396 55.687.12.12 0 1 1-.194-.14 78.16 78.16 0 0 0 11.307-65.436c-32.923-44.59-95.76-54.046-140.35-21.122a100.4 100.4 0 0 0-21.123 21.122 78.18 78.18 0 0 0 11.301 65.435.117.117 0 0 1-.187.14 68.85 68.85 0 0 1-17.396-55.686c0-.127-.1-.154-.16-.06a99.4 99.4 0 0 0-10.177 25.244 73.3 73.3 0 0 0 20.246 44.828.121.121 0 1 1-.154.187 60 60 0 0 1-22.08-33.828c0-.127-.167-.127-.173 0a101.5 101.5 0 0 0-.489 22.213 60.4 60.4 0 0 0 18.36 26.388c.133.12 0 .295-.134.22a54.4 54.4 0 0 1-16.352-14.9c-.06-.093-.168-.06-.14.054 11.378 54.247 64.578 88.998 118.825 77.62 38.984-8.178 69.442-38.636 77.62-77.62 0-.113-.074-.147-.141-.053a54.4 54.4 0 0 1-16.36 14.9c-.146.073-.267-.1-.133-.22a60.43 60.43 0 0 0 18.373-26.389m-137.206 65.435c-3.198.03-6.39-.286-9.52-.943l2.34-6.096c6.263.73 11.636.188 13.737-5.285l6.644-17.322h13.682l-7.32 19.081a18.366 18.366 0 0 1-19.556 10.565m46.834-.943-.214-5.667h-12.357l-4.55 5.667h-11.3l22.922-26.562a5.86 5.86 0 0 1 4.208-2.141h12.237l2.744 28.703zm48.42 0h-31.05l11.006-28.703h13.682l-8.698 22.62h17.396zm-12.624-60.618c-20.527 19.972-51.184 7.213-48.066-17.315 2.395-18.908 25.578-37.75 43.135-47.966a.134.134 0 0 0 0-.22c-2.302-2.195-7.08-7.133-10.15-10.846-6.86-8.789-19.544-10.353-28.333-3.494a20.2 20.2 0 0 0-3.916 4.056l-50.475 4.683a.157.157 0 0 0 0 .315l54.108 3.131c9.594.542 12.712 9.246 3.465 16.252-34.363 26.046-40.492 53.612-32.784 75.457a.14.14 0 0 1-.254.114 44.4 44.4 0 0 1-6.818-15.69c-30.086-19.174-38.931-59.108-19.757-89.194C226.313 8.98 266.246.135 296.332 19.309s38.932 59.108 19.757 89.194a64.6 64.6 0 0 1-9.1 11.26" class="st0"/><path d="M514.57 270.12c-2.884 7.503-12.846 9.826-23.6 9.826s-17.66-2.334-16.05-9.827h13.666c-.352 1.997.859 3.279 4.902 3.279s6.648-1.309 7.409-3.28c1.88-4.902-25.168-.113-20.862-11.327 2.41-6.28 11.9-9.226 22.608-9.226s16.784 2.312 15.502 9.22h-13.41c.214-1.848-.355-3.251-4.383-3.251s-6.193 1.427-6.899 3.257c-1.92 5.007 25.417.134 21.118 11.328M275.273 279.095h-13.669l11.004-28.663h13.672zM378.705 279.095h-13.67l11.003-28.663h13.67zM466.788 279.095H433.55l11.007-28.663h33.24l-2.117 5.501h-19.565l-2.219 5.777h16.274l-2.108 5.497h-16.28l-2.227 5.81h19.565zM195.091 279.095h-11.06l-9.277-16.928-6.497 16.928H157.23l11.005-28.663h12.843l8.186 15.069 5.784-15.069h11.058zM425.07 279.095h-11.058l-9.28-16.928-6.498 16.928h-11.036l11.003-28.663h12.843l8.19 15.069 5.78-15.069h11.058zM29.053 269.498c-3.744 9.75-12.973 10.555-19.55 10.555A44.2 44.2 0 0 1 0 279.097l2.335-6.082c6.265.726 11.619.181 13.72-5.28l6.646-17.304h13.672l-7.322 19.062M106.528 250.432H85.267l-11.002 28.663h13.67l3.995-10.406h7.599c12.636 0 19.438-3.377 21.646-9.121s-1.997-9.137-14.646-9.137m.972 9.137a6.44 6.44 0 0 1-5.868 3.62h-7.592l2.787-7.262h7.605c2.49 0 3.872 1.547 3.068 3.63M316.03 250.432h-21.263l-11.005 28.663h13.669l3.994-10.406h4.132l2.701 10.406h14.925l-3.653-11.45c6.055-1.405 9.653-4.2 11.143-8.077 2.204-5.748-1.997-9.137-14.647-9.137m.972 9.137a6.45 6.45 0 0 1-5.87 3.62h-7.59l2.787-7.262h7.603c2.49 0 3.872 1.547 3.07 3.63M345.978 273.02l8.694-22.588h-13.676l-11.007 28.663h31.044l2.333-6.075zM68.06 250.432H55.833a5.93 5.93 0 0 0-4.205 2.128l-22.904 26.537h11.292l4.552-5.643h12.345l.218 5.643H70.8l-2.74-28.665m-19.05 17.512 7.36-9.162.34 9.162zM151.01 250.432h-12.227a5.92 5.92 0 0 0-4.205 2.128l-22.907 26.537h11.292l4.553-5.643h12.345l.218 5.643h13.67l-2.737-28.665m-19.052 17.512 7.36-9.162.342 9.162zM255.392 250.432h-12.226a5.93 5.93 0 0 0-4.202 2.128L216.056 279.1h11.294l4.55-5.643h12.345l.218 5.643h13.668l-2.74-28.665m-19.045 17.512 7.356-9.162.34 9.162z"/></svg>