<svg xmlns="http://www.w3.org/2000/svg" xml:space="preserve" width="282.76907" height="80.206665" viewBox="0 0 282.76907 80.206663"><defs><clipPath id="a" clipPathUnits="userSpaceOnUse"><path d="M0 114.386h470.884V0H0Z"/></clipPath></defs><g clip-path="url(#a)" transform="matrix(1.33333 0 0 -1.33333 -179.114 117.695)"><path d="M0 0c0-16.611-13.468-30.078-30.078-30.078-16.613 0-30.079 13.467-30.079 30.078 0 16.61 13.466 30.077 30.079 30.077C-13.468 30.077 0 16.61 0 0" style="fill:#fff;fill-opacity:1;fill-rule:nonzero;stroke:none" transform="translate(194.492 58.194)"/><path d="M0 0c-4.781 3.25-10.902 1.927-14.12-2.959a9.966 9.966 0 0 0-8.29-4.592c-5.118 0-8.611 3.599-9.648 7.319h-.003c-.013.041-.02.074-.03.107-.01.041-.018.082-.031.125-.409 1.556-.512 2.293-.512 3.944 0 8.895 9.133 18.802 22.275 18.802 13.463 0 21.169-10.249 23.16-15.946a6.427 6.427 0 0 0-.104.303c-3.82 11.141-14.385 19.15-26.83 19.15-15.648 0-28.342-12.687-28.342-28.347 0-13.996 10.093-25.972 24.099-25.972 11.164 0 18.67 6.256 22.107 14.888C5.621-8.457 4.286-2.912 0 0" style="fill:#003863;fill-opacity:1;fill-rule:nonzero;stroke:none" transform="translate(178.521 60.29)"/><path d="M0 0c-1.661 5.558-9.416 16.498-23.334 16.498-13.142 0-22.275-9.908-22.275-18.802 0-1.651.104-2.388.512-3.944a8.26 8.26 0 0 0-.259 2.022c0 9.267 9.275 15.684 18.811 15.684 12.912 0 23.376-10.464 23.376-23.371 0-10.116-5.824-18.879-14.28-23.086v-.007C-6.543-31.057 1.244-20.609 1.244-8.342 1.244-5.438.854-2.879 0 0" style="fill:#e4032e;fill-opacity:1;fill-rule:nonzero;stroke:none" transform="translate(191.496 66.538)"/><path d="M0 0h-3.091v14.714H0V8.871h2.751v5.873h3.215V-.372H2.751v6.214H0Zm.062-6.925c0 .865-.319 1.617-.958 2.257-.639.639-1.402.957-2.288.957a3.07 3.07 0 0 1-2.272-.957c-.628-.64-.943-1.392-.943-2.257 0-.866.315-1.612.943-2.241a3.097 3.097 0 0 1 2.272-.942c.886 0 1.649.314 2.288.942.639.629.958 1.375.958 2.241m3.277-.031c0-.824-.175-1.603-.526-2.333a6.653 6.653 0 0 0-1.391-1.933 7.01 7.01 0 0 0-2.071-1.329 6.386 6.386 0 0 0-2.504-.495c-.887 0-1.726.165-2.519.495a6.95 6.95 0 0 0-2.087 1.329A6.653 6.653 0 0 0-9.15-9.289a5.332 5.332 0 0 0-.525 2.333c0 .824.175 1.607.525 2.35.35.742.814 1.39 1.391 1.947A6.95 6.95 0 0 0-5.672-1.33c.793.33 1.632.495 2.519.495.886 0 1.72-.165 2.504-.495a7.01 7.01 0 0 0 2.071-1.329 6.585 6.585 0 0 0 1.391-1.947 5.434 5.434 0 0 0 .526-2.35M-8.47 3.956c0 .804-.294 1.499-.881 2.087a2.887 2.887 0 0 1-2.117.881 2.835 2.835 0 0 1-2.102-.881c-.577-.588-.866-1.283-.866-2.087 0-.804.289-1.494.866-2.071a2.86 2.86 0 0 1 2.102-.866c.824 0 1.53.289 2.117.866s.881 1.267.881 2.071m3.122-.031c0-.783-.165-1.515-.494-2.196A5.99 5.99 0 0 0-7.171-.062a6.353 6.353 0 0 0-1.932-1.222 6.214 6.214 0 0 0-2.365-.447c-.845 0-1.634.149-2.365.447a6.341 6.341 0 0 0-1.932 1.222c-.556.514-1 1.113-1.329 1.791a4.969 4.969 0 0 0-.494 2.196c0 .783.164 1.52.494 2.211.329.69.773 1.293 1.329 1.807a6.36 6.36 0 0 0 1.932 1.222c.731.299 1.52.447 2.365.447.844 0 1.633-.148 2.365-.447a6.373 6.373 0 0 0 1.932-1.222 5.91 5.91 0 0 0 1.329-1.807 5.079 5.079 0 0 0 .494-2.211m-7.913 9.119v2.257h3.555v-2.257h4.946v-2.782h-14.004v2.782z" style="fill:#575756;fill-opacity:1;fill-rule:nonzero;stroke:none" transform="translate(227.155 57.161)"/><path d="M0 0v5.843h-5.008v2.875H0v5.563h3.338V0Zm-2.226-6.894c0 1.01-.37 1.881-1.112 2.613-.742.731-1.619 1.097-2.628 1.097-1.01 0-1.881-.366-2.612-1.097-.732-.732-1.097-1.603-1.097-2.613 0-1.009.365-1.875 1.097-2.596.731-.721 1.602-1.081 2.612-1.081 1.009 0 1.886.36 2.628 1.081.742.721 1.112 1.587 1.112 2.596m3.277-.03a5.95 5.95 0 0 0-.556-2.551 7.026 7.026 0 0 0-1.484-2.087 7.316 7.316 0 0 0-2.241-1.421 7.077 7.077 0 0 0-2.705-.526c-.948 0-1.855.176-2.72.526a7.264 7.264 0 0 0-2.257 1.421 7.026 7.026 0 0 0-1.484 2.087 5.95 5.95 0 0 0-.556 2.551c0 .906.185 1.762.556 2.566a6.94 6.94 0 0 0 1.484 2.101A7.248 7.248 0 0 0-8.655-.835a7.166 7.166 0 0 0 2.72.525c.947 0 1.85-.174 2.705-.525A7.3 7.3 0 0 0-.989-2.257 6.94 6.94 0 0 0 .495-4.358c.371-.804.556-1.66.556-2.566M-20.34 10.634v2.875h15.456v-2.875h-6.584l6.863-8.377L-6.955.34l-5.503 6.862-5.471-7.325-2.442 1.978 6.832 8.779z" style="fill:#575756;fill-opacity:1;fill-rule:nonzero;stroke:none" transform="translate(257.356 57.624)"/><path d="M0 0h-3.339v17.249H0v-5.873h3.864V8.068H0Zm-10.417 9.675a4.16 4.16 0 0 1-.356 1.701 4.98 4.98 0 0 1-.943 1.422 5.054 5.054 0 0 1-1.407.943 4.044 4.044 0 0 1-1.684.356 4.156 4.156 0 0 1-1.7-.356 4.987 4.987 0 0 1-1.422-.943 4.959 4.959 0 0 1-.943-1.422 4.16 4.16 0 0 1-.355-1.701c0-.597.118-1.158.355-1.684.237-.525.551-.995.943-1.406a4.945 4.945 0 0 1 1.422-.943 4.14 4.14 0 0 1 1.7-.356c.598 0 1.159.118 1.684.356a5.01 5.01 0 0 1 1.407.943c.391.411.706.881.943 1.406.237.526.356 1.087.356 1.684m-7.018-9.829v-6.028H.68v-2.967h-21.453v8.995zm10.232 9.861c0-1.01-.201-1.959-.603-2.845a7.655 7.655 0 0 0-1.653-2.348 8.199 8.199 0 0 0-2.427-1.577 7.447 7.447 0 0 0-2.952-.587 7.444 7.444 0 0 0-2.952.587 8.173 8.173 0 0 0-2.427 1.577 7.658 7.658 0 0 0-1.654 2.348 6.822 6.822 0 0 0-.603 2.845c0 1.009.202 1.957.603 2.844a7.646 7.646 0 0 0 1.654 2.348 8.176 8.176 0 0 0 2.427 1.578 7.444 7.444 0 0 0 2.952.587 7.447 7.447 0 0 0 2.952-.587 8.202 8.202 0 0 0 2.427-1.578 7.643 7.643 0 0 0 1.653-2.348 6.809 6.809 0 0 0 .603-2.844" style="fill:#575756;fill-opacity:1;fill-rule:nonzero;stroke:none" transform="translate(287.123 54.656)"/><path d="M0 0v7.945h-5.008v2.968H0v6.336h3.338V0Zm-18.485-9.149v8.995h3.338v-6.028H3.586v-2.967zm-1.855 22.751v2.875h15.456v-2.875h-6.554l6.832-10.079-2.535-1.699-5.317 8.099-5.316-8.316-2.597 1.732 6.801 10.263z" style="fill:#575756;fill-opacity:1;fill-rule:nonzero;stroke:none" transform="translate(313.738 54.656)"/><path d="M341.125 65.136h-14.157v-3.709h14.157zm-14.157 2.906h14.157v3.399h3.308V58.489h-20.772v12.952h3.307zm-5.286-13.169h24.73v-2.967h-10.696v-6.925h-3.369v6.925h-10.665z" style="fill:#575756;fill-opacity:1;fill-rule:nonzero;stroke:none"/></g></svg>