<svg xmlns="http://www.w3.org/2000/svg" xml:space="preserve" x="0px" y="0px" style="enable-background:new 0 0 622.2 259.5" viewBox="0 0 622.2 259.5"><path d="M350.9 58.3h-20.5c-6.5 0-12 4.8-13 11.2-4.4 22.7-7.2 47.6-10.3 69.8-2.9-21.2-7.6-49.4-11.8-71.2-1.5-5.9-7-10-13.1-9.7h-20.8c-7 0-11.9 4.5-13.1 9.7-5.2 21.9-9.1 49.9-11.8 71-3.1-22.1-5.9-46.9-10.3-69.6-1-6.4-6.5-11.1-13-11.1h-20.5c-5.8 0-14.7 4.3-13.7 14.9 4 36.2 14.3 83.3 26.1 126.1 1.3 6.4 7 11 13.6 10.9h26.9c6.5 0 12.1-4.6 13.4-11l12.5-57h.5l12.5 57c1.3 6.4 6.9 11 13.4 11h27c6.5.1 12.2-4.5 13.5-10.9 11.8-42.8 22.1-89.9 26.1-126.1 1.1-10.7-7.8-15-13.6-15m-331.2-31c0-7.6 6.1-13.7 13.7-13.7h25c7.6 0 13.7 6.1 13.7 13.7v30.9h13.2c5.2 0 9.4 4.2 9.4 9.4v15.2c0 5.2-4.2 9.4-9.4 9.4H72v71.6c0 8.7 5.5 11.8 13.2 11.8 5.2 0 9.4 4.2 9.4 9.4v15.8c0 5.2-4.2 9.4-9.4 9.4-7.3.5-14.9.8-20.4.8-29.3 0-45.1-18-45.1-51.6V92.2H9.4C4.2 92.2 0 88 0 82.8V67.7c0-5.2 4.2-9.4 9.4-9.4h10.3m555.9 10.8c1.3-6.3 6.9-10.9 13.4-10.9h19.5c7.5 0 13.7 6.1 13.7 13.6 0 .7-.1 1.5-.2 2.2-6.9 42.3-22 94.6-35.8 139.6-10.5 34.3-24.2 45.8-50 45.8-6.3 0-13.2-.1-18.7-.4-5.2 0-9.4-4.2-9.4-9.3v-16.2c0-5.2 4.2-9.4 9.4-9.4h1.3c12 0 16-8.4 16-11.5-.1-5-1.1-7.3-2.1-11.2-9.6-30.6-21-79.4-30.7-126.6-1.6-7.4 3.1-14.6 10.5-16.2.9-.2 1.9-.3 2.9-.3h20c6.4 0 11.7 4.3 13.2 10.2 5.1 18.9 10.5 54.7 14.7 76.7h.5c3.7-24.6 8-58.5 11.8-76.1M409.7 212c-25.3 0-41.7-17-41.7-43.2 0-27 18.8-44.5 59.1-55 9.2-2.2 13.1-6.6 13.1-14.8 0-5.8-4.1-10-9.7-10-5.1 0-8.8 2.6-9.8 7-1.9 7.8-7.2 11.5-16.7 11.5h-13.3c-9.4 0-15.3-5.7-15.3-15 0-1.6.2-3.1.7-4.5 8.5-29.1 37.8-33.4 54.4-33.4 19.1 0 32.3 3.1 41.6 9.7 10.8 7.8 16.4 20.7 17.2 39.6 1 22.3 1.7 66.8.3 91.3 0 8.2-6.9 14.9-15.3 14.9H457c-7.9 0-14-5.7-15.2-14-6.7 10.2-18.1 15.9-32.1 15.9m31.4-69.6c-2.1 1.7-4.9 3.1-7.8 4.6-6.8 3.4-14.6 7.3-15.6 16.2-.6 3.4.4 6.9 2.6 9.6 1.9 2.1 4.7 3.3 7.4 3.3 8 0 13.3-3.6 13.3-21.3" style="fill:#d22c26"/><path d="m159.5 17.9-.7-1.3c-7.8-15.1-26.3-21-41.3-13.2s-21 26.3-13.2 41.3c2 3.9 4.9 7.4 8.4 10.1 8.7 6.8 17.7 19.6-3.4 39.4-4 4.2-1.1 7.4 1.6 9.2 6.4 4.2 10.7 3.6 17.6 0 17.7-9.2 49.7-46.4 31-85.5" style="fill:#82ab42"/></svg>