<svg xmlns="http://www.w3.org/2000/svg" xml:space="preserve" x="0px" y="0px" baseProfile="tiny" overflow="visible" version="1.2" viewBox="0 0 2048 646.5"><path fill="#FFF" d="M633.789 332.535c0 129.723-105.172 234.886-234.886 234.886-129.726 0-234.886-105.163-234.886-234.886 0-129.717 105.159-234.879 234.886-234.879 129.714 0 234.886 105.162 234.886 234.879z"/><path fill="#003764" d="M509.148 316.164c-37.361-25.391-85.193-15.052-110.343 23.125-20.919 31.909-52.582 35.88-64.778 35.88-40.003 0-67.297-28.119-75.41-57.199 0 0-.397-1.473-.5-1.805-3.189-12.156-3.995-17.929-3.995-30.828 0-69.506 71.369-146.932 174.073-146.932 105.218 0 165.435 80.095 180.994 124.622a53.895 53.895 0 0 1-.818-2.367C578.52 173.582 495.96 110.995 398.702 110.995c-122.285 0-221.483 99.145-221.483 221.535 0 109.369 78.882 202.977 188.324 202.977 87.243 0 145.899-48.913 172.766-116.357 14.774-36.904 4.34-80.234-29.161-102.986z"/><path fill="#E4032E" d="M610.545 267.327c-12.978-43.439-73.583-128.923-182.35-128.923-102.704 0-174.073 77.426-174.073 146.932 0 12.899.806 18.672 3.995 30.828-1.335-5.324-2.016-10.623-2.016-15.806 0-72.407 72.481-122.564 146.999-122.564 100.902 0 182.677 81.778 182.677 182.637 0 79.063-45.51 147.545-111.601 180.417v.061c85.23-30.868 146.092-112.512 146.092-208.38-.001-22.691-3.043-42.703-9.723-65.202z"/><g fill="#575757"><path d="M901.716 265.167v-34.003h27.148v126.367h-71.558v44.662h87.8v24.36H742.104v-24.36h87.546v-44.662h-71.306V231.164h27.152v34.003h116.22zm0 68.257v-44.403h-116.22v44.403h116.22zM1084.412 343.322h-27.405v-90.588h-79.679v-24.615h107.084v115.203zm-96.426 95.159v-80.949h27.407v56.587h153.772v24.362H987.986zm151.743-216.705h27.407v141.591h-27.407V297.9h-36.285v-24.106h36.285v-52.018zM1364.551 243.852v-21.061h27.153v89.828h-71.558v18.778h87.797v24.104h-203.002v-24.104h87.544v-18.778h-71.302v-89.828h27.151v21.061h116.217zm-145.907 129.411h173.06V443.3H1364.3v-46.183h-145.656v-23.854zm145.907-84.496v-21.315h-116.218v21.315h116.218zM1433.571 259.585v-24.107h132.965v24.107h-55.573l60.903 144.638-24.108 10.404-46.435-112.919-46.185 114.696-25.122-10.658 61.155-146.161h-57.6zm168.997-37.809h27.405v221.016h-27.405V221.776zM1667.781 361.592h203v24.36h-87.798v56.84h-27.658v-56.84h-87.544v-24.36zm43.39-108.098h116.22v-27.911h27.151v106.322H1684.02V225.583h27.151v27.911zm116.22 23.853h-116.22v30.45h116.22v-30.45z"/></g></svg>