<svg xmlns="http://www.w3.org/2000/svg" xml:space="preserve" x="0px" y="0px" viewBox="0 0 364.313 128.192"><path fill="red" d="M329.722 0v102.736l-.186.07c-1.908.713-4.686-.228-6.758-4.994l-33.859-70.206C278.425 6.966 267.017 0 243.71 0h-19.719v102.736l-.188.071c-1.904.71-4.678-.234-6.754-4.996l-33.856-70.206C172.7 6.966 161.291 0 137.982 0h-19.724v108.296l-.035.064c-.298.566-.807.9-1.468.96-1.751.16-4.212-1.585-6.744-4.785 0 0-39.844-47.86-39.847-47.866-1.721-2.175-2.76-3.745-2.76-5.519 0-1.798 1.068-3.808 3.568-6.866 0 0 33.844-43.374 34.553-44.286H77.191C75.395 2.294 39.17 48.666 39.169 48.671c-1.2 1.503-2.298 2.324-3.265 2.432a1.626 1.626 0 0 1-1.221-.335l-.108-.086V-.002C34.01 0 .563 0 0 0v128.192h34.576V92.837c0-2.947.41-5.449 2.417-8.074l5.761-7.447c.847-1.091 1.896-1.707 2.955-1.729 1.025-.021 2.134.674 2.881 1.542l25.167 30.232c12.234 15.77 23.388 20.831 45.9 20.831h33.189V25.456l.188-.068c1.906-.713 4.684.225 6.758 4.993l33.856 70.205c10.494 20.643 21.904 27.607 45.207 27.607h19.729V25.458l.186-.069c1.9-.719 4.674.221 6.756 4.993l33.852 70.205c10.494 20.643 21.9 27.607 45.207 27.607h19.73V0h-34.593z"/></svg>