<svg xmlns="http://www.w3.org/2000/svg" width="340.17657mm" height="66.756332mm" viewBox="0 0 340.17657 66.756332"><g style="stroke-width:.257104"><path d="M248.966 171.566h-5.049v-3.443h5.049v-1.429h-5.049v-3.431h5.049v-3.513c-1.676.856-3.681 1.355-5.852 1.355-5.821 0-10.539-3.617-10.539-8.082 0-4.468 4.718-8.087 10.539-8.087 5.568 0 10.12 3.294 10.531 7.476h.066v20.468h-4.745zm-5.852-22.851c-3.094 0-5.606 1.93-5.606 4.308 0 2.375 2.512 4.295 5.606 4.295 3.107 0 5.622-1.92 5.622-4.295 0-2.378-2.515-4.308-5.622-4.308M275.84 166.402h-4.024v-3.445h4.024v-4.214c-2.131.219-9.069 1.333-9.069 6.642v3.441h5.149v4.054h-13.916v-4.054h4.396c.248-1.567 1.084-8.891-5.625-10.333v-4.154s5.465.198 8.036 4.56c0 0 4.523-4.621 11.029-4.621v-7.44h4.24v26.042h-4.24zM282.127 146.838h4.232v26.042h-4.232zM168.016 155.73c4.62 0 9.034 3.415 9.034 7.629 0 1.579-.615 3.043-1.632 4.258h2.024v3.85h-6.904v2.126h-5.258v-2.126h-7.014v-3.85h2.205c-1.053-1.215-1.704-2.679-1.704-4.258 0-4.214 4.625-7.629 9.249-7.629m-.051 11.286c2.208 0 4.319-1.64 4.319-3.657 0-2.015-2.111-3.656-4.319-3.656-2.22 0-4.438 1.641-4.438 3.656 0 2.017 2.218 3.657 4.438 3.657" style="fill:#264997;fill-opacity:1;fill-rule:nonzero;stroke:none;stroke-width:.0257104" transform="matrix(1.37212 0 0 -1.37212 -111.433 262.179)"/><path d="M187.136 172.382h-4.74v-21.795h-15.361c-1.904 0-1.755.917-1.755.917v2.939h-4.437v-3.547c0-4.712 2.891-4.058 2.891-4.058h23.402v18.141h2.679v3.847h-2.679zM221.277 170.334s.358 2.937-4.031 2.937h-22.78v-3.952h20.828s1.337.049 1.337-1.114v-3.141H192.41v-3.957h12.878v-4.148h-11.337v-3.961h21.653s1.341.209 1.341-1.113v-4.862h4.637v6.991s.152 2.945-4.023 2.945h-7.631v4.148h12.884v3.957h-1.535zM241.441 169.609c.156 3.202-3.337 3.149-3.337 3.149h-10.733v-3.796h7.142c2.479 0 2.223-.643 2.223-.643.256-3.475-4.263-3.537-4.263-3.537h-5.301v-3.671h7.071c7.723.516 7.198 8.498 7.198 8.498M309.342 168.73h-7.377v-21.483h-4.35v21.483h-7.4v4.527h19.127z" style="fill:#264997;fill-opacity:1;fill-rule:nonzero;stroke:none;stroke-width:.0257104" transform="matrix(1.37212 0 0 -1.37212 -111.433 262.179)"/><path d="m329.133 173.257-8.475-26.01h-4.22l-8.504 26.01h4.929l5.701-19.429 5.635 19.429zM105.834 153.639l-3.211-10.229h-2.2l-2.332 7.274-2.363-7.274h-2.213l-3.181 10.229H92.8l1.857-7.063 2.274 7.063h2.29l2.256-7.063 1.86 7.063zM134.287 153.639l-3.21-10.229h-2.2l-2.331 7.274-2.364-7.274h-2.215l-3.178 10.229h2.468l1.855-7.063 2.274 7.063h2.289l2.259-7.063 1.857 7.063zM137.104 183.283s-6.307 2.485-12.319-1.492c0 0-1.933 8.904-12.25 9.277v.008c-.014-.004-.021-.004-.033-.004q-.02-.001-.037.004v-.008c-10.317-.373-12.246-9.277-12.246-9.277-6.014 3.977-12.322 1.492-12.322 1.492-7.09-2.637-6.68-8.799-6.68-8.799 0-.359.44-.556.44-.556 5.984-2.864 9.732-6.106 9.732-6.106 2.568-2.222 4.619-4.617 6.88-7.955 2.518-3.717 5.094-3.316 5.094-3.316 2.832 0 4.28 1.603 4.28 1.603 2.259-2.304 4.607-2.23 4.859-2.22.25-.01 2.598-.084 4.855 2.22 0 0 1.45-1.603 4.28-1.603 0 0 2.578-.401 5.095 3.316 2.262 3.338 4.309 5.733 6.883 7.955 0 0 3.746 3.242 9.731 6.106 0 0 .439.197.437.556 0 0 .41 6.162-6.679 8.799m-54.881-8.578s.188 7.145 8.931 8.246c0 0 8.686 1.166 12.272-6.418 0 0 2.707-5.148 2.707-12.291 0 0-7.863 10.793-23.91 10.463m31.109 9.076s-.045.867-.768.94h-.128c-.723-.073-.766-.94-.766-.94-.633-10.459-4.545-18.955-4.545-18.955-.949 13.315-6.121 16.535-6.121 16.535 2.586 8.032 10.139 8.561 11.344 8.594v.004h.306v-.004c1.207-.033 8.756-.562 11.34-8.594 0 0-5.172-3.22-6.117-16.535 0 0-3.916 8.496-4.545 18.955m5.537-19.539c0 7.143 2.705 12.291 2.705 12.291 3.586 7.584 12.27 6.418 12.27 6.418 8.746-1.101 8.935-8.246 8.935-8.246-16.047.33-23.91-10.463-23.91-10.463M112.354 154.229a5.9 5.9 0 0 1-5.901-5.905 5.9 5.9 0 0 1 5.901-5.9 5.903 5.903 0 0 1 0 11.805m0-9.682a3.778 3.778 0 1 0 0 7.557 3.778 3.778 0 0 0 0-7.557" style="fill:#264997;fill-opacity:1;fill-rule:nonzero;stroke:none;stroke-width:.0257104" transform="matrix(1.37212 0 0 -1.37212 -111.433 262.179)"/></g></svg>