<svg width="788" height="231" viewBox="0 0 788 231" fill="none" xmlns="http://www.w3.org/2000/svg">
<path fill-rule="evenodd" clip-rule="evenodd" d="M362.541 116.619C371.452 115.621 380.471 116.686 388.917 119.733C399.514 123.586 407.356 130.726 412.537 140.857C415.768 147.135 417.789 153.98 418.491 161.024C419.08 166.976 416.591 171.701 411.771 175.149C408.901 177.191 405.627 177.891 402.181 177.904H387.834L380.474 177.892H358.108C356.005 177.892 356.207 178.013 356.334 179.74C356.44 182.953 357.083 186.125 358.234 189.121C358.729 190.378 359.367 191.571 360.135 192.678C361.15 194.183 362.463 195.458 363.989 196.423C365.516 197.387 367.222 198.021 369.002 198.283C374.393 199.201 379.932 198.223 384.698 195.51C386.161 194.656 387.57 193.71 388.917 192.678C389.937 191.92 390.976 191.189 392.027 190.47C398.362 186.142 407.267 189.128 410.168 196.64C411.279 199.37 411.437 202.404 410.617 205.238C409.797 208.073 408.048 210.539 405.658 212.229C400.707 215.775 395.164 218.385 389.297 219.934C384.39 221.209 379.351 221.888 374.285 221.956C367.815 222.167 361.346 221.489 355.055 219.94C346.725 217.809 339.257 214.014 332.974 207.991C328.019 203.292 324.203 197.495 321.825 191.054C316.473 176.575 316.315 162.039 322.06 147.643C325.343 139.201 330.86 131.839 338.001 126.366C345.142 120.893 353.633 117.521 362.541 116.619ZM255.486 116.573C263.277 115.819 271.139 116.608 278.632 118.897C291.363 122.801 300.408 131.007 305.938 143.231C308.411 148.759 310.032 154.638 310.745 160.664C311.721 168.497 306.312 176.074 298.204 177.576C296.818 177.825 295.412 177.945 294.004 177.935C286.897 177.897 279.795 177.882 272.696 177.891H249.273C248.709 177.891 248.551 178.115 248.564 178.706C248.633 182.738 249.241 186.661 251.027 190.314C253.365 195.091 257.102 197.865 262.378 198.411C264.546 198.657 266.737 198.62 268.896 198.302C272.8 197.668 276.501 196.106 279.695 193.743C281.133 192.716 282.533 191.637 283.996 190.648C285.435 189.615 287.081 188.915 288.817 188.6C291.691 188.221 294.607 188.835 297.095 190.343C299.582 191.85 301.496 194.164 302.526 196.91C303.557 199.656 303.646 202.674 302.776 205.477C301.907 208.279 300.131 210.703 297.735 212.356C292.406 216.105 286.425 218.798 280.108 220.293C275.649 221.318 271.097 221.868 266.526 221.936C260.691 222.127 254.855 221.611 249.14 220.401C242.508 219.012 236.213 216.307 230.618 212.44C222.555 206.777 216.994 199.155 213.624 189.858C211.982 185.225 210.918 180.403 210.457 175.502C209.603 167.679 210.365 159.761 212.693 152.253C216.887 138.879 224.867 128.599 237.181 121.979C242.865 118.955 249.089 117.117 255.486 116.573ZM718.199 117.695C723.239 117.642 728.093 119.621 731.693 123.196C735.294 126.771 737.346 131.649 737.399 136.758V216.374C737.399 219.437 737.759 219.007 734.864 219.014H703.637C702.25 219.014 702.231 219.013 702.225 217.568V203.231L702.256 200.772C701.613 201.284 701.101 201.944 700.762 202.698C695.958 210.252 688.888 216.043 680.594 219.219C676.842 220.667 672.895 221.533 668.888 221.787C664.467 222.139 660.02 221.832 655.688 220.875C646.668 218.75 640.442 213.299 636.844 204.695C635.03 200.126 633.881 195.314 633.436 190.409C633.101 187.144 632.947 183.862 632.974 180.579V138.203C632.932 136.564 633.055 134.924 633.341 133.31C634.295 128.619 636.935 124.455 640.748 121.626C644.561 118.797 649.275 117.505 653.975 118.001C658.675 118.497 663.025 120.746 666.181 124.31C669.337 127.875 671.075 132.501 671.055 137.291C671.093 140.784 671.055 144.283 671.055 147.776V171.102C671.06 174.959 671.638 178.792 672.771 182.474C673.288 184.178 674.01 185.812 674.918 187.34C675.672 188.633 676.633 189.79 677.762 190.763C679.368 192.179 681.383 193.031 683.506 193.193C685.629 193.355 687.747 192.818 689.544 191.661C691.437 190.412 693.056 188.781 694.301 186.871C696.691 183.24 698.282 179.129 698.963 174.819C699.298 172.697 699.442 170.548 699.394 168.399V137.156C699.342 132.048 701.294 127.127 704.82 123.477C708.347 119.828 713.16 117.748 718.199 117.695ZM195.279 116.296C200.98 116.405 205.49 118.8 208.403 123.834C210.151 126.722 210.865 130.132 210.427 133.49C209.989 136.848 208.425 139.952 205.997 142.28C204.794 143.48 203.511 144.596 202.158 145.619C196.844 149.401 191.308 149.472 185.658 146.409C184.438 145.693 183.306 144.83 182.288 143.841C180.83 142.483 179.045 141.538 177.113 141.1C173.75 140.368 170.855 141.349 168.334 143.597C166.813 144.988 165.577 146.671 164.698 148.547C162.977 152.228 161.921 156.193 161.582 160.252C161.324 162.812 161.205 165.384 161.227 167.957V216.754C161.227 219.322 161.442 219.059 158.979 219.059H125.218C123.058 219.059 123.14 219.238 123.14 216.991V134.807C123.083 131.655 123.809 128.54 125.249 125.747C127.083 122.277 129.998 119.519 133.539 117.903C137.081 116.288 141.051 115.905 144.829 116.815C148.608 117.726 151.983 119.878 154.429 122.935C156.875 125.993 158.254 129.786 158.352 133.722C158.371 134.46 158.358 135.237 158.358 136.297C159 135.938 159.532 135.404 159.891 134.756C163.518 129.916 167.969 125.771 173.034 122.518C179.686 118.274 187.423 116.11 195.279 116.296ZM444.205 87.7763C447.743 85.9243 451.765 85.2425 455.704 85.8271C459.644 86.4117 463.303 88.2338 466.169 91.0361C469.035 93.8383 470.962 97.4802 471.68 101.45C471.905 102.857 472.007 104.282 471.984 105.707C472.022 109.058 471.984 112.41 471.984 115.762C471.984 116.262 471.984 116.763 472.041 117.258C472.046 117.402 472.105 117.539 472.206 117.641C472.307 117.742 472.444 117.8 472.586 117.804C473.074 117.842 473.568 117.849 474.062 117.849H483.563C485.115 117.814 486.656 118.123 488.078 118.754C489.5 119.385 490.769 120.323 491.797 121.502C494.964 125.072 495.737 129.207 493.951 133.624C493.22 135.658 491.9 137.42 490.164 138.681C488.428 139.941 486.357 140.64 484.222 140.686C480.998 140.879 477.754 140.745 474.518 140.77C471.813 140.77 471.984 140.398 471.984 143.229C471.984 156.424 472.085 169.619 471.94 182.807C471.87 189.099 475.683 193.773 481.568 195.462C483.329 195.964 485.154 196.206 486.984 196.181H490.151C490.256 196.169 490.362 196.182 490.462 196.218C490.562 196.254 490.652 196.313 490.727 196.39C490.801 196.466 490.858 196.558 490.892 196.66C490.926 196.762 490.936 196.87 490.923 196.977V218.364C490.923 218.454 490.905 218.544 490.869 218.626C490.834 218.708 490.782 218.782 490.716 218.843C490.65 218.903 490.573 218.948 490.488 218.977C490.446 218.991 490.403 219.001 490.359 219.006H489.384C481.998 219.006 474.613 219.096 467.215 218.974C462.221 218.959 457.261 218.142 452.52 216.554C448.759 215.322 445.311 213.266 442.423 210.531C438.521 206.756 436.291 202.075 435.094 196.829C434.265 193.068 433.863 189.222 433.897 185.368C433.909 178.733 433.912 172.098 433.903 165.464V141.714C433.903 140.912 433.726 140.777 432.864 140.751C432.003 140.725 431.319 140.751 430.546 140.713C427.974 140.627 425.508 139.653 423.557 137.952C421.606 136.251 420.286 133.926 419.818 131.361C419.349 128.796 419.759 126.146 420.98 123.85C422.2 121.553 424.159 119.748 426.53 118.734C427.761 118.199 429.081 117.91 430.419 117.881C431.262 117.881 432.111 117.88 432.953 117.842C433.795 117.803 433.903 117.65 433.903 116.783V105.226C433.876 102.077 434.588 98.9674 435.981 96.1533C437.791 92.5584 440.667 89.6284 444.205 87.7763ZM760.578 74.4042C764.05 72.78 767.924 72.2528 771.695 72.8915C775.467 73.5303 778.961 75.3062 781.724 77.9863C784.486 80.6662 786.387 84.127 787.182 87.9179C787.456 89.3171 787.58 90.7428 787.55 92.1689C787.529 112.766 787.52 133.37 787.525 153.98V216.46C787.525 219.33 787.835 219.028 785.099 219.028H750.501C749.678 218.996 749.564 218.874 749.532 218.001V92.6181C749.436 88.8923 750.371 85.2133 752.231 81.998C754.198 78.6746 757.107 76.0284 760.578 74.4042ZM507.628 125.469C512.657 119.048 519.277 116.564 527.106 118.406C534.934 120.249 539.59 125.469 541.434 133.289C541.727 134.683 541.859 136.108 541.826 137.533C541.788 150.717 541.778 163.905 541.795 177.098V216.45C541.795 219.346 542.073 219.018 539.375 219.018H506.058C503.524 219.018 503.739 219.403 503.739 216.578V137.637C503.739 133.142 504.866 129 507.628 125.469ZM614.726 72.5995C617.711 72.5612 620.589 73.7262 622.727 75.8388C624.864 77.9514 626.086 80.8383 626.124 83.8642C626.162 86.8902 625.012 89.8078 622.928 91.9745C620.844 94.1412 617.996 95.3796 615.011 95.4179C613.675 95.4255 612.345 95.6006 611.052 95.9384C606.276 97.3124 603.73 101.204 603.166 105.518C603.087 106.299 603.055 107.084 603.07 107.868V115.361C603.07 118.083 602.786 117.814 605.605 117.82H614.675C616.444 117.783 618.195 118.188 619.773 119C621.35 119.812 622.706 121.005 623.72 122.475C626.323 126.134 626.716 130.142 624.784 134.206C623.971 136.084 622.644 137.687 620.96 138.825C619.276 139.963 617.306 140.588 615.283 140.626C611.99 140.799 608.677 140.684 605.37 140.703C602.906 140.703 603.07 140.415 603.07 142.964L603.014 180.011V218.31C603.019 218.397 603.006 218.485 602.977 218.567C602.947 218.65 602.901 218.725 602.842 218.789C602.783 218.853 602.711 218.904 602.632 218.938C602.553 218.973 602.466 218.99 602.38 218.99H566.909C565.169 218.99 565.019 219.118 565.009 217.705V141.474C565.013 141.367 564.993 141.26 564.952 141.161C564.911 141.063 564.849 140.975 564.771 140.903C564.692 140.832 564.599 140.778 564.498 140.747C564.397 140.716 564.29 140.708 564.186 140.723C563.343 140.723 562.5 140.723 561.651 140.678C559.188 140.606 556.815 139.719 554.896 138.151C552.976 136.584 551.617 134.421 551.025 131.996C550.432 129.571 550.639 127.015 551.614 124.721C552.59 122.426 554.28 120.519 556.426 119.29C558.02 118.362 559.821 117.861 561.658 117.833H564.192C564.297 117.848 564.404 117.839 564.506 117.808C564.607 117.776 564.701 117.723 564.779 117.65C564.858 117.578 564.92 117.489 564.961 117.39C565.002 117.29 565.021 117.183 565.016 117.075V104.234C564.999 100.096 565.619 95.9799 566.853 92.0351C569.481 83.8425 574.795 78.2372 582.732 75.2001C587.296 73.494 592.125 72.6242 596.99 72.6318C602.894 72.574 608.803 72.6702 614.726 72.5995ZM266.571 140.638C264.36 139.253 261.696 138.812 259.165 139.414C256.634 140.016 254.44 141.61 253.067 143.848C251.071 147.058 250.286 150.673 249.716 154.346C249.703 154.416 249.707 154.489 249.726 154.559C249.745 154.628 249.779 154.691 249.826 154.745C249.873 154.799 249.932 154.84 249.997 154.868C250.063 154.896 250.134 154.908 250.204 154.904C250.692 154.936 251.186 154.936 251.68 154.936L261.561 154.911H273.171C273.659 154.911 273.748 154.596 273.678 154.179C273.274 151.278 272.42 148.461 271.145 145.832C270.14 143.694 268.553 141.891 266.571 140.638ZM369.718 139.207C366.317 138.995 363.504 140.093 361.401 142.867C360.681 143.836 360.078 144.891 359.609 146.007C358.798 147.904 358.207 149.891 357.848 151.927C357.67 152.825 357.297 153.705 357.537 154.655C358.047 154.905 358.622 154.981 359.178 154.873H379.631C381.905 154.873 381.531 154.835 381.183 152.883C380.69 149.775 379.573 146.803 377.901 144.15C375.944 141.197 373.29 139.438 369.718 139.207ZM522.717 72.6474H525.884C532.649 72.4997 540.06 77.7072 541.542 86.1308C542.247 90.2064 541.41 94.4021 539.196 97.8788C536.983 101.356 533.557 103.858 529.603 104.886C529.199 105.001 528.788 105.092 528.373 105.156C524.812 105.592 521.214 105.607 517.65 105.201C513.913 104.667 510.479 102.826 507.941 99.996C505.402 97.166 503.92 93.525 503.751 89.704C503.582 85.8832 504.736 82.1223 507.014 79.0732C509.292 76.024 512.551 73.8785 516.225 73.0078C517.317 72.7484 518.435 72.6186 519.557 72.622L522.717 72.622Z" fill="#272632"/>
<path d="M49.4462 167.114C49.0978 167.846 49.2752 168.635 49.2752 169.393C49.2752 183.091 49.2752 196.788 49.2752 210.485C49.2913 213.926 48.448 217.314 46.8238 220.335C44.8462 223.987 41.7788 226.912 38.0611 228.69C34.3434 230.467 30.1661 231.007 26.1275 230.23C22.0889 229.454 18.3962 227.402 15.5783 224.369C12.7605 221.335 10.962 217.476 10.4406 213.343C10.3224 212.354 10.2611 211.359 10.2569 210.363C10.2569 178.189 10.1618 146.015 10.2885 113.842C10.3392 99.3694 15.7042 87.0353 26.0289 77.0062C31.8943 71.3111 38.7668 67.1954 46.2474 64.0621C53.7523 60.9932 61.5962 58.8566 69.6078 57.6993C77.2646 56.5803 84.9913 56.0245 92.7274 56.0363C97.7697 56.0777 102.6 58.0985 106.203 61.674C109.807 65.2495 111.903 70.1014 112.051 75.2106C112.2 80.3197 110.389 85.2883 106.999 89.0725C103.61 92.8567 98.905 95.162 93.8738 95.5041C91.7709 95.6197 89.6616 95.6197 87.5397 95.6967C80.3647 95.862 73.2357 96.9054 66.3077 98.8043C63.3887 99.6143 60.5627 100.736 57.8769 102.15C56.4446 102.913 55.089 103.816 53.8294 104.846C50.8714 107.267 49.1801 110.342 49.2055 114.265C49.1889 115.338 49.2397 116.41 49.3575 117.476C49.7448 120.332 51.1952 122.93 53.4114 124.737C56.0349 126.905 59.0456 128.54 62.2791 129.553C67.1557 131.2 72.265 132.028 77.4051 132.006C78.3869 132.006 79.3687 131.858 80.3504 131.794C88.7939 131.203 95.4257 134.426 99.5809 141.932C101.049 144.588 101.889 147.554 102.035 150.595C102.181 153.636 101.629 156.67 100.423 159.458C99.2167 162.246 97.3888 164.713 95.083 166.664C92.7772 168.615 90.0563 169.998 87.1343 170.703C85.2836 171.132 83.3949 171.371 81.4969 171.416C76.849 171.652 72.1901 171.523 67.5618 171.03C61.9747 170.389 56.4603 169.211 51.0931 167.512C50.5757 167.27 50.0158 167.134 49.4462 167.114Z" fill="#2C53FF"/>
<path d="M26.2924 54.1058C12.5473 54.3562 -0.00692327 42.7669 0.0120791 27.4665C-0.0946619 23.8976 0.506933 20.3434 1.78116 17.0147C3.05539 13.6861 4.97628 10.6508 7.42985 8.08903C9.88342 5.52725 12.8197 3.49118 16.0643 2.10164C19.309 0.712109 22.796 -0.0025741 26.3184 6.9662e-06C29.8407 0.00258803 33.3267 0.722375 36.5694 2.11666C39.8121 3.51095 42.7454 5.55132 45.1953 8.11669C47.6452 10.6821 49.5618 13.7202 50.8313 17.0507C52.1007 20.3812 52.6973 23.9363 52.5854 27.505C52.5791 42.7862 40.1325 54.369 26.2924 54.1058Z" fill="#4AD8FF"/>
</svg>
