<svg xmlns="http://www.w3.org/2000/svg" viewBox="0 0 100.783 29.8"><g fill="none" fill-rule="evenodd"><path fill="#FAE100" d="M0 3.693V20.28h3.057V14.9l4.312 5.38h3.555l-4.905-5.995 4.763-5.853h-3.65l-4.075 5.213V3.693zM17.671 17.697c.948 0 1.73-.308 2.346-.924.64-.64.948-1.446.948-2.417 0-.972-.308-1.777-.948-2.393-.616-.64-1.398-.948-2.346-.948-.947 0-1.73.308-2.345.948-.616.616-.925 1.421-.925 2.393 0 .971.309 1.777.925 2.417.616.616 1.398.924 2.345.924Zm3.294-9.265h3.057V20.28h-3.057v-1.398c-.924 1.16-2.203 1.73-3.862 1.73-1.588 0-2.939-.593-4.076-1.801-1.114-1.209-1.682-2.702-1.682-4.455 0-1.754.568-3.223 1.682-4.431C14.164 8.716 15.515 8.1 17.103 8.1c1.659 0 2.938.569 3.862 1.73V8.432ZM38.137 20.28h-3.554L30.27 14.9v5.38h-3.057V3.693h3.057v9.952l4.076-5.213h3.649l-4.763 5.853zM44.885 17.697c.948 0 1.73-.308 2.346-.924.64-.64.947-1.446.947-2.417 0-.972-.308-1.777-.947-2.393-.616-.64-1.398-.948-2.346-.948-.948 0-1.73.308-2.346.948-.616.616-.924 1.421-.924 2.393 0 .971.308 1.777.924 2.417.616.616 1.398.924 2.346.924Zm3.293-9.265h3.057V20.28h-3.057v-1.398c-.924 1.16-2.203 1.73-3.862 1.73-1.588 0-2.938-.593-4.076-1.801-1.113-1.209-1.682-2.702-1.682-4.455 0-1.754.569-3.223 1.682-4.431C41.378 8.716 42.728 8.1 44.316 8.1c1.659 0 2.938.569 3.862 1.73V8.432ZM60.018 17.626c.925 0 1.683-.308 2.299-.924.616-.616.924-1.398.924-2.346 0-.948-.308-1.73-.924-2.346-.616-.616-1.374-.924-2.299-.924-.924 0-1.682.308-2.298.924-.593.616-.9 1.398-.9 2.346 0 .948.307 1.73.9 2.346.616.616 1.374.924 2.298.924m0 2.986c-1.753 0-3.246-.593-4.455-1.801-1.208-1.209-1.8-2.702-1.8-4.455 0-1.754.592-3.223 1.8-4.431C56.772 8.716 58.265 8.1 60.018 8.1c1.754 0 3.247.616 4.455 1.825 1.208 1.208 1.825 2.677 1.825 4.43 0 1.754-.617 3.247-1.825 4.456-1.208 1.208-2.701 1.8-4.455 1.8M93.518 19.421h-4.285L86.16 9.734h3.298l1.732 5.682h.373l1.732-5.682h3.298l-3.074 9.687ZM85.1 12.714h-2.67v3.727h2.67v2.98H82.033c-1.467 0-2.862-1.37-2.862-2.862V12.715h-1.698V9.734h1.698v-2.98h3.26v2.98H85.1v2.98ZM86.68.167c-7.771 0-14.072 5.828-14.072 13.016 0 5.31 2.224 7.844 5.27 10.154l.014.007v6.23c0 .294.335.463.571.287l5.336-3.964.115.05c.895.165 1.82.252 2.766.252 7.772 0 14.072-5.827 14.072-13.016 0-7.188-6.3-13.016-14.072-13.016Z"/></g></svg>