<svg xmlns="http://www.w3.org/2000/svg" width="129.55" height="45.641399" fill="none" viewBox="0 0 129.55 45.641399"><path fill="#bd8b13" d="m72.607 4.283-.122-.123-1.578-1.59-1.7 1.713 1.7 1.713Z"/><path fill="#bd8b13" d="m76.127 4.283-.243-.123-1.578-1.59-1.7 1.713 1.7 1.713Z"/><path fill="#bd8b13" d="M52.573 3.916c0 .367.364.49.607.611.364.123.728.368.728.857v13.337H68.6v.612c0 1.102.364 1.836.97 2.08 0 0 .365.245.85.245.365 0 .73-.122 1.093-.367l.243-.122-.243-.245c-.364-.367-.607-1.346-.607-1.958v-.122h5.464V6.608s-.728 1.59-3.4 3.548c0 0 .122.49.608.734.728.367.607.734.607.734v4.895h-3.4v-.489c0-1.224-.364-4.16-3.642-4.16H64.107c-1.942 0-2.914-.246-3.278-.735l-.121-.245-.122.123c-.364.244-.607.734-.607 1.223 0 .734.486 1.713 1.214 1.713h4.493c2.67 0 2.792 1.224 2.792 1.713v.612H56.094V0s-1.457 1.958-3.521 3.426v.123zM44.074 20.68s-.243 1.957 3.764 1.957c3.278 0 3.4-2.08 3.4-2.08v-7.586c0-.49-.122-1.836-1.458-1.836H38.367v-.856c0-.245.122-.245.365-.368.607-.367.728-.734.607-.979-1.336-.734-2.672-2.447-2.672-2.447v6.608h11.535c.364 0 .85.122.85.856v5.384s0 1.102-1.093 1.102c-1.821 0-1.7-.98-1.7-.98V16.52h-9.591v2.325h7.527v1.835zM91.79 5.384c0-.612.365-.734.608-.857.242-.122.485-.244.607-.734v-.122c0-.245-.122-.245-.365-.367-.242-.123-.607-.367-1.335-.98C90.09 1.347 89.848.858 89.848.858l-.364-.612v18.599h2.307V5.384zM84.02 21.169l-1.58 1.59-1.578-1.59 1.579-1.59zm-5.222 0 3.764 3.793 3.764-3.793-2.307-2.325 2.793-2.937V.245s-1.093 2.325-2.914 3.548v.123c0 .367.243.489.486.611.242.123.485.367.485.857v9.422l-2.307 2.447-2.307-2.447V5.384c0-.612.243-.734.486-.857.243-.122.364-.244.486-.611v-.123C79.527 2.57 78.313.245 78.313.245v15.907l2.792 2.814zM72.12 29.367l.608.367c.121.123.122.123.122.245v4.895H62.286l-2.428 3.058V29.857l.121-.123.486-.367v-.49h-5.342v.49l.486.367.12.123v14.805l-.12.123-.486.367v.49h5.342v-.49l-.607-.367-.121-.122v-6.608l.607.122.728-.367.364-.122h11.292v5.14l4.007-4.284v-8.443l.121-.122.607-.245v-.49h-5.342zM129.186 35.363c-.607-1.958-2.064-3.549-4.25-4.772-1.942-1.102-4.735-1.591-8.499-1.591h-14.448v.49l.607.367v1.713h13.72c2.793 0 4.857.367 6.071 1.1 1.942 1.102 2.914 2.693 2.914 4.528 0 .98-.243 1.836-.729 2.692-.485.735-1.335 1.469-2.307 1.958-1.335.734-3.399 1.101-6.07 1.101h-7.164V32.793h-3.885V44.54l-.122.123-.485.244v.49h11.777c2.307 0 4.007-.123 5.342-.367 1.7-.367 3.278-.98 4.493-1.836 1.335-.856 2.307-1.958 2.792-3.059.364-.857.607-1.713.607-2.692a70.337 70.337 0 0 0-.364-2.08zM84.87 31.937 72 45.397h5.95v-.612h-.729l9.834-10.401Z"/><path fill="#bd8b13" d="M97.86 44.907v.612h5.828L88.148 29l-2.307 2.447 2.55 2.692 2.67 2.692H86.57l-2.428 2.57.485.367.607-.367h8.014l5.22 5.629s-.12.122-.485.122h-.121zM52.816 29.734l.486-.367v-.49H48.08v.49l.486.367.242.245V44.54l-.121.123-.607.244v.49h5.22v-.49l-.485-.244-.121-.123V29.857ZM26.833 42.215h-.85l-.729.367c-.121.123-.242.123-.364.123H13.113c-2.671 0-4.735-.367-6.07-1.102-2.065-1.1-3.036-2.57-3.036-4.65 0-.856.243-1.835.85-2.569.97-1.468 2.428-2.57 4.613-2.937.607-.122 1.093-.122 1.457-.122h6.071c.364 0 .364.122.364.122l-.121.49h.486l2.55-3.182H12.99c-1.7 0-3.035 0-3.885.123-.486 0-.971.122-1.335.244-1.215.245-2.307.735-3.4 1.346-1.821.98-3.035 2.325-3.764 3.794A7.443 7.443 0 0 0 0 37.198c0 2.692 1.457 4.773 4.25 6.363 1.214.734 2.67 1.224 4.25 1.469 1.213.244 2.792.244 4.734.244h10.928z"/><path fill="#bd8b13" d="m20.883 38.3 2.55-3.182H6.313l-1.7 2.57h15.42a.53.53 0 0 1 .364.122l-.12.49z"/><path fill="#bd8b13" d="m22.219 28.878-2.429 3.059.486.122h.121l.729-.367c.243-.122.364-.245.607-.245h9.47v12.971l-.121.122-.486.367v.49h5.342v-.49l-.485-.367-.122-.122V31.447h8.378c.364 0 .364.123.364.123v.49h.486l2.55-3.182z"/></svg>