<svg xmlns="http://www.w3.org/2000/svg" xmlns:xlink="http://www.w3.org/1999/xlink" width="225pt" height="225pt" viewBox="0 0 225 225"><defs><path id="h" d="M0 0Z"/><path id="i" d="M.373 0H.285v.56A.59.59 0 0 0 .109.454V.54a.53.53 0 0 1 .129.084.33.33 0 0 1 .078.096h.057z"/><path id="u" d="M.78-.088v.942h.074v-.942H.781m-.43.94h.073V.73h.244V.664H.105V.73h.246v.123M.423.27V.135L.6.14c.052.001.088.003.108.005L.712.083A16.113 16.113 0 0 0 .08.067L.073.13c.099 0 .191 0 .278.003V.27a.252.252 0 0 0-.149.055A.148.148 0 0 0 .15.44a.15.15 0 0 0 .064.126c.043.032.1.048.174.048A.28.28 0 0 0 .561.566a.145.145 0 0 0 .063-.12.155.155 0 0 0-.053-.12A.248.248 0 0 0 .423.27M.388.552c-.05 0-.09-.01-.12-.031A.095.095 0 0 1 .225.44C.224.408.24.382.267.36c.03-.02.07-.03.121-.03.052 0 .092.01.12.03.029.02.043.047.043.079S.536.5.507.52a.199.199 0 0 1-.119.032z"/><path id="r" d="M.297.528C.233.559.2.605.2.667c0 .056.026.099.078.13A.44.44 0 0 0 .5.841.44.44 0 0 0 .721.796.143.143 0 0 0 .8.667C.799.604.767.558.702.527V.395h.235V.329H.063v.065h.234v.134M.5.78C.351.78.277.742.277.667c0-.035.018-.063.055-.083A.366.366 0 0 1 .5.554c.075 0 .13.01.168.03.037.02.055.048.055.083C.723.742.65.78.5.78M.37.394H.63v.11A.632.632 0 0 0 .37.505V.394M.5-.083a.441.441 0 0 0-.224.046C.224-.006.198.037.198.091c0 .055.026.097.078.128A.44.44 0 0 0 .5.266.44.44 0 0 0 .724.22C.776.19.802.146.802.091c0-.054-.026-.097-.078-.128A.441.441 0 0 0 .5-.083m0 .287a.371.371 0 0 1-.169-.03C.293.154.274.126.274.09S.293.028.33.009A.379.379 0 0 1 .5-.021c.075 0 .13.01.169.03.038.02.057.047.057.082S.706.154.67.174A.374.374 0 0 1 .5.204Z"/><path id="t" d="M.154.363V.81h.433V.717h.187v.137h.073V.279H.774v.176H.587V.363H.154m.361.383H.227V.428h.288v.318M.587.518h.187v.136H.587V.518m-.04-.597a.425.425 0 0 0-.228.05C.266.007.24.05.24.105c0 .054.027.098.08.132.054.034.13.051.228.051a.425.425 0 0 0 .228-.05C.828.201.855.157.855.103.855.05.828.006.775-.028A.425.425 0 0 0 .547-.08m0 .304A.346.346 0 0 1 .376.191C.336.168.316.139.316.104c0-.035.02-.064.06-.086a.35.35 0 0 1 .17-.034c.075 0 .132.011.171.033.04.023.06.052.06.087 0 .035-.02.065-.059.087a.348.348 0 0 1-.171.034z"/><path id="l" d="M.763-.088v.942h.073v-.942H.763M.574.767A.655.655 0 0 0 .462.408.876.876 0 0 0 .15.132L.094.19c.1.041.188.107.264.196.077.09.123.195.138.315H.133v.065z"/><path id="j" d="M.042.353c0 .085.008.153.026.204a.254.254 0 0 0 .077.12.199.199 0 0 0 .13.042.193.193 0 0 0 .173-.09.358.358 0 0 0 .044-.107.706.706 0 0 0 .016-.169A.656.656 0 0 0 .482.15.254.254 0 0 0 .405.03a.199.199 0 0 0-.13-.042.196.196 0 0 0-.163.074C.065.122.042.22.042.353m.09 0C.132.237.146.159.173.12.201.08.235.062.275.062c.04 0 .074.019.102.058.027.039.041.117.041.234S.404.549.377.588C.349.626.315.646.274.646A.113.113 0 0 1 .177.594C.147.551.132.471.132.354Z"/><path id="k" d="M.792-.088v.49H.671V-.06H.599v.894h.072V.467h.121v.387h.073v-.942H.792M.53.18A4.208 4.208 0 0 0 .129.166v.605H.49V.706H.201V.231h.087c.099 0 .178.004.237.011z"/><path id="m" d="M.614.585a.212.212 0 0 0-.08-.14A.248.248 0 0 0 .376.39a.235.235 0 0 0-.17.065.216.216 0 0 0-.068.161c0 .064.022.117.067.16a.234.234 0 0 0 .171.066.247.247 0 0 0 .16-.053.21.21 0 0 0 .078-.14h.162v.203h.073V.38H.775v.205H.614M.375.78a.163.163 0 0 1-.12-.046A.158.158 0 0 1 .21.617.16.16 0 0 1 .255.5c.03-.03.07-.046.12-.046.05 0 .09.015.121.046.03.03.046.07.046.118a.158.158 0 0 1-.046.117.164.164 0 0 1-.121.046M.267-.066v.394H.34V.185h.437v.143h.072v-.394h-.58m.508.187H.339V0h.437z"/><path id="q" d="M.792-.088v.492H.674V-.06H.602v.894h.072V.469h.118v.385h.073v-.942H.792M.489.156A.583.583 0 0 0 .382.27a.518.518 0 0 0-.076.128A.544.544 0 0 0 .234.26.624.624 0 0 0 .125.133l-.063.05a.439.439 0 0 1 .144.163.452.452 0 0 1 .062.22v.081h-.18v.065h.18v.127H.34V.712H.52V.647h-.18V.563C.34.495.36.427.403.358A.417.417 0 0 1 .548.207z"/><path id="g" d="M.6.468V.53h.173v.114H.6v.063h.172v.146h.073V.298H.773v.17H.599m0-.11A1.23 1.23 0 0 0 .45.345 9.239 9.239 0 0 0 .155.34v.276H.47V.75H.155v.064h.388V.555H.228v-.15h.113C.448.405.53.41.588.42l.01-.062m.175-.447v.27h-.54v.064h.613v-.334z"/><path id="f" d="M.773.302V.42H.575v.066h.198v.133H.585v.066h.188v.169h.073V.302H.773M.564.804a.484.484 0 0 0-.136-.31.782.782 0 0 0-.292-.2L.085.352c.095.03.18.08.256.15.075.07.121.15.138.237H.147v.065h.417m-.02-.88a.417.417 0 0 0-.228.054C.262.013.235.058.235.112c0 .054.027.099.08.133.055.035.13.052.229.052A.425.425 0 0 0 .773.245C.827.211.854.166.854.112c0-.055-.027-.1-.08-.134a.419.419 0 0 0-.23-.053m0 .309A.349.349 0 0 1 .373.199C.333.176.312.147.312.112c0-.036.02-.065.06-.089a.342.342 0 0 1 .172-.035c.074 0 .131.012.172.035.04.023.06.053.06.089 0 .035-.02.065-.061.087a.35.35 0 0 1-.171.035z"/><path id="s" d="M.762.383V.62h-.22v.066h.22v.168h.073V.383H.762M.571.416A.474.474 0 0 0 .445.5.411.411 0 0 0 .35.615.501.501 0 0 0 .125.392L.073.441C.147.476.206.52.25.575a.28.28 0 0 1 .064.177v.081h.07V.752A.25.25 0 0 1 .455.581.396.396 0 0 1 .62.469L.57.416M.256-.066v.233h.508v.101H.255v.065h.58V.104H.327v-.105h.534v-.065Z"/><clipPath id="c"><path d="M36 36h1116v1602H36Z"/></clipPath><clipPath id="d"><path d="M51 1627.5h540v10.5H51Z"/></clipPath><clipPath id="e"><path d="M51 1654.5v-21c0-1.657.586-3.071 1.757-4.243 1.172-1.171 2.586-1.757 4.243-1.757h528c1.657 0 3.071.586 4.243 1.757 1.171 1.172 1.757 2.586 1.757 4.243v21c0 1.657-.586 3.071-1.757 4.243-1.172 1.171-2.586 1.757-4.243 1.757H57c-1.657 0-3.071-.586-4.243-1.757-1.171-1.172-1.757-2.586-1.757-4.243Z"/></clipPath><clipPath id="n"><path d="M36 36h1116v1602H36Z"/></clipPath><clipPath id="o"><path d="M597 1627.5h540v10.5H597Z"/></clipPath><clipPath id="p"><path d="M597 1654.5v-21c0-1.657.586-3.071 1.757-4.243 1.172-1.171 2.586-1.757 4.243-1.757h528c1.657 0 3.071.586 4.243 1.757 1.171 1.172 1.757 2.586 1.757 4.243v21c0 1.657-.586 3.071-1.757 4.243-1.172 1.171-2.586 1.757-4.243 1.757H603c-1.657 0-3.071-.586-4.243-1.757-1.171-1.172-1.757-2.586-1.757-4.243z"/></clipPath><image id="a" width="1" height="1"/><image id="b" width="1104" height="47"/></defs><g clip-path="url(#c)" transform="translate(-59.25 -36)"><g clip-path="url(#d)"><g fill="#171717" clip-path="url(#e)"><use xlink:href="#f" width="100%" height="100%" transform="matrix(9.75 0 0 -9.75 82.5 1647.375)"/><use xlink:href="#g" width="100%" height="100%" transform="matrix(9.75 0 0 -9.75 91.875 1647.375)"/><use xlink:href="#h" width="100%" height="100%" transform="matrix(9.75 0 0 -9.75 101.25 1647.375)"/><use xlink:href="#i" width="100%" height="100%" transform="matrix(9.75 0 0 -9.75 103.875 1647.375)"/><use xlink:href="#j" width="100%" height="100%" transform="matrix(9.75 0 0 -9.75 108.75 1647.375)"/><use xlink:href="#j" width="100%" height="100%" transform="matrix(9.75 0 0 -9.75 113.625 1647.375)"/><use xlink:href="#j" width="100%" height="100%" transform="matrix(9.75 0 0 -9.75 118.5 1647.375)"/><use xlink:href="#k" width="100%" height="100%" transform="matrix(9.75 0 0 -9.75 123.375 1647.375)"/><use xlink:href="#l" width="100%" height="100%" transform="matrix(9.75 0 0 -9.75 132.75 1647.375)"/><use xlink:href="#m" width="100%" height="100%" transform="matrix(9.75 0 0 -9.75 142.125 1647.375)"/></g></g></g><g clip-path="url(#n)" transform="translate(-59.25 -36)"><g clip-path="url(#o)"><g fill="#171717" clip-path="url(#p)"><use xlink:href="#q" width="100%" height="100%" transform="matrix(9.75 0 0 -9.75 628.5 1647.375)"/><use xlink:href="#r" width="100%" height="100%" transform="matrix(9.75 0 0 -9.75 637.875 1647.375)"/><use xlink:href="#s" width="100%" height="100%" transform="matrix(9.75 0 0 -9.75 647.25 1647.375)"/><use xlink:href="#t" width="100%" height="100%" transform="matrix(9.75 0 0 -9.75 656.625 1647.375)"/><use xlink:href="#u" width="100%" height="100%" transform="matrix(9.75 0 0 -9.75 666 1647.375)"/></g></g></g><path fill="#fff" d="M21.973 0h181.054a21.92 21.92 0 0 1 8.409 1.673 21.921 21.921 0 0 1 7.128 4.763 21.92 21.92 0 0 1 4.763 7.128A21.919 21.919 0 0 1 225 21.973v181.054a21.92 21.92 0 0 1-1.673 8.409 21.922 21.922 0 0 1-4.763 7.128 21.92 21.92 0 0 1-7.128 4.763 21.92 21.92 0 0 1-8.409 1.673H21.973a21.921 21.921 0 0 1-8.409-1.673 21.923 21.923 0 0 1-7.128-4.763 21.92 21.92 0 0 1-4.763-7.128A21.918 21.918 0 0 1 0 203.027V21.973a21.92 21.92 0 0 1 1.673-8.409 21.922 21.922 0 0 1 4.763-7.128 21.921 21.921 0 0 1 7.128-4.763A21.919 21.919 0 0 1 21.973 0Z" style="stroke-width:.219727"/><path fill="#fff" d="M21.973.33h181.054a21.592 21.592 0 0 1 8.283 1.647 21.59 21.59 0 0 1 7.021 4.692 21.591 21.591 0 0 1 4.692 7.021 21.593 21.593 0 0 1 1.647 8.283v181.054a21.592 21.592 0 0 1-1.647 8.283 21.592 21.592 0 0 1-4.692 7.021 21.59 21.59 0 0 1-7.021 4.692 21.593 21.593 0 0 1-8.283 1.647H21.973a21.592 21.592 0 0 1-8.283-1.647 21.592 21.592 0 0 1-7.021-4.692 21.591 21.591 0 0 1-4.692-7.021 21.591 21.591 0 0 1-1.647-8.283V21.973a21.592 21.592 0 0 1 1.647-8.283A21.59 21.59 0 0 1 6.67 6.67a21.591 21.591 0 0 1 7.021-4.692A21.59 21.59 0 0 1 21.973.33Z" style="stroke-width:.219727"/><path fill="none" stroke="#ababab" stroke-width="0.65918" d="M21.973.33h181.054a21.592 21.592 0 0 1 8.283 1.647 21.59 21.59 0 0 1 7.021 4.692 21.591 21.591 0 0 1 4.692 7.021 21.593 21.593 0 0 1 1.647 8.283v181.054a21.592 21.592 0 0 1-1.647 8.283 21.592 21.592 0 0 1-4.692 7.021 21.59 21.59 0 0 1-7.021 4.692 21.593 21.593 0 0 1-8.283 1.647H21.973a21.592 21.592 0 0 1-8.283-1.647 21.592 21.592 0 0 1-7.021-4.692 21.591 21.591 0 0 1-4.692-7.021 21.591 21.591 0 0 1-1.647-8.283V21.973a21.592 21.592 0 0 1 1.647-8.283A21.59 21.59 0 0 1 6.67 6.67a21.591 21.591 0 0 1 7.021-4.692A21.59 21.59 0 0 1 21.973.33Z"/><path fill="#c8ff00" d="M210.938 101.417 14.061 123.263v11.976h196.875Z" style="stroke-width:.219727"/><path fill="#111aff" d="M71.714 139.267h6.366c7.514 0 13.656-6.267 13.656-13.924V99.397c0-7.663-6.149-13.923-13.656-13.923h-6.366c-7.514 0-13.656 6.267-13.656 13.923v25.946c0 7.657 6.149 13.924 13.656 13.924zm-2.283-38.707c0-3.064 2.46-5.576 5.466-5.576 3.006 0 5.466 2.506 5.466 5.576v23.62c0 3.064-2.46 5.576-5.466 5.576-3.006 0-5.466-2.505-5.466-5.576v-23.613zM36.624 139.307c16 0 16.125-10.448 16.15-11.358.027-.91 0-41.89 0-41.89H41.5l-.046 39.922c0 2.665-2.132 3.942-4.764 3.942s-4.764-1.277-4.764-3.942V114.83H21.209v13.751s.125 10.727 15.415 10.727zM190.134 85.474h-6.365c-7.514 0-13.663 6.267-13.663 13.923v25.946c0 7.657 6.149 13.924 13.656 13.924h6.366c7.514 0 13.657-6.267 13.657-13.924V99.397c.007-7.656-6.137-13.923-13.65-13.923zm2.284 38.706c0 3.064-2.46 5.576-5.466 5.576-3.006 0-5.467-2.505-5.467-5.576v-23.613c0-3.064 2.461-5.576 5.467-5.576 3.005 0 5.466 2.505 5.466 5.576zM170.125 138.336l-14.273-26.923 14.018-25.361h-11.747l-13.014 24.53v-24.53h-11.32v52.317h11.32v-24.916l13.158 24.883zM129.464 120.884v-.02c0-.113-.013-.22-.013-.326h.007s.203-7.078-6.609-8.726a9.444 9.444 0 0 0 5.802-8.042v-.16c.013-.186.02-.365.02-.551v-6.101c0-4.407-2.6-8.195-6.333-9.883a10.704 10.704 0 0 0-4.371-.997H96.999V138.41h21.08c.95 0 1.876-.133 2.762-.359.079-.02.164-.04.243-.066.19-.053.387-.106.57-.173 4.529-1.482 7.804-5.802 7.804-10.9v-6.041zm-12.075-18.397c0 2.067-1.752 3.064-3.714 3.702-2.619.844-5.414 1.735-5.414 1.735V93.11h5.44c2.04.08 3.695 1.754 3.695 3.821v5.556zm-9.05 13.724 5.821-1.867c2.94 0 3.977 3.084 3.977 5.303v6.062c0 2.3-1.837 4.16-4.108 4.16h-5.683V116.2z" style="stroke-width:.219727"/></svg>