<svg xmlns="http://www.w3.org/2000/svg" id="_레이어_1" version="1.1" viewBox="0 0 1058.0883703 144.3212891"><defs><style>.st0{fill:#901700;fill-rule:evenodd}.st1{fill:#5c5a5a}</style></defs><path d="M54.433 77.617H0c23.166 1.468 23.538 16.555 23.538 16.555v41.556h48.918V94.172c0-16.555-18.023-16.555-18.023-16.555M399.446 102.995c-3.68 0-7.356-.37-10.667-1.099-16.557-3.314-24.276-18.028-29.425-21.702-4.047-3.314-12.873-2.577-16.181-2.577l-51.127.37h-.372 2.577c4.779.735 19.13 3.308 23.168 13.975.368.735.368 1.47.736 2.21v.363c9.928 29.794 38.63 44.507 72.829 44.507 12.509 0 26.48-2.575 35.681-5.15l-1.11-35.68c-9.185 2.943-16.912 4.783-26.11 4.783M72.456 43.04V8.098H23.538V43.04S23.166 57.753 0 59.225h52.222s20.234 1.103 20.234-16.185" class="st0"/><path d="M106.659 59.225s16.189 0 27.22-16.185l25.013-34.942h-55.537L78.706 48.56s-5.879 9.932-17.283 10.665zM219.948 59.225h44.135s18.766.731 13.616-16.185L265.19 8.098h-66.948l-12.13 34.942s-4.415 15.083-26.484 16.185h46.344s16.553 1.472 22.438-16.185l2.573-7.357h.367l2.577 7.357s6.988 15.083-13.98 16.185M313.38 59.225h37.14c5.893-.363 7.355-.733 15.45-8.092 5.15-5.516 12.513-11.031 23.544-13.24q4.963-1.101 11.035-1.103c7.726 0 18.39 2.942 25.006 6.62 0-2.944 1.11-33.84 1.11-35.68-5.15-1.474-20.603-4.78-34.575-4.78-14.346 0-27.22 2.575-37.882 7.36v-.37c-4.423 2.205-21.706 8.825-33.476 32-8.462 16.922-25.015 17.285-29.058 17.285zM200.826 77.987c-.735 0-1.102-.37-1.845-.37h-45.235c20.225 0 16.185 10.668 16.185 10.668l-1.478 4.04-11.762 33.846-22.445-32c-12.134-17.291-27.955-16.554-27.955-16.554H62.527C72.827 79.825 76.5 88.285 76.5 88.285l27.956 47.443h97.842l11.77-41.926s.363-.739.363-2.21l.368-1.472s2.944-11.768-13.972-12.133M293.512 88.285l16.92 47.443h-51.123l-14.351-47.443s-3.308-10.668-23.169-10.668h48.918s18.394-.37 22.805 10.668" class="st0"/><path d="M473.994 76.407 468.52 65.35c22.898-5.865 35.855-17.146 38.088-30.829H474.44V23.464h47.47c0 26.807-17.535 45.125-47.916 52.943m11.28 2.122h67.799v39.428h-67.798zm53.838 28.26v-17.09H499.46v17.09zm-.336-89.133h14.297v56.74h-14.297zM659.86 107.905h-93.041V95.953h39.093V77.636h-31.386v-11.17h13.627v-29.04h-14.074V26.033h77.962v11.393h-14.296v29.04h13.85v11.17h-31.498v18.317h39.763zM623.67 66.467V37.426H602.45v29.04zM747.66 29.942c.056 7.484.056 16.084-2.067 27.03h13.124v11.393h-39.539v14.632h28.594v36.189h-14.297v-25.02H675.06V82.997h29.822V68.365h-39.205V56.973h65.51c1.897-9.55 2.177-16.978 2.29-23.68h-56.407V22.012h70.59zM782.962 44.798v-5.474H766.32V27.932h45.795v11.392H796.7v5.474c-.056 16.865 5.25 33.955 20.105 42.443l-8.378 10.5c-9.102-5.362-15.022-14.409-18.485-25.355-3.462 11.84-9.606 21.892-18.932 27.589l-8.6-10.5c14.966-9.214 20.551-27.42 20.551-44.677m21.892 7.595h13.404V19.22h13.403v95.275h-13.403V63.897h-13.404zm47.582 66.793h-13.515V17.544h13.515zM863.614 62.893h34.625v-17.76h14.073v17.76h43.562v11.503h-92.26zm81.872 37.193c-.112 12.008-14.073 19.156-36.3 19.1-22.06.056-36.246-7.092-36.19-19.1-.056-12.174 14.13-19.211 36.19-19.211 22.227 0 36.188 7.037 36.3 19.21M874 22.124h70.926v8.265c.056 8.098.056 16.81-2.904 27.254l-13.962-1.341c2.29-9.215 2.57-16.084 2.68-23.009h-56.74zm35.184 86.228c14.018 0 22.115-2.792 22.115-8.266 0-5.64-8.097-8.656-22.115-8.6-14.018-.056-22.06 2.96-22.004 8.6-.056 5.474 7.986 8.266 22.004 8.266M962.247 27.262h23.12V16.986h14.185v10.276h23.01v11.057h-60.315zm30.157 14.52c14.8.056 25.02 7.484 25.02 18.318 0 10.946-10.22 18.206-25.02 18.206-14.911 0-25.242-7.26-25.242-18.206 0-10.834 10.275-18.262 25.242-18.318m17.313 41.215c20.887.056 34.234 6.758 34.29 18.206-.056 11.17-13.403 18.04-34.29 17.983-21.39.056-34.513-6.813-34.402-17.983-.111-11.448 13.013-18.15 34.402-18.206m-17.313-15.302c6.869.056 11.505-2.569 11.505-7.595 0-5.082-4.636-7.874-11.505-7.93-6.814.056-11.337 2.848-11.28 7.93-.057 5.026 4.466 7.651 11.28 7.595m17.313 40.88c12.956 0 19.993-2.625 19.993-7.372 0-5.082-7.037-7.315-19.993-7.372-13.347.057-20.384 2.29-20.329 7.372-.055 4.747 6.982 7.372 20.33 7.372m33.173-65.006h13.738v11.84h-13.738v26.695h-14.297v-64.56h14.297z" class="st1"/></svg>