<svg xmlns="http://www.w3.org/2000/svg" xml:space="preserve" width="571.38092" height="139.54662" overflow="hidden"><path fill="#512a75" d="M478.806 87.318a30.2 30.2 0 0 1-5.232-8.122c-3.075-7.157-6.055-14.356-9.072-21.534-1.165-2.779-2.315-5.559-3.491-8.375a33.2 33.2 0 0 0 6.508-5.074c6.245-6.371 8.296-14.113 7.226-22.789-1.12-9.093-6.33-14.926-14.736-18.106-4.911-1.862-10.053-2.268-15.242-2.273H406.25a2 2 0 0 0-.085.342v.691c2.52 2.11 3.444 5.005 3.96 8.096.337 2.243.483 4.51.439 6.777v57.045a41 41 0 0 1-.274 5.992c-.464 3.227-1.055 6.402-3.692 8.797-.048.39-.137.717.058 1.007h24.994v-1.018c-1.677-1.297-2.437-3.164-3.022-5.147a25.2 25.2 0 0 1-.918-6.92c-.063-5.068-.032-10.137-.037-15.211 0-.195 0-.39.042-.606l18.048-5.48c.127.306.243.58.354.855 2.109 5.379 4.277 10.753 6.366 16.154 1.118 2.885 2.505 5.675 3.069 8.755.527 2.843.132 5.443-2.041 7.558a.8.8 0 0 0-.106.185c-.063.299-.032.61.09.891h26.967a1.66 1.66 0 0 0-.058-1.055 6.8 6.8 0 0 1-1.598-1.435m-21.587-59.913c-.491 5.321-3.692 8.491-8.207 10.685-5.021 2.426-10.422 3.644-15.754 5.1-1.824.496-3.655.976-5.537 1.477V16.714c6.487.153 12.884-.206 19.276.206 1.802.113 3.565.575 5.19 1.36 3.798 1.873 5.422 4.911 5.032 9.125M61.418 8.734c.786 3.038.854 6.134.854 9.235v56.038a48.5 48.5 0 0 1-.285 6.191c-.422 3.218-1.15 6.303-3.655 8.65a1.7 1.7 0 0 0 0 .949h25.026c.074-.364.048-.74-.074-1.091a7.4 7.4 0 0 1-1.9-2.484c-1.486-3.001-1.934-6.245-1.95-9.494-.063-14.678-.037-29.356-.042-44.028 0-.148-.08-.338.179-.448l31.518 26.987c-.18 6.746.28 13.486-.295 20.211-.295 3.454-.97 6.819-3.692 9.351-.094.313-.081.649.037.954h24.968v-.965c-1.704-1.519-2.553-3.481-3.086-5.617a38.4 38.4 0 0 1-.87-9.24V18.797a67 67 0 0 1 .3-7.689c.38-3.355 1.056-6.609 3.693-9.051 0-.3.089-.601-.085-.896h-24.962v.944a9.8 9.8 0 0 1 2.71 4.282 26 26 0 0 1 1.187 8.022c.074 7.706.048 15.411.058 23.117 0 .184.085.395-.158.606l-.527-.411c-6.213-5.311-12.442-10.596-18.623-15.933-3.692-3.165-7.526-6.182-11.013-9.583-2.942-2.875-3.46-6.018-1.766-9.763.247-.373.3-.842.142-1.26h-21.25a1.64 1.64 0 0 0 0 1.055c1.978 1.682 2.917 4.008 3.56 6.497M570.32 69.787a8.7 8.7 0 0 1-3.17 2.3c-2.75 1.125-5.7 1.7-8.68 1.693-9.27.221-18.54.053-27.82.095-.19 0-.39 0-.63-.042V49.904c.19-.042.34-.084.53-.106 4.47-.591 8.99-.632 13.47-.121 3.13.343 6.19 1.134 8.32 3.692.33.073.67.053.99-.058V28.338a1.67 1.67 0 0 0-1.06 0c-1.28 1.677-3.13 2.479-5.11 3.043-2.49.631-5.06.915-7.63.844-3.16 0-6.33.106-9.49-.501V17.115c.31 0 .57-.042.83-.042h24.62c2.27-.047 4.54.115 6.78.485 2.89.527 5.65 1.334 7.65 3.76.3-.031.63.095.92-.079V.111c-3.1.614-6.25.938-9.41.965-3.13.064-6.27.037-9.4.037h-43.395a1.77 1.77 0 0 0 0 1.118c1.76 1.329 2.579 3.275 3.244 5.332.986 3.065 1.054 6.24 1.054 9.399q.058 27.72 0 55.441c0 2.004-.037 4.009-.19 6.002-.305 3.914-1.054 7.679-4.161 10.475v.975h50.958c2.6 0 5.2.095 7.8.327 1.35.116 2.63.496 4.04.66V69.745c-.35-.095-.72-.08-1.06.042m-256.86-56.1c-3.285-4.99-7.952-8.154-13.516-10.1-5.712-1.999-11.635-2.537-17.626-2.542h-34.72c0 .211-.053.337-.058.469s0 .396 0 .612c2.015 1.582 2.964 3.75 3.57 6.112.637 2.834.915 5.737.829 8.639V72.91a50 50 0 0 1-.217 6.492c-.443 3.465-1.002 6.893-3.728 9.383v1.007h25.637c0-.232.032-.396.032-.559a3 3 0 0 0-.042-.385c-2.495-1.973-3.566-4.689-4.061-7.684-.834-5.037-.407-10.116-.47-15.179 0-.053.069-.106.137-.216.369-.111.786-.238 1.197-.354 6.145-1.788 12.337-3.412 18.349-5.622 5.675-2.078 11.208-4.467 16.16-8.011 4.952-3.545 8.76-7.912 10.738-13.713a32.6 32.6 0 0 0 1.46-13.518 23.1 23.1 0 0 0-3.67-10.864M299.46 29.831c-.474 4.662-3.048 7.995-6.856 10.506a40.5 40.5 0 0 1-8.528 4.114c-4.858 1.772-9.894 2.895-14.973 4.446V16.856q.15-.063.31-.084c5.802.063 11.604-.232 17.405.179a17 17 0 0 1 7.42 2.168c4.115 2.394 5.697 6.081 5.222 10.712m-94.07 14.224c-3.511-3.423-7.741-5.886-11.728-8.671-2.38-1.661-4.747-3.338-6.741-5.479-2.637-2.854-3.027-6.857-.85-9.905a8.92 8.92 0 0 1 6.23-3.618c5.654-.828 10.696.527 15.063 4.383.305.075.627.051.918-.069V0c-2.28.718-4.531.654-6.804.475-6.772-.527-13.465-.164-19.905 2.252-4.746 1.772-8.686 4.589-11.603 8.824a21.77 21.77 0 0 0-3.644 11.075c-.527 7.975 2.215 14.615 8.01 20.074 3.572 3.364 7.749 5.88 11.747 8.649 2.748 1.899 5.459 3.845 7.658 6.392 5.242 6.071 2.769 14.467-4.921 16.677-3.623 1.055-7.268.754-10.87-.179-3.512-.913-6.408-2.901-8.934-5.417h-1.06v20.116a63.2 63.2 0 0 0 12.61 1.608c6.377.259 12.658-.216 18.686-2.547a24.14 24.14 0 0 0 11.508-9.098c3.967-5.844 4.805-12.336 3.64-19.15-1.082-6.313-4.526-11.324-9.01-15.696m164.459-34.25c.48-2.896 1.239-5.659 3.528-7.727 0-.332.137-.664-.126-.975h-24.847c-.12.341-.12.713 0 1.054a9.55 9.55 0 0 1 2.495 3.861c1.097 2.98 1.355 6.092 1.355 9.23v58.136a49 49 0 0 1-.211 6.187c-.427 3.391-1.007 6.73-3.692 9.198-.094.327-.075.676.053.991h24.978v-.949c-1.84-1.651-2.7-3.787-3.233-6.092a36.6 36.6 0 0 1-.754-8.232V16.471c-.033-2.231.118-4.46.454-6.666M21.883 82.793a37.7 37.7 0 0 1-.765-8.438V18.628c-.072-2.464.009-4.93.243-7.383.422-3.397 1.055-6.73 3.734-9.188.072-.323.035-.66-.106-.96H.122c-.117.34-.128.708-.032 1.055a9.36 9.36 0 0 1 2.495 3.819c1.123 3.016 1.377 6.16 1.377 9.335v58.426c.068 2.499-.075 5-.428 7.474-.48 2.816-1.207 5.527-3.454 7.542-.124.345-.103.725.058 1.055h24.899c.127-.34.127-.715 0-1.055-1.751-1.588-2.632-3.666-3.154-5.955m256.21 37.415c-1.634 4.636-3.27 9.193-4.566 13.892-1.192-4.747-2.738-9.314-4.288-13.897h-4.59l-1.265 18.986h3.276c.258-5.137.527-10.221.77-15.295 1.276 5.127 2.932 10.127 4.53 15.153.896.05 1.794.02 2.685-.09 1.64-5.063 3.475-10.02 5.01-15.105.106 5.143.433 10.243.686 15.343h3.375c-.37-6.356-.728-12.658-1.092-18.987zm-29.814 14.024c-2.294-4.942-5.37-9.393-8.032-14.029h-3.966v18.986h3.164c-.026-4.862.069-9.662 0-14.493 2.453 5.079 5.543 9.752 8.312 14.509h3.529v-18.987h-3.117c-.032 4.673-.127 9.336.11 14.014m82.656.274c-2.273-5.047-5.39-9.594-8.122-14.314h-3.94v18.955h3.107V124.86c2.537 4.963 5.58 9.577 8.3 14.282h3.65v-18.939h-3.211c-.01 4.804-.121 9.546.216 14.303m-9.024-9.868s-.052-.042-.052-.063.037-.037.052-.058c.016-.021.053.042.053.063s-.037.058-.053.058m-236.137 9.573c-2.326-4.911-5.348-9.378-8.038-14.019h-3.93v18.987h3.165c0-4.921.095-9.763-.105-14.625 2.494 5.084 5.558 9.81 8.359 14.609h3.56v-18.966H85.62c-.027 4.705-.064 9.357.153 14.014m379.17-14.188c-3.437-.675-6.481.222-8.727 3.07s-2.67 6.171-1.867 9.62c.733 3.164 2.584 5.469 5.764 6.392s6.282.448 8.834-1.888c2.237-2.052 2.89-4.747 2.964-7.674a9.5 9.5 0 0 0-.453-3.344c-1.018-3.254-3.112-5.511-6.514-6.176m1.784 14.768c-2.077 2.74-6.287 2.433-7.943-.58a8.6 8.6 0 0 1-1.102-4.494c.089-2.342.49-4.578 2.463-6.165a4.7 4.7 0 0 1 6.165.527c2.342 2.621 2.548 7.943.417 10.722zM157.1 130.176c.422-.227.69-.359.944-.527a4.75 4.75 0 0 0 2.51-4.162c.027-1.898-.622-3.496-2.41-4.472a8.9 8.9 0 0 0-4.135-.981 25 25 0 0 0-6.165.39v18.718h3.438v-7.727c3.597-.253 4.378.312 5.2 3.666.069.29.127.591.212.875.327 1.097.458 2.263 1.054 3.228h3.476c-.607-1.746-.976-3.497-1.424-5.227-.411-1.545-1.065-2.942-2.7-3.781m-.027-4.109a2.894 2.894 0 0 1-2.373 2.595 13.6 13.6 0 0 1-3.476.174v-6.002a7.4 7.4 0 0 1 4.367.248c1.129.501 1.625 1.619 1.482 2.985m236.454 4.098.697-.395a4.84 4.84 0 0 0 2.637-4.947 4.47 4.47 0 0 0-3.165-4.167c-3.117-1.081-6.297-.617-9.493-.285v18.803h3.412v-7.68c3.217-.527 4.404.248 5.164 3.244a30 30 0 0 0 1.255 4.446h3.486c-.427-1.608-.875-3.133-1.224-4.678-.4-1.777-1.054-3.354-2.77-4.341m-.084-4.008a3.035 3.035 0 0 1-2.278 2.489c-1.16.22-2.342.286-3.518.196v-5.992a6.8 6.8 0 0 1 4.383.259c1.07.474 1.582 1.74 1.418 3.048zm99.296 4.014.606-.317c2.02-1.097 3-2.779 2.785-5.079a4.625 4.625 0 0 0-3.491-4.219c-2.342-.744-4.747-.554-7.126-.374-.706.058-1.466-.043-2.11.363v18.629h3.476v-7.806h1.583c1.845.053 2.742.707 3.28 2.468.264.855.422 1.735.67 2.595s.4 1.936.88 2.721h3.508c-.443-1.181-.665-2.315-.965-3.428-.55-2.094-.807-4.367-3.096-5.553m-.058-3.951a2.95 2.95 0 0 1-2.152 2.384c-1.155.38-2.358.222-3.692.238v-6.002c1.667-.28 3.275-.454 4.747.495a2.64 2.64 0 0 1 1.097 2.885m-294.217-6.023-6.075 18.987h3.597c.527-1.798 1.054-3.544 1.582-5.306h6.09c.576 1.767 1.162 3.571 1.73 5.332h3.725l-6.176-18.986zm-.211 10.886c.776-2.674 1.678-5.237 2.332-7.911.669 2.637 1.65 5.19 2.42 7.911zm101.037 5.227v-5.533h7.083v-2.858h-7.115v-4.9h7.489v-2.827h-10.975v18.987h11.487c.08-.958.055-1.922-.074-2.875zm-245.088-5.564h7.104v-2.764h-7.1v-5.016h7.506v-2.758H50.748v18.987h11.366v-2.869h-7.911zm74.038.01h7.12v-2.8h-7.12v-4.979h7.478v-2.774h-10.991v18.955h11.492v-2.832h-7.98zm284.053-.01h7.104c.092-.93.092-1.866 0-2.796h-7.073v-4.957h7.479v-2.79h-11.012v18.955h11.413v-2.806h-7.911zm26.507-2.5c-1.054-.491-2.283-.76-3.164-1.614-1.266-1.203-1.055-2.801.527-3.571a4.3 4.3 0 0 1 2.036-.39c1.236.079 2.45.358 3.597.828.274-.902.528-1.751.823-2.743-2.547-1.054-5.037-1.292-7.563-.416-2.11.728-3.45 2.204-3.692 4.477-.243 2.274.912 3.777 2.732 4.916a26 26 0 0 0 3.444 1.556c1.055.453 2.067.986 2.268 2.294.253 1.661-.87 2.874-2.885 3.027a9.67 9.67 0 0 1-5.132-1.16 15 15 0 0 0-.717 2.906c3.1 1.303 6.165 1.582 9.245.259 2.986-1.282 4.004-5.275 2.11-7.912-.965-1.255-2.294-1.846-3.63-2.457m-268.04-8.107v2.917h5.474v16.112h3.428v-16.112h5.417v-2.906h-14.32zm335.634 2.943h5.405v16.128h3.48v-16.202h5.423v-2.816h-14.308zm-161.684 0h5.385v16.076h3.497v-16.102h5.437v-2.806h-14.32zm-245.061-.026h5.385v16.133h3.438v-16.191h5.475v-2.801H99.65Zm120.693 16.123h3.359v-18.987h-3.36z"/><path fill="#512a75" d="M321.859 124.564s.03.042.052.064c.02.021.053-.037.053-.058s-.032-.043-.053-.064-.047.037-.052.058"/></svg>