<svg width="43" height="42" viewBox="0 0 43 42" fill="none" xmlns="http://www.w3.org/2000/svg">
<rect width="43" height="42" fill="white"/>
<path fill-rule="evenodd" clip-rule="evenodd" d="M19.7252 3.51537C17.9104 3.72564 16.1459 4.19173 14.5187 4.89058C10.8625 6.46089 7.62663 9.5147 5.84184 13.0792C3.55916 17.6382 3.32935 22.7517 5.19429 27.4874C6.85872 31.7141 10.2957 35.2738 14.467 37.0913C16.717 38.0717 19.0025 38.5499 21.4509 38.5526C23.4619 38.5549 25.0164 38.3148 26.8475 37.7192C30.7094 36.4631 33.8018 34.1269 36.1118 30.7203C39.044 26.3963 39.8517 20.6267 38.2196 15.6655C37.2702 12.7801 35.7497 10.3449 33.6399 8.33108C30.9263 5.74084 27.6219 4.1387 23.8578 3.58817C22.8203 3.43647 20.7248 3.39953 19.7252 3.51537ZM24.1059 3.80375C28.6583 4.56182 32.4225 6.77823 35.2321 10.355C37.8048 13.6303 39.1291 17.9774 38.8294 22.1627C38.646 24.7233 38.0326 26.8781 36.8431 29.1402C34.4025 33.7815 29.8545 37.136 24.7146 38.0859C21.5057 38.679 18.0618 38.3565 15.165 37.1918C9.33875 34.8492 5.34359 29.8455 4.31823 23.6069C4.15823 22.6337 4.10279 20.5212 4.20778 19.3979C4.51004 16.1626 5.69419 13.1161 7.67848 10.4687C8.2843 9.66051 10.0162 7.88748 10.6407 7.43619C10.8777 7.26495 11.0878 7.10247 11.1075 7.07523C11.188 6.96406 12.3397 6.21822 13.0263 5.83261C13.43 5.60589 14.1086 5.27324 14.5344 5.09345C14.9603 4.91365 15.4095 4.72128 15.5329 4.66609C16.2491 4.3453 18.4075 3.84234 19.6534 3.70595C20.5504 3.60772 23.2898 3.66794 24.1059 3.80375ZM21.1037 12.7561C20.3565 12.9142 19.8561 13.3212 19.5178 14.0461C19.36 14.3842 19.3322 14.5427 19.3343 15.0913C19.3372 15.8531 19.5295 16.3674 19.9721 16.7975C20.4616 17.2732 20.8026 17.3902 21.7001 17.3906C22.3912 17.3908 22.5305 17.3697 22.8132 17.2215C23.6011 16.8084 23.9711 16.2078 24.0191 15.264C24.0772 14.1223 23.7248 13.4165 22.8819 12.9865C22.3687 12.7246 21.6766 12.635 21.1037 12.7561ZM8.4145 12.8996C8.32718 13.041 8.46456 13.1152 8.81372 13.1152H9.16855V15.0876V17.06L8.79153 17.0818C8.51389 17.0977 8.4145 17.1319 8.4145 17.2112C8.4145 17.3028 8.59792 17.319 9.63434 17.319C10.7241 17.319 10.8567 17.306 10.8777 17.1972C10.897 17.0971 10.8332 17.0715 10.5196 17.0534L10.138 17.0316L10.1178 16.2686L10.0975 15.5055L11.0514 15.4701C12.1332 15.4301 12.4903 15.325 12.8194 14.9499C13.4053 14.2822 12.9959 13.1386 12.0892 12.9101C11.6744 12.8057 8.4782 12.7965 8.4145 12.8996ZM13.1901 12.9677C13.1901 13.0858 13.2488 13.1111 13.5672 13.1294L13.9442 13.1511V15.0913V17.0316L13.5626 17.0534C13.249 17.0715 13.1853 17.0971 13.2046 17.1972C13.2254 17.3055 13.3516 17.319 14.3392 17.319C15.3403 17.319 15.4527 17.3066 15.4745 17.1933C15.4944 17.0902 15.4461 17.0675 15.2062 17.0675H14.9137V16.0974V15.1273H16.0627H17.2117V16.0974V17.0675H16.8833C16.6092 17.0675 16.5589 17.0883 16.579 17.1933C16.6006 17.3057 16.7232 17.3211 17.7333 17.3388C18.8268 17.358 18.8634 17.3539 18.8634 17.213C18.8634 17.0864 18.8171 17.0675 18.5044 17.0675H18.1453V15.0913V13.1152H18.5044C18.8171 13.1152 18.8634 13.0963 18.8634 12.9696C18.8634 12.8288 18.8268 12.8247 17.7333 12.8439C16.7232 12.8616 16.6006 12.877 16.579 12.9894C16.5589 13.0944 16.6092 13.1152 16.8833 13.1152H17.2117V13.9775V14.8398H16.0627H14.9137V13.9775V13.1152H15.2009C15.4403 13.1152 15.4882 13.0912 15.4882 12.9714C15.4882 12.8337 15.4403 12.8277 14.3392 12.8277C13.2483 12.8277 13.1901 12.8348 13.1901 12.9677ZM24.441 12.8757C24.3169 12.9999 24.4071 13.1152 24.6285 13.1152C24.7579 13.1152 24.9357 13.1655 25.0234 13.2271C25.1807 13.3372 25.1831 13.364 25.1831 15.0268V16.7148L25.0068 16.8911C24.8846 17.0134 24.7508 17.0675 24.5706 17.0675C24.3618 17.0675 24.3156 17.0922 24.335 17.1933C24.3566 17.3053 24.4606 17.319 25.2908 17.319C26.121 17.319 26.225 17.3053 26.2466 17.1933C26.2659 17.093 26.2203 17.0675 26.0222 17.0675C25.8854 17.0675 25.7044 17.011 25.6199 16.9418C25.4703 16.8193 25.4667 16.7751 25.4862 15.2535L25.5062 13.6911L26.0438 14.3193C27.9191 16.5108 28.7354 17.4268 28.8133 17.4268C28.8621 17.4268 28.9216 17.3757 28.9456 17.3131C28.9696 17.2506 28.9892 16.334 28.9892 15.2762C28.9892 13.5043 28.9996 13.3437 29.1206 13.2341C29.1928 13.1687 29.3544 13.1152 29.4796 13.1152C29.6606 13.1152 29.7074 13.0852 29.7074 12.9692C29.7074 12.8294 29.6705 12.8241 28.8285 12.8435C28.0704 12.8608 27.9465 12.8803 27.9264 12.985C27.908 13.0812 27.9673 13.1111 28.2123 13.1287C28.6741 13.1621 28.7094 13.2845 28.6857 14.7678L28.6661 15.9986L27.3444 14.4131L26.0227 12.8277H25.2558C24.834 12.8277 24.4673 12.8493 24.441 12.8757ZM30.0425 12.8757C30.0162 12.902 29.9946 12.9666 29.9946 13.0194C29.9946 13.0876 30.1083 13.1152 30.3896 13.1152H30.7846V15.0913V17.0675H30.3844C30.0418 17.0675 29.9876 17.0856 30.0083 17.1933C30.0307 17.3098 30.1973 17.319 32.2937 17.319H34.5548L34.5757 16.5286C34.5985 15.6667 34.5606 15.3889 34.4265 15.4333C34.3731 15.451 34.3228 15.6831 34.2965 16.0327C34.2502 16.6472 34.1561 16.8697 33.891 16.9906C33.7967 17.0335 33.2796 17.0675 32.7202 17.0675H31.7182V16.0974V15.1273H32.2168C32.8929 15.1273 33.0901 15.2861 33.1385 15.8697C33.1618 16.1512 33.2028 16.2771 33.2711 16.2771C33.3511 16.2771 33.3699 16.0446 33.3699 15.0554C33.3699 14.0733 33.3507 13.8338 33.2722 13.8338C33.2064 13.8338 33.161 13.9651 33.133 14.2358C33.0785 14.7652 32.9795 14.8347 32.2747 14.8375L31.7182 14.8398V13.9775V13.1152H32.6843C33.2182 13.1152 33.7259 13.1496 33.8192 13.1921C34.0818 13.3118 34.1808 13.5385 34.2171 14.1033C34.2413 14.4799 34.2777 14.6242 34.3488 14.6242C34.4268 14.6242 34.4471 14.4382 34.4471 13.726V12.8277H32.2688C31.0706 12.8277 30.0688 12.8493 30.0425 12.8757ZM22.4076 13.2099C22.5469 13.3163 22.7487 13.5857 22.8609 13.8153C23.047 14.1962 23.0631 14.2945 23.0626 15.0554C23.0621 15.7684 23.0389 15.9337 22.8926 16.2596C22.4661 17.2108 21.5392 17.4551 20.8569 16.796C20.4469 16.4 20.3356 16.0286 20.3356 15.0554C20.3356 14.3437 20.3588 14.1776 20.503 13.8588C20.7899 13.2244 21.1976 12.9484 21.7847 12.9912C22.0478 13.0104 22.2299 13.0743 22.4076 13.2099ZM11.6428 13.2169C12.1052 13.4102 12.2997 14.0148 12.0826 14.5836C11.9014 15.0585 11.7065 15.153 10.8382 15.1868L10.1021 15.2154V14.1653V13.1152H10.7508C11.1479 13.1152 11.4938 13.1546 11.6428 13.2169ZM22.4475 20.4684C21.6258 20.9025 21.3143 21.9736 21.7334 22.9242C21.9871 23.4997 22.5937 23.8544 23.3127 23.8478C23.8776 23.8427 24.2494 23.6757 24.6267 23.2579C25.3855 22.4174 25.0879 20.9104 24.07 20.4378C23.6388 20.2376 22.8565 20.2524 22.4475 20.4684ZM17.858 21.0918C17.858 21.6187 17.878 21.7385 17.9658 21.7385C18.0473 21.7385 18.0735 21.6503 18.0735 21.376C18.0735 20.8703 18.283 20.6606 18.7884 20.6606H19.1507V22.0978V23.535H18.8634C18.6535 23.535 18.5762 23.5646 18.5762 23.6449C18.5762 23.739 18.7124 23.7519 19.5218 23.7347C20.1998 23.7204 20.476 23.6892 20.4973 23.6249C20.5183 23.5617 20.4293 23.535 20.198 23.535H19.8688V22.0978V20.6606H20.2501C20.7795 20.6606 20.8989 20.7673 20.9446 21.2818C20.9735 21.6059 21.0105 21.7066 21.1076 21.7251C21.2199 21.7465 21.2333 21.6792 21.2333 21.097V20.445H19.5457H17.858V21.0918ZM23.8947 20.8001C24.4702 21.4055 24.4672 22.7586 23.8892 23.3374C23.6537 23.5732 23.5774 23.6069 23.279 23.6069C22.9849 23.6069 22.9065 23.5736 22.7104 23.3656C22.4209 23.0584 22.3103 22.6851 22.3112 22.0176C22.3125 21.0729 22.6896 20.5265 23.345 20.5197C23.5799 20.5174 23.6691 20.5629 23.8947 20.8001ZM17.9658 25.6431C17.085 25.9359 16.6167 26.4873 16.4137 27.4705C16.242 28.3022 16.6075 29.3102 17.2492 29.775C17.7571 30.1428 18.1269 30.2385 18.914 30.206C19.5244 30.1808 19.6681 30.1492 20.0005 29.9673C20.4551 29.7185 20.6882 29.4594 20.9388 28.9246C21.0962 28.5887 21.1235 28.4322 21.1206 27.8826C21.1165 27.1256 20.9583 26.6863 20.5296 26.2416C20.0856 25.7811 19.6484 25.6016 18.8994 25.5726C18.4886 25.5567 18.1483 25.5824 17.9658 25.6431ZM23.3518 25.6435C22.649 25.8761 22.2458 26.2226 21.9595 26.8402C21.7228 27.3508 21.6998 28.2488 21.9081 28.8486C22.2093 29.7155 23.0289 30.2181 24.1418 30.2181C24.9034 30.2181 25.3982 30.0453 25.8131 29.6342C26.3233 29.1286 26.4401 28.8015 26.4382 27.8826C26.4367 27.169 26.4181 27.0572 26.2471 26.7329C25.84 25.9606 25.2308 25.6061 24.2495 25.5706C23.8766 25.5571 23.5273 25.5855 23.3518 25.6435ZM12.4061 25.6909C11.4139 25.7165 11.0033 25.7517 10.983 25.8129C10.9635 25.8717 11.0869 25.9059 11.3721 25.9207L11.7898 25.9424V27.8826V29.8229L11.3948 29.8588C11.1075 29.885 10.9998 29.9241 10.9998 30.0025C10.9998 30.0957 11.2671 30.1103 12.9747 30.1103C14.9001 30.1103 14.9573 30.1062 15.2602 29.9444C15.4671 29.8339 15.605 29.6967 15.6732 29.5335C15.7989 29.2324 15.8039 28.7335 15.6836 28.4956C15.5757 28.2822 15.1684 27.9952 14.8957 27.9403C14.6344 27.8877 14.6452 27.8034 14.9204 27.7483C15.0426 27.7239 15.2526 27.5938 15.3872 27.4591C15.6064 27.2398 15.6318 27.1731 15.6318 26.8174C15.6318 26.4941 15.597 26.3791 15.4437 26.1968C15.0349 25.7106 14.58 25.6349 12.4061 25.6909ZM26.8348 25.7987C26.8348 25.8801 26.9226 25.9065 27.1939 25.9065H27.5529V27.8826V29.8588H27.1939C26.8827 29.8588 26.8348 29.878 26.8348 30.0025C26.8348 30.1404 26.8827 30.1463 28.0197 30.1463C29.1568 30.1463 29.2047 30.1404 29.2047 30.0025C29.2047 29.878 29.1568 29.8588 28.8456 29.8588H28.4865V29.2634V28.6681L28.8995 28.1906C29.1266 27.9278 29.3285 27.7109 29.3483 27.7084C29.3802 27.7044 30.6413 29.6549 30.7008 29.8003C30.714 29.8324 30.5766 29.8588 30.3956 29.8588C30.1143 29.8588 30.0664 29.8797 30.0664 30.0025C30.0664 30.1401 30.1143 30.1463 31.1795 30.1463C32.2448 30.1463 32.2927 30.1401 32.2927 30.0025C32.2927 29.8907 32.2448 29.8588 32.0772 29.8588C31.9587 29.8588 31.8098 29.8022 31.7462 29.7331C31.6197 29.5953 30.7358 28.239 30.2709 27.4691L29.9778 26.9838L30.2384 26.6655C30.5505 26.2844 31.1074 26.0007 31.6746 25.934C31.9434 25.9024 32.0772 25.8541 32.0772 25.7887C32.0772 25.71 31.8389 25.6909 30.8564 25.6909C29.8396 25.6909 29.6355 25.7083 29.6355 25.7947C29.6355 25.8676 29.7371 25.9051 29.976 25.9205C30.2096 25.9355 30.3227 25.9762 30.3364 26.0502C30.3473 26.1095 30.0729 26.4819 29.7266 26.8779C29.3803 27.2738 28.9593 27.7589 28.791 27.9558L28.4851 28.3138L28.5038 27.1281L28.5224 25.9424L28.8995 25.9207C29.1707 25.905 29.2765 25.8697 29.2765 25.7949C29.2765 25.7082 29.0734 25.6909 28.0556 25.6909C27.0184 25.6909 26.8348 25.707 26.8348 25.7987ZM19.1992 25.8712C19.7889 26.1177 20.0848 26.6965 20.1379 27.7077C20.197 28.832 19.9154 29.5312 19.2754 29.8489C19.0061 29.9826 18.8684 30.0089 18.6269 29.9726C18.1332 29.8985 17.8992 29.7086 17.6318 29.1649C17.402 28.6978 17.3914 28.6403 17.3947 27.884C17.3976 27.2219 17.4249 27.0319 17.5611 26.7244C17.911 25.9342 18.5518 25.6005 19.1992 25.8712ZM24.46 25.8332C25.2232 26.0522 25.6696 27.1725 25.4887 28.4144C25.3822 29.1454 25.0954 29.6404 24.6545 29.8539C24.2751 30.0378 24.0147 30.0395 23.6221 29.8612C23.0121 29.5841 22.6987 28.7921 22.7571 27.6751C22.8063 26.7339 23.1263 26.1163 23.6922 25.8702C23.9737 25.7478 24.1352 25.7399 24.46 25.8332ZM14.0653 25.9808C14.4477 26.0871 14.6982 26.4149 14.6982 26.8091C14.6982 27.429 14.2111 27.703 13.1086 27.703H12.6874V26.8526C12.6874 26.3849 12.709 25.9807 12.7353 25.9544C12.8099 25.8797 13.7702 25.8988 14.0653 25.9808ZM14.3188 28.1104C14.6394 28.2626 14.8416 28.592 14.8406 28.9606C14.8386 29.6455 14.5025 29.8585 13.4235 29.8587L12.6874 29.8588V28.9246V27.9904H13.3768C13.8719 27.9904 14.1373 28.0242 14.3188 28.1104Z" fill="#252525"/>
</svg>
