<svg width="72" height="42" viewBox="0 0 72 42" fill="none" xmlns="http://www.w3.org/2000/svg">
<rect width="72" height="42" fill="white"/>
<path fill-rule="evenodd" clip-rule="evenodd" d="M17.5042 4.78507C17.5042 4.84775 17.5636 4.95401 17.6362 5.02127C17.7613 5.13703 17.7682 5.17343 17.7682 5.71095C17.7682 6.34401 17.5773 11.6523 17.5322 12.2711C17.4937 12.8004 17.4152 13.068 17.2887 13.101C17.2245 13.1178 17.1873 13.1736 17.1873 13.2533C17.1873 13.3788 17.1885 13.379 17.8211 13.379H18.4548V13.2471C18.4548 13.1645 18.4249 13.1152 18.3748 13.1152C18.3308 13.1152 18.2478 13.0381 18.1902 12.9438C18.1057 12.8053 18.0852 12.6759 18.0839 12.2711C18.0815 11.5619 18.2487 6.66853 18.2785 6.57304C18.2921 6.52951 18.5952 7.20615 18.9521 8.07668C19.309 8.94722 19.6597 9.79005 19.7315 9.94965C19.8033 10.1092 20.1573 10.9694 20.5184 11.861L21.1748 13.4822L21.3861 13.4827L21.5973 13.4833L21.9889 12.5475C22.2042 12.0327 22.6504 10.9587 22.9805 10.1607C23.3105 9.3627 23.6138 8.63857 23.6543 8.55152C23.7716 8.30007 24.6675 6.13724 24.7105 6.00176C24.732 5.93438 24.7601 5.8898 24.7731 5.90278C24.786 5.91576 24.8186 6.56449 24.8455 7.34443C24.9819 11.3119 25.0128 12.5557 24.9801 12.7732C24.9546 12.9434 24.9075 13.0358 24.8157 13.0959C24.7449 13.1422 24.687 13.2249 24.687 13.2796C24.687 13.3736 24.7432 13.379 25.7169 13.379H26.7468V13.2598C26.7468 13.1943 26.7012 13.1122 26.6455 13.0774C26.5829 13.0384 26.522 12.9072 26.4864 12.7349C26.4309 12.4667 26.1018 5.46377 26.1389 5.34052C26.1489 5.30749 26.1713 5.21511 26.1889 5.13534C26.2064 5.05557 26.2559 4.99025 26.2989 4.99025C26.3508 4.99025 26.3771 4.93644 26.3771 4.8306V4.67095L25.5725 4.68551L24.7678 4.70007L23.9721 6.6258C23.5344 7.68494 23.0077 8.95513 22.8016 9.44843C22.5954 9.94173 22.3151 10.6184 22.1787 10.9521C22.0423 11.2858 21.9136 11.5769 21.8928 11.599C21.8719 11.6212 21.7051 11.2413 21.5221 10.7549C21.0734 9.56239 20.2554 7.4097 20.2136 7.31167C20.1951 7.26814 19.9626 6.66273 19.6969 5.9663L19.2138 4.70007L18.359 4.68556C17.5138 4.67127 17.5042 4.67237 17.5042 4.78507ZM27.4862 4.83197C27.4862 4.93258 27.5132 4.99025 27.5603 4.99025C27.7365 4.99025 27.7503 5.28512 27.7503 9.0359C27.7503 12.1592 27.7382 12.7783 27.6738 12.9322C27.6317 13.0329 27.5723 13.1152 27.5417 13.1152C27.5112 13.1152 27.4862 13.1748 27.4862 13.2476V13.38L30.2959 13.3663L33.1057 13.3526L33.1711 13.0097C33.2959 12.3559 33.2476 12.2534 32.9234 12.4841C32.4102 12.8492 31.8258 12.9569 30.36 12.9569H29.2291V10.9739V8.9909L30.3514 9.01074C31.2884 9.02731 31.5108 9.04646 31.6982 9.12655C31.8217 9.1793 31.9227 9.24362 31.9227 9.26952C31.9227 9.29538 31.994 9.31653 32.0811 9.31653H32.2396V8.76256C32.2396 8.22921 32.2353 8.20858 32.1249 8.20858C32.0619 8.20858 31.9703 8.24472 31.9214 8.28883C31.752 8.44204 31.1464 8.52324 30.1666 8.52424L29.2291 8.52514V6.81045V5.09577L30.1666 5.09741C31.5741 5.09983 32.1132 5.19221 32.6299 5.51954C32.7658 5.60564 32.9237 5.67612 32.9808 5.67612C33.0768 5.67612 33.0846 5.63798 33.0846 5.17491V4.67369H30.2854H27.4862V4.83197ZM34.0881 4.82248C34.0881 4.93174 34.1184 4.98587 34.1901 5.0046C34.3966 5.05852 34.4084 5.29974 34.3932 9.14264C34.378 12.9769 34.3698 13.1152 34.1588 13.1152C34.1186 13.1152 34.0881 13.1721 34.0881 13.2471V13.379H35.118C36.1274 13.379 36.1479 13.3768 36.1479 13.2687C36.1479 13.2081 36.0972 13.1175 36.0354 13.0675C35.8661 12.9306 35.8377 12.6219 35.8342 10.8861L35.831 9.31653H36.2955H36.76L36.9482 9.56714C37.0517 9.705 37.4086 10.1976 37.7414 10.6619C38.8471 12.2047 39.4051 12.935 39.6026 13.0976C39.8763 13.3229 40.1126 13.379 40.7886 13.379H41.3766V13.2471C41.3766 13.1332 41.353 13.1152 41.2027 13.1152C40.971 13.1152 40.7755 12.9054 39.9488 11.7699C39.5898 11.2765 39.1036 10.6118 38.8686 10.2926C38.1521 9.31965 38.1047 9.24942 38.1334 9.20305C38.1486 9.17841 38.1961 9.15825 38.2389 9.15825C38.4088 9.15825 38.9922 8.9288 39.3177 8.73396C40.106 8.26203 40.498 7.4041 40.3194 6.54112C40.1411 5.67903 39.5353 5.10015 38.4943 4.79715C38.2278 4.71954 37.8774 4.70313 36.1347 4.68651L34.0881 4.66699V4.82248ZM41.7991 4.8039C41.7991 4.87919 41.8357 4.9548 41.8803 4.97194C42.1092 5.05968 42.116 5.1766 42.116 9.03174C42.116 12.2711 42.1062 12.7154 42.031 12.9031C41.9843 13.0198 41.913 13.1152 41.8726 13.1152C41.8294 13.1152 41.7991 13.1696 41.7991 13.2471V13.379H42.829H43.8589V13.2471C43.8589 13.1721 43.8284 13.1152 43.7882 13.1152C43.5975 13.1152 43.5695 12.8717 43.5523 11.0708L43.5356 9.31653H44.0092H44.4827L44.8706 9.85589C45.084 10.1526 45.2942 10.4474 45.3377 10.5112C46.1802 11.7447 47.1628 12.9968 47.4416 13.1922C47.6647 13.3486 47.6885 13.3531 48.379 13.371L49.0876 13.3894V13.2523C49.0876 13.1322 49.0658 13.1152 48.912 13.1152C48.6459 13.1152 48.5768 13.036 47.2807 11.2423C47.071 10.9521 46.6547 10.3838 46.3556 9.9793C46.0565 9.57484 45.8299 9.2279 45.852 9.20827C45.8742 9.18864 46.0111 9.14412 46.1564 9.10924C46.92 8.92601 47.5945 8.41255 47.8938 7.78651C48.0415 7.47739 48.0577 7.39419 48.0577 6.94235C48.0577 6.4911 48.0414 6.40669 47.8937 6.09551C47.6865 5.65871 47.2989 5.27294 46.8451 5.05187C46.1544 4.71548 46.0926 4.70793 43.8457 4.68651L41.7991 4.66699V4.8039ZM48.1193 4.70888C48.0423 4.78586 48.0908 4.94266 48.2052 4.98608C48.3971 5.05894 48.7342 5.5954 50.0829 7.9738L51.0418 9.6648V11.207C51.0418 12.4345 51.0261 12.7866 50.9652 12.9322C50.9231 13.0329 50.8637 13.1152 50.8332 13.1152C50.8027 13.1152 50.7777 13.1746 50.7777 13.2471V13.379H51.7812H52.7847V13.2471C52.7847 13.1746 52.7597 13.1152 52.7291 13.1152C52.6986 13.1152 52.6392 13.0329 52.5971 12.9322C52.5353 12.7845 52.5206 12.3999 52.5206 10.9347V9.12021L52.8812 8.57204C53.0794 8.27058 53.4753 7.65593 53.7608 7.20615C54.6424 5.81768 54.8587 5.50033 55.1006 5.24086C55.2291 5.103 55.3666 4.99025 55.4062 4.99025C55.451 4.99025 55.4782 4.93042 55.4782 4.83197V4.67369H54.9765H54.4747V4.82759C54.4747 4.91222 54.5028 4.99083 54.5372 5.00228C54.6423 5.03726 54.3179 5.65201 53.5901 6.79742C53.2168 7.38495 52.7462 8.13182 52.5443 8.45719C52.3424 8.7825 52.1521 9.04962 52.1212 9.05073C52.0584 9.053 50.4193 5.74202 50.2676 5.30644C50.1932 5.09255 50.1858 5.02154 50.2363 5.00418C50.2727 4.99168 50.3023 4.91222 50.3023 4.82759V4.67369H49.2285C48.6378 4.67369 48.1387 4.68952 48.1193 4.70888ZM37.8116 5.10115C38.0743 5.17269 38.5039 5.59852 38.6857 5.96752C38.8029 6.2053 38.8151 6.29484 38.8151 6.91597C38.8151 7.53796 38.803 7.62643 38.6851 7.86565C38.5106 8.21993 38.1902 8.55716 37.8665 8.7271C37.6147 8.85932 37.5524 8.86792 36.7157 8.88512L35.831 8.90337V6.97317V5.04301L36.7157 5.04333C37.2022 5.04349 37.6954 5.06949 37.8116 5.10115ZM45.5037 5.10426C45.7518 5.1785 46.0927 5.46092 46.2669 5.73664C46.5598 6.20019 46.6404 7.07547 46.4464 7.68864C46.3244 8.07473 46.1219 8.36327 45.8146 8.58898C45.4746 8.83879 45.2033 8.89446 44.3258 8.89446H43.542V6.96873V5.04301H44.4205C44.9345 5.04301 45.3839 5.06844 45.5037 5.10426ZM30.6774 16.5165C29.4186 16.8366 28.5942 17.4184 28.0051 18.4028C27.5417 19.1771 27.3133 20.3487 27.4276 21.3641C27.56 22.5396 27.8943 23.2812 28.6217 24.014C29.1661 24.5622 29.6305 24.8342 30.42 25.0672C31.3334 25.3367 32.8029 25.2904 33.9701 24.9554C34.4719 24.8113 35.0912 24.5434 35.1554 24.4426C35.1775 24.4078 35.196 23.7716 35.1964 23.0287C35.1972 21.6709 35.2341 21.3457 35.3873 21.3457C35.4343 21.3457 35.4613 21.288 35.4613 21.1874V21.0292H34.5106H33.56V21.1813C33.56 21.2849 33.5911 21.3415 33.6576 21.3589C33.8314 21.4043 33.8768 21.7833 33.8768 23.1878V24.5083L33.5996 24.5873C32.9552 24.7708 31.9341 24.8598 31.4209 24.7771C31.0269 24.7136 30.5533 24.4978 30.2129 24.2265C29.7336 23.8447 29.2875 23.0014 29.0938 22.1107C28.9672 21.5286 28.9642 20.2208 29.0881 19.5938C29.3539 18.2484 30.0184 17.3559 31.0512 16.9571C31.3215 16.8528 31.4574 16.8357 31.9755 16.8408C32.8962 16.8499 33.4592 17.0326 34.0909 17.5275C34.2522 17.6539 34.4542 17.8536 34.5398 17.9714C34.8763 18.4342 34.892 18.4497 35.0052 18.4336C35.1077 18.419 35.1194 18.3802 35.1334 18.0089L35.1488 17.6002L34.9017 17.3602C34.0832 16.5656 32.0678 16.163 30.6774 16.5165ZM39.2146 16.5212C37.9684 16.8376 37.0497 17.5553 36.5184 18.6272C36.1621 19.3461 36.0779 19.7554 36.0732 20.7917C36.0697 21.5644 36.0856 21.7507 36.1886 22.1371C36.6315 23.7994 37.8596 24.9235 39.5281 25.1936C40.0752 25.2821 40.9718 25.2612 41.5258 25.147C42.1053 25.0275 42.8387 24.688 43.2882 24.3311C43.8962 23.8483 44.4377 22.9508 44.6594 22.058C44.8249 21.3918 44.8272 20.253 44.6643 19.5995C44.2628 17.988 43.1643 16.8953 41.5668 16.5183C40.803 16.338 39.9318 16.339 39.2146 16.5212ZM41.2102 16.9625C42.1451 17.308 42.8253 18.2313 43.0891 19.5126C43.3578 20.8175 43.1838 22.368 42.6561 23.3711C42.1147 24.4002 41.115 24.9427 40.0508 24.7849C38.5616 24.5641 37.6262 23.0358 37.6269 20.8244C37.6275 18.9649 38.2624 17.6147 39.3906 17.0734C39.626 16.9605 39.8898 16.8567 39.977 16.8427C40.2764 16.7949 40.928 16.8582 41.2102 16.9625ZM15.6284 28.2176C15.6152 28.2539 15.3908 28.889 15.1295 29.629C14.8684 30.3689 14.5216 31.3423 14.359 31.7921C14.1964 32.2419 13.793 33.3744 13.4626 34.3087C13.1323 35.2431 12.8021 36.134 12.729 36.2886C12.5785 36.6063 12.4137 36.8043 12.2998 36.8043C12.2493 36.8043 12.2227 36.8589 12.2227 36.9625V37.1208H12.8564H13.4902V36.9687C13.4902 36.8609 13.4594 36.8085 13.3846 36.789C13.2115 36.7437 13.252 36.4815 13.5797 35.5248C13.8091 34.8555 13.9074 34.6331 13.985 34.6086C14.0414 34.5907 14.4463 34.4052 14.8848 34.1965C16.5274 33.4143 16.6615 33.3562 16.7089 33.4051C16.7555 33.4533 17.6337 35.6627 17.8274 36.219C17.9356 36.5298 17.9574 36.8043 17.8739 36.8043C17.8448 36.8043 17.8211 36.8755 17.8211 36.9625V37.1208H18.9038H19.9865V36.9682C19.9865 36.8514 19.957 36.8083 19.8602 36.784C19.6789 36.7386 19.4576 36.362 19.1127 35.5116C18.9479 35.1054 18.6517 34.3931 18.4545 33.9289C18.2572 33.4646 17.8286 32.4318 17.502 31.6338C17.1753 30.8358 16.8441 30.0405 16.7658 29.8664C16.6876 29.6923 16.4958 29.2353 16.3397 28.8508L16.0559 28.1517H15.8541C15.7407 28.1517 15.6419 28.1805 15.6284 28.2176ZM30.7344 28.3857C29.5194 28.6619 28.6346 29.252 28.0377 30.1842C27.0294 31.7588 27.1614 34.3056 28.3251 35.7291C28.807 36.3185 29.6338 36.8298 30.4439 37.0392C30.8991 37.1569 32.0498 37.2039 32.5531 37.1253C34.4127 36.8351 35.7113 35.5384 36.0451 33.6387C36.1376 33.1125 36.1134 32.1591 35.9931 31.5866C35.7974 30.6553 35.1986 29.6909 34.4943 29.1724C34.074 28.8629 33.6969 28.6745 33.1374 28.4943C32.7437 28.3675 32.5878 28.3475 31.8699 28.3317C31.3078 28.3193 30.9519 28.3362 30.7344 28.3857ZM20.4618 28.511C20.4618 28.6183 20.4922 28.6749 20.5594 28.6925C20.7625 28.7455 20.7787 29.0443 20.7787 32.7418C20.7787 36.4392 20.7625 36.738 20.5594 36.7911C20.493 36.8084 20.4618 36.8651 20.4618 36.9687V37.1208H21.4917H22.5216V36.9625C22.5216 36.8559 22.4954 36.8043 22.4411 36.8043C22.2632 36.8043 22.2349 36.5471 22.2159 34.7598L22.1971 33.0056H22.6461C22.9546 33.0056 23.1168 33.0279 23.1648 33.0772C23.2032 33.1166 23.3891 33.3664 23.5779 33.6325C23.7667 33.8985 24.0044 34.2313 24.1061 34.3719C25.269 35.9809 25.5529 36.3519 25.8516 36.6527C26.2581 37.062 26.4344 37.1208 27.2547 37.1208H27.7573L27.7406 36.9764C27.7264 36.854 27.693 36.8269 27.5221 36.7994C27.2732 36.7593 27.172 36.6519 26.4639 35.6767C26.1662 35.2667 25.8002 34.7651 25.6504 34.562C24.9585 33.623 24.4713 32.9401 24.486 32.9299C24.4949 32.9237 24.7072 32.8533 24.9579 32.7733C25.4769 32.6078 25.973 32.3063 26.2408 31.9938C26.8927 31.233 26.8934 30.0439 26.2424 29.3205C25.9321 28.9758 25.5777 28.7553 25.0163 28.5575L24.555 28.3949L22.5084 28.375L20.4618 28.3551V28.511ZM36.8169 28.3979C36.7393 28.4754 36.7845 28.6677 36.8867 28.6944C37.1119 28.7533 37.1214 28.8745 37.1535 32.0823C37.1863 35.3643 37.1793 35.2819 37.4766 35.8709C37.7611 36.4344 38.3922 36.8863 39.1584 37.0755C39.6087 37.1867 41.1501 37.1696 41.5879 37.0485C42.5996 36.7689 43.1725 36.1524 43.335 35.1687C43.3614 35.0091 43.3831 33.6011 43.3833 32.0397C43.3836 29.0709 43.405 28.7442 43.6029 28.6925C43.6693 28.6751 43.7005 28.6185 43.7005 28.5148V28.3627H43.1459H42.5913V28.521C42.5913 28.6288 42.6174 28.6793 42.6733 28.6793C42.7183 28.6793 42.7956 28.7683 42.8449 28.8771C42.925 29.0536 42.9363 29.3709 42.9501 31.8169C42.9602 33.5992 42.9456 34.6876 42.9084 34.9268C42.7689 35.825 42.3126 36.3038 41.3903 36.5199C40.8763 36.6403 39.9119 36.6015 39.5652 36.4464C39.0827 36.2307 38.8491 35.9617 38.6645 35.4094C38.5641 35.1089 38.5564 34.9278 38.5366 32.4162C38.5137 29.5107 38.5477 28.8774 38.7349 28.7236C38.7935 28.6754 38.8415 28.5745 38.8415 28.4994V28.3627H37.8468C37.2997 28.3627 36.8362 28.3786 36.8169 28.3979ZM44.2814 28.5148C44.2814 28.6205 44.3124 28.6751 44.3829 28.6935C44.5846 28.7462 44.5977 28.9935 44.5977 32.7418C44.5977 36.4901 44.5846 36.7374 44.3829 36.7901C44.3124 36.8085 44.2814 36.863 44.2814 36.9687V37.1208H44.8624H45.4434V36.9687C45.4434 36.8627 45.4124 36.8085 45.3414 36.7899C45.1388 36.737 45.1251 36.4815 45.1393 33.0155L45.1529 29.6895L47.709 33.5107L50.2651 37.3318H50.6781H51.091L51.106 33.1243C51.1216 28.7593 51.1256 28.6793 51.3341 28.6793C51.3851 28.6793 51.4115 28.6246 51.4115 28.5192V28.3591L50.8437 28.3741L50.2759 28.3891L50.2599 28.5273C50.2482 28.6285 50.2718 28.6728 50.3482 28.6927C50.55 28.7455 50.5658 29.0002 50.5651 32.1878L50.5644 35.2478L48.2812 31.8069L45.9979 28.366L45.1397 28.3644L44.2814 28.3627V28.5148ZM52.0315 28.3941C51.9522 28.4732 51.9927 28.667 52.0939 28.6935C52.1569 28.7099 52.2169 28.7974 52.2521 28.9239C52.329 29.2006 52.3307 36.2768 52.2539 36.553C52.2238 36.6615 52.1526 36.7751 52.0957 36.8055C52.0349 36.838 51.9924 36.9157 51.9924 36.9944V37.128L54.1975 37.1083C56.2656 37.0897 56.4282 37.0813 56.8167 36.9737C58.2732 36.5699 59.1991 35.6034 59.6343 34.0325C59.7617 33.5726 59.7798 33.4143 59.7788 32.7681C59.7779 32.167 59.7559 31.9528 59.6605 31.6171C59.4043 30.7153 59.0959 30.1702 58.5198 29.6016C58.0711 29.1587 57.3264 28.7596 56.5345 28.5377C56.0398 28.3991 56.0053 28.3969 54.0516 28.3761C52.9621 28.3645 52.053 28.3726 52.0315 28.3941ZM24.3778 28.9025C24.6803 29.0801 24.8738 29.3039 25.052 29.6817C25.1764 29.9456 25.1888 30.0317 25.1888 30.6314C25.1888 31.2055 25.1732 31.3245 25.0689 31.5505C24.8739 31.973 24.6161 32.2432 24.2247 32.4358C23.8769 32.6069 23.8562 32.6102 23.0377 32.6286L22.2047 32.6473V30.6855V28.7237L23.1686 28.7411C24.1084 28.758 24.1386 28.762 24.3778 28.9025ZM32.1928 28.7855C32.9227 28.9228 33.645 29.5259 34.0244 30.3148C34.4151 31.1274 34.4833 31.4946 34.4801 32.7681C34.4769 34.0575 34.4138 34.3831 34.0068 35.209C33.462 36.3143 32.4777 36.8703 31.3594 36.7042C30.0024 36.5026 29.1516 35.2986 28.9644 33.3148C28.82 31.7854 29.2459 30.2507 30.0301 29.4746C30.6416 28.8694 31.3828 28.6332 32.1928 28.7855ZM55.6955 28.7843C55.8519 28.813 56.1959 28.9427 56.46 29.0725C57.3062 29.4886 57.8129 30.1366 58.1533 31.2381C58.2933 31.6912 58.3 31.7612 58.2985 32.7681C58.2971 33.7382 58.2858 33.8648 58.1586 34.3362C57.906 35.2723 57.4699 35.9609 56.8832 36.3499C56.3574 36.6986 56.2671 36.7167 54.9369 36.7395L53.7353 36.7601V32.7461V28.732H54.5732C55.0339 28.732 55.539 28.7555 55.6955 28.7843ZM15.8426 31.1924C16.0668 31.7621 16.2826 32.2904 16.3223 32.3663C16.405 32.5246 16.416 32.6362 16.3488 32.6362C16.3234 32.6362 15.8303 32.8955 15.253 33.2123C14.6757 33.5291 14.1968 33.7818 14.1889 33.7739C14.1809 33.7659 14.3789 33.1684 14.6288 32.446C14.8787 31.7236 15.1578 30.913 15.2489 30.6446C15.34 30.3762 15.4192 30.1566 15.4248 30.1566C15.4304 30.1566 15.6184 30.6227 15.8426 31.1924Z" fill="#252525"/>
</svg>
