<svg width="72" height="42" viewBox="0 0 72 42" fill="none" xmlns="http://www.w3.org/2000/svg">
<rect width="72" height="42" fill="white"/>
<path d="M69.4315 24.1834V24.3355L66.5988 24.3355L61.4468 17.5295L60.3822 18.7462L60.3822 24.0314L62.0361 24.1834V24.3355L57.3594 24.3355V24.1834L58.9183 24.0314L58.9183 11.522L57.3594 11.3699V11.2178L62.0361 11.2178V11.3699L60.3822 11.522L60.3822 18.404L65.5532 12.4345C65.756 12.1937 65.8574 11.9972 65.8574 11.8451C65.8574 11.7184 65.756 11.6233 65.5532 11.56C65.3631 11.4966 64.9702 11.4332 64.3745 11.3699V11.2178L68.2528 11.2178V11.3699C67.5177 11.4966 67.0171 11.617 66.7509 11.7311C66.4974 11.8451 66.2249 12.0669 65.9334 12.3965L62.4544 16.3888L67.9486 23.5751C68.1641 23.8159 68.3605 23.9807 68.538 24.0694C68.7281 24.1454 69.0006 24.1834 69.3555 24.1834H69.4315Z" fill="#252525"/>
<path d="M50.5321 10.6289L50.5321 24.0318L51.6918 24.1839V24.336L48.1367 24.336V24.1839L49.2964 24.0318L49.2964 11.9217L48.1747 11.5034V11.3703L50.38 10.6289H50.5321Z" fill="#252525"/>
<path d="M46.2978 10.6289L46.2978 24.0318L47.4574 24.1839V24.336L43.9023 24.336V24.1839L45.062 24.0318L45.062 11.9217L43.9404 11.5034V11.3703L46.1457 10.6289H46.2978Z" fill="#252525"/>
<path d="M42.73 22.1686L42.806 22.2066L42.73 22.4157C42.4765 23.0874 42.0963 23.6071 41.5893 23.9746C41.095 24.3422 40.4993 24.526 39.8022 24.526C39.1178 24.526 38.5095 24.3485 37.9772 23.9936C37.4448 23.6388 37.0266 23.1445 36.7224 22.5108C36.4309 21.8771 36.2852 21.1483 36.2852 20.3245C36.2852 19.5006 36.4436 18.7655 36.7604 18.1192C37.0773 17.4728 37.5272 16.9722 38.1102 16.6173C38.6932 16.2624 39.3586 16.085 40.1064 16.085C40.9936 16.085 41.6717 16.3511 42.1406 16.8834C42.6222 17.4031 42.8694 18.1635 42.8821 19.1648L42.768 19.2598L37.635 19.2598C37.6096 19.5894 37.5969 19.8492 37.5969 20.0393C37.5969 21.1926 37.8314 22.0735 38.3003 22.6819C38.7693 23.2775 39.422 23.5754 40.2585 23.5754C40.6894 23.5754 41.1013 23.4803 41.4942 23.2902C41.8998 23.0874 42.2547 22.7896 42.5589 22.3967L42.73 22.1686ZM39.8973 16.2941C39.3016 16.2941 38.8073 16.5412 38.4144 17.0355C38.0215 17.5298 37.768 18.2015 37.654 19.0507L41.3421 18.9176C41.3802 18.7655 41.3992 18.5121 41.3992 18.1572C41.3992 17.4728 41.2661 16.9912 40.9999 16.7123C40.7465 16.4335 40.3789 16.2941 39.8973 16.2941Z" fill="#252525"/>
<path d="M32.6599 12.7007C32.4952 12.8655 32.4128 13.081 32.4128 13.3471C32.4128 13.6133 32.4952 13.8351 32.6599 14.0125C32.8374 14.1773 33.0592 14.2596 33.3253 14.2596C33.5915 14.2596 33.8069 14.1773 33.9717 14.0125C34.1492 13.8351 34.2379 13.6133 34.2379 13.3471C34.2379 13.081 34.1492 12.8655 33.9717 12.7007C33.8069 12.5233 33.5915 12.4346 33.3253 12.4346C33.0592 12.4346 32.8374 12.5233 32.6599 12.7007ZM34.0478 16.0847L34.0478 24.0314L35.2074 24.1835V24.3356L31.6523 24.3356V24.1835L32.812 24.0314L32.812 17.3775L31.6904 16.9592V16.8262L33.8957 16.0847H34.0478Z" fill="#252525"/>
<path d="M30.8748 24.1838V24.3358L27.3387 24.3358V24.1838L28.4984 24.0317L28.4984 19.1838C28.4984 18.6895 28.4857 18.322 28.4604 18.0811C28.4351 17.8403 28.3844 17.6375 28.3083 17.4728C28.2069 17.2573 28.0358 17.0926 27.795 16.9785C27.5669 16.8517 27.3007 16.7884 26.9965 16.7884C26.3502 16.7884 25.7735 17.0609 25.2665 17.6059L25.2665 24.0317L26.4262 24.1838V24.3358L22.8711 24.3358V24.1838L24.0308 24.0317L24.0308 17.4728L22.9091 17.0545V16.9215L25.0574 16.18H25.2095L25.2095 17.3777C26.0206 16.5159 26.8698 16.085 27.757 16.085C28.1499 16.085 28.5048 16.1737 28.8216 16.3511C29.1511 16.5159 29.3856 16.7377 29.525 17.0165C29.6137 17.1813 29.6708 17.4094 29.6961 17.7009C29.7215 17.9797 29.7342 18.474 29.7342 19.1838L29.7342 24.0317L30.8748 24.1838Z" fill="#252525"/>
<path d="M17.443 24.4685C16.9614 24.4685 16.5622 24.3037 16.2453 23.9742C15.9412 23.632 15.7891 23.1947 15.7891 22.6624C15.7891 22.0287 16.0742 21.5217 16.6446 21.1415C17.2276 20.7613 18.2098 20.4317 19.5913 20.1529L19.5913 18.4229C19.5913 17.6878 19.5089 17.1808 19.3442 16.902C19.1794 16.6105 18.8942 16.4647 18.4887 16.4647C18.0958 16.4647 17.7789 16.5725 17.5381 16.7879C17.2973 16.9907 17.1769 17.2695 17.1769 17.6244L17.1959 18.1377C17.1959 18.4546 17.1325 18.7081 17.0058 18.8982C16.8917 19.0756 16.727 19.1643 16.5115 19.1643C16.3214 19.1643 16.163 19.101 16.0362 18.9742C15.9221 18.8475 15.8651 18.6827 15.8651 18.4799C15.8651 18.1757 16.0109 17.8462 16.3024 17.4913C16.6065 17.1238 16.9931 16.8196 17.4621 16.5788C18.0324 16.2619 18.6217 16.1035 19.2301 16.1035C19.585 16.1035 19.8828 16.1732 20.1236 16.3126C20.3771 16.4521 20.5609 16.6485 20.675 16.902C20.7383 17.0668 20.7763 17.2695 20.789 17.5103C20.8144 17.7512 20.827 18.2138 20.827 18.8982L20.827 22.5293C20.827 22.9856 20.8714 23.3024 20.9601 23.4799C21.0488 23.6446 21.2073 23.727 21.4354 23.727C21.7776 23.727 22.0311 23.6066 22.1959 23.3658L22.2719 23.4038C22.1198 23.7207 21.917 23.9678 21.6635 24.1453C21.4101 24.31 21.1376 24.3924 20.8461 24.3924C20.5165 24.3924 20.244 24.2974 20.0286 24.1073C19.8131 23.9045 19.6927 23.6383 19.6674 23.3088L19.6103 23.2898C19.3188 23.6573 18.983 23.9488 18.6027 24.1643C18.2225 24.3671 17.8359 24.4685 17.443 24.4685ZM18.2605 23.746C18.5267 23.746 18.7738 23.689 19.002 23.5749C19.2428 23.4482 19.4392 23.2708 19.5913 23.0426L19.5913 20.362C18.9323 20.5268 18.419 20.6916 18.0514 20.8563C17.6965 21.0211 17.443 21.2175 17.291 21.4457C17.1389 21.6738 17.0628 21.959 17.0628 22.3012C17.0628 22.7448 17.1705 23.0997 17.386 23.3658C17.6015 23.6193 17.893 23.746 18.2605 23.746Z" fill="#252525"/>
<path d="M11.6728 12.2254C12.4459 12.7704 13.0479 13.5181 13.4789 14.4687C13.9098 15.4193 14.1252 16.4966 14.1252 17.7006C14.1252 18.9047 13.9098 20.001 13.4789 20.9896C13.0479 21.9781 12.4459 22.7513 11.6728 23.3089C11.1785 23.6638 10.6082 23.9236 9.96178 24.0884C9.32807 24.2532 8.54861 24.3355 7.6234 24.3355L2.56641 24.3355L2.56641 24.1834L4.12533 24.0314L4.12533 11.522L2.56641 11.3699L2.56641 11.2178L7.6234 11.2178C9.34708 11.2178 10.6969 11.5536 11.6728 12.2254ZM10.9884 22.9857C11.394 22.4661 11.7108 21.731 11.939 20.7804C12.1798 19.8172 12.3002 18.7589 12.3002 17.6056C12.3002 16.4776 12.1861 15.4826 11.958 14.6208C11.7425 13.7589 11.4193 13.0745 10.9884 12.5676C10.6335 12.1493 10.1963 11.8578 9.67661 11.6931C9.15697 11.5283 8.41553 11.4459 7.4523 11.4459L5.58919 11.4459L5.58919 24.1074H7.4523C8.46623 24.1074 9.22668 24.025 9.73365 23.8603C10.2406 23.6955 10.6589 23.404 10.9884 22.9857Z" fill="#252525"/>
<path d="M60.2436 27.3887L60.2436 30.8734L62.2348 30.8734L62.2625 31.3159L59.9394 31.3159C59.8288 31.3159 59.7734 31.2606 59.7734 31.1499L59.7734 27.3887H60.2436Z" fill="#252525"/>
<path d="M57.5052 31.3712C57.2249 31.3712 56.9705 31.3066 56.7418 31.1776C56.5132 31.0485 56.3344 30.8697 56.2053 30.6411C56.0762 30.4124 56.0117 30.158 56.0117 29.8777L56.0117 27.3887H56.4819L56.4819 29.8777C56.4819 30.0842 56.5261 30.2686 56.6146 30.4309C56.7031 30.5894 56.8248 30.713 56.9797 30.8015C57.1383 30.8863 57.3134 30.9287 57.5052 30.9287C57.6969 30.9287 57.8702 30.8863 58.0251 30.8015C58.1837 30.713 58.3072 30.5894 58.3957 30.4309C58.4842 30.2686 58.5284 30.0842 58.5284 29.8777L58.5284 27.3887H58.9986L58.9986 29.9054C58.9986 30.1856 58.9341 30.4382 58.805 30.6632C58.6759 30.8844 58.4971 31.0577 58.2685 31.1831C58.0435 31.3085 57.7891 31.3712 57.5052 31.3712Z" fill="#252525"/>
<path d="M53.4639 31.3708C53.0915 31.3708 52.7522 31.2823 52.4462 31.1053C52.1438 30.9246 51.9059 30.6813 51.7326 30.3752C51.5593 30.0654 51.4727 29.7244 51.4727 29.3519C51.4727 28.9795 51.5575 28.6402 51.7271 28.3342C51.8967 28.0244 52.1309 27.781 52.4296 27.604C52.7283 27.4234 53.0638 27.333 53.4363 27.333C53.8087 27.333 54.1461 27.4234 54.4485 27.604C54.7545 27.781 54.9942 28.0244 55.1675 28.3342C55.3409 28.6402 55.4275 28.9795 55.4275 29.3519C55.4275 29.7244 55.3409 30.0654 55.1675 30.3752C54.9942 30.6813 54.7564 30.9246 54.454 31.1053C54.1553 31.2823 53.8253 31.3708 53.4639 31.3708ZM53.4363 30.9283C53.7202 30.9283 53.9746 30.8601 54.1996 30.7237C54.4282 30.5872 54.607 30.3992 54.7361 30.1595C54.8652 29.9198 54.9297 29.6506 54.9297 29.3519C54.9297 29.0532 54.8652 28.784 54.7361 28.5444C54.607 28.3047 54.4282 28.1166 54.1996 27.9802C53.9746 27.8437 53.7202 27.7755 53.4363 27.7755C53.156 27.7755 52.9034 27.8437 52.6785 27.9802C52.4572 28.1129 52.2839 28.2991 52.1585 28.5388C52.0332 28.7785 51.9705 29.0495 51.9705 29.3519C51.9705 29.6543 52.0332 29.9253 52.1585 30.165C52.2839 30.4047 52.4572 30.5928 52.6785 30.7292C52.9034 30.862 53.156 30.9283 53.4363 30.9283Z" fill="#252525"/>
<path d="M51.0294 27.3887V27.8312L48.8998 27.8312V29.1034L50.8911 29.1034V29.5182L48.8998 29.5182V30.8734L51.057 30.8734L51.0847 31.3159L48.5956 31.3159C48.485 31.3159 48.4297 31.2606 48.4297 31.1499L48.4297 27.3887L51.0294 27.3887Z" fill="#252525"/>
<path d="M46.4925 31.3708C45.8841 31.3708 45.4139 31.1496 45.082 30.7071L45.4416 30.4029C45.5817 30.5872 45.7347 30.7218 45.9007 30.8066C46.0703 30.8878 46.2768 30.9283 46.5202 30.9283C46.7598 30.9283 46.9534 30.8749 47.1009 30.7679C47.2484 30.661 47.3222 30.5116 47.3222 30.3199C47.3222 30.1687 47.2835 30.0433 47.206 29.9438C47.1286 29.8442 47.0309 29.7668 46.9129 29.7114C46.7949 29.6524 46.6363 29.5879 46.4372 29.5179C46.1975 29.4257 46.0076 29.3409 45.8675 29.2634C45.7273 29.186 45.6075 29.0754 45.5079 28.9315C45.4084 28.784 45.3586 28.5923 45.3586 28.3563C45.3586 28.0429 45.4692 27.7939 45.6905 27.6096C45.9154 27.4252 46.2104 27.333 46.5755 27.333C46.8299 27.333 47.0604 27.3828 47.2669 27.4824C47.4734 27.5782 47.6485 27.7128 47.7923 27.8861L47.4605 28.218C47.3351 28.0668 47.2005 27.9562 47.0567 27.8861C46.9166 27.8124 46.7562 27.7755 46.5755 27.7755C46.3505 27.7755 46.1735 27.8234 46.0445 27.9193C45.9191 28.0152 45.8564 28.1516 45.8564 28.3286C45.8564 28.4688 45.8933 28.5868 45.967 28.6826C46.0408 28.7748 46.133 28.8504 46.2436 28.9094C46.3579 28.9647 46.5146 29.0293 46.7138 29.103C46.9498 29.1878 47.1415 29.2708 47.289 29.3519C47.4365 29.4294 47.5619 29.5455 47.6651 29.7004C47.7684 29.8516 47.82 30.0489 47.82 30.2922C47.82 30.6352 47.702 30.9007 47.466 31.0887C47.2337 31.2768 46.9092 31.3708 46.4925 31.3708Z" fill="#252525"/>
<path d="M39.6056 27.3887L41.1544 29.9054L42.7031 27.3887H42.8967C43.0073 27.3887 43.0627 27.444 43.0627 27.5546L43.0627 31.3159H42.5648L42.5648 28.412L41.3203 30.4585H40.9884L39.7162 28.412L39.7162 31.3159H39.2461L39.2461 27.3887H39.6056Z" fill="#252525"/>
<path d="M37.1439 27.3887L38.7203 31.3159H38.1948L37.8077 30.3202L36.0377 30.3202L35.6505 31.3159H35.125L36.7291 27.3887H37.1439ZM36.9227 28.0524L36.2036 29.9054L37.6417 29.9054L36.9227 28.0524Z" fill="#252525"/>
<path d="M33.0436 27.3887C33.416 27.3887 33.7553 27.4735 34.0613 27.6431C34.3711 27.8127 34.6145 28.0469 34.7915 28.3456C34.9722 28.6443 35.0625 28.9798 35.0625 29.3523C35.0625 29.7247 34.9758 30.0603 34.8025 30.359C34.6292 30.6576 34.3895 30.8918 34.0835 31.0614C33.7811 31.2311 33.4437 31.3159 33.0713 31.3159L31.7714 31.3159C31.6608 31.3159 31.6055 31.2606 31.6055 31.1499L31.6055 27.3887L33.0436 27.3887ZM32.0756 30.8734L33.0436 30.8734C33.3349 30.8734 33.5967 30.8107 33.829 30.6853C34.0613 30.5562 34.242 30.3774 34.3711 30.1488C34.5002 29.9165 34.5647 29.651 34.5647 29.3523C34.5647 29.0536 34.5002 28.7899 34.3711 28.5613C34.242 28.329 34.0613 28.1501 33.829 28.0248C33.5967 27.8957 33.3349 27.8312 33.0436 27.8312L32.0756 27.8312L32.0756 30.8734Z" fill="#252525"/>
<path d="M27.6241 31.3708C27.2516 31.3708 26.9124 31.2823 26.6063 31.1053C26.3039 30.9246 26.0661 30.6813 25.8928 30.3752C25.7195 30.0654 25.6328 29.7244 25.6328 29.3519C25.6328 28.9684 25.7195 28.6236 25.8928 28.3176C26.0698 28.0115 26.3113 27.7718 26.6174 27.5985C26.9234 27.4215 27.2682 27.333 27.6517 27.333C27.9688 27.333 28.2602 27.3939 28.5257 27.5155C28.7948 27.6335 29.0198 27.8032 29.2005 28.0244L28.8686 28.3839C28.7322 28.1885 28.557 28.0392 28.3431 27.9359C28.1329 27.829 27.9025 27.7755 27.6517 27.7755C27.353 27.7755 27.0875 27.8437 26.8552 27.9802C26.6266 28.1129 26.4478 28.2991 26.3187 28.5388C26.1933 28.7785 26.1306 29.0495 26.1306 29.3519C26.1306 29.6617 26.1933 29.9364 26.3187 30.1761C26.4441 30.4121 26.6192 30.5965 26.8442 30.7292C27.0728 30.862 27.3328 30.9283 27.6241 30.9283C28.0113 30.9283 28.3228 30.8177 28.5588 30.5965C28.7985 30.3715 28.9387 30.0581 28.9792 29.6561L27.5411 29.6561V29.2413L29.5047 29.2413V29.2966C29.5047 29.7391 29.4254 30.1171 29.2668 30.4305C29.1083 30.7403 28.887 30.9744 28.6031 31.133C28.3228 31.2915 27.9965 31.3708 27.6241 31.3708Z" fill="#252525"/>
<path d="M22.2889 27.3887L24.5291 30.4032L24.5291 27.3887H25.0269L25.0269 31.3159L24.6673 31.3159L22.4272 28.3013L22.4272 31.3159H21.957L21.957 27.3887H22.2889Z" fill="#252525"/>
<path d="M19.3545 31.3708C18.9821 31.3708 18.6428 31.2823 18.3368 31.1053C18.0344 30.9246 17.7966 30.6813 17.6233 30.3752C17.4499 30.0654 17.3633 29.7244 17.3633 29.3519C17.3633 28.9795 17.4481 28.6402 17.6177 28.3342C17.7873 28.0244 18.0215 27.781 18.3202 27.604C18.6189 27.4234 18.9544 27.333 19.3269 27.333C19.6993 27.333 20.0367 27.4234 20.3391 27.604C20.6452 27.781 20.8849 28.0244 21.0582 28.3342C21.2315 28.6402 21.3181 28.9795 21.3181 29.3519C21.3181 29.7244 21.2315 30.0654 21.0582 30.3752C20.8849 30.6813 20.647 30.9246 20.3446 31.1053C20.0459 31.2823 19.7159 31.3708 19.3545 31.3708ZM19.3269 30.9283C19.6108 30.9283 19.8653 30.8601 20.0902 30.7237C20.3188 30.5872 20.4977 30.3992 20.6267 30.1595C20.7558 29.9198 20.8203 29.6506 20.8203 29.3519C20.8203 29.0532 20.7558 28.784 20.6267 28.5444C20.4977 28.3047 20.3188 28.1166 20.0902 27.9802C19.8653 27.8437 19.6108 27.7755 19.3269 27.7755C19.0466 27.7755 18.794 27.8437 18.5691 27.9802C18.3478 28.1129 18.1745 28.2991 18.0492 28.5388C17.9238 28.7785 17.8611 29.0495 17.8611 29.3519C17.8611 29.6543 17.9238 29.9253 18.0492 30.165C18.1745 30.4047 18.3478 30.5928 18.5691 30.7292C18.794 30.862 19.0466 30.9283 19.3269 30.9283Z" fill="#252525"/>
<path d="M14.185 27.3887L14.185 29.0757L16.2592 29.0757L16.2592 27.3887H16.757L16.757 31.3159L16.2592 31.3159L16.2592 29.4906L14.185 29.4906L14.185 31.3159H13.7148L13.7148 27.3887H14.185Z" fill="#252525"/>
<path d="M11.7217 31.3708C11.3419 31.3708 11.0008 31.2823 10.6984 31.1053C10.3961 30.9283 10.1582 30.6868 9.98491 30.3807C9.81528 30.071 9.73047 29.728 9.73047 29.3519C9.73047 28.9795 9.81528 28.6402 9.98491 28.3342C10.1545 28.0244 10.3887 27.781 10.6874 27.604C10.9861 27.4234 11.3216 27.333 11.6941 27.333C11.9928 27.333 12.2656 27.3846 12.5127 27.4879C12.7598 27.5874 12.9755 27.7294 13.1598 27.9138L12.8003 28.2457C12.6713 28.1019 12.5108 27.9875 12.3191 27.9027C12.131 27.8179 11.9227 27.7755 11.6941 27.7755C11.4138 27.7755 11.1612 27.8437 10.9363 27.9802C10.715 28.1129 10.5417 28.2991 10.4163 28.5388C10.291 28.7785 10.2283 29.0495 10.2283 29.3519C10.2283 29.6543 10.291 29.9253 10.4163 30.165C10.5417 30.4047 10.715 30.5928 10.9363 30.7292C11.1612 30.862 11.4138 30.9283 11.6941 30.9283C12.1476 30.9283 12.5256 30.7624 12.828 30.4305L13.1875 30.79C13.0031 30.9744 12.7874 31.1164 12.5403 31.216C12.2933 31.3192 12.0204 31.3708 11.7217 31.3708Z" fill="#252525"/>
</svg>
