<svg width="43" height="42" viewBox="0 0 43 42" fill="none" xmlns="http://www.w3.org/2000/svg">
<rect width="43" height="42" fill="white"/>
<path d="M20.8672 31.878C21.2209 31.878 21.5442 31.9758 21.8369 32.1709C22.1337 32.3661 22.3655 32.6323 22.5322 32.9698C22.703 33.3032 22.7881 33.6735 22.7881 34.0801C22.788 34.4866 22.703 34.8589 22.5322 35.1963C22.3655 35.5296 22.1336 35.7942 21.8369 35.9893C21.5442 36.1843 21.2208 36.2813 20.8672 36.2813C20.5136 36.2813 20.1883 36.1843 19.8916 35.9893C19.5989 35.7942 19.367 35.5296 19.1963 35.1963C19.0296 34.8589 18.9463 34.4866 18.9463 34.0801C18.9463 33.6735 19.0296 33.3032 19.1963 32.9698C19.3671 32.6323 19.5989 32.3661 19.8916 32.1709C20.1884 31.9758 20.5135 31.878 20.8672 31.878ZM20.8672 31.9512C20.4404 31.9513 20.1106 32.136 19.8789 32.5059C19.6471 32.8759 19.5312 33.4011 19.5312 34.0801C19.5313 34.7589 19.6473 35.2834 19.8789 35.6534C20.1106 36.0193 20.4403 36.2022 20.8672 36.2022C21.2941 36.2022 21.6237 36.0193 21.8555 35.6534C22.0872 35.2834 22.2031 34.759 22.2031 34.0801C22.2031 33.4011 22.0872 32.8759 21.8555 32.5059C21.6237 32.1361 21.294 31.9512 20.8672 31.9512ZM5.86328 32.0254L5.33301 32.0743V36.1114H6.68066C6.77825 36.1114 6.8498 36.0969 6.89453 36.0684C6.93912 36.0358 6.9801 35.975 7.0166 35.8858L7.43066 34.8428L7.50391 34.8555L7.35156 36.1846H4.36328V36.1358L4.86328 36.087V32.0743L4.36328 32.0254V31.9766H5.86328V32.0254ZM17.1426 33.1905L17.0938 33.1963L16.7285 32.2754C16.6919 32.1819 16.6512 32.1203 16.6064 32.0918C16.5658 32.0634 16.496 32.0499 16.3984 32.0499H15.1611V33.9219H16.0449C16.1423 33.9219 16.2113 33.9055 16.252 33.8731C16.2926 33.8406 16.3216 33.7779 16.3379 33.6846L16.4414 33.1905H16.5146V34.751H16.4414L16.3379 34.2579C16.3216 34.1643 16.2926 34.1009 16.252 34.0684C16.2113 34.036 16.1423 34.0196 16.0449 34.0196H15.1611V36.087L15.7588 36.1358V36.1846H14.1904V36.1358L14.6914 36.087V32.0743L14.1904 32.0254V31.9766H17.0449L17.1426 33.1905ZM26.3662 31.9766C26.846 31.9766 27.2118 32.0744 27.4639 32.2696C27.7158 32.4606 27.8418 32.7387 27.8418 33.1045C27.8418 33.3891 27.7647 33.6228 27.6104 33.8057C27.4558 33.9887 27.2322 34.1155 26.9395 34.1846H26.9453L28.0615 35.9288C28.1142 36.0098 28.1652 36.0643 28.2139 36.0928C28.2666 36.1212 28.3421 36.1358 28.4395 36.1358H28.5254V36.1846H27.8975C27.7999 36.1846 27.7265 36.1701 27.6777 36.1417C27.629 36.1132 27.5782 36.0587 27.5254 35.9776L26.5918 34.4708C26.5349 34.3773 26.486 34.3202 26.4453 34.2999C26.4087 34.2756 26.3415 34.2637 26.2441 34.2637H25.793V36.087L26.3232 36.1358V36.1846H24.8232V36.1358L25.3232 36.087V32.0743L24.8232 32.0254V31.9766H26.3662ZM33.0156 33.1231L32.9551 33.129L32.6133 32.2754C32.5767 32.1819 32.5359 32.1203 32.4912 32.0918C32.4505 32.0636 32.3814 32.0499 32.2842 32.0499H30.9053V33.9219H31.8086C31.906 33.9219 31.975 33.9056 32.0156 33.8731C32.0562 33.8406 32.0843 33.7778 32.1006 33.6846L32.2051 33.1905H32.2783V34.751H32.2051L32.1006 34.2579C32.0843 34.1643 32.0563 34.1009 32.0156 34.0684C31.975 34.0359 31.906 34.0196 31.8086 34.0196H30.9053V36.1114H32.2715C32.3691 36.1114 32.4406 36.0969 32.4854 36.0684C32.53 36.0358 32.5709 35.9751 32.6074 35.8858L33.0098 34.8975L33.0771 34.9043L32.9248 36.1846H29.9355V36.1358L30.4355 36.087V32.0743L29.9355 32.0254V31.9766H32.9307L33.0156 33.1231ZM12.3223 36.0743L12.8291 36.1348V36.1836H11.334V36.1348L11.835 36.0743L11.2607 34.5127H9.78516L9.2793 35.8604C9.26303 35.9051 9.25488 35.9423 9.25488 35.9708C9.25492 36.0154 9.26665 36.0481 9.29102 36.0684C9.31946 36.0847 9.36845 36.0964 9.4375 36.1045L9.80957 36.1348V36.1836H8.51074V36.1348L8.85254 36.1045C8.95378 36.0964 9.0248 36.0764 9.06543 36.044C9.11016 36.0115 9.14911 35.9499 9.18164 35.8604L10.6758 31.878H10.7852L12.3223 36.0743ZM35.1758 31.878C35.2652 31.9186 35.3404 31.9449 35.4014 31.9571C35.4664 31.9693 35.5479 31.9756 35.6455 31.9756H37.9932C38.0907 31.9756 38.1705 31.9693 38.2314 31.9571C38.2964 31.9449 38.3736 31.9186 38.4629 31.878H38.5L38.6338 33.2012L38.585 33.2139L38.207 32.2745C38.1705 32.1811 38.1296 32.1204 38.085 32.0918C38.0444 32.0594 37.9753 32.0431 37.8779 32.043H36.9873V36.086L37.6455 36.1348V36.1836H35.8584V36.1348L36.5176 36.086V32.043H35.7119C35.6145 32.0431 35.5437 32.0594 35.499 32.0918C35.4543 32.1203 35.4117 32.1811 35.3711 32.2745L34.9502 33.2139L34.9014 33.2012L35.1387 31.878H35.1758ZM9.82227 34.4151H11.2246L10.542 32.5547H10.5176L9.82227 34.4151ZM25.793 34.1719H26.3477C26.6728 34.1719 26.9129 34.0867 27.0674 33.9161C27.2259 33.7413 27.3056 33.4749 27.3057 33.1172C27.3057 32.7554 27.226 32.4864 27.0674 32.3116C26.9088 32.1369 26.6687 32.0499 26.3477 32.0499H25.793V34.1719ZM33.291 6.12896C34.6998 5.53596 36.6962 5.59526 37.2236 6.24614C38.0307 7.24275 37.3215 9.35464 35.623 11.0127C33.5325 13.0539 28.9237 15.6731 25.8857 16.5469L24.335 16.9932L22.9385 18.835C20.5019 22.0506 19.3947 23.0322 16.3896 24.6397L14.6406 25.5762L15.46 25.8233C15.9375 25.9674 17.1723 26.0703 18.418 26.0704C21.0223 26.0704 22.049 25.7762 24.417 24.3487C26.1523 23.3026 26.7833 23.1968 25.6699 24.1387C21.9904 27.251 18.4777 27.9625 14.6758 26.3653L13.416 25.836L11.6865 26.2081C10.7351 26.4124 9.18912 26.59 8.25098 26.6036C6.78588 26.6248 6.47118 26.5735 6.01953 26.2383C5.35097 25.742 5.25342 25.0525 5.78418 24.5733C6.40898 24.0096 9.90026 24.0957 12.2812 24.7334L14.0479 25.2071L14.9795 24.7637C16.8303 23.8831 18.683 22.0054 21.6445 18.0088C27.6256 9.93742 30.0011 7.51428 33.291 6.12896ZM11.1191 25.0411C10.0292 24.7915 7.29405 24.6262 6.93457 24.7881C6.54966 24.9618 6.66359 25.7585 7.10742 25.9961C7.7684 26.3496 12.0956 25.8355 12.0957 25.4034C12.0957 25.3271 11.6562 25.164 11.1191 25.0411ZM21.4873 5.99907C23.5242 5.68799 24.4991 5.6512 24.6406 5.87993C24.7708 6.09154 24.4064 6.19907 23.0215 6.3565C22.4334 6.42326 21.1791 6.68463 20.2344 6.93755C15.6765 8.15732 13.309 10.3199 13.3242 13.2501C13.3391 16.0837 15.6478 17.6338 19.3779 17.3145L20.8018 17.1924L22.3457 15.1221C24.0207 12.8763 27.9909 8.78423 29.4834 7.76568C30.2953 7.21149 30.1928 7.35275 28.6729 8.87603C25.9273 11.6279 24.4512 13.4435 20.3828 19.0772C19.2852 20.5969 15.8137 24.1154 15.4092 24.1182C15.2933 24.1182 15.6969 23.5953 16.3066 22.9561C17.2099 22.0093 19.8772 18.6396 20.3184 17.8877C20.3871 17.7685 19.65 17.6981 18.2607 17.6905C16.4527 17.6808 15.9116 17.6078 14.9951 17.2481C12.212 16.1559 11.3056 13.797 12.5361 10.8516C13.4923 8.56372 16.9431 6.69291 21.4873 5.99907ZM36.8291 6.45122C36.4366 6.05887 35.1749 5.96251 34.2256 6.25298C31.9209 6.9584 29.4807 9.2626 26.6328 13.4219C25.5834 14.9547 24.8124 16.238 24.9189 16.2735C25.2633 16.3878 28.0146 15.38 29.6855 14.5274C35.0585 11.7857 38.3933 8.01539 36.8291 6.45122Z" fill="#252525"/>
</svg>
