<svg width="72" height="42" viewBox="0 0 72 42" fill="none" xmlns="http://www.w3.org/2000/svg">
<rect width="72" height="42" fill="white"/>
<path d="M68.9854 25.6602H37.3672V9.75195H68.9854V25.6602ZM28.7188 25.4014L27.7588 25.4092L26.9229 21.9912H22.3379L21.5732 25.4014L20.6914 25.4092L24.0908 10.209L24.9395 10.2012L28.7188 25.4014ZM3.88379 24.5146H8.47559V25.3867H3.01172V10.2012H3.88379V24.5146ZM17.2412 10.9346H12.6494V17.21H17.2412V18.0811H12.6494V24.4385H17.2412V25.3105H11.7783V10.0635H17.2412V10.9346ZM35.6973 25.1475H31.2119V24.5479H35.6973V25.1475ZM61.9385 24.7422H62.8096V18.2021H64.9248C66.0482 18.2023 66.9596 19.114 66.96 20.2373V24.7422H67.8311V20.2373C67.8308 19.3166 67.4016 18.4971 66.7334 17.9648C67.4001 17.6901 67.887 17.0672 67.9629 16.3213L67.9736 16.1162V12.6309C67.9732 11.5957 67.186 10.744 66.1777 10.6416L65.9736 10.6309H61.9385V24.7422ZM38.3779 24.6787H39.249V12.8877L44.043 24.6475H44.8828V10.6309H44.0117V22.4199L39.2617 10.6309H38.3779V24.6787ZM51.2461 10.6309C49.398 10.6309 47.8999 12.1296 47.8994 13.9775V21.332C47.8997 23.1802 49.3979 24.6787 51.2461 24.6787C53.0942 24.6785 54.5925 23.1801 54.5928 21.332V13.9775C54.5923 12.1296 53.0941 10.631 51.2461 10.6309ZM57.6074 24.6787H58.4785V10.6309H57.6074V24.6787ZM51.2461 11.5029C52.6124 11.5031 53.7212 12.6113 53.7217 13.9775V21.332C53.7214 22.6985 52.6126 23.8065 51.2461 23.8066C49.8795 23.8066 48.7707 22.6986 48.7705 21.332V13.9775C48.771 12.6112 49.8797 11.503 51.2461 11.5029ZM22.5342 21.1191H26.71L24.5322 12.2139L22.5342 21.1191ZM65.9736 11.2305C66.7464 11.2307 67.3735 11.8582 67.374 12.6309V16.1162C67.374 16.8893 66.7467 17.5164 65.9736 17.5166H65.9424C65.7142 17.4313 65.4729 17.3712 65.2217 17.3457L64.9248 17.3301H62.5381V11.2305H65.9736Z" fill="#252525"/>
<path d="M52.9453 30.3242L53.4378 29.8496L53.4557 29.8541V30.2794H53.9661L53.9393 30.3511H53.4557V31.7211C53.4557 31.8256 53.4721 31.9032 53.505 31.9539C53.5408 32.0255 53.6079 32.0614 53.7064 32.0614C53.7542 32.0614 53.8005 32.0494 53.8452 32.0255C53.89 32.0017 53.9393 31.9629 53.993 31.9091L54.0109 31.9226C53.9661 32.0151 53.9019 32.0882 53.8184 32.142C53.7378 32.1957 53.6512 32.2225 53.5587 32.2225C53.4632 32.2225 53.3781 32.1957 53.3035 32.142C53.2527 32.1061 53.2169 32.0599 53.196 32.0032C53.1751 31.9464 53.1647 31.8718 53.1647 31.7793V30.3466H52.9543L52.9453 30.3242Z" fill="#252525"/>
<path d="M51.8732 32.1417V32.1775H51.0404V32.1417L51.3135 32.1059V30.9642C51.3135 30.8478 51.3106 30.7612 51.3046 30.7045C51.2986 30.6478 51.2867 30.6 51.2688 30.5612C51.2449 30.5105 51.2046 30.4717 51.1479 30.4448C51.0942 30.415 51.0315 30.4 50.9598 30.4C50.8076 30.4 50.6718 30.4642 50.5524 30.5926V32.1059L50.8255 32.1417V32.1775H49.9883V32.1417L50.2614 32.1059V30.5612L49.9972 30.4627V30.4314L50.5032 30.2568H50.539V30.5388C50.73 30.3359 50.93 30.2344 51.1389 30.2344C51.2315 30.2344 51.315 30.2553 51.3897 30.2971C51.4673 30.3359 51.5225 30.3881 51.5553 30.4538C51.5762 30.4926 51.5896 30.5463 51.5956 30.6149C51.6016 30.6806 51.6046 30.797 51.6046 30.9642V32.1059L51.8732 32.1417Z" fill="#252525"/>
<path d="M47.8114 32.2083C47.698 32.2083 47.6039 32.1695 47.5293 32.0919C47.4577 32.0113 47.4219 31.9083 47.4219 31.7829C47.4219 31.6337 47.489 31.5143 47.6233 31.4247C47.7607 31.3352 47.992 31.2576 48.3173 31.1919V30.7845C48.3173 30.6114 48.2979 30.492 48.2591 30.4263C48.2203 30.3577 48.1532 30.3233 48.0576 30.3233C47.9651 30.3233 47.8905 30.3487 47.8338 30.3995C47.7771 30.4472 47.7487 30.5129 47.7487 30.5965L47.7532 30.7173C47.7532 30.792 47.7383 30.8517 47.7084 30.8964C47.6816 30.9382 47.6428 30.9591 47.592 30.9591C47.5472 30.9591 47.5099 30.9442 47.4801 30.9143C47.4532 30.8845 47.4398 30.8457 47.4398 30.7979C47.4398 30.7263 47.4741 30.6487 47.5428 30.5651C47.6144 30.4786 47.7054 30.4069 47.8159 30.3502C47.9502 30.2756 48.089 30.2383 48.2323 30.2383C48.3158 30.2383 48.386 30.2547 48.4427 30.2875C48.5024 30.3204 48.5457 30.3666 48.5725 30.4263C48.5874 30.4651 48.5964 30.5129 48.5994 30.5696C48.6054 30.6263 48.6083 30.7353 48.6083 30.8964V31.7516C48.6083 31.859 48.6188 31.9337 48.6397 31.9754C48.6606 32.0143 48.6979 32.0337 48.7516 32.0337C48.8322 32.0337 48.8919 32.0053 48.9307 31.9486L48.9486 31.9575C48.9128 32.0322 48.865 32.0904 48.8053 32.1322C48.7456 32.171 48.6815 32.1904 48.6128 32.1904C48.5352 32.1904 48.471 32.168 48.4203 32.1232C48.3696 32.0754 48.3412 32.0128 48.3352 31.9352L48.3218 31.9307C48.2531 32.0172 48.174 32.0859 48.0845 32.1366C47.995 32.1844 47.9039 32.2083 47.8114 32.2083ZM48.0039 32.0381C48.0666 32.0381 48.1248 32.0247 48.1785 31.9978C48.2352 31.968 48.2815 31.9262 48.3173 31.8725V31.2412C48.1621 31.28 48.0412 31.3188 47.9547 31.3576C47.8711 31.3964 47.8114 31.4427 47.7756 31.4964C47.7398 31.5501 47.7218 31.6173 47.7218 31.6979C47.7218 31.8023 47.7472 31.8859 47.798 31.9486C47.8487 32.0083 47.9174 32.0381 48.0039 32.0381Z" fill="#252525"/>
<path d="M45.25 30.3242L45.7425 29.8496L45.7604 29.8541V30.2794H46.2708L46.2439 30.3511H45.7604V31.7211C45.7604 31.8256 45.7768 31.9032 45.8097 31.9539C45.8455 32.0255 45.9126 32.0614 46.0111 32.0614C46.0589 32.0614 46.1052 32.0494 46.1499 32.0255C46.1947 32.0017 46.2439 31.9629 46.2977 31.9091L46.3156 31.9226C46.2708 32.0151 46.2066 32.0882 46.1231 32.142C46.0425 32.1957 45.9559 32.2225 45.8634 32.2225C45.7679 32.2225 45.6828 32.1957 45.6082 32.142C45.5574 32.1061 45.5216 32.0599 45.5007 32.0032C45.4798 31.9464 45.4694 31.8718 45.4694 31.7793V30.3466H45.259L45.25 30.3242Z" fill="#252525"/>
<path d="M43.092 30.3732C43.2084 30.2806 43.3711 30.2344 43.58 30.2344C43.6517 30.2344 43.7248 30.2403 43.7994 30.2523C43.874 30.2642 43.9352 30.2791 43.983 30.2971V30.794H43.9337C43.8919 30.6149 43.8382 30.4851 43.7726 30.4045C43.7099 30.3239 43.6248 30.2836 43.5173 30.2836C43.4188 30.2836 43.3398 30.315 43.2801 30.3776C43.2204 30.4373 43.1905 30.5179 43.1905 30.6194C43.1905 30.7328 43.2233 30.8194 43.289 30.8791C43.3547 30.9358 43.4547 30.9955 43.589 31.0582C43.6935 31.1059 43.7755 31.1507 43.8352 31.1925C43.8979 31.2313 43.9501 31.2865 43.9919 31.3582C44.0367 31.4298 44.0591 31.5208 44.0591 31.6313C44.0591 31.8133 44.0009 31.9581 43.8845 32.0656C43.7681 32.17 43.6114 32.2223 43.4144 32.2223C43.3427 32.2223 43.2621 32.2148 43.1726 32.1999C43.0831 32.185 43.0069 32.1656 42.9443 32.1417L42.9219 31.5596H42.9756C43.0055 31.7686 43.0577 31.9238 43.1323 32.0253C43.2099 32.1238 43.3099 32.173 43.4323 32.173C43.5427 32.173 43.6308 32.1387 43.6964 32.07C43.7621 31.9984 43.7949 31.9059 43.7949 31.7925C43.7949 31.6701 43.7606 31.5775 43.692 31.5149C43.6233 31.4522 43.5203 31.388 43.383 31.3223C43.2815 31.2716 43.1995 31.2268 43.1368 31.188C43.0771 31.1462 43.0263 31.091 42.9846 31.0224C42.9428 30.9537 42.9219 30.8672 42.9219 30.7627C42.9219 30.5955 42.9786 30.4657 43.092 30.3732Z" fill="#252525"/>
<path d="M41.7404 32.1417V32.1775H40.9076V32.1417L41.1807 32.1059V30.9642C41.1807 30.8478 41.1777 30.7612 41.1718 30.7045C41.1658 30.6478 41.1539 30.6 41.136 30.5612C41.1121 30.5105 41.0718 30.4717 41.0151 30.4448C40.9613 30.415 40.8987 30.4 40.827 30.4C40.6748 30.4 40.539 30.4642 40.4196 30.5926V32.1059L40.6927 32.1417V32.1775H39.8555V32.1417L40.1286 32.1059V30.5612L39.8644 30.4627V30.4314L40.3704 30.2568H40.4062V30.5388C40.5972 30.3359 40.7972 30.2344 41.0061 30.2344C41.0986 30.2344 41.1822 30.2553 41.2568 30.2971C41.3344 30.3359 41.3897 30.3881 41.4225 30.4538C41.4434 30.4926 41.4568 30.5463 41.4628 30.6149C41.4688 30.6806 41.4717 30.797 41.4717 30.9642V32.1059L41.7404 32.1417Z" fill="#252525"/>
<path d="M38.1748 29.4367C38.136 29.4755 38.1166 29.5262 38.1166 29.5889C38.1166 29.6516 38.136 29.7038 38.1748 29.7456C38.2166 29.7844 38.2688 29.8038 38.3315 29.8038C38.3942 29.8038 38.4449 29.7844 38.4837 29.7456C38.5255 29.7038 38.5464 29.6516 38.5464 29.5889C38.5464 29.5262 38.5255 29.4755 38.4837 29.4367C38.4449 29.3949 38.3942 29.374 38.3315 29.374C38.2688 29.374 38.2166 29.3949 38.1748 29.4367ZM38.5016 30.2337V32.1051L38.7747 32.141V32.1768H37.9375V32.141L38.2106 32.1051V30.5381L37.9465 30.4396V30.4083L38.4658 30.2337H38.5016Z" fill="#252525"/>
<path d="M34.5224 29.8993C34.5672 29.8575 34.603 29.8023 34.6298 29.7336C34.6567 29.665 34.6701 29.5963 34.6701 29.5277C34.6701 29.471 34.6612 29.4262 34.6433 29.3934C34.6283 29.3575 34.6045 29.3202 34.5716 29.2814C34.5478 29.2546 34.5298 29.2307 34.5179 29.2098C34.506 29.1889 34.5 29.1635 34.5 29.1337C34.5 29.0889 34.5134 29.0531 34.5403 29.0262C34.5672 28.9964 34.6015 28.9814 34.6433 28.9814C34.703 28.9814 34.7492 29.0068 34.7821 29.0576C34.8149 29.1083 34.8313 29.1799 34.8313 29.2725C34.8313 29.3859 34.8045 29.5008 34.7507 29.6172C34.7 29.7336 34.6298 29.8351 34.5403 29.9217L34.5224 29.8993Z" fill="#252525"/>
<path d="M32.9743 28.9502V32.1066L33.2474 32.1425V32.1783H32.4102V32.1425L32.6833 32.1066V29.2546L32.4191 29.1561V29.1248L32.9385 28.9502H32.9743Z" fill="#252525"/>
<path d="M29.2825 30.2344C29.3422 30.2344 29.393 30.2553 29.4348 30.2971C29.4765 30.3359 29.4974 30.3836 29.4974 30.4403C29.4974 30.4881 29.481 30.5284 29.4482 30.5612C29.4154 30.594 29.3751 30.6105 29.3273 30.6105C29.2975 30.6105 29.2721 30.6045 29.2512 30.5926C29.2333 30.5776 29.2139 30.5567 29.193 30.5299C29.1721 30.506 29.1527 30.4881 29.1348 30.4761C29.1199 30.4642 29.1005 30.4582 29.0766 30.4582C29.0288 30.4582 28.9796 30.4866 28.9288 30.5433C28.8811 30.6 28.8467 30.6657 28.8259 30.7403V32.1059L29.184 32.1417V32.1775H28.2617V32.1417L28.5348 32.1059V30.5388L28.2707 30.4403V30.409L28.7766 30.2344H28.8124V30.6284C28.9796 30.3657 29.1363 30.2344 29.2825 30.2344Z" fill="#252525"/>
<path d="M26.581 29.4367C26.5422 29.4755 26.5228 29.5262 26.5228 29.5889C26.5228 29.6516 26.5422 29.7038 26.581 29.7456C26.6228 29.7844 26.6751 29.8038 26.7377 29.8038C26.8004 29.8038 26.8512 29.7844 26.89 29.7456C26.9318 29.7038 26.9527 29.6516 26.9527 29.5889C26.9527 29.5262 26.9318 29.4755 26.89 29.4367C26.8512 29.3949 26.8004 29.374 26.7377 29.374C26.6751 29.374 26.6228 29.3949 26.581 29.4367ZM26.9079 30.2337V32.1051L27.181 32.141V32.1768H26.3438V32.141L26.6169 32.1051V30.5381L26.3527 30.4396V30.4083L26.8721 30.2337H26.9079Z" fill="#252525"/>
<path d="M24.1858 30.3732C24.3022 30.2806 24.4648 30.2344 24.6738 30.2344C24.7454 30.2344 24.8185 30.2403 24.8932 30.2523C24.9678 30.2642 25.029 30.2791 25.0767 30.2971V30.794H25.0275C24.9857 30.6149 24.932 30.4851 24.8663 30.4045C24.8036 30.3239 24.7186 30.2836 24.6111 30.2836C24.5126 30.2836 24.4335 30.315 24.3738 30.3776C24.3141 30.4373 24.2843 30.5179 24.2843 30.6194C24.2843 30.7328 24.3171 30.8194 24.3828 30.8791C24.4484 30.9358 24.5484 30.9955 24.6827 31.0582C24.7872 31.1059 24.8693 31.1507 24.929 31.1925C24.9917 31.2313 25.0439 31.2865 25.0857 31.3582C25.1305 31.4298 25.1528 31.5208 25.1528 31.6313C25.1528 31.8133 25.0946 31.9581 24.9782 32.0656C24.8618 32.17 24.7051 32.2223 24.5081 32.2223C24.4365 32.2223 24.3559 32.2148 24.2664 32.1999C24.1768 32.185 24.1007 32.1656 24.038 32.1417L24.0156 31.5596H24.0694C24.0992 31.7686 24.1514 31.9238 24.2261 32.0253C24.3037 32.1238 24.4037 32.173 24.526 32.173C24.6365 32.173 24.7245 32.1387 24.7902 32.07C24.8559 31.9984 24.8887 31.9059 24.8887 31.7925C24.8887 31.6701 24.8544 31.5775 24.7857 31.5149C24.7171 31.4522 24.6141 31.388 24.4768 31.3223C24.3753 31.2716 24.2932 31.2268 24.2305 31.188C24.1708 31.1462 24.1201 31.091 24.0783 31.0224C24.0365 30.9537 24.0156 30.8672 24.0156 30.7627C24.0156 30.5955 24.0723 30.4657 24.1858 30.3732Z" fill="#252525"/>
<path d="M22.2295 29.4367C22.1907 29.4755 22.1713 29.5262 22.1713 29.5889C22.1713 29.6516 22.1907 29.7038 22.2295 29.7456C22.2713 29.7844 22.3235 29.8038 22.3862 29.8038C22.4489 29.8038 22.4996 29.7844 22.5384 29.7456C22.5802 29.7038 22.6011 29.6516 22.6011 29.5889C22.6011 29.5262 22.5802 29.4755 22.5384 29.4367C22.4996 29.3949 22.4489 29.374 22.3862 29.374C22.3235 29.374 22.2713 29.3949 22.2295 29.4367ZM22.5563 30.2337V32.1051L22.8294 32.141V32.1768H21.9922V32.141L22.2653 32.1051V30.5381L22.0011 30.4396V30.4083L22.5205 30.2337H22.5563Z" fill="#252525"/>
<path d="M19.8153 32.2083C19.7019 32.2083 19.6079 32.1695 19.5332 32.0919C19.4616 32.0113 19.4258 31.9083 19.4258 31.7829C19.4258 31.6337 19.4929 31.5143 19.6273 31.4247C19.7646 31.3352 19.9959 31.2576 20.3212 31.1919V30.7845C20.3212 30.6114 20.3018 30.492 20.263 30.4263C20.2242 30.3577 20.1571 30.3233 20.0615 30.3233C19.969 30.3233 19.8944 30.3487 19.8377 30.3995C19.781 30.4472 19.7526 30.5129 19.7526 30.5965L19.7571 30.7173C19.7571 30.792 19.7422 30.8517 19.7123 30.8964C19.6855 30.9382 19.6467 30.9591 19.5959 30.9591C19.5511 30.9591 19.5138 30.9442 19.484 30.9143C19.4571 30.8845 19.4437 30.8457 19.4437 30.7979C19.4437 30.7263 19.478 30.6487 19.5467 30.5651C19.6183 30.4786 19.7093 30.4069 19.8198 30.3502C19.9541 30.2756 20.0929 30.2383 20.2362 30.2383C20.3197 30.2383 20.3899 30.2547 20.4466 30.2875C20.5063 30.3204 20.5496 30.3666 20.5764 30.4263C20.5914 30.4651 20.6003 30.5129 20.6033 30.5696C20.6093 30.6263 20.6122 30.7353 20.6122 30.8964V31.7516C20.6122 31.859 20.6227 31.9337 20.6436 31.9754C20.6645 32.0143 20.7018 32.0337 20.7555 32.0337C20.8361 32.0337 20.8958 32.0053 20.9346 31.9486L20.9525 31.9575C20.9167 32.0322 20.8689 32.0904 20.8092 32.1322C20.7495 32.171 20.6854 32.1904 20.6167 32.1904C20.5391 32.1904 20.4749 32.168 20.4242 32.1232C20.3735 32.0754 20.3451 32.0128 20.3391 31.9352L20.3257 31.9307C20.2571 32.0172 20.178 32.0859 20.0884 32.1366C19.9989 32.1844 19.9078 32.2083 19.8153 32.2083ZM20.0078 32.0381C20.0705 32.0381 20.1287 32.0247 20.1824 31.9978C20.2391 31.968 20.2854 31.9262 20.3212 31.8725V31.2412C20.166 31.28 20.0451 31.3188 19.9586 31.3576C19.875 31.3964 19.8153 31.4427 19.7795 31.4964C19.7437 31.5501 19.7258 31.6173 19.7258 31.6979C19.7258 31.8023 19.7511 31.8859 19.8019 31.9486C19.8526 32.0083 19.9213 32.0381 20.0078 32.0381Z" fill="#252525"/>
<path d="M17.6655 32.1328C17.5192 32.2104 17.3536 32.2492 17.1685 32.2492C17.0282 32.2492 16.8924 32.2268 16.7611 32.182C16.6297 32.1402 16.5178 32.0805 16.4253 32.0029L16.3313 32.2492H16.273L16.2148 31.1791L16.2551 31.1702C16.2999 31.3731 16.3447 31.5313 16.3895 31.6447C16.4372 31.7582 16.4984 31.8567 16.573 31.9402C16.7252 32.1104 16.9267 32.1954 17.1774 32.1954C17.3924 32.1954 17.5595 32.1402 17.6789 32.0298C17.8013 31.9164 17.8625 31.7641 17.8625 31.5731C17.8625 31.4388 17.8296 31.3254 17.764 31.2328C17.7013 31.1403 17.6147 31.0612 17.5043 30.9955C17.3938 30.9299 17.2386 30.8538 17.0387 30.7672C16.8745 30.6956 16.7372 30.6254 16.6267 30.5568C16.5163 30.4851 16.4238 30.3941 16.3492 30.2837C16.2775 30.1702 16.2417 30.0329 16.2417 29.8718C16.2417 29.7076 16.2805 29.5613 16.3581 29.433C16.4387 29.3017 16.5477 29.2002 16.685 29.1285C16.8252 29.0539 16.9834 29.0166 17.1595 29.0166C17.2819 29.0166 17.3953 29.0375 17.4998 29.0793C17.6073 29.1211 17.7222 29.1897 17.8446 29.2852L17.952 29.0703H18.0102L18.055 30.0464L18.0102 30.0598C17.9625 29.8598 17.9013 29.6837 17.8266 29.5315C17.6774 29.224 17.4491 29.0703 17.1416 29.0703C16.9566 29.0703 16.8088 29.1241 16.6984 29.2315C16.5879 29.336 16.5327 29.4792 16.5327 29.6613C16.5327 29.7927 16.5626 29.9031 16.6223 29.9926C16.685 30.0822 16.77 30.1598 16.8775 30.2255C16.9879 30.2911 17.1431 30.3702 17.3431 30.4627C17.5222 30.5433 17.6655 30.6195 17.7729 30.6911C17.8834 30.7627 17.9714 30.8523 18.0371 30.9597C18.1057 31.0642 18.1401 31.194 18.1401 31.3492C18.1401 31.5224 18.0983 31.6776 18.0147 31.8149C17.9311 31.9492 17.8147 32.0551 17.6655 32.1328Z" fill="#252525"/>
</svg>
