<svg width="72" height="42" viewBox="0 0 72 42" fill="none" xmlns="http://www.w3.org/2000/svg">
<rect width="72" height="42" fill="white"/>
<path d="M62.7907 30.4818L62.6733 31.4684L60.3711 31.4684V31.4308L60.7564 31.3932L60.7564 28.3017L60.3711 28.2641V28.2266L62.678 28.2266L62.7438 29.1099L62.6968 29.1145L62.4337 28.4568C62.4055 28.3847 62.3742 28.3378 62.3397 28.3158C62.3084 28.2939 62.2551 28.2829 62.18 28.2829L61.1181 28.2829V29.7253L61.8135 29.7253C61.8887 29.7253 61.9419 29.7128 61.9732 29.6877C62.0045 29.6627 62.0265 29.6141 62.039 29.5421L62.1189 29.1615H62.1753L62.1753 30.3643H62.1189L62.039 29.9837C62.0265 29.9117 62.0045 29.8632 61.9732 29.8381C61.9419 29.813 61.8887 29.8005 61.8135 29.8005L61.1181 29.8005L61.1181 31.412L62.1706 31.412C62.2457 31.412 62.3005 31.4011 62.335 31.3791C62.3695 31.3541 62.4008 31.3071 62.429 31.2382L62.7391 30.4771L62.7907 30.4818Z" fill="#252525"/>
<path d="M59.1465 31.3885C59.2812 31.329 59.394 31.2491 59.4848 31.1489C59.6383 30.9766 59.7542 30.7198 59.8325 30.3784L59.8936 30.3878V31.4684H59.8325L59.6728 31.21C59.5318 31.3133 59.3783 31.3948 59.2123 31.4543C59.0494 31.5138 58.8913 31.5436 58.7378 31.5436C58.4653 31.5436 58.2147 31.4684 57.9861 31.318C57.7605 31.1677 57.582 30.9641 57.4504 30.7073C57.322 30.4473 57.2578 30.1607 57.2578 29.8475C57.2578 29.5374 57.322 29.2523 57.4504 28.9924C57.582 28.7324 57.7605 28.5272 57.9861 28.3769C58.2116 28.2265 58.459 28.1514 58.7284 28.1514C58.8693 28.1514 59.0134 28.1749 59.1606 28.2218C59.311 28.2657 59.477 28.3362 59.6587 28.4333L59.7714 28.2077H59.8325L59.8795 29.2649L59.8137 29.2837C59.7699 29.0425 59.701 28.8436 59.607 28.687C59.513 28.5335 59.3909 28.416 59.2405 28.3346C59.0902 28.25 58.9242 28.2077 58.7425 28.2077C58.4105 28.2077 58.1552 28.3503 57.9767 28.6353C57.7981 28.9203 57.7089 29.3244 57.7089 29.8475C57.7089 30.3674 57.7981 30.7699 57.9767 31.0549C58.1552 31.3368 58.4089 31.4778 58.7378 31.4778C58.8787 31.4778 59.015 31.448 59.1465 31.3885Z" fill="#252525"/>
<path d="M56.9903 28.2266V28.2641L56.652 28.3017C56.5769 28.3111 56.5268 28.3299 56.5017 28.3581C56.4766 28.3863 56.4641 28.438 56.4641 28.5132L56.4641 31.5436H56.4171L54.3076 28.5507H54.2888L54.2888 31.1818C54.2888 31.257 54.2982 31.3102 54.317 31.3416C54.3358 31.3698 54.3734 31.387 54.4297 31.3932L54.7633 31.4308V31.4684H53.7344V31.4308L54.0727 31.3932C54.129 31.387 54.1666 31.3698 54.1854 31.3416C54.2042 31.3102 54.2136 31.257 54.2136 31.1818L54.2136 28.4474L54.1948 28.4192C54.151 28.3565 54.1087 28.3158 54.068 28.297C54.0304 28.2751 53.974 28.2641 53.8988 28.2641H53.8189V28.2266H54.519L56.3701 30.82H56.3889L56.3889 28.5132C56.3889 28.438 56.3795 28.3847 56.3607 28.3534C56.342 28.3221 56.3044 28.3049 56.248 28.3017L55.8674 28.2641V28.2266L56.9903 28.2266Z" fill="#252525"/>
<path d="M53.6819 31.4308V31.4684L52.5308 31.4684V31.4308L52.9161 31.3838L52.4744 30.181L51.3374 30.181L50.9475 31.2194C50.9349 31.2538 50.9287 31.282 50.9287 31.304C50.9287 31.3384 50.9381 31.3635 50.9569 31.3791C50.9788 31.3917 51.0164 31.4011 51.0696 31.4073L51.3562 31.4308V31.4684H50.3555V31.4308L50.6186 31.4073C50.6969 31.4011 50.7517 31.3854 50.783 31.3603C50.8175 31.3353 50.8472 31.2883 50.8723 31.2194L52.0234 28.1514H52.108L53.2919 31.3838L53.6819 31.4308ZM52.4462 30.1059L51.92 28.6729H51.9012L51.3656 30.1059L52.4462 30.1059Z" fill="#252525"/>
<path d="M49.9477 28.3017L49.9477 31.3932L50.3564 31.4308V31.4684L49.2006 31.4684V31.4308L49.5859 31.3932L49.5859 28.532H49.5671L48.4348 31.5436H48.3878L47.124 28.5273H47.1052L47.1052 31.1818C47.1052 31.257 47.1146 31.3102 47.1334 31.3416C47.1522 31.3698 47.1898 31.387 47.2461 31.3932L47.5797 31.4308V31.4684H46.5508V31.4308L46.8891 31.3932C46.9454 31.387 46.983 31.3698 47.0018 31.3416C47.0206 31.3102 47.03 31.257 47.03 31.1818L47.03 28.3628C47.0081 28.3252 46.9799 28.3002 46.9454 28.2876C46.9141 28.272 46.8671 28.2641 46.8045 28.2641H46.5884V28.2266H47.3918L48.5476 30.9845H48.5664L49.6 28.2266L50.3564 28.2266V28.2641L49.9477 28.3017Z" fill="#252525"/>
<path d="M44.73 28.1514C45.0025 28.1514 45.2515 28.2265 45.477 28.3769C45.7057 28.5272 45.8842 28.7324 46.0126 28.9924C46.1442 29.2492 46.21 29.5342 46.21 29.8475C46.21 30.1607 46.1442 30.4473 46.0126 30.7073C45.8842 30.9641 45.7057 31.1677 45.477 31.318C45.2515 31.4684 45.0025 31.5436 44.73 31.5436C44.4575 31.5436 44.2069 31.4684 43.9782 31.318C43.7527 31.1677 43.5742 30.9641 43.4426 30.7073C43.3142 30.4473 43.25 30.1607 43.25 29.8475C43.25 29.5342 43.3142 29.2492 43.4426 28.9924C43.5742 28.7324 43.7527 28.5272 43.9782 28.3769C44.2069 28.2265 44.4575 28.1514 44.73 28.1514ZM43.701 29.8475C43.701 30.3705 43.7903 30.7746 43.9688 31.0596C44.1474 31.3415 44.4011 31.4825 44.73 31.4825C45.0589 31.4825 45.3126 31.3415 45.4911 31.0596C45.6696 30.7746 45.7589 30.3705 45.7589 29.8475C45.7589 29.3244 45.6696 28.9203 45.4911 28.6353C45.3126 28.3503 45.0589 28.2077 44.73 28.2077C44.4011 28.2077 44.1474 28.3503 43.9688 28.6353C43.7903 28.9203 43.701 29.3244 43.701 29.8475Z" fill="#252525"/>
<path d="M43.1644 31.4308V31.4684H42.6805C42.6053 31.4684 42.5489 31.4575 42.5113 31.4355C42.4737 31.4136 42.4346 31.3713 42.3939 31.3087L41.675 30.1482C41.6312 30.0761 41.5936 30.0323 41.5623 30.0166C41.5341 29.9978 41.4824 29.9884 41.4072 29.9884H41.0595L41.0595 31.3932L41.4683 31.4308V31.4684H40.3125V31.4308L40.6978 31.3932L40.6978 28.3017L40.3125 28.2641V28.2266L41.5012 28.2266C41.8708 28.2266 42.1527 28.3017 42.3469 28.4521C42.5411 28.5993 42.6382 28.8139 42.6382 29.0958C42.6382 29.315 42.5787 29.4951 42.4596 29.6361C42.3406 29.777 42.1683 29.8741 41.9428 29.9274H41.9475L42.8073 31.2711C42.848 31.3337 42.8872 31.376 42.9248 31.3979C42.9655 31.4199 43.0234 31.4308 43.0986 31.4308H43.1644ZM41.0595 28.2829V29.918L41.4871 29.918C41.7377 29.918 41.9225 29.8522 42.0415 29.7206C42.1636 29.5859 42.2247 29.3808 42.2247 29.1052C42.2247 28.8264 42.1636 28.6197 42.0415 28.485C41.9193 28.3503 41.7345 28.2829 41.4871 28.2829L41.0595 28.2829Z" fill="#252525"/>
<path d="M38.9693 29.1615L38.9317 29.1662L38.6498 28.4568C38.6216 28.3847 38.5903 28.3378 38.5559 28.3158C38.5245 28.2939 38.4713 28.2829 38.3961 28.2829L37.4423 28.2829V29.7253L38.1236 29.7253C38.1988 29.7253 38.252 29.7128 38.2834 29.6877C38.3147 29.6627 38.3366 29.6141 38.3491 29.5421L38.429 29.1615H38.4854L38.4854 30.3643H38.429L38.3491 29.9837C38.3366 29.9117 38.3147 29.8632 38.2834 29.8381C38.252 29.813 38.1988 29.8005 38.1236 29.8005L37.4423 29.8005L37.4423 31.3932L37.9028 31.4308V31.4684L36.6953 31.4684V31.4308L37.0806 31.3932L37.0806 28.3017L36.6953 28.2641V28.2266L38.8941 28.2266L38.9693 29.1615Z" fill="#252525"/>
<path d="M34.8081 28.1514C35.0806 28.1514 35.3296 28.2265 35.5551 28.3769C35.7838 28.5272 35.9623 28.7324 36.0907 28.9924C36.2223 29.2492 36.2881 29.5342 36.2881 29.8475C36.2881 30.1607 36.2223 30.4473 36.0907 30.7073C35.9623 30.9641 35.7838 31.1677 35.5551 31.318C35.3296 31.4684 35.0806 31.5436 34.8081 31.5436C34.5356 31.5436 34.285 31.4684 34.0564 31.318C33.8308 31.1677 33.6523 30.9641 33.5208 30.7073C33.3923 30.4473 33.3281 30.1607 33.3281 29.8475C33.3281 29.5342 33.3923 29.2492 33.5208 28.9924C33.6523 28.7324 33.8308 28.5272 34.0564 28.3769C34.285 28.2265 34.5356 28.1514 34.8081 28.1514ZM33.7792 29.8475C33.7792 30.3705 33.8684 30.7746 34.047 31.0596C34.2255 31.3415 34.4792 31.4825 34.8081 31.4825C35.137 31.4825 35.3907 31.3415 35.5692 31.0596C35.7478 30.7746 35.837 30.3705 35.837 29.8475C35.837 29.3244 35.7478 28.9203 35.5692 28.6353C35.3907 28.3503 35.137 28.2077 34.8081 28.2077C34.4792 28.2077 34.2255 28.3503 34.047 28.6353C33.8684 28.9203 33.7792 29.3244 33.7792 29.8475Z" fill="#252525"/>
<path d="M31.6814 30.4818L31.5639 31.4684L29.2617 31.4684V31.4308L29.647 31.3932L29.647 28.3017L29.2617 28.2641V28.2266L31.5686 28.2266L31.6344 29.1099L31.5874 29.1145L31.3243 28.4568C31.2961 28.3847 31.2648 28.3378 31.2303 28.3158C31.199 28.2939 31.1458 28.2829 31.0706 28.2829L30.0088 28.2829L30.0088 29.7253L30.7041 29.7253C30.7793 29.7253 30.8325 29.7128 30.8639 29.6877C30.8952 29.6627 30.9171 29.6141 30.9296 29.5421L31.0095 29.1615H31.0659L31.0659 30.3643H31.0095L30.9296 29.9837C30.9171 29.9117 30.8952 29.8632 30.8639 29.8381C30.8325 29.813 30.7793 29.8005 30.7041 29.8005L30.0088 29.8005L30.0088 31.412L31.0612 31.412C31.1364 31.412 31.1912 31.4011 31.2256 31.3791C31.2601 31.3541 31.2914 31.3071 31.3196 31.2382L31.6297 30.4771L31.6814 30.4818Z" fill="#252525"/>
<path d="M29.2269 31.4308V31.4684H28.743C28.6678 31.4684 28.6114 31.4575 28.5738 31.4355C28.5362 31.4136 28.4971 31.3713 28.4564 31.3087L27.7375 30.1482C27.6937 30.0761 27.6561 30.0323 27.6248 30.0166C27.5966 29.9978 27.5449 29.9884 27.4697 29.9884H27.122L27.122 31.3932L27.5308 31.4308V31.4684H26.375V31.4308L26.7603 31.3932L26.7603 28.3017L26.375 28.2641V28.2266L27.5637 28.2266C27.9333 28.2266 28.2152 28.3017 28.4094 28.4521C28.6036 28.5993 28.7007 28.8139 28.7007 29.0958C28.7007 29.315 28.6412 29.4951 28.5221 29.6361C28.4031 29.777 28.2308 29.8741 28.0053 29.9274H28.01L28.8698 31.2711C28.9105 31.3337 28.9497 31.376 28.9873 31.3979C29.028 31.4199 29.0859 31.4308 29.1611 31.4308H29.2269ZM27.122 28.2829L27.122 29.918L27.5496 29.918C27.8002 29.918 27.985 29.8522 28.104 29.7206C28.2261 29.5859 28.2872 29.3808 28.2872 29.1052C28.2872 28.8264 28.2261 28.6197 28.104 28.485C27.9818 28.3503 27.797 28.2829 27.5496 28.2829L27.122 28.2829Z" fill="#252525"/>
<path d="M25.5766 28.5132C25.5766 28.438 25.5672 28.3863 25.5484 28.3581C25.5296 28.3299 25.492 28.3111 25.4356 28.3017L25.102 28.2641V28.2266H26.131V28.2641L25.7927 28.3017C25.7363 28.3111 25.6987 28.3299 25.6799 28.3581C25.6611 28.3863 25.6518 28.438 25.6518 28.5132L25.6518 30.3173C25.6518 30.5147 25.6361 30.6791 25.6048 30.8106C25.5766 30.9422 25.5312 31.055 25.4685 31.1489C25.3839 31.2711 25.2681 31.3682 25.1208 31.4402C24.9736 31.5091 24.8107 31.5436 24.6322 31.5436C24.4881 31.5436 24.3456 31.5201 24.2047 31.4731C24.0637 31.4261 23.9463 31.3619 23.8523 31.2805C23.7552 31.1959 23.6863 31.0879 23.6456 30.9563C23.6048 30.8247 23.5845 30.6431 23.5845 30.4113L23.5845 28.3017L23.1992 28.2641V28.2266L24.355 28.2266V28.2641L23.9463 28.3017L23.9463 30.5663C23.9463 30.795 23.9666 30.9704 24.0073 31.0925C24.0512 31.2147 24.1232 31.3055 24.2235 31.3651C24.2767 31.3964 24.3425 31.4214 24.4208 31.4402C24.4991 31.459 24.5805 31.4684 24.6651 31.4684C24.8217 31.4684 24.9658 31.4371 25.0973 31.3744C25.2289 31.3118 25.3338 31.2225 25.4121 31.1066C25.4716 31.0189 25.5139 30.9171 25.539 30.8013C25.564 30.6822 25.5766 30.5287 25.5766 30.3408L25.5766 28.5132Z" fill="#252525"/>
<path d="M21.2958 31.3932L21.2958 28.2782L20.6757 28.2782C20.6005 28.2782 20.5457 28.2908 20.5112 28.3158C20.4768 28.3377 20.4439 28.3847 20.4126 28.4568L20.0884 29.1803L20.0508 29.1709L20.234 28.1514H20.2622C20.3311 28.1827 20.3891 28.203 20.436 28.2124C20.4862 28.2218 20.5488 28.2265 20.624 28.2265L22.4328 28.2265C22.508 28.2265 22.5691 28.2218 22.6161 28.2124C22.6662 28.203 22.7257 28.1827 22.7946 28.1514H22.8228L22.9262 29.1709L22.8886 29.1803L22.5973 28.4568C22.5691 28.3847 22.5378 28.3377 22.5033 28.3158C22.472 28.2908 22.4187 28.2782 22.3436 28.2782H21.6576L21.6576 31.3932L22.165 31.4308V31.4684L20.7884 31.4684V31.4308L21.2958 31.3932Z" fill="#252525"/>
<path d="M20.1136 31.4308V31.4684H19.6297C19.5545 31.4684 19.4981 31.4575 19.4605 31.4355C19.423 31.4136 19.3838 31.3713 19.3431 31.3087L18.6242 30.1482C18.5804 30.0761 18.5428 30.0323 18.5115 30.0166C18.4833 29.9978 18.4316 29.9884 18.3564 29.9884H18.0088L18.0088 31.3932L18.4175 31.4308V31.4684H17.2617V31.4308L17.647 31.3932L17.647 28.3017L17.2617 28.2641V28.2266L18.4504 28.2266C18.82 28.2266 19.1019 28.3017 19.2961 28.4521C19.4903 28.5993 19.5874 28.8139 19.5874 29.0958C19.5874 29.315 19.5279 29.4951 19.4089 29.6361C19.2898 29.777 19.1176 29.8741 18.892 29.9274H18.8967L19.7565 31.2711C19.7973 31.3337 19.8364 31.376 19.874 31.3979C19.9147 31.4199 19.9727 31.4308 20.0478 31.4308H20.1136ZM18.0088 28.2829L18.0088 29.918L18.4363 29.918C18.6869 29.918 18.8717 29.8522 18.9907 29.7206C19.1129 29.5859 19.1739 29.3808 19.1739 29.1052C19.1739 28.8264 19.1129 28.6197 18.9907 28.485C18.8686 28.3503 18.6837 28.2829 18.4363 28.2829L18.0088 28.2829Z" fill="#252525"/>
<path d="M16.7986 30.4818L16.6811 31.4684L14.3789 31.4684V31.4308L14.7642 31.3932L14.7642 28.3017L14.3789 28.2641V28.2266L16.6858 28.2266L16.7516 29.1099L16.7046 29.1145L16.4415 28.4568C16.4133 28.3847 16.382 28.3378 16.3475 28.3158C16.3162 28.2939 16.2629 28.2829 16.1878 28.2829L15.1259 28.2829L15.1259 29.7253L15.8213 29.7253C15.8965 29.7253 15.9497 29.7128 15.981 29.6877C16.0124 29.6627 16.0343 29.6141 16.0468 29.5421L16.1267 29.1615H16.1831L16.1831 30.3643H16.1267L16.0468 29.9837C16.0343 29.9117 16.0124 29.8632 15.981 29.8381C15.9497 29.813 15.8965 29.8005 15.8213 29.8005L15.1259 29.8005L15.1259 31.412L16.1784 31.412C16.2535 31.412 16.3084 31.4011 16.3428 31.3791C16.3773 31.3541 16.4086 31.3071 16.4368 31.2382L16.7469 30.4771L16.7986 30.4818Z" fill="#252525"/>
<path d="M13.7438 28.3158C13.7218 28.3002 13.6858 28.2908 13.6357 28.2876L13.3491 28.2641V28.2266L14.3499 28.2266V28.2641L14.0868 28.2876C14.0084 28.2939 13.9521 28.3096 13.9176 28.3346C13.8863 28.3565 13.8581 28.4035 13.833 28.4756L12.682 31.5436H12.5974L11.4087 28.3017L11.0234 28.2641V28.2266L12.198 28.2266V28.2641L11.7893 28.3017L12.7853 31.0221H12.8041L13.7579 28.4756C13.7704 28.4443 13.7767 28.4145 13.7767 28.3863C13.7767 28.355 13.7657 28.3315 13.7438 28.3158Z" fill="#252525"/>
<path d="M9.51123 28.1514C9.78373 28.1514 10.0327 28.2265 10.2583 28.3769C10.4869 28.5272 10.6655 28.7324 10.7939 28.9924C10.9254 29.2492 10.9912 29.5342 10.9912 29.8475C10.9912 30.1607 10.9254 30.4473 10.7939 30.7073C10.6655 30.9641 10.4869 31.1677 10.2583 31.318C10.0327 31.4684 9.78373 31.5436 9.51123 31.5436C9.23872 31.5436 8.98814 31.4684 8.75949 31.318C8.53397 31.1677 8.35544 30.9641 8.22388 30.7073C8.09546 30.4473 8.03125 30.1607 8.03125 29.8475C8.03125 29.5342 8.09546 29.2492 8.22388 28.9924C8.35544 28.7324 8.53397 28.5272 8.75949 28.3769C8.98814 28.2265 9.23872 28.1514 9.51123 28.1514ZM8.48229 29.8475C8.48229 30.3705 8.57156 30.7746 8.7501 31.0596C8.92863 31.3415 9.18234 31.4825 9.51123 31.4825C9.84011 31.4825 10.0938 31.3415 10.2724 31.0596C10.4509 30.7746 10.5402 30.3705 10.5402 29.8475C10.5402 29.3244 10.4509 28.9203 10.2724 28.6353C10.0938 28.3503 9.84011 28.2077 9.51123 28.2077C9.18234 28.2077 8.92863 28.3503 8.7501 28.6353C8.57156 28.9203 8.48229 29.3244 8.48229 29.8475Z" fill="#252525"/>
<path d="M14.6807 10.458C16.6089 10.4582 18.1716 12.021 18.1719 13.9492V21.3809C18.1718 23.3093 16.609 24.8719 14.6807 24.8721C12.7521 24.8721 11.1895 23.3094 11.1895 21.3809V13.9492C11.1897 12.0209 12.7522 10.458 14.6807 10.458ZM64.9648 10.458C66.8931 10.4583 68.4558 12.021 68.4561 13.9492V21.3809C68.456 23.3092 66.8932 24.8718 64.9648 24.8721C63.0363 24.8721 61.4737 23.3094 61.4736 21.3809V13.9492C61.4739 12.0209 63.0364 10.458 64.9648 10.458ZM43.6279 21.4355L43.6455 21.5928C43.6747 21.7628 43.7392 21.9669 43.8438 22.123C43.9057 22.2156 43.9692 22.2716 44.0283 22.3057C44.082 22.3365 44.1744 22.374 44.3398 22.374C44.6234 22.3738 44.793 22.2624 44.9395 22.0684C45.1008 21.8542 45.192 21.5734 45.2246 21.3848V10.6445H47.6328V21.5596L47.623 21.6338C47.5591 22.1451 47.342 22.879 46.8613 23.5166C46.3506 24.1941 45.5182 24.782 44.3398 24.7822C43.1493 24.7822 42.3251 24.1806 41.8438 23.4619C41.4001 22.7991 41.2435 22.0457 41.2227 21.5332V10.6445H43.6279V21.4355ZM27.7314 10.458C29.0693 10.4581 29.9852 11.1158 30.5088 11.9453C30.9888 12.7063 31.123 13.5706 31.1143 14.1494L29.9092 14.1299L28.707 14.1123C28.7107 13.8683 28.6425 13.4961 28.4736 13.2285C28.3978 13.1085 28.3124 13.0261 28.2188 12.9717C28.1291 12.9197 27.9803 12.8643 27.7314 12.8643C27.4637 12.8644 27.3237 12.9211 27.2549 12.96C27.1868 12.9985 27.1284 13.0552 27.0732 13.1484C26.9421 13.3705 26.8739 13.7295 26.875 14.126V15.3486C26.8751 15.5064 26.9462 15.7839 27.1064 15.9971C27.2334 16.1657 27.4065 16.2927 27.7314 16.293C29.077 16.2931 30.0051 16.9036 30.5361 17.7402C31.0152 18.4955 31.1142 19.3358 31.1143 19.8369V20.9102C31.1143 21.2355 31.0549 22.0866 30.6387 22.9014C30.4228 23.3238 30.0909 23.773 29.5898 24.1162C29.0781 24.4666 28.4522 24.6601 27.7314 24.6602C26.7103 24.6599 25.7983 24.2738 25.1963 23.4238C24.6472 22.6485 24.4688 21.6414 24.4688 20.6045H26.875C26.875 21.4264 27.0292 21.847 27.1611 22.0332C27.2399 22.1442 27.3585 22.2547 27.7314 22.2549C28.0027 22.2548 28.1478 22.1855 28.2305 22.1289C28.3233 22.0651 28.4129 21.9625 28.4932 21.8057C28.6698 21.4597 28.707 21.0335 28.707 20.9102V19.8369C28.707 19.5882 28.6473 19.2568 28.5029 19.0293C28.4403 18.9308 28.3667 18.861 28.2754 18.8105C28.1844 18.7604 28.0201 18.6983 27.7314 18.6982C26.5683 18.698 25.713 18.1493 25.1826 17.4443C24.6856 16.7836 24.4688 15.9892 24.4688 15.3486V14.1299C24.4674 13.5651 24.5449 12.6919 25 11.9219C25.5139 11.053 26.4274 10.4583 27.7314 10.458ZM6.58984 10.8438C7.44045 10.8438 8.37635 11.0785 9.08398 11.8301C9.77933 12.5688 10.0674 13.6101 10.0674 14.8232C10.0674 15.9124 9.74897 16.8178 9.10352 17.4775C9.72405 18.1137 10.0672 18.9582 10.0674 19.9385V24.5332H7.66113V19.9385C7.66094 19.4829 7.49768 19.2214 7.24414 19.0352C6.99054 18.8491 6.56963 18.6892 5.95703 18.6436V24.5332H3.55078V10.8438H6.58984ZM22.5371 24.4648H20.1084V10.6445H22.5371V24.4648ZM39.4111 13.0742H37.1992V24.4648H34.7705V13.0742H32.5664V10.6445H39.4111V13.0742ZM60.0244 24.4648H57.5947V10.6445H60.0244V24.4648ZM52.9346 10.7129C54.7072 10.7129 56.1443 12.1493 56.1445 13.9219V21.1318C56.1445 22.9046 54.7073 24.3408 52.9346 24.3408H49.8438V10.7129H52.9346ZM14.6807 12.8643C14.0818 12.8643 13.595 13.3504 13.5947 13.9492V21.3809C13.5948 21.9798 14.0817 22.4658 14.6807 22.4658C15.2794 22.4656 15.7656 21.9797 15.7656 21.3809V13.9492C15.7654 13.3506 15.2793 12.8645 14.6807 12.8643ZM64.9648 12.8643C64.366 12.8643 63.8792 13.3504 63.8789 13.9492V21.3809C63.879 21.9798 64.3659 22.4658 64.9648 22.4658C65.5636 22.4656 66.0497 21.9797 66.0498 21.3809V13.9492C66.0496 13.3506 65.5635 12.8645 64.9648 12.8643ZM52.249 21.9355H52.9346C53.3778 21.9355 53.7383 21.575 53.7383 21.1318V13.9219C53.7381 13.4789 53.3776 13.1191 52.9346 13.1191H52.249V21.9355ZM5.95703 16.2061C6.61311 16.1744 7.02473 16.0628 7.26172 15.9043C7.43753 15.7864 7.66111 15.5593 7.66113 14.8232C7.66113 13.9546 7.45309 13.6083 7.33203 13.4795C7.22305 13.3638 7.02054 13.25 6.58984 13.25H5.95703V16.2061Z" fill="#252525"/>
</svg>
