<svg width="115" height="42" viewBox="0 0 115 42" fill="none" xmlns="http://www.w3.org/2000/svg">
<rect width="115" height="42" fill="white"/>
<path fill-rule="evenodd" clip-rule="evenodd" d="M56.9781 7.02866C56.8755 7.139 56.7682 7.37867 56.7398 7.56138C56.7033 7.79543 56.5782 7.99534 56.3164 8.2383C56.1119 8.42788 55.9446 8.65373 55.9446 8.74009C55.9446 8.85685 55.9036 8.87922 55.7847 8.82726C55.6968 8.78876 55.4313 8.74063 55.195 8.72022C54.8281 8.68858 54.7311 8.71638 54.5323 8.91024C54.2821 9.15427 54.2253 9.55686 54.397 9.8697C54.4932 10.0451 54.4904 10.0453 54.1914 9.88743C53.971 9.77103 53.6881 9.72745 53.1569 9.72798C52.4833 9.72861 52.3717 9.75633 51.7402 10.0798C51.2568 10.3274 50.893 10.4466 50.5062 10.4843L49.9578 10.5377L50.3234 10.6991C50.7736 10.8979 51.6606 10.9118 52.1126 10.7271C52.2923 10.6537 52.6469 10.4483 52.9004 10.2706C53.3489 9.95642 53.7735 9.85588 53.8881 10.0367C53.9192 10.0857 53.8868 10.1259 53.8163 10.1259C53.7457 10.1259 53.61 10.2099 53.5145 10.3127C53.4192 10.4153 53.2175 10.5555 53.0662 10.6242C52.7972 10.7463 52.8023 10.7484 53.3011 10.721C53.6922 10.6996 53.8901 10.6341 54.1508 10.4403C54.4075 10.2493 54.5164 10.2127 54.5961 10.2904C54.6758 10.3681 54.6675 10.3932 54.5621 10.3932C54.4854 10.3932 54.3261 10.4935 54.208 10.6161C54.0899 10.7386 53.9183 10.8389 53.8265 10.8389C53.7347 10.8389 53.6596 10.8842 53.6596 10.9398C53.6596 11.096 54.3789 10.9701 54.6652 10.7637L54.9115 10.5861L55.1547 10.806C55.2885 10.9268 55.4663 11.1277 55.55 11.2522C55.6732 11.4356 55.7599 11.472 56.0062 11.444C56.1733 11.4251 56.2793 11.4384 56.2416 11.4738C56.204 11.5092 56.0611 11.5513 55.9242 11.5673C55.5144 11.6153 55.7657 11.8274 56.3209 11.9021C56.6672 11.9487 56.7655 11.9887 56.653 12.037C56.0404 12.3001 57.1756 12.6247 57.9783 12.416C58.2807 12.3374 58.3079 12.1091 58.0271 12.0079C57.8661 11.9498 57.9242 11.9254 58.3111 11.8892C58.8713 11.8367 59.1055 11.6303 58.707 11.5401C58.4645 11.4853 58.4657 11.4836 58.7553 11.4733C58.9321 11.467 59.0523 11.416 59.0523 11.3472C59.0523 11.2836 59.2127 11.0789 59.4087 10.8922L59.7651 10.5529L60.0345 10.7471C60.3387 10.9664 61.0632 11.1021 61.0632 10.9398C61.0632 10.8842 60.988 10.8389 60.8963 10.8389C60.8045 10.8389 60.6328 10.7386 60.5147 10.6161C60.3966 10.4935 60.2373 10.3932 60.1606 10.3932C60.0553 10.3932 60.0469 10.3681 60.1267 10.2904C60.2064 10.2127 60.3152 10.2493 60.572 10.4403C60.8279 10.6307 61.0376 10.7015 61.4216 10.7275C61.7967 10.7528 61.8953 10.7371 61.7944 10.6681C61.719 10.6164 61.5867 10.5736 61.5005 10.5728C61.4143 10.5721 61.3001 10.4917 61.2465 10.3943C61.193 10.2968 61.0438 10.1913 60.9147 10.1597C60.7411 10.1172 60.7122 10.0825 60.8031 10.0263C61.0465 9.87585 61.3693 9.9533 61.8223 10.2706C62.0759 10.4483 62.4304 10.6537 62.6101 10.7271C63.0564 10.9094 63.947 10.8933 64.3993 10.6948L64.7649 10.5344L64.1708 10.4808C63.7128 10.4393 63.4302 10.3466 62.9369 10.0759C62.3391 9.74786 62.249 9.72486 61.5659 9.72602C61.0467 9.72691 60.7497 9.77219 60.5419 9.88209L60.2491 10.037L60.3023 9.59866C60.3496 9.20971 60.329 9.13448 60.1194 8.93011C59.8651 8.68207 59.2974 8.61335 58.9595 8.78965C58.8138 8.86576 58.764 8.83145 58.6346 8.56549C58.5505 8.39276 58.3663 8.18501 58.2251 8.10372C57.9705 7.95702 57.8677 7.7563 57.8654 7.40068C57.8639 7.18936 57.5091 6.82812 57.3029 6.82812C57.2269 6.82812 57.0808 6.91832 56.9781 7.02866ZM57.4528 8.3433C57.4839 8.39232 57.4427 8.43242 57.3614 8.43242C57.28 8.43242 57.2389 8.39232 57.27 8.3433C57.3011 8.29428 57.3422 8.25417 57.3614 8.25417C57.3806 8.25417 57.4217 8.29428 57.4528 8.3433ZM57.7834 9.06675C58.037 9.31407 57.9829 9.84269 57.6326 10.5409L57.3783 11.0477L57.1627 10.7873C56.9366 10.5142 56.6759 9.79331 56.6759 9.44117C56.6759 8.94116 57.4026 8.69544 57.7834 9.06675ZM55.4876 9.14545C55.4876 9.19447 55.4465 9.23457 55.3962 9.23457C55.346 9.23457 55.3048 9.19447 55.3048 9.14545C55.3048 9.09643 55.346 9.05632 55.3962 9.05632C55.4465 9.05632 55.4876 9.09643 55.4876 9.14545ZM59.4179 9.14545C59.4179 9.19447 59.3768 9.23457 59.3265 9.23457C59.2762 9.23457 59.2351 9.19447 59.2351 9.14545C59.2351 9.09643 59.2762 9.05632 59.3265 9.05632C59.3768 9.05632 59.4179 9.09643 59.4179 9.14545ZM56.1305 10.0858C56.2164 10.3334 56.3554 10.6655 56.4393 10.8238L56.592 11.1115L56.3369 11.0558C55.957 10.9729 55.3048 10.2853 55.3048 9.96765C55.3048 9.63796 55.3734 9.57656 55.7047 9.60918C55.9389 9.63217 55.9945 9.69447 56.1305 10.0858ZM59.3233 9.76355C59.3829 9.8721 59.3873 10.0123 59.3351 10.1423C59.214 10.4442 58.5906 10.9953 58.2879 11.0678C58.0309 11.1295 58.0287 11.1269 58.1643 10.9179C58.2403 10.8009 58.3944 10.4546 58.5068 10.1481C58.6922 9.64296 58.7353 9.59108 58.97 9.59108C59.1322 9.59108 59.264 9.65535 59.3233 9.76355ZM50.8347 11.3965C50.6635 11.4575 50.4381 11.6195 50.3339 11.7565C50.1591 11.9863 50.1552 12.0244 50.2825 12.2467C50.3809 12.4186 50.5067 12.4958 50.7208 12.5161C51.2513 12.5663 51.485 12.1523 51.0775 11.8837L50.8718 11.7482L51.1199 11.6858C51.5272 11.5832 52.0055 11.8787 52.4546 12.5102C52.9458 13.2011 53.4525 13.5113 54.1971 13.5771C54.7195 13.6233 55.6248 13.4786 55.7162 13.3343C55.7823 13.2301 54.6022 11.9975 54.4365 11.9975C54.4114 11.9975 54.3908 12.0998 54.3908 12.2248C54.3908 12.51 54.6146 12.9404 54.825 13.0599C54.9129 13.1099 54.9379 13.152 54.8804 13.1535C54.8228 13.1549 54.648 13.0398 54.4919 12.8976C54.0629 12.5068 54.1249 12.0102 54.6359 11.7449C54.8112 11.6538 54.8387 11.6654 54.8644 11.8417C54.8993 12.0814 55.2231 12.1564 55.3877 11.963C55.7003 11.5957 54.9849 11.2595 54.3282 11.4652C53.8758 11.607 53.6837 11.7767 53.6111 12.0992L53.5522 12.3606L53.1829 12.0354C52.512 11.4442 51.4855 11.165 50.8347 11.3965ZM62.5927 11.377C62.1059 11.4952 61.6126 11.7586 61.2819 12.0769L60.998 12.3502L60.8599 12.0075C60.7476 11.7287 60.6435 11.6357 60.3023 11.5086C59.6269 11.2571 58.8617 11.5047 59.1133 11.8936C59.2623 12.1239 59.6281 12.0835 59.6896 11.8299L59.7409 11.6176L60.0364 11.86C60.1989 11.9934 60.3319 12.1811 60.3319 12.2773C60.3319 12.5701 60.0859 12.9372 59.8132 13.0512C59.6036 13.1387 59.5816 13.1378 59.6963 13.0462C59.9545 12.84 60.1491 12.4957 60.1491 12.245C60.1491 12.1089 60.108 11.9975 60.0577 11.9975C60.0075 11.9975 59.9663 12.0366 59.9663 12.0843C59.9663 12.1321 59.8412 12.2343 59.6882 12.3114C59.5352 12.3886 59.3718 12.55 59.3249 12.6702C59.278 12.7904 59.1142 12.9631 58.9607 13.0541C58.7477 13.1804 58.7094 13.2406 58.7985 13.3086C59.1948 13.6111 60.2307 13.6917 60.8748 13.47C61.392 13.2921 61.6586 13.073 62.1353 12.4343C62.5549 11.8719 63.0234 11.585 63.3549 11.6876C63.5655 11.7528 63.5835 11.8697 63.3939 11.9407C63.2198 12.0057 63.2163 12.2994 63.388 12.4384C63.606 12.6148 64.1058 12.5174 64.2294 12.2743C64.5439 11.6556 63.5927 11.1342 62.5927 11.377ZM57.8301 11.5339C57.6858 11.5514 57.5316 11.5307 57.4874 11.4876C57.4414 11.4428 57.5534 11.4292 57.7499 11.4557C58.0654 11.4983 58.0718 11.5045 57.8301 11.5339ZM57.0186 11.5242C56.9307 11.5466 56.7866 11.5466 56.6987 11.5242C56.6108 11.5018 56.6827 11.4834 56.8587 11.4834C57.0346 11.4834 57.1065 11.5018 57.0186 11.5242ZM45.7675 11.7711C44.8105 12.1038 44.4957 13.0882 45.1694 13.641C45.5059 13.9172 45.8744 13.9328 46.198 13.6845C46.7105 13.2914 46.3628 12.6647 45.6432 12.6846L45.3268 12.6934L45.5318 12.4805C45.9996 11.9949 46.7809 12.1626 48.1909 13.0513C49.3462 13.7794 49.8928 13.9851 50.6911 13.9922C51.2084 13.9968 51.3991 13.9581 51.6737 13.7926C52.1167 13.5256 52.2886 13.2766 52.2886 12.9018C52.2886 12.6569 51.9914 11.9975 51.881 11.9975C51.8662 11.9975 51.8746 12.1761 51.8999 12.3943C51.9411 12.7503 51.9158 12.8204 51.6553 13.0745C51.3736 13.3491 51.3458 13.3564 50.7399 13.3141C50.1791 13.275 49.9784 13.2006 48.7866 12.5901C47.6007 11.9826 46.6675 11.6336 46.2597 11.6449C46.1823 11.6471 45.9608 11.7039 45.7675 11.7711ZM67.5926 11.7638C67.3381 11.8252 66.5155 12.1893 65.7646 12.5731C64.5479 13.195 64.3327 13.2756 63.7873 13.3143C63.1957 13.3563 63.1654 13.3482 62.8847 13.0745C62.62 12.8163 62.5985 12.754 62.6427 12.372L62.6911 11.953L62.4717 12.2204C62.1491 12.6134 62.1635 13.2213 62.5027 13.5297C62.9129 13.9028 63.1761 13.9937 63.8509 13.9954C64.5984 13.9974 65.1105 13.7931 66.5824 12.9059C67.654 12.2602 68.2833 12.0787 68.7083 12.293C68.8592 12.3691 69.0318 12.4891 69.0918 12.5596C69.1837 12.6676 69.1443 12.6863 68.8414 12.6786C68.1546 12.661 67.8382 13.2982 68.3419 13.6845C68.6807 13.9443 69.0325 13.919 69.371 13.6107C69.6107 13.3924 69.6549 13.2868 69.6549 12.9336C69.6549 11.9983 68.7498 11.485 67.5926 11.7638ZM12.186 12.1457C12.0156 12.2128 12.0434 12.7055 12.2213 12.7721C12.5716 12.9032 12.8669 12.4179 12.567 12.204C12.3921 12.0793 12.3652 12.0752 12.186 12.1457ZM102.445 12.1829C102.128 12.3634 102.347 12.8523 102.715 12.7838C102.912 12.7472 102.983 12.3957 102.83 12.2154C102.701 12.0647 102.66 12.0613 102.445 12.1829ZM10.9476 12.2321C10.9124 12.2665 10.8836 12.3882 10.8836 12.5026C10.8836 12.6664 10.9333 12.7106 11.1181 12.7106C11.3199 12.7106 11.3487 12.6764 11.3237 12.4663C11.2961 12.2327 11.0831 12.1 10.9476 12.2321ZM103.72 12.2321C103.685 12.2665 103.656 12.3882 103.656 12.5026C103.656 12.6664 103.706 12.7106 103.891 12.7106C104.093 12.7106 104.122 12.6764 104.097 12.4663C104.069 12.2327 103.856 12.1 103.72 12.2321ZM10.1523 12.4358C10.1523 12.5452 10.2114 12.6214 10.2961 12.6214C10.3813 12.6214 10.4279 12.5608 10.4104 12.4728C10.3659 12.2492 10.1523 12.2186 10.1523 12.4358ZM104.617 12.3526C104.55 12.4589 104.635 12.6214 104.759 12.6214C104.87 12.6214 104.871 12.3802 104.76 12.3133C104.713 12.2851 104.649 12.3028 104.617 12.3526ZM13.3514 12.4877C13.3514 12.606 14.9306 12.6214 27.016 12.6214C39.1013 12.6214 40.6805 12.606 40.6805 12.4877C40.6805 12.3695 39.1013 12.354 27.016 12.354C14.9306 12.354 13.3514 12.3695 13.3514 12.4877ZM74.3164 12.4877C74.3164 12.606 75.8957 12.6214 87.981 12.6214C100.066 12.6214 101.646 12.606 101.646 12.4877C101.646 12.3695 100.066 12.354 87.981 12.354C75.8957 12.354 74.3164 12.3695 74.3164 12.4877ZM24.7407 16.8623C24.7102 16.9398 24.6852 17.1183 24.6852 17.2588V17.5144L24.3425 17.207L23.9997 16.8998L23.9711 17.1672C23.9457 17.4039 23.9216 17.4236 23.7603 17.3395C23.419 17.1614 23.353 17.3075 23.6457 17.5931L23.9307 17.871L23.6454 17.8259L23.3599 17.7809L23.6107 17.9222C23.7487 17.9998 23.9456 18.224 24.0483 18.4203C24.1658 18.6448 24.354 18.8326 24.5553 18.9262C24.8562 19.0662 24.8936 19.0657 25.1734 18.9188C25.3371 18.8328 25.5512 18.6175 25.6491 18.4402C25.747 18.263 25.9506 18.0446 26.1016 17.9547C26.3551 17.804 26.3603 17.7915 26.1684 17.7912C25.9671 17.7908 25.9654 17.7838 26.1122 17.5653C26.293 17.2963 26.2355 17.2039 25.9727 17.3411C25.8027 17.4298 25.7821 17.4161 25.7821 17.2146C25.7821 16.927 25.6289 16.9276 25.3197 17.2165L25.0759 17.4443L25.0166 17.0828C24.9554 16.7097 24.8378 16.6157 24.7407 16.8623ZM24.9594 17.8301C24.9594 17.8518 24.9183 17.8942 24.868 17.9245C24.8178 17.9548 24.7766 17.9371 24.7766 17.8852C24.7766 17.8333 24.8178 17.7908 24.868 17.7908C24.9183 17.7908 24.9594 17.8085 24.9594 17.8301ZM24.698 18.3489C24.7853 18.5079 24.7501 18.4945 24.5173 18.2803C24.1812 17.971 24.16 17.9272 24.4089 18.0571C24.5083 18.109 24.6384 18.2403 24.698 18.3489ZM25.5003 17.9924C25.4793 18.0051 25.3593 18.0954 25.2336 18.1929L25.0051 18.3702L25.1793 18.1696C25.275 18.0594 25.395 17.9691 25.4459 17.9691C25.4967 17.9691 25.5212 17.9795 25.5003 17.9924ZM13.1568 18.8109C13.4721 19.1309 13.819 19.5947 13.9406 19.8582C14.1409 20.2926 15.5497 23.5215 17.1897 27.3052L17.8562 28.8427H18.5735H19.2907L19.5729 28.2411C19.7281 27.9101 20.4132 26.4162 21.0953 24.921C21.7776 23.4259 22.6174 21.5861 22.9617 20.8325L23.5876 19.4622L23.3137 19.1582C23.1632 18.991 23.04 18.7577 23.04 18.6397C23.04 18.5218 23.0045 18.4039 22.9612 18.3778C22.884 18.3312 22.2204 19.6303 21.8724 20.5092C21.7108 20.9174 19.4786 26.1838 19.1797 26.862L19.051 27.1541L18.817 26.5946C18.598 26.071 17.3046 23.0159 16.1496 20.2934C15.3792 18.4778 15.0709 18.2365 13.5227 18.2365H12.5912L13.1568 18.8109ZM29.7802 23.339C29.765 26.1455 29.7181 28.5318 29.676 28.6421L29.5996 28.8427H33.1287H36.6577L36.9437 28.4639C37.3594 27.9131 37.5686 27.4237 37.5709 26.9966L37.5729 26.6211L37.0473 27.1414C36.2398 27.9411 35.8249 28.0649 33.8026 28.1105L32.1802 28.1469L32.1798 23.6596C32.1795 19.3392 32.1728 19.1615 31.9978 18.8818C31.6961 18.3992 31.3235 18.2372 30.5143 18.2368L29.8081 18.2365L29.7802 23.339ZM38.1971 22.8261C38.2249 27.0638 38.1835 28.1911 37.9823 28.6867C37.9226 28.8336 38.1233 28.8427 41.4382 28.8427H44.9575L45.2544 28.513C45.6197 28.1073 45.8733 27.5637 45.9492 27.0237C46.0178 26.5357 45.919 26.5049 45.6387 26.9269C45.5254 27.0975 45.2169 27.3761 44.9532 27.546C44.237 28.0075 43.6166 28.1296 41.9867 28.1296H40.5891V23.746C40.5891 19.5444 40.5816 19.347 40.4063 18.9941C40.1384 18.4542 39.6882 18.2365 38.8401 18.2365L38.167 18.2364L38.1971 22.8261ZM26.722 18.8617C26.3093 19.3128 25.8525 19.5734 25.4748 19.5734H25.2408L25.2144 23.5619L25.1879 27.5503L24.8549 28.1965L24.5219 28.8427H26.203C27.1278 28.8427 27.8843 28.8188 27.8843 28.7895C27.8843 28.7604 27.8067 28.63 27.7119 28.4999C27.1922 27.7865 27.2056 27.9186 27.1545 22.9954L27.1074 18.4406L26.722 18.8617ZM51.3464 18.749C51.0553 19.4471 47.3488 26.9247 47.0607 27.3951C46.8946 27.6663 46.5592 28.1029 46.3155 28.3654L45.8721 28.8427H47.4851H49.0981L48.8043 28.4862C48.6331 28.2785 48.5108 28.0276 48.5108 27.8846C48.5109 27.7498 48.8119 26.9468 49.1796 26.1003L49.8482 24.5612L51.8514 24.5851L53.8545 24.6091L54.488 26.1243C54.8364 26.9576 55.1216 27.7412 55.1218 27.8656C55.1219 27.9901 55.0003 28.2307 54.8516 28.4004C54.7028 28.5701 54.5794 28.7391 54.5774 28.7758C54.5753 28.8125 55.4213 28.8427 56.4573 28.8427H58.3409L57.8443 28.3583C57.2418 27.7709 57.0024 27.3397 56.034 25.0993C55.6208 24.1434 54.8147 22.2868 54.2427 20.9734C53.6707 19.6601 53.2026 18.5472 53.2026 18.5001C53.2026 18.4517 52.8308 18.4147 52.3442 18.4147H51.4858L51.3464 18.749ZM83.5937 18.508C81.5991 18.7875 79.7694 20.6763 79.4283 22.8082C79.1998 24.2357 79.5037 25.9644 80.1578 26.9583C80.5809 27.6013 81.4482 28.3636 82.0971 28.6628C82.8539 29.0118 83.5308 29.1394 84.3676 29.0906C85.1738 29.0436 85.5778 28.8666 86.2443 28.2683C86.7398 27.8236 86.9842 27.7223 87.3472 27.8112C87.6119 27.876 87.8439 28.3149 87.8439 28.7507C87.8439 28.9615 87.8841 29.0209 88.0267 29.0209C88.2047 29.0209 88.2095 28.961 88.2109 26.7259C88.2117 25.4637 88.245 24.3806 88.285 24.3192C88.325 24.2578 88.746 24.1575 89.2205 24.0963C89.8757 24.0119 90.0832 23.953 90.0832 23.8515C90.0832 23.7362 89.7044 23.7146 87.3183 23.6942C84.6692 23.6717 84.5534 23.6776 84.5534 23.8374C84.5534 23.9791 84.6508 24.013 85.2019 24.0629C86.0002 24.1353 86.1587 24.2136 86.2323 24.5725C86.3219 25.0092 86.3005 26.6252 86.198 27.1594C86.0022 28.1804 85.2779 28.7551 84.1913 28.7516C83.0838 28.7479 82.366 28.218 81.9121 27.0688C81.5263 26.0922 81.4144 25.1678 81.4704 23.4215C81.5332 21.4632 81.8523 20.3147 82.5473 19.5448C83.0347 19.0048 83.5177 18.8294 84.3879 18.8763C85.2093 18.9206 85.648 19.1152 86.2102 19.6846C86.8329 20.3155 87.3383 21.4378 87.6149 22.8043C87.6491 22.9729 87.721 23.0494 87.8456 23.0494C88.0214 23.0494 88.0267 22.9827 88.0267 20.7766C88.0267 19.5266 87.9947 18.5039 87.9557 18.5039C87.9165 18.5039 87.7113 18.8448 87.4993 19.2614C87.2874 19.6781 87.0829 20.0172 87.0448 20.0149C87.0067 20.0126 86.8522 19.8583 86.7014 19.672C85.9446 18.7369 84.8598 18.3306 83.5937 18.508ZM90.5859 18.9445C90.5859 19.1105 90.6415 19.1277 91.1741 19.1277C91.782 19.1277 92.2222 19.239 92.3421 19.423C92.4386 19.5709 92.4291 28.0575 92.3323 28.2065C92.2395 28.3493 91.6328 28.4768 91.0201 28.4822C90.6482 28.4856 90.5859 28.5117 90.5859 28.6644C90.5859 28.8393 90.6464 28.8427 93.7621 28.8413C97.2723 28.8399 97.6794 28.7944 98.6369 28.2968C100.177 27.4963 101.097 25.8664 101.097 23.9386C101.097 22.0583 100.471 20.7533 99.0614 19.6935C97.8996 18.8202 97.9078 18.8217 93.9907 18.7893C90.6068 18.7614 90.5859 18.7624 90.5859 18.9445ZM97.2439 19.2989C98.5158 19.9316 99.1704 21.7586 99.0508 24.3417C98.9616 26.2698 98.6439 27.2361 97.8783 27.9073C97.3124 28.4034 97.0096 28.485 95.7338 28.4856C94.9263 28.4861 94.6819 28.4567 94.5684 28.3461C94.4417 28.2225 94.4248 27.6824 94.4248 23.7531V19.3003L94.6305 19.2196C94.7435 19.1753 95.3004 19.1365 95.868 19.1334C96.7131 19.1287 96.9622 19.1588 97.2439 19.2989ZM52.7492 21.9144C53.1645 22.9324 53.4834 23.7857 53.4579 23.8105C53.4324 23.8354 52.692 23.8447 51.8126 23.8314L50.2138 23.807L51.0426 21.8699C51.4983 20.8046 51.8989 19.9623 51.9327 19.9983C51.9664 20.0342 52.3338 20.8965 52.7492 21.9144ZM68.975 23.1608C69.0148 23.2711 69.0633 24.3873 69.0825 25.6413C69.1147 27.7402 69.1032 27.9578 68.938 28.382L68.7585 28.8427H70.989H73.2196L73.2166 28.3302C73.2136 27.8294 73.2098 27.822 73.0528 28.0051C72.7611 28.3454 72.537 28.397 71.3519 28.397H70.2033V27.3275V26.258H70.9821C71.6553 26.258 71.8098 26.2882 72.1228 26.4808C72.3218 26.6033 72.5061 26.7036 72.5322 26.7036C72.5584 26.7036 72.5798 26.3823 72.5798 25.9897V25.2758L72.0642 25.5441C71.6252 25.7725 71.4488 25.8123 70.876 25.8123H70.2033V25.2242C70.2033 24.4248 70.3917 24.0568 70.9167 23.8303C71.2449 23.6888 71.4325 23.6663 71.8894 23.714C72.5499 23.783 72.8459 23.6834 73.0674 23.3176C73.1511 23.1795 73.2196 23.0425 73.2196 23.0134C73.2196 22.9841 72.2483 22.9602 71.061 22.9602H68.9024L68.975 23.1608ZM62.4356 23.064C62.4363 23.0805 62.4962 23.2544 62.5686 23.4504C62.669 23.722 62.7008 24.3061 62.7024 25.9015C62.7042 27.8003 62.6875 28.0322 62.5236 28.3845C62.4241 28.5982 62.3428 28.7938 62.3428 28.8192C62.3428 28.9044 65.9491 28.7717 66.2743 28.6745C66.8846 28.4921 67.5881 28.0097 67.8942 27.5638C68.2826 26.9978 68.4127 26.5373 68.4148 25.7217C68.417 24.8208 68.2138 24.3234 67.637 23.8176C66.9099 23.1802 66.6154 23.1127 64.3765 23.0706C63.3083 23.0505 62.4348 23.0475 62.4356 23.064ZM66.2649 23.892C66.9173 24.221 67.2218 24.8958 67.2147 25.9967C67.2093 26.8254 67.0022 27.3282 66.4757 27.7906C66.0369 28.176 65.6905 28.2821 64.6032 28.3635L63.8052 28.4233V26.3355C63.8052 24.0254 63.8258 23.9335 64.3806 23.7662C64.7694 23.6489 65.9376 23.7269 66.2649 23.892ZM13.8998 35.0816C13.8998 35.1409 28.5851 35.1707 57.7727 35.1707C86.9603 35.1707 101.646 35.1409 101.646 35.0816C101.646 35.0223 86.9603 34.9925 57.7727 34.9925C28.5851 34.9925 13.8998 35.0223 13.8998 35.0816Z" fill="#252525"/>
</svg>
