<svg width="72" height="42" viewBox="0 0 72 42" fill="none" xmlns="http://www.w3.org/2000/svg">
<rect width="72" height="42" fill="white"/>
<path d="M40.1425 35.0456C40.0347 35.0516 39.9645 35.061 39.9315 35.073C39.9017 35.0819 39.8868 35.098 39.8866 35.1218C39.8866 35.1398 39.8969 35.1791 39.9178 35.239L40.3954 36.5896H40.413L40.8221 35.3513C40.84 35.2917 40.8494 35.2455 40.8495 35.2126C40.8495 35.1647 40.8269 35.1301 40.7821 35.1091C40.7371 35.0851 40.6541 35.0636 40.5341 35.0456V35.0095H41.3397V35.0456C41.1958 35.0666 41.094 35.0984 41.0341 35.1404C40.9741 35.1824 40.9274 35.2542 40.8944 35.3562L40.1425 37.5661C40.0915 37.7248 40.0345 37.8343 39.9716 37.8943C39.8936 37.9811 39.8039 38.0251 39.702 38.0251C39.618 38.0251 39.5471 37.999 39.4901 37.948C39.4333 37.9 39.4051 37.8383 39.4051 37.7634C39.4052 37.7037 39.4212 37.6558 39.454 37.6198C39.49 37.5838 39.5385 37.5661 39.5985 37.5661C39.6555 37.5662 39.6956 37.5811 39.7196 37.6111C39.7436 37.641 39.7632 37.6831 39.7782 37.737C39.7902 37.7789 39.8024 37.8089 39.8143 37.8269C39.8293 37.8478 39.8508 37.8581 39.8778 37.8581C39.9166 37.858 39.9524 37.8326 39.9852 37.782C40.0182 37.734 40.0546 37.6509 40.0936 37.5339L40.2684 36.9988L39.576 35.1989C39.5521 35.142 39.5203 35.1047 39.4813 35.0866C39.4453 35.0656 39.3763 35.0516 39.2743 35.0456V35.0095H40.1425V35.0456ZM20.2294 33.74C20.3522 33.74 20.4663 33.7615 20.5712 33.8034C20.6791 33.8454 20.795 33.9146 20.9178 34.0105L21.0253 33.7937H21.0839L21.1288 34.7751L21.0839 34.7888C21.0359 34.5878 20.9743 34.4105 20.8993 34.2575C20.7493 33.9486 20.5198 33.7937 20.2108 33.7937C20.025 33.7937 19.8764 33.8479 19.7655 33.9558C19.6545 34.0608 19.5985 34.2054 19.5985 34.3884C19.5986 34.5202 19.6294 34.6315 19.6893 34.7214C19.7522 34.8111 19.8375 34.8889 19.9452 34.9548C20.0562 35.0208 20.2129 35.1001 20.4139 35.1931C20.5938 35.274 20.7376 35.3506 20.8456 35.4226C20.9566 35.4946 21.0452 35.5851 21.1112 35.6931C21.1801 35.7981 21.2147 35.9288 21.2147 36.0847C21.2147 36.2586 21.1727 36.4145 21.0887 36.5525C21.0047 36.6875 20.8872 36.7938 20.7372 36.8718C20.5903 36.9497 20.424 36.989 20.2382 36.989C20.0973 36.989 19.9608 36.9665 19.829 36.9216C19.6971 36.8796 19.584 36.8198 19.4911 36.7419L19.3964 36.989H19.3378L19.2792 35.9138L19.3202 35.905C19.3651 36.1088 19.41 36.2677 19.455 36.3816C19.5029 36.4955 19.5645 36.5945 19.6395 36.6784C19.7925 36.8494 19.995 36.9353 20.2469 36.9353C20.4629 36.9353 20.6309 36.8793 20.7509 36.7683C20.8738 36.6543 20.9354 36.5013 20.9354 36.3093C20.9354 36.1745 20.9027 36.0604 20.8368 35.9675C20.7738 35.8745 20.6861 35.7952 20.5751 35.7292C20.4641 35.6632 20.3082 35.5867 20.1073 35.4997C19.9423 35.4277 19.8042 35.3568 19.6932 35.2878C19.5824 35.2159 19.4898 35.1243 19.4149 35.0134C19.3429 34.8994 19.3065 34.7613 19.3065 34.5993C19.3065 34.4345 19.3458 34.2878 19.4237 34.1589C19.5047 34.0269 19.6138 33.9243 19.7518 33.8523C19.8928 33.7773 20.0524 33.74 20.2294 33.74ZM36.7157 36.2292C36.7157 36.3492 36.7185 36.4379 36.7245 36.4948C36.7305 36.5488 36.7426 36.5955 36.7606 36.6345C36.7816 36.6823 36.8163 36.7208 36.8641 36.7507C36.9151 36.7777 36.972 36.7917 37.035 36.7917C37.1099 36.7917 37.1819 36.7739 37.2509 36.738C37.3199 36.699 37.3833 36.643 37.4403 36.571V35.0818L37.1698 35.0456V35.0095H37.7323V36.6384L37.9803 36.6931V36.7155L37.4891 36.9402H37.4628V36.6345L37.4491 36.6296C37.2722 36.8515 37.0817 36.9625 36.8778 36.9626C36.7848 36.9626 36.7018 36.943 36.6298 36.904C36.5579 36.865 36.5055 36.8108 36.4725 36.7419C36.4516 36.7029 36.4385 36.6505 36.4325 36.5847C36.4265 36.5157 36.4227 36.3972 36.4227 36.2292V35.0818L36.1532 35.0456V35.0095H36.7157V36.2292ZM38.703 34.5818V35.0095H39.2167L39.1893 35.0818H38.703V36.4587C38.703 36.5634 38.7199 36.6412 38.7528 36.6921C38.7888 36.764 38.8561 36.8004 38.955 36.8005C39.0029 36.8005 39.0496 36.7884 39.0946 36.7644C39.1396 36.7404 39.189 36.7012 39.243 36.6472L39.2616 36.6609C39.2166 36.7539 39.1513 36.8276 39.0673 36.8816C38.9864 36.9354 38.8994 36.9626 38.8065 36.9626C38.7107 36.9626 38.6255 36.9354 38.5507 36.8816C38.4997 36.8456 38.4633 36.7989 38.4423 36.7419C38.4213 36.685 38.411 36.6101 38.411 36.5173V35.0769H38.1991L38.1903 35.0544L38.6854 34.5779L38.703 34.5818ZM51.6776 36.2292C51.6776 36.3492 51.6804 36.4379 51.6864 36.4948C51.6924 36.5488 51.7045 36.5955 51.7225 36.6345C51.7435 36.6823 51.7782 36.7208 51.826 36.7507C51.877 36.7777 51.934 36.7917 51.9969 36.7917C52.0718 36.7917 52.1439 36.7739 52.2128 36.738C52.2818 36.699 52.3452 36.643 52.4022 36.571V35.0818L52.1317 35.0456V35.0095H52.6942V36.6384L52.9423 36.6931V36.7155L52.451 36.9402H52.4247V36.6345L52.411 36.6296C52.2341 36.8515 52.0436 36.9625 51.8397 36.9626C51.7467 36.9626 51.6637 36.943 51.5917 36.904C51.5198 36.865 51.4674 36.8108 51.4344 36.7419C51.4135 36.7029 51.4004 36.6505 51.3944 36.5847C51.3884 36.5157 51.3846 36.3972 51.3846 36.2292V35.0818L51.1151 35.0456V35.0095H51.6776V36.2292ZM24.5604 34.9636C24.7703 34.9636 24.9309 35.0272 25.0419 35.153C25.1559 35.276 25.2146 35.4561 25.2176 35.6931L25.1903 35.7155H23.9755C23.9695 35.7935 23.9667 35.8551 23.9667 35.9001C23.9667 36.173 24.0227 36.3811 24.1337 36.5251C24.2446 36.6661 24.3986 36.737 24.5966 36.737C24.6986 36.737 24.7965 36.7146 24.8895 36.6696C24.9854 36.6217 25.0695 36.5507 25.1415 36.4577L25.1815 36.404L25.2001 36.4128L25.1815 36.4626C25.1215 36.6215 25.0319 36.7448 24.912 36.8318C24.7951 36.9187 24.654 36.9616 24.4891 36.9616C24.3271 36.9616 24.1825 36.9197 24.0565 36.8357C23.9307 36.7517 23.8316 36.6349 23.7596 36.4851C23.6906 36.3351 23.6561 36.1625 23.6561 35.9675C23.6561 35.7727 23.6936 35.5989 23.7684 35.446C23.8434 35.2931 23.9498 35.1736 24.0878 35.0896C24.2257 35.0056 24.3835 34.9636 24.5604 34.9636ZM26.4667 34.9636C26.6767 34.9636 26.8371 35.0271 26.9481 35.153C27.0621 35.276 27.1209 35.4561 27.1239 35.6931L27.0966 35.7155H25.8817C25.8757 35.7935 25.8729 35.8551 25.8729 35.9001C25.8729 36.1728 25.9281 36.3811 26.0389 36.5251C26.1499 36.6661 26.3048 36.737 26.5028 36.737C26.6046 36.737 26.7019 36.7145 26.7948 36.6696C26.8908 36.6217 26.9747 36.5507 27.0467 36.4577L27.0878 36.404L27.1053 36.4128L27.0878 36.4626C27.0278 36.6216 26.9372 36.7448 26.8173 36.8318C26.7003 36.9186 26.5592 36.9616 26.3944 36.9616C26.2325 36.9616 26.0887 36.9196 25.9628 36.8357C25.8368 36.7517 25.7379 36.635 25.6659 36.4851C25.5969 36.3351 25.5624 36.1625 25.5624 35.9675C25.5624 35.7727 25.5998 35.5989 25.6747 35.446C25.7497 35.293 25.856 35.1736 25.994 35.0896C26.132 35.0056 26.2897 34.9636 26.4667 34.9636ZM33.5087 34.9636C33.7184 34.9637 33.8792 35.0271 33.9901 35.153C34.104 35.276 34.1619 35.4562 34.1649 35.6931L34.1385 35.7155H32.9237C32.9177 35.7935 32.9139 35.8551 32.9139 35.9001C32.9139 36.173 32.97 36.3811 33.0809 36.5251C33.1919 36.666 33.346 36.7369 33.5438 36.737C33.6458 36.737 33.7438 36.7146 33.8368 36.6696C33.9328 36.6216 34.0167 36.5507 34.0887 36.4577L34.1288 36.404L34.1473 36.4128L34.1288 36.4626C34.0688 36.6215 33.9792 36.7448 33.8592 36.8318C33.7423 36.9187 33.6013 36.9616 33.4364 36.9616C33.2744 36.9616 33.1298 36.9197 33.0038 36.8357C32.878 36.7517 32.7788 36.6349 32.7069 36.4851C32.6379 36.3351 32.6034 36.1625 32.6034 35.9675C32.6034 35.7726 32.6417 35.599 32.7167 35.446C32.7917 35.293 32.898 35.1736 33.036 35.0896C33.1739 35.0057 33.3318 34.9636 33.5087 34.9636ZM46.9237 34.9636C47.1337 34.9636 47.2941 35.0271 47.4051 35.153C47.5191 35.276 47.5779 35.4561 47.5809 35.6931L47.5536 35.7155H46.3387C46.3327 35.7935 46.33 35.8551 46.33 35.9001C46.33 36.1728 46.3852 36.3811 46.496 36.5251C46.607 36.6661 46.7618 36.737 46.9598 36.737C47.0617 36.737 47.159 36.7145 47.2518 36.6696C47.3478 36.6217 47.4318 36.5507 47.5038 36.4577L47.5448 36.404L47.5624 36.4128L47.5448 36.4626C47.4848 36.6216 47.3943 36.7448 47.2743 36.8318C47.1574 36.9186 47.0162 36.9616 46.8514 36.9616C46.6896 36.9616 46.5457 36.9196 46.4198 36.8357C46.2939 36.7517 46.1949 36.635 46.1229 36.4851C46.0539 36.3351 46.0194 36.1625 46.0194 35.9675C46.0194 35.7727 46.0568 35.5989 46.1317 35.446C46.2067 35.293 46.313 35.1736 46.451 35.0896C46.589 35.0056 46.7467 34.9636 46.9237 34.9636ZM50.3788 34.9636C50.4505 34.9636 50.5238 34.9702 50.5985 34.9821C50.6733 34.9941 50.7351 35.0091 50.7831 35.0271V35.5261H50.7342C50.6923 35.3465 50.638 35.2164 50.5721 35.1355C50.5091 35.0545 50.4233 35.0134 50.3153 35.0134C50.2164 35.0134 50.137 35.0452 50.077 35.1081C50.017 35.1681 49.9872 35.2493 49.9872 35.3513C49.9872 35.4651 50.0199 35.5521 50.0858 35.612C50.1518 35.669 50.2526 35.7287 50.3876 35.7917C50.4926 35.8397 50.5746 35.8855 50.6346 35.9275C50.6976 35.9665 50.7508 36.0215 50.7928 36.0935C50.8378 36.1654 50.8602 36.257 50.8602 36.3679C50.8602 36.5509 50.8014 36.6964 50.6844 36.8044C50.5674 36.9094 50.4098 36.9616 50.2118 36.9616C50.1398 36.9616 50.0586 36.9542 49.9686 36.9392C49.8788 36.9242 49.802 36.9046 49.7391 36.8806L49.7167 36.2956H49.7714C49.8014 36.5056 49.8536 36.6624 49.9286 36.7644C50.0066 36.8632 50.1075 36.9128 50.2303 36.9128C50.341 36.9127 50.4291 36.878 50.495 36.8093C50.561 36.7373 50.5946 36.644 50.5946 36.53C50.5946 36.407 50.5601 36.3137 50.4911 36.2507C50.4221 36.1877 50.3185 36.1233 50.1805 36.0573C50.0785 36.0063 49.9955 35.9616 49.9325 35.9226C49.8726 35.8806 49.8221 35.8245 49.7801 35.7556C49.7382 35.6866 49.7167 35.5997 49.7167 35.4948C49.7167 35.327 49.7737 35.1962 49.8876 35.1032C50.0046 35.0102 50.1688 34.9636 50.3788 34.9636ZM55.495 34.9636C55.7048 34.9637 55.8655 35.0271 55.9764 35.153C56.0903 35.276 56.1482 35.4562 56.1512 35.6931L56.1249 35.7155H54.91C54.904 35.7935 54.9003 35.8551 54.9003 35.9001C54.9003 36.1729 54.9564 36.3811 55.0673 36.5251C55.1782 36.666 55.3324 36.7369 55.5301 36.737C55.6321 36.737 55.7301 36.7146 55.8231 36.6696C55.9191 36.6216 56.0031 36.5507 56.0751 36.4577L56.1161 36.404L56.1337 36.4128L56.1161 36.4626C56.0561 36.6216 55.9656 36.7448 55.8456 36.8318C55.7286 36.9187 55.5876 36.9616 55.4227 36.9616C55.2608 36.9616 55.117 36.9196 54.9911 36.8357C54.8651 36.7517 54.7652 36.6351 54.6932 36.4851C54.6243 36.3351 54.5897 36.1625 54.5897 35.9675C54.5897 35.7726 54.6281 35.5989 54.703 35.446C54.778 35.293 54.8843 35.1736 55.0223 35.0896C55.1603 35.0057 55.3181 34.9636 55.495 34.9636ZM35.3358 34.9685C35.4197 34.9685 35.4898 34.9853 35.5467 35.0183C35.6067 35.0512 35.6506 35.0971 35.6776 35.157C35.6926 35.196 35.702 35.2445 35.705 35.3015C35.7109 35.3585 35.7137 35.4679 35.7137 35.6296V36.489C35.7137 36.597 35.724 36.6726 35.745 36.7146C35.766 36.7534 35.8035 36.7731 35.8573 36.7732C35.9383 36.7732 35.999 36.7442 36.038 36.6872L36.0555 36.696C36.0196 36.7709 35.9718 36.8298 35.912 36.8718C35.852 36.9108 35.7866 36.9304 35.7176 36.9304C35.6398 36.9303 35.5752 36.9079 35.5243 36.863C35.4733 36.815 35.4453 36.7515 35.4393 36.6736L35.4257 36.6696C35.3567 36.7565 35.2773 36.8257 35.1874 36.8767C35.0975 36.9246 35.0058 36.9479 34.913 36.948C34.799 36.948 34.7038 36.9097 34.6288 36.8318C34.5569 36.7508 34.5214 36.647 34.5214 36.5212C34.5214 36.3712 34.5885 36.2509 34.7235 36.1609C34.8615 36.0709 35.0939 35.9925 35.4208 35.9265V35.5173C35.4208 35.3433 35.4012 35.223 35.3622 35.157C35.3231 35.0882 35.2558 35.0534 35.16 35.0534C35.0671 35.0534 34.9924 35.0796 34.9354 35.1306C34.8785 35.1785 34.8496 35.2441 34.8495 35.3279L34.8544 35.4499C34.8544 35.5247 34.8393 35.5847 34.8094 35.6296C34.7825 35.6716 34.7432 35.693 34.6923 35.6931C34.6474 35.6931 34.6099 35.6779 34.58 35.6482C34.553 35.6182 34.539 35.5789 34.5389 35.531C34.5389 35.459 34.5735 35.3806 34.6425 35.2966C34.7144 35.2097 34.806 35.1378 34.9169 35.0808C35.0519 35.0058 35.1918 34.9685 35.3358 34.9685ZM48.7509 34.9685C48.8348 34.9685 48.9058 34.9853 48.9628 35.0183C49.0224 35.0512 49.0657 35.0973 49.0926 35.157C49.1076 35.196 49.117 35.2445 49.12 35.3015C49.126 35.3585 49.1288 35.4679 49.1288 35.6296V36.489C49.1288 36.597 49.14 36.6726 49.161 36.7146C49.182 36.7533 49.2195 36.7732 49.2733 36.7732C49.3542 36.7731 49.414 36.7442 49.453 36.6872L49.4716 36.696C49.4356 36.771 49.387 36.8298 49.327 36.8718C49.2671 36.9108 49.2026 36.9304 49.1337 36.9304C49.0558 36.9304 48.9913 36.9079 48.9403 36.863C48.8893 36.815 48.8604 36.7516 48.8544 36.6736L48.8407 36.6696C48.7718 36.7565 48.6923 36.8258 48.6024 36.8767C48.5125 36.9246 48.4209 36.948 48.328 36.948C48.2142 36.948 48.1197 36.9095 48.0448 36.8318C47.9729 36.7508 47.9365 36.647 47.9364 36.5212C47.9364 36.3712 48.0045 36.2509 48.1395 36.1609C48.2776 36.0709 48.51 35.9924 48.8368 35.9265V35.5173C48.8368 35.3433 48.8172 35.223 48.7782 35.157C48.7392 35.0882 48.6717 35.0535 48.576 35.0534C48.483 35.0534 48.4075 35.0796 48.3505 35.1306C48.2937 35.1785 48.2656 35.2442 48.2655 35.3279L48.2694 35.4499C48.2694 35.5248 48.2544 35.5846 48.2245 35.6296C48.1975 35.6716 48.1583 35.6931 48.1073 35.6931C48.0625 35.693 48.0249 35.678 47.995 35.6482C47.968 35.6182 47.955 35.5789 47.955 35.531C47.955 35.459 47.9895 35.3806 48.0585 35.2966C48.1304 35.2097 48.222 35.1377 48.3329 35.0808C48.4677 35.0059 48.607 34.9685 48.7509 34.9685ZM22.0829 35.2566C22.1758 35.1606 22.272 35.0887 22.371 35.0407C22.4729 34.9898 22.5738 34.9646 22.6727 34.9646C22.7627 34.9646 22.8439 34.9842 22.9159 35.0232C22.9908 35.0622 23.0459 35.1163 23.0819 35.1853C23.1029 35.2243 23.1169 35.2784 23.1229 35.3474C23.1289 35.4135 23.1317 35.5303 23.1317 35.698V36.8454L23.4061 36.8816V36.9177H22.5653V36.8816L22.8397 36.8454V35.698C22.8397 35.575 22.836 35.4863 22.83 35.4323C22.8239 35.3754 22.8128 35.3287 22.7948 35.2927C22.7708 35.2417 22.7316 35.2025 22.6776 35.1755C22.6236 35.1455 22.5601 35.1306 22.4882 35.1306C22.3322 35.1306 22.1968 35.196 22.0829 35.3249V36.8454L22.3583 36.8816V36.9177H21.5165V36.8816L21.7909 36.8454V33.9792L21.5253 33.8796V33.8484L22.0477 33.6726H22.0829V35.2566ZM45.4852 36.8454L45.7596 36.8816V36.9177H44.9178V36.8816L45.1923 36.8454V33.9792L44.9266 33.8796V33.8484L45.4491 33.6726H45.4852V36.8454ZM27.9471 35.3601C28.1151 35.0961 28.2728 34.9636 28.4198 34.9636C28.4798 34.9636 28.5311 34.9851 28.5731 35.0271C28.6149 35.066 28.6355 35.1139 28.6356 35.1706C28.6356 35.2186 28.6197 35.2597 28.5868 35.2927C28.5538 35.3257 28.5127 35.3425 28.4647 35.3425C28.4348 35.3425 28.4095 35.3359 28.3885 35.3239C28.3706 35.309 28.3509 35.2883 28.33 35.2614C28.309 35.2374 28.2894 35.2188 28.2714 35.2068C28.2564 35.1948 28.2367 35.1892 28.2128 35.1892C28.1649 35.1892 28.1152 35.2173 28.0643 35.2741C28.0164 35.3311 27.9818 35.3974 27.9608 35.4724V36.8454L28.3212 36.8806V36.9167H27.3934V36.8806L27.6688 36.8454V35.2702L27.4032 35.1706V35.1394L27.911 34.9636H27.9471V35.3601ZM30.9852 33.8113C31.3391 33.8113 31.6088 33.8748 31.7948 34.0007C31.9808 34.1267 32.0741 34.3095 32.0741 34.5495C32.0741 34.7415 32.0153 34.9001 31.8983 35.0261C31.7814 35.152 31.6169 35.2304 31.4042 35.2605V35.278C31.6649 35.3141 31.8639 35.4001 32.0018 35.5349C32.1398 35.6699 32.2089 35.8471 32.2089 36.0661C32.2088 36.306 32.1248 36.5086 31.9569 36.6736C31.7919 36.8354 31.537 36.9167 31.1923 36.9167H29.8651V36.8806L30.2333 36.8445V33.8835L29.8651 33.8474V33.8113H30.9852ZM43.5966 33.8113C43.9476 33.8113 44.2162 33.8868 44.4022 34.0368C44.5911 34.1868 44.6863 34.3978 44.6864 34.6706C44.6864 34.9615 44.593 35.1836 44.4071 35.3366C44.2211 35.4896 43.9506 35.5661 43.5966 35.5661H43.1737V36.8445L43.6151 36.8806V36.9167H42.4589V36.8806L42.828 36.8445V33.8835L42.4589 33.8474V33.8113H43.5966ZM53.7118 35.3601C53.8796 35.0964 54.0366 34.9638 54.1835 34.9636C54.2435 34.9636 54.2948 34.9851 54.3368 35.0271C54.3787 35.066 54.4002 35.1138 54.4003 35.1706C54.4003 35.2186 54.3835 35.2597 54.3505 35.2927C54.3175 35.3257 54.2764 35.3425 54.2284 35.3425C54.1986 35.3424 54.1731 35.3359 54.1522 35.3239C54.1343 35.309 54.1145 35.2883 54.0936 35.2614C54.0726 35.2374 54.053 35.2188 54.035 35.2068C54.0201 35.1949 54.0003 35.1892 53.9764 35.1892C53.9286 35.1893 53.8788 35.2173 53.828 35.2741C53.78 35.3311 53.7455 35.3974 53.7245 35.4724V36.8454L54.0848 36.8806V36.9167H53.1581V36.8806L53.4325 36.8454V35.2702L53.1669 35.1706V35.1394L53.6757 34.9636H53.7118V35.3601ZM30.58 36.862H31.0839C31.5487 36.862 31.782 36.6015 31.7821 36.0798C31.7821 35.8068 31.7233 35.6081 31.6063 35.4851C31.4893 35.3621 31.3148 35.3005 31.0839 35.3005H30.58V36.862ZM35.4208 35.9763C35.2649 36.0153 35.1435 36.0545 35.0565 36.0935C34.9726 36.1325 34.9128 36.1791 34.8768 36.2331C34.8409 36.2871 34.8221 36.3543 34.8221 36.4353C34.8221 36.5403 34.8483 36.6242 34.8993 36.6872C34.9503 36.7472 35.0194 36.7771 35.1063 36.7771C35.169 36.777 35.2273 36.7639 35.2811 36.737C35.338 36.7071 35.3848 36.6649 35.4208 36.6111V35.9763ZM48.8368 35.9763C48.681 36.0152 48.5595 36.0545 48.4725 36.0935C48.3885 36.1325 48.3279 36.1791 48.2919 36.2331C48.256 36.2871 48.2382 36.3544 48.2382 36.4353C48.2382 36.5402 48.2634 36.6242 48.3143 36.6872C48.3653 36.7472 48.4345 36.777 48.5214 36.7771C48.5843 36.7771 48.6432 36.764 48.6971 36.737C48.7541 36.707 48.8008 36.665 48.8368 36.6111V35.9763ZM24.5116 35.0134C24.3706 35.0134 24.253 35.0722 24.16 35.1892C24.0672 35.3061 24.0073 35.465 23.9803 35.6657L24.8534 35.6345C24.8624 35.5985 24.8671 35.5386 24.8671 35.4548C24.8671 35.2931 24.8351 35.1791 24.7723 35.113C24.7124 35.0471 24.6254 35.0135 24.5116 35.0134ZM26.4169 35.0134C26.276 35.0135 26.1592 35.0723 26.0663 35.1892C25.9733 35.3061 25.9136 35.4649 25.8866 35.6657L26.7587 35.6345C26.7677 35.5985 26.7723 35.5387 26.7723 35.4548C26.7723 35.2932 26.7413 35.1791 26.6786 35.113C26.6186 35.047 26.5309 35.0134 26.4169 35.0134ZM33.4589 35.0134C33.3179 35.0134 33.2003 35.0722 33.1073 35.1892C33.0145 35.3061 32.9546 35.465 32.9276 35.6657L33.8007 35.6345C33.8096 35.5985 33.8143 35.5386 33.8143 35.4548C33.8143 35.293 33.7825 35.179 33.7196 35.113C33.6596 35.047 33.5728 35.0134 33.4589 35.0134ZM46.8739 35.0134C46.7331 35.0135 46.6162 35.0723 46.5233 35.1892C46.4304 35.3061 46.3706 35.4649 46.3436 35.6657L47.2167 35.6345C47.2256 35.5985 47.2294 35.5386 47.2294 35.4548C47.2294 35.2932 47.1983 35.1791 47.1356 35.113C47.0756 35.047 46.9879 35.0134 46.8739 35.0134ZM55.4452 35.0134C55.3042 35.0134 55.1876 35.0723 55.0946 35.1892C55.0016 35.3061 54.941 35.4649 54.9139 35.6657L55.787 35.6345C55.796 35.5985 55.8006 35.5387 55.8007 35.4548C55.8007 35.2929 55.7688 35.179 55.7059 35.113C55.6459 35.047 55.5592 35.0134 55.4452 35.0134ZM43.1737 35.5124H43.5839C43.8266 35.5124 44.0032 35.4432 44.1141 35.3054C44.2251 35.1674 44.2811 34.9482 44.2811 34.6482C44.2811 34.3993 44.2298 34.207 44.1278 34.072C44.0288 33.9343 43.8475 33.865 43.5839 33.865H43.1737V35.5124ZM30.58 35.2468H31.1024C31.3033 35.2468 31.4471 35.188 31.5341 35.071C31.624 34.954 31.6688 34.7803 31.6688 34.5495C31.6688 34.0935 31.4366 33.865 30.9716 33.865H30.58V35.2468ZM38.3065 20.3894C39.2281 19.6785 39.4842 19.6849 39.4842 20.4167C39.4843 20.9678 39.5485 20.9779 40.3739 20.5652C43.0572 19.2233 45.0865 23.4784 42.9676 26.0036C42.2218 26.8925 42.0149 26.9727 40.8134 26.8366L39.4842 26.6863V29.2243C39.4843 31.5503 39.5422 31.7895 40.1766 32.0964C40.7693 32.3827 40.6297 32.434 39.2059 32.4519C37.6139 32.4719 37.5653 32.449 38.0526 31.9089C38.7926 31.0891 38.813 21.9588 38.076 21.3454C37.6411 20.9836 37.6649 20.8844 38.3065 20.3894ZM28.2401 4.49484C28.6041 3.66355 29.0223 3.86823 29.0223 4.87766C29.0223 5.29182 29.1605 5.63028 29.329 5.63059C29.4976 5.63059 30.6165 6.53345 31.8153 7.63645C33.0132 8.73881 34.1901 9.64044 34.4315 9.64133C35.1525 9.64133 34.9258 10.2524 34.0858 10.573C33.2409 10.8948 32.0398 10.3398 31.5038 9.37961C31.2635 8.94881 31.1618 8.97026 30.6649 9.55637C30.0899 10.2347 29.7196 10.3601 28.4842 10.2946C27.5424 10.245 27.6082 9.69972 28.5858 9.45383C29.9002 9.12279 30.2033 7.19036 29.0389 6.56516C28.6195 6.33993 28.5208 6.41796 28.5389 6.96066C28.5552 7.45114 28.3542 7.66546 27.8065 7.74289C27.1328 7.8382 27.0978 7.79431 27.4794 7.33371C27.9986 6.70626 27.6693 6.4273 25.7919 5.905C21.4271 4.69068 15.3188 8.01939 13.6757 12.5075C12.4379 15.8886 12.9291 20.3198 14.8622 23.2165L15.7889 24.6052L15.7899 23.0476C15.7905 22.1905 15.6262 21.3229 15.4237 21.1198C15.1379 20.8332 15.1892 20.6489 15.6542 20.2966C16.435 19.7044 16.7147 19.7107 16.7147 20.3191C16.7148 20.6457 16.8819 20.751 17.205 20.6267C18.7717 20.0239 19.1668 20.0744 20.0917 21.0017C20.8618 21.7742 21.0223 22.1839 21.0223 23.3767C21.0223 25.9464 19.7478 27.2348 17.6259 26.8093L16.7147 26.6257V29.1941C16.7147 31.5516 16.7714 31.7888 17.4071 32.0964C17.9964 32.3814 17.848 32.4322 16.4071 32.4421C15.1141 32.4507 14.8414 32.3797 15.2528 32.1394C15.7113 31.8716 15.7919 31.3456 15.7919 28.6003C15.7919 26.8274 15.8665 25.3767 15.9579 25.3767C16.0503 25.3773 16.5188 25.6695 16.9999 26.0261C18.6278 27.2325 20.3232 25.8276 20.0155 23.5271C19.7767 21.7434 18.7427 20.8988 17.4071 21.3962C16.8037 21.6211 16.7147 21.8733 16.7147 23.3611C16.7147 24.4258 16.5833 25.0681 16.3661 25.0681C15.7349 25.0677 13.855 22.785 13.0634 21.0573C12.0375 18.8187 11.786 14.7552 12.5341 12.4968C14.168 7.56507 18.0373 4.91139 23.4842 4.98606C24.9224 5.0058 26.5143 5.05533 27.0223 5.09543C27.7165 5.15004 28.0186 5.00083 28.2401 4.49484ZM33.7089 20.3376C34.4213 20.0506 35.3557 20.1265 35.7303 20.5017C35.959 20.7309 36.0995 21.8611 36.0995 23.4695C36.0995 25.9138 36.1363 26.0561 36.7157 25.904C37.3575 25.7357 37.4783 25.9187 37.0956 26.4792C36.6894 27.0737 35.8207 27.2231 35.5536 26.7448C35.3303 26.3447 35.1759 26.3505 34.3036 26.7868C33.4928 27.1922 33.2205 27.2117 32.8378 26.8933C31.9516 26.1555 32.9676 24.0797 34.5028 23.4909C35.0988 23.2623 35.1983 23.0313 35.118 22.0632C34.9845 20.4485 34.0979 20.309 33.4745 21.8044C33.0428 22.8397 32.4072 23.3048 32.4071 22.5847C32.4071 22.0374 33.295 20.5045 33.7089 20.3376ZM46.0467 20.5896C47.817 19.3462 48.7157 20.3423 48.7157 23.5476C48.7157 25.5161 48.8062 25.9939 49.1776 25.9939C49.4314 25.994 49.6385 26.1373 49.6385 26.3122C49.638 26.8347 48.6767 27.0429 48.0565 26.655C47.5993 26.3687 47.3271 26.3918 46.7557 26.7673C45.8437 27.3664 45.0233 27.0683 45.0233 26.1384C45.0236 25.3034 46.3221 23.6436 47.1913 23.3669C47.5932 23.2388 47.791 22.9001 47.788 22.3474C47.777 20.4886 46.5065 20.2405 45.9022 21.9792C45.7243 22.4903 45.3915 22.9079 45.163 22.9079C44.553 22.9077 45.2136 21.1749 46.0467 20.5896ZM23.0643 20.945C23.9282 20.0788 24.9704 19.8949 25.576 20.5017C25.8041 20.7303 25.9462 21.853 25.9462 23.4333C25.9462 25.5033 26.034 25.9937 26.4071 25.9939C26.661 25.9939 26.869 26.1373 26.869 26.3122C26.8685 26.8024 25.923 27.0524 25.3671 26.7097C25.0271 26.5002 24.5793 26.5224 23.9569 26.78C22.8361 27.2443 22.253 27.0536 22.2528 26.2214C22.2528 25.414 23.6037 23.6266 24.4071 23.3708C24.8229 23.2384 25.0215 22.9066 25.0184 22.3474C25.0075 20.4886 23.736 20.2405 23.1317 21.9792C22.7721 23.0129 22.253 23.2223 22.2528 22.3337C22.2528 22.0175 22.6182 21.3924 23.0643 20.945ZM51.0653 20.6316C51.7632 19.6714 52.1005 19.6146 52.1005 20.4577C52.1005 21.0517 52.1447 21.0616 52.785 20.612C53.6753 19.9866 54.7655 19.9992 55.1229 20.6394C55.3863 21.1108 55.4583 21.1108 56.1298 20.6394C57.0506 19.9929 57.9007 19.9941 58.6151 20.6423C59.0683 21.0536 59.1776 21.6199 59.1776 23.5515C59.1776 25.3198 59.3046 26.0766 59.661 26.4343C60.1007 26.8748 60.0117 26.9196 58.6796 26.9196C57.4192 26.9196 57.2892 26.864 57.7489 26.5271C58.1937 26.2007 58.2682 25.723 58.1923 23.6736C58.1046 21.3026 58.0725 21.2084 57.3319 21.1316C56.0183 20.9952 55.6813 21.4728 55.5419 23.6706C55.4373 25.3142 55.5181 25.8265 55.9579 26.3142C56.4929 26.9071 56.4743 26.9188 54.995 26.9099C53.82 26.9025 53.6044 26.8303 54.0233 26.5857C54.4648 26.3277 54.5624 25.829 54.5624 23.8093C54.5624 21.1035 54.2658 20.6717 52.8505 21.3181C52.1535 21.6365 52.1005 21.8232 52.1005 23.9665C52.1005 25.8364 52.2026 26.3305 52.6395 26.5857C53.0565 26.8293 52.8304 26.9001 51.6385 26.9001C50.447 26.9001 50.2215 26.8293 50.6385 26.5857C51.0671 26.3352 51.1776 25.8469 51.1776 24.1892C51.1776 23.0439 51.0231 21.9512 50.8348 21.7624C50.5841 21.5108 50.6451 21.2098 51.0653 20.6316ZM28.4842 20.6628C29.232 19.8798 29.6385 19.8794 29.6385 20.6609C29.6386 21.0924 29.7125 21.0856 30.2421 20.6052C30.9507 19.9619 31.8846 20.1962 31.7323 20.9792C31.6695 21.3028 31.3446 21.5234 30.9237 21.528C29.9325 21.5396 29.648 22.1661 29.6425 24.3484C29.6381 26.1449 29.6851 26.2685 30.4842 26.5613C31.2088 26.8266 31.0446 26.8743 29.3387 26.8952C27.4516 26.9184 27.3831 26.8942 28.0311 26.4392C28.5936 26.0443 28.7147 25.6642 28.7147 24.3015C28.7147 23.2398 28.5493 22.478 28.2538 22.1814C27.6556 21.5816 27.6646 21.5211 28.4842 20.6628ZM40.913 21.3659C40.3532 21.3659 39.8029 21.4588 39.6903 21.572C39.5774 21.6851 39.4842 22.7292 39.4842 23.8923C39.4843 25.8389 39.5448 26.0343 40.2411 26.3523C42.0258 27.1677 43.5092 24.4257 42.4227 22.3191C42.0234 21.5451 41.7389 21.366 40.913 21.3659ZM34.8915 23.8337C34.4013 23.8339 33.3569 25.3936 33.535 25.8591C33.9378 26.9117 35.1766 26.0357 35.1766 24.698C35.1766 24.2228 35.0484 23.8337 34.8915 23.8337ZM25.0223 24.7488C25.0223 23.6186 24.646 23.5871 23.8143 24.6472C23.1045 25.5517 23.0328 25.8687 23.4774 26.1443C24.091 26.5244 25.0223 25.6827 25.0223 24.7488ZM46.7801 24.4265C45.9422 25.429 45.8318 26.0062 46.4393 26.2097C46.6049 26.2649 46.9884 26.1291 47.2909 25.907C47.6773 25.6237 47.8112 25.1901 47.7401 24.4509L47.6385 23.3991L46.7801 24.4265Z" fill="#252525"/>
</svg>
