<svg width="115" height="42" viewBox="0 0 115 42" fill="none" xmlns="http://www.w3.org/2000/svg">
<rect width="115" height="42" fill="white"/>
<path d="M45.585 34.4522H45.238V32.6778H44.226C44.061 33.1405 43.755 33.4107 43.373 33.4082C42.789 33.4108 42.38 32.7938 42.382 31.8194C42.38 30.8476 42.789 30.2282 43.373 30.2256C43.735 30.2282 44.03 30.4722 44.201 30.8936H45.238V29.8701H45.585V34.4522ZM41.52 30.4258C41.52 30.7651 41.52 31.1765 41.423 31.7266H41.996V32.0557H40.353V32.8994H41.547V34.4424H41.196V33.2334H38.753V32.8994H40.006V32.0557H38.38V31.7266H41.072C41.177 31.1689 41.176 30.7651 41.174 30.4258H38.838V30.0967H41.52V30.4258ZM53.23 31.7266H53.892V32.0762H53.23V34.4424H52.884V29.8701H53.23V31.7266ZM57.344 34.4424H56.997V29.8701H57.344V34.4424ZM61.093 31.7217H61.755V32.0664H61.093V34.4424H60.746V29.8701H61.093V31.7217ZM69.138 34.4424H68.791V29.8701H69.138V34.4424ZM48.206 32.7139C49.026 32.7113 49.53 33.0279 49.53 33.5781C49.53 34.1232 49.026 34.4317 48.206 34.4317C47.384 34.4317 46.88 34.1232 46.882 33.5781C46.88 33.0279 47.384 32.7113 48.206 32.7139ZM63.017 33.249H64.895V32.7656H65.242V34.3799H62.67V32.7656H63.017V33.249ZM35.408 34.0049H37.718V34.3438H35.066V33.0274H35.408V34.0049ZM48.206 33.0332C47.6 33.0332 47.226 33.2362 47.228 33.5781C47.226 33.9098 47.6 34.11 48.206 34.1074C48.81 34.11 49.184 33.9098 49.184 33.5781C49.184 33.2362 48.81 33.0332 48.206 33.0332ZM63.017 34.0567H64.895V33.5625H63.017V34.0567ZM55.42 31.0274C55.991 31.0248 56.377 31.3592 56.375 31.876C56.377 32.3284 56.071 32.6423 55.603 32.7041V33.1875C55.984 33.1669 56.371 33.1357 56.735 33.0791L56.762 33.3877C55.88 33.5523 54.914 33.5674 54.181 33.5674L54.127 33.2237C54.464 33.2211 54.851 33.2186 55.251 33.2031V32.7041C54.776 32.6475 54.469 32.3336 54.474 31.876C54.469 31.3593 54.849 31.0248 55.42 31.0274ZM67.214 31.0274C67.785 31.0248 68.171 31.3592 68.169 31.876C68.171 32.3284 67.865 32.6423 67.396 32.7041V33.1875C67.778 33.1669 68.165 33.1357 68.529 33.0791L68.556 33.3877C67.674 33.5523 66.708 33.5674 65.975 33.5674L65.922 33.2237C66.259 33.2211 66.645 33.2185 67.045 33.2031V32.7041C66.57 32.6474 66.263 32.3335 66.268 31.876C66.263 31.3593 66.643 31.0249 67.214 31.0274ZM60.262 30.6778H59.374V31.2744C59.37 32.0071 59.826 32.8146 60.399 33.1309L60.2 33.4492C59.756 33.1973 59.38 32.6577 59.202 32.0381C59.02 32.7091 58.625 33.3003 58.183 33.5625L57.97 33.2442C58.538 32.9228 59.027 32.0535 59.031 31.2744V30.6778H58.112V30.3438H60.262V30.6778ZM51.498 31.0996C51.498 31.9044 51.958 32.7349 52.52 33.0537L52.306 33.3779C51.87 33.1157 51.506 32.5725 51.331 31.9375C51.156 32.6111 50.782 33.1898 50.338 33.4649L50.116 33.1406C50.694 32.8115 51.151 31.9351 51.155 31.0996V30.2666H51.498V31.0996ZM37.536 31.3819H38.131V31.7217H37.536V33.2998H37.189V29.876H37.536V31.3819ZM43.373 30.585C42.984 30.5876 42.718 31.0764 42.716 31.8194C42.718 32.5624 42.984 33.0514 43.373 33.0488C43.759 33.0513 44.03 32.5623 44.03 31.8194C44.03 31.0765 43.759 30.5877 43.373 30.585ZM35.635 31.0176C36.199 31.0177 36.58 31.3518 36.585 31.8711C36.58 32.3851 36.199 32.7164 35.635 32.7139C35.064 32.7165 34.682 32.3851 34.684 31.8711C34.681 31.3518 35.064 31.0176 35.635 31.0176ZM49.517 32.5801H49.166V31.1865H48.286V30.8526H49.166V29.8701H49.517V32.5801ZM65.242 32.5752H64.891V32.169H64.202V31.835H64.891V31.2744H64.207V30.9404H64.891V29.8711H65.242V32.5752ZM63.101 30.8887C63.629 30.8913 64.001 31.218 64.003 31.7168C64.001 32.2104 63.629 32.5342 63.101 32.5342C62.568 32.5341 62.204 32.2103 62.208 31.7168C62.204 31.2181 62.568 30.8913 63.101 30.8887ZM47.602 30.5908C47.597 31.2438 47.999 31.8171 48.579 32.0459L48.384 32.3594C47.949 32.1717 47.607 31.799 47.436 31.3184C47.267 31.8659 46.906 32.2898 46.429 32.4981L46.238 32.169C46.847 31.9221 47.251 31.315 47.256 30.6055V30.1328H47.602V30.5908ZM35.635 31.336C35.262 31.3334 35.015 31.5446 35.018 31.8711C35.016 32.1923 35.262 32.4007 35.635 32.3955C36.003 32.4006 36.252 32.1922 36.257 31.8711C36.252 31.5446 36.003 31.3334 35.635 31.336ZM55.42 31.3408C55.053 31.3409 54.796 31.5572 54.798 31.876C54.796 32.1922 55.053 32.4006 55.42 32.3955C55.789 32.4007 56.044 32.1922 56.042 31.876C56.044 31.5572 55.789 31.3408 55.42 31.3408ZM67.214 31.3408C66.847 31.3409 66.59 31.5573 66.592 31.876C66.59 32.1922 66.847 32.4006 67.214 32.3955C67.583 32.4007 67.838 32.1922 67.836 31.876C67.838 31.5572 67.583 31.3408 67.214 31.3408ZM44.302 31.2334C44.339 31.4107 44.359 31.6061 44.359 31.8194C44.359 32.007 44.343 32.1844 44.314 32.3438H45.238V31.2334H44.302ZM63.101 31.2022C62.756 31.2022 62.53 31.4083 62.532 31.7168C62.53 32.0226 62.756 32.2279 63.101 32.2305C63.44 32.2279 63.673 32.0227 63.678 31.7168C63.673 31.4083 63.44 31.2022 63.101 31.2022ZM35.808 30.4365H36.811V30.7656H34.457V30.4365H35.461V29.876H35.808V30.4365ZM55.603 30.4365H56.633V30.7656H54.212V30.4365H55.251V29.876H55.603V30.4365ZM67.396 30.4365H68.427V30.7656H66.006V30.4365H67.045V29.876H67.396V30.4365ZM63.278 30.333H64.207V30.668H61.973V30.333H62.932V29.8291H63.278V30.333ZM21.9551 7.54688C27.3249 7.54699 31.706 11.7728 31.959 17.0801C31.707 12.1333 27.617 8.20021 22.6074 8.2002C17.4357 8.20048 13.2431 12.3927 13.2431 17.5645C13.2433 22.5015 17.0643 26.5424 21.9101 26.8994V17.9082L20.4004 17.2656L18.3613 17.1612L18.2451 17.1553L16.1797 14.5566L17.4843 12.1895L17.6513 12.2041L20.7881 12.4727L20.8564 12.5772L22.0302 14.3457L27.926 18.4112L27.0371 19.8526L26.9199 20.042L22.4267 18.1279V26.9238C22.4867 26.925 22.5471 26.9287 22.6074 26.9287C27.699 26.9287 31.841 22.8659 31.969 17.8057V17.8233C31.831 23.2358 27.4007 27.581 21.9551 27.5811C16.4229 27.5809 11.9376 23.0966 11.9375 17.5645C11.9375 12.0322 16.4229 7.54707 21.9551 7.54688ZM43.861 22.8985H43.694C43.679 22.4955 43.594 22.202 43.437 22.0186C43.281 21.8352 43.087 21.7432 42.855 21.7432C42.669 21.7432 42.52 21.7945 42.409 21.8965C42.301 21.9987 42.247 22.1224 42.247 22.2666C42.247 22.3658 42.268 22.4607 42.31 22.5508C42.355 22.641 42.451 22.7673 42.599 22.9297C42.99 23.3567 43.242 23.679 43.356 23.8955C43.471 24.112 43.527 24.3164 43.527 24.5088C43.527 24.8213 43.397 25.0993 43.136 25.3428C42.877 25.5833 42.549 25.704 42.152 25.7041C41.936 25.7041 41.686 25.653 41.403 25.5508C41.304 25.5147 41.227 25.4971 41.173 25.4971C41.038 25.4972 40.935 25.5659 40.866 25.7041H40.699L40.975 24.2422H41.142C41.16 24.6993 41.254 25.0235 41.426 25.2129C41.597 25.4021 41.832 25.497 42.129 25.4971C42.357 25.4971 42.539 25.4339 42.671 25.3076C42.806 25.1784 42.874 25.0202 42.874 24.834C42.874 24.7138 42.85 24.6022 42.802 24.5C42.718 24.3196 42.54 24.0697 42.27 23.751C42.002 23.4322 41.828 23.1926 41.75 23.0332C41.675 22.8741 41.638 22.7148 41.638 22.5557C41.638 22.264 41.743 22.0169 41.953 21.8154C42.167 21.614 42.441 21.5137 42.774 21.5137C42.871 21.5137 42.958 21.5211 43.036 21.5362C43.078 21.5452 43.176 21.5796 43.329 21.6397C43.485 21.6968 43.589 21.7256 43.641 21.7256C43.77 21.7256 43.878 21.6548 43.965 21.5137H44.137L43.861 22.8985ZM47.461 22.8985H47.294C47.279 22.4955 47.193 22.202 47.037 22.0186C46.881 21.8352 46.687 21.7432 46.455 21.7432C46.269 21.7432 46.12 21.7945 46.009 21.8965C45.901 21.9987 45.847 22.1224 45.847 22.2666C45.847 22.3657 45.867 22.4607 45.909 22.5508C45.954 22.641 46.051 22.7674 46.198 22.9297C46.589 23.3567 46.842 23.679 46.956 23.8955C47.07 24.112 47.128 24.3164 47.128 24.5088C47.128 24.8214 46.997 25.0993 46.735 25.3428C46.477 25.5833 46.149 25.7041 45.752 25.7041C45.535 25.7041 45.286 25.653 45.003 25.5508C44.904 25.5147 44.827 25.4971 44.772 25.4971C44.637 25.4972 44.535 25.5659 44.466 25.7041H44.299L44.574 24.2422H44.741C44.759 24.6993 44.854 25.0235 45.025 25.2129C45.197 25.4022 45.432 25.4971 45.729 25.4971C45.958 25.497 46.138 25.4338 46.27 25.3076C46.406 25.1784 46.473 25.0202 46.474 24.834C46.474 24.7138 46.449 24.6022 46.401 24.5C46.317 24.3196 46.14 24.0697 45.869 23.751C45.601 23.4322 45.429 23.1926 45.351 23.0332C45.275 22.874 45.237 22.7149 45.237 22.5557C45.237 22.264 45.342 22.0169 45.553 21.8154C45.766 21.614 46.04 21.5137 46.374 21.5137C46.47 21.5137 46.558 21.5211 46.636 21.5362C46.678 21.5452 46.775 21.5796 46.929 21.6397C47.085 21.6968 47.189 21.7256 47.24 21.7256C47.37 21.7256 47.478 21.655 47.565 21.5137H47.736L47.461 22.8985ZM50.89 21.5137C51.287 21.5137 51.613 21.6447 51.868 21.9063C52.127 22.1679 52.256 22.5078 52.256 22.9258C52.256 23.3768 52.136 23.8237 51.895 24.2656C51.658 24.7075 51.325 25.0579 50.898 25.3164C50.471 25.575 50.056 25.7041 49.653 25.7041C49.241 25.7041 48.905 25.573 48.644 25.3115C48.385 25.047 48.255 24.7059 48.255 24.2881C48.255 23.8461 48.381 23.4021 48.634 22.957C48.889 22.512 49.229 22.16 49.653 21.9014C50.08 21.6428 50.493 21.5137 50.89 21.5137ZM55.559 21.5137C55.886 21.5138 56.131 21.5827 56.293 21.7207C56.455 21.856 56.537 22.0232 56.537 22.2217C56.537 22.4081 56.479 22.5679 56.365 22.7002C56.281 22.8021 56.178 22.8534 56.055 22.8535C55.961 22.8535 55.882 22.8229 55.819 22.7627C55.759 22.7026 55.729 22.6272 55.729 22.5371C55.73 22.4803 55.74 22.4278 55.761 22.3799C55.785 22.3318 55.832 22.2742 55.901 22.208C55.973 22.139 56.017 22.0896 56.032 22.0596C56.047 22.0296 56.055 21.9979 56.055 21.9649C56.055 21.9017 56.026 21.8488 55.969 21.8067C55.882 21.7465 55.758 21.7168 55.599 21.7168C55.304 21.7168 55.012 21.82 54.724 22.0274C54.435 22.2349 54.188 22.5302 53.983 22.9121C53.737 23.375 53.614 23.838 53.614 24.3008C53.614 24.6075 53.702 24.8518 53.876 25.0322C54.05 25.2094 54.288 25.2978 54.588 25.2979C54.819 25.2979 55.049 25.2412 55.274 25.127C55.503 25.0097 55.758 24.7987 56.041 24.4951L56.172 24.6123C55.859 24.9881 55.543 25.265 55.225 25.4424C54.906 25.6168 54.569 25.7041 54.214 25.7041C53.787 25.7041 53.453 25.5834 53.213 25.3428C52.975 25.1022 52.856 24.779 52.856 24.3731C52.856 23.9131 52.984 23.4606 53.239 23.0156C53.498 22.5706 53.844 22.2093 54.277 21.9326C54.713 21.6531 55.141 21.5137 55.559 21.5137ZM57.939 24.6758C57.88 24.8884 57.85 25.0161 57.85 25.0586C57.85 25.1067 57.864 25.1467 57.891 25.1768C57.921 25.2066 57.955 25.2217 57.994 25.2217C58.039 25.2217 58.093 25.1974 58.156 25.1494C58.328 25.0142 58.5 24.8217 58.675 24.5723L58.833 24.6758C58.629 24.9885 58.388 25.2514 58.111 25.4649C57.907 25.6241 57.712 25.704 57.525 25.7041C57.402 25.7041 57.301 25.6679 57.223 25.5957C57.145 25.5206 57.105 25.4275 57.105 25.3164C57.105 25.2052 57.143 25.0201 57.218 24.7617L57.805 22.7403C57.901 22.4098 57.949 22.2025 57.949 22.1182C57.949 22.0522 57.925 21.9981 57.877 21.9561C57.832 21.914 57.769 21.8926 57.687 21.8926C57.621 21.8926 57.484 21.9093 57.276 21.9424V21.7666L58.833 21.5137L57.939 24.6758ZM62.735 24.5723L62.636 24.9824C62.627 25.0215 62.622 25.055 62.622 25.082C62.622 25.1299 62.637 25.1721 62.667 25.208C62.691 25.2351 62.722 25.2481 62.758 25.2481C62.797 25.248 62.848 25.2248 62.911 25.1768C63.028 25.0896 63.184 24.9084 63.38 24.6348L63.533 24.7432C63.326 25.0559 63.112 25.2956 62.893 25.461C62.673 25.6231 62.47 25.7041 62.284 25.7041C62.155 25.7041 62.057 25.6706 61.991 25.6045C61.928 25.5414 61.896 25.4485 61.896 25.3252C61.896 25.1779 61.929 24.9838 61.995 24.7432L62.09 24.4053C61.696 24.9194 61.334 25.279 61.003 25.4834C60.765 25.6307 60.532 25.7041 60.304 25.7041C60.084 25.7041 59.895 25.614 59.735 25.4336C59.576 25.2502 59.496 24.9985 59.496 24.6797C59.496 24.2017 59.639 23.6981 59.925 23.169C60.213 22.6368 60.579 22.2113 61.02 21.8926C61.366 21.64 61.693 21.5137 62 21.5137C62.183 21.5137 62.335 21.562 62.455 21.6582C62.578 21.7544 62.672 21.9133 62.735 22.1358L62.897 21.6221L63.614 21.5137L62.735 24.5723ZM65.947 21.6221H66.655L66.578 21.9063H65.875L65.099 24.5674C65.014 24.8529 64.973 25.0378 64.973 25.1221C64.973 25.1732 64.985 25.2122 65.009 25.2393C65.033 25.2662 65.061 25.2802 65.094 25.2803C65.169 25.2803 65.268 25.2273 65.392 25.1221C65.464 25.0619 65.625 24.8771 65.875 24.5674L66.023 24.6797C65.747 25.0827 65.485 25.3668 65.238 25.5322C65.07 25.6465 64.9 25.7041 64.728 25.7041C64.596 25.7041 64.488 25.6632 64.404 25.582C64.32 25.4979 64.277 25.391 64.277 25.2617C64.277 25.0993 64.326 24.8512 64.422 24.5176L65.176 21.9063H64.494L64.539 21.7305C64.87 21.6403 65.146 21.5056 65.365 21.3281C65.585 21.1477 65.83 20.8363 66.101 20.3945H66.299L65.947 21.6221ZM67.701 24.6758C67.641 24.8884 67.612 25.0161 67.611 25.0586C67.611 25.1067 67.624 25.1467 67.651 25.1768C67.681 25.2068 67.717 25.2217 67.756 25.2217C67.801 25.2216 67.855 25.1974 67.918 25.1494C68.089 25.0142 68.262 24.8217 68.436 24.5723L68.595 24.6758C68.39 24.9885 68.15 25.2514 67.873 25.4649C67.669 25.6242 67.473 25.7041 67.286 25.7041C67.163 25.7041 67.062 25.6678 66.984 25.5957C66.906 25.5206 66.867 25.4276 66.867 25.3164C66.867 25.2052 66.904 25.0202 66.979 24.7617L67.566 22.7403C67.662 22.4099 67.71 22.2025 67.71 22.1182C67.71 22.0522 67.686 21.9981 67.639 21.9561C67.594 21.914 67.53 21.8927 67.449 21.8926C67.383 21.8926 67.246 21.9093 67.038 21.9424V21.7666L68.595 21.5137L67.701 24.6758ZM71.946 21.5137C72.343 21.5137 72.669 21.6447 72.925 21.9063C73.183 22.1679 73.312 22.5078 73.312 22.9258C73.312 23.3768 73.193 23.8237 72.952 24.2656C72.715 24.7075 72.382 25.0579 71.955 25.3164C71.528 25.575 71.113 25.7041 70.71 25.7041C70.298 25.7041 69.962 25.573 69.7 25.3115C69.442 25.047 69.312 24.7059 69.311 24.2881C69.311 23.8461 69.438 23.4021 69.69 22.957C69.946 22.512 70.286 22.16 70.71 21.9014C71.137 21.6428 71.549 21.5137 71.946 21.5137ZM77.256 21.5137C77.406 21.5138 77.529 21.5632 77.625 21.6621C77.724 21.7614 77.774 21.8914 77.774 22.0508C77.774 22.2312 77.731 22.472 77.644 22.7725L77.093 24.6709C77.03 24.89 76.998 25.0239 76.998 25.0723C76.998 25.1143 77.01 25.1507 77.034 25.1807C77.058 25.2077 77.084 25.2217 77.111 25.2217C77.147 25.2216 77.191 25.2021 77.242 25.1631C77.402 25.0368 77.576 24.8436 77.766 24.585L77.905 24.6709C77.626 25.0708 77.361 25.3569 77.111 25.5283C76.937 25.6456 76.78 25.7041 76.642 25.7041C76.531 25.704 76.442 25.6696 76.376 25.6006C76.31 25.5345 76.276 25.4442 76.276 25.3301C76.276 25.1857 76.327 24.9368 76.43 24.585L76.953 22.7725C77.019 22.5469 77.053 22.3705 77.053 22.2442C77.053 22.1841 77.033 22.1357 76.994 22.0996C76.955 22.0606 76.907 22.0411 76.85 22.041C76.765 22.041 76.664 22.0773 76.547 22.1494C76.324 22.2847 76.093 22.5088 75.853 22.8213C75.612 23.1311 75.357 23.5285 75.09 24.0127C74.949 24.2682 74.831 24.548 74.738 24.8516L74.513 25.5957H73.836L74.657 22.7725C74.753 22.4327 74.802 22.2274 74.802 22.1582C74.802 22.0923 74.775 22.0353 74.721 21.9873C74.67 21.9362 74.605 21.9102 74.526 21.9102C74.49 21.9102 74.427 21.9167 74.337 21.9287L74.166 21.9561L74.139 21.793L75.699 21.5137L75.1 23.5664C75.662 22.7274 76.092 22.1748 76.39 21.9102C76.69 21.6457 76.979 21.5137 77.256 21.5137ZM89.656 21.5137C90.053 21.5138 90.379 21.6447 90.635 21.9063C90.893 22.1679 91.022 22.5079 91.022 22.9258C91.022 23.3768 90.903 23.8237 90.662 24.2656C90.425 24.7076 90.092 25.0578 89.665 25.3164C89.238 25.575 88.823 25.7041 88.42 25.7041C88.008 25.7041 87.671 25.5732 87.409 25.3115C87.151 25.047 87.022 24.7058 87.021 24.2881C87.021 23.8461 87.148 23.4021 87.4 22.957C87.656 22.512 87.996 22.16 88.42 21.9014C88.847 21.6428 89.259 21.5137 89.656 21.5137ZM97.662 21.5137C97.981 21.5137 98.218 21.5778 98.371 21.707C98.524 21.8364 98.601 21.9906 98.601 22.168C98.6 22.4175 98.501 22.6563 98.303 22.8848C98.041 23.1824 97.656 23.4231 97.148 23.6065C96.812 23.7298 96.338 23.8264 95.728 23.8955C95.706 24.0457 95.696 24.1704 95.696 24.2695C95.696 24.5372 95.791 24.7656 95.98 24.9551C96.17 25.1414 96.399 25.2353 96.67 25.2354C96.886 25.2354 97.094 25.1917 97.293 25.1045C97.494 25.0143 97.792 24.8172 98.186 24.5137L98.28 24.6445C97.568 25.351 96.888 25.7041 96.241 25.7041C95.802 25.704 95.471 25.5657 95.249 25.2891C95.027 25.0125 94.915 24.7068 94.915 24.3731C94.915 23.9253 95.054 23.4669 95.33 22.9981C95.607 22.5291 95.954 22.1649 96.372 21.9063C96.79 21.6447 97.22 21.5138 97.662 21.5137ZM102.187 24.5723L102.088 24.9824C102.079 25.0215 102.074 25.055 102.074 25.082C102.074 25.13 102.089 25.1721 102.119 25.208C102.143 25.2351 102.174 25.2481 102.21 25.2481C102.249 25.2479 102.3 25.2247 102.363 25.1768C102.481 25.0896 102.637 24.9084 102.832 24.6348L102.985 24.7432C102.778 25.0559 102.564 25.2956 102.345 25.461C102.125 25.6231 101.923 25.704 101.736 25.7041C101.607 25.7041 101.509 25.6707 101.442 25.6045C101.379 25.5414 101.348 25.4483 101.348 25.3252C101.348 25.1779 101.381 24.9838 101.447 24.7432L101.542 24.4053C101.148 24.9194 100.786 25.279 100.455 25.4834C100.218 25.6307 99.984 25.7041 99.756 25.7041C99.536 25.7041 99.347 25.6139 99.187 25.4336C99.028 25.2502 98.948 24.9985 98.948 24.6797C98.948 24.2017 99.091 23.6981 99.377 23.169C99.666 22.6368 100.031 22.2113 100.473 21.8926C100.818 21.64 101.145 21.5137 101.452 21.5137C101.635 21.5138 101.787 21.562 101.907 21.6582C102.03 21.7544 102.124 21.9133 102.187 22.1358L102.35 21.6221L103.066 21.5137L102.187 24.5723ZM39.432 24.4278C39.408 24.665 39.396 24.8213 39.395 24.8965C39.395 25.0168 39.419 25.1087 39.464 25.1719C39.521 25.259 39.597 25.3242 39.693 25.3662C39.793 25.4083 39.958 25.4287 40.189 25.4287L40.14 25.5957H37.731L37.781 25.4287H37.885C38.08 25.4287 38.24 25.3869 38.363 25.3028C38.45 25.2456 38.517 25.1506 38.565 25.0186C38.598 24.9254 38.63 24.7059 38.66 24.3604L38.732 23.584H36.982L36.36 24.4278C36.219 24.6171 36.13 24.7537 36.094 24.8379C36.058 24.9191 36.04 24.9962 36.04 25.0684C36.04 25.1645 36.079 25.2473 36.157 25.3164C36.235 25.3855 36.365 25.4227 36.545 25.4287L36.495 25.5957H34.686L34.736 25.4287C34.959 25.4197 35.154 25.3462 35.322 25.208C35.494 25.0667 35.748 24.7676 36.085 24.3106L39.738 19.3389H39.896L39.432 24.4278ZM84.279 19.6465C84.09 19.6435 83.948 19.6639 83.854 19.709C83.725 19.7721 83.63 19.854 83.57 19.9531C83.51 20.0527 83.422 20.3009 83.305 20.6973L82.831 22.2666L85.005 20.6289C85.293 20.4125 85.483 20.2415 85.573 20.1153C85.627 20.0371 85.654 19.9664 85.654 19.9033C85.654 19.8492 85.626 19.7962 85.569 19.7451C85.515 19.694 85.431 19.6615 85.316 19.6465L85.361 19.4795H87.319L87.278 19.6465C87.065 19.6826 86.885 19.73 86.737 19.7901C86.593 19.8472 86.444 19.9271 86.291 20.0293C86.246 20.0594 85.952 20.2823 85.411 20.6973L83.539 22.1182L85.055 24.459C85.325 24.8739 85.549 25.1405 85.727 25.2578C85.904 25.3721 86.137 25.4287 86.426 25.4287L86.377 25.5957H83.77L83.81 25.4287C84.017 25.4077 84.163 25.3583 84.247 25.2803C84.334 25.2021 84.378 25.1129 84.378 25.0137C84.378 24.9236 84.363 24.8361 84.333 24.752C84.309 24.6916 84.221 24.5446 84.071 24.3106L82.831 22.3662L82.231 24.3916C82.132 24.7164 82.082 24.9347 82.082 25.0459C82.082 25.16 82.124 25.2476 82.208 25.3076C82.292 25.3678 82.5 25.4077 82.831 25.4287L82.759 25.5957H80.341L80.399 25.4287C80.634 25.4227 80.792 25.4022 80.873 25.3662C80.993 25.3121 81.082 25.2424 81.14 25.1582C81.218 25.0349 81.314 24.7792 81.428 24.3916L82.506 20.6973C82.587 20.4146 82.628 20.1871 82.628 20.0156C82.628 19.8956 82.589 19.8043 82.511 19.7412C82.436 19.6781 82.287 19.6465 82.064 19.6465H81.974L82.028 19.4795H84.324L84.279 19.6465ZM94.789 21.5137C94.888 21.5137 94.966 21.5436 95.023 21.6035C95.081 21.6607 95.109 21.7452 95.109 21.8565C95.109 22.0549 95.058 22.2444 94.956 22.4248C94.884 22.5601 94.78 22.6279 94.645 22.6279C94.575 22.6279 94.516 22.6046 94.465 22.5596C94.417 22.5145 94.386 22.4458 94.374 22.3526C94.368 22.2958 94.355 22.2584 94.334 22.2403C94.31 22.2162 94.281 22.2041 94.248 22.2041C94.197 22.2041 94.149 22.2162 94.103 22.2403C94.025 22.2825 93.906 22.3996 93.747 22.5918C93.498 22.8865 93.227 23.2684 92.936 23.7373C92.809 23.9357 92.701 24.1597 92.61 24.4092C92.484 24.752 92.412 24.9582 92.394 25.0274L92.25 25.5957H91.56L92.394 22.7949C92.49 22.4702 92.538 22.238 92.538 22.0996C92.538 22.0457 92.516 22.0009 92.471 21.9649C92.411 21.9167 92.331 21.8926 92.231 21.8926C92.168 21.8926 92.052 21.9056 91.884 21.9326L91.853 21.7666L93.409 21.5137L92.76 23.7061C93.286 22.8071 93.763 22.1782 94.193 21.8203C94.437 21.6159 94.636 21.5138 94.789 21.5137ZM50.772 21.7481C50.33 21.7481 49.923 22.0657 49.55 22.7002C49.18 23.3315 48.995 23.9597 48.995 24.585C48.995 24.8706 49.068 25.0917 49.212 25.2481C49.356 25.4013 49.537 25.4784 49.757 25.4785C50.181 25.4785 50.578 25.1645 50.948 24.5362C51.321 23.9047 51.508 23.2638 51.508 22.6143C51.508 22.3346 51.438 22.121 51.3 21.9737C51.165 21.8234 50.989 21.7481 50.772 21.7481ZM71.829 21.7481C71.387 21.7481 70.979 22.0657 70.606 22.7002C70.237 23.3315 70.052 23.9597 70.052 24.585C70.052 24.8706 70.124 25.0917 70.269 25.2481C70.413 25.4013 70.594 25.4784 70.813 25.4785C71.237 25.4785 71.635 25.1645 72.005 24.5362C72.378 23.9047 72.564 23.2638 72.564 22.6143C72.564 22.3346 72.495 22.121 72.356 21.9737C72.221 21.8234 72.045 21.7481 71.829 21.7481ZM89.539 21.7481C89.097 21.7481 88.689 22.0657 88.316 22.7002C87.947 23.3315 87.762 23.9597 87.762 24.585C87.762 24.8704 87.833 25.0917 87.978 25.2481C88.122 25.4014 88.304 25.4785 88.523 25.4785C88.947 25.4785 89.345 25.1646 89.715 24.5362C90.088 23.9047 90.273 23.2638 90.273 22.6143C90.273 22.3346 90.205 22.121 90.066 21.9737C89.931 21.8234 89.755 21.7482 89.539 21.7481ZM62.009 21.7481C61.816 21.7481 61.612 21.8383 61.395 22.0186C61.089 22.2742 60.815 22.6531 60.574 23.1553C60.337 23.6574 60.218 24.1117 60.218 24.5176C60.218 24.722 60.269 24.8846 60.371 25.0049C60.473 25.1222 60.591 25.1807 60.724 25.1807C61.051 25.1805 61.407 24.9388 61.792 24.4551C62.306 23.8116 62.563 23.1512 62.563 22.4746C62.563 22.2193 62.514 22.0342 62.415 21.9199C62.316 21.8057 62.18 21.7481 62.009 21.7481ZM101.461 21.7481C101.269 21.7481 101.064 21.8383 100.848 22.0186C100.541 22.2742 100.267 22.6532 100.026 23.1553C99.789 23.6574 99.67 24.1117 99.67 24.5176C99.67 24.722 99.721 24.8846 99.823 25.0049C99.925 25.1221 100.043 25.1806 100.175 25.1807C100.502 25.1807 100.859 24.939 101.244 24.4551C101.758 23.8116 102.016 23.1512 102.016 22.4746C102.016 22.2193 101.966 22.0342 101.867 21.9199C101.768 21.8057 101.632 21.7481 101.461 21.7481ZM97.496 21.7393C97.189 21.7393 96.862 21.9027 96.517 22.2305C96.174 22.5552 95.921 23.0365 95.759 23.6738C96.204 23.6227 96.566 23.5354 96.846 23.4121C97.216 23.2467 97.492 23.0499 97.676 22.8213C97.862 22.5898 97.956 22.3706 97.956 22.1631C97.956 22.0368 97.915 21.9346 97.834 21.8565C97.756 21.7784 97.643 21.7394 97.496 21.7393ZM37.23 23.2549H38.769L39.003 20.8418L37.23 23.2549ZM58.774 19.7227C58.901 19.7227 59.007 19.7663 59.095 19.8535C59.182 19.9407 59.226 20.0475 59.226 20.1738C59.226 20.2971 59.18 20.4039 59.09 20.4942C59.003 20.5812 58.898 20.625 58.774 20.625C58.651 20.625 58.544 20.5814 58.454 20.4942C58.367 20.4039 58.323 20.2971 58.323 20.1738C58.323 20.0476 58.367 19.9407 58.454 19.8535C58.541 19.7663 58.648 19.7227 58.774 19.7227ZM68.536 19.7227C68.662 19.7227 68.769 19.7664 68.856 19.8535C68.944 19.9407 68.987 20.0476 68.987 20.1738C68.987 20.2971 68.942 20.4039 68.852 20.4942C68.764 20.5813 68.659 20.625 68.536 20.625C68.413 20.625 68.306 20.5813 68.216 20.4942C68.129 20.4039 68.085 20.2971 68.085 20.1738C68.085 20.0475 68.129 19.9407 68.216 19.8535C68.303 19.7664 68.41 19.7227 68.536 19.7227ZM21.9082 17.3457L26.7129 19.3916L27.2275 18.5576L22.9023 15.5752L21.9082 17.3457ZM23.7597 16.6592C24.0413 16.6593 24.2695 16.8874 24.2695 17.169C24.2694 17.4504 24.0412 17.6786 23.7597 17.6787C23.4784 17.6785 23.2501 17.4504 23.25 17.169C23.25 16.8875 23.4783 16.6594 23.7597 16.6592ZM20.8242 16.8838L21.4306 17.1416L22.4736 15.2793L21.9297 14.9043L20.8242 16.8838ZM19.5176 16.7022L20.3115 16.7422L21.54 14.542L21.0947 13.8701L19.5176 16.7022ZM18.7968 16.6651L18.9424 16.6729L20.7724 13.3857L20.6631 13.2207L18.7968 16.6651ZM16.7978 14.5029L18.334 16.4356L20.2256 12.9434L17.7744 12.7334L16.7978 14.5029ZM38.553 8.74121C38.246 8.7382 38.035 8.79405 37.921 8.90821C37.81 9.01944 37.733 9.2946 37.69 9.73341L37.353 13.0361L39.676 9.44922C39.679 9.38927 39.68 9.3379 39.68 9.29591C39.68 9.1277 39.63 8.99836 39.531 8.90821C39.432 8.818 39.218 8.76226 38.891 8.74121L38.927 8.57423H41.403L41.353 8.74121C41.068 8.74421 40.876 8.76846 40.776 8.81348C40.704 8.84654 40.642 8.90048 40.591 8.97558C40.543 9.04776 40.504 9.17316 40.474 9.35058C40.465 9.40238 40.427 9.75105 40.361 10.3965C40.298 11.043 40.202 11.9235 40.072 13.0361L42.008 10.0947C42.218 9.77302 42.35 9.54726 42.404 9.41797C42.458 9.2887 42.485 9.17908 42.485 9.08888C42.485 9.00485 42.45 8.93124 42.378 8.86817C42.306 8.80204 42.182 8.75926 42.008 8.74121L42.044 8.57423H43.857L43.811 8.74121C43.652 8.75327 43.511 8.7923 43.388 8.85841C43.264 8.92455 43.119 9.05094 42.95 9.23731C42.854 9.34557 42.655 9.63162 42.354 10.0947L39.283 14.8311H39.116L39.612 10.0947L36.54 14.8311H36.387L36.915 9.73341C36.936 9.53844 36.946 9.38836 36.946 9.28321C36.946 9.10887 36.897 8.97596 36.798 8.88575C36.699 8.79553 36.519 8.74722 36.261 8.74121L36.311 8.57423H38.602L38.553 8.74121ZM78.568 10.415H78.405L78.388 9.91895C78.373 9.7387 78.338 9.57776 78.284 9.43652C78.23 9.29518 78.148 9.17256 78.04 9.07031C77.932 8.96524 77.795 8.88423 77.63 8.82716C77.464 8.76701 77.281 8.73731 77.079 8.73731C76.541 8.73739 76.071 8.88427 75.668 9.17872C75.154 9.55462 74.751 10.0858 74.459 10.7715C74.218 11.3368 74.098 11.9098 74.098 12.4902C74.098 13.0825 74.27 13.5563 74.616 13.9111C74.962 14.263 75.412 14.4385 75.966 14.4385C76.383 14.4384 76.755 14.3454 77.079 14.1592C77.407 13.9728 77.711 13.6855 77.99 13.2979H78.203C77.872 13.8239 77.505 14.2113 77.103 14.4609C76.7 14.7075 76.217 14.831 75.654 14.8311C75.155 14.8311 74.713 14.727 74.328 14.5195C73.943 14.309 73.65 14.0147 73.448 13.6357C73.247 13.2568 73.146 12.8491 73.146 12.4131C73.146 11.7457 73.325 11.0962 73.683 10.4648C74.04 9.83333 74.531 9.33645 75.153 8.97558C75.779 8.61486 76.409 8.43467 77.043 8.43458C77.341 8.43458 77.675 8.50516 78.045 8.64649C78.207 8.70658 78.324 8.73725 78.396 8.73731C78.469 8.73731 78.532 8.72149 78.586 8.69141C78.64 8.66133 78.73 8.57584 78.856 8.43458H79.023L78.568 10.415ZM44.89 10.6094C45.287 10.6094 45.614 10.7394 45.869 11.001C46.128 11.2625 46.257 11.6027 46.257 12.0205C46.257 12.4716 46.136 12.9183 45.895 13.3604C45.658 13.8022 45.326 14.1525 44.899 14.4111C44.472 14.6697 44.057 14.7998 43.654 14.7998C43.242 14.7998 42.905 14.6688 42.644 14.4072C42.385 14.1426 42.256 13.8008 42.256 13.3828C42.256 12.9409 42.382 12.4976 42.635 12.0527C42.89 11.6077 43.23 11.2557 43.654 10.9971C44.081 10.7386 44.493 10.6095 44.89 10.6094ZM52.238 10.6094C52.376 10.6094 52.489 10.657 52.576 10.7529C52.666 10.8461 52.712 10.9922 52.712 11.1904C52.712 11.3649 52.685 11.5506 52.631 11.7461L52.135 13.5C52.026 13.8819 51.972 14.0946 51.972 14.1367C51.972 14.1787 51.986 14.2151 52.013 14.2451C52.031 14.266 52.055 14.2764 52.085 14.2764C52.115 14.2763 52.168 14.2475 52.243 14.1904C52.414 14.0581 52.575 13.8834 52.726 13.667L52.874 13.7617C52.799 13.882 52.665 14.0474 52.473 14.2578C52.283 14.4683 52.121 14.6113 51.985 14.6865C51.85 14.7616 51.726 14.7998 51.611 14.7998C51.506 14.7998 51.417 14.7636 51.345 14.6914C51.276 14.6193 51.241 14.53 51.241 14.4248C51.241 14.2804 51.304 13.9904 51.427 13.5547L51.837 12.1064C51.93 11.773 51.979 11.5881 51.985 11.5518C51.994 11.4946 51.999 11.4389 51.999 11.3848C51.999 11.3096 51.982 11.2511 51.949 11.209C51.913 11.1671 51.873 11.1456 51.828 11.1455C51.702 11.1455 51.568 11.2106 51.427 11.3398C51.012 11.7217 50.623 12.2568 50.263 12.9453C50.025 13.3994 49.802 13.9817 49.595 14.6914H48.914L49.686 11.9619C49.77 11.6674 49.811 11.4703 49.811 11.3711C49.811 11.29 49.795 11.2295 49.762 11.1904C49.729 11.1515 49.688 11.1318 49.64 11.1318C49.541 11.1319 49.435 11.1682 49.324 11.2402C49.144 11.3575 48.911 11.6092 48.625 11.9941C48.342 12.3788 48.123 12.747 47.967 13.0986C47.892 13.264 47.712 13.7953 47.43 14.6914H46.762L47.597 11.7686L47.705 11.3897C47.726 11.3325 47.736 11.2898 47.736 11.2627C47.736 11.1967 47.706 11.1379 47.646 11.0869C47.586 11.0328 47.509 11.0059 47.416 11.0059C47.377 11.0059 47.269 11.0236 47.092 11.0596L47.051 10.8936L48.607 10.6094L48.02 12.6436C48.282 12.1654 48.505 11.806 48.688 11.5654C48.974 11.1926 49.252 10.9213 49.522 10.7529C49.682 10.6567 49.849 10.6094 50.023 10.6094C50.174 10.6094 50.298 10.6569 50.397 10.7529C50.497 10.8491 50.547 10.9727 50.547 11.1231C50.547 11.2703 50.512 11.4628 50.443 11.7002L50.123 12.8467C50.613 11.9296 51.078 11.2859 51.517 10.916C51.76 10.7115 52.001 10.6094 52.238 10.6094ZM56.735 13.667L56.637 14.0781C56.628 14.117 56.623 14.1498 56.623 14.1768C56.623 14.2249 56.638 14.2676 56.668 14.3037C56.692 14.3305 56.722 14.3437 56.758 14.3438C56.797 14.3438 56.848 14.3196 56.911 14.2715C57.028 14.1843 57.185 14.0041 57.381 13.7305L57.534 13.8389C57.327 14.1515 57.113 14.3903 56.894 14.5557C56.674 14.7181 56.471 14.7998 56.284 14.7998C56.155 14.7998 56.057 14.7663 55.991 14.7002C55.928 14.6371 55.897 14.544 55.896 14.4209C55.896 14.2736 55.93 14.0794 55.996 13.8389L56.091 13.5C55.697 14.0142 55.334 14.3736 55.003 14.5781C54.766 14.7253 54.533 14.7997 54.305 14.7998C54.085 14.7998 53.895 14.7097 53.735 14.5293C53.576 14.3459 53.497 14.0942 53.497 13.7754C53.497 13.2973 53.64 12.7939 53.926 12.2647C54.214 11.7325 54.579 11.307 55.021 10.9883C55.367 10.7358 55.693 10.6095 56 10.6094C56.183 10.6094 56.336 10.6567 56.456 10.7529C56.579 10.8492 56.672 11.0089 56.735 11.2314L56.898 10.7168L57.615 10.6094L56.735 13.667ZM61.494 10.6094C61.644 10.6094 61.768 10.6586 61.864 10.7578C61.963 10.857 62.014 10.9862 62.014 11.1455C62.014 11.3259 61.97 11.5666 61.883 11.8672L61.332 13.7666C61.269 13.986 61.237 14.1198 61.237 14.168C61.237 14.2101 61.249 14.2463 61.273 14.2764C61.297 14.3034 61.324 14.3164 61.351 14.3164C61.387 14.3163 61.43 14.2968 61.481 14.2578C61.641 14.1315 61.815 13.939 62.004 13.6807L62.145 13.7666C61.865 14.1665 61.6 14.4526 61.351 14.624C61.176 14.7413 61.019 14.7998 60.881 14.7998C60.77 14.7998 60.681 14.7644 60.615 14.6953C60.549 14.6292 60.516 14.539 60.516 14.4248C60.516 14.2804 60.567 14.0323 60.669 13.6807L61.192 11.8672C61.258 11.6419 61.292 11.4661 61.292 11.3398C61.292 11.2797 61.271 11.2314 61.232 11.1953C61.193 11.1565 61.146 11.1368 61.089 11.1367C61.005 11.1367 60.903 11.1729 60.786 11.2451C60.564 11.3804 60.332 11.6044 60.092 11.917C59.851 12.2267 59.597 12.6242 59.329 13.1084C59.188 13.3639 59.071 13.6437 58.978 13.9473L58.752 14.6914H58.075L58.896 11.8672C58.993 11.5276 59.041 11.3231 59.041 11.2539C59.041 11.1878 59.013 11.1311 58.959 11.083C58.908 11.0319 58.844 11.0059 58.766 11.0059C58.73 11.0059 58.666 11.0124 58.576 11.0244L58.404 11.0508L58.378 10.8887L59.938 10.6094L59.338 12.6611C59.9 11.8221 60.331 11.2705 60.629 11.0059C60.929 10.7415 61.218 10.6095 61.494 10.6094ZM68.319 13.5L71.869 8.57423H73.362V8.74121C73.038 8.76222 72.848 8.78369 72.79 8.8047C72.691 8.84377 72.599 8.92186 72.515 9.03906C72.433 9.15634 72.344 9.38202 72.248 9.71583L71.116 13.5947C71.05 13.82 71.017 13.9977 71.017 14.127C71.017 14.2442 71.057 14.3334 71.139 14.3936C71.253 14.4807 71.433 14.5244 71.68 14.5244H71.788L71.748 14.6914H69.172L69.217 14.5244H69.339C69.567 14.5244 69.742 14.491 69.862 14.4248C69.955 14.3767 70.038 14.2865 70.11 14.1543C70.185 14.0189 70.29 13.7215 70.422 13.2617L71.432 9.71583L67.864 14.6914H67.684L67.11 9.71583L66.019 13.5C65.925 13.8218 65.879 14.0391 65.879 14.1504C65.879 14.2615 65.92 14.3472 66.001 14.4072C66.082 14.4643 66.279 14.5034 66.592 14.5244L66.542 14.6914H64.525L64.575 14.5244H64.697C64.995 14.5244 65.209 14.449 65.342 14.2988C65.438 14.1906 65.539 13.9556 65.645 13.5947L66.976 9.03516C66.876 8.93305 66.781 8.86328 66.691 8.82716C66.601 8.79108 66.434 8.76226 66.19 8.74121L66.235 8.57423H67.756L68.319 13.5ZM44.772 10.8438C44.331 10.8439 43.923 11.1609 43.551 11.7949C43.181 12.4264 42.995 13.0552 42.995 13.6807C42.995 13.9663 43.068 14.1874 43.212 14.3438C43.356 14.4971 43.538 14.5742 43.758 14.5742C44.182 14.5742 44.578 14.2594 44.948 13.6309C45.321 12.9995 45.508 12.3594 45.508 11.71C45.508 11.4305 45.439 11.2167 45.301 11.0693C45.165 10.919 44.989 10.8438 44.772 10.8438ZM56.01 10.8438C55.817 10.8438 55.612 10.9338 55.395 11.1143C55.089 11.3699 54.816 11.7489 54.575 12.251C54.338 12.7532 54.219 13.2073 54.219 13.6133C54.219 13.8177 54.27 13.9803 54.372 14.1006C54.474 14.2177 54.591 14.2763 54.724 14.2764C55.051 14.2764 55.408 14.034 55.793 13.5498C56.307 12.9063 56.564 12.2459 56.564 11.5693C56.564 11.3139 56.514 11.1289 56.415 11.0147C56.316 10.9007 56.181 10.8439 56.01 10.8438Z" fill="#252525"/>
</svg>
