<svg xmlns="http://www.w3.org/2000/svg" width="475.95673pt" height="317.18185pt" viewBox="0 0 475.95672 317.18184"><defs><clipPath id="a"><path d="M-8.503 603.588v-1h1v1h-1"/></clipPath></defs><path fill="#008c44" d="M0 317.182h475.957V0H0Z" style="stroke-width:4.46481"/><path fill="#ffe700" d="M238.896 131.667c14.03-19.731 37.08-32.598 63.134-32.598 2.396 0 4.765.113 7.106.327-11.347 24.44-35.085 41.955-63.148 44.512l.014.003 4.775 51.431c37.11-5.716 65.534-37.762 65.534-76.457 0-42.742-34.661-77.386-77.418-77.386-42.755 0-77.413 34.644-77.413 77.386 0 38.668 28.379 70.694 65.448 76.443l4.822-51.402.054-.014c-28.084-2.542-51.842-20.07-63.191-44.523a76.646 76.646 0 0 1 7.129-.338c26.062 0 49.11 12.879 63.138 32.614.004-.004.009-.009.009-.018" style="stroke-width:4.46481"/><path fill="#008c44" d="M238.886 54.33c-6.583 11.379-10.363 24.583-10.363 38.676 0 14.097 3.778 27.313 10.366 38.698 6.584-11.385 10.364-24.595 10.364-38.684 0-14.101-3.781-27.31-10.367-38.69" style="stroke-width:4.46481"/><path fill="#fff" d="M119.244 232.394c-2.876-2.639-6.95-2.88-6.95-2.88-1.919.12-1.318 2.158-1.318 2.158.48 1.435.12 3.234.12 3.234-.72 2.159-5.874 11.857-5.874 11.857-2.514 5.388-12.341 17.37-12.341 17.37l-5.752 6.95c-1.68 3.714.96 4.91.96 4.91 1.196 1.915 4.673 1.197 4.673 1.197 2.754-1.676 5.75-5.03 5.75-5.03 2.517-2.277 6.592-6.827 6.592-6.827 1.557.238 2.278 1.196 2.278 1.196 2.037 4.432 4.553 5.63 4.553 5.63 3.475 3.835 6.95 1.317 6.95 1.317 3.116-1.795-.6-7.183-.6-7.183-3.715-4.32-9.827-4.32-9.827-4.32-1.677.247-.959-.592-.959-.592l8.15-11.503 5.872-8.503c2.636-3.119.6-6.348.6-6.348l-2.877-2.633s2.876 2.633 0 0M147.643 228.202c-2.275-1.919-6.71-2.522-6.71-2.522-2.155-.353-1.797 1.202-1.797 1.202-.598 2.034.718 18.924.718 18.924-.959.478-3.475 1.198-3.475 1.198-2.517 2.156-1.675-1.914-1.675-1.914 3.113-8.385-1.2-9.104-1.2-9.104-4.431-3.712-8.27-2.517-8.27-2.517-1.195 1.078.24 3.353.24 3.353.482 2.278.119 4.553.119 4.553l-.956 20.127c-.72 3.709 1.558 5.985 1.558 5.985 2.515 2.997 5.031 2.037 5.031 2.037 3.478-1.073 2.878-5.273 2.878-5.273l.239-9.58 5.152-1.437.12 15.453-.6 17.608c-1.076 3.234.361 5.272.361 5.272.72 2.155 5.033 1.919 5.033 1.919 3.475-1.084 2.996-3 2.996-3l.12-3.353-.12-25.033c.48-6.596.358-23.599.358-23.599 2.398-8.025-.12-10.3-.12-10.3M222.86 250.244l-.218 1.09-.074 1.161-.145 1.021-.073 1.02v1.162l.073 1.232.22.947-.293 1.022-.507.288s-.875.219-1.092.29c-.22.075-.728 0-.728 0l-.653-.29-.436-.435-.074-1.234c0-.653-.218-2.183-.218-2.183-.073-.725-1.238-4.073-1.238-4.073-.144-.435.293-1.019.293-1.019l.872-.362.656-.14.871-.153.872-.288.728-.219h.727l.51.146zm8.903-8.553c-.485-.477-4.105-1.204-4.105-1.204-2.9-.727-5.317 1.204-5.317 1.204l-3.139 3.14c-2.416 1.08-3.26.123-3.26.123-2.415-1.452-4.83 0-4.83 0-1.934 1.929-.484 4.222-.484 4.222.484 3.742-.604 9.539-.604 9.539.845 5.555 4.226 7.97 4.226 7.97 2.296 3.377 5.555 1.085 5.555 1.085 2.055-1.928 5.799-2.778 8.575-3.743 2.78-.966 2.538-6.763 2.538-6.763-.485-2.416 1.449-9.057 1.931-10.86.485-1.815-.362-3.26-.362-3.26-.12-.848-.724-1.453-.724-1.453M251.262 256.182c-2.537-2.173-7.73-1.815-7.73-1.815-.603-7.85 2.053-14.485 2.053-14.485 1.33-1.812 1.812-5.915 1.812-5.915-.12-2.295-3.622-5.317-3.622-5.317-3.623-3.014-7.006-2.655-7.006-2.655-.722 1.45-.24 12.317-.24 12.317l-.727 17.268-.12 13.755v12.92c.605 7.364 4.227 6.276 4.227 6.276 3.141.12 3.743-2.653 3.743-2.653.362-.965-.723-8.327-.723-8.327-.486-2.54.361-16.781.361-16.781l1.45.114c.966 1.09 4.83 2.296 4.83 2.296 3.263 1.33 4.833-1.206 4.833-1.206 1.207-4.347-3.141-5.792-3.141-5.792M343.272 243.457l-.076-.69.09-.54.351-.518.28-.473.631-.272.451-.088.723-.18.721.18.722.36.361.812.091.72.09.722-.362.901-.63.812-.363.632-1.043.234-.67-.234-.421-.343-.66-.47-.362-.36.09-.66zm-5.488 5.084 1.263 1.261.904.738 1.35.524 1.624.18h1.804l1.082-.18 1.534-.54 1.714-.63 2.256-.903.81-.723.672-1.062.683-.651.45-.72.362-.902v-1.172l-.181-1.353-.361-1.083-.36-.812-.181-.72-.451-.992-.632-1.083-.72-1.172-.546-.542.116-.545-.204-.716.091-.812-.45-.992-.273-.99-1.081-1.175-.63-.36-.418-.642-.755.01-1.445-.09-.826.017-1.068.435-.812.448-1.171.993-1.191 1.152-.884 1.192-.904 1.444-.992 1.714-.54 1.171-.452 1.534-.18 1.17-.18 1.355-.09 1.712-.09 1.262.81 2.073M366.045 256.605l-.45-.902-.721-.721-.812-.541-.722-.721-.722-.453-.631-.36-.542-.36-.81-.542-.813-.089h-.9l-1.445-.18-1.534-.09-1.624.09-1.533.27-1.172.18-2.075.452-.993.18-1.009.293-1.696.428h-1.264l-1.173.36-1.44.424-1.696.733-2.123.597-.966.14-1.263.36-1.039.717-1.937.185-1.172.18-1.083.271-.903.362-1.171.27h-1.443l-.813.27-.992.089h-1.715l-.9.182-.27.359-.005.57.455.964.721.633.903.45 1.804 1.352 1.894.72 1.533.363h1.445l.81-.09 1.715-.272 1.805-.27 1.622-.27.993-.271-.362.54-.54.452-.937.89-.85.603-.739.671-.992.54-.452.813-.088.811.63.99 1.534.542 1.715-.18 1.442-.27 1.081-.181 1.174-.18 1.355-.271.9-.27.361.27-.35.716-.553.185-.594.66-1.119.243-.992.723-1.263.36-1.173.178-1.171.363-1.174.992-.72 1.712-.632 1.804-.18 1.353.18 1.082.359 1.081.543 1.533.45 1.444 1.353.991 1.262 1.081 1.445 1.084 1.533.63 2.164.632 2.347.36 1.353.092h1.984l1.444-.092 1.714.092 1.984-.182.993-.63.63-1.173-.09-1.442-.631-1.355-1.083-1.08-.722-.36-.901-.543-.631-.54-1.173-.362-.814-.45-.9-.271H345.931c-.271 0-1.084.181-1.084.181l-.81.09-.813.091-.812-.091-.813-.362-1.35-.449-1.265-.722-.812-.63.45-.452 1.174-.09.992-.09 1.355-.09.9-.18h.902l1.715-.272 1.172-.27 1.264-.27 1.262-.09.992-.541.902-.45.902-1.085.181-.901-.18-.541-.361-.452-.361-.359-.811-.359-.272-.184.09-.45.362-.359.63-.452.722-.542.632-.99.63-.722.36-1.442-.267-.813-.453-.36-.991-.721-1.443-.451-.993-.27-.902-.27-.902-.091h-.993l-.992.18-.721.18-.903.27-1.172.451-1.264.362-.9.54-.903.18-.993.181-.901.27-.723.09-.542-.09.361-.451.63-.449.703-.62.382-.554.811-.45.633-.362.902-.268 1.623-.544 1.443-.54 1.173-.451 1.534-.27 1.533-.18h1.895l2.254-.36 1.354-.092 1.712-.18h1.444l1.444.18h1.533l1.263.092h1.263l1.354-.272 1.083-.36.811-.811.18-.901" style="stroke-width:4.46481"/></svg>